<svg class="icon" style="width: 1em;height: 1em;vertical-align: middle;fill: currentColor;overflow: hidden;" viewBox="0 0 1024 1024" version="1.1" xmlns="http://www.w3.org/2000/svg" p-id="904"><path d="M512 904.96a137.5744 137.5744 0 0 1-102.912-46.336L83.2512 490.8032a137.2672 137.2672 0 0 1-16.128-160.0512l80.64-139.264A137.8304 137.8304 0 0 1 266.752 122.88h490.496a137.8304 137.8304 0 0 1 118.9888 68.608l80.64 139.264a137.2672 137.2672 0 0 1-16.128 160.0512L614.912 858.624a137.5744 137.5744 0 0 1-102.912 46.336zM266.752 194.56A65.9968 65.9968 0 0 0 209.92 227.3792l-80.7424 139.264a65.792 65.792 0 0 0 7.68 76.8l325.888 367.7696a65.7408 65.7408 0 0 0 98.5088 0l325.888-367.8208a65.792 65.792 0 0 0 7.68-76.8L814.08 227.3792A65.9968 65.9968 0 0 0 757.248 194.56z" fill="#606060" p-id="905"></path><path d="M512 632.1152a71.2192 71.2192 0 0 1-52.7872-23.4496L353.28 491.52a35.84 35.84 0 1 1 53.248-47.9744l105.472 116.6336 102.912-116.48a35.84 35.84 0 1 1 53.7088 47.4624l-103.3728 116.9408a70.7072 70.7072 0 0 1-53.248 24.0128z" fill="#606060" p-id="906"></path></svg>