<svg class="icon" style="width: 1em;height: 1em;vertical-align: middle;fill: currentColor;overflow: hidden;" viewBox="0 0 1024 1024" version="1.1" xmlns="http://www.w3.org/2000/svg" p-id="782"><path d="M667.2384 939.9808H348.416a254.9248 254.9248 0 0 1-254.6176-254.6176V346.1632a254.9248 254.9248 0 0 1 254.6176-254.6176h215.5008a35.84 35.84 0 1 1 0 71.68H348.416a183.1424 183.1424 0 0 0-182.9376 182.9376v339.2a183.1424 183.1424 0 0 0 182.9376 182.9376h318.8224a183.1424 183.1424 0 0 0 182.9376-182.9376V449.4848a35.84 35.84 0 0 1 71.68 0v235.8784a254.9248 254.9248 0 0 1-254.6176 254.6176z" fill="#606060" p-id="783"></path><path d="M572.7744 662.3744a35.84 35.84 0 0 1-35.84-35.84V452.1472A205.5168 205.5168 0 0 1 742.4 246.8864h83.6096l-125.44-121.8048a35.84 35.84 0 0 1 49.9712-51.2l188.4672 183.1936a35.84 35.84 0 0 1-24.9856 61.44H742.4a133.7344 133.7344 0 0 0-133.5808 133.5808v174.3872a35.84 35.84 0 0 1-36.0448 35.8912z" fill="#606060" p-id="784"></path></svg>