<svg class="icon" style="width: 1em;height: 1em;vertical-align: middle;fill: currentColor;overflow: hidden;" viewBox="0 0 1024 1024" version="1.1" xmlns="http://www.w3.org/2000/svg" p-id="758"><path d="M510.1056 959.7952a450.56 450.56 0 1 1 450.56-450.56 450.9696 450.9696 0 0 1-450.56 450.56z m0-829.44a378.88 378.88 0 1 0 378.88 378.88 379.1872 379.1872 0 0 0-378.88-378.624z" fill="#606060" p-id="759"></path><path d="M349.3376 705.9456a35.84 35.84 0 0 1-34.4064-45.824l72.3968-249.1392a35.84 35.84 0 0 1 24.4224-24.3712l249.088-72.448a35.84 35.84 0 0 1 44.4416 44.2368l-72.3968 249.088a35.84 35.84 0 0 1-24.4224 24.4224L359.3728 704.512a35.4816 35.4816 0 0 1-10.0352 1.4336z m101.2224-256l-48.5888 167.5264 167.5776-48.6912 48.6912-167.5776z m147.8144 147.7632z" fill="#606060" p-id="760"></path></svg>