<svg class="icon" style="width: 1em;height: 1em;vertical-align: middle;fill: currentColor;overflow: hidden;" viewBox="0 0 1024 1024" version="1.1" xmlns="http://www.w3.org/2000/svg" p-id="770"><path d="M497.5616 962.56a450.56 450.56 0 1 1 450.56-450.56 450.9184 450.9184 0 0 1-450.56 450.56z m0-829.44a378.88 378.88 0 1 0 378.88 378.88 379.1872 379.1872 0 0 0-378.88-378.88z" fill="#606060" p-id="771"></path><path d="M488.6016 751.616a57.4464 57.4464 0 0 1-56.32-46.6432l-18.7904-99.7376L307.2 580.4544a57.1904 57.1904 0 0 1-12.8-106.8032l308.8384-155.5968a62.464 62.464 0 0 1 84.7872 81.92l-147.456 318.3616a56.9856 56.9856 0 0 1-51.968 33.28z m-126.464-231.936l73.472 17.1008a62.6176 62.6176 0 0 1 47.2576 49.3056l11.4688 61.44L611.7376 394.24z m-35.84 17.9712z m-16.128-32z" fill="#606060" p-id="772"></path></svg>