<svg class="icon" style="width: 1em;height: 1em;vertical-align: middle;fill: currentColor;overflow: hidden;" viewBox="0 0 1024 1024" version="1.1" xmlns="http://www.w3.org/2000/svg" p-id="868"><path d="M508.1088 742.8096a97.28 97.28 0 0 1-63.0784-23.2448A1512.0896 1512.0896 0 0 1 320.6144 599.04a182.9376 182.9376 0 0 1-43.3152-145.8176c7.2192-45.568 33.1264-82.2784 74.8544-106.24 65.4336-37.5808 121.088-19.0464 155.9552 7.3216 34.9184-26.368 90.5728-44.9024 156.0064-7.3216 41.728 23.9616 67.584 60.672 74.8032 106.24a182.5792 182.5792 0 0 1-43.3152 145.8176 1504 1504 0 0 1-124.416 120.3712 97.28 97.28 0 0 1-63.0784 23.3984z m-81.92-344.8832a76.8 76.8 0 0 0-38.5024 11.3664A75.6224 75.6224 0 0 0 348.16 464.5888a111.872 111.872 0 0 0 25.6 86.528 1432.832 1432.832 0 0 0 117.76 113.8176 25.6 25.6 0 0 0 33.3824 0 1424.64 1424.64 0 0 0 117.76-113.8176 111.6672 111.6672 0 0 0 25.6-86.528 75.5712 75.5712 0 0 0-39.68-55.296c-54.8352-31.4368-87.6032 11.264-91.136 16.2304a35.84 35.84 0 0 1-58.112 0c-4.608-5.6832-23.04-27.5968-52.992-27.5968z" fill="#606060" p-id="869"></path><path d="M512 962.56a450.56 450.56 0 1 1 450.56-450.56 450.9696 450.9696 0 0 1-450.56 450.56z m0-829.44a378.88 378.88 0 1 0 378.88 378.88 379.2384 379.2384 0 0 0-378.88-378.88z" fill="#606060" p-id="870"></path></svg>