<svg class="icon" style="width: 1em;height: 1em;vertical-align: middle;fill: currentColor;overflow: hidden;" viewBox="0 0 1024 1024" version="1.1" xmlns="http://www.w3.org/2000/svg" p-id="733"><path d="M507.1872 578.56a172.9024 172.9024 0 1 1 172.9024-172.9024A173.1072 173.1072 0 0 1 507.1872 578.56z m0-274.1248a101.2224 101.2224 0 1 0 101.2224 101.2224 101.3248 101.3248 0 0 0-101.2224-101.4784z" fill="#606060" p-id="734"></path><path d="M507.1872 849.92A173.1072 173.1072 0 0 1 389.12 803.84c-141.056-130.9184-157.2864-146.3808-160.6144-149.9136l-0.8192-0.8704a32.768 32.768 0 0 1-2.1504-2.5088 373.76 373.76 0 1 1 563.2 0.256c-0.6144 0.768-1.28 1.536-1.9456 2.2528l-0.5632 0.6144c-3.3792 3.5328-20.0192 19.4048-160.8192 150.1184A173.312 173.312 0 0 1 507.1872 849.92z m-226.3552-244.8384c4.7616 4.6592 32.4096 30.72 157.0304 146.3808a102.4 102.4 0 0 0 138.5984 0c128.768-119.552 153.1392-142.592 157.2864-146.6368a302.08 302.08 0 1 0-453.0688 0z m0.4096 0.4608z m451.9936 0z" fill="#606060" p-id="735"></path><path d="M509.6448 971.776c-157.4912 0-249.1392-60.2624-252.928-62.8224a35.84 35.84 0 0 1 39.7824-59.5968c1.3312 0.8704 79.36 50.7392 213.1456 50.7392 124.1088 0 208.3328-50.8416 209.2032-51.2a35.84 35.84 0 0 1 37.7856 60.928c-3.9936 2.304-101.2736 61.952-246.9888 61.952z" fill="#606060" p-id="736"></path></svg>