<svg class="icon" style="width: 1em;height: 1em;vertical-align: middle;fill: currentColor;overflow: hidden;" viewBox="0 0 1024 1024" version="1.1" xmlns="http://www.w3.org/2000/svg" p-id="963"><path d="M489.0112 751.2064a344.8832 344.8832 0 1 1 344.8832-344.8832 345.2928 345.2928 0 0 1-344.8832 344.8832z m0-618.0864a273.2032 273.2032 0 1 0 273.2032 273.2032A273.5616 273.5616 0 0 0 489.0112 133.12zM782.08 940.5952a35.84 35.84 0 0 1-19.8144-5.9904c-1.792-1.1776-102.9632-66.1504-276.48-66.1504-160.9216 0-270.0288 66.0992-271.104 66.56a35.84 35.84 0 0 1-37.8368-60.8768c5.12-3.1744 126.5152-77.568 308.9408-77.568 197.376 0 311.5008 75.008 316.2624 78.2336a35.84 35.84 0 0 1-20.0192 65.5872z" fill="#606060" p-id="964"></path></svg>