<svg class="icon" style="width: 1em;height: 1em;vertical-align: middle;fill: currentColor;overflow: hidden;" viewBox="0 0 1024 1024" version="1.1" xmlns="http://www.w3.org/2000/svg" p-id="916"><path d="M512 483.7888A207.3088 207.3088 0 1 1 719.0016 276.48 207.5136 207.5136 0 0 1 512 483.7888z m0-343.04A135.6288 135.6288 0 1 0 647.3216 276.48 135.7312 135.7312 0 0 0 512 140.9024zM738.0992 944.5888H285.3376a201.5744 201.5744 0 0 1-201.3184-201.3184v-1.2288a201.5744 201.5744 0 0 1 201.3184-201.3184h452.7616a201.5744 201.5744 0 0 1 201.3696 201.3184v1.2288a201.5744 201.5744 0 0 1-201.3696 201.3184z m-452.7616-332.1856a129.792 129.792 0 0 0-129.6384 129.6384v1.2288a129.792 129.792 0 0 0 129.6384 129.6384h452.7616a129.8432 129.8432 0 0 0 129.6896-129.6384v-1.2288a129.8432 129.8432 0 0 0-129.6896-129.6384z" fill="#606060" p-id="917"></path></svg>