<svg class="icon" style="width: 1em;height: 1em;vertical-align: middle;fill: currentColor;overflow: hidden;" viewBox="0 0 1024 1024" version="1.1" xmlns="http://www.w3.org/2000/svg" p-id="892"><path d="M718.8992 938.9056a111.5136 111.5136 0 0 1-39.5264-7.2704l-153.344-58.112a39.5264 39.5264 0 0 0-28.0576 0L344.6272 931.84a111.2576 111.2576 0 0 1-150.528-109.3632l7.8848-163.84a39.5776 39.5776 0 0 0-8.6528-26.6752l-102.7072-128a111.3088 111.3088 0 0 1 57.4976-176.9984l158.2592-43.1616a39.3728 39.3728 0 0 0 22.6816-16.4352l89.9072-137.1648A110.8992 110.8992 0 0 1 512 79.9232a110.8992 110.8992 0 0 1 93.0304 50.2784l89.9072 137.1648a39.3728 39.3728 0 0 0 22.6816 16.4352l158.2592 43.1616a111.3088 111.3088 0 0 1 57.4976 176.9472l-102.7072 128a39.5776 39.5776 0 0 0-8.6528 26.6752l7.8848 163.84a111.36 111.36 0 0 1-111.0016 116.6336zM512 799.2832a111.4112 111.4112 0 0 1 39.424 7.2192l153.6 58.112a39.5776 39.5776 0 0 0 53.5552-38.8608l-7.8848-163.84a110.848 110.848 0 0 1 24.3712-74.9568l102.4-128a39.5264 39.5264 0 0 0-20.48-62.8736l-158.2592-43.1616a111.0528 111.0528 0 0 1-63.7952-46.08L545.0752 169.472a39.5264 39.5264 0 0 0-66.1504 0L389.12 306.6368a111.0528 111.0528 0 0 1-63.7952 46.08l-158.3616 43.4176a39.5264 39.5264 0 0 0-20.48 62.8736l102.656 128a110.848 110.848 0 0 1 24.3712 74.9568l-7.8848 163.84a39.5776 39.5776 0 0 0 53.5552 38.8608l153.3952-58.1632a111.2064 111.2064 0 0 1 39.424-7.2192z" fill="#606060" p-id="893"></path><path d="M512 699.8016a178.688 178.688 0 0 1-159.3344-97.28 35.84 35.84 0 1 1 63.6416-32.8704 107.52 107.52 0 0 0 191.3344 0 35.84 35.84 0 1 1 63.6928 32.8704 178.7392 178.7392 0 0 1-159.3344 97.28z" fill="#606060" p-id="894"></path></svg>