<svg class="icon" style="width: 1em;height: 1em;vertical-align: middle;fill: currentColor;overflow: hidden;" viewBox="0 0 1024 1024" version="1.1" xmlns="http://www.w3.org/2000/svg" p-id="986"><path d="M723.8656 126.4128v-35.0208a35.84 35.84 0 1 0-71.68 0v27.5456H377.9072v-27.5456a35.84 35.84 0 0 0-71.68 0v32.1024a288.0512 288.0512 0 0 0-237.1072 283.136v266.24a288.0512 288.0512 0 0 0 287.6928 287.6416h302.08a288.0512 288.0512 0 0 0 287.6928-287.6928v-266.24a288.1024 288.1024 0 0 0-222.72-280.1664z m151.0912 546.4064a216.2688 216.2688 0 0 1-216.0128 216.0128h-302.08a216.2688 216.2688 0 0 1-216.064-216.0128v-266.24a216.3712 216.3712 0 0 1 165.4272-209.92v28.9792a35.84 35.84 0 0 0 71.68 0v-35.0208h274.2784v35.0208a35.84 35.84 0 0 0 71.68 0v-25.0368a216.4224 216.4224 0 0 1 151.0912 206.0288z" fill="#606060" p-id="987"></path><path d="M674.8672 428.5952H340.8896a35.84 35.84 0 0 0 0 71.68h333.9776a35.84 35.84 0 0 0 0-71.68zM579.6864 614.4H340.8896a35.84 35.84 0 0 0 0 71.68h238.7968a35.84 35.84 0 0 0 0-71.68z" fill="#606060" p-id="988"></path></svg>