<svg class="icon" style="width: 1em;height: 1em;vertical-align: middle;fill: currentColor;overflow: hidden;" viewBox="0 0 1024 1024" version="1.1" xmlns="http://www.w3.org/2000/svg" p-id="939"><path d="M512 962.56a450.56 450.56 0 1 1 450.56-450.56 450.9696 450.9696 0 0 1-450.56 450.56z m0-829.44a378.88 378.88 0 1 0 378.88 378.88 379.2384 379.2384 0 0 0-378.88-378.88z" fill="#606060" p-id="940"></path><path d="M698.6752 675.84a35.84 35.84 0 0 1-19.456-5.7856l-197.4784-128a35.84 35.84 0 0 1-16.3328-32l10.752-205.824a35.84 35.84 0 0 1 71.68 3.7888l-9.728 185.1392 180.1216 116.5824a35.84 35.84 0 0 1-19.5584 66.0992z" fill="#606060" p-id="941"></path></svg>