<svg class="icon" style="width: 1em;height: 1em;vertical-align: middle;fill: currentColor;overflow: hidden;" viewBox="0 0 1024 1024" version="1.1" xmlns="http://www.w3.org/2000/svg" p-id="1010"><path d="M588.8 396.3904H309.4016a35.84 35.84 0 1 1 0-71.68H588.8a35.84 35.84 0 0 1 0 71.68zM711.2192 600.6784H309.4016a35.84 35.84 0 0 1 0-71.68h401.8176a35.84 35.84 0 0 1 0 71.68z" fill="#606060" p-id="1011"></path><path d="M512 936.96a93.2864 93.2864 0 0 1-66.2016-27.392l-57.2928-57.2928a21.7088 21.7088 0 0 0-15.36-6.4h-81.92a222.3104 222.3104 0 0 1-222.0544-222.0544V309.0432A222.3104 222.3104 0 0 1 291.2768 87.04h441.4464a222.3104 222.3104 0 0 1 222.0544 222.0544v314.7776a222.3104 222.3104 0 0 1-222.0544 222.0544h-81.92a21.7088 21.7088 0 0 0-15.36 6.4l-57.2928 57.2928A93.2864 93.2864 0 0 1 512 936.96zM291.2768 158.72a150.5792 150.5792 0 0 0-150.3744 150.3232v314.7776a150.5792 150.5792 0 0 0 150.3744 150.3744h81.92a92.9792 92.9792 0 0 1 66.2016 27.392L496.64 858.88a21.9648 21.9648 0 0 0 31.0272 0l57.2928-57.2928a92.9792 92.9792 0 0 1 66.2016-27.392h81.92a150.5792 150.5792 0 0 0 150.3744-150.3744V309.0432A150.5792 150.5792 0 0 0 732.7232 158.72z" fill="#606060" p-id="1012"></path></svg>