<svg class="icon" style="width: 1em;height: 1em;vertical-align: middle;fill: currentColor;overflow: hidden;" viewBox="0 0 1024 1024" version="1.1" xmlns="http://www.w3.org/2000/svg" p-id="927"><path d="M512 945.5616H233.1648a154.9312 154.9312 0 0 1-154.7264-154.7264V512A432.9984 432.9984 0 0 1 818.176 205.824 433.2032 433.2032 0 0 1 512 945.5616z m0-795.4432A361.984 361.984 0 0 0 150.1184 512v278.8352a83.1488 83.1488 0 0 0 83.0464 83.0464H512a361.8816 361.8816 0 0 0 8.7552-723.6608z" fill="#606060" p-id="928"></path><path d="M674.304 480.4608H349.696a35.84 35.84 0 1 1 0-71.68h324.608a35.84 35.84 0 0 1 0 71.68zM533.6576 655.36H349.696a35.84 35.84 0 0 1 0-71.68h183.9616a35.84 35.84 0 0 1 0 71.68z" fill="#606060" p-id="929"></path></svg>