<svg class="icon" style="width: 1em;height: 1em;vertical-align: middle;fill: currentColor;overflow: hidden;" viewBox="0 0 1024 1024" version="1.1" xmlns="http://www.w3.org/2000/svg" p-id="806"><path d="M540.2112 956.1088c-140.5952 0-249.5488-28.0064-323.8912-83.2512-76.3392-56.7296-115.0464-139.6224-115.0464-246.3744 0-148.48 82.8928-290.048 246.3232-420.8128a228.8128 228.8128 0 0 0 70.5536-92.16 73.1648 73.1648 0 0 1 42.9056-41.2672 71.68 71.68 0 0 1 58.2656 4.3008c133.12 71.68 177.4592 220.16 172.6976 338.6368a203.3152 203.3152 0 0 0 31.5392-50.4832 65.024 65.024 0 0 1 114.8416-7.2704c41.3696 67.9936 89.4976 172.0832 83.8656 281.9072-4.864 95.2832-37.5808 171.3152-97.28 225.9456-65.6384 60.2112-161.4848 90.8288-284.7744 90.8288zM485.2736 139.5712a1.9968 1.9968 0 0 0-0.6656 0.8192 301.4656 301.4656 0 0 1-92.16 121.2928C246.784 378.1632 172.9536 500.8896 172.9536 626.4832c0 171.1616 123.5456 257.9456 367.2576 257.9456 197.5296 0 302.08-83.712 310.4768-248.832 4.608-89.7024-37.4272-179.2-67.1232-230.4-21.504 43.3664-60.2112 95.1296-127.1808 118.3232a35.84 35.84 0 0 1-46.08-43.7248c27.2384-95.3856 6.4-269.568-124.928-340.4288z" fill="#606060" p-id="807"></path><path d="M366.9504 756.2752a35.84 35.84 0 0 1-24.832-10.24c-43.8272-42.0352-66.56-89.7024-67.0208-141.6704-1.1264-88.3712 63.6416-154.7264 66.56-157.5424a35.84 35.84 0 0 1 51.2 50.3808c-1.024 1.024-46.6944 48.9472-45.7216 106.752 0.512 31.8464 15.6672 62.2592 44.9536 90.368a35.84 35.84 0 0 1-24.7808 61.696z" fill="#606060" p-id="808"></path></svg>