<svg class="icon" style="width: 1em;height: 1em;vertical-align: middle;fill: currentColor;overflow: hidden;" viewBox="0 0 1024 1024" version="1.1" xmlns="http://www.w3.org/2000/svg" p-id="794"><path d="M512 962.56a450.56 450.56 0 1 1 450.56-450.56 450.9696 450.9696 0 0 1-450.56 450.56z m0-829.44a378.88 378.88 0 1 0 378.88 378.88 379.2384 379.2384 0 0 0-378.88-378.88z" fill="#606060" p-id="795"></path><path d="M512 718.6432a35.84 35.84 0 0 1-25.6-10.5472L315.904 537.6a35.84 35.84 0 0 1 0-50.688l170.752-171.008a35.84 35.84 0 0 1 50.688 0l170.752 170.752a35.84 35.84 0 0 1 0 50.688L537.6 708.096a35.84 35.84 0 0 1-25.6 10.5472zM391.8848 512L512 632.1152 632.1152 512 512 391.8848z" fill="#606060" p-id="796"></path></svg>