<svg class="icon" style="width: 1em;height: 1em;vertical-align: middle;fill: currentColor;overflow: hidden;" viewBox="0 0 1024 1024" version="1.1" xmlns="http://www.w3.org/2000/svg" p-id="830"><path d="M527.6672 945.3568H358.4A259.7376 259.7376 0 0 1 99.1232 686.08V337.92A259.7376 259.7376 0 0 1 358.4 78.6432h307.2A259.7376 259.7376 0 0 1 924.8768 337.92v200.6016a275.1488 275.1488 0 0 1-73.6256 187.5968l-121.4976 130.8672a276.48 276.48 0 0 1-202.0864 88.3712zM358.4 150.3232A188.0064 188.0064 0 0 0 170.8032 337.92v348.16A188.0064 188.0064 0 0 0 358.4 873.6768h168.96a204.8 204.8 0 0 0 149.5552-65.2288L798.72 677.5296a203.4176 203.4176 0 0 0 54.4768-138.8032V337.92A188.0064 188.0064 0 0 0 665.6 150.3232z" fill="#606060" p-id="831"></path><path d="M668.7232 395.264H355.2768a35.84 35.84 0 0 1 0-71.68h313.4464a35.84 35.84 0 0 1 0 71.68zM560.9472 595.7632H355.2768a35.84 35.84 0 0 1 0-71.68h205.6704a35.84 35.84 0 0 1 0 71.68z" fill="#606060" p-id="832"></path></svg>