<svg class="icon" style="width: 1em;height: 1em;vertical-align: middle;fill: currentColor;overflow: hidden;" viewBox="0 0 1024 1024" version="1.1" xmlns="http://www.w3.org/2000/svg" p-id="818"><path d="M778.24 907.8272H245.76A180.6848 180.6848 0 0 1 65.4848 711.68L102.4 276.48a179.6096 179.6096 0 0 1 180.0704-165.632h459.0592A179.6096 179.6096 0 0 1 921.6 276.48l36.9152 435.2A180.6848 180.6848 0 0 1 778.24 907.8272zM282.4704 182.528A108.3392 108.3392 0 0 0 174.08 282.368l-36.9152 435.5584A109.0048 109.0048 0 0 0 245.76 836.1472h532.48a109.0048 109.0048 0 0 0 108.6464-118.2208l-36.9152-435.5584a108.3392 108.3392 0 0 0-108.6464-99.84z" fill="#606060" p-id="819"></path><path d="M512 496.2816A197.632 197.632 0 0 1 334.2336 384a35.84 35.84 0 0 1 64.768-30.72 125.0304 125.0304 0 0 0 225.9968 0 35.84 35.84 0 0 1 64.768 30.72A197.632 197.632 0 0 1 512 496.2816z" fill="#606060" p-id="820"></path></svg>