<svg class="icon" style="width: 1em;height: 1em;vertical-align: middle;fill: currentColor;overflow: hidden;" viewBox="0 0 1024 1024" version="1.1" xmlns="http://www.w3.org/2000/svg" p-id="854"><path d="M792.2688 786.1248H378.88a138.24 138.24 0 0 1-138.24-132.1984l-22.1696-486.4A39.2192 39.2192 0 0 0 179.2 129.9968H97.792a35.84 35.84 0 0 1 0-71.68H179.2a110.848 110.848 0 0 1 110.8992 105.984l1.2288 26.6752h532.48A138.5472 138.5472 0 0 1 961.3824 343.04l-31.232 318.0544a138.24 138.24 0 0 1-137.8816 125.0304zM294.2976 262.656l17.664 387.9936A66.56 66.56 0 0 0 378.88 714.4448h413.4912a66.56 66.56 0 0 0 66.56-60.3136l31.232-318.0544a66.9696 66.9696 0 0 0-66.56-73.4208z" fill="#606060" p-id="855"></path><path d="M663.0912 536.832h-144.5888a35.84 35.84 0 0 1 0-71.68h144.5888a35.84 35.84 0 0 1 0 71.68z" fill="#606060" p-id="856"></path><path d="M372.6848 899.6864m-57.344 0a57.344 57.344 0 1 0 114.688 0 57.344 57.344 0 1 0-114.688 0Z" fill="#606060" p-id="857"></path><path d="M799.5904 899.6864m-57.344 0a57.344 57.344 0 1 0 114.688 0 57.344 57.344 0 1 0-114.688 0Z" fill="#606060" p-id="858"></path></svg>