<svg class="icon" style="width: 1em;height: 1em;vertical-align: middle;fill: currentColor;overflow: hidden;" viewBox="0 0 1024 1024" version="1.1" xmlns="http://www.w3.org/2000/svg" p-id="998"><path d="M656.0256 959.4368H367.9744a277.76 277.76 0 0 1-277.4528-277.4528V342.016a277.76 277.76 0 0 1 277.4528-277.4528h288.0512a277.76 277.76 0 0 1 277.4528 277.4528v339.968a277.76 277.76 0 0 1-277.4528 277.4528zM367.9744 136.2432A206.0288 206.0288 0 0 0 162.2016 342.016v339.968a206.0288 206.0288 0 0 0 205.7728 205.7728h288.0512a206.0288 206.0288 0 0 0 205.7728-205.7728V342.016a206.0288 206.0288 0 0 0-205.7728-205.7728z" fill="#606060" p-id="999"></path><path d="M660.736 368.9984H360.0896a35.84 35.84 0 0 1 0-71.68h300.6464a35.84 35.84 0 1 1 0 71.68zM660.736 547.84H360.0896a35.84 35.84 0 1 1 0-71.68h300.6464a35.84 35.84 0 0 1 0 71.68zM512 726.6816H360.0896a35.84 35.84 0 1 1 0-71.68H512a35.84 35.84 0 0 1 0 71.68z" fill="#606060" p-id="1000"></path></svg>