<svg class="icon" style="width: 1em;height: 1em;vertical-align: middle;fill: currentColor;overflow: hidden;" viewBox="0 0 1024 1024" version="1.1" xmlns="http://www.w3.org/2000/svg" p-id="1058"><path d="M773.12 954.0096H251.136a171.3152 171.3152 0 0 1-171.1104-171.1104V432.5376a171.1616 171.1616 0 0 1 73.1648-140.288l261.12-182.0672a171.6736 171.6736 0 0 1 195.8912 0l261.12 182.0672a171.1616 171.1616 0 0 1 73.1648 140.288v350.3616A171.3152 171.3152 0 0 1 773.12 954.0096zM512 151.1424A99.4816 99.4816 0 0 0 455.0656 168.96L194.2528 351.0272a99.3792 99.3792 0 0 0-42.5472 81.5104v350.3616a99.5328 99.5328 0 0 0 99.4304 99.4304H773.12a99.5328 99.5328 0 0 0 99.4304-99.4304V432.5376a99.3792 99.3792 0 0 0-42.5472-81.5104L568.9344 168.96A99.4816 99.4816 0 0 0 512 151.1424z" fill="#606060" p-id="1059"></path><path d="M512 744.0896a197.632 197.632 0 0 1-177.7664-112.64 35.84 35.84 0 0 1 64.768-30.72 125.0304 125.0304 0 0 0 225.9968 0 35.84 35.84 0 0 1 64.768 30.72 197.632 197.632 0 0 1-177.7664 112.64z" fill="#606060" p-id="1060"></path></svg>