<svg class="icon" style="width: 1em;height: 1em;vertical-align: middle;fill: currentColor;overflow: hidden;" viewBox="0 0 1024 1024" version="1.1" xmlns="http://www.w3.org/2000/svg" p-id="880"><path d="M716.8 937.472H307.2a157.6448 157.6448 0 0 1-152.7296-120.7296l-83.0976-334.848a159.6416 159.6416 0 0 1 61.44-168.96l288.1024-207.1552a155.904 155.904 0 0 1 182.1696 0L890.88 312.7808a159.6416 159.6416 0 0 1 61.44 168.96l-83.0464 334.8992A157.696 157.696 0 0 1 716.8 937.472zM512 148.1216A84.224 84.224 0 0 0 462.7456 163.84L174.848 370.944a89.6512 89.6512 0 0 0-33.8944 93.696l83.0464 334.8992A86.1184 86.1184 0 0 0 307.2 865.792h409.6a86.1184 86.1184 0 0 0 83.1488-66.2528l83.0464-334.8992a89.6512 89.6512 0 0 0-33.8944-93.696L561.2544 163.84a84.1216 84.1216 0 0 0-49.2544-15.7184z m322.56 660.0192z" fill="#606060" p-id="881"></path><path d="M330.3936 717.568a35.84 35.84 0 0 1-34.816-27.5968L256 524.2368a35.84 35.84 0 1 1 69.7344-16.5376l39.3728 165.7344a35.84 35.84 0 0 1-26.624 43.1616 35.2768 35.2768 0 0 1-8.0896 0.9728z" fill="#606060" p-id="882"></path></svg>