<svg class="icon" style="width: 1em;height: 1em;vertical-align: middle;fill: currentColor;overflow: hidden;" viewBox="0 0 1024 1024" version="1.1" xmlns="http://www.w3.org/2000/svg" p-id="842"><path d="M768 939.1104H246.4256A171.3152 171.3152 0 0 1 75.3152 768V417.6384A171.3152 171.3152 0 0 1 148.48 277.2992L409.6 95.232a171.8784 171.8784 0 0 1 195.8912 0l260.8128 182.0672a171.2128 171.2128 0 0 1 73.216 140.3392V768a171.3152 171.3152 0 0 1-171.52 171.1104zM507.2896 136.192A99.5328 99.5328 0 0 0 450.56 154.0608L189.44 336.0768a99.5328 99.5328 0 0 0-42.496 81.5616V768a99.5328 99.5328 0 0 0 99.4304 99.4304H768A99.5328 99.5328 0 0 0 867.584 768V417.6384a99.584 99.584 0 0 0-42.5472-81.5616l-260.864-182.016a99.3792 99.3792 0 0 0-56.8832-17.8688z" fill="#606060" p-id="843"></path><path d="M645.12 746.3936a35.84 35.84 0 0 1-35.84-35.84v-119.0912a102.0928 102.0928 0 0 0-204.1344 0v119.0912a35.84 35.84 0 0 1-71.68 0v-119.0912a173.7728 173.7728 0 0 1 347.4944 0v119.0912a35.84 35.84 0 0 1-35.84 35.84z" fill="#606060" p-id="844"></path></svg>