<svg class="icon" style="width: 1em;height: 1em;vertical-align: middle;fill: currentColor;overflow: hidden;" viewBox="0 0 1024 1024" version="1.1" xmlns="http://www.w3.org/2000/svg" p-id="2482"><path d="M853.333333 366.933333l64-17.066666c21.333333-8.533333 34.133333-29.866667 29.866667-51.2-8.533333-25.6-29.866667-38.4-51.2-29.866667l-85.333333 21.333333c-4.266667 0-8.533333 4.266667-12.8 8.533334l-85.333334-106.666667c-8.533333-17.066667-17.066667-21.333333-34.133333-21.333333h-341.333333c-12.8 0-25.6 4.266667-34.133334 17.066666L221.866667 294.4 213.333333 285.866667l-85.333333-21.333334c-21.333333-4.266667-42.666667 8.533333-51.2 29.866667-4.266667 25.6 8.533333 46.933333 29.866667 55.466667l59.733333 17.066666-64 81.066667c-12.8 17.066667-17.066667 34.133333-17.066667 51.2V810.666667c0 25.6 17.066667 42.666667 42.666667 42.666666h128c25.6 0 42.666667-17.066667 42.666667-42.666666v-42.666667h426.666666v42.666667c0 25.6 17.066667 42.666667 42.666667 42.666666h128c25.6 0 42.666667-17.066667 42.666667-42.666666v-311.466667c0-17.066667-8.533333-38.4-17.066667-51.2L853.333333 366.933333zM358.4 256h302.933333L725.333333 341.333333H290.133333l68.266667-85.333333z m490.666667 512h-42.666667v-85.333333h-597.333333v85.333333h-42.666667v-268.8L226.133333 426.666667h567.466667l55.466667 72.533333V768zM337.066667 512h-42.666667c-25.6 0-42.666667 17.066667-42.666667 42.666667s17.066667 42.666667 42.666667 42.666666h42.666667c25.6 0 42.666667-17.066667 42.666666-42.666666s-17.066667-42.666667-42.666666-42.666667zM721.066667 512h-42.666667c-25.6 0-42.666667 17.066667-42.666667 42.666667s17.066667 42.666667 42.666667 42.666666h42.666667c25.6 0 42.666667-17.066667 42.666666-42.666666s-17.066667-42.666667-42.666666-42.666667z" p-id="2483"></path></svg>