<svg class="icon" style="width: 1em;height: 1em;vertical-align: middle;fill: currentColor;overflow: hidden;" viewBox="0 0 1024 1024" version="1.1" xmlns="http://www.w3.org/2000/svg" p-id="6263"><path d="M898.6112 144.9984H141.9264a38.76352 38.76352 0 0 0 0 77.5168h28.2624v406.016c0 53.504 43.3664 96.8704 96.8704 96.8704h101.9392L254.1056 837.12c-15.4112 14.9504-15.7184 39.5776-0.768 54.9888a38.81984 38.81984 0 0 0 27.8528 11.776c9.7792 0 19.5584-3.6352 27.0848-11.008l172.2368-167.4752h72.704l172.2368 167.4752a38.9376 38.9376 0 0 0 27.0848 11.008c10.1376 0 20.2752-3.9424 27.8528-11.776a38.89152 38.89152 0 0 0-0.768-54.9888l-114.8928-111.7184h102.9632c53.504 0 96.8704-43.3664 96.8704-96.8704v-406.016h33.9456c21.4016 0 38.7584-17.3568 38.7584-38.7584s-17.2544-38.7584-38.656-38.7584zM328.6016 317.5424h203.6736a38.76352 38.76352 0 0 1 0 77.5168H328.6016a38.76352 38.76352 0 0 1 0-77.5168z m373.4016 250.112H328.6016a38.76352 38.76352 0 0 1 0-77.5168h373.3504c21.4016 0 38.7584 17.3568 38.7584 38.7584s-17.3056 38.7584-38.7072 38.7584z" fill="#F23D4F" p-id="6264"></path><path d="M103.168 183.7568c0 21.4016 17.3568 38.7584 38.7584 38.7584h28.2624v406.016c0 53.504 43.3664 96.8704 96.8704 96.8704h102.7072L266.496 824.832c0.9728 0 1.9968 0.0512 2.9696 0.0512 41.4208 0 81.8688-4.096 120.9856-11.776l91.0848-87.7056h71.8848l15.36 15.2064c132.864-77.2608 248.5248-202.1376 295.7312-351.2832V222.5664h28.6208c0.256-7.2192 0.4096-14.4896 0.4096-21.76 0-18.7904-0.8704-37.4272-2.5088-55.808H141.9264c-21.4016 0-38.7584 17.3568-38.7584 38.7584z m225.4336 133.7856h203.6736a38.76352 38.76352 0 0 1 0 77.5168H328.6016a38.76352 38.76352 0 0 1 0-77.5168z m0 172.544h373.3504a38.76352 38.76352 0 0 1 0 77.5168H328.6016a38.76352 38.76352 0 0 1 0-77.5168z" fill="#FC4956" p-id="6265"></path><path d="M103.168 183.7568c0 21.4016 17.3568 38.7584 38.7584 38.7584h28.2624v376.6272c50.176-5.7344 98.5088-17.3568 144.3328-34.2016a38.74816 38.74816 0 0 1 14.08-74.8544h128.6656c116.992-82.2272 204.4416-203.5712 243.3536-345.088H141.9264c-21.4016 0-38.7584 17.3568-38.7584 38.7584z m225.4336 133.7856h203.6736a38.76352 38.76352 0 0 1 0 77.5168H328.6016a38.76352 38.76352 0 0 1 0-77.5168z" fill="#FF5C64" p-id="6266"></path><path d="M103.168 183.7568c0 21.4016 17.3568 38.7584 38.7584 38.7584h28.2624v116.736c103.5264-40.7552 193.536-108.3904 261.4784-194.2528H141.9264c-21.4016 0-38.7584 17.3568-38.7584 38.7584z" fill="#FF716E" p-id="6267"></path></svg>