<?xml version="1.0" standalone="no"?><!DOCTYPE svg PUBLIC "-//W3C//DTD SVG 1.1//EN" "http://www.w3.org/Graphics/SVG/1.1/DTD/svg11.dtd"><svg t="1776923846291" class="icon" viewBox="0 0 1024 1024" version="1.1" xmlns="http://www.w3.org/2000/svg" p-id="5570" xmlns:xlink="http://www.w3.org/1999/xlink" width="200" height="200"><path d="M511.8976 941.7216c-237.1584 0-430.08-192.9216-430.08-430.08s192.9216-430.08 430.08-430.08 430.08 192.9216 430.08 430.08-192.9728 430.08-430.08 430.08z m0-798.72c-203.264 0-368.64 165.376-368.64 368.64s165.376 368.64 368.64 368.64 368.64-165.376 368.64-368.64-165.376-368.64-368.64-368.64z" fill="#3E3A39" p-id="5571"></path><path d="M511.8976 768.2048c-16.9472 0-30.72-13.7728-30.72-30.72V416.1536c0-16.9472 13.7728-30.72 30.72-30.72s30.72 13.7728 30.72 30.72v321.3824c0 16.9472-13.7728 30.6688-30.72 30.6688zM511.8976 337.7152c-16.9472 0-30.72-13.7728-30.72-30.72v-13.312c0-16.9472 13.7728-30.72 30.72-30.72s30.72 13.7728 30.72 30.72v13.312c0 16.9472-13.7728 30.72-30.72 30.72z" fill="#FC4138" p-id="5572"></path></svg>