<?xml version="1.0" standalone="no"?><!DOCTYPE svg PUBLIC "-//W3C//DTD SVG 1.1//EN" "http://www.w3.org/Graphics/SVG/1.1/DTD/svg11.dtd"><svg t="1776923763743" class="icon" viewBox="0 0 1024 1024" version="1.1" xmlns="http://www.w3.org/2000/svg" p-id="1409" xmlns:xlink="http://www.w3.org/1999/xlink" width="200" height="200"><path d="M780.288 402.0224h-12.3392V327.168c0-16.9472-13.7728-30.72-30.72-30.72H100.7616c-16.9472 0-30.72 13.7728-30.72 30.72v432.896c0 101.3248 82.432 183.7568 183.7568 183.7568h330.3936c91.9552 0 168.3456-67.8912 181.7088-156.16h14.3872c102.144 0 185.1904-83.0976 185.1904-185.1904v-15.2576c0-102.0928-83.0464-185.1904-185.1904-185.1904z m-73.7792 358.0928c0 67.4304-54.8864 122.3168-122.3168 122.3168H253.7984c-67.4304 0-122.3168-54.8864-122.3168-122.3168V357.888h575.0272v402.2272z m197.5296-157.5936c0 68.2496-55.5008 123.7504-123.7504 123.7504h-12.3392V463.4624h12.3392c68.2496 0 123.7504 55.5008 123.7504 123.7504v15.3088z" fill="#3E3A39" p-id="1410"></path><path d="M259.8912 241.3056c-16.9472 0-30.72-13.7728-30.72-30.72V128.3072c0-16.9472 13.7728-30.72 30.72-30.72s30.72 13.7728 30.72 30.72v82.2784c0 16.9472-13.7728 30.72-30.72 30.72zM419.0208 241.3056c-16.9472 0-30.72-13.7728-30.72-30.72V128.3072c0-16.9472 13.7728-30.72 30.72-30.72s30.72 13.7728 30.72 30.72v82.2784c0 16.9472-13.7728 30.72-30.72 30.72zM576.0512 241.3056c-16.9472 0-30.72-13.7728-30.72-30.72V128.3072c0-16.9472 13.7728-30.72 30.72-30.72s30.72 13.7728 30.72 30.72v82.2784c0 16.9472-13.7216 30.72-30.72 30.72z" fill="#FC4138" p-id="1411"></path></svg>