<?xml version="1.0" standalone="no"?><!DOCTYPE svg PUBLIC "-//W3C//DTD SVG 1.1//EN" "http://www.w3.org/Graphics/SVG/1.1/DTD/svg11.dtd"><svg t="1776923837028" class="icon" viewBox="0 0 1024 1024" version="1.1" xmlns="http://www.w3.org/2000/svg" p-id="5088" xmlns:xlink="http://www.w3.org/1999/xlink" width="200" height="200"><path d="M515.84 918.6816c-8.9088 0-17.408-3.8912-23.2448-10.6496l-126.1056-146.2272h-165.376c-55.296 0-100.352-45.0048-100.352-100.352V235.9296c0-55.296 45.0048-100.352 100.352-100.352h629.4528c55.296 0 100.352 45.0048 100.352 100.352v425.5232c0 55.296-45.0048 100.352-100.352 100.352h-183.5008l-106.496 144.384a30.68928 30.68928 0 0 1-23.552 12.4416c-0.4096 0-0.768 0.0512-1.1776 0.0512zM201.1136 197.0688c-21.4528 0-38.912 17.4592-38.912 38.912v425.5232c0 21.4528 17.4592 38.912 38.912 38.912h179.4048c8.96 0 17.408 3.8912 23.2448 10.6496l110.1824 127.744 92.8256-125.9008a30.75072 30.75072 0 0 1 24.7296-12.4928h199.0144c21.4528 0 38.912-17.4592 38.912-38.912V235.9296c0-21.4528-17.4592-38.912-38.912-38.912H201.1136z" fill="#3E3A39" p-id="5089"></path><path d="M320.4608 456.7552m-49.7152 0a49.7152 49.7152 0 1 0 99.4304 0 49.7152 49.7152 0 1 0-99.4304 0Z" fill="#FC4138" p-id="5090"></path><path d="M517.12 456.7552m-49.7152 0a49.7152 49.7152 0 1 0 99.4304 0 49.7152 49.7152 0 1 0-99.4304 0Z" fill="#FC4138" p-id="5091"></path><path d="M713.7792 456.7552m-49.7152 0a49.7152 49.7152 0 1 0 99.4304 0 49.7152 49.7152 0 1 0-99.4304 0Z" fill="#FC4138" p-id="5092"></path></svg>