<?xml version="1.0" standalone="no"?><!DOCTYPE svg PUBLIC "-//W3C//DTD SVG 1.1//EN" "http://www.w3.org/Graphics/SVG/1.1/DTD/svg11.dtd"><svg t="1776923771839" class="icon" viewBox="0 0 1024 1024" version="1.1" xmlns="http://www.w3.org/2000/svg" p-id="1887" xmlns:xlink="http://www.w3.org/1999/xlink" width="200" height="200"><path d="M636.0064 957.2352H392.8576c-16.9472 0-30.72-13.7728-30.72-30.72v-374.528c0-16.9472 13.7728-30.72 30.72-30.72h243.1488c16.9472 0 30.72 13.7728 30.72 30.72v374.528c0 16.9472-13.7728 30.72-30.72 30.72z m-212.4288-61.44h181.7088v-313.088H423.5776v313.088z" fill="#FC4138" p-id="1888"></path><path d="M762.4704 957.2352H270.2848c-87.7568 0-159.1296-71.3728-159.1296-159.1296V415.5392c0-32.3584 14.5408-62.5152 39.8848-82.6368l299.7248-238.08c38.656-30.6688 92.6208-30.72 131.2768 0l299.7248 238.08c25.344 20.1216 39.8848 50.2272 39.8848 82.6368v382.5152c0 87.7568-71.424 159.1808-159.1808 159.1808zM516.4032 133.3248c-9.6768 0-19.3536 3.2256-27.4432 9.6256l-299.7248 238.08a43.776 43.776 0 0 0-16.64 34.5088v382.5152c0 53.8624 43.8272 97.6896 97.6896 97.6896h492.1856c53.8624 0 97.6896-43.8272 97.6896-97.6896V415.5392c0-13.5168-6.0928-26.112-16.64-34.5088l-299.7248-238.08a43.91936 43.91936 0 0 0-27.392-9.6256z" fill="#3E3A39" p-id="1889"></path></svg>