<?xml version="1.0" standalone="no"?><!DOCTYPE svg PUBLIC "-//W3C//DTD SVG 1.1//EN" "http://www.w3.org/Graphics/SVG/1.1/DTD/svg11.dtd"><svg t="1776923793787" class="icon" viewBox="0 0 1024 1024" version="1.1" xmlns="http://www.w3.org/2000/svg" p-id="3006" xmlns:xlink="http://www.w3.org/1999/xlink" width="200" height="200"><path d="M512 910.6944c-22.4768 0-43.6224-8.7552-59.5456-24.6784L132.7104 566.272c-50.5344-50.5344-78.3872-117.7088-78.3872-189.184 0-71.4752 27.8528-138.6496 78.3872-189.184 50.5344-50.5344 117.7088-78.3872 189.184-78.3872 71.4752 0 138.6496 27.8528 189.184 78.3872l0.8704 0.8704 0.8704-0.8704c50.5344-50.5344 117.76-78.3872 189.2352-78.3872s138.6496 27.8528 189.184 78.3872c50.5344 50.5344 78.3872 117.7088 78.3872 189.184 0 71.4752-27.8528 138.6496-78.3872 189.184l-319.744 319.744a83.456 83.456 0 0 1-59.4944 24.6784zM321.8944 170.9056c-55.04 0-106.8032 21.4528-145.7664 60.3648-38.9632 38.912-60.3648 90.7264-60.3648 145.7664S137.216 483.84 176.128 522.8032l319.744 319.744c4.3008 4.3008 10.0352 6.656 16.0768 6.656s11.776-2.3552 16.0768-6.656l319.744-319.744c38.912-38.912 60.3648-90.7264 60.3648-145.7664s-21.4528-106.8544-60.3648-145.7664-90.7264-60.3648-145.7664-60.3648-106.8544 21.4528-145.7664 60.3648l-22.5792 22.5792a30.65344 30.65344 0 0 1-43.4176 0l-22.5792-22.5792c-38.912-38.912-90.6752-60.3648-145.7664-60.3648z" fill="#3E3A39" p-id="3007"></path><path d="M791.6032 495.4624c-6.0928 0-12.2368-1.792-17.6128-5.5808a30.70976 30.70976 0 0 1-7.4752-42.8032c41.472-59.0848 24.1664-98.7648 2.3552-121.6-27.1872-28.4672-67.328-36.0448-81.152-27.2896-14.336 9.1136-33.3312 4.864-42.3936-9.472-9.1136-14.336-4.864-33.28 9.472-42.3936 42.3936-26.88 113.5104-10.3936 158.5152 36.7616 51.7632 54.2208 53.0432 128.7168 3.4816 199.3216a30.76096 30.76096 0 0 1-25.1904 13.056z" fill="#FC4138" p-id="3008"></path></svg>