<?xml version="1.0" standalone="no"?><!DOCTYPE svg PUBLIC "-//W3C//DTD SVG 1.1//EN" "http://www.w3.org/Graphics/SVG/1.1/DTD/svg11.dtd"><svg t="1776923831602" class="icon" viewBox="0 0 1024 1024" version="1.1" xmlns="http://www.w3.org/2000/svg" p-id="4766" xmlns:xlink="http://www.w3.org/1999/xlink" width="200" height="200"><path d="M517.12 941.6704c-237.1584 0-430.08-192.9216-430.08-430.08s192.9216-430.08 430.08-430.08 430.08 192.9216 430.08 430.08-192.9216 430.08-430.08 430.08z m0-798.72c-203.264 0-368.64 165.376-368.64 368.64s165.376 368.64 368.64 368.64 368.64-165.376 368.64-368.64-165.376-368.64-368.64-368.64z" fill="#3E3A39" p-id="4767"></path><path d="M319.744 511.5904m-49.7152 0a49.7152 49.7152 0 1 0 99.4304 0 49.7152 49.7152 0 1 0-99.4304 0Z" fill="#FC4138" p-id="4768"></path><path d="M516.4544 511.5904m-49.7152 0a49.7152 49.7152 0 1 0 99.4304 0 49.7152 49.7152 0 1 0-99.4304 0Z" fill="#FC4138" p-id="4769"></path><path d="M713.1136 511.5904m-49.7152 0a49.7152 49.7152 0 1 0 99.4304 0 49.7152 49.7152 0 1 0-99.4304 0Z" fill="#FC4138" p-id="4770"></path></svg>