<?xml version="1.0" standalone="no"?><!DOCTYPE svg PUBLIC "-//W3C//DTD SVG 1.1//EN" "http://www.w3.org/Graphics/SVG/1.1/DTD/svg11.dtd"><svg t="1776923779758" class="icon" viewBox="0 0 1024 1024" version="1.1" xmlns="http://www.w3.org/2000/svg" p-id="2205" xmlns:xlink="http://www.w3.org/1999/xlink" width="200" height="200"><path d="M754.3808 378.0096c-84.6848 0-153.5488-68.864-153.5488-153.5488 0-84.6336 68.864-153.5488 153.5488-153.5488s153.5488 68.864 153.5488 153.5488-68.9152 153.5488-153.5488 153.5488z m0-245.6064c-50.7904 0-92.1088 41.3184-92.1088 92.1088s41.3184 92.1088 92.1088 92.1088 92.1088-41.3184 92.1088-92.1088-41.3184-92.1088-92.1088-92.1088zM754.3808 952.32c-84.6848 0-153.5488-68.864-153.5488-153.5488 0-84.6336 68.864-153.5488 153.5488-153.5488s153.5488 68.864 153.5488 153.5488S839.0144 952.32 754.3808 952.32z m0-245.6064c-50.7904 0-92.1088 41.3184-92.1088 92.1088S703.5904 890.88 754.3808 890.88s92.1088-41.3184 92.1088-92.1088-41.3184-92.0576-92.1088-92.0576z" fill="#3E3A39" p-id="2206"></path><path d="M387.4816 463.104a30.6688 30.6688 0 0 1-26.5216-15.2064 30.67904 30.67904 0 0 1 10.9568-42.0352l244.1216-143.1552a30.6944 30.6944 0 0 1 42.0352 10.9568c8.6016 14.6432 3.6864 33.4848-10.9568 42.0352L402.9952 458.8544c-4.864 2.8672-10.24 4.2496-15.5136 4.2496zM631.5008 767.0272c-5.5808 0-11.264-1.536-16.384-4.7616l-263.0144-165.888c-14.336-9.0624-18.6368-28.0064-9.5744-42.3936s28.0064-18.6368 42.3936-9.5744l263.0144 165.888a30.73536 30.73536 0 0 1 9.5744 42.3936 30.6176 30.6176 0 0 1-26.0096 14.336z" fill="#3E3A39" p-id="2207"></path><path d="M264.6528 658.4832c-84.6336 0-153.5488-68.864-153.5488-153.5488 0-84.6336 68.864-153.5488 153.5488-153.5488s153.5488 68.864 153.5488 153.5488c-0.0512 84.6848-68.9152 153.5488-153.5488 153.5488z m0-245.6064c-50.7904 0-92.1088 41.3184-92.1088 92.1088s41.3184 92.1088 92.1088 92.1088 92.1088-41.3184 92.1088-92.1088-41.3184-92.1088-92.1088-92.1088z" fill="#FC4138" p-id="2208"></path></svg>