<?xml version="1.0" standalone="no"?><!DOCTYPE svg PUBLIC "-//W3C//DTD SVG 1.1//EN" "http://www.w3.org/Graphics/SVG/1.1/DTD/svg11.dtd"><svg t="1776923806209" class="icon" viewBox="0 0 1024 1024" version="1.1" xmlns="http://www.w3.org/2000/svg" p-id="3647" xmlns:xlink="http://www.w3.org/1999/xlink" width="200" height="200"><path d="M605.5936 918.0672c-11.776 0-23.4496-3.7888-33.28-11.264l-180.992-137.0624H177.92c-52.5312 0-95.2832-42.752-95.2832-95.2832V368.4352c0-52.5312 42.752-95.2832 95.2832-95.2832h213.3504l180.992-137.0112c16.8448-12.7488 39.0656-14.848 57.9584-5.4272 18.8928 9.4208 30.6688 28.3648 30.6688 49.5104v682.5984c0 21.1456-11.7248 40.0896-30.6688 49.4592a55.1936 55.1936 0 0 1-24.6272 5.7856zM177.92 334.592c-18.6368 0-33.8432 15.1552-33.8432 33.8432v306.1248c0 18.6368 15.1552 33.8432 33.8432 33.8432h223.6928c6.7072 0 13.2096 2.2016 18.5344 6.2464l179.3024 135.7824V192.6144L420.1472 328.3456a30.63296 30.63296 0 0 1-18.5344 6.2464H177.92z m431.4624-149.504z" fill="#3E3A39" p-id="3648"></path><path d="M838.7584 729.0368c-7.8848 0-15.7184-3.0208-21.7088-9.0112-11.9808-11.9808-11.9808-31.4368 0-43.4688 41.4208-41.4208 64.256-96.512 64.256-155.136 0-58.5728-22.8352-113.664-64.256-155.136a30.72 30.72 0 0 1 0-43.4176 30.72 30.72 0 0 1 43.4176 0c53.0432 53.0432 82.2784 123.5456 82.2784 198.5536s-29.2352 145.5104-82.2784 198.5536a30.5152 30.5152 0 0 1-21.7088 9.0624z" fill="#FC4138" p-id="3649"></path></svg>