<?xml version="1.0" standalone="no"?><!DOCTYPE svg PUBLIC "-//W3C//DTD SVG 1.1//EN" "http://www.w3.org/Graphics/SVG/1.1/DTD/svg11.dtd"><svg t="1776923828820" class="icon" viewBox="0 0 1024 1024" version="1.1" xmlns="http://www.w3.org/2000/svg" p-id="4605" xmlns:xlink="http://www.w3.org/1999/xlink" width="200" height="200"><path d="M514.56 938.5472c-237.1584 0-430.08-192.9216-430.08-430.08s192.9216-430.08 430.08-430.08 430.08 192.9216 430.08 430.08-192.9216 430.08-430.08 430.08z m0-798.72c-203.264 0-368.64 165.376-368.64 368.64s165.376 368.64 368.64 368.64 368.64-165.376 368.64-368.64-165.376-368.64-368.64-368.64z" fill="#3E3A39" p-id="4606"></path><path d="M467.712 756.2752c-88.4224 0-157.696-50.688-157.696-115.3536 0-64.7168 69.2736-115.3536 157.696-115.3536s157.696 50.688 157.696 115.3536-69.2736 115.3536-157.696 115.3536z m0-169.3184c-56.7296 0-96.256 28.416-96.256 53.9136 0 25.4976 39.5264 53.9136 96.256 53.9136 56.7296 0 96.256-28.416 96.256-53.9136 0-25.4976-39.5264-53.9136-96.256-53.9136z" fill="#FC4138" p-id="4607"></path><path d="M595.3024 658.4832c-14.7968 0-27.8016-10.7008-30.3104-25.7536l-52.3264-320.6144c-2.1504-13.2608 4.5056-26.368 16.5376-32.4096 11.9808-6.0416 26.5216-3.584 35.84 6.0928 52.3776 54.0672 120.576 72.96 121.2416 73.1136a30.7712 30.7712 0 0 1 21.7088 37.5808 30.64832 30.64832 0 0 1-37.4784 21.76c-2.304-0.6144-40.192-10.9056-84.48-38.0416l39.5776 242.5344a30.7456 30.7456 0 0 1-25.3952 35.2768c-1.5872 0.3584-3.2768 0.4608-4.9152 0.4608z" fill="#FC4138" p-id="4608"></path></svg>