<svg class="icon" style="width: 1em;height: 1em;vertical-align: middle;fill: currentColor;overflow: hidden;" viewBox="0 0 1024 1024" version="1.1" xmlns="http://www.w3.org/2000/svg" p-id="955"><path d="M512 983.04a471.04 471.04 0 1 1 471.04-471.04 471.3472 471.3472 0 0 1-471.04 471.04z m0-880.64a409.6 409.6 0 1 0 409.6 409.6 409.856 409.856 0 0 0-409.6-409.6z" fill="#3D3A3A" p-id="956"></path><path d="M671.6416 574.5664H542.72V498.688h128.9216a30.72 30.72 0 0 0 0-61.44H583.68l73.8304-77.2096a30.72 30.72 0 0 0-44.2368-42.5984L512 423.5264 410.7264 317.44a30.72 30.72 0 0 0-44.4416 42.4448L440.32 437.248H352.3584a30.72 30.72 0 1 0 0 61.44H481.28v75.8784H352.3584a30.72 30.72 0 1 0 0 61.44H481.28v71.68a30.72 30.72 0 0 0 61.44 0v-71.68h128.9216a30.72 30.72 0 0 0 0-61.44z" fill="#FF60D8" p-id="957"></path></svg>