<svg class="icon" style="width: 1em;height: 1em;vertical-align: middle;fill: currentColor;overflow: hidden;" viewBox="0 0 1024 1024" version="1.1" xmlns="http://www.w3.org/2000/svg" p-id="783"><path d="M761.6512 938.9568H262.3488a179.2 179.2 0 0 1-179.2-179.2V260.5056a179.2 179.2 0 0 1 179.2-179.2h499.3024a179.2 179.2 0 0 1 179.2 179.2v499.2512a179.2 179.2 0 0 1-179.2 179.2zM262.3488 142.7456a117.76 117.76 0 0 0-117.76 117.76v499.2512a117.76 117.76 0 0 0 117.76 117.76h499.3024a117.76 117.76 0 0 0 117.76-117.76V260.5056a117.76 117.76 0 0 0-117.76-117.76z" fill="#3D3A3A" p-id="784"></path><path d="M741.2736 250.112H612.352a30.72 30.72 0 0 0 0 61.44H675.84l-103.5264 117.2992a30.72 30.72 0 0 0 46.08 40.6528l92.16-104.448V409.6a30.72 30.72 0 0 0 61.44 0V280.832a30.72 30.72 0 0 0-30.72-30.72zM741.2736 579.7888a30.72 30.72 0 0 0-30.72 30.72v55.7568l-93.7472-91.4432a30.72 30.72 0 0 0-42.9056 43.9808l92.16 89.856H612.352a30.72 30.72 0 0 0 0 61.44h128.9216a30.72 30.72 0 0 0 30.72-30.72v-128.8704a30.72 30.72 0 0 0-30.72-30.72zM352.9216 311.552H411.648a30.72 30.72 0 0 0 0-61.44H282.7264a30.72 30.72 0 0 0-30.72 30.72V409.6a30.72 30.72 0 0 0 61.44 0v-50.4832l107.1616 111.36a30.72 30.72 0 0 0 44.288-42.5984zM422.2464 573.9008l-108.8 97.28v-60.672a30.72 30.72 0 1 0-61.44 0v128.8704a30.72 30.72 0 0 0 30.72 30.72H411.648a30.72 30.72 0 0 0 0-61.44H363.52L463.2064 619.52a30.72 30.72 0 1 0-40.96-45.7728z" fill="#FF60D8" p-id="785"></path></svg>