<svg class="icon" style="width: 1em;height: 1em;vertical-align: middle;fill: currentColor;overflow: hidden;" viewBox="0 0 1024 1024" version="1.1" xmlns="http://www.w3.org/2000/svg" p-id="943"><path d="M761.6512 940.8512H262.3488a179.456 179.456 0 0 1-179.2-179.2V262.4a179.456 179.456 0 0 1 179.2-179.2h499.3024a179.456 179.456 0 0 1 179.2 179.2v499.2a179.456 179.456 0 0 1-179.2 179.2512zM262.3488 144.5888a117.76 117.76 0 0 0-117.76 117.76v499.2a117.76 117.76 0 0 0 117.76 117.76h499.3024a117.76 117.76 0 0 0 117.76-117.76V262.4a117.76 117.76 0 0 0-117.76-117.76z" fill="#3D3A3A" p-id="944"></path><path d="M369.1008 421.7344A102.4 102.4 0 1 0 266.24 319.0784a102.8096 102.8096 0 0 0 102.8608 102.656z m0-143.872a41.216 41.216 0 1 1-40.96 40.96 41.2672 41.2672 0 0 1 40.96-40.96zM806.9632 779.3664l-235.1104-158.3104 70.0928-75.3152 130.2016 91.3408a30.72 30.72 0 1 0 35.2768-50.2784L655.36 480.1024a30.72 30.72 0 0 0-40.0896 4.1984l-88.576 95.1296a31.488 31.488 0 0 0-5.12 7.7312l-145.9712-98.304a30.72 30.72 0 0 0-39.7824 4.6592L181.4528 661.504a30.72 30.72 0 1 0 45.2608 41.5744l136.4992-148.48 409.6 275.8144a30.72 30.72 0 0 0 34.3552-51.2z" fill="#FF60D8" p-id="945"></path></svg>