<svg class="icon" style="width: 1em;height: 1em;vertical-align: middle;fill: currentColor;overflow: hidden;" viewBox="0 0 1024 1024" version="1.1" xmlns="http://www.w3.org/2000/svg" p-id="844"><path d="M724.48 940.288H290.048a175.872 175.872 0 0 1-175.6672-175.6672V266.752a175.872 175.872 0 0 1 175.6672-175.6672h434.432a175.872 175.872 0 0 1 175.6672 175.6672v497.8688a175.872 175.872 0 0 1-175.6672 175.6672zM290.048 152.5248A114.3296 114.3296 0 0 0 175.8208 266.752v497.8688a114.2784 114.2784 0 0 0 114.2272 114.2272h434.432a114.3296 114.3296 0 0 0 114.2272-114.2272V266.752a114.3808 114.3808 0 0 0-114.2272-114.2272z" fill="#3D3A3A" p-id="845"></path><path d="M536.064 557.1072H357.888a30.72 30.72 0 0 1 0-61.44h178.176a30.72 30.72 0 0 1 0 61.44zM675.2768 372.3264h-317.44a30.72 30.72 0 0 1 0-61.44h317.44a30.72 30.72 0 0 1 0 61.44z" fill="#3D3A3A" p-id="846"></path><path d="M549.3248 782.2336a30.72 30.72 0 0 1-21.5552-52.6336L884.1728 378.88a30.72 30.72 0 1 1 43.1104 43.776l-356.4032 350.72a30.72 30.72 0 0 1-21.5552 8.8576z" fill="#FF60D8" p-id="847"></path></svg>