<svg class="icon" style="width: 1em;height: 1em;vertical-align: middle;fill: currentColor;overflow: hidden;" viewBox="0 0 1024 1024" version="1.1" xmlns="http://www.w3.org/2000/svg" p-id="722"><path d="M512 960.1536a33.6384 33.6384 0 0 1-5.5296-0.512 563.2 563.2 0 0 1-293.6832-156.672C138.24 728.1664 93.6448 640.4608 93.6448 568.32V245.0944A70.5024 70.5024 0 0 1 158.72 175.1552a741.2224 741.2224 0 0 0 316.928-101.1712 70.0416 70.0416 0 0 1 72.6016 0A741.2224 741.2224 0 0 0 865.28 175.1552a70.5024 70.5024 0 0 1 65.1264 69.9392V568.32c0 145.92-180.3264 348.5696-412.8256 391.168a33.6384 33.6384 0 0 1-5.5808 0.6656z m0-834.56a9.1136 9.1136 0 0 0-4.5568 1.2288c-47.7696 28.928-176.9984 97.28-344.1152 109.824a8.7552 8.7552 0 0 0-8.2432 8.704V568.32c0 104.3456 142.1312 287.6416 356.9152 329.6768 214.784-42.0352 356.9152-225.28 356.9152-329.6768V245.0944a8.7552 8.7552 0 0 0-8.2432-8.704c-167.1168-12.3904-296.3456-80.896-344.1152-109.824a9.1136 9.1136 0 0 0-4.5568-1.2288z" fill="#3D3A3A" p-id="723"></path><path d="M602.2656 573.44a30.72 30.72 0 0 0 47.36-39.1168 206.9504 206.9504 0 0 0-65.1264-52.4288 135.7824 135.7824 0 1 0-189.44 0 207.1552 207.1552 0 0 0-112.64 184.064 30.72 30.72 0 1 0 61.44 0A145.6128 145.6128 0 0 1 602.2656 573.44zM415.488 384.512a74.3936 74.3936 0 1 1 74.3936 74.3936A74.496 74.496 0 0 1 415.488 384.512z" fill="#FF60D8" p-id="724"></path><path d="M796.2624 519.8336a30.72 30.72 0 0 0-43.4176-1.3312l-156.5696 147.5584-67.328-71.3216a30.72 30.72 0 0 0-44.6976 42.1376l88.4224 93.6448a30.72 30.72 0 0 0 43.3664 1.28l179.2-168.5504a30.72 30.72 0 0 0 1.024-43.4176z" fill="#FF60D8" p-id="725"></path></svg>