<svg class="icon" style="width: 1em;height: 1em;vertical-align: middle;fill: currentColor;overflow: hidden;" viewBox="0 0 1024 1024" version="1.1" xmlns="http://www.w3.org/2000/svg" p-id="759"><path d="M274.4832 928.7168a60.1088 60.1088 0 0 1-60.0064-60.0576v-52.6848a88.7296 88.7296 0 0 0-27.392-62.976A384.3584 384.3584 0 0 1 457.3696 95.2832h109.2608a384.4096 384.4096 0 0 1 0 768.8192H457.2672a94.5152 94.5152 0 0 0-37.888 7.2704l-120.9856 52.3776a60.1088 60.1088 0 0 1-23.9104 4.9664zM457.3696 156.7232A322.9184 322.9184 0 0 0 230.4 709.3248a149.6064 149.6064 0 0 1 45.6192 106.6496v50.5344l119.04-51.5072a154.6752 154.6752 0 0 1 62.0544-12.3392h109.6192a322.9696 322.9696 0 0 0 0-645.9392z" fill="#3D3A3A" p-id="760"></path><path d="M556.5952 651.9296a30.72 30.72 0 0 1-0.5632-61.44c50.6368-0.9216 85.8624-21.8112 107.52-63.8464a186.1632 186.1632 0 0 0 19.2512-69.1712 30.72 30.72 0 0 1 61.44 2.2528c-2.2528 65.3312-44.288 189.44-187.1872 192.2048z" fill="#FF60D8" p-id="761"></path></svg>