<svg class="icon" style="width: 1em;height: 1em;vertical-align: middle;fill: currentColor;overflow: hidden;" viewBox="0 0 1024 1024" version="1.1" xmlns="http://www.w3.org/2000/svg" p-id="979"><path d="M873.5744 262.5024h-39.7312v-17.664a151.2448 151.2448 0 0 0-151.04-151.04H333.2096a151.2448 151.2448 0 0 0-151.04 151.04v17.664h-45.312a102.4 102.4 0 0 0-102.4 102.4v45.4656a199.68 199.68 0 0 0 105.984 176.64l91.392 48.7936a31.5392 31.5392 0 0 0 8.96 3.072 325.9392 325.9392 0 0 0 236.4416 138.24v90.2144H294.2976a30.72 30.72 0 1 0 0 61.44H721.92a30.72 30.72 0 0 0 0-61.44h-183.1936v-90.4192a325.888 325.888 0 0 0 237.9776-140.3392l1.8432-0.8192 91.392-48.7936a199.68 199.68 0 0 0 105.984-176.64v-45.4656a102.4 102.4 0 0 0-102.3488-102.3488zM169.4208 532.7872a138.5472 138.5472 0 0 1-73.472-122.4704v-45.4656a40.96 40.96 0 0 1 40.96-40.96h45.312V452.608a323.8912 323.8912 0 0 0 14.0288 94.464z m338.5856 184.32A264.704 264.704 0 0 1 243.6096 452.608V244.8384a89.7024 89.7024 0 0 1 89.6-89.6h349.5936a89.7024 89.7024 0 0 1 89.6 89.6V452.608A264.704 264.704 0 0 1 508.0064 716.8z m406.4768-306.688a138.5984 138.5984 0 0 1-73.4208 122.4704l-20.48 10.752a323.4304 323.4304 0 0 0 13.056-90.9312V323.9424h39.7312a40.96 40.96 0 0 1 40.96 40.96z" fill="#3D3A3A" p-id="980"></path><path d="M654.08 522.24a30.72 30.72 0 0 1-30.72-30.72V315.5968a30.72 30.72 0 1 1 61.44 0V491.52a30.72 30.72 0 0 1-30.72 30.72z" fill="#FF60D8" p-id="981"></path></svg>