<svg class="icon" style="width: 1em;height: 1em;vertical-align: middle;fill: currentColor;overflow: hidden;" viewBox="0 0 1024 1024" version="1.1" xmlns="http://www.w3.org/2000/svg" p-id="747"><path d="M512.4096 961.3824A196.096 196.096 0 0 1 414.72 935.424L194.816 808.96a196.3008 196.3008 0 0 1-98.0992-169.3696l-0.4096-253.7472a196.2496 196.2496 0 0 1 97.5872-169.728l219.5968-127.232A196.1984 196.1984 0 0 1 609.28 88.576L829.44 215.04a196.3008 196.3008 0 0 1 98.0992 169.3696l0.4096 253.7472a196.2496 196.2496 0 0 1-97.5872 169.6768l-219.5968 127.232a195.584 195.584 0 0 1-98.3552 26.3168z m-0.8192-837.376a134.2464 134.2464 0 0 0-67.328 18.0224L224.7168 269.2608a134.7584 134.7584 0 0 0-66.9696 116.4288l0.4096 253.7472A134.5024 134.5024 0 0 0 225.28 755.6096l220.16 126.5664a134.7072 134.7072 0 0 0 134.2976 0l219.5456-127.232a134.7584 134.7584 0 0 0 66.9696-116.4288l-0.4096-253.7472A134.5024 134.5024 0 0 0 798.72 268.3904L578.56 141.824a134.144 134.144 0 0 0-66.9696-17.8176z" fill="#3D3A3A" p-id="748"></path><path d="M469.3504 683.3152a82.688 82.688 0 0 1-82.3808-82.4832v-177.664a82.3808 82.3808 0 0 1 123.5456-71.3216l153.856 88.832a82.3808 82.3808 0 0 1 0 142.6432l-153.6 88.832a82.3808 82.3808 0 0 1-41.4208 11.1616z m0-281.1392a21.1456 21.1456 0 0 0-10.5472 2.9184 20.48 20.48 0 0 0-10.24 18.0736v177.664a20.9408 20.9408 0 0 0 31.3856 18.0736l153.856-88.7808a20.9408 20.9408 0 0 0 0-36.2496L479.7952 405.0944a20.48 20.48 0 0 0-10.3424-2.9184z" fill="#FF60D8" p-id="749"></path></svg>