<svg class="icon" style="width: 1em;height: 1em;vertical-align: middle;fill: currentColor;overflow: hidden;" viewBox="0 0 1024 1024" version="1.1" xmlns="http://www.w3.org/2000/svg" p-id="967"><path d="M733.2352 942.848a107.52 107.52 0 0 1-49.9712-12.3904l-123.2384-64.8192a103.424 103.424 0 0 0-96.0512 0l-123.2384 64.8192a107.2128 107.2128 0 0 1-155.4944-112.9984l23.552-137.216A103.2192 103.2192 0 0 0 179.2 588.8L79.4112 491.52a107.1616 107.1616 0 0 1 59.392-182.8352L276.48 288.8704a102.9632 102.9632 0 0 0 77.6704-56.32L415.8976 107.52a107.1616 107.1616 0 0 1 192.2048 0l61.44 124.8256a102.9632 102.9632 0 0 0 77.6704 56.32l137.7792 20.0192A107.1616 107.1616 0 0 1 944.5888 491.52L844.8 588.8a103.2192 103.2192 0 0 0-29.696 91.3408l23.552 137.216a107.52 107.52 0 0 1-105.5232 125.3888zM512 792.3712a164.5568 164.5568 0 0 1 76.8 18.8928l122.88 64.8192a45.7216 45.7216 0 0 0 66.56-48.2304l-23.5008-137.216a164.5568 164.5568 0 0 1 47.3088-145.7152l99.6864-97.28a45.7216 45.7216 0 0 0-25.6-78.0288l-137.5744-19.9168a164.5056 164.5056 0 0 1-123.904-90.0608L552.96 134.8096a45.7216 45.7216 0 0 0-81.92 0L409.6 259.6352A164.5056 164.5056 0 0 1 285.44 349.696l-137.7792 20.0192a45.7216 45.7216 0 0 0-25.344 78.0288l99.6864 97.28a164.5568 164.5568 0 0 1 47.3088 145.7152L245.76 827.8528a45.7216 45.7216 0 0 0 66.56 48.2304l122.88-64.8192a164.5568 164.5568 0 0 1 76.8-18.8928z" fill="#3D3A3A" p-id="968"></path><path d="M512 662.4256a167.2192 167.2192 0 0 1-167.0144-167.0144 30.72 30.72 0 1 1 61.44 0 105.5744 105.5744 0 1 0 211.1488 0 30.72 30.72 0 1 1 61.44 0A167.2192 167.2192 0 0 1 512 662.4256z" fill="#FF60D8" p-id="969"></path></svg>