<svg class="icon" style="width: 1em;height: 1em;vertical-align: middle;fill: currentColor;overflow: hidden;" viewBox="0 0 1024 1024" version="1.1" xmlns="http://www.w3.org/2000/svg" p-id="857"><path d="M898.2016 440.9856h-762.88a30.72 30.72 0 0 1 0-61.44h762.88a30.72 30.72 0 0 1 0 61.44z" fill="#FF60D8" p-id="858"></path><path d="M786.2272 931.4304H237.7728a157.1328 157.1328 0 0 1-156.928-156.928V240.2304a157.0816 157.0816 0 0 1 156.928-156.8768h117.76a113.6128 113.6128 0 0 1 89.6 43.4176l39.8848 50.5344a52.5312 52.5312 0 0 0 41.4208 20.0704h259.84a157.0816 157.0816 0 0 1 156.928 156.8768v420.2496a157.1328 157.1328 0 0 1-156.9792 156.928zM237.7728 144.7936a95.5904 95.5904 0 0 0-95.488 95.4368v534.272a95.6416 95.6416 0 0 0 95.488 95.488h548.4544a95.6416 95.6416 0 0 0 95.488-95.488V354.2528a95.5904 95.5904 0 0 0-95.488-95.4368h-259.84a113.4592 113.4592 0 0 1-89.6-43.4176l-39.936-50.5344a52.3776 52.3776 0 0 0-41.3696-20.0704z" fill="#3D3A3A" p-id="859"></path></svg>