<svg class="icon" style="width: 1em;height: 1em;vertical-align: middle;fill: currentColor;overflow: hidden;" viewBox="0 0 1024 1024" version="1.1" xmlns="http://www.w3.org/2000/svg" p-id="832"><path d="M765.8496 97.6384H249.7024a160.1536 160.1536 0 0 0-159.9488 160v516.096a160.1536 160.1536 0 0 0 159.9488 160h516.1472a160.1536 160.1536 0 0 0 159.9488-160V257.6384a160.1536 160.1536 0 0 0-159.9488-160z m-516.1472 61.44h516.1472a98.6624 98.6624 0 0 1 98.5088 98.56v56.32H151.1936v-56.32a98.6624 98.6624 0 0 1 98.5088-98.56z m516.1472 713.216H249.7024a98.6112 98.6112 0 0 1-98.5088-98.56V375.2448h713.1648v398.4896a98.6112 98.6112 0 0 1-98.5088 98.56z" fill="#3D3A3A" p-id="833"></path><path d="M537.6 546.4064H268.1856a30.72 30.72 0 1 1 0-61.44H537.6a30.72 30.72 0 1 1 0 61.44zM397.1072 724.736H268.1856a30.72 30.72 0 1 1 0-61.44h128.9216a30.72 30.72 0 0 1 0 61.44zM571.2896 815.3088a30.72 30.72 0 0 1-22.5792-51.5584L849.92 437.2992a30.72 30.72 0 0 1 45.1584 41.6768L593.92 805.4272a30.72 30.72 0 0 1-22.6304 9.8816z" fill="#FF60D8" p-id="834"></path></svg>