<svg class="icon" style="width: 1em;height: 1em;vertical-align: middle;fill: currentColor;overflow: hidden;" viewBox="0 0 1024 1024" version="1.1" xmlns="http://www.w3.org/2000/svg" p-id="881"><path d="M512 980.9408a471.04 471.04 0 1 1 471.04-471.04 471.3472 471.3472 0 0 1-471.04 471.04z m0-880.1792a409.6 409.6 0 1 0 409.6 409.344 409.6 409.6 0 0 0-409.6-409.344z" fill="#3D3A3A" p-id="882"></path><path d="M389.12 690.432a30.72 30.72 0 0 1-30.72-30.72V360.5504a30.72 30.72 0 0 1 61.44 0v299.1616a30.72 30.72 0 0 1-30.72 30.72zM634.88 690.432a30.72 30.72 0 0 1-30.72-30.72V360.5504a30.72 30.72 0 0 1 61.44 0v299.1616a30.72 30.72 0 0 1-30.72 30.72z" fill="#FF60D8" p-id="883"></path></svg>