<svg class="icon" style="width: 1em;height: 1em;vertical-align: middle;fill: currentColor;overflow: hidden;" viewBox="0 0 1024 1024" version="1.1" xmlns="http://www.w3.org/2000/svg" p-id="930"><path d="M761.6 939.008h-192a30.72 30.72 0 1 1 0-61.44h192a117.76 117.76 0 0 0 117.76-117.76V260.5568a117.76 117.76 0 0 0-117.76-117.76h-499.2a117.76 117.76 0 0 0-117.76 117.76V452.608a30.72 30.72 0 0 1-61.44 0V260.5568a179.2 179.2 0 0 1 179.2-179.2h499.2a179.2 179.2 0 0 1 179.2 179.2v499.2512a179.2 179.2 0 0 1-179.2 179.2z" fill="#3D3A3A" p-id="931"></path><path d="M741.2736 250.1632H555.52a30.72 30.72 0 0 0 0 61.44h117.76L498.0224 488.5504a30.72 30.72 0 0 0 43.6224 43.264l168.96-170.4448v105.2672a30.72 30.72 0 1 0 61.44 0V280.8832a30.72 30.72 0 0 0-30.7712-30.72z" fill="#FF60D8" p-id="932"></path><path d="M358.4 939.008H199.68a116.5312 116.5312 0 0 1-116.4288-116.4288v-158.72A116.5312 116.5312 0 0 1 199.68 547.84h158.72a116.5312 116.5312 0 0 1 116.3776 116.3776v158.72A116.5312 116.5312 0 0 1 358.4 939.008zM199.68 609.28a55.04 55.04 0 0 0-54.9888 54.9376v158.72A55.04 55.04 0 0 0 199.68 877.568h158.72a55.04 55.04 0 0 0 54.9376-54.9888v-158.72A54.9888 54.9888 0 0 0 358.4 609.28z" fill="#3D3A3A" p-id="933"></path></svg>