<svg class="icon" style="width: 1em;height: 1em;vertical-align: middle;fill: currentColor;overflow: hidden;" viewBox="0 0 1024 1024" version="1.1" xmlns="http://www.w3.org/2000/svg" p-id="869"><path d="M512 983.04a471.04 471.04 0 1 1 471.04-471.04 471.3472 471.3472 0 0 1-471.04 471.04z m0-880.64a409.6 409.6 0 1 0 409.6 409.6 409.856 409.856 0 0 0-409.6-409.6z" fill="#3D3A3A" p-id="870"></path><path d="M437.4528 706.56a82.688 82.688 0 0 1-82.3808-82.4832V399.9744a82.3808 82.3808 0 0 1 123.5456-71.3216l194.048 112.0256a82.3808 82.3808 0 0 1 0 142.6432l-194.048 112.0256a82.3808 82.3808 0 0 1-41.1648 11.2128z m0-327.68a22.016 22.016 0 0 0-10.5984 2.8672 20.48 20.48 0 0 0-10.24 18.1248v224.0512a20.9408 20.9408 0 0 0 31.3856 18.1248l194.048-112.0256a20.9408 20.9408 0 0 0 0-36.2496L447.8976 381.8496a20.736 20.736 0 0 0-10.3424-2.9696z" fill="#FF60D8" p-id="871"></path></svg>