<svg class="icon" style="width: 1em;height: 1em;vertical-align: middle;fill: currentColor;overflow: hidden;" viewBox="0 0 1024 1024" version="1.1" xmlns="http://www.w3.org/2000/svg" p-id="905"><path d="M512.4096 961.3824A196.096 196.096 0 0 1 414.72 935.424L194.816 808.96a196.3008 196.3008 0 0 1-98.0992-169.3696l-0.4096-253.7472a196.2496 196.2496 0 0 1 97.5872-169.728l219.5968-127.232A196.1984 196.1984 0 0 1 609.28 88.576L829.44 215.04a196.3008 196.3008 0 0 1 98.0992 169.3696l0.4096 253.7472a196.2496 196.2496 0 0 1-97.5872 169.6768l-219.5968 127.232a195.584 195.584 0 0 1-98.3552 26.3168z m-0.8192-837.376a134.2464 134.2464 0 0 0-67.328 18.0224L224.7168 269.2608a134.7584 134.7584 0 0 0-66.9696 116.4288l0.4096 253.7472A134.5024 134.5024 0 0 0 225.28 755.6096l220.16 126.5664a134.7072 134.7072 0 0 0 134.2976 0l219.5456-127.232a134.7584 134.7584 0 0 0 66.9696-116.4288l-0.4096-253.7472A134.5024 134.5024 0 0 0 798.72 268.3904L578.56 141.824a134.144 134.144 0 0 0-66.9696-17.8176z" fill="#3D3A3A" p-id="906"></path><path d="M511.6928 686.6944A174.6944 174.6944 0 1 1 663.4496 599.04a174.8992 174.8992 0 0 1-151.7568 87.6544z m0.512-288.0512A113.3056 113.3056 0 1 0 610.2016 568.32 113.408 113.408 0 0 0 512 398.6432zM636.8256 583.68z" fill="#FF60D8" p-id="907"></path></svg>