<svg class="icon" style="width: 1em;height: 1em;vertical-align: middle;fill: currentColor;overflow: hidden;" viewBox="0 0 1024 1024" version="1.1" xmlns="http://www.w3.org/2000/svg" p-id="795"><path d="M512 984.1664a468.4288 468.4288 0 0 1-165.2224-29.952 13.2096 13.2096 0 0 0-4.4544-0.8704h-194.56a65.2288 65.2288 0 0 1-64.8192-65.1776v-177.2032a12.7488 12.7488 0 0 0-1.2288-5.12 467.968 467.968 0 0 1-40.96-209.6128c8.3456-253.5424 221.8496-458.2912 475.648-456.192a472.1664 472.1664 0 0 1 19.3024 943.7184c-8.0384 0.2048-15.7696 0.4096-23.7056 0.4096z m0-882.8928c-219.4944 0-403.3536 177.3568-410.5728 396.8512a406.9888 406.9888 0 0 0 35.84 182.3232 74.1888 74.1888 0 0 1 6.656 30.72v177.2032a3.7376 3.7376 0 0 0 3.7376 3.7376h194.56a73.9328 73.9328 0 0 1 26.0096 4.7616 410.6752 410.6752 0 1 0 147.456-795.5456z" fill="#3D3A3A" p-id="796"></path><path d="M512.3584 799.0272a175.6672 175.6672 0 0 1-175.5136-175.4624 30.72 30.72 0 0 1 61.44 0 114.0736 114.0736 0 0 0 228.096 0 30.72 30.72 0 1 1 61.44 0 175.616 175.616 0 0 1-175.4624 175.4624z" fill="#FF60D8" p-id="797"></path></svg>