<svg class="icon" style="width: 1em;height: 1em;vertical-align: middle;fill: currentColor;overflow: hidden;" viewBox="0 0 1024 1024" version="1.1" xmlns="http://www.w3.org/2000/svg" p-id="917"><path d="M514.816 657.0496a30.72 30.72 0 0 1-30.72-30.72v-23.9616A128 128 0 0 1 552.96 487.5264a83.9168 83.9168 0 1 0-95.5904-135.8848 83.0464 83.0464 0 0 0-26.4192 61.1328 30.72 30.72 0 0 1-61.44 0 145.7664 145.7664 0 0 1 46.08-105.8816 145.3056 145.3056 0 1 1 165.5808 235.52 67.5328 67.5328 0 0 0-35.3792 60.16v23.9616a30.72 30.72 0 0 1-30.976 30.5152z" fill="#FF60D8" p-id="918"></path><path d="M512 983.04a471.04 471.04 0 1 1 471.04-471.04 471.3472 471.3472 0 0 1-471.04 471.04z m0-880.64a409.6 409.6 0 1 0 409.6 409.6 409.856 409.856 0 0 0-409.6-409.6z" fill="#3D3A3A" p-id="919"></path><path d="M514.816 727.9616m-35.6352 0a35.6352 35.6352 0 1 0 71.2704 0 35.6352 35.6352 0 1 0-71.2704 0Z" fill="#FF60D8" p-id="920"></path></svg>