<svg class="icon" style="width: 1em;height: 1em;vertical-align: middle;fill: currentColor;overflow: hidden;" viewBox="0 0 1024 1024" version="1.1" xmlns="http://www.w3.org/2000/svg" p-id="893"><path d="M512 983.04a471.04 471.04 0 1 1 471.04-471.04 471.3472 471.3472 0 0 1-471.04 471.04z m0-880.64a409.6 409.6 0 1 0 409.6 409.6 409.856 409.856 0 0 0-409.6-409.6z" fill="#3D3A3A" p-id="894"></path><path d="M454.656 680.96h-0.8704a30.72 30.72 0 0 1-22.0672-10.24l-111.9232-126.0544a30.72 30.72 0 0 1 46.08-40.96l90.2656 101.4272 203.3664-203.2128a30.72 30.72 0 1 1 43.4176 43.52L476.16 671.744a30.72 30.72 0 0 1-21.504 9.216z" fill="#FF60D8" p-id="895"></path></svg>