<svg class="icon" style="width: 1em;height: 1em;vertical-align: middle;fill: currentColor;overflow: hidden;" viewBox="0 0 1024 1024" version="1.1" xmlns="http://www.w3.org/2000/svg" p-id="807"><path d="M209.92 881.6128a30.72 30.72 0 0 1-30.72-30.72V141.824a30.72 30.72 0 0 1 19.1488-28.4672c8.6016-3.4816 212.1216-84.6848 350.2592-6.7072l16.384 9.2672c93.44 52.992 128.3584 72.8064 221.1328 40.1408a81.92 81.92 0 0 1 108.8512 77.2608v394.24a82.3296 82.3296 0 0 1-74.5472 81.6128c-58.112 5.12-149.8624-1.7408-257.024-62.7712-152.1664-86.6304-296.96 9.6768-319.232 32.256a32.8192 32.8192 0 0 1-3.7888 3.2768v168.96a30.72 30.72 0 0 1-30.464 30.72z m222.208-332.3904a322.9184 322.9184 0 0 1 161.792 43.6736c93.3888 53.1968 171.8784 59.2384 221.3376 54.9888a20.48 20.48 0 0 0 18.3808-20.48v-394.24a20.48 20.48 0 0 0-27.2384-19.3024c-119.1424 41.984-173.4144 11.2128-271.872-44.6464l-16.2816-9.216c-90.7264-51.2-227.6864-13.4656-277.76 3.2768v441.9072c42.3936-26.0608 111.2576-55.9616 191.6416-55.9616z" fill="#3D3A3A" p-id="808"></path><path d="M754.7904 933.888H125.44a30.72 30.72 0 0 1 0-61.44h629.3504a30.72 30.72 0 0 1 0 61.44z" fill="#FF60D8" p-id="809"></path></svg>