<svg class="icon" style="width: 1em;height: 1em;vertical-align: middle;fill: currentColor;overflow: hidden;" viewBox="0 0 1024 1024" version="1.1" xmlns="http://www.w3.org/2000/svg" p-id="1332"><path d="M506.2144 517.7856m-450.816 0a450.816 450.816 0 1 0 901.632 0 450.816 450.816 0 1 0-901.632 0Z" fill="#E9ECFF" p-id="1333"></path><path d="M707.8912 658.8928c-129.792-65.4848-255.4368-0.2048-356.352 52.224-45.7728 23.808-73.8816 24.0128-84.0704 16.9984-4.864-3.3792-4.864-8.1408-4.6592-10.0352 1.1264-9.472 13.312-22.7328 25.3952-32.4608 18.7904 5.6832 39.936 2.2016 56.2176-11.1616l190.72-156.4672-110.5408-108.1856-163.3792 176.3328c-12.7488 13.7216-17.92 31.8976-15.616 49.3056-18.9952 15.4624-44.2368 41.8304-48.128 74.9056-3.328 28.16 9.1648 55.7568 32.5632 71.9872 15.104 10.4448 33.4848 15.7696 54.5792 15.7696 28.16 0 60.8768-9.5744 97.28-28.4672 92.16-47.872 196.6592-102.1952 296.3456-51.8656 16.1792 8.192 36.0448 1.6384 44.2368-14.5408 8.1408-16.3328 1.6384-36.1472-14.592-44.3392z" fill="#6C6CEA" p-id="1334"></path><path d="M752.384 351.0272c0-89.9072-72.8576-162.7648-162.7648-162.7648-41.8816 0-80.128 15.872-108.9536 41.8816l228.9664 230.8096c26.5728-28.9792 42.752-67.584 42.752-109.9264zM571.5968 512.6656c5.9392 0.6656 11.9296 1.0752 18.0224 1.0752 31.8464 0 61.4912-9.1648 86.5792-24.9856l-223.744-225.3824a162.048 162.048 0 0 0-24.832 103.1168l143.9744 146.176zM351.5392 711.1168c-45.7728 23.808-73.8816 24.0128-84.0704 16.9984-4.864-3.3792-4.864-8.1408-4.6592-10.0352 1.1264-9.472 13.312-22.7328 25.3952-32.4608 18.7904 5.6832 39.936 2.2016 56.2176-11.1616l190.72-156.4672-110.5408-108.1856-163.3792 176.3328c-12.7488 13.7216-17.92 31.8976-15.616 49.3056-18.9952 15.4624-44.2368 41.8304-48.128 74.9056-3.328 28.16 9.1648 55.7568 32.5632 71.9872 15.104 10.4448 33.4848 15.7696 54.5792 15.7696 28.16 0 60.8768-9.5744 97.28-28.4672 77.9264-40.4992 164.6592-85.5552 249.856-68.096 17.92-16.64 34.3552-34.7648 49.0496-54.3232-120.064-44.6976-235.3664 15.1552-329.2672 63.8976z" fill="#757BF2" p-id="1335"></path><path d="M630.3232 380.9792c13.2096-40.3968 20.4288-83.456 20.4288-128.2048 0-18.3296-1.3312-36.3008-3.6352-54.016a162.32448 162.32448 0 0 0-57.4976-10.496c-41.8816 0-80.128 15.872-108.9536 41.8816l149.6576 150.8352zM613.0176 425.1136L452.4544 263.424a162.048 162.048 0 0 0-24.832 103.1168l136.704 138.752a414.12608 414.12608 0 0 0 48.6912-80.1792zM217.0368 664.7296c7.0144 0.3584 14.08 0.512 21.1968 0.512 54.3232 0 106.0864-10.5984 153.6-29.6448l143.3088-117.5552-110.5408-108.2368-163.3792 176.3328c-12.7488 13.7216-17.92 31.8976-15.616 49.3056-9.1136 7.424-19.6096 17.3568-28.5696 29.2864z" fill="#8486F8" p-id="1336"></path><path d="M480.6656 230.0928l34.7648 35.0208c9.1136-21.8624 16.2816-44.6464 21.5552-68.1984a163.90656 163.90656 0 0 0-56.32 33.1776zM452.4544 263.424a162.048 162.048 0 0 0-24.832 103.1168l14.592 14.848c20.3264-22.784 38.1952-47.8208 53.1456-74.752l-42.9056-43.2128z" fill="#8D92F8" p-id="1337"></path></svg>