<svg class="icon" style="width: 1em;height: 1em;vertical-align: middle;fill: currentColor;overflow: hidden;" viewBox="0 0 1024 1024" version="1.1" xmlns="http://www.w3.org/2000/svg" p-id="6158"><path d="M507.136 510.1568m-450.816 0a450.816 450.816 0 1 0 901.632 0 450.816 450.816 0 1 0-901.632 0Z" fill="#FFF7DC" p-id="6159"></path><path d="M749.0048 277.9136H260.7104a49.408 49.408 0 0 0-49.408 49.408v328.6016a49.408 49.408 0 0 0 49.408 49.408h488.2944a49.408 49.408 0 0 0 49.408-49.408V327.3216a49.408 49.408 0 0 0-49.408-49.408z m-283.2896 179.2h-35.7888v101.4272c0 16.1792-13.1072 29.2352-29.2352 29.2352-16.1792 0-29.2352-13.1072-29.2352-29.2352V457.1136h-35.7888c-16.1792 0-29.2352-13.1072-29.2352-29.2352 0-16.1792 13.1072-29.2352 29.2352-29.2352h130.0992c16.1792 0 29.2352 13.1072 29.2352 29.2352-0.0512 16.128-13.1584 29.2352-29.2864 29.2352z m227.4304-15.616l-68.9152 130.6624a29.24544 29.24544 0 0 1-25.856 15.616h-0.4096a29.35808 29.35808 0 0 1-25.856-16.2816L507.4432 440.832a29.21984 29.21984 0 0 1 13.2608-39.168c14.4896-7.168 32-1.2288 39.168 13.2608l39.2704 79.36 42.24-80.0256a29.27616 29.27616 0 0 1 39.5264-12.2368 29.21472 29.21472 0 0 1 12.2368 39.4752zM615.7312 796.3648H400.64c-17.408 0-31.488-14.08-31.488-31.488s14.08-31.488 31.488-31.488h215.0912c17.408 0 31.488 14.08 31.488 31.488s-14.08 31.488-31.488 31.488z" fill="#FF8E12" p-id="6160"></path><path d="M798.4128 327.3216a49.408 49.408 0 0 0-49.408-49.408H260.7104a49.408 49.408 0 0 0-49.408 49.408v328.6016a49.408 49.408 0 0 0 49.408 49.408h320.3072c123.392-74.4448 208.1792-206.336 217.3952-358.656v-19.3536zM465.7152 457.1136h-35.7888v101.4272c0 16.1792-13.1072 29.2352-29.2352 29.2352-16.1792 0-29.2352-13.1072-29.2352-29.2352V457.1136h-35.7888c-16.1792 0-29.2352-13.1072-29.2352-29.2352s13.1072-29.2352 29.2352-29.2352h130.0992c16.1792 0 29.2352 13.1072 29.2352 29.2352s-13.1584 29.2352-29.2864 29.2352z m227.4304-15.616l-68.9152 130.6624a29.24544 29.24544 0 0 1-25.856 15.616h-0.4096a29.35808 29.35808 0 0 1-25.856-16.2816L507.4944 440.832a29.21984 29.21984 0 0 1 13.2608-39.168c14.4896-7.168 32-1.2288 39.168 13.2608l39.2704 79.36 42.24-80.0256a29.27616 29.27616 0 0 1 39.5264-12.2368 29.24032 29.24032 0 0 1 12.1856 39.4752zM400.64 733.3888c-17.408 0-31.488 14.08-31.488 31.488 0 1.536 0.1536 3.0208 0.3584 4.5056 55.5008-2.56 108.3904-15.1552 156.8768-35.9936H400.64z" fill="#FCA315" p-id="6161"></path><path d="M211.3024 327.3216v282.2144c4.608 0.1536 9.216 0.256 13.8752 0.256 55.3984 0 108.3904-9.984 157.44-28.2624a29.20448 29.20448 0 0 1-11.1616-22.9888V457.1136h-35.7888c-16.1792 0-29.2352-13.1072-29.2352-29.2352s13.1072-29.2352 29.2352-29.2352h130.0992c16.1792 0 29.2352 13.1072 29.2352 29.2352s-13.1072 29.2352-29.2352 29.2352h-35.7888v101.4272c0 0.768-0.0512 1.4848-0.1024 2.2528 37.2224-18.9952 71.424-43.008 101.7856-71.168l-24.1152-48.7424a29.21984 29.21984 0 0 1 13.2608-39.168c14.4896-7.168 32-1.2288 39.168 13.2608l14.4384 29.184c39.3216-48.128 68.9152-104.4992 85.7088-166.144h-399.36c-27.3408-0.1024-49.4592 22.016-49.4592 49.3056z" fill="#FCB138" p-id="6162"></path><path d="M211.3024 327.3216v111.872c102.656-23.1424 192.0512-81.3056 254.976-161.28H260.7104a49.408 49.408 0 0 0-49.408 49.408z" fill="#FFC65E" p-id="6163"></path></svg>