<svg class="icon" style="width: 1em;height: 1em;vertical-align: middle;fill: currentColor;overflow: hidden;" viewBox="0 0 1024 1024" version="1.1" xmlns="http://www.w3.org/2000/svg" p-id="4219"><path d="M508.6208 509.5936m-450.816 0a450.816 450.816 0 1 0 901.632 0 450.816 450.816 0 1 0-901.632 0Z" fill="#E9ECFF" p-id="4220"></path><path d="M651.0592 469.1968h-17.408v21.1456h17.408a10.57792 10.57792 0 0 0 0-21.1456z" fill="#757BF2" p-id="4221"></path><path d="M838.2464 424.7552l-96.7168-132.7616a61.3888 61.3888 0 0 0-49.6128-25.2416H326.144c-19.456 0-37.7344 9.216-49.3056 24.832L179.2512 423.0656a61.41952 61.41952 0 0 0 4.5568 78.592l280.832 299.3152c24.2688 25.856 65.3312 25.856 89.5488-0.0512l279.1936-298.0864c20.1728-21.504 22.2208-54.272 4.864-78.08z m-357.632 23.6032l-48.2304 128.8192a27.42272 27.42272 0 0 1-25.7024 17.8176h-16.1792c-11.4176 0-21.6064-7.0656-25.6512-17.7152l-48.4864-127.7952a27.41248 27.41248 0 0 1 15.9232-35.3792c14.1824-5.376 30.0032 1.7408 35.3792 15.9232l30.8224 81.2032 30.72-82.0736a27.45856 27.45856 0 0 1 35.328-16.0768 27.38176 27.38176 0 0 1 16.0768 35.2768z m72.4992 124.2624a27.4432 27.4432 0 0 1-54.8864 0v-133.632a27.4432 27.4432 0 0 1 54.8864 0v133.632z m97.9456-27.392h-17.408v27.3408a27.4432 27.4432 0 0 1-54.8864 0V441.7536c0-15.1552 12.288-27.4432 27.4432-27.4432h44.8512c36.096 0 65.4848 29.3888 65.4848 65.4848s-29.3888 65.4336-65.4848 65.4336z" fill="#6C6CEA" p-id="4222"></path><path d="M695.04 528.128a65.05472 65.05472 0 0 1-43.9808 17.1008h-17.408v27.3408a27.4432 27.4432 0 0 1-54.8864 0V441.7536c0-15.1552 12.288-27.4432 27.4432-27.4432h44.8512c26.1632 0 48.6912 15.4624 59.1872 37.632a437.74464 437.74464 0 0 0-19.7632-185.2416H326.144c-19.456 0-37.7344 9.216-49.3056 24.832L179.2512 423.0656a61.41952 61.41952 0 0 0 4.5568 78.592l279.7056 298.1376c111.1552-53.0944 196.3008-151.7056 231.5264-271.6672zM498.2272 438.9888a27.4432 27.4432 0 0 1 54.8864 0v133.632a27.4432 27.4432 0 0 1-54.8864 0v-133.632z m-91.5456 156.0064h-16.1792c-11.4176 0-21.6064-7.0656-25.6512-17.7152l-48.4864-127.7952a27.41248 27.41248 0 0 1 15.9232-35.3792c14.1824-5.376 30.0032 1.7408 35.3792 15.9232l30.8224 81.2032 30.72-82.0736a27.45856 27.45856 0 0 1 35.328-16.0768 27.45856 27.45856 0 0 1 16.0768 35.328l-48.2304 128.8192a27.55072 27.55072 0 0 1-25.7024 17.7664z" fill="#757BF2" p-id="4223"></path><path d="M326.144 266.752c-19.456 0-37.7344 9.216-49.3056 24.832L179.2512 423.0656a61.41952 61.41952 0 0 0 4.5568 78.592l141.6704 150.9888c68.1472-28.7232 127.3856-74.2912 172.7488-131.4304V438.9888c0-15.1552 12.288-27.4432 27.4432-27.4432 13.2096 0 24.2688 9.3696 26.88 21.8112a435.22048 435.22048 0 0 0 40.1408-166.6048H326.144z m154.4704 181.6064l-48.2304 128.8192a27.42272 27.42272 0 0 1-25.7024 17.8176h-16.1792c-11.4176 0-21.6064-7.0656-25.6512-17.7152l-48.4864-127.7952a27.41248 27.41248 0 0 1 15.9232-35.3792c14.1824-5.376 30.0032 1.7408 35.3792 15.9232l30.8224 81.2032 30.72-82.0736a27.45856 27.45856 0 0 1 35.328-16.0768 27.38176 27.38176 0 0 1 16.0768 35.2768z" fill="#8486F8" p-id="4224"></path><path d="M276.8384 291.5328L179.2512 423.0656a61.41952 61.41952 0 0 0 4.5568 78.592l5.632 5.9904a436.79232 436.79232 0 0 0 125.1328-68.3008 27.50976 27.50976 0 0 1 31.232-26.8288c43.264-40.8576 78.2336-90.3168 101.9904-145.8176H326.144c-19.456 0.0512-37.7344 9.216-49.3056 24.832z" fill="#8D92F8" p-id="4225"></path></svg>