<svg class="icon" style="width: 1em;height: 1em;vertical-align: middle;fill: currentColor;overflow: hidden;" viewBox="0 0 1024 1024" version="1.1" xmlns="http://www.w3.org/2000/svg" p-id="6567"><path d="M512.3072 515.84m-450.816 0a450.816 450.816 0 1 0 901.632 0 450.816 450.816 0 1 0-901.632 0Z" fill="#FBE1FF" p-id="6568"></path><path d="M513.4848 191.6928c-176.7424-0.2048-324.352 147.5072-324.1472 324.4032 0.256 177.92 146.8416 324.4032 324.2496 323.9424 178.8416-0.4608 323.2256-145.152 323.328-324.096 0.1024-178.2272-145.3056-324.0448-323.4304-324.2496z m-1.28 512.4096c-30.1056-0.256-53.248-23.9104-52.8384-54.016 0.3584-29.3376 25.0368-53.4528 54.272-53.0944 28.9792 0.3584 53.9136 25.856 53.2992 54.528-0.6144 29.7984-24.5248 52.7872-54.7328 52.5824z m171.1616-130.048a35.7632 35.7632 0 0 1-26.2144 11.4176 35.6352 35.6352 0 0 1-24.4224-9.6256c-126.8736-118.272-236.544-6.2976-241.152-1.4848a35.84 35.84 0 0 1-50.688 1.1776 35.84 35.84 0 0 1-1.1776-50.688c1.6384-1.7408 41.1648-42.5984 102.4512-63.1296 58.112-19.5072 146.8416-24.6272 239.4112 61.696 14.5408 13.4656 15.3088 36.1472 1.792 50.6368z m38.8096-108.5952c-7.6288 0-15.3088-2.4064-21.8112-7.424C617.2672 394.24 528.7424 374.6816 437.2992 399.9744c-67.84 18.7392-112.8448 56.4224-113.2544 56.7808-15.0016 12.9024-37.632 11.264-50.5344-3.7376-12.9024-15.0016-11.264-37.632 3.7376-50.5344 2.2528-1.9456 56.6784-48.3328 141.0048-71.6288 78.592-21.7088 198.8608-27.0848 325.7856 70.2976 15.7184 12.032 18.688 34.56 6.6048 50.2272a35.67104 35.67104 0 0 1-28.4672 14.08z" fill="#BD50D3" p-id="6569"></path><path d="M791.3472 359.424c0-3.0208-0.0512-6.0416-0.1024-9.0624-56.576-94.72-160-158.5152-277.76-158.6688-176.7424-0.2048-324.352 147.5072-324.1472 324.4032 0.1536 128.5632 76.8 240.6912 186.2144 292.8128 232.6016-17.8688 415.7952-212.2752 415.7952-449.4848z m-279.1424 344.6784c-30.1056-0.256-53.248-23.9104-52.8384-54.016 0.3584-29.3376 25.0368-53.4528 54.272-53.0944 28.9792 0.3584 53.9136 25.856 53.2992 54.528-0.6144 29.7984-24.5248 52.7872-54.7328 52.5824zM273.5104 453.0176c-12.9024-15.0016-11.264-37.632 3.7376-50.5344 2.2528-1.9456 56.6784-48.3328 141.0048-71.6288 78.592-21.7088 198.8608-27.0848 325.7856 70.2976 15.7184 12.032 18.688 34.56 6.6048 50.2272a35.76832 35.76832 0 0 1-28.4672 14.0288c-7.6288 0-15.3088-2.4064-21.8112-7.424-83.0976-63.7952-171.6224-83.3536-263.0656-58.0608-67.84 18.7392-112.8448 56.4224-113.2544 56.7808a35.7376 35.7376 0 0 1-50.5344-3.6864z m66.2016 71.8336c1.6384-1.7408 41.1648-42.5984 102.4512-63.1296 58.112-19.5072 146.8416-24.6272 239.4112 61.696a35.84 35.84 0 0 1-24.4224 62.0544 35.6352 35.6352 0 0 1-24.4224-9.6256c-126.8736-118.272-236.544-6.2976-241.152-1.4848a35.84 35.84 0 0 1-50.688 1.1776c-14.2848-13.6704-14.7968-36.352-1.1776-50.688z" fill="#C65EDB" p-id="6570"></path><path d="M218.9824 650.1376c121.2416-0.4608 231.168-48.7936 311.9616-127.0272-78.7968-10.5984-136.0384 47.8208-139.3152 51.3024a35.84 35.84 0 0 1-50.688 1.1776 35.84 35.84 0 0 1-1.1776-50.688c1.6384-1.7408 41.1648-42.5984 102.4512-63.1296 37.0176-12.4416 86.528-18.944 141.5168 0.2048a455.7824 455.7824 0 0 0 32.512-52.5312c-57.8048-23.04-117.7088-26.3168-178.8928-9.4208-67.84 18.7392-112.8448 56.4224-113.2544 56.7808-15.0016 12.9024-37.632 11.264-50.5344-3.7376-12.9024-15.0016-11.264-37.632 3.7376-50.5344 2.2528-1.9456 56.6784-48.3328 141.0048-71.6288 57.6-15.9232 137.6256-22.9888 226.2528 12.6976a449.0752 449.0752 0 0 0 22.4768-112.7424 321.34144 321.34144 0 0 0-153.4464-39.168c-176.8448-0.2048-324.4544 147.5072-324.2496 324.4032 0.1024 47.6672 10.752 93.0816 29.6448 134.0416z" fill="#CA6EE0" p-id="6571"></path><path d="M513.4848 191.6928C348.16 191.488 208.384 320.7168 191.1808 482.0992a448.84992 448.84992 0 0 0 85.504-25.856c-1.1264-1.024-2.2016-2.048-3.1744-3.2256-12.9024-15.0016-11.264-37.632 3.7376-50.5344 2.2528-1.9456 56.6784-48.3328 141.0048-71.6288 11.3152-3.1232 23.552-5.888 36.5056-8.0896a449.96096 449.96096 0 0 0 73.5232-130.7136c-4.9152-0.2048-9.8304-0.3584-14.7968-0.3584z" fill="#D786EA" p-id="6572"></path></svg>