<svg class="icon" style="width: 1em;height: 1em;vertical-align: middle;fill: currentColor;overflow: hidden;" viewBox="0 0 1024 1024" version="1.1" xmlns="http://www.w3.org/2000/svg" p-id="5724"><path d="M517.888 509.696m-450.816 0a450.816 450.816 0 1 0 901.632 0 450.816 450.816 0 1 0-901.632 0Z" fill="#FFF7DC" p-id="5725"></path><path d="M738.7648 300.9536H494.1824c-5.0176 0-9.7792-1.8944-13.4656-5.3248L425.0112 243.456a19.58912 19.58912 0 0 0-13.4656-5.3248h-107.008c-37.1712 0-67.328 30.1568-67.328 67.328v402.944c0 37.1712 30.1568 67.328 67.328 67.328h434.176c37.1712 0 67.328-30.1568 67.328-67.328V368.3328c0.0512-37.2224-30.1056-67.3792-67.2768-67.3792z m-110.2336 251.8528a36.44928 36.44928 0 0 1-26.368 11.2128 36.5568 36.5568 0 0 1-25.4464-10.2912l-16.7424-16.128v102.4c0 20.224-16.384 36.6592-36.6592 36.6592a36.6592 36.6592 0 0 1-36.6592-36.6592v-104.448l-16.2816 15.3088a36.69504 36.69504 0 0 1-51.8144-1.536 36.65408 36.65408 0 0 1 1.5872-51.8144l77.7216-73.1648a36.608 36.608 0 0 1 50.5344 0.3072l79.1552 76.3392a36.55168 36.55168 0 0 1 0.9728 51.8144z" fill="#FF8E12" p-id="5726"></path><path d="M806.0928 368.3328c0-37.1712-30.1568-67.328-67.328-67.328H494.1824c-5.0176 0-9.7792-1.8944-13.4656-5.3248l-55.7056-52.224a19.58912 19.58912 0 0 0-13.4656-5.3248h-107.008c-37.1712 0-67.328 30.1568-67.328 67.328v402.944c0 37.1712 30.1568 67.328 67.328 67.328h200.6528c153.2928-50.7904 270.08-181.6576 300.8512-343.04V368.3328z m-177.5616 184.4736a36.44928 36.44928 0 0 1-26.368 11.2128 36.5568 36.5568 0 0 1-25.4464-10.2912l-16.7424-16.128v102.4c0 20.224-16.384 36.6592-36.6592 36.6592a36.6592 36.6592 0 0 1-36.6592-36.6592v-104.448l-16.2816 15.3088a36.69504 36.69504 0 0 1-51.8144-1.536 36.65408 36.65408 0 0 1 1.5872-51.8144l77.7216-73.1648a36.608 36.608 0 0 1 50.5344 0.3072l79.1552 76.3392a36.55168 36.55168 0 0 1 0.9728 51.8144z" fill="#FCA315" p-id="5727"></path><path d="M494.1824 300.9536c-5.0176 0-9.7792-1.8944-13.4656-5.3248L425.0112 243.456a19.58912 19.58912 0 0 0-13.4656-5.3248h-107.008c-37.1712 0-67.328 30.1568-67.328 67.328v332.9536c0.9216 0 1.8432 0.0512 2.7648 0.0512 91.0848 0 175.8208-27.0336 246.7328-73.472v-29.44l-16.2816 15.3088a36.69504 36.69504 0 0 1-51.8144-1.536 36.65408 36.65408 0 0 1 1.5872-51.8144l77.7216-73.1648a36.608 36.608 0 0 1 50.5344 0.3072l44.6976 43.1104a449.3312 449.3312 0 0 0 83.2512-166.8608H494.1824z" fill="#FCB138" p-id="5728"></path><path d="M486.656 299.4176c-2.1504-0.9216-4.1984-2.1504-5.9392-3.7888L425.0112 243.456a19.58912 19.58912 0 0 0-13.4656-5.3248h-107.008c-37.1712 0-67.328 30.1568-67.328 67.328v159.7952c101.0688-25.4976 188.5184-85.0944 249.4464-165.8368z" fill="#FFC65E" p-id="5729"></path></svg>