<svg class="icon" style="width: 1em;height: 1em;vertical-align: middle;fill: currentColor;overflow: hidden;" viewBox="0 0 1024 1024" version="1.1" xmlns="http://www.w3.org/2000/svg" p-id="4282"><path d="M512.1536 512.9728m-450.816 0a450.816 450.816 0 1 0 901.632 0 450.816 450.816 0 1 0-901.632 0Z" fill="#E9ECFF" p-id="4283"></path><path d="M681.6768 234.0352H342.6304c-59.1872 0-107.3664 48.1792-107.3664 107.3664v343.1424c0 59.1872 48.1792 107.3664 107.3664 107.3664h338.9952c59.1872 0 107.3664-48.1792 107.3664-107.3664V341.4016c0.0512-59.1872-48.128-107.3664-107.3152-107.3664z m-31.488 386.6112a30.63296 30.63296 0 0 1-21.9136 9.216 30.5152 30.5152 0 0 1-21.504-8.8064l-66.1504-64.8192v119.04c0 16.9472-13.7728 30.72-30.72 30.72s-30.72-13.7728-30.72-30.72V560.64l-59.1872 58.8288a30.77632 30.77632 0 0 1-43.4688-0.1536c-11.9808-12.032-11.8784-31.488 0.1536-43.4688L485.8368 467.456c14.2336-14.1312 37.4784-14.2336 51.8144-0.1536l112.128 109.9264a30.6688 30.6688 0 0 1 0.4096 43.4176z m-18.432-216.832H395.4176c-16.9472 0-30.72-13.7728-30.72-30.72s13.7728-30.72 30.72-30.72h236.3392c16.9472 0 30.72 13.7728 30.72 30.72s-13.7728 30.72-30.72 30.72z" fill="#6C6CEA" p-id="4284"></path><path d="M681.6768 234.0352H342.6304c-59.1872 0-107.3664 48.1792-107.3664 107.3664v343.1424c0 59.1872 48.1792 107.3664 107.3664 107.3664H445.952c192.7168-51.2 334.7456-226.8672 334.7456-435.712 0-22.528-1.6896-44.6976-4.864-66.3552-18.2784-33.2288-53.6576-55.808-94.1568-55.808z m-31.488 386.6112a30.63296 30.63296 0 0 1-21.9136 9.216 30.5152 30.5152 0 0 1-21.504-8.8064l-66.1504-64.8192v119.04c0 16.9472-13.7728 30.72-30.72 30.72s-30.72-13.7728-30.72-30.72V560.64l-59.1872 58.8288a30.77632 30.77632 0 0 1-43.4688-0.1536c-11.9808-12.032-11.8784-31.488 0.1536-43.4688L485.8368 467.456c14.2336-14.1312 37.4784-14.2336 51.8144-0.1536l112.128 109.9264a30.6688 30.6688 0 0 1 0.4096 43.4176z m-18.432-216.832H395.4176c-16.9472 0-30.72-13.7728-30.72-30.72s13.7728-30.72 30.72-30.72h236.3392c16.9472 0 30.72 13.7728 30.72 30.72s-13.7728 30.72-30.72 30.72z" fill="#757BF2" p-id="4285"></path><path d="M235.3152 341.4016v304.5888c48.4352-3.072 94.7712-13.7216 137.8816-30.8736-8.3456-12.032-7.168-28.6208 3.5328-39.2704L485.8368 467.456c14.2336-14.1312 37.4784-14.2336 51.8144-0.1536l16.3328 16.0256a450.9184 450.9184 0 0 0 52.6848-79.5136H395.4176c-16.9472 0-30.72-13.7728-30.72-30.72s13.7728-30.72 30.72-30.72h236.3392c0.4096 0 0.8704 0.0512 1.28 0.0512a447.4624 447.4624 0 0 0 22.6816-108.3904H342.6304c-59.1872 0-107.3152 48.1792-107.3152 107.3664z" fill="#8486F8" p-id="4286"></path><path d="M235.3152 341.4016v123.0848a450.70848 450.70848 0 0 0 135.68-72.8576 30.72 30.72 0 0 1-6.2464-18.5344c0-16.9472 13.7728-30.72 30.72-30.72h28.928c29.696-32.1536 54.7328-68.608 74.1376-108.3392H342.6304c-59.1872 0-107.3152 48.1792-107.3152 107.3664z" fill="#8D92F8" p-id="4287"></path></svg>