<svg class="icon" style="width: 1em;height: 1em;vertical-align: middle;fill: currentColor;overflow: hidden;" viewBox="0 0 1024 1024" version="1.1" xmlns="http://www.w3.org/2000/svg" p-id="5739"><path d="M515.1744 509.696m-450.816 0a450.816 450.816 0 1 0 901.632 0 450.816 450.816 0 1 0-901.632 0Z" fill="#FFF7DC" p-id="5740"></path><path d="M756.9408 300.9536h-244.5824c-5.0176 0-9.7792-1.8944-13.4656-5.3248L443.1872 243.456a19.58912 19.58912 0 0 0-13.4656-5.3248h-107.008c-37.1712 0-67.328 30.1568-67.328 67.328v402.944c0 37.1712 30.1568 67.328 67.328 67.328h434.176c37.1712 0 67.328-30.1568 67.328-67.328V368.3328c0.0512-37.2224-30.1056-67.3792-67.2768-67.3792z m-113.2032 289.1264l-79.1552 76.3392a36.608 36.608 0 0 1-50.5344 0.3072l-77.7216-73.1648c-14.7456-13.8752-15.4112-37.0688-1.5872-51.8144a36.65408 36.65408 0 0 1 51.8144-1.5872l16.2816 15.3088V451.072c0-20.224 16.384-36.6592 36.6592-36.6592 20.224 0 36.6592 16.384 36.6592 36.6592v102.4l16.7424-16.128a36.5568 36.5568 0 0 1 25.4464-10.2912c9.6256 0 19.2 3.7376 26.368 11.2128 13.9776 14.592 13.568 37.7856-0.9728 51.8144z" fill="#FF8E12" p-id="5741"></path><path d="M824.2688 368.3328c0-37.1712-30.1568-67.328-67.328-67.328h-244.5824c-5.0176 0-9.7792-1.8944-13.4656-5.3248l-55.7056-52.224a19.58912 19.58912 0 0 0-13.4656-5.3248h-107.008c-37.1712 0-67.328 30.1568-67.328 67.328v402.944c0 37.1712 30.1568 67.328 67.328 67.328h167.0144c157.7472-33.4848 285.0304-149.4528 334.4896-300.6976V368.3328z m-180.5312 221.7472l-79.1552 76.3392a36.608 36.608 0 0 1-50.5344 0.3072l-77.7216-73.1648c-14.7456-13.8752-15.4112-37.0688-1.5872-51.8144a36.65408 36.65408 0 0 1 51.8144-1.5872l16.2816 15.3088V451.072c0-20.224 16.384-36.6592 36.6592-36.6592 20.224 0 36.6592 16.384 36.6592 36.6592v102.4l16.7424-16.128a36.5568 36.5568 0 0 1 25.4464-10.2912c9.6256 0 19.2 3.7376 26.368 11.2128 13.9776 14.592 13.568 37.7856-0.9728 51.8144z" fill="#FCA315" p-id="5742"></path><path d="M512.3584 300.9536c-5.0176 0-9.7792-1.8944-13.4656-5.3248L443.1872 243.456a19.58912 19.58912 0 0 0-13.4656-5.3248h-107.008c-37.1712 0-67.328 30.1568-67.328 67.328v319.6928c5.632 0.2048 11.3152 0.3584 16.9984 0.3584 58.1632 0 113.7664-11.008 164.8128-31.0784l-0.9728-0.9216c-14.7456-13.8752-15.4112-37.0688-1.5872-51.8144a36.65408 36.65408 0 0 1 51.8144-1.5872l16.2816 15.3088V451.072c0-20.224 16.384-36.6592 36.6592-36.6592 20.224 0 36.6592 16.384 36.6592 36.6592v56.832c60.3648-55.0912 105.728-126.3616 129.1776-206.8992h-192.8704z" fill="#FCB138" p-id="5743"></path><path d="M508.1088 300.4416a19.1488 19.1488 0 0 1-9.1648-4.8128L443.1872 243.456a19.58912 19.58912 0 0 0-13.4656-5.3248h-107.008c-37.1712 0-67.328 30.1568-67.328 67.328v150.1184c101.0688-21.9648 189.4912-77.824 252.7232-155.136z" fill="#FFC65E" p-id="5744"></path></svg>