<svg class="icon" style="width: 1em;height: 1em;vertical-align: middle;fill: currentColor;overflow: hidden;" viewBox="0 0 1024 1024" version="1.1" xmlns="http://www.w3.org/2000/svg" p-id="4360"><path d="M514.4064 512.9728m-450.816 0a450.816 450.816 0 1 0 901.632 0 450.816 450.816 0 1 0-901.632 0Z" fill="#E9ECFF" p-id="4361"></path><path d="M344.8832 791.9104h338.9952c59.1872 0 107.3664-48.1792 107.3664-107.3664V341.4016c0-59.1872-48.1792-107.3664-107.3664-107.3664H344.8832c-59.1872 0-107.3664 48.1792-107.3664 107.3664v343.1424c0 59.1872 48.1792 107.3664 107.3664 107.3664z m31.488-386.6112c6.0416-6.144 13.9776-9.216 21.9136-9.216 7.7824 0 15.5136 2.9184 21.504 8.8064l66.1504 64.8192V350.6688c0-16.9472 13.7728-30.72 30.72-30.72s30.72 13.7728 30.72 30.72v114.6368l59.1872-58.8288a30.77632 30.77632 0 0 1 43.4688 0.1536c11.9808 12.032 11.8784 31.488-0.1536 43.4688l-109.1584 108.3904c-14.2336 14.1312-37.4784 14.2336-51.8144 0.1536l-112.128-109.9264a30.6688 30.6688 0 0 1-0.4096-43.4176z m18.432 216.832h236.3392c16.9472 0 30.72 13.7728 30.72 30.72s-13.7728 30.72-30.72 30.72H394.8032c-16.9472 0-30.72-13.7728-30.72-30.72s13.7728-30.72 30.72-30.72z" fill="#6C6CEA" p-id="4362"></path><path d="M791.296 341.4016c0-59.1872-48.1792-107.3664-107.3664-107.3664H344.8832c-59.1872 0-107.3664 48.1792-107.3664 107.3664v343.1424c0 59.1872 48.1792 107.3664 107.3664 107.3664h76.2368c197.2224-34.6112 350.2592-197.4272 370.1248-399.3088v-51.2zM376.3712 405.2992c6.0416-6.144 13.9776-9.216 21.9136-9.216 7.7824 0 15.5136 2.9184 21.504 8.8064l66.1504 64.8192V350.6688c0-16.9472 13.7728-30.72 30.72-30.72s30.72 13.7728 30.72 30.72v114.6368l59.1872-58.8288a30.77632 30.77632 0 0 1 43.4688 0.1536c11.9808 12.032 11.8784 31.488-0.1536 43.4688l-109.1584 108.3904c-14.2336 14.1312-37.4784 14.2336-51.8144 0.1536l-112.128-109.9264a30.6688 30.6688 0 0 1-0.4096-43.4176z m254.7712 278.272H394.8032c-16.9472 0-30.72-13.7728-30.72-30.72s13.7728-30.72 30.72-30.72h236.3392c16.9472 0 30.72 13.7728 30.72 30.72s-13.7728 30.72-30.72 30.72z" fill="#757BF2" p-id="4363"></path><path d="M344.8832 234.0352c-59.1872 0-107.3664 48.1792-107.3664 107.3664v296.8064a448.5888 448.5888 0 0 0 245.8112-84.992L376.7808 448.7168c-12.1344-11.8784-12.288-31.3344-0.4096-43.4688 6.0416-6.144 13.9776-9.216 21.9136-9.216 7.7824 0 15.5136 2.9184 21.504 8.8064l66.1504 64.8192V350.6688c0-16.9472 13.7728-30.72 30.72-30.72s30.72 13.7728 30.72 30.72v114.6368l59.1872-58.8288c3.1744-3.1744 6.8608-5.4272 10.8032-6.912a447.22688 447.22688 0 0 0 50.432-165.5808H344.8832z" fill="#8486F8" p-id="4364"></path><path d="M237.5168 341.4016v118.1696c117.3504-35.7888 214.4256-118.1184 269.6192-225.536H344.8832c-59.1872 0-107.3664 48.1792-107.3664 107.3664z" fill="#8D92F8" p-id="4365"></path></svg>