<svg class="icon" style="width: 1em;height: 1em;vertical-align: middle;fill: currentColor;overflow: hidden;" viewBox="0 0 1024 1024" version="1.1" xmlns="http://www.w3.org/2000/svg" p-id="3026"><path d="M509.9008 519.8336m-450.816 0a450.816 450.816 0 1 0 901.632 0 450.816 450.816 0 1 0-901.632 0Z" fill="#FBE1FF" p-id="3027"></path><path d="M798.1568 512.512l-113.3056-78.3872a47.4112 47.4112 0 0 1-20.4288-39.0656l0.3584-137.7792c0.1024-39.2704-44.9024-61.5936-76.0832-37.7856l-109.568 83.5072a47.2832 47.2832 0 0 1-43.4688 7.3216l-130.9184-42.9056c-37.3248-12.2368-72.448 23.6544-59.4432 60.7232l45.568 129.9968A47.3088 47.3088 0 0 1 284.416 501.76l-81.2544 111.2576c-23.1424 31.6928 0.1024 76.2368 39.3728 75.3152l137.728-3.1744a47.3344 47.3344 0 0 1 39.4752 19.6096l80.6912 111.6672c22.9888 31.8464 72.4992 23.4496 83.7632-14.1824l37.9392-126.6176 126.5664 118.272a27.648 27.648 0 0 0 17.7664 7.4752c7.8848 0.3584 15.872-2.6112 21.7088-8.8064a27.91936 27.91936 0 0 0-1.3312-39.4752l-124.8768-116.6848 123.8016-39.8848c37.376-11.9808 44.6976-61.6448 12.3904-84.0192z m-389.6832-6.5024l-42.8032 77.824a27.86816 27.86816 0 0 1-37.9392 11.008 27.93984 27.93984 0 0 1-11.008-37.9392l40.0384-72.7552-19.0464-63.6928c-4.4032-14.7968 3.9936-30.3616 18.7392-34.7648 14.7456-4.4032 30.3616 3.9936 34.7648 18.7392l20.6848 69.2224c3.2256 10.752 1.9968 22.528-3.4304 32.3584z" fill="#BD50D3" p-id="3028"></path><path d="M704.7168 447.8464l-19.8144-13.7216a47.4112 47.4112 0 0 1-20.4288-39.0656l0.3584-137.7792c0.1024-39.2704-44.9024-61.5936-76.0832-37.7856l-109.568 83.5584a47.2832 47.2832 0 0 1-43.4688 7.3216l-130.9184-42.9056c-37.3248-12.2368-72.448 23.6544-59.4432 60.7232l45.568 129.9968a47.3088 47.3088 0 0 1-6.4512 43.6224l-81.2544 111.2576c-23.1424 31.6928 0.1024 76.2368 39.3728 75.3152l137.728-3.1744a47.3344 47.3344 0 0 1 39.4752 19.6096l34.6624 47.9232c130.048-48.6912 227.3792-164.2496 250.2656-304.896zM408.4736 506.0096l-42.8032 77.824a27.86816 27.86816 0 0 1-37.9392 11.008 27.93984 27.93984 0 0 1-11.008-37.9392l40.0384-72.7552-19.0464-63.6928c-4.4032-14.7968 3.9936-30.3616 18.7392-34.7648 14.7968-4.4032 30.3616 3.9936 34.7648 18.7392l20.6848 69.2224c3.2256 10.752 1.9968 22.528-3.4304 32.3584z" fill="#C65EDB" p-id="3029"></path><path d="M203.1616 613.0688a46.8736 46.8736 0 0 0-9.0624 24.5248c4.9152 0.2048 9.8816 0.3584 14.848 0.3584 217.2416 0 393.3696-176.128 393.3696-393.3696 0-10.752-0.5632-21.3504-1.3824-31.8976-4.1984 1.5872-8.3456 3.84-12.2368 6.8096l-109.568 83.5584a47.2832 47.2832 0 0 1-43.4688 7.3216l-130.9184-42.9056c-37.3248-12.2368-72.448 23.6544-59.4432 60.7232l45.568 129.9968a47.3088 47.3088 0 0 1-6.4512 43.6224l-81.2544 111.2576z m113.5616-56.1664l40.0384-72.7552-19.0464-63.6928c-4.4032-14.7968 3.9936-30.3616 18.7392-34.7648 14.7968-4.4032 30.3616 3.9936 34.7648 18.7392l20.6848 69.2224c3.2256 10.7008 1.9456 22.528-3.4304 32.3072l-42.8032 77.824a27.86816 27.86816 0 0 1-37.9392 11.008c-13.5168-7.3728-18.432-24.3712-11.008-37.888z" fill="#CA6EE0" p-id="3030"></path><path d="M435.6608 310.3744l-130.9184-42.9056c-37.3248-12.2368-72.448 23.6544-59.4432 60.7232l44.544 127.0272c17.2032-8.8576 33.6896-18.944 49.3056-30.1568l-1.3824-4.5568c-4.4032-14.7968 3.9936-30.3616 18.7392-34.7648 8.8064-2.6112 17.8688-0.6656 24.7296 4.4032 24.2688-23.0912 45.568-49.2544 63.3344-77.8752-3.0208-0.3584-5.9904-0.9216-8.9088-1.8944z" fill="#D786EA" p-id="3031"></path></svg>