<svg class="icon" style="width: 1em;height: 1em;vertical-align: middle;fill: currentColor;overflow: hidden;" viewBox="0 0 1024 1024" version="1.1" xmlns="http://www.w3.org/2000/svg" p-id="5102"><path d="M509.1328 513.1264m-450.816 0a450.816 450.816 0 1 0 901.632 0 450.816 450.816 0 1 0-901.632 0Z" fill="#E9ECFF" p-id="5103"></path><path d="M372.6848 239.4624H285.2864c-16.1792 0-29.2864 13.1072-29.2864 29.2864v478.464c0 16.1792 13.1072 29.2864 29.2864 29.2864h87.3984c16.1792 0 29.2864-13.1072 29.2864-29.2864V268.7488c0-16.128-13.1072-29.2864-29.2864-29.2864z m-43.6736 502.3744a27.9552 27.9552 0 1 1 0.00512-55.91552 27.9552 27.9552 0 0 1-0.00512 55.91552z" fill="#757BF2" p-id="5104"></path><path d="M794.2144 721.1008l-73.1136-430.3872a29.29664 29.29664 0 0 0-33.792-23.9616l-86.1696 14.6432a29.184 29.184 0 0 0-23.3984 21.4528V268.8c0-16.1792-13.1072-29.2864-29.2864-29.2864H461.1072c-16.1792 0-29.2864 13.1072-29.2864 29.2864v478.464c0 16.1792 13.1072 29.2864 29.2864 29.2864h87.3984c16.1792 0 29.2864-13.1072 29.2864-29.2864V318.464l72.5504 427.0592a29.29664 29.29664 0 0 0 33.792 23.9616l86.1696-14.6432c15.9232-2.6624 26.624-17.8176 23.9104-33.7408z m-289.4336 20.736a27.9552 27.9552 0 1 1 0.00512-55.91552 27.9552 27.9552 0 0 1-0.00512 55.91552z m216.6784-13.2608a28.5184 28.5184 0 0 1-32.8704-23.296 28.5184 28.5184 0 0 1 23.296-32.8704 28.5184 28.5184 0 0 1 32.8704 23.296 28.42624 28.42624 0 0 1-23.296 32.8704z" fill="#6C6CEA" p-id="5105"></path><path d="M721.1008 290.7136a29.29664 29.29664 0 0 0-33.792-23.9616l-86.1696 14.6432a29.184 29.184 0 0 0-23.3984 21.4528V268.8c0-16.1792-13.1072-29.2864-29.2864-29.2864H461.1072c-16.1792 0-29.2864 13.1072-29.2864 29.2864v478.464c0 16.1792 13.1072 29.2864 29.2864 29.2864h17.8688a446.73024 446.73024 0 0 0 98.816-49.9712V318.464l60.9792 358.912c52.8384-50.688 93.3376-114.1248 116.5824-185.344l-34.2528-201.3184z m-216.32 451.1232a27.9552 27.9552 0 1 1 0.00512-55.91552 27.9552 27.9552 0 0 1-0.00512 55.91552z" fill="#757BF2" p-id="5106"></path><path d="M372.6848 239.4624H285.2864c-16.1792 0-29.2864 13.1072-29.2864 29.2864v370.944a447.4112 447.4112 0 0 0 145.9712-42.9568V268.7488c0-16.128-13.1072-29.2864-29.2864-29.2864zM601.1904 281.3952a29.184 29.184 0 0 0-23.3984 21.4528V268.8c0-16.1792-13.1072-29.2864-29.2864-29.2864H461.1072c-16.1792 0-29.2864 13.1072-29.2864 29.2864v311.9104a452.736 452.736 0 0 0 145.9712-137.5232V318.464l16.64 97.9456c25.0368-43.52 43.008-91.648 52.3776-142.7968l-45.6192 7.7824z" fill="#8486F8" p-id="5107"></path><path d="M372.6848 239.4624H285.2864c-16.1792 0-29.2864 13.1072-29.2864 29.2864v182.8864a451.87584 451.87584 0 0 0 145.9712-93.8496V268.7488c0-16.128-13.1072-29.2864-29.2864-29.2864zM431.8208 268.7488v57.6c22.784-26.4704 42.496-55.6032 58.7264-86.8864h-29.44c-16.1792 0-29.2864 13.1584-29.2864 29.2864z" fill="#8D92F8" p-id="5108"></path></svg>