<svg class="icon" style="width: 1em;height: 1em;vertical-align: middle;fill: currentColor;overflow: hidden;" viewBox="0 0 1024 1024" version="1.1" xmlns="http://www.w3.org/2000/svg" p-id="3486"><path d="M509.1328 513.1264m-450.816 0a450.816 450.816 0 1 0 901.632 0 450.816 450.816 0 1 0-901.632 0Z" fill="#FFF1DC" p-id="3487"></path><path d="M308.5824 648.0896m-73.3696 0a73.3696 73.3696 0 1 0 146.7392 0 73.3696 73.3696 0 1 0-146.7392 0Z" fill="#FF7E3E" p-id="3488"></path><path d="M784.1792 426.1376c-13.2608-77.4144-79.3088-173.312-252.4672-173.312-173.2096 0-254.72 161.9968-254.72 161.9968-50.944 4.096-155.8528 63.6928-155.8528 141.9776 0 74.752 39.0656 92.3136 71.424 94.976-0.0512-1.2288-0.1024-2.4576-0.1024-3.6864 0-64.1536 52.0192-116.1216 116.1216-116.1216 64.1536 0 116.1216 52.0192 116.1216 116.1216 0 1.3824-0.0512 2.7136-0.1024 4.096h162.8672c-0.0512-1.3312-0.1024-2.7136-0.1024-4.096 0-64.1536 52.0192-116.1216 116.1216-116.1216s116.1216 52.0192 116.1216 116.1216c0 1.3824-0.0512 2.7136-0.1024 4.096h16.7424c33.6384 0 49.92-14.2848 49.92-54.016 0.1024-39.7312-5.1712-117.0432-101.9904-172.032z m-276.1728 17.5616h-174.592s49.664-124.16 174.592-142.4896v142.4896z m55.04 0V298.9056s139.3152 8.3968 171.9296 144.7936h-171.9296z" fill="#FC7032" p-id="3489"></path><path d="M703.5392 648.0896m-73.3696 0a73.3696 73.3696 0 1 0 146.7392 0 73.3696 73.3696 0 1 0-146.7392 0Z" fill="#FC7032" p-id="3490"></path><path d="M784.1792 426.1376c-13.2608-77.4144-79.3088-173.312-252.4672-173.312S276.992 414.8224 276.992 414.8224c-50.944 4.096-155.8528 63.6928-155.8528 141.9776 0 74.752 39.0656 92.3136 71.424 94.976-0.0512-1.2288-0.1024-2.4576-0.1024-3.6864 0-64.1536 52.0192-116.1216 116.1216-116.1216 64.1536 0 116.1216 52.0192 116.1216 116.1216 0 1.3824-0.0512 2.7136-0.1024 4.096h162.8672c-0.0512-1.3312-0.1024-2.7136-0.1024-4.096 0-64.1536 52.0192-116.1216 116.1216-116.1216 34.3552 0 65.2288 14.9504 86.528 38.656 18.6368-33.9968 32.6144-70.912 41.3696-109.824-12.6464-12.0832-28.1088-23.808-47.2064-34.6624z m-276.1728 17.5616h-174.592s49.664-124.16 174.592-142.4896v142.4896z m55.04 0V298.9056s139.3152 8.3968 171.9296 144.7936h-171.9296z" fill="#FF7E3E" p-id="3491"></path><path d="M765.8496 609.536c-12.9536-20.8384-35.9424-34.7648-62.3104-34.7648-40.4992 0-73.3696 32.8192-73.3696 73.3696 0 26.6752 14.2848 49.9712 35.6352 62.8224a425.76896 425.76896 0 0 0 100.0448-101.4272z" fill="#FF7E3E" p-id="3492"></path><path d="M563.0464 443.6992V298.9056s82.688 5.0688 135.5776 69.7344c7.3216-19.2 13.2608-39.0656 17.7664-59.4944-39.8336-32.9728-99.1744-56.3712-184.6272-56.3712-173.2096 0-254.72 161.9968-254.72 161.9968-50.944 4.096-155.8528 63.6928-155.8528 141.9776 0 18.0224 2.304 32.7168 6.1952 44.6976 21.504 9.9328 43.9808 18.176 67.2768 24.4224 10.3936-53.504 57.4464-93.952 113.9712-93.952 55.7056 0 102.2464 39.2192 113.5104 91.5968 99.8912-29.0304 184.4224-93.9008 238.848-179.8144h-97.9456z m-55.04 0h-174.592s49.664-124.16 174.592-142.4896v142.4896z" fill="#FF9552" p-id="3493"></path><path d="M236.4928 634.88c22.0672 3.584 44.6464 5.4784 67.7376 5.4784 26.0608 0 51.5072-2.5088 76.2368-7.0144-6.8096-33.4336-36.4032-58.624-71.8848-58.624-35.9936 0.0512-65.8432 25.9584-72.0896 60.16z" fill="#FF9552" p-id="3494"></path><path d="M333.4144 443.6992s49.664-124.16 174.592-142.4896v54.0672a423.296 423.296 0 0 0 68.8128-100.096c-14.1824-1.536-29.184-2.3552-45.1072-2.3552-173.2096 0-254.72 161.9968-254.72 161.9968-34.5088 2.7648-93.696 30.976-128.3584 73.216 16.2304 1.8944 32.6656 2.9696 49.408 2.9696 69.9904 0 135.936-17.152 194.048-47.3088H333.4144z" fill="#FFA56A" p-id="3495"></path></svg>