<svg class="icon" style="width: 1em;height: 1em;vertical-align: middle;fill: currentColor;overflow: hidden;" viewBox="0 0 1024 1024" version="1.1" xmlns="http://www.w3.org/2000/svg" p-id="3995"><path d="M509.1328 519.8336m-450.816 0a450.816 450.816 0 1 0 901.632 0 450.816 450.816 0 1 0-901.632 0Z" fill="#E9ECFF" p-id="3996"></path><path d="M741.2224 445.9008c-2.1504-118.1184-98.5088-213.248-217.1904-213.248-116.3264 0-211.3024 91.4432-217.0368 206.336-75.3664 13.6192-132.5568 79.5136-132.5568 158.8224 0 89.1392 72.2944 161.4336 161.4336 161.4336h350.5152c89.1392 0 161.4336-72.2944 161.4336-161.4336 0-69.9904-44.4416-129.4848-106.5984-151.9104z m-134.9632 86.1184l-127.5904 77.9776c-9.6768 5.888-22.0672-1.0752-22.0672-12.3904V442.9312c0-11.264 12.3392-18.2272 21.9648-12.4416l127.5904 76.7488c9.3696 5.5808 9.4208 19.0976 0.1024 24.7808z" fill="#6C6CEA" p-id="3997"></path><path d="M741.2224 445.9008c-2.1504-118.1184-98.5088-213.248-217.1904-213.248-116.3264 0-211.3024 91.4432-217.0368 206.336-75.3664 13.6192-132.5568 79.5136-132.5568 158.8224 0 89.1392 72.2944 161.4336 161.4336 161.4336h295.7824c85.4528-68.7104 145.3056-167.8848 163.0208-281.088a159.4368 159.4368 0 0 0-53.4528-32.256z m-134.9632 86.1184l-127.5904 77.9776c-9.6768 5.888-22.0672-1.0752-22.0672-12.3904V442.9312c0-11.264 12.3392-18.2272 21.9648-12.4416l127.5904 76.7488c9.3696 5.5808 9.4208 19.0976 0.1024 24.7808z" fill="#757BF2" p-id="3998"></path><path d="M535.9104 575.0272l-57.2416 34.9696c-9.6768 5.888-22.0672-1.0752-22.0672-12.3904V442.9312c0-11.264 12.3392-18.2272 21.9648-12.4416l119.4496 71.8336a448.6656 448.6656 0 0 0 76.544-208.9984c-39.0656-37.5808-92.0576-60.7232-150.528-60.7232-116.3264 0-211.3024 91.4432-217.0368 206.336-75.3664 13.6192-132.5568 79.5136-132.5568 158.8224 0 37.9392 13.1072 72.7552 35.0208 100.352 5.5296 0.2048 11.0592 0.3584 16.5888 0.3584 120.0128-0.0512 229.0688-46.9504 309.8624-123.4432z" fill="#8486F8" p-id="3999"></path><path d="M539.5968 233.216c-5.1712-0.3584-10.3424-0.6144-15.5648-0.6144-116.3264 0-211.3024 91.4432-217.0368 206.336-53.2992 9.6256-97.4848 45.4144-118.784 93.5936 164.5568-27.7504 298.8032-144.64 351.3856-299.3152z" fill="#8D92F8" p-id="4000"></path></svg>