<svg class="icon" style="width: 1em;height: 1em;vertical-align: middle;fill: currentColor;overflow: hidden;" viewBox="0 0 1024 1024" version="1.1" xmlns="http://www.w3.org/2000/svg" p-id="6456"><path d="M510.9248 520.96m-450.816 0a450.816 450.816 0 1 0 901.632 0 450.816 450.816 0 1 0-901.632 0Z" fill="#E9F4FF" p-id="6457"></path><path d="M489.4208 456.1408h259.3792c25.088 0 45.4144-20.3264 45.4144-45.4144V275.8144c0-25.088-20.3264-45.4144-45.4144-45.4144H489.4208c-25.088 0-45.4144 20.3264-45.4144 45.4144v134.912c0 25.088 20.3264 45.4144 45.4144 45.4144zM527.4112 581.7344H268.032c-25.088 0-45.4144 20.3264-45.4144 45.4144v134.912c0 25.088 20.3264 45.4144 45.4144 45.4144h259.3792c25.088 0 45.4144-20.3264 45.4144-45.4144v-134.912c0.0512-25.088-20.3264-45.4144-45.4144-45.4144zM818.5344 540.8768l-53.1456-54.9376a30.21312 30.21312 0 0 0-40.2432-2.816l-58.8288 45.7728c-13.1584 10.24-15.5136 29.2352-5.2736 42.3936 10.24 13.1584 29.2352 15.5136 42.3936 5.2736l6.5024-5.0688c-0.7168 5.7344-1.6896 11.7248-3.1744 17.8176-11.1104 45.6704-42.3424 78.2848-92.7744 96.9216a30.19264 30.19264 0 0 0-17.8688 38.8096 30.21312 30.21312 0 0 0 28.3136 19.7632c3.4816 0 7.0144-0.6144 10.4448-1.8944 94.2592-34.816 128.1536-105.1648 135.5264-164.9152l4.7616 4.9152c5.9392 6.144 13.824 9.216 21.7088 9.216 7.5776 0 15.104-2.816 20.992-8.4992 11.9296-11.6224 12.2368-30.72 0.6656-42.752zM288.0512 560.384c7.4752 0 14.9504-2.7648 20.7872-8.2944l54.1184-51.2512a30.2336 30.2336 0 0 0 1.1776-42.7008 30.18752 30.18752 0 0 0-42.7008-1.1776l-5.9904 5.6832c0.1536-5.7856 0.5632-11.8272 1.4336-18.0736 6.656-46.5408 34.56-82.0224 82.944-105.472a30.21824 30.21824 0 0 0 14.0288-40.3456 30.21824 30.21824 0 0 0-40.3456-14.0288c-90.4704 43.776-117.3504 117.0432-118.8864 177.3056l-5.2224-4.4544a30.1824 30.1824 0 1 0-39.1168 45.9776l58.2144 49.5616c5.632 4.864 12.5952 7.2704 19.5584 7.2704z" fill="#2595E8" p-id="6458"></path><path d="M770.56 235.9296a45.17888 45.17888 0 0 0-21.76-5.5296H489.4208c-25.088 0-45.4144 20.3264-45.4144 45.4144v134.912c0 25.088 20.3264 45.4144 45.4144 45.4144h259.3792c10.7008 0 20.5312-3.7376 28.3136-9.9328 6.4-29.696 9.8816-60.4672 9.8816-92.1088 0-40.96-5.7856-80.5888-16.4352-118.1696zM613.888 686.2336c-12.3904 4.5568-19.968 16.4352-19.712 28.928 23.1424-15.5136 44.7488-33.2288 64.4096-52.7872-12.6464 9.5232-27.4944 17.5104-44.6976 23.8592zM693.0432 623.7696c32.0512-40.448 57.088-86.6304 73.216-136.9088l-0.8704-0.9216a30.21312 30.21312 0 0 0-40.2432-2.816l-58.8288 45.7728c-13.1584 10.24-15.5136 29.2352-5.2736 42.3936 10.24 13.1584 29.2352 15.5136 42.3936 5.2736l6.5024-5.0688c-0.7168 5.7344-1.6896 11.7248-3.1744 17.8176-3.1232 12.4928-7.68 23.9616-13.7216 34.4576zM527.4112 581.7344H268.032c-25.088 0-45.4144 20.3264-45.4144 45.4144v134.912c0 2.3552 0.256 4.608 0.5632 6.8608a433.73568 433.73568 0 0 0 129.3824 19.6096c80.4352 0 155.6992-21.9136 220.2624-60.0576v-101.376c0.0512-25.0368-20.3264-45.3632-45.4144-45.3632z" fill="#3A9CED" p-id="6459"></path><path d="M666.9824 230.3488H489.4208c-25.088 0-45.4144 20.3264-45.4144 45.4144v134.912c0 25.088 20.3264 45.4144 45.4144 45.4144h94.976a431.40096 431.40096 0 0 0 82.5856-225.7408zM222.6176 633.9584c3.6864 0.1024 7.3728 0.256 11.1104 0.256 75.0592 0 145.664-19.0464 207.2576-52.5312H268.032c-25.088 0-45.4144 20.3264-45.4144 45.4144v6.8608z" fill="#59ADF8" p-id="6460"></path><path d="M373.504 284.7744C283.7504 328.192 256.5632 400.6912 254.6688 460.6464c22.1696-6.9632 43.52-15.7184 64-25.9584 9.0112-41.6768 36.2496-73.7792 81.152-95.5392a30.21824 30.21824 0 0 0 14.0288-40.3456 30.21824 30.21824 0 0 0-40.3456-14.0288zM206.7968 461.056a29.952 29.952 0 0 0-6.2976 12.6976 432.5376 432.5376 0 0 0 52.8896-12.6976l-4.0448-3.4304c-12.6464-10.8032-31.744-9.2672-42.5472 3.4304zM517.888 230.3488h-28.4672c-25.088 0-45.4144 20.3264-45.4144 45.4144v64.5632a435.7376 435.7376 0 0 0 73.8816-109.9776z" fill="#6BC2FC" p-id="6461"></path></svg>