<svg class="icon" style="width: 1em;height: 1em;vertical-align: middle;fill: currentColor;overflow: hidden;" viewBox="0 0 1024 1024" version="1.1" xmlns="http://www.w3.org/2000/svg" p-id="6268"><path d="M510.7712 509.952m-450.816 0a450.816 450.816 0 1 0 901.632 0 450.816 450.816 0 1 0-901.632 0Z" fill="#E9ECFF" p-id="6269"></path><path d="M510.7712 170.8544c-187.2896 0-339.0976 151.808-339.0976 339.0976s151.808 339.0976 339.0976 339.0976 339.0976-151.808 339.0976-339.0976-151.808-339.0976-339.0976-339.0976zM319.8464 399.4624l126.8224-102.0928c7.7824-6.2976 19.4048-0.7168 19.4048 9.3184v66.8672h106.2912c36.096 0 119.552 5.0176 133.7344 104.96 0.7168 5.0688-5.632 7.9872-9.0112 4.1472-18.9952-21.3504-41.4208-37.4784-85.5552-37.4784H466.0224v65.7408c0 10.0352-11.6224 15.5648-19.4048 9.3184L319.8464 418.048a11.91936 11.91936 0 0 1 0-18.5856z m381.9008 211.4048l-126.8224 102.0928c-7.7824 6.2976-19.4048 0.7168-19.4048-9.3184v-66.8672H449.2288c-36.096 0-119.552-5.0176-133.7344-104.96-0.7168-5.0688 5.632-7.9872 9.0112-4.1472 18.9952 21.3504 41.4208 37.4784 85.5552 37.4784h145.5104V499.456c0-10.0352 11.6224-15.5648 19.4048-9.3184l126.8224 102.0928c5.888 4.8128 5.888 13.824-0.0512 18.6368z" fill="#6C6CEA" p-id="6270"></path><path d="M797.7984 351.4368c0-7.68-0.2048-15.3088-0.5632-22.8864-60.16-94.7712-165.888-157.696-286.4128-157.696-187.2896 0-339.0976 151.808-339.0976 339.0976 0 124.4672 67.1232 233.216 167.0656 292.1984 2.7136 0.0512 5.4784 0.1024 8.2432 0.1024 248.9344 0 450.7648-201.8304 450.7648-450.816z m-477.952 48.0256l126.8224-102.0928c7.7824-6.2976 19.4048-0.7168 19.4048 9.3184v66.8672h106.3424c36.096 0 119.552 5.0176 133.7344 104.96 0.7168 5.0688-5.632 7.9872-9.0112 4.1472-18.9952-21.3504-41.4208-37.4784-85.5552-37.4784H466.0736v65.7408c0 10.0352-11.6224 15.5648-19.4048 9.3184L319.8464 418.048a11.91936 11.91936 0 0 1 0-18.5856z m235.6224 304.1792v-66.8672H449.1264c-36.096 0-119.552-5.0176-133.7344-104.96-0.7168-5.0688 5.632-7.9872 9.0112-4.1472 18.9952 21.3504 41.4208 37.4784 85.5552 37.4784h145.5104V499.456c0-10.0352 11.6224-15.5648 19.4048-9.3184l126.8224 102.0928c5.9392 4.7616 5.9392 13.824 0 18.5856l-126.8224 102.0928c-7.7824 6.2976-19.4048 0.768-19.4048-9.2672z" fill="#757BF2" p-id="6271"></path><path d="M171.6736 509.952c0 46.6432 9.4208 91.0336 26.4192 131.4816 8.448 0.4608 16.9472 0.7168 25.5488 0.7168 50.5344 0 99.1232-8.2944 144.4864-23.6544-24.6784-14.4896-46.1312-40.3968-52.6848-86.6816-0.7168-5.0688 5.632-7.9872 9.0112-4.1472 18.9952 21.3504 41.4208 37.4784 85.5552 37.4784h65.6896a452.6848 452.6848 0 0 0 80.2816-69.2224c1.024-3.4304 3.5328-5.9904 6.6048-7.3216 12.0832-13.7728 23.3472-28.2624 33.6896-43.4176H466.0736v65.7408c0 10.0352-11.6224 15.5648-19.4048 9.3184L319.8464 418.048a11.91936 11.91936 0 0 1 0-18.5856l126.8224-102.0928c7.7824-6.2976 19.4048-0.7168 19.4048 9.3184v66.8672h106.3424c14.6944 0 37.2736 0.8192 59.8016 8.6016a447.36512 447.36512 0 0 0 41.728-169.4208 337.73568 337.73568 0 0 0-163.1744-41.8304c-187.2384-0.0512-339.0976 151.808-339.0976 339.0464z" fill="#8486F8" p-id="6272"></path><path d="M173.2096 478.2592a447.3088 447.3088 0 0 0 156.2112-52.4288l-9.6256-7.7312a11.91936 11.91936 0 0 1 0-18.5856l126.8224-102.0928c7.7824-6.2976 19.4048-0.7168 19.4048 9.3184v1.9456a449.72032 449.72032 0 0 0 72.704-136.5504 338.5856 338.5856 0 0 0-28.0064-1.2288c-176.4864-0.0512-321.4848 134.9632-337.5104 307.3536z" fill="#8D92F8" p-id="6273"></path></svg>