<svg class="icon" style="width: 1em;height: 1em;vertical-align: middle;fill: currentColor;overflow: hidden;" viewBox="0 0 1024 1024" version="1.1" xmlns="http://www.w3.org/2000/svg" p-id="3237"><path d="M505.088 514.7136m-450.816 0a450.816 450.816 0 1 0 901.632 0 450.816 450.816 0 1 0-901.632 0Z" fill="#E9F4FF" p-id="3238"></path><path d="M357.12 782.8992H258.2016c-14.7968 0-26.7776-11.9808-26.7776-26.7776v-148.736c0-14.7968 11.9808-26.7776 26.7776-26.7776h98.8672c14.7968 0 26.7776 11.9808 26.7776 26.7776v148.736c0 14.7968-11.9808 26.7776-26.7264 26.7776z" fill="#3A9CED" p-id="3239"></path><path d="M552.0896 782.8992H453.2224c-14.7968 0-26.7776-11.9808-26.7776-26.7776V503.0912c0-14.7968 11.9808-26.7776 26.7776-26.7776h98.8672c14.7968 0 26.7776 11.9808 26.7776 26.7776v253.0304c0 14.7968-11.9808 26.7776-26.7776 26.7776zM747.1104 782.8992h-98.8672c-14.7968 0-26.7776-11.9808-26.7776-26.7776V355.8912c0-14.7968 11.9808-26.7776 26.7776-26.7776h98.8672c14.7968 0 26.7776 11.9808 26.7776 26.7776v400.2304c0 14.7968-11.9808 26.7776-26.7776 26.7776z" fill="#2595E8" p-id="3240"></path><path d="M404.9408 214.0672h167.168c4.2496 0 7.7312 3.4816 7.7312 7.7312v173.056c0 6.9632-8.448 10.3424-13.2608 5.376l-45.0048-46.592a7.6288 7.6288 0 0 0-9.6768-1.1264L279.6032 500.4288c-7.2192 4.608-15.4624-4.2496-10.3424-11.1104l164.608-221.2352c2.3552-3.1744 1.9456-7.6288-0.9728-10.2912l-33.1776-30.2592c-5.1712-4.7616-1.8432-13.4656 5.2224-13.4656z" fill="#59ADF8" p-id="3241"></path><path d="M552.0896 476.3136H453.2224c-14.7968 0-26.7776 11.9808-26.7776 26.7776v253.0304c0 14.7968 11.9808 26.7776 26.7776 26.7776h36.096a425.40032 425.40032 0 0 0 89.5488-41.472V503.0912c0-14.7968-11.9808-26.7776-26.7776-26.7776zM773.888 460.9024V355.8912c0-14.7968-11.9808-26.7776-26.7776-26.7776h-98.8672c-14.7968 0-26.7776 11.9808-26.7776 26.7776v355.4816c77.312-61.696 132.6592-149.6576 152.4224-250.4704z" fill="#3A9CED" p-id="3242"></path><path d="M653.1584 329.1136h-4.9664c-14.7968 0-26.7776 11.9808-26.7776 26.7776v60.1088a419.46624 419.46624 0 0 0 31.744-86.8864zM575.0784 489.5232c-4.6592-7.8848-13.1584-13.2096-22.9888-13.2096H453.2224c-14.7968 0-26.7776 11.9808-26.7776 26.7776v106.9568c58.2656-28.4672 109.0048-69.9392 148.6336-120.5248zM357.12 580.608H258.2016c-14.7968 0-26.7776 11.9808-26.7776 26.7776v45.4656c2.816 0.0512 5.632 0.2048 8.448 0.2048 50.5344 0 99.0208-8.8576 143.9744-25.0368v-20.6336c0-14.7968-11.9808-26.7776-26.7264-26.7776z" fill="#59ADF8" p-id="3243"></path><path d="M278.528 476.8256c120.6272-43.9296 215.6544-140.9536 257.1776-262.7584H404.9408c-7.0656 0-10.3936 8.6528-5.2224 13.4144l33.1776 30.2592c2.9184 2.6624 3.3792 7.1168 0.9728 10.2912L278.528 476.8256z" fill="#6BC2FC" p-id="3244"></path></svg>