<svg class="icon" style="width: 1em;height: 1em;vertical-align: middle;fill: currentColor;overflow: hidden;" viewBox="0 0 1024 1024" version="1.1" xmlns="http://www.w3.org/2000/svg" p-id="1236"><path d="M509.2864 517.7856m-450.816 0a450.816 450.816 0 1 0 901.632 0 450.816 450.816 0 1 0-901.632 0Z" fill="#E9ECFF" p-id="1237"></path><path d="M450.9184 232.704m-86.1696 0a86.1696 86.1696 0 1 0 172.3392 0 86.1696 86.1696 0 1 0-172.3392 0Z" fill="#8486F8" p-id="1238"></path><path d="M700.0064 444.416m-72.6016 0a72.6016 72.6016 0 1 0 145.2032 0 72.6016 72.6016 0 1 0-145.2032 0Z" fill="#757BF2" p-id="1239"></path><path d="M317.2352 807.8336c-19.6608-94.3104-33.792-317.0304-9.9328-382.6176-13.2608 27.8528-42.752 118.0672-56.3712 152.1152-7.9872 20.0192-40.9088 13.1584-44.1856-8.1408-7.3216-47.7696-10.5984-149.8112 93.6448-269.5168 16.6912-21.2992 48.7424-15.2576 67.8912 9.5744s45.056 49.3056 107.4176 37.9392c19.5072-4.2496 43.9808-16.6912 64.2048 38.656s49.664 142.5408 137.5744 160.9728c21.248 1.9456 71.68-4.864 119.1936-33.4336 8.6528-5.2224 19.712-4.1984 27.0336 2.7648l0.4096 0.3584c8.448 8.0384 9.1136 21.0944 1.792 30.1568-12.8 15.8208-36.4032 35.328-65.4336 52.5824-46.1312 27.392-49.664 43.264-29.7984 97.1776 19.8656 53.9136 60.2624 92.928 35.4816 114.176-24.832 21.2992-65.2288 5.6832-121.2928-114.176-2.1504 54.6304 16.4352 127.1296-17.4592 133.5296-33.9456 6.4-69.0176-34.56-70.0928-157.952-1.0752-28.7232 5.3248-79.7696 5.3248-79.7696s-62.7712-75.52-72.3456-130.8672c-11.2128 31.2832-37.9904 195.4816-43.4176 335.104-1.3312 33.7408-27.9552 60.9792-61.696 62.5664l-1.4848 0.0512c-31.744 1.5872-59.9552-20.1216-66.4576-51.2512z" fill="#6D6DF2" p-id="1240"></path><path d="M677.4784 546.8672c-87.9616-18.432-117.3504-105.6768-137.5744-160.9728-20.224-55.296-44.6976-42.9056-64.2048-38.656-62.4128 11.3664-88.2688-13.1072-107.4176-37.9392-19.1488-24.832-51.2512-30.8736-67.8912-9.5744-104.2432 119.6544-100.9152 221.696-93.6448 269.5168 3.2768 21.2992 36.1472 28.2112 44.1856 8.1408 13.6192-34.048 43.1104-124.2624 56.3712-152.1152-23.8592 65.536-9.728 288.3072 9.9328 382.6176 1.9456 9.4208 5.9392 17.92 11.3664 25.2416h0.9216c38.8096 0 76.4416-4.9152 112.384-14.1312 2.8672-6.9632 4.608-14.4896 4.9152-22.4256 5.4272-139.6224 32.2048-303.8208 43.4176-335.104 9.5744 55.296 72.3456 130.8672 72.3456 130.8672s-6.4 51.0464-5.3248 79.7696c0.3584 38.912 4.0448 69.632 10.0864 93.2352 28.0064-17.408 53.9136-37.7856 77.3632-60.7232 0-2.7136 0.0512-5.4272 0.1536-8.0384 0.8704 1.8432 1.6896 3.584 2.56 5.376a450.816 450.816 0 0 0 106.9056-168.448c-32.5632 11.7248-61.9008 14.7456-76.8512 13.3632z" fill="#757BF2" p-id="1241"></path><path d="M539.904 385.8944c-20.224-55.296-44.6976-42.9056-64.2048-38.656-62.4128 11.3664-88.2688-13.1072-107.4176-37.9392-19.1488-24.832-51.2512-30.8736-67.8912-9.5744-104.2432 119.6544-100.9152 221.696-93.6448 269.5168 3.2768 21.2992 36.1472 28.2112 44.1856 8.1408 13.6192-34.048 43.1104-124.2624 56.3712-152.1152-14.9504 41.0624-14.9504 143.872-8.0896 238.1312a448.90624 448.90624 0 0 0 166.8608-72.7552c8.8576-63.488 18.5344-113.3568 24.1664-129.1776 4.352 25.1904 19.712 54.528 35.2256 79.0528 20.0704-20.1216 38.2464-42.1376 54.272-65.792-18.7392-29.696-30.3104-62.7712-39.8336-88.832z" fill="#8486F8" p-id="1242"></path><path d="M450.9184 146.5344c-47.5648 0-86.1696 38.5536-86.1696 86.1696s38.5536 86.1696 86.1696 86.1696c4.6592 0 9.216-0.4608 13.6704-1.1776 26.624-38.7584 47.36-81.8688 60.8768-128.0512-14.8992-25.7536-42.6496-43.1104-74.5472-43.1104zM440.32 349.8496c-37.7344-1.8944-56.9856-21.0944-72.0384-40.5504-19.1488-24.832-51.2512-30.8736-67.8912-9.5744-67.2256 77.1584-89.7024 146.944-95.232 199.6288 29.696-7.6288 58.2144-18.176 85.248-31.3856 6.6048-18.0736 12.6464-33.6896 16.9472-42.7008-3.5328 9.6256-6.1952 22.784-8.1408 38.2976 54.3744-28.0576 102.4-66.9184 141.1072-113.7152z" fill="#8D92F8" p-id="1243"></path></svg>