<svg class="icon" style="width: 1em;height: 1em;vertical-align: middle;fill: currentColor;overflow: hidden;" viewBox="0 0 1024 1024" version="1.1" xmlns="http://www.w3.org/2000/svg" p-id="5327"><path d="M508.1088 513.1264m-450.816 0a450.816 450.816 0 1 0 901.632 0 450.816 450.816 0 1 0-901.632 0Z" fill="#E9F4FF" p-id="5328"></path><path d="M516.4544 546.6624l64.5632-67.2768a27.17184 27.17184 0 0 1 38.4-0.8192 27.21792 27.21792 0 0 1 0.8192 38.4l-27.0336 28.16h168.96c15.0016 0 27.1872 12.1856 27.1872 27.1872 0 15.0016-12.1856 27.1872-27.1872 27.1872h-171.008l22.8864 25.0368a27.1872 27.1872 0 0 1-1.6896 38.4c-5.2224 4.7616-11.776 7.1168-18.3296 7.1168-7.3728 0-14.6944-2.9696-20.0704-8.8576l-58.0608-63.488c-13.2608-14.5408-13.0048-36.9152 0.5632-51.0464z" fill="#2595E8" p-id="5329"></path><path d="M764.3136 637.7472c-0.7168 0-1.4336 0.1024-2.1504 0.1024h-102.7584c0.2048 2.6112 0.2048 5.2224 0.1024 7.8848-0.768 17.5104-8.3456 33.6384-21.248 45.4656a65.41312 65.41312 0 0 1-44.2368 17.2032c-18.3808 0-36.0448-7.7824-48.384-21.3504l-58.0608-63.488c-26.8288-29.3376-26.2656-74.8032 1.2288-103.4752l64.5632-67.2768c19.1488-19.968 48.0256-25.1392 72.2432-15.2064a157.97248 157.97248 0 0 0 26.88-88.2688c0-87.6544-71.3216-159.0272-159.0272-159.0272S334.3872 261.632 334.3872 349.3376c0 48.64 21.9648 92.2112 56.4736 121.3952a289.61792 289.61792 0 0 0-94.3616 58.3168c-53.4528 49.3568-86.2208 116.3264-92.3136 188.5696-0.1536 1.7408-0.2048 3.4816-0.1536 5.2224 0.1536 11.776 4.6592 23.2448 12.7488 31.9488a48.4864 48.4864 0 0 0 35.584 15.5648h0.0512c65.8944-0.1024 129.3824-0.5632 190.72-1.0752 17.0496-0.1536 33.7408-0.256 50.1248-0.3584 16.4352 0.1024 33.1776 0.256 50.3808 0.3584 61.3888 0.4608 124.8256 0.9728 190.7712 1.0752h0.0512c13.4656 0 26.4704-5.6832 35.584-15.616a48.55296 48.55296 0 0 0 12.7488-31.9488c0.0512-1.7408 0-3.5328-0.1536-5.2736a288.96256 288.96256 0 0 0-18.3296-79.7696z" fill="#2595E8" p-id="5330"></path><path d="M659.3536 637.8496c0.2048 2.6112 0.2048 5.2224 0.1024 7.8848-0.768 17.5104-8.3456 33.6384-21.248 45.4656a65.41312 65.41312 0 0 1-44.2368 17.2032c-18.3808 0-36.0448-7.7824-48.384-21.3504l-58.0608-63.488c-26.8288-29.3376-26.2656-74.8032 1.2288-103.4752l64.5632-67.2768c19.1488-19.968 48.0256-25.1392 72.2432-15.2064a157.97248 157.97248 0 0 0 26.88-88.2688c0-87.6544-71.3216-159.0272-159.0272-159.0272S334.3872 261.632 334.3872 349.3376c0 48.64 21.9648 92.2112 56.4736 121.3952a289.61792 289.61792 0 0 0-94.3616 58.3168c-53.4528 49.3568-86.2208 116.3264-92.3136 188.5696-0.1536 1.7408-0.2048 3.4816-0.1536 5.2224 0.1536 11.776 4.6592 23.2448 12.7488 31.9488a48.4864 48.4864 0 0 0 35.584 15.5648h0.0512c65.8944-0.1024 129.3824-0.5632 190.72-1.0752 17.0496-0.1536 33.7408-0.256 50.1248-0.3584 16.4352 0.1024 33.1776 0.256 50.3808 0.3584 1.3824 0 2.7648 0 4.1472 0.0512 54.6816-33.2288 101.3248-78.2848 136.6016-131.5328h-25.0368z" fill="#39A5E9" p-id="5331"></path><path d="M730.9824 545.1264h-137.7792l27.0336-28.16a27.12576 27.12576 0 0 0-0.8192-38.4 27.12576 27.12576 0 0 0-38.4 0.8192l-64.5632 67.2768c-13.568 14.1312-13.824 36.5568-0.6144 50.9952l58.0608 63.488a27.0592 27.0592 0 0 0 20.0704 8.8576c6.5536 0 13.1072-2.3552 18.3296-7.1168a27.1872 27.1872 0 0 0 1.6896-38.4l-22.8864-25.0368h115.968c9.1648-17.408 17.2032-35.5328 23.9104-54.3232z" fill="#39A5E9" p-id="5332"></path><path d="M469.3504 587.8272c-4.864-23.6544 1.5872-49.2032 19.3536-67.7376l64.5632-67.2768c11.4688-11.9808 26.4192-18.5344 41.7792-19.8144 22.6816-47.0016 36.9664-98.7648 41.2672-153.2928-25.856-52.8384-80.1792-89.344-142.8992-89.344-87.7056 0-159.0272 71.3216-159.0272 159.0272 0 48.64 21.9648 92.2112 56.4736 121.3952a289.61792 289.61792 0 0 0-94.3616 58.3168c-43.5712 40.2432-73.3696 92.16-86.2208 149.1456 97.536-1.3824 187.2896-34.8672 259.072-90.4192z" fill="#55B5F3" p-id="5333"></path><path d="M493.4144 190.3104c-87.7056 0-159.0272 71.3216-159.0272 159.0272 0 31.5904 9.3184 60.9792 25.2416 85.76 77.4144-59.648 134.0928-144.8448 157.3888-242.9952-7.68-1.1776-15.5648-1.792-23.6032-1.792z" fill="#6BC2FC" p-id="5334"></path></svg>