<svg class="icon" style="width: 1em;height: 1em;vertical-align: middle;fill: currentColor;overflow: hidden;" viewBox="0 0 1024 1024" version="1.1" xmlns="http://www.w3.org/2000/svg" p-id="4390"><path d="M504.32 513.1264m-450.816 0a450.816 450.816 0 1 0 901.632 0 450.816 450.816 0 1 0-901.632 0Z" fill="#FBE1FF" p-id="4391"></path><path d="M677.9904 227.8912H332.7488c-60.2624 0-109.312 49.0496-109.312 109.312v349.44c0 60.2624 49.0496 109.312 109.312 109.312h345.2416c60.2624 0 109.312-49.0496 109.312-109.312V337.2032c0.0512-60.2624-48.9984-109.312-109.312-109.312z m-293.3248 440.4736c-41.6256 0-75.52-33.8944-75.52-75.52 0-41.6256 33.8944-75.52 75.52-75.52s75.52 33.8944 75.52 75.52c0 41.6768-33.8944 75.52-75.52 75.52z m86.6304-279.552L395.776 462.1824c-5.2736 5.12-12.288 7.9872-19.6096 7.9872h-0.4608a27.94496 27.94496 0 0 1-19.8144-8.6528l-44.1344-45.9264a28.20608 28.20608 0 0 1 0.768-39.8336 28.20608 28.20608 0 0 1 39.8336 0.768l24.5248 25.4976 55.1936-53.6064a28.15488 28.15488 0 0 1 39.8336 0.5632 28.29312 28.29312 0 0 1-0.6144 39.8336z m215.3472 237.2096h-162.7648c-16.9472 0-30.72-13.7728-30.72-30.72s13.7728-30.72 30.72-30.72h162.7648c16.9472 0 30.72 13.7728 30.72 30.72s-13.7728 30.72-30.72 30.72z m0-184.064h-162.7648c-16.9472 0-30.72-13.7728-30.72-30.72s13.7728-30.72 30.72-30.72h162.7648c16.9472 0 30.72 13.7728 30.72 30.72s-13.7728 30.72-30.72 30.72z" fill="#BD50D3" p-id="4392"></path><path d="M384.1024 567.7568c-14.2336 0-25.8048 11.5712-25.8048 25.8048 0 14.2336 11.5712 25.8048 25.8048 25.8048 14.2336 0 25.8048-11.5712 25.8048-25.8048 0-14.2336-11.5712-25.8048-25.8048-25.8048z" fill="#BD50D3" p-id="4393"></path><path d="M384.1024 567.7568c-14.2336 0-25.8048 11.5712-25.8048 25.8048 0 5.0176 1.4848 9.728 3.9936 13.6704 15.8208-6.4512 31.232-13.7728 46.1312-21.9648-3.4304-10.1376-13.0048-17.5104-24.32-17.5104z" fill="#CA6EE0" p-id="4394"></path><path d="M757.8624 262.7584c-19.968-21.4016-48.3328-34.9184-79.872-34.9184H332.7488c-60.2624 0-109.312 49.0496-109.312 109.312v349.44c0 60.2624 49.0496 109.312 109.312 109.312h47.36c118.2208-16.9984 221.5424-79.872 291.5328-169.984h-147.7632c-16.9472 0-30.72-13.7728-30.72-30.72s13.7728-30.72 30.72-30.72h162.7648c7.9872 0 15.2576 3.072 20.736 8.0896 37.4784-65.7408 58.9312-141.7728 58.9312-222.8224-0.0512-29.696-2.9696-58.8288-8.448-86.9888z m-373.1968 405.6064c-41.6256 0-75.52-33.8944-75.52-75.52 0-41.6256 33.8944-75.52 75.52-75.52s75.52 33.8944 75.52 75.52c0 41.6768-33.8944 75.52-75.52 75.52z m86.6304-279.552L395.776 462.1824c-5.2736 5.12-12.288 7.9872-19.6096 7.9872h-0.4608a27.94496 27.94496 0 0 1-19.8144-8.6528l-44.1344-45.9264a28.20608 28.20608 0 0 1 0.768-39.8336 28.20608 28.20608 0 0 1 39.8336 0.768l24.5248 25.4976 55.1936-53.6064a28.15488 28.15488 0 0 1 39.8336 0.5632 28.29312 28.29312 0 0 1-0.6144 39.8336z m215.3472 53.1456h-162.7648c-16.9472 0-30.72-13.7728-30.72-30.72s13.7728-30.72 30.72-30.72h162.7648c16.9472 0 30.72 13.7728 30.72 30.72s-13.7728 30.72-30.72 30.72z" fill="#BF5CD6" p-id="4395"></path><path d="M523.8784 380.5184h76.6976c22.016-47.0528 36.1984-98.4576 40.7552-152.6784H332.7488c-60.2624 0-109.312 49.0496-109.312 109.312v302.1824a452.352 452.352 0 0 0 92.2112-16.0256c-4.1472-9.3184-6.5024-19.6608-6.5024-30.5152 0-41.6256 33.8944-75.52 75.52-75.52 29.184 0 54.4768 16.64 67.072 40.96a453.16608 453.16608 0 0 0 113.92-116.3264h-41.7792c-16.9472 0-30.72-13.7728-30.72-30.72s13.7728-30.6688 30.72-30.6688z m-52.5824 8.2944L395.776 462.1824c-5.2736 5.12-12.288 7.9872-19.6096 7.9872h-0.4608a27.94496 27.94496 0 0 1-19.8144-8.6528l-44.1344-45.9264a28.20608 28.20608 0 0 1 0.768-39.8336 28.20608 28.20608 0 0 1 39.8336 0.768l24.5248 25.4976 55.1936-53.6064a28.15488 28.15488 0 0 1 39.8336 0.5632 28.29312 28.29312 0 0 1-0.6144 39.8336z" fill="#CA6EE0" p-id="4396"></path><path d="M311.7568 415.5904a28.20608 28.20608 0 0 1 0.768-39.8336 28.20608 28.20608 0 0 1 39.8336 0.768l6.5536 6.8096c52.4288-41.6768 95.3856-94.72 125.0816-155.4944H332.7488c-60.2624 0-109.312 49.0496-109.312 109.312V457.216a451.1232 451.1232 0 0 0 88.6272-41.3184l-0.3072-0.3072z" fill="#D786EA" p-id="4397"></path></svg>