<svg class="icon" style="width: 1em;height: 1em;vertical-align: middle;fill: currentColor;overflow: hidden;" viewBox="0 0 1024 1024" version="1.1" xmlns="http://www.w3.org/2000/svg" p-id="5199"><path d="M513.2288 509.5936m-450.816 0a450.816 450.816 0 1 0 901.632 0 450.816 450.816 0 1 0-901.632 0Z" fill="#E9F4FF" p-id="5200"></path><path d="M433.7664 337.0496h161.1264c19.3024 0 35.0208-15.7184 35.0208-35.0208V240.7424c0-9.3696-3.6352-18.176-10.2912-24.7808-6.6048-6.6048-15.4112-10.24-24.7296-10.24h-4.9664-0.0512c-3.1744 0-6.1952-1.3312-8.2944-3.6864l-13.4144-14.8992a45.31712 45.31712 0 0 0-33.536-14.9504h-37.0688c-12.4928 0-24.576 5.2736-33.0752 14.4384l-14.3872 15.5136c-2.0992 2.2528-5.0688 3.584-8.1408 3.584h-8.192c-9.3184 0-18.1248 3.6352-24.7296 10.24a34.65216 34.65216 0 0 0-10.2912 24.7808v61.2864c0 19.3024 15.7184 35.0208 35.0208 35.0208z" fill="#55B5F3" p-id="5201"></path><path d="M700.6208 265.472h-29.0304v44.1856c0 36.096-29.2352 65.3312-65.3312 65.3312H422.4c-36.096 0-65.3312-29.2352-65.3312-65.3312v-44.1856h-29.0304c-38.8608 0-70.4512 31.5904-70.4512 70.4512v391.68c0 38.8608 31.5904 70.4512 70.4512 70.4512h372.5824c38.8608 0 70.4512-31.5904 70.4512-70.4512v-391.68c0-38.8096-31.5904-70.4512-70.4512-70.4512z m-319.232 179.712h145.3568c13.9776 0 25.2928 11.3152 25.2928 25.2928 0 13.9776-11.3152 25.2928-25.2928 25.2928H381.3888c-13.9776 0-25.2928-11.3152-25.2928-25.2928 0-13.9776 11.3152-25.2928 25.2928-25.2928z m258.0992 253.2352H381.3888c-13.9776 0-25.2928-11.3152-25.2928-25.2928 0-13.9776 11.3152-25.2928 25.2928-25.2928h258.0992c13.9776 0 25.2928 11.3152 25.2928 25.2928 0 13.9264-11.3152 25.2928-25.2928 25.2928z m0-95.744H381.3888c-13.9776 0-25.2928-11.3152-25.2928-25.2928 0-13.9776 11.3152-25.2928 25.2928-25.2928h258.0992c13.9776 0 25.2928 11.3152 25.2928 25.2928 0 13.9776-11.3152 25.2928-25.2928 25.2928z" fill="#2595E8" p-id="5202"></path><path d="M771.072 335.9232c0-38.8608-31.5904-70.4512-70.4512-70.4512h-29.0304v44.1856c0 36.096-29.2352 65.3312-65.3312 65.3312H422.4c-36.096 0-65.3312-29.2352-65.3312-65.3312v-44.1856h-29.0304c-38.8608 0-70.4512 31.5904-70.4512 70.4512v391.68c0 38.8608 31.5904 70.4512 70.4512 70.4512h119.7056c146.0224-30.1568 266.24-130.9696 323.328-265.0624V335.9232zM381.3888 445.184h145.3568c13.9776 0 25.2928 11.3152 25.2928 25.2928s-11.3152 25.2928-25.2928 25.2928H381.3888c-13.9776 0-25.2928-11.3152-25.2928-25.2928s11.3152-25.2928 25.2928-25.2928z m258.0992 253.2352H381.3888c-13.9776 0-25.2928-11.3152-25.2928-25.2928s11.3152-25.2928 25.2928-25.2928h258.0992c13.9776 0 25.2928 11.3152 25.2928 25.2928s-11.3152 25.2928-25.2928 25.2928z m0-95.744H381.3888c-13.9776 0-25.2928-11.3152-25.2928-25.2928 0-13.9776 11.3152-25.2928 25.2928-25.2928h258.0992c13.9776 0 25.2928 11.3152 25.2928 25.2928 0 13.9776-11.3152 25.2928-25.2928 25.2928z" fill="#39A5E9" p-id="5203"></path><path d="M671.5904 265.472v34.7648c2.7136-11.4176 4.9664-23.04 6.7584-34.7648h-6.7584zM428.6464 602.6752h-47.2576c-13.9776 0-25.2928-11.3152-25.2928-25.2928 0-13.9776 11.3152-25.2928 25.2928-25.2928h128.512c65.792-51.3536 116.9408-120.5248 146.2272-200.2944a65.0752 65.0752 0 0 1-49.8688 23.1936H422.4c-36.096 0-65.3312-29.2352-65.3312-65.3312v-44.1856h-29.0304c-38.8608 0-70.4512 31.5904-70.4512 70.4512v310.6816a447.4112 447.4112 0 0 0 171.0592-43.9296z m-47.2576-157.4912h145.3568c13.9776 0 25.2928 11.3152 25.2928 25.2928s-11.3152 25.2928-25.2928 25.2928H381.3888c-13.9776 0-25.2928-11.3152-25.2928-25.2928s11.3152-25.2928 25.2928-25.2928z" fill="#55B5F3" p-id="5204"></path><path d="M417.8944 374.784c-33.9456-2.304-60.8256-30.5152-60.8256-65.0752v-44.1856h-29.0304c-38.8608 0-70.4512 31.5904-70.4512 70.4512v130.2528A450.6112 450.6112 0 0 0 417.8944 374.784zM548.8128 174.4896c-4.5056-1.4848-9.3184-2.304-14.1312-2.304h-37.0688c-12.4928 0-24.576 5.2736-33.0752 14.4384l-14.3872 15.5136c-2.0992 2.2528-5.0688 3.584-8.1408 3.584h-8.192c-9.3184 0-18.1248 3.6352-24.7296 10.24a34.65216 34.65216 0 0 0-10.2912 24.7808v61.2864c0 19.3024 15.7184 35.0208 35.0208 35.0208h22.016a450.29376 450.29376 0 0 0 92.9792-162.56z" fill="#6BC2FC" p-id="5205"></path></svg>