<svg class="icon" style="width: 1em;height: 1em;vertical-align: middle;fill: currentColor;overflow: hidden;" viewBox="0 0 1024 1024" version="1.1" xmlns="http://www.w3.org/2000/svg" p-id="5575"><path d="M508.416 519.8336m-450.816 0a450.816 450.816 0 1 0 901.632 0 450.816 450.816 0 1 0-901.632 0Z" fill="#E9ECFF" p-id="5576"></path><path d="M753.5104 588.0832c-34.7136-86.3744-114.4832-146.9952-207.616-159.7952v-15.2576c43.264-16.0256 74.1376-57.7024 74.1376-106.4448 0-62.5664-50.8928-113.4592-113.4592-113.4592s-113.4592 50.8928-113.4592 113.4592c0 51.3024 34.2528 94.7712 81.1008 108.7488v12.6464c-93.9008 12.0832-174.2848 72.6016-209.4592 159.2832-43.2128 10.5472-75.4176 48.7424-75.4176 94.208 0 53.6064 44.5952 97.2288 99.3792 97.2288s99.3792-43.6224 99.3792-97.2288c0-35.6864-19.8656-66.9184-49.2544-83.8144 26.9824-51.0464 77.056-86.8864 135.3728-97.2288v90.3168c-36.5056 14.0288-62.5152 49.3568-62.5152 90.7264 0 53.6064 43.6224 97.2288 97.2288 97.2288s97.2288-43.6224 97.2288-97.2288c0-40.4992-24.9344-75.264-60.2112-89.856V500.8384c56.7808 10.752 105.6256 45.824 132.4544 95.488-30.6688 16.5888-51.5584 48.5376-51.5584 85.1456 0 53.6064 44.5952 97.2288 99.3792 97.2288s99.3792-43.6224 99.3792-97.2288c0-44.3392-30.5664-81.7152-72.0896-93.3888z" fill="#6C6CEA" p-id="5577"></path><path d="M775.2704 597.0944c-6.8096-3.7888-14.08-6.8096-21.76-8.96-34.7136-86.3744-114.4832-146.9952-207.616-159.7952v-15.2576c43.264-16.0256 74.1376-57.7024 74.1376-106.4448 0-62.5664-50.8928-113.4592-113.4592-113.4592s-113.4592 50.8928-113.4592 113.4592c0 51.3024 34.2528 94.7712 81.1008 108.7488v12.6464c-93.9008 12.0832-174.2848 72.6016-209.4592 159.2832-43.2128 10.5472-75.4176 48.7424-75.4176 94.208 0 53.6064 44.5952 97.2288 99.3792 97.2288s99.3792-43.6224 99.3792-97.2288c0-35.6864-19.8656-66.9184-49.2544-83.8144 26.9824-51.0464 77.056-86.8864 135.3728-97.2288v90.3168c-36.5056 14.0288-62.5152 49.3568-62.5152 90.7264 0 53.6064 43.6224 97.2288 97.2288 97.2288s97.2288-43.6224 97.2288-97.2288c0-40.4992-24.9344-75.264-60.2112-89.856V500.8384c56.7808 10.752 105.6256 45.824 132.4544 95.488-30.6688 16.5888-51.5584 48.5376-51.5584 85.1456 0 20.9408 6.8608 40.3456 18.432 56.2176a452.63872 452.63872 0 0 0 129.9968-140.5952z" fill="#757BF2" p-id="5578"></path><path d="M545.8944 428.288v-15.2576c43.264-16.0256 74.1376-57.7024 74.1376-106.4448 0-62.5664-50.8928-113.4592-113.4592-113.4592s-113.4592 50.8928-113.4592 113.4592c0 51.3024 34.2528 94.7712 81.1008 108.7488v12.6464c-93.9008 12.0832-174.2848 72.6016-209.4592 159.2832-34.048 8.2944-61.184 33.792-71.168 66.4576 22.784 3.5328 46.08 5.376 69.8368 5.376 40.3968 0 79.5648-5.376 116.8384-15.3088-8.3968-19.3536-23.04-35.5328-41.4208-46.08 26.9824-51.0464 77.056-86.8864 135.3728-97.2288v90.3168c-19.0976 7.3216-35.328 20.5312-46.4384 37.376a449.2288 449.2288 0 0 0 118.1184-68.608V500.8384c16.384 3.1232 32.1024 8.2944 46.848 15.2064 16.64-17.7664 31.8464-36.864 45.4144-57.1392-28.16-15.5136-59.3408-26.112-92.2624-30.6176z" fill="#8486F8" p-id="5579"></path><path d="M506.5728 193.1776c-62.5664 0-113.4592 50.8928-113.4592 113.4592 0 36.4544 17.3056 68.8128 44.0832 89.6 58.624-48.4864 104.7552-111.5136 132.864-183.6032-18.0736-12.288-39.936-19.456-63.488-19.456z" fill="#8D92F8" p-id="5580"></path></svg>