<svg class="icon" style="width: 1em;height: 1em;vertical-align: middle;fill: currentColor;overflow: hidden;" viewBox="0 0 1024 1024" version="1.1" xmlns="http://www.w3.org/2000/svg" p-id="5477"><path d="M508.1088 519.8336m-450.816 0a450.816 450.816 0 1 0 901.632 0 450.816 450.816 0 1 0-901.632 0Z" fill="#E9ECFF" p-id="5478"></path><path d="M702.8224 249.6512H317.1328c-58.5216 0-106.1888 47.616-106.1888 106.1888v318.6176c0 58.5216 47.616 106.1888 106.1888 106.1888h385.7408c58.5216 0 106.1888-47.616 106.1888-106.1888V355.7888c-0.0512-58.5216-47.6672-106.1376-106.24-106.1376z m-326.7072 112.64c23.6032 0 42.7008 19.1488 42.7008 42.7008s-19.1488 42.7008-42.7008 42.7008c-23.6032 0-42.7008-19.1488-42.7008-42.7008s19.0976-42.7008 42.7008-42.7008z m369.408 227.84a33.28 33.28 0 0 1-46.7456 5.376l-107.008-84.9408-117.9136 98.9696c-19.2512 16.128-47.7696 14.4384-64.9728-3.7888l-8.0896-8.5504-80.3328 56.9344c-5.8368 4.1472-12.544 6.144-19.2 6.144-10.4448 0-20.6848-4.864-27.1872-14.0288-10.6496-15.0016-7.1168-35.7888 7.8848-46.3872l93.8496-66.56c19.2-13.6192 45.824-10.9568 61.952 6.144l7.1168 7.5264 116.0704-97.3824c17.2032-14.3872 42.3936-14.7456 59.9552-0.8192l119.2448 94.6688c14.3872 11.3664 16.7936 32.3072 5.376 46.6944z" fill="#6C6CEA" p-id="5479"></path><path d="M317.1328 249.6512c-58.5216 0-106.1888 47.616-106.1888 106.1888v318.6176c0 58.5216 47.616 106.1888 106.1888 106.1888h201.8816a452.61312 452.61312 0 0 0 189.2352-179.8144 33.024 33.024 0 0 1-9.5232-5.2736l-107.008-84.9408-117.9136 98.9696c-19.2512 16.128-47.7696 14.4384-64.9728-3.7888l-8.0896-8.5504-80.3328 56.9344c-5.8368 4.1472-12.544 6.144-19.2 6.144-10.4448 0-20.6848-4.864-27.1872-14.0288-10.6496-15.0016-7.1168-35.7888 7.8848-46.3872l93.8496-66.56c19.2-13.6192 45.824-10.9568 61.952 6.144l7.1168 7.5264 116.0704-97.3824c17.2032-14.3872 42.3936-14.7456 59.9552-0.8192l115.9168 92.0064c19.6096-50.5344 30.3616-105.472 30.3616-162.9184 0-40.0896-5.2736-78.9504-15.104-115.968a105.1648 105.1648 0 0 0-49.2544-12.1856H317.1328z m58.9824 198.0928c-23.6032 0-42.7008-19.1488-42.7008-42.7008s19.1488-42.7008 42.7008-42.7008c23.6032 0 42.7008 19.1488 42.7008 42.7008s-19.0976 42.7008-42.7008 42.7008z" fill="#757BF2" p-id="5480"></path><path d="M289.536 658.1248a32.91136 32.91136 0 0 1-15.5136-11.9296c-10.6496-15.0016-7.1168-35.7888 7.8848-46.3872l93.8496-66.56c19.2-13.6192 45.824-10.9568 61.952 6.144l7.1168 7.5264 116.0704-97.3824a47.0016 47.0016 0 0 1 25.0368-10.7008 448.65024 448.65024 0 0 0 56.7808-189.184H317.1328c-58.5216 0-106.1888 47.616-106.1888 106.1888v312.32c26.88-1.0752 53.1456-4.5056 78.592-10.0352z m86.5792-295.8336c23.6032 0 42.7008 19.1488 42.7008 42.7008s-19.1488 42.7008-42.7008 42.7008c-23.6032 0-42.7008-19.1488-42.7008-42.7008s19.0976-42.7008 42.7008-42.7008zM329.984 647.2704a451.43552 451.43552 0 0 0 84.2752-36.7104c-1.8944-1.4848-3.7376-3.072-5.4272-4.864l-8.0896-8.5504-70.7584 50.1248z" fill="#8486F8" p-id="5481"></path><path d="M339.3536 426.7008a42.51648 42.51648 0 0 1-5.9392-21.6576c0-23.6032 19.1488-42.7008 42.7008-42.7008 10.2912 0 19.712 3.6352 27.0848 9.728a451.4816 451.4816 0 0 0 84.6336-122.368H317.1328c-58.5216 0-106.1888 47.616-106.1888 106.1888v133.7344a452.75136 452.75136 0 0 0 128.4096-62.9248z" fill="#8D92F8" p-id="5482"></path></svg>