<svg class="icon" style="width: 1em;height: 1em;vertical-align: middle;fill: currentColor;overflow: hidden;" viewBox="0 0 1024 1024" version="1.1" xmlns="http://www.w3.org/2000/svg" p-id="3470"><path d="M510.3616 509.7984m-450.816 0a450.816 450.816 0 1 0 901.632 0 450.816 450.816 0 1 0-901.632 0Z" fill="#E9F4FF" p-id="3471"></path><path d="M753.5104 330.1888h-80.1792V270.6944c0-26.4192-21.504-47.9232-47.9232-47.9232H395.264c-26.4192 0-47.9232 21.504-47.9232 47.9232v59.4944H267.1616c-32 0-57.9072 25.9072-57.9072 57.9072v69.4784h602.1632V388.096c0-31.9488-25.9072-57.9072-57.9072-57.9072z m-353.28-54.4768h220.2112V330.24H400.2304V275.712z" fill="#3A9CED" p-id="3472"></path><path d="M576.9216 566.6304H443.7504V503.9104h-234.496v214.4768c0 32 25.9072 57.9072 57.9072 57.9072h486.3488c32 0 57.9072-25.9072 57.9072-57.9072V503.9104h-234.496v62.72z" fill="#2595E8" p-id="3473"></path><path d="M811.4176 503.9104h-234.496v62.72H443.7504V503.9104h-234.496v214.4768c0 32 25.9072 57.9072 57.9072 57.9072h268.9024c126.9248-43.6224 228.1984-142.2848 275.3536-267.52v-4.864z" fill="#3A9CED" p-id="3474"></path><path d="M694.5792 330.1888h-21.248V270.6944c0-26.4192-21.504-47.9232-47.9232-47.9232H395.264c-26.4192 0-47.9232 21.504-47.9232 47.9232v59.4944H267.1616c-32 0-57.9072 25.9072-57.9072 57.9072v69.4784h419.5328a447.744 447.744 0 0 0 65.792-127.3856z m-74.1376 0H400.2304V275.712h220.2112v54.4768zM209.2544 503.9104v133.12c18.6368 2.3552 37.632 3.584 56.8832 3.584 91.392 0 176.384-27.2384 247.4496-73.9328H443.7504V503.9104h-234.496zM576.9216 503.9104v12.3904c4.2496-4.0448 8.3968-8.192 12.4928-12.3904h-12.4928z" fill="#59ADF8" p-id="3475"></path><path d="M489.216 330.1888H400.2304V275.712h130.6624c11.008-16.896 20.8896-34.56 29.5424-52.9408H395.264c-26.4192 0-47.9232 21.504-47.9232 47.9232v59.4944H267.1616c-32 0-57.9072 25.9072-57.9072 57.9072v69.4784h87.3472c75.008-25.1904 141.1072-69.632 192.6144-127.3856z" fill="#6BC2FC" p-id="3476"></path></svg>