<svg class="icon" style="width: 1em;height: 1em;vertical-align: middle;fill: currentColor;overflow: hidden;" viewBox="0 0 1024 1024" version="1.1" xmlns="http://www.w3.org/2000/svg" p-id="2239"><path d="M511.744 519.8336m-450.816 0a450.816 450.816 0 1 0 901.632 0 450.816 450.816 0 1 0-901.632 0Z" fill="#E9ECFF" p-id="2240"></path><path d="M809.216 358.2976c22.1696-22.5792 6.1952-60.672-25.4464-60.672H239.7696c-31.488 0-47.5136 37.7856-25.7024 60.416l267.6224 277.6064v149.8624H395.1104c-16.5888 0-30.0032 13.4656-30.0032 30.0032s13.4656 30.0032 30.0032 30.0032h233.2672c16.5888 0 30.0032-13.4656 30.0032-30.0032s-13.4656-30.0032-30.0032-30.0032h-86.6304v-154.9312l267.4688-272.2816z m-345.4464 161.8432c-4.9664 4.7104-11.3664 7.0656-17.7152 7.0656-6.8096 0-13.6192-2.6624-18.6368-7.9872L332.9536 419.84a25.7792 25.7792 0 0 1 0.9216-36.4032 25.7792 25.7792 0 0 1 36.4032 0.9216l94.464 99.3792a25.73312 25.73312 0 0 1-0.9728 36.4032z" fill="#6C6CEA" p-id="2241"></path><path d="M632.576 353.9968c0-19.2512-1.7408-38.0416-4.9152-56.3712H239.7696c-31.488 0-47.5136 37.7856-25.7024 60.416l264.3968 274.2272c92.5696-58.112 154.112-160.9728 154.112-278.272z m-186.5216 173.2608c-6.8096 0-13.6192-2.6624-18.6368-7.9872L332.9536 419.84a25.7792 25.7792 0 0 1 0.9216-36.4032 25.7792 25.7792 0 0 1 36.4032 0.9216l94.464 99.3792a25.7792 25.7792 0 0 1-18.688 43.52z" fill="#757BF2" p-id="2242"></path><path d="M410.112 501.0432L332.9536 419.84a25.7792 25.7792 0 0 1 0.9216-36.4032 25.7792 25.7792 0 0 1 36.4032 0.9216l78.592 82.688c44.6464-45.6192 76.0832-104.1408 88.2176-169.472H239.7696c-31.488 0-47.5136 37.7856-25.7024 60.416l160.1536 166.144c12.4928-6.912 24.4736-14.6432 35.8912-23.0912z" fill="#8486F8" p-id="2243"></path><path d="M408.5248 297.6256H239.7696c-31.488 0-47.5136 37.7856-25.7024 60.416l57.9072 60.0576c56.064-26.5728 103.3728-68.5568 136.5504-120.4736z" fill="#8D92F8" p-id="2244"></path></svg>