<svg class="icon" style="width: 1em;height: 1em;vertical-align: middle;fill: currentColor;overflow: hidden;" viewBox="0 0 1024 1024" version="1.1" xmlns="http://www.w3.org/2000/svg" p-id="2094"><path d="M504.0128 513.4336m-450.816 0a450.816 450.816 0 1 0 901.632 0 450.816 450.816 0 1 0-901.632 0Z" fill="#FBE1FF" p-id="2095"></path><path d="M804.9664 349.1328v-25.088c0-33.5872-27.2384-60.8256-60.8256-60.8256h-480.256c-33.5872 0-60.8256 27.2384-60.8256 60.8256v25.088h601.9072z" fill="#C65EDB" p-id="2096"></path><path d="M658.9952 529.6128h-33.536v27.8528h33.536c7.68 0 13.9264-6.2464 13.9264-13.9264 0-7.68-6.2464-13.9264-13.9264-13.9264z" fill="#BD50D3" p-id="2097"></path><path d="M203.0592 394.8032v308.0704c0 33.5872 27.2384 60.8256 60.8256 60.8256h480.256c33.5872 0 60.8256-27.2384 60.8256-60.8256V394.8032H203.0592z m242.9952 126.976l-55.6544 123.5456a22.77888 22.77888 0 0 1-20.736 13.4144h-0.1536a22.69696 22.69696 0 0 1-20.6848-13.6704l-53.76-123.4944c-4.4544-10.2912 0.2048-22.2208 10.496-26.6752 10.24-4.4544 22.2208 0.2048 26.6752 10.496l37.6832 86.5792 39.1168-86.8352c4.608-10.1888 16.5888-14.7456 26.8288-10.1376 10.24 4.5568 14.7968 16.5888 10.1888 26.7776z m80.384 123.648c0 11.2128-9.0624 20.2752-20.2752 20.2752s-20.2752-9.0624-20.2752-20.2752V509.3376c0-11.2128 9.0624-20.2752 20.2752-20.2752s20.2752 9.0624 20.2752 20.2752v136.0896z m132.5568-47.4112h-33.536v47.4112c0 11.2128-9.0624 20.2752-20.2752 20.2752s-20.2752-9.0624-20.2752-20.2752V509.3376c0-11.2128 9.0624-20.2752 20.2752-20.2752h53.8112c30.0544 0 54.4768 24.4224 54.4768 54.4768 0 30.0544-24.4224 54.4768-54.4768 54.4768z" fill="#BD50D3" p-id="2098"></path><path d="M804.9664 394.8032H203.0592v308.0704c0 33.5872 27.2384 60.8256 60.8256 60.8256h275.2c127.3344-50.4832 226.2016-157.2864 265.8816-289.6896V394.8032z m-358.912 126.976l-55.6544 123.5456a22.77888 22.77888 0 0 1-20.736 13.4144h-0.1536a22.69696 22.69696 0 0 1-20.6848-13.6704l-53.76-123.4944c-4.4544-10.2912 0.2048-22.2208 10.496-26.6752 10.24-4.4544 22.2208 0.2048 26.6752 10.496l37.6832 86.5792 39.1168-86.8352c4.608-10.1888 16.5888-14.7456 26.8288-10.1376 10.24 4.5568 14.7968 16.5888 10.1888 26.7776z m80.384 123.648c0 11.2128-9.0624 20.2752-20.2752 20.2752s-20.2752-9.0624-20.2752-20.2752V509.3376c0-11.2128 9.0624-20.2752 20.2752-20.2752s20.2752 9.0624 20.2752 20.2752v136.0896z m132.5568-47.4112h-33.536v47.4112c0 11.2128-9.0624 20.2752-20.2752 20.2752s-20.2752-9.0624-20.2752-20.2752V509.3376c0-11.2128 9.0624-20.2752 20.2752-20.2752h53.8112c30.0544 0 54.4768 24.4224 54.4768 54.4768 0 30.0544-24.4224 54.4768-54.4768 54.4768z" fill="#C65EDB" p-id="2099"></path><path d="M203.0592 632.7808c15.36 1.5872 30.9248 2.4064 46.7456 2.4064 31.0784 0 61.44-3.1232 90.7776-9.1648l-45.4656-104.448c-4.4544-10.2912 0.2048-22.2208 10.496-26.6752 10.24-4.4544 22.2208 0.2048 26.6752 10.496l37.6832 86.5792 39.1168-86.8352c4.608-10.1888 16.5888-14.7456 26.8288-10.1376 10.1888 4.608 14.7456 16.5888 10.1376 26.8288l-38.2464 84.8384c27.392-10.24 53.504-23.0912 78.0288-38.1952V509.3376c0-11.2128 9.0624-20.2752 20.2752-20.2752s20.2752 9.0624 20.2752 20.2752v30.9248a453.6064 453.6064 0 0 0 122.112-145.5104h-445.44v238.0288zM693.7088 263.168H263.8848c-33.5872 0-60.8256 27.2384-60.8256 60.8256v25.088h466.4832c10.752-27.392 18.8928-56.1664 24.1664-85.9136z" fill="#CA6EE0" p-id="2100"></path><path d="M203.0592 470.6816A447.70304 447.70304 0 0 0 393.984 394.752H203.0592v75.9296zM519.0144 263.168H263.8848c-33.5872 0-60.8256 27.2384-60.8256 60.8256v25.088h246.4256c26.5216-25.6 49.92-54.4256 69.5296-85.9136z" fill="#D786EA" p-id="2101"></path></svg>