<svg class="icon" style="width: 1em;height: 1em;vertical-align: middle;fill: currentColor;overflow: hidden;" viewBox="0 0 1024 1024" version="1.1" xmlns="http://www.w3.org/2000/svg" p-id="1460"><path d="M507.4432 510.8224m-450.816 0a450.816 450.816 0 1 0 901.632 0 450.816 450.816 0 1 0-901.632 0Z" fill="#FFF1DC" p-id="1461"></path><path d="M806.0928 382.208a50.10432 50.10432 0 0 0-49.2544 59.392l-129.5872 78.4896-93.4912-182.3232c20.9408-10.7008 35.328-32.4608 35.328-57.6 0-35.7376-28.9792-64.6656-64.6656-64.6656-35.7376 0-64.6656 28.9792-64.6656 64.6656 0 26.2144 15.616 48.6912 37.9904 58.88l-86.8352 181.0432L257.2288 439.808c0.3584-2.4576 0.6144-4.9664 0.6144-7.5264 0-27.6992-22.4256-50.1248-50.1248-50.1248s-50.1248 22.4256-50.1248 50.1248c0 24.4224 17.4592 44.7488 40.5504 49.2032l56.1664 279.6032c5.5296 27.4432 29.6448 47.2064 57.6512 47.2064h390.7072c28.0064 0 52.1216-19.7632 57.6512-47.2064l56.2176-279.7568c22.6816-4.8128 39.7312-24.9344 39.7312-49.0496-0.0512-27.648-22.528-50.0736-50.176-50.0736z m-184.6272 361.0624H392.2944c-15.5136 0-28.0576-12.544-28.0576-28.0576 0-15.5136 12.544-28.0576 28.0576-28.0576h229.1712c15.5136 0 28.0576 12.544 28.0576 28.0576 0 15.5136-12.544 28.0576-28.0576 28.0576z" fill="#FC7032" p-id="1462"></path><path d="M756.5312 441.7536l-129.28 78.336-93.4912-182.3232c20.9408-10.7008 35.328-32.4608 35.328-57.6 0-35.7376-28.9792-64.6656-64.6656-64.6656-35.7376 0-64.6656 28.9792-64.6656 64.6656 0 26.2144 15.616 48.6912 37.9904 58.88l-86.8352 181.0432L257.1776 439.808c0.3584-2.4576 0.6144-4.9664 0.6144-7.5264 0-27.6992-22.4256-50.1248-50.1248-50.1248-27.6992 0-50.1248 22.4256-50.1248 50.1248 0 24.4224 17.4592 44.7488 40.5504 49.2032l56.1664 279.6032c5.5296 27.4432 29.6448 47.2064 57.6512 47.2064h252.7744c115.8144-78.1312 191.9488-210.5344 191.9488-360.704 0.0512-1.9456-0.0512-3.8912-0.1024-5.8368z m-135.0656 301.5168H392.2944c-15.5136 0-28.0576-12.544-28.0576-28.0576 0-15.5136 12.544-28.0576 28.0576-28.0576h229.1712c15.5136 0 28.0576 12.544 28.0576 28.0576 0 15.5136-12.544 28.0576-28.0576 28.0576zM756.48 439.2448c-0.0512-3.9936-0.1024-7.9872-0.3072-11.9808-0.1536 1.6384-0.256 3.328-0.256 5.0176 0 2.4064 0.256 4.7104 0.5632 6.9632z" fill="#FF7E3E" p-id="1463"></path><path d="M377.344 691.5072c2.2016-1.3824 4.5568-2.4576 7.0656-3.2256 96.256-44.288 173.568-122.6752 216.4224-219.7504l-67.072-130.816c20.9408-10.7008 35.328-32.4608 35.328-57.6 0-35.7376-28.9792-64.6656-64.6656-64.6656-35.7376 0-64.6656 28.9792-64.6656 64.6656 0 26.2144 15.616 48.6912 37.9904 58.88l-86.8352 181.0432L257.1776 439.808c0.3584-2.4576 0.6144-4.9664 0.6144-7.5264 0-27.6992-22.4256-50.1248-50.1248-50.1248-27.6992 0-50.1248 22.4256-50.1248 50.1248 0 24.4224 17.4592 44.7488 40.5504 49.2032l49.1008 244.224c45.8752-4.5568 89.6-16.4352 130.1504-34.2016z" fill="#FF9552" p-id="1464"></path><path d="M521.216 217.8048c-5.376-1.4336-10.9568-2.304-16.7936-2.304-35.7376 0-64.6656 28.9792-64.6656 64.6656 0 26.2144 15.616 48.6912 37.9904 58.88l-12.5952 26.2656c27.136-44.544 46.3872-94.3616 56.064-147.5072zM257.1776 439.808c0.3584-2.4576 0.6144-4.9664 0.6144-7.5264 0-27.6992-22.4256-50.1248-50.1248-50.1248-27.6992 0-50.1248 22.4256-50.1248 50.1248 0 24.4224 17.4592 44.7488 40.5504 49.2032l15.2064 75.776a432.86016 432.86016 0 0 0 132.7616-64.1024L257.1776 439.808z" fill="#FFA56A" p-id="1465"></path></svg>