<svg class="icon" style="width: 1em;height: 1em;vertical-align: middle;fill: currentColor;overflow: hidden;" viewBox="0 0 1024 1024" version="1.1" xmlns="http://www.w3.org/2000/svg" p-id="2743"><path d="M512.768 512.8704m-450.816 0a450.816 450.816 0 1 0 901.632 0 450.816 450.816 0 1 0-901.632 0Z" fill="#FFE1E9" p-id="2744"></path><path d="M837.376 470.9376l-126.0032-218.2144a83.83488 83.83488 0 0 0-72.6016-41.9328H386.7648c-29.952 0-57.6512 15.9744-72.6016 41.9328L188.1088 470.9376a83.7632 83.7632 0 0 0 0 83.8656l126.0032 218.2144c15.0016 25.9584 42.6496 41.9328 72.6016 41.9328h252.0064c29.952 0 57.6512-15.9744 72.6016-41.9328l126.0032-218.2144c15.0016-25.9584 15.0016-57.9072 0.0512-83.8656z m-195.7376-72.4992h-93.0816v272.8448c0 19.8144-16.0256 35.84-35.84 35.84s-35.84-16.0256-35.84-35.84V398.4384H383.8464c-19.8144 0-35.84-16.0256-35.84-35.84s16.0256-35.84 35.84-35.84h257.8432c19.8144 0 35.84 16.0256 35.84 35.84s-16.0768 35.84-35.8912 35.84z" fill="#FF3369" p-id="2745"></path><path d="M638.72 210.7904H386.7648c-29.952 0-57.6512 15.9744-72.6016 41.9328L188.1088 470.9376a83.7632 83.7632 0 0 0 0 83.8656l126.0032 218.2144c15.0016 25.9584 42.6496 41.9328 72.6016 41.9328h8.8064c205.5168-34.304 362.24-212.8896 362.24-428.1856 0-20.7872-1.536-41.1648-4.352-61.184l-42.0864-72.8576a83.712 83.712 0 0 0-72.6016-41.9328z m2.9184 187.648h-93.0816v272.8448c0 19.8144-16.0256 35.84-35.84 35.84s-35.84-16.0256-35.84-35.84V398.4384H383.8464c-19.8144 0-35.84-16.0256-35.84-35.84s16.0256-35.84 35.84-35.84h257.8432c19.8144 0 35.84 16.0256 35.84 35.84s-16.0768 35.84-35.8912 35.84z" fill="#FF4D7C" p-id="2746"></path><path d="M476.928 570.88V398.4384H383.8464c-19.8144 0-35.84-16.0256-35.84-35.84s16.0256-35.84 35.84-35.84h244.8384a436.11136 436.11136 0 0 0 10.3424-94.208c0-7.3216-0.2048-14.5408-0.5632-21.76H386.7648c-29.952 0-57.6512 15.9744-72.6016 41.9328L188.1088 470.9376a83.7632 83.7632 0 0 0 0 83.8656l63.232 109.4656c84.8896-9.0112 162.4576-42.5984 225.5872-93.3888z" fill="#FF5F89" p-id="2747"></path><path d="M548.608 398.4384V497.664c23.296-30.208 42.752-63.488 57.5488-99.2256h-57.5488z" fill="#FF5F89" p-id="2748"></path><path d="M389.4784 398.4384h-5.6832c-19.8144 0-35.84-16.0256-35.84-35.84s16.0256-35.84 35.84-35.84h68.1984c24.5248-35.2256 44.032-74.1888 57.344-115.968H386.7648c-29.952 0-57.6512 15.9744-72.6016 41.9328L188.1088 470.9376a83.584 83.584 0 0 0-10.8544 34.4064c80.9984-15.4112 153.9584-53.248 212.224-106.9056z" fill="#FF7196" p-id="2749"></path></svg>