<svg class="icon" style="width: 1em;height: 1em;vertical-align: middle;fill: currentColor;overflow: hidden;" viewBox="0 0 1024 1024" version="1.1" xmlns="http://www.w3.org/2000/svg" p-id="5262"><path d="M511.744 513.1264m-450.816 0a450.816 450.816 0 1 0 901.632 0 450.816 450.816 0 1 0-901.632 0Z" fill="#E9ECFF" p-id="5263"></path><path d="M779.2128 623.0528h-0.256v-67.6864c0-82.6368-13.4656-122.2144-26.88-141.2096a74.1376 74.1376 0 0 0 12.4928-41.2672c0-41.1648-33.4848-74.6496-74.6496-74.6496s-74.6496 33.4848-74.6496 74.6496 33.4848 74.6496 74.6496 74.6496c11.2128 0 21.8112-2.56 31.3856-7.0144 0.8704 1.4848 1.792 3.2768 2.816 5.5296 6.7072 15.1552 14.7456 46.4384 14.7456 109.312v67.6864H217.6512a20.0192 20.0192 0 0 0-20.0192 20.0192v81.8688c0 26.4192 21.504 47.9744 47.9744 47.9744H779.264c26.4704 0 47.9744-21.504 47.9744-47.9744v-53.9136c-0.1024-26.4704-21.6064-47.9744-48.0256-47.9744z" fill="#6C6CEA" p-id="5264"></path><path d="M248.1152 592.0768l411.7504 0.0512a20.1216 20.1216 0 0 0 20.0704-20.0704v-47.616c0-16.4864-9.0624-31.5392-23.7056-39.2192l-111.6672-58.624c17.5104-20.8896 27.2384-47.2064 27.2384-75.1616V279.6544c0-63.6928-50.688-117.2992-112.9984-119.5008-32.1536-1.2288-62.5664 10.496-85.6576 32.8192s-35.84 52.2752-35.84 84.3776v74.1376c0 27.7504 9.5744 53.9648 26.9312 74.752L251.8016 485.2736a44.26752 44.26752 0 0 0-23.7056 39.2192v47.5648a20.0192 20.0192 0 0 0 20.0192 20.0192z" fill="#757BF2" p-id="5265"></path><path d="M689.8688 447.5904c11.2128 0 21.8624-2.56 31.3856-7.0144 0.8704 1.4848 1.792 3.2768 2.816 5.5296 6.7072 15.1552 14.7456 46.4384 14.7456 109.312v43.7248c15.4624-24.6784 28.6208-50.9952 39.168-78.592-3.2256-59.2896-14.592-90.2656-25.9584-106.3936a74.1376 74.1376 0 0 0 12.4928-41.2672c0-41.1648-33.4848-74.6496-74.6496-74.6496s-74.6496 33.4848-74.6496 74.6496 33.4848 74.7008 74.6496 74.7008zM722.7392 623.0528H217.6512a20.0704 20.0704 0 0 0-20.0704 20.0704v81.8688c0 26.4192 21.504 47.9744 47.9744 47.9744h292.096c74.3424-32.6656 138.1888-84.7872 185.088-149.9136z" fill="#757BF2" p-id="5266"></path><path d="M571.8016 351.4368V279.6544c0-63.6928-50.688-117.2992-112.9984-119.5008-32.1536-1.2288-62.5664 10.496-85.6576 32.8192s-35.84 52.2752-35.84 84.3776v74.1376c0 27.7504 9.5744 53.9648 26.9312 74.752L251.8016 485.2736a44.26752 44.26752 0 0 0-23.7056 39.2192v47.5648a20.0192 20.0192 0 0 0 20.0192 20.0192h207.5136a452.06528 452.06528 0 0 0 147.6608-134.656l-58.7264-30.8224c17.5104-20.8384 27.2384-47.2064 27.2384-75.1616zM233.3184 650.6496c54.6816 0 107.1104-9.728 155.648-27.5968H217.6512a20.0704 20.0704 0 0 0-20.0704 20.0704v6.144c11.8272 0.9216 23.7056 1.3824 35.7376 1.3824zM615.2192 372.9408c0 16.0768 5.12 30.8736 13.7728 43.1104a447.2832 447.2832 0 0 0 43.8784-115.712c-32.9728 7.68-57.6512 37.2736-57.6512 72.6016z" fill="#8486F8" p-id="5267"></path><path d="M541.5936 200.0896c-20.6336-23.4496-50.1248-38.7584-82.7904-39.936-32.1536-1.2288-62.5664 10.496-85.6576 32.8192s-35.84 52.2752-35.84 84.3776v74.1376c0 25.7024 8.3456 50.0736 23.3472 70.0928 81.9712-51.9168 146.0736-129.536 180.9408-221.4912z" fill="#8D92F8" p-id="5268"></path></svg>