<svg class="icon" style="width: 1em;height: 1em;vertical-align: middle;fill: currentColor;overflow: hidden;" viewBox="0 0 1024 1024" version="1.1" xmlns="http://www.w3.org/2000/svg" p-id="4108"><path d="M509.184 513.1264m-450.816 0a450.816 450.816 0 1 0 901.632 0 450.816 450.816 0 1 0-901.632 0Z" fill="#FFE3DB" p-id="4109"></path><path d="M446.976 449.2288c70.2464-66.0992 79.872-178.3808 77.056-253.8496-5.12-0.256-10.2912-0.4096-15.5136-0.4096-174.2848 0-315.5968 141.312-315.5968 315.5968 0 7.3728 0.3584 14.6944 0.8704 21.9648 70.0416 4.9152 173.7728-8.5504 253.184-83.3024z" fill="#FF5C64" p-id="4110"></path><path d="M531.1488 543.9488c76.3392-92.9792 195.0208-111.4624 283.5968-110.0288-28.3648-113.6128-118.2208-202.752-232.2432-230.144 1.8432 86.016-12.4928 209.2544-95.7952 287.6416-82.5856 77.7216-185.856 99.5328-266.4448 99.5328-5.7856 0-11.4688-0.1536-16.9984-0.3584 29.0816 111.36 117.504 198.656 229.376 226.304 1.9968-71.0144 20.3264-177.7152 98.5088-272.9472z" fill="#F23D4F" p-id="4111"></path><path d="M575.9488 580.7104c-69.888 85.1456-84.2752 183.2448-85.248 244.9408 5.9392 0.3072 11.8784 0.512 17.8688 0.512 174.2848 0 315.5968-141.312 315.5968-315.5968 0-6.0928-0.2048-12.0832-0.5632-18.0736-77.312-2.6112-183.7568 10.3936-247.6544 88.2176z" fill="#F23D4F" p-id="4112"></path><path d="M582.5024 203.776c1.8432 86.016-12.544 209.2544-95.7952 287.6416-82.5856 77.7216-185.856 99.5328-266.4448 99.5328-5.7856 0-11.4688-0.1536-16.9984-0.3584 29.0816 111.36 117.504 198.656 229.376 226.304 1.9968-71.0656 20.3264-177.7664 98.56-272.9984C588.8 473.7024 670.6688 446.0032 745.4208 437.248c1.4848-14.9504 2.2528-30.1056 2.2528-45.4144 0-34.048-3.7888-67.2256-10.9568-99.1232-41.1136-43.1104-94.3104-74.5472-154.2144-88.9344z" fill="#FC4956" p-id="4113"></path><path d="M735.1808 497.5616c-57.9584 9.2672-117.6576 32.4608-159.2832 83.1488C515.6352 654.1824 496.64 737.28 491.9808 798.3616c120.5248-57.9584 211.3024-167.936 243.2-300.8z" fill="#FC4956" p-id="4114"></path><path d="M624.384 231.7312c0-4.9664-0.1024-9.8816-0.256-14.7968a318.85312 318.85312 0 0 0-41.5744-13.1072c1.8432 86.016-12.544 209.2544-95.7952 287.6416-82.5856 77.7216-185.856 99.5328-266.4448 99.5328-5.7856 0-11.4688-0.1536-16.9984-0.3584a312.832 312.832 0 0 0 37.5296 86.9376c216.9856-32.4608 383.5392-219.6992 383.5392-445.8496z" fill="#FF5C64" p-id="4115"></path><path d="M193.1264 503.04C338.432 458.24 452.4032 342.016 493.9776 195.328c-165.0176 7.5264-296.9088 141.7728-300.8512 307.712z" fill="#FF716E" p-id="4116"></path></svg>