<svg class="icon" style="width: 1em;height: 1em;vertical-align: middle;fill: currentColor;overflow: hidden;" viewBox="0 0 1024 1024" version="1.1" xmlns="http://www.w3.org/2000/svg" p-id="2012"><path d="M514.3552 514.7136m-450.816 0a450.816 450.816 0 1 0 901.632 0 450.816 450.816 0 1 0-901.632 0Z" fill="#FFF1DC" p-id="2013"></path><path d="M636.6208 358.0928c118.5792-151.1424-18.9952-160.2048-50.688-148.5312-40.7552-38.0928-102.2976-36.096-143.0016 2.7136-191.8976-26.3168-63.3856 145.8176-63.3856 145.8176-180.7872 108.8512-172.3904 254.4128-164.7616 327.68 9.4208 90.3168 98.8672 94.8224 98.8672 94.8224h419.328c50.8928 0 73.3184-52.2752 80.128-93.0304 25.8048-213.1456-82.3808-262.5024-176.4864-329.472z m11.4688 257.1776c12.2368 0 22.1696 12.6976 22.1696 24.9344s-9.9328 24.4736-22.1696 24.4736h-110.2336v43.008c0 12.2368-11.3664 22.1696-23.6032 22.1696s-23.4496-9.9328-23.4496-22.1696v-43.008H380.3648c-12.2368 0-22.1696-13.312-22.1696-25.5488s9.9328-23.9104 22.1696-23.9104h110.3872v-40.0384H380.3648c-12.2368 0-22.0672-13.056-22.0672-25.2928 0-12.2368 9.8304-24.1664 22.0672-24.1664h92.3136l-65.536-59.0336a22.12864 22.12864 0 0 1-1.6384-31.2832 22.12864 22.12864 0 0 1 31.2832-1.6384l77.7216 69.9904 79.2576-70.144c9.1648-8.0896 23.1936-7.2704 31.2832 1.8944s7.2704 23.1936-1.8944 31.2832l-66.56 58.88h91.4944c12.2368 0 22.1696 11.8784 22.1696 24.1152s-9.9328 25.344-22.1696 25.344h-110.2336v40.0384h110.2336z" fill="#FC7032" p-id="2014"></path><path d="M636.6208 358.0928c118.5792-151.1424-18.9952-160.2048-50.688-148.5312-40.7552-38.0928-102.2976-36.096-143.0016 2.7648-191.8976-26.3168-63.3856 145.8176-63.3856 145.8176-180.7872 108.8512-172.3904 254.4128-164.7616 327.68 9.4208 90.3168 98.8672 94.8224 98.8672 94.8224h233.1648c116.1216-57.344 204.032-163.2256 237.1072-291.2256-35.2768-60.5184-93.5936-93.0816-147.3024-131.328z m11.4688 257.1776c12.2368 0 22.1696 12.6976 22.1696 24.9344s-9.9328 24.4736-22.1696 24.4736h-110.2336v43.008c0 12.2368-11.3664 22.1696-23.6032 22.1696s-23.4496-9.9328-23.4496-22.1696v-43.008H380.3648c-12.2368 0-22.1696-13.312-22.1696-25.5488s9.9328-23.9104 22.1696-23.9104h110.3872v-40.0384H380.3648c-12.2368 0-22.0672-13.056-22.0672-25.2928 0-12.2368 9.8304-24.1664 22.0672-24.1664h92.3136l-65.536-59.0336a22.12864 22.12864 0 0 1-1.6384-31.2832 22.12864 22.12864 0 0 1 31.2832-1.6384l77.7216 69.9904 79.2576-70.144c9.1648-8.0896 23.1936-7.2704 31.2832 1.8944s7.2704 23.1936-1.8944 31.2832l-66.56 58.88h91.4944c12.2368 0 22.1696 11.8784 22.1696 24.1152s-9.9328 25.344-22.1696 25.344h-110.2336v40.0384h110.2336z" fill="#FF7E3E" p-id="2015"></path><path d="M662.6816 320.3584a453.12 453.12 0 0 0 11.8784-90.0096c-20.8384-27.2384-71.2192-27.1872-88.832-20.6848-40.7552-38.0928-102.2976-36.096-143.0016 2.7648-191.8976-26.3168-63.3856 145.8176-63.3856 145.8176-166.2976 100.096-172.4928 231.2192-166.5024 308.6336 3.6864 0.1024 7.424 0.1536 11.1616 0.1536 47.3088 0 92.928-5.5808 135.7824-19.0976-1.1264-2.6624-1.536-5.376-1.536-8.448 0-12.2368 9.728-24.1152 21.9648-24.1152h53.4016c20.4288-10.752 38.6048-17.8688 56.9856-31.488v-8.5504H380.16c-12.2368 0-22.0672-13.056-22.0672-25.2928 0-12.2368 9.8304-24.1664 22.0672-24.1664h92.3136l-65.536-59.0336a22.12864 22.12864 0 0 1-1.6384-31.2832 22.12864 22.12864 0 0 1 31.2832-1.6384l77.7216 69.9904 79.2576-70.144c7.5264-6.656 18.2784-7.168 26.4192-2.0992 11.264-20.6336 20.9408-42.2912 28.928-64.768-4.1984-2.9184-8.3968-5.8368-12.544-8.7552 10.8544-13.7216 19.5072-26.3168 26.3168-37.7856z" fill="#FF9552" p-id="2016"></path><path d="M248.4224 485.9392c141.1584-45.2096 252.0064-158.0544 294.4-300.4416-34.1504-9.1648-71.9872 0.1024-99.9936 26.8288-191.8976-26.3168-63.3856 145.8176-63.3856 145.8176-65.536 39.4752-106.1376 83.8144-131.0208 127.7952z" fill="#FFA56A" p-id="2017"></path></svg>