<svg class="icon" style="width: 1em;height: 1em;vertical-align: middle;fill: currentColor;overflow: hidden;" viewBox="0 0 1024 1024" version="1.1" xmlns="http://www.w3.org/2000/svg" p-id="5836"><path d="M507.904 516.4544m-450.816 0a450.816 450.816 0 1 0 901.632 0 450.816 450.816 0 1 0-901.632 0Z" fill="#FFE1E9" p-id="5837"></path><path d="M711.2704 261.3248h-10.24v58.368c0 38.144-30.9248 69.0176-69.0176 69.0176-38.144 0-69.0176-30.9248-69.0176-69.0176v-58.368H442.88v58.368c0 38.144-30.9248 69.0176-69.0176 69.0176s-69.0176-30.9248-69.0176-69.0176V261.7856c-44.288 4.5568-78.848 41.9328-78.848 87.4496v353.6896c0 48.5376 39.3728 87.9104 87.9104 87.9104h397.3632c48.5376 0 87.9104-39.3728 87.9104-87.9104V349.2352c0-48.5888-39.3216-87.9104-87.9104-87.9104zM589.312 674.816H348.9792c-17.7664 0-32.2048-14.4384-32.2048-32.2048s14.4384-32.2048 32.2048-32.2048h240.3328c17.7664 0 32.2048 14.4384 32.2048 32.2048s-14.3872 32.2048-32.2048 32.2048z m82.8416-154.5216H348.9792c-17.7664 0-32.2048-14.4384-32.2048-32.2048s14.4384-32.2048 32.2048-32.2048h323.1744c17.7664 0 32.2048 14.4384 32.2048 32.2048 0 17.8176-14.3872 32.2048-32.2048 32.2048z" fill="#FF3369" p-id="5838"></path><path d="M373.8624 351.8464c-17.7664 0-32.2048-14.4384-32.2048-32.2048V240.5376c0-17.7664 14.4384-32.2048 32.2048-32.2048s32.2048 14.4384 32.2048 32.2048v79.104c0 17.8176-14.3872 32.2048-32.2048 32.2048z" fill="#FF7196" p-id="5839"></path><path d="M632.0128 351.8464c-17.7664 0-32.2048-14.4384-32.2048-32.2048V240.5376c0-17.7664 14.4384-32.2048 32.2048-32.2048s32.2048 14.4384 32.2048 32.2048v79.104c0 17.8176-14.4384 32.2048-32.2048 32.2048z" fill="#FF5F89" p-id="5840"></path><path d="M799.1808 349.2352c0-48.5376-39.3728-87.9104-87.9104-87.9104h-10.24v58.368c0 38.144-30.9248 69.0176-69.0176 69.0176s-69.0176-30.9248-69.0176-69.0176v-58.368H442.88v58.368c0 38.144-30.9248 69.0176-69.0176 69.0176s-69.0176-30.9248-69.0176-69.0176V261.7856c-44.288 4.5568-78.848 41.9328-78.848 87.4496v353.6896c0 48.5376 39.3728 87.9104 87.9104 87.9104h178.4832c158.1568-50.5856 278.272-186.1632 306.7904-352.9728V349.2352zM589.312 674.816H348.9792c-17.7664 0-32.2048-14.4384-32.2048-32.2048s14.4384-32.2048 32.2048-32.2048h240.3328c17.7664 0 32.2048 14.4384 32.2048 32.2048s-14.3872 32.2048-32.2048 32.2048z m82.8416-154.5216H348.9792c-17.7664 0-32.2048-14.4384-32.2048-32.2048s14.4384-32.2048 32.2048-32.2048h323.1744c17.7664 0 32.2048 14.4384 32.2048 32.2048 0 17.8176-14.3872 32.2048-32.2048 32.2048z" fill="#FF4D7C" p-id="5841"></path><path d="M225.9968 652.032c1.8432 0 3.6864 0.0512 5.5296 0.0512 29.184 0 57.6512-2.816 85.2992-8.0896 0-0.4608-0.0512-0.9216-0.0512-1.4336 0-17.7664 14.4384-32.2048 32.2048-32.2048h72.1408a451.97824 451.97824 0 0 0 128.9216-90.0608H348.9792c-17.7664 0-32.2048-14.4384-32.2048-32.2048s14.4384-32.2048 32.2048-32.2048h254.6176a448.1536 448.1536 0 0 0 38.4512-68.0448c-3.2768 0.4608-6.6048 0.8192-10.0352 0.8192-38.144 0-69.0176-30.9248-69.0176-69.0176v-58.368H442.88v58.368c0 38.144-30.9248 69.0176-69.0176 69.0176s-69.0176-30.9248-69.0176-69.0176v-57.856c-44.288 4.5568-78.848 41.9328-78.848 87.4496v302.7968z" fill="#FF5F89" p-id="5842"></path><path d="M511.9488 261.3248H442.88v58.368c0 38.144-30.9248 69.0176-69.0176 69.0176s-69.0176-30.9248-69.0176-69.0176V261.7856c-44.288 4.5568-78.848 41.9328-78.848 87.4496v130.304c122.7776-30.1568 225.792-110.592 285.952-218.2144z" fill="#FF7196" p-id="5843"></path></svg>