<svg class="icon" style="width: 1em;height: 1em;vertical-align: middle;fill: currentColor;overflow: hidden;" viewBox="0 0 1024 1024" version="1.1" xmlns="http://www.w3.org/2000/svg" p-id="2207"><path d="M507.392 519.8336m-450.816 0a450.816 450.816 0 1 0 901.632 0 450.816 450.816 0 1 0-901.632 0Z" fill="#E3FFF3" p-id="2208"></path><path d="M662.3744 325.888H364.544c-31.3856 0-56.8832-25.4464-56.8832-56.8832V228.864a34.816 34.816 0 0 1 34.816-34.816h341.9648a34.816 34.816 0 0 1 34.816 34.816v40.1408c-0.0512 31.4368-25.4976 56.8832-56.8832 56.8832z" fill="#1DCE75" p-id="2209"></path><path d="M686.592 355.7888H340.2752c-41.472 0-75.1104 33.6384-75.1104 75.1104v334.1824c0 41.472 33.6384 75.1104 75.1104 75.1104h346.3168c41.472 0 75.1104-33.6384 75.1104-75.1104V430.8992c0-41.472-33.6384-75.1104-75.1104-75.1104z m-64.3584 269.5168h-81.5104v81.5104H486.144v-81.5104H404.6336v-54.6304h81.5104V489.1648h54.6304v81.5104h81.5104v54.6304z" fill="#05C46D" p-id="2210"></path><path d="M761.7024 541.184V430.8992c0-41.472-33.6384-75.1104-75.1104-75.1104H340.2752c-41.472 0-75.1104 33.6384-75.1104 75.1104v334.1824c0 39.2704 30.1568 71.4752 68.5568 74.8032 1.1776 0 2.304 0.0512 3.4816 0.0512 195.6352-0.0512 362.0864-124.6208 424.4992-298.752z m-139.4688 84.1216h-81.5104v81.5104H486.144v-81.5104H404.6336v-54.6304h81.5104V489.1648h54.6304v81.5104h81.5104v54.6304z" fill="#1DCE75" p-id="2211"></path><path d="M664.7296 228.9664c0-11.7248-0.4608-23.3984-1.3312-34.9184H342.4768a34.816 34.816 0 0 0-34.816 34.816v40.1408c0 31.3856 25.4464 56.8832 56.8832 56.8832h289.7408c6.8096-31.232 10.4448-63.6416 10.4448-96.9216zM340.2752 355.7888c-41.472 0-75.1104 33.6384-75.1104 75.1104v245.9648c58.7776-6.656 114.0736-24.576 163.7888-51.5584h-24.32v-54.6304h81.5104V489.1648h54.6304v50.2784a450.78528 450.78528 0 0 0 105.8816-183.7056H340.2752z" fill="#3CD38E" p-id="2212"></path><path d="M533.8624 194.048H342.4768a34.816 34.816 0 0 0-34.816 34.816v40.1408c0 31.3856 25.4464 56.8832 56.8832 56.8832h106.752a448.98816 448.98816 0 0 0 62.5664-131.84zM265.1648 430.8992v58.3168c72.0896-28.3136 135.1168-74.6496 183.552-133.4272H340.2752c-41.472 0-75.1104 33.6384-75.1104 75.1104z" fill="#48E1AA" p-id="2213"></path></svg>