<svg class="icon" style="width: 1em;height: 1em;vertical-align: middle;fill: currentColor;overflow: hidden;" viewBox="0 0 1024 1024" version="1.1" xmlns="http://www.w3.org/2000/svg" p-id="1869"><path d="M509.9008 513.1264m-450.816 0a450.816 450.816 0 1 0 901.632 0 450.816 450.816 0 1 0-901.632 0Z" fill="#E9ECFF" p-id="1870"></path><path d="M542.5152 242.4832v-24.9344c0-21.5552-13.3632-34.1504-29.9008-34.1504s-29.9008 12.5952-29.9008 34.1504v24.7808c-259.3792 16.0256-293.1712 247.7568-297.3696 320.256a20.3776 20.3776 0 0 0 20.3776 21.504h281.6512v194.6624c0 10.9568-8.9088 19.8656-19.8656 19.8656-10.9568 0-19.8656-8.9088-19.8656-19.8656v-0.7168c0-15.104-12.288-27.392-27.392-27.392-15.104 0-27.392 12.288-27.392 27.392v0.7168c0 41.1648 33.4848 74.6496 74.6496 74.6496s74.6496-33.4848 74.6496-74.6496v-194.6624h273.8688c11.6736 0 20.992-9.7792 20.3776-21.4016-3.7888-72.192-36.352-303.104-293.888-320.2048zM469.8624 360.2944c-0.9728 0.2048-97.9456 19.6096-139.3152 103.8848a22.7584 22.7584 0 0 1-30.5152 10.3936c-11.3152-5.5296-15.9744-19.2512-10.4448-30.5664C341.248 338.7904 456.6016 316.2624 461.5168 315.392a22.84544 22.84544 0 0 1 26.624 18.2784c2.2528 12.3904-5.9392 24.32-18.2784 26.624z" fill="#6C6CEA" p-id="1871"></path><path d="M774.1952 365.6192c-42.3424-62.1056-113.2032-115.2512-231.68-123.136v-24.9344c0-21.5552-13.3632-34.1504-29.9008-34.1504-16.4864 0-29.9008 12.5952-29.9008 34.1504v24.7808c-259.3792 16.0256-293.1712 247.7568-297.3696 320.256a20.3776 20.3776 0 0 0 20.3776 21.504h281.6512v194.6624c0 1.28-0.1536 2.5088-0.3584 3.7376a448.1536 448.1536 0 0 0 55.1424-25.9584v-172.4416h173.7728c36.608-64.6144 57.7024-139.1104 58.2656-218.4704z m-304.3328-5.3248c-0.9728 0.2048-97.9456 19.6096-139.3152 103.8848a22.7584 22.7584 0 0 1-30.5152 10.3936c-11.3152-5.5296-15.9744-19.2512-10.4448-30.5664C341.248 338.7904 456.6016 316.2624 461.5168 315.392a22.84544 22.84544 0 0 1 26.624 18.2784c2.2528 12.3904-5.9392 24.32-18.2784 26.624zM447.6928 778.7008v-0.7168c0-15.104-12.288-27.392-27.392-27.392s-27.392 12.288-27.392 27.392v0.7168c0 9.9328 1.9968 19.456 5.5296 28.1088 19.1488-3.2256 37.888-7.6288 56.1664-13.1584-4.1984-3.584-6.912-8.9088-6.912-14.9504z" fill="#757BF2" p-id="1872"></path><path d="M542.5152 242.4832v-24.9344c0-21.5552-13.3632-34.1504-29.9008-34.1504-16.4864 0-29.9008 12.5952-29.9008 34.1504v24.7808c-259.3792 16.0256-293.1712 247.7568-297.3696 320.256a20.3776 20.3776 0 0 0 20.3776 21.504h233.984c110.1824-69.3248 188.2624-184.9856 206.8992-319.6416-29.7472-11.52-64.2048-19.3024-104.0896-21.9648zM469.8624 360.2944c-0.9728 0.2048-97.9456 19.6096-139.3152 103.8848a22.7584 22.7584 0 0 1-30.5152 10.3936c-11.3152-5.5296-15.9744-19.2512-10.4448-30.5664C341.248 338.7904 456.6016 316.2624 461.5168 315.392a22.84544 22.84544 0 0 1 26.624 18.2784c2.2528 12.3904-5.9392 24.32-18.2784 26.624z" fill="#8486F8" p-id="1873"></path><path d="M512.6656 183.3984c-16.4864 0-29.9008 12.5952-29.9008 34.1504v24.7808c-191.3856 11.8272-259.9424 141.1072-284.416 237.2096a447.55456 447.55456 0 0 0 90.624-33.8944c0.2048-0.512 0.3072-1.024 0.5632-1.536 39.424-80.3328 115.968-112.4352 152.1664-123.5456a449.14176 449.14176 0 0 0 73.3184-137.0112c-0.768-0.1024-1.536-0.1536-2.3552-0.1536z" fill="#8D92F8" p-id="1874"></path></svg>