<svg class="icon" style="width: 1em;height: 1em;vertical-align: middle;fill: currentColor;overflow: hidden;" viewBox="0 0 1024 1024" version="1.1" xmlns="http://www.w3.org/2000/svg" p-id="1914"><path d="M507.392 519.8336m-450.816 0a450.816 450.816 0 1 0 901.632 0 450.816 450.816 0 1 0-901.632 0Z" fill="#FBE1FF" p-id="1915"></path><path d="M152.2176 394.496l81.0496 101.9392s101.9392-94.1056 287.5904-94.1056 253.5936 94.1056 253.5936 94.1056l87.6032-101.9392s-87.6032-125.4912-341.1968-125.4912-368.64 125.4912-368.64 125.4912z" fill="#BD50D3" p-id="1916"></path><path d="M273.7664 544.8192S359.0144 464.1792 507.392 464.1792s225.2288 80.64 225.2288 80.64l-69.2736 90.2144s-45.4144-50.5856-157.184-50.5856c-102.0416 0-152.6272 50.5856-152.6272 50.5856l-79.7696-90.2144zM503.1936 820.6848l-109.824-137.2672s32.6656-37.888 109.824-37.888 115.712 35.9424 115.712 35.9424l-115.712 139.2128z" fill="#BD50D3" p-id="1917"></path><path d="M152.2176 394.496l81.0496 101.9392s101.9392-94.1056 287.5904-94.1056c82.176 0 141.2608 18.432 181.6576 39.0144 1.024-11.264 1.6384-22.6304 1.6384-34.1504 0-41.0624-6.7072-80.5376-18.9952-117.4528-44.6464-12.3904-98.9184-20.736-164.3008-20.736-253.6448 0-368.64 125.4912-368.64 125.4912z" fill="#C65EDB" p-id="1918"></path><path d="M689.0496 512.1024c-37.2224-22.3744-98.0992-47.9232-181.6576-47.9232-148.3776 0-233.6256 80.64-233.6256 80.64l79.7184 90.2144s50.5856-50.5856 152.6272-50.5856c66.56 0 109.6192 17.9712 133.5296 32.4608 21.6064-31.744 38.3488-67.072 49.408-104.8064zM598.1696 667.5968c-18.8416-10.1376-50.432-22.1184-94.976-22.1184-77.1072 0-109.824 37.888-109.824 37.888l60.8768 76.1344a372.992 372.992 0 0 0 143.9232-91.904z" fill="#C65EDB" p-id="1919"></path><path d="M152.2176 394.496l81.0496 101.9392s101.9392-94.1056 287.5904-94.1056c22.0672 0 42.4448 1.3824 61.2352 3.6864a371.99872 371.99872 0 0 0 19.8656-120.1664c0-4.096-0.1536-8.1408-0.3072-12.1856-24.8832-2.9184-51.712-4.6592-80.8448-4.6592-253.5936 0-368.5888 125.4912-368.5888 125.4912zM507.392 464.1792c-148.3776 0-233.6256 80.64-233.6256 80.64l79.7184 90.2144s29.696-29.6448 89.3952-43.52a374.9888 374.9888 0 0 0 112.128-124.416 388.608 388.608 0 0 0-47.616-2.9184z" fill="#CA6EE0" p-id="1920"></path><path d="M152.2176 394.496l81.0496 101.9392s44.6976-41.216 128.7168-69.0688c48.9472-41.472 87.0912-95.2832 109.568-156.672-219.2384 14.6944-319.3344 123.8016-319.3344 123.8016z" fill="#D786EA" p-id="1921"></path></svg>