<svg class="icon" style="width: 1em;height: 1em;vertical-align: middle;fill: currentColor;overflow: hidden;" viewBox="0 0 1024 1024" version="1.1" xmlns="http://www.w3.org/2000/svg" p-id="1664"><path d="M509.7472 516.608m-450.816 0a450.816 450.816 0 1 0 901.632 0 450.816 450.816 0 1 0-901.632 0Z" fill="#E3FFF3" p-id="1665"></path><path d="M560.0768 598.8864c-13.9776 14.08-32.4608 21.0944-50.9952 21.0944-18.0224 0-35.9936-6.656-49.8688-20.0192l-265.216-255.744c-0.4096 3.1744-0.6656 6.4-0.6656 9.6768v345.0368c0 41.984 33.9968 75.9808 75.9808 75.9808h480.8192c41.984 0 75.9808-33.9968 75.9808-75.9808V353.9456c0-7.0144-1.024-13.7728-2.816-20.2752l-263.2192 265.216z" fill="#05C46D" p-id="1666"></path><path d="M499.8144 557.824c5.2224 5.0176 13.568 4.9152 18.688-0.2048l268.288-270.2848a75.63776 75.63776 0 0 0-36.6592-9.4208H269.312c-16.6912 0-32.1024 5.4272-44.6464 14.592l275.1488 265.3184z" fill="#1DCE75" p-id="1667"></path><path d="M826.112 353.9456c0-7.0144-1.024-13.7728-2.816-20.2752l-263.2704 265.216c-13.9776 14.08-32.4608 21.0944-50.9952 21.0944-18.0224 0-35.9936-6.656-49.8688-20.0192l-265.216-255.744c-0.4096 3.1744-0.6656 6.4-0.6656 9.6768v345.0368c0 41.984 33.9968 75.9808 75.9808 75.9808h261.632c153.3952-54.0672 268.8-188.7232 295.2192-353.1776V353.9456z" fill="#1DCE75" p-id="1668"></path><path d="M626.7904 448.5632a449.26976 449.26976 0 0 0 73.1136-170.5984H269.312c-16.6912 0-32.1024 5.4272-44.6464 14.592l275.1488 265.3184c3.7888 3.6864 9.2672 4.5568 13.9776 2.816 1.8944-1.28 3.7376-2.6112 5.632-3.8912l107.3664-108.2368zM257.792 640.4096c70.5024 0 137.216-16.1792 196.608-45.056L193.9968 344.2688c-0.4096 3.1744-0.6656 6.4-0.6656 9.6768v281.856c21.0432 3.0208 42.5472 4.608 64.4608 4.608z" fill="#3CD38E" p-id="1669"></path><path d="M269.312 277.9648c-16.6912 0-32.1024 5.4272-44.6464 14.592L361.984 424.9088a452.56192 452.56192 0 0 0 158.9248-146.9952H269.312zM305.0496 451.3792L193.9968 344.2688c-0.4096 3.1744-0.6656 6.4-0.6656 9.6768V478.208c38.912-4.1984 76.3904-13.3632 111.7184-26.8288z" fill="#48E1AA" p-id="1670"></path></svg>