<svg class="icon" style="width: 1em;height: 1em;vertical-align: middle;fill: currentColor;overflow: hidden;" viewBox="0 0 1024 1024" version="1.1" xmlns="http://www.w3.org/2000/svg" p-id="4638"><path d="M513.4336 510.72m-450.816 0a450.816 450.816 0 1 0 901.632 0 450.816 450.816 0 1 0-901.632 0Z" fill="#FFF1DC" p-id="4639"></path><path d="M818.8416 394.9056V337.408c0-42.8032-34.6624-77.4656-77.4656-77.4656H285.44c-42.8032 0-77.4656 34.6624-77.4656 77.4656v57.4976h610.8672zM207.9744 448.3072v220.3136c0 42.8032 34.6624 77.4656 77.4656 77.4656h455.8848c42.8032 0 77.4656-34.6624 77.4656-77.4656V448.3072H207.9744z m503.3984 196.3008h-116.2752l37.2224-82.9952h116.2752l-37.2224 82.9952z" fill="#FF8E12" p-id="4640"></path><path d="M795.0336 359.68c0-28.928-2.7648-57.2416-7.9872-84.6848-12.8-9.4208-28.5696-15.0016-45.7216-15.0016H285.44c-42.8032 0-77.4656 34.6624-77.4656 77.4656v57.4976h585.6768c0.9216-11.6736 1.3824-23.4496 1.3824-35.2768zM207.9744 448.3072v220.3136c0 42.8032 34.6624 77.4656 77.4656 77.4656h291.0208a452.992 452.992 0 0 0 117.0944-101.5296h-98.4576l37.2224-82.9952h115.0464a448 448 0 0 0 38.9632-113.3056H207.9744z" fill="#FCA315" p-id="4641"></path><path d="M667.6992 259.9424H285.44c-42.8032 0-77.4656 34.6624-77.4656 77.4656v57.4976h419.328a446.83264 446.83264 0 0 0 40.3968-134.9632zM207.9744 650.1888c4.3008 0.1024 8.6016 0.2048 12.9536 0.2048 157.0304 0 295.2704-80.2816 375.9616-202.0352H207.9744v201.8304z" fill="#FCB138" p-id="4642"></path><path d="M501.0944 259.9424H285.44c-42.8032 0-77.4656 34.6624-77.4656 77.4656v57.4976H385.536a452.15232 452.15232 0 0 0 115.5584-134.9632zM298.8032 448.3072H207.9744v31.2832a445.72672 445.72672 0 0 0 90.8288-31.2832z" fill="#FFC65E" p-id="4643"></path></svg>