<svg class="icon" style="width: 1em;height: 1em;vertical-align: middle;fill: currentColor;overflow: hidden;" viewBox="0 0 1024 1024" version="1.1" xmlns="http://www.w3.org/2000/svg" p-id="3359"><path d="M513.1264 508.0064m-450.816 0a450.816 450.816 0 1 0 901.632 0 450.816 450.816 0 1 0-901.632 0Z" fill="#E9ECFF" p-id="3360"></path><path d="M777.5744 369.4592c-62.9248-201.8304-323.584-260.7104-467.3536-105.7792-86.2208 92.928-95.5904 239.2576-37.4272 338.3808 52.2752 89.0368 122.3168 163.0208 198.5024 231.6288 32.4096 29.184 51.712 28.7232 84.6848-0.4096 54.272-47.9232 103.8848-100.352 148.1728-157.5424 46.9504-60.672 87.6032-124.3136 84.8896-199.3728 3.7376-40.6528-1.28-74.3424-11.4688-106.9056z m-266.752 310.3232c-123.8528-0.3072-224.9216-103.2192-224.256-228.3008 0.6656-125.8496 103.3728-228.096 227.7376-226.7648 126.0032 1.3312 226.1504 102.7072 225.8432 228.7104-0.256 126.1568-102.0928 226.6624-229.3248 226.3552z" fill="#6C6CEA" p-id="3361"></path><path d="M539.648 314.7776c-26.2656-0.8192-52.5312-0.5632-78.7968-0.5632-27.904 0-34.9696 6.912-34.9696 34.5088-0.1024 77.824-0.0512 155.5968 0 233.4208 0 4.096 0.2048 8.2432 0.6144 12.3392 1.3824 12.7488 9.1136 19.0976 21.3504 20.3264 16.896 1.6384 26.8288-7.9872 27.2896-27.5456 0.5632-23.1424 0.1536-46.336 0.1536-72.4992 23.3472 0 44.9536 1.024 66.3552-0.2048 55.9104-3.1232 98.0992-47.0016 97.4336-100.1984-0.7168-55.3984-42.752-97.792-99.4304-99.584z m-2.6624 151.0912c-18.5344 0.3584-37.12-0.1024-55.7056-0.256-1.4336 0-2.8672-0.8704-5.0688-1.6384V363.4688c22.4256 0 43.5712-1.0752 64.5632 0.256 28.7232 1.8432 49.4592 24.9344 48.8448 51.968-0.768 27.8528-23.2448 49.6128-52.6336 50.176z" fill="#757BF2" p-id="3362"></path><path d="M777.5744 369.4592c-62.9248-201.8304-323.584-260.7104-467.3536-105.7792-86.2208 92.928-95.5904 239.2576-37.4272 338.3808 36.1984 61.6448 80.9472 116.0704 130.304 166.5536 178.3296-19.1488 326.5024-138.9568 386.56-301.4656 2.2528-36.5568-2.7136-67.6352-12.0832-97.6896z m-266.752 310.3232c-123.8528-0.3072-224.9216-103.2192-224.256-228.3008 0.6656-125.8496 103.3728-228.096 227.7376-226.7648 126.0032 1.3312 226.1504 102.7072 225.8432 228.7104-0.256 126.1568-102.0928 226.6624-229.3248 226.3552z" fill="#757BF2" p-id="3363"></path><path d="M629.4528 372.0192c-15.5648-33.3312-48.7936-55.9616-89.856-57.2416-26.2656-0.8192-52.5312-0.5632-78.7968-0.5632-27.904 0-34.9696 6.912-34.9696 34.5088-0.1024 70.7072-0.0512 141.3632 0 212.0704 17.1008-8.1408 33.5872-17.3056 49.4592-27.4432-0.0512-6.0928-0.0512-12.288-0.0512-18.6368 9.216 0 18.0736 0.1536 26.8288 0.256 23.6544-17.5104 45.6192-37.1712 65.536-58.7776-8.5504 5.888-18.9952 9.4208-30.6176 9.6256-18.5344 0.3584-37.12-0.1024-55.7056-0.256-1.4336 0-2.8672-0.8704-5.0688-1.6384V363.4176c22.4256 0 43.5712-1.0752 64.5632 0.256 28.7232 1.8432 49.4592 24.9344 48.8448 51.968a50.20672 50.20672 0 0 1-5.4784 21.6576c16.8448-20.3264 32.0512-42.1888 45.312-65.28z" fill="#8486F8" p-id="3364"></path><path d="M286.5664 451.4816c0.6656-125.8496 103.3728-228.096 227.7376-226.7648 59.648 0.6144 113.4592 23.7056 153.6 61.1328 5.6832-17.3056 10.3936-35.0208 14.0288-53.1456-107.3152-81.2032-269.2096-79.4624-371.712 31.0272-86.2208 92.928-95.5904 239.2576-37.4272 338.3808 0.256 0.4608 0.5632 0.9216 0.8704 1.4336 20.8896-2.1504 41.3696-5.6832 61.3376-10.496-30.5152-39.0656-48.7424-88.2688-48.4352-141.568z" fill="#8486F8" p-id="3365"></path><path d="M291.8912 403.6608c21.6576-98.8672 107.1616-173.9264 209.7664-178.688 9.9328-15.616 18.944-31.8464 26.9824-48.64-77.9264-4.7104-158.3616 22.6816-218.368 87.3984-41.2672 44.4928-64.9216 101.2224-71.9872 159.1296a469.4528 469.4528 0 0 0 53.6064-19.2z" fill="#8D92F8" p-id="3366"></path></svg>