<svg class="icon" style="width: 1em;height: 1em;vertical-align: middle;fill: currentColor;overflow: hidden;" viewBox="0 0 1024 1024" version="1.1" xmlns="http://www.w3.org/2000/svg" p-id="1430"><path d="M517.2736 510.8224m-450.816 0a450.816 450.816 0 1 0 901.632 0 450.816 450.816 0 1 0-901.632 0Z" fill="#E3FFF3" p-id="1431"></path><path d="M839.3216 370.4832L656.896 188.0064a23.36256 23.36256 0 0 0-33.024 0l-30.208 30.208a23.36256 23.36256 0 0 1-33.024 0l-15.9744-15.9744a23.36256 23.36256 0 0 0-33.024 0L439.1424 274.688a23.36256 23.36256 0 0 0 0 33.024L509.952 378.5728a23.36256 23.36256 0 0 1 0 33.024l-93.696 93.696a23.36256 23.36256 0 0 1-33.024 0L312.6784 434.7392a23.36256 23.36256 0 0 0-33.024 0L207.1552 507.1872a23.36256 23.36256 0 0 0 0 33.024l16.4864 16.4864a23.36256 23.36256 0 0 1 0 33.024l-28.4672 28.4672a23.36256 23.36256 0 0 0 0 33.024l182.4256 182.4256a23.36256 23.36256 0 0 0 33.024 0l28.4672-28.4672a23.36256 23.36256 0 0 1 33.024 0l16.4864 16.4864a23.36256 23.36256 0 0 0 33.024 0l72.448-72.448a23.36256 23.36256 0 0 0 0-33.024l-80.1792-80.1792a23.36256 23.36256 0 0 1 0-33.024l93.696-93.696a23.36256 23.36256 0 0 1 33.024 0l79.9744 79.9744a23.36256 23.36256 0 0 0 33.024 0l72.448-72.448a23.36256 23.36256 0 0 0 0-33.024l-16.9472-16.9472a23.36256 23.36256 0 0 1 0-33.024l30.208-30.208c9.1648-9.216 9.1648-24.0128 0-33.1264z" fill="#05C46D" p-id="1432"></path><path d="M623.872 188.0064l-30.208 30.208a23.36256 23.36256 0 0 1-33.024 0l-15.9744-15.9744a23.36256 23.36256 0 0 0-33.024 0L439.1424 274.688a23.36256 23.36256 0 0 0 0 33.024L509.952 378.5728a23.36256 23.36256 0 0 1 0 33.024l-93.696 93.696a23.36256 23.36256 0 0 1-33.024 0L312.6784 434.7392a23.36256 23.36256 0 0 0-33.024 0L207.1552 507.1872a23.36256 23.36256 0 0 0 0 33.024l16.4864 16.4864a23.36256 23.36256 0 0 1 0 33.024l-28.4672 28.4672a23.36256 23.36256 0 0 0 0 33.024l148.1216 148.1216c93.6448-0.5632 179.9168-32.1024 249.1392-84.8896l-78.4896-78.4896a23.36256 23.36256 0 0 1 0-33.024l93.696-93.696a23.36256 23.36256 0 0 1 33.024 0l67.9936 67.9936a413.93664 413.93664 0 0 0 47.8208-193.536c0-38.6048-5.376-75.8784-15.2064-111.36L656.896 188.0064a23.36256 23.36256 0 0 0-33.024 0z" fill="#1DCE75" p-id="1433"></path><path d="M638.976 181.2992a22.9888 22.9888 0 0 0-15.104 6.7072l-30.208 30.208a23.36256 23.36256 0 0 1-33.024 0l-15.9744-15.9744a23.36256 23.36256 0 0 0-33.024 0L439.1424 274.688a23.36256 23.36256 0 0 0 0 33.024L509.952 378.5728a23.36256 23.36256 0 0 1 0 33.024l-93.696 93.696a23.36256 23.36256 0 0 1-33.024 0L312.6784 434.7392a23.36256 23.36256 0 0 0-33.024 0L207.1552 507.1872a23.36256 23.36256 0 0 0 0 33.024l16.4864 16.4864a23.36256 23.36256 0 0 1 0 33.024l-28.4672 28.4672a23.32672 23.32672 0 0 0-0.7168 32.2048c10.752 0.8192 21.5552 1.3824 32.512 1.3824 229.5808 0 415.744-186.112 415.744-415.744 0-18.5344-1.3312-36.8128-3.7376-54.7328z" fill="#3CD38E" p-id="1434"></path><path d="M312.6784 434.7392a23.36256 23.36256 0 0 0-33.024 0l-57.9072 57.856a414.97088 414.97088 0 0 0 106.3424-42.4448l-15.4112-15.4112zM511.5904 202.24L439.1424 274.688a23.36256 23.36256 0 0 0 0 33.024l22.016 22.016a414.464 414.464 0 0 0 63.0272-133.9392c-4.608 0.768-9.0112 2.9184-12.5952 6.4512z" fill="#48E1AA" p-id="1435"></path></svg>