<svg class="icon" style="width: 1em;height: 1em;vertical-align: middle;fill: currentColor;overflow: hidden;" viewBox="0 0 1024 1024" version="1.1" xmlns="http://www.w3.org/2000/svg" p-id="6283"><path d="M511.6928 514.2016m-450.816 0a450.816 450.816 0 1 0 901.632 0 450.816 450.816 0 1 0-901.632 0Z" fill="#E9F4FF" p-id="6284"></path><path d="M789.7088 733.3376h-47.1552V256.8192c0-36.8128-30.9248-66.7136-69.12-66.7136H349.9008c-38.144 0-69.12 29.8496-69.12 66.7136v476.4672h-47.1552c-16.4352 0-29.696 12.8512-29.696 28.672s13.312 28.672 29.696 28.672h556.0832c16.4352 0 29.696-12.8512 29.696-28.672 0.0512-15.7696-13.2608-28.6208-29.696-28.6208z m-217.0368-203.0592c12.032 0 22.8352 6.9632 27.4432 17.664 4.608 10.7008 2.0992 23.04-6.4 31.232l-112.1792 108.8a30.09024 30.09024 0 0 1-21.0432 8.448 30.0544 30.0544 0 0 1-20.9408-8.3456 27.9808 27.9808 0 0 1-0.1024-40.5504l61.7472-59.904h-50.432c-11.776 0-22.4768-6.7584-27.2384-17.152-4.7616-10.4448-2.6624-22.5792 5.3248-30.9248l68.8128-72.192c11.1104-11.6736 29.9008-12.3904 41.984-1.6896 12.0832 10.752 12.8512 28.8768 1.7408 40.5504l-22.9376 24.064h54.2208zM367.0528 297.3696c0-22.1696 18.688-40.192 41.6256-40.192h205.9264c22.9376 0 41.6256 18.0224 41.6256 40.192v87.9104c0 22.1696-18.688 40.192-41.6256 40.192H408.7296c-22.9376 0-41.6256-18.0224-41.6256-40.192V297.3696z" fill="#2595E8" p-id="6285"></path><path d="M426.496 314.5728h170.3424V368.128H426.496z" fill="#59ADF8" p-id="6286"></path><path d="M742.5536 549.2224V256.8192c0-36.8128-30.9248-66.7136-69.12-66.7136H349.9008c-38.144 0-69.12 29.8496-69.12 66.7136v476.4672h-47.1552c-16.4352 0-29.696 12.8512-29.696 28.672s13.312 28.672 29.696 28.672h248.2688c116.4288-41.4208 210.7392-129.3312 260.6592-241.408zM367.0528 385.28V297.3696c0-22.1696 18.688-40.192 41.6256-40.192h205.9264c22.9376 0 41.6256 18.0224 41.6256 40.192v87.9104c0 22.1696-18.688 40.192-41.6256 40.192H408.7296c-22.9888 0-41.6768-18.0224-41.6768-40.192z m72.448 302.7968a27.9808 27.9808 0 0 1-0.1024-40.5504l61.7472-59.904h-50.432c-11.776 0-22.4768-6.7584-27.2384-17.152-4.7616-10.4448-2.6624-22.5792 5.3248-30.9248l68.8128-72.192c11.1104-11.6736 29.9008-12.3904 41.984-1.6896 12.0832 10.752 12.8512 28.8768 1.7408 40.5504l-22.9376 24.064h54.2208c12.032 0 22.8352 6.9632 27.4432 17.664 4.608 10.7008 2.0992 23.04-6.4 31.232l-112.1792 108.8a30.09024 30.09024 0 0 1-21.0432 8.448c-7.5264 0-15.1552-2.7648-20.9408-8.3456z" fill="#3A9CED" p-id="6287"></path><path d="M447.4368 587.4176c-10.4448-1.1264-19.6096-7.4752-23.9104-16.9472-4.7616-10.4448-2.6624-22.5792 5.3248-30.9248l68.8128-72.192c11.1104-11.6736 29.9008-12.3904 41.984-1.6896 12.0832 10.752 12.8512 28.8768 1.7408 40.5504l-22.9376 24.064h1.792a451.80928 451.80928 0 0 0 80.7936-104.8064H408.7296c-22.9376 0-41.6256-18.0224-41.6256-40.192V297.3696c0-22.1696 18.688-40.192 41.6256-40.192h205.9264c16.384 0 30.5664 9.216 37.376 22.5792 3.9424-24.064 6.0416-48.7424 6.0416-73.9328 0-5.2736-0.1024-10.496-0.3072-15.7184H349.9008c-38.144 0-69.12 29.8496-69.12 66.7136v393.8304a448.75776 448.75776 0 0 0 166.656-63.232z" fill="#59ADF8" p-id="6288"></path><path d="M370.8928 401.9712c-2.4064-5.12-3.84-10.752-3.84-16.6912V297.3696c0-22.1696 18.688-40.192 41.6256-40.192h83.6608c11.3664-21.4016 21.0432-43.776 28.8768-67.072H349.9008c-38.144 0-69.12 29.8496-69.12 66.7136v199.7824c32.256-14.6944 62.464-33.0752 90.112-54.6304z" fill="#6BC2FC" p-id="6289"></path><path d="M456.192 314.5728h-29.696v35.9936c10.496-11.4688 20.4288-23.5008 29.696-35.9936z" fill="#6BC2FC" p-id="6290"></path></svg>