<svg class="icon" style="width: 1em;height: 1em;vertical-align: middle;fill: currentColor;overflow: hidden;" viewBox="0 0 1024 1024" version="1.1" xmlns="http://www.w3.org/2000/svg" p-id="3159"><path d="M503.7056 513.1264m-450.816 0a450.816 450.816 0 1 0 901.632 0 450.816 450.816 0 1 0-901.632 0Z" fill="#FFE1E9" p-id="3160"></path><path d="M503.7056 183.3984c-182.0672 0-329.728 147.6096-329.728 329.728 0 182.0672 147.6096 329.728 329.728 329.728s329.728-147.6096 329.728-329.728c-0.0512-182.1184-147.6608-329.728-329.728-329.728zM671.8976 624.64H452.3008l33.4336 55.4496-61.3888 37.0176-86.9888-144.2304c-5.2736-8.7552 1.024-19.9168 11.264-19.9168h323.2768v71.68z m-13.1072-142.592H335.4624v-71.68h219.5968l-33.4336-55.4496 61.3888-37.0176 86.9888 144.2304c5.2736 8.7552-1.024 19.9168-11.2128 19.9168z" fill="#FF3369" p-id="3161"></path><path d="M746.7008 384.0512c0-36.8128-4.4544-72.6016-12.8-106.9056-59.4432-58.0096-140.5952-93.7984-230.1952-93.7984-182.0672 0-329.728 147.6096-329.728 329.728 0 143.6672 91.9552 265.8304 220.16 310.9888 201.728-44.8 352.5632-224.768 352.5632-440.0128z m-411.2384 26.3168h219.5968l-33.4336-55.4496 61.3888-37.0176 86.9888 144.2304c5.2736 8.7552-1.024 19.9168-11.264 19.9168H335.4624v-71.68zM348.6208 552.96h323.2768v71.68H452.3008l33.4336 55.4496-61.3888 37.0176-86.9888-144.2304c-5.2736-8.7552 1.024-19.9168 11.264-19.9168z" fill="#FF4D7C" p-id="3162"></path><path d="M173.9776 513.1264c0 57.9072 15.0016 112.3328 41.216 159.6416a448.1536 448.1536 0 0 0 155.904-43.9808l-33.7408-55.9104c-5.2736-8.7552 1.024-19.9168 11.264-19.9168h132.096c22.8352-21.4016 43.4688-45.1584 61.4912-70.912H335.4624v-71.68h219.5968l-33.4336-55.4496 61.3888-37.0176 21.4528 35.5328c12.288-41.0112 18.8928-84.48 18.8928-129.4848 0-6.0928-0.1536-12.1856-0.4096-18.2272a328.48384 328.48384 0 0 0-119.296-22.3232c-182.0672 0-329.6768 147.6096-329.6768 329.728z" fill="#FF5F89" p-id="3163"></path><path d="M174.2848 500.3776a449.96096 449.96096 0 0 0 161.1776-79.7184v-10.24H348.16C417.6896 352.256 469.4016 273.5616 494.0288 183.6544c-173.3632 5.0176-313.1392 143.7696-319.744 316.7232z" fill="#FF7196" p-id="3164"></path></svg>