<svg class="icon" style="width: 1em;height: 1em;vertical-align: middle;fill: currentColor;overflow: hidden;" viewBox="0 0 1024 1024" version="1.1" xmlns="http://www.w3.org/2000/svg" p-id="4426"><path d="M509.9008 513.1264m-450.816 0a450.816 450.816 0 1 0 901.632 0 450.816 450.816 0 1 0-901.632 0Z" fill="#FFE3DB" p-id="4427"></path><path d="M739.3792 521.7792h65.5872c17.152 0 31.0784-13.9264 31.0784-31.0784s-13.9264-31.0784-31.0784-31.0784h-65.5872c-17.152 0-31.0784 13.9264-31.0784 31.0784s13.9264 31.0784 31.0784 31.0784zM741.9392 424.6528c4.096 0 8.1408-0.8192 11.9808-2.4064l60.5184-25.2928a31.0272 31.0272 0 0 0 16.7424-16.8448c3.1232-7.68 3.1232-16.128-0.1024-23.7568a30.79168 30.79168 0 0 0-16.896-16.7424c-7.68-3.1744-16.128-3.1232-23.7568 0.1024l-60.5184 25.2928c-7.6288 3.2256-13.6192 9.216-16.7424 16.8448s-3.1232 16.128 0.1024 23.7568a31.01696 31.01696 0 0 0 28.672 19.0464zM814.4384 586.5472l-60.5184-25.2928a31.09888 31.09888 0 0 0-40.6528 16.6912 31.09888 31.09888 0 0 0 16.6912 40.6528l60.5184 25.2928c3.84 1.5872 7.8336 2.4064 11.9808 2.4064 12.544 0 23.808-7.4752 28.672-19.0976 6.6048-15.7696-0.8704-33.9968-16.6912-40.6528zM626.1248 227.072L428.4416 341.5552H259.1744c-37.2224 0-67.4304 30.208-67.4304 67.4304v172.7488c0 37.2224 30.208 67.4304 67.4304 67.4304v71.2704c0 43.5712 33.8432 80.7424 77.3632 82.3808 45.7728 1.7408 83.6096-35.0208 83.6096-80.4352v-73.2672h7.1168l199.3216 105.4208c20.0704 10.6496 44.288-3.9424 44.288-26.6752V253.4912c-0.0512-22.9376-24.6784-37.4784-44.7488-26.4192z m-9.2672 383.4368c0 16.9984-13.7728 30.7712-30.7712 30.7712s-30.7712-13.7728-30.7712-30.7712V406.784c0-16.9984 13.7728-30.7712 30.7712-30.7712s30.7712 13.7728 30.7712 30.7712v203.7248z" fill="#F23D4F" p-id="4428"></path><path d="M670.8224 527.0016V253.4912c0-22.9376-24.576-37.4784-44.6976-26.4192L428.4416 341.5552H259.1744c-37.2224 0-67.4304 30.208-67.4304 67.4304v172.7488c0 37.2224 30.208 67.4304 67.4304 67.4304v71.2704c0 2.0992 0.1536 4.1472 0.3072 6.1952a362.9056 362.9056 0 0 0 82.2784 9.472c26.8288 0 52.9408-2.9696 78.1312-8.4992 0.1024-1.7408 0.256-3.4304 0.256-5.1712v-73.2672h7.1168l84.5312 44.6976c27.136-14.3872 52.2752-32.1024 74.8032-52.6336-0.1536 0-0.3072 0.0512-0.512 0.0512-16.9984 0-30.7712-13.7728-30.7712-30.7712V406.784c0-16.9984 13.7728-30.7712 30.7712-30.7712s30.7712 13.7728 30.7712 30.7712v203.2128a363.5456 363.5456 0 0 0 53.9648-82.9952z" fill="#FC4956" p-id="4429"></path><path d="M555.3152 428.288v-21.504c0-15.104 10.9056-27.648 25.2416-30.2592a362.50624 362.50624 0 0 0 25.1904-132.9152c0-1.5872-0.1024-3.1232-0.1024-4.7104L428.4416 341.5552H259.1744c-37.2224 0-67.4304 30.208-67.4304 67.4304v172.7488c0 7.7824 1.3824 15.2576 3.84 22.2208 15.3088 1.9456 30.8736 3.072 46.7456 3.072 133.2736 0.0512 249.7024-71.7312 312.9856-178.7392z" fill="#FF5C64" p-id="4430"></path><path d="M440.4736 334.592l-12.032 6.9632H259.1744c-37.2224 0-67.4304 30.208-67.4304 67.4304v67.1232c101.376-11.3664 190.1056-64.3584 248.7296-141.5168z" fill="#FF716E" p-id="4431"></path></svg>