<svg class="icon" style="width: 1em;height: 1em;vertical-align: middle;fill: currentColor;overflow: hidden;" viewBox="0 0 1024 1024" version="1.1" xmlns="http://www.w3.org/2000/svg" p-id="5136"><path d="M512.512 514.7136m-450.816 0a450.816 450.816 0 1 0 901.632 0 450.816 450.816 0 1 0-901.632 0Z" fill="#FFF1DC" p-id="5137"></path><path d="M223.8976 758.4768v-43.264c0-5.9392 4.8128-10.8032 10.752-10.8544 6.5024-0.0512 12.8512-0.1536 20.9408-0.1536v-20.8384-349.4912c0-47.104 13.1584-66.5088 57.1904-84.1216 60.2112-24.064 120.32-48.4864 180.7872-72.0384 42.0352-16.384 79.0528 0.3072 91.7504 41.0624 3.0208 9.6768 3.072 20.5312 3.072 30.8224 0.2048 144.3328 0.1024 288.6656 0.1024 432.9984v21.4528h67.2768v-21.1968c0-90.4192-0.0512-180.8384 0-271.2576 0-32.1024 12.1856-35.1744 46.2336-15.4624 20.3264 11.776 41.8304 21.1968 63.4368 30.464 17.664 7.5776 24.3712 18.2784 24.1152 37.632-1.024 73.0112-0.4096 146.0736-0.4096 219.0848v20.9408h20.1216c5.9904 0 10.8544 4.864 10.8544 10.8544v43.4176c0 5.9904-4.864 10.8544-10.8544 10.8544H234.752a10.93632 10.93632 0 0 1-10.8544-10.9056z m131.2768-321.1776h133.7344c18.0736 0 32.7168-14.6432 32.7168-32.7168s-14.6432-32.7168-32.7168-32.7168H355.1744c-18.0736 0-32.7168 14.6432-32.7168 32.7168s14.6432 32.7168 32.7168 32.7168z m0.1024 167.0144h133.0688c18.2272 0 32.9728-14.7456 32.9728-32.9728 0-18.2272-14.7456-32.9728-32.9728-32.9728H355.2768c-18.2272 0-32.9728 14.7456-32.9728 32.9728 0 18.2272 14.7968 32.9728 32.9728 32.9728z" fill="#FF8E12" p-id="5138"></path><path d="M618.6496 704.0512h-30.1056v-21.4528c0-144.3328 0.0512-288.6656-0.1024-432.9984 0-10.2912-0.1024-21.1456-3.072-30.8224-12.6976-40.7552-49.7152-57.4464-91.7504-41.0624-60.416 23.552-120.5248 47.9744-180.7872 72.0384-43.9808 17.6128-57.1904 37.0176-57.1904 84.1216V704.2048c-8.1408 0-14.4896 0.1024-20.9408 0.1536-5.9392 0.0512-10.752 4.9152-10.752 10.8544v43.264c0 5.9904 4.864 10.8544 10.8544 10.8544h267.776a450.56 450.56 0 0 0 116.0704-65.28zM355.1744 371.8656h133.7344c18.0736 0 32.7168 14.6432 32.7168 32.7168s-14.6432 32.7168-32.7168 32.7168H355.1744c-18.0736 0-32.7168-14.6432-32.7168-32.7168s14.6432-32.7168 32.7168-32.7168z m-32.8704 199.4752c0-18.2272 14.7456-32.9728 32.9728-32.9728h133.0688c18.2272 0 32.9728 14.7456 32.9728 32.9728 0 18.2272-14.7456 32.9728-32.9728 32.9728H355.2768c-18.176 0-32.9728-14.7456-32.9728-32.9728zM655.7696 671.7952c63.5904-61.5936 109.1072-141.7216 127.7952-231.68-3.8912-5.5808-9.728-9.9328-18.1248-13.568-21.6064-9.2672-43.1104-18.688-63.4368-30.464-34.048-19.712-46.2336-16.64-46.2336 15.4624v260.2496z" fill="#FCA315" p-id="5139"></path><path d="M391.5776 604.3136h-36.3008c-18.2272 0-32.9728-14.7456-32.9728-32.9728 0-18.2272 14.7456-32.9728 32.9728-32.9728h133.0688c3.9936 0 7.8336 0.768 11.4176 2.048a453.0432 453.0432 0 0 0 88.7296-94.464c0-65.4336-0.0512-130.9184-0.1024-196.352 0-10.2912-0.1024-21.1456-3.072-30.8224-12.6976-40.7552-49.7152-57.4464-91.7504-41.0624-60.416 23.552-120.5248 47.9744-180.7872 72.0384-43.9808 17.6128-57.1904 37.0176-57.1904 84.1216v303.2576a449.4848 449.4848 0 0 0 135.9872-32.8192z m-36.4032-232.448h133.7344c18.0736 0 32.7168 14.6432 32.7168 32.7168s-14.6432 32.7168-32.7168 32.7168H355.1744c-18.0736 0-32.7168-14.6432-32.7168-32.7168s14.6432-32.7168 32.7168-32.7168z" fill="#FCB138" p-id="5140"></path><path d="M326.912 421.0176c-2.816-4.8128-4.4544-10.4448-4.4544-16.4352 0-18.0736 14.6432-32.7168 32.7168-32.7168h42.1888c61.7472-52.48 109.1584-121.2928 135.5776-199.7824-12.1344-1.4848-25.4464 0.256-39.3728 5.632-60.416 23.552-120.5248 47.9744-180.7872 72.0384-43.9808 17.6128-57.1904 37.0176-57.1904 84.1216v119.552c24.832-8.7552 48.6912-19.6096 71.3216-32.4096z" fill="#FFC65E" p-id="5141"></path></svg>