<svg class="icon" style="width: 1em;height: 1em;vertical-align: middle;fill: currentColor;overflow: hidden;" viewBox="0 0 1024 1024" version="1.1" xmlns="http://www.w3.org/2000/svg" p-id="3376"><path d="M511.3344 510.208m-450.816 0a450.816 450.816 0 1 0 901.632 0 450.816 450.816 0 1 0-901.632 0Z" fill="#E9ECFF" p-id="3377"></path><path d="M552.3456 612.2496h-81.92v-36.9664l-254.0032-93.696v239.9744c0 38.4512 31.1808 69.632 69.632 69.632h450.7136c38.4512 0 69.632-31.1808 69.632-69.632V474.4192l-254.0032 100.3008v37.5296z" fill="#6C6CEA" p-id="3378"></path><path d="M736.7168 331.4688h-76.6976V256.6144a27.392 27.392 0 0 0-27.392-27.392H390.0928a27.392 27.392 0 0 0-27.392 27.392v74.8544H286.0032c-38.4512 0-69.632 31.1808-69.632 69.632v22.1184l254.0032 93.696v-36.096h81.92v35.0208l254.0032-100.3008v-14.4384c0.0512-38.4512-31.1296-69.632-69.5808-69.632z m-319.2832 0v-47.5136h187.8528v47.5136H417.4336z" fill="#757BF2" p-id="3379"></path><path d="M806.3488 474.4192l-254.0032 100.3008v37.5296h-81.92v-36.9664l-254.0032-93.696v239.9744c0 38.4512 31.1808 69.632 69.632 69.632H488.448c152.3712-39.8336 273.3056-157.3376 317.952-307.712v-9.0624z" fill="#757BF2" p-id="3380"></path><path d="M678.8608 331.4688h-18.8416V256.6144a27.392 27.392 0 0 0-27.392-27.392H390.0928a27.392 27.392 0 0 0-27.392 27.392v74.8544H286.0032c-38.4512 0-69.632 31.1808-69.632 69.632v22.1184l254.0032 93.696v-36.096h81.92v35.0208l16.384-6.4512c49.6128-49.3056 87.7568-110.0288 110.1824-177.92z m-261.4272 0v-47.5136h187.8528v47.5136H417.4336zM216.3712 639.2832c11.3664 0.8704 22.8352 1.28 34.4576 1.28 79.7184 0 154.624-20.736 219.5968-57.0368v-8.2944l-254.0032-93.696v157.7472z" fill="#8486F8" p-id="3381"></path><path d="M417.4336 331.4688v-47.5136h92.6208c11.8784-17.408 22.5792-35.6864 31.9488-54.7328H390.0928a27.392 27.392 0 0 0-27.392 27.392v74.8544H286.0032c-38.4512 0-69.632 31.1808-69.632 69.632v22.1184l79.2576 29.2352c68.5056-25.7024 129.1264-67.584 177.152-120.9856H417.4336z" fill="#8D92F8" p-id="3382"></path></svg>