<svg class="icon" style="width: 1em;height: 1em;vertical-align: middle;fill: currentColor;overflow: hidden;" viewBox="0 0 1024 1024" version="1.1" xmlns="http://www.w3.org/2000/svg" p-id="6425"><path d="M510.208 520.96m-450.816 0a450.816 450.816 0 1 0 901.632 0 450.816 450.816 0 1 0-901.632 0Z" fill="#FFF7DC" p-id="6426"></path><path d="M506.9824 179.5072c-145.4592 2.048-265.9328 118.7328-272.2816 264.0896-5.2224 119.1424 65.0752 222.5152 166.9632 266.4448v24.1152c0 11.1616 9.0624 20.1728 20.1728 20.1728h178.1248c11.1616 0 20.1728-9.0624 20.1728-20.1728v-24.1152c98.3552-42.3424 167.2704-140.1344 167.2704-254.0032 0.0512-154.112-125.9008-278.7328-280.4224-276.5312z m73.728 355.9424h-35.8912v94.5152a33.8432 33.8432 0 0 1-67.6864 0v-94.5152h-35.8912a33.8432 33.8432 0 0 1 0-67.6864h139.4688a33.8432 33.8432 0 0 1 0 67.6864zM606.0032 787.0976H415.8976a33.8432 33.8432 0 0 0 0 67.6864h190.1056a33.8432 33.8432 0 0 0 0-67.6864z" fill="#FF8E12" p-id="6427"></path><path d="M401.7152 716.9536c195.2256-21.3504 346.7776-176.9984 346.7776-365.9264 0-13.7216-0.8704-27.2384-2.4064-40.6016-49.408-79.6672-138.1376-132.4032-239.104-130.9696-145.4592 2.048-265.9328 118.7328-272.2816 264.0896-5.2224 119.1424 65.0752 222.5152 166.9632 266.4448v6.9632z m39.5264-249.1904h139.4688a33.8432 33.8432 0 0 1 0 67.6864h-35.8912v94.5152a33.8432 33.8432 0 0 1-67.6864 0v-94.5152h-35.8912a33.8432 33.8432 0 0 1 0-67.6864z" fill="#FCA315" p-id="6428"></path><path d="M640.8704 211.8144c-39.8336-21.248-85.4528-33.024-133.8368-32.3584-145.4592 2.048-265.9328 118.7328-272.2816 264.0896-2.304 52.5312 10.0864 101.9904 33.3824 144.6912 67.0208-3.1232 129.5872-22.016 183.6544-52.7872h-10.5984a33.8432 33.8432 0 0 1 0-67.6864h97.9968C602.4704 402.3296 641.024 315.4944 641.024 220.16c0.0512-2.7648-0.1024-5.5296-0.1536-8.3456z" fill="#FCB138" p-id="6429"></path><path d="M234.752 443.5456c-0.1024 1.9968-0.1024 3.9936-0.1536 5.9904 144.7936-30.0032 259.6352-134.912 295.7312-269.312-7.7312-0.512-15.4624-0.8192-23.3472-0.7168-145.408 1.9968-265.8816 118.7328-272.2304 264.0384z" fill="#FFC65E" p-id="6430"></path></svg>