<svg class="icon" style="width: 1em;height: 1em;vertical-align: middle;fill: currentColor;overflow: hidden;" viewBox="0 0 1024 1024" version="1.1" xmlns="http://www.w3.org/2000/svg" p-id="5215"><path d="M514.304 509.5936m-450.816 0a450.816 450.816 0 1 0 901.632 0 450.816 450.816 0 1 0-901.632 0Z" fill="#FFF1DC" p-id="5216"></path><path d="M725.4016 328.448h-37.4784v-35.84c0-24.32-20.224-51.456-49.2032-51.456H404.9408c-28.9792 0-49.2032 27.136-49.2032 51.456v35.84h-37.4784c-49.8176 0-90.368 40.5504-90.368 90.368v268.9536c0 49.8176 40.5504 90.368 90.368 90.368h407.1424c49.8176 0 90.368-40.5504 90.368-90.368V418.816c0-49.8176-40.5504-90.368-90.368-90.368z m-310.3744-28.0064h213.5552v28.0064H415.0272v-28.0064z m140.288 130.048c0 20.4288-16.5888 37.0176-37.0176 37.0176S481.28 450.9184 481.28 430.4896s16.5888-37.0176 37.0176-37.0176 37.0176 16.5888 37.0176 37.0176z m164.1984 112.5888H324.5568c-16.384 0-29.6448-13.2608-29.6448-29.6448s13.2608-29.6448 29.6448-29.6448h394.9568c16.384 0 29.6448 13.2608 29.6448 29.6448s-13.2608 29.6448-29.6448 29.6448z" fill="#FC7032" p-id="5217"></path><path d="M725.4016 328.448h-37.4784v-35.84c0-24.32-20.224-51.456-49.2032-51.456H404.9408c-28.9792 0-49.2032 27.136-49.2032 51.456v35.84h-37.4784c-49.8176 0-90.368 40.5504-90.368 90.368v268.9536c0 49.8176 40.5504 90.368 90.368 90.368h284.2112c119.6032-81.0496 198.2464-218.0608 198.2464-373.4528 0-12.8-0.5632-25.4976-1.5872-38.0416-16.4352-23.04-43.3152-38.1952-73.728-38.1952z m-310.3744-28.0064h213.5552v28.0064H415.0272v-28.0064z m140.288 130.048c0 20.4288-16.5888 37.0176-37.0176 37.0176S481.28 450.9184 481.28 430.4896s16.5888-37.0176 37.0176-37.0176 37.0176 16.5888 37.0176 37.0176z m164.1984 112.5888H324.5568c-16.384 0-29.6448-13.2608-29.6448-29.6448s13.2608-29.6448 29.6448-29.6448h394.9568c16.384 0 29.6448 13.2608 29.6448 29.6448s-13.2608 29.6448-29.6448 29.6448z" fill="#FF7E3E" p-id="5218"></path><path d="M564.3776 543.0784H324.5568c-16.384 0-29.6448-13.2608-29.6448-29.6448s13.2608-29.6448 29.6448-29.6448h284.16c40.704-64.9216 65.3312-140.9536 68.3008-222.5152-8.704-11.6736-22.1696-20.1728-38.3488-20.1728H404.9408c-28.9792 0-49.2032 27.136-49.2032 51.456v35.84h-37.4784c-49.8176 0-90.368 40.5504-90.368 90.368v268.9536c0 2.56 0.1536 5.12 0.4096 7.6288 133.7856-0.4608 253.8496-59.2384 336.0768-152.2688z m-46.08-75.5712c-20.4288 0-37.0176-16.5888-37.0176-37.0176s16.5888-37.0176 37.0176-37.0176 37.0176 16.5888 37.0176 37.0176-16.5888 37.0176-37.0176 37.0176zM415.0272 300.4416h213.5552v28.0064H415.0272v-28.0064z" fill="#FF9552" p-id="5219"></path><path d="M301.6192 494.6944a29.60896 29.60896 0 0 1 21.9648-10.8544 453.25312 453.25312 0 0 0 169.1648-155.392H415.0272v-28.0064h94.2592c10.3424-18.9952 19.3536-38.7584 26.9312-59.2896H404.9408c-28.9792 0-49.2032 27.136-49.2032 51.456v35.84h-37.4784c-49.8176 0-90.368 40.5504-90.368 90.368v102.2976c25.4976-6.656 50.176-15.5648 73.728-26.4192z" fill="#FFA56A" p-id="5220"></path></svg>