<svg class="icon" style="width: 1em;height: 1em;vertical-align: middle;fill: currentColor;overflow: hidden;" viewBox="0 0 1024 1024" version="1.1" xmlns="http://www.w3.org/2000/svg" p-id="6300"><path d="M510.5152 514.2016m-450.816 0a450.816 450.816 0 1 0 901.632 0 450.816 450.816 0 1 0-901.632 0Z" fill="#E9F4FF" p-id="6301"></path><path d="M790.528 428.0832h-5.632l-67.5328-186.2656a43.83232 43.83232 0 0 0-41.216-28.8768H341.6576c-18.944 0-35.7376 12.1856-41.6768 30.208L239.36 428.0832h-8.8576c-26.3168 0-47.616 21.2992-47.616 47.616v190.2592c0 26.3168 21.2992 47.616 47.616 47.616h25.5488v55.5008c0 13.3632 10.8544 24.2176 24.2176 24.2176h84.992c13.3632 0 24.2176-10.8544 24.2176-24.2176v-55.5008h238.336v55.5008c0 13.3632 10.8544 24.2176 24.2176 24.2176h84.992c13.3632 0 24.2176-10.8544 24.2176-24.2176v-55.5008h29.3376c26.3168 0 47.616-21.2992 47.616-47.616V475.6992c-0.0512-26.3168-21.3504-47.616-47.6672-47.616z m-470.9888 195.2768c-24.9344 0-45.2096-20.224-45.2096-45.2096s20.224-45.2096 45.2096-45.2096 45.2096 20.224 45.2096 45.2096-20.224 45.2096-45.2096 45.2096z m-2.1504-158.2592c-16.2816 0-29.4912-13.2096-29.4912-29.4912s13.2096-29.4912 29.4912-29.4912h386.2528c16.2816 0 29.4912 13.2096 29.4912 29.4912s-13.2096 29.4912-29.4912 29.4912H317.3888z m374.9888 158.2592c-24.9344 0-45.2096-20.224-45.2096-45.2096s20.224-45.2096 45.2096-45.2096c24.9344 0 45.2096 20.224 45.2096 45.2096s-20.2752 45.2096-45.2096 45.2096z" fill="#2595E8" p-id="6302"></path><path d="M717.3632 241.8176a43.83232 43.83232 0 0 0-41.216-28.8768H341.6576c-18.944 0-35.7376 12.1856-41.6768 30.208L239.36 428.0832h-8.8576c-26.3168 0-47.616 21.2992-47.616 47.616v190.2592c0 26.3168 21.2992 47.616 47.616 47.616h25.5488v55.5008c0 13.3632 10.8544 24.2176 24.2176 24.2176h84.992c13.3632 0 24.2176-10.8544 24.2176-24.2176v-55.5008h204.4928a440.69888 440.69888 0 0 0 90.2656-90.9824c-21.0944-3.84-37.12-22.2208-37.12-44.4416 0-24.9344 20.224-45.2096 45.2096-45.2096 14.336 0 27.0336 6.656 35.328 17.0496a435.2 435.2 0 0 0 41.4208-165.4784l-51.712-142.6944z m-397.824 381.5424c-24.9344 0-45.2096-20.224-45.2096-45.2096 0-24.9344 20.224-45.2096 45.2096-45.2096s45.2096 20.224 45.2096 45.2096-20.224 45.2096-45.2096 45.2096z m384.1024-158.2592H317.3888c-16.2816 0-29.4912-13.2096-29.4912-29.4912 0-16.2816 13.2096-29.4912 29.4912-29.4912h386.2528c16.2816 0 29.4912 13.2096 29.4912 29.4912 0.0512 16.2816-13.1584 29.4912-29.4912 29.4912z" fill="#3A9CED" p-id="6303"></path><path d="M287.8976 435.6096c0-16.2816 13.2096-29.4912 29.4912-29.4912h284.7232c29.696-58.112 46.7456-123.6992 47.616-193.2288H341.6576c-18.944 0-35.7376 12.1856-41.6768 30.208L239.36 428.0832h-8.8576c-26.3168 0-47.616 21.2992-47.616 47.616v168.6016c9.5232 0.6144 19.0976 0.9728 28.7232 0.9728 145.5104 0 274.432-70.9632 354.1504-180.1728H317.3888c-16.2816 0-29.4912-13.2096-29.4912-29.4912z m76.8512 142.592c0 24.9344-20.224 45.2096-45.2096 45.2096s-45.2096-20.224-45.2096-45.2096c0-24.9344 20.224-45.2096 45.2096-45.2096s45.2096 20.224 45.2096 45.2096z" fill="#59ADF8" p-id="6304"></path><path d="M290.4064 447.488c-1.5872-3.6352-2.5088-7.6288-2.5088-11.8784 0-16.2816 13.2096-29.4912 29.4912-29.4912h42.1376c66.5088-48.5888 118.8864-115.456 149.5552-193.2288h-167.424c-18.944 0-35.7376 12.1856-41.6768 30.208L239.36 428.0832h-8.8576c-26.3168 0-47.616 21.2992-47.616 47.616v6.912a433.20832 433.20832 0 0 0 107.52-35.1232z" fill="#6BC2FC" p-id="6305"></path></svg>