<svg class="icon" style="width: 1em;height: 1em;vertical-align: middle;fill: currentColor;overflow: hidden;" viewBox="0 0 1024 1024" version="1.1" xmlns="http://www.w3.org/2000/svg" p-id="5230"><path d="M512.2048 508.928m-450.816 0a450.816 450.816 0 1 0 901.632 0 450.816 450.816 0 1 0-901.632 0Z" fill="#E3FFF3" p-id="5231"></path><path d="M814.9504 530.5856l-86.5792-263.5776c-5.376-16.3328-20.224-27.2896-37.0176-27.2896H332.8512c-16.7936 0-31.6416 10.9568-37.0176 27.2896L209.408 530.5856c-1.3824 4.1472-2.048 8.448-2.048 12.8512v174.08c0 22.1184 17.5104 40.1408 39.0656 40.1408h67.6352c17.5104 0 32.9728-12.1344 37.632-29.4912l10.496-39.2192c0.6144-2.2528 2.3552-3.84 4.2496-3.84h287.232c1.4848 0 2.9696 1.024 3.7888 2.6112l25.088 48.64c6.8096 13.1584 20.0192 21.3504 34.5088 21.3504h60.8768c21.5552 0 39.0656-18.0224 39.0656-40.1408v-174.08c0-4.4544-0.6656-8.7552-2.048-12.9024zM339.4048 414.2592L360.704 327.68c2.8672-6.7584 8.6016-11.008 14.8992-11.008h271.6672c6.2976 0 12.0832 4.2496 14.8992 11.008l21.2992 86.5792c5.6832 13.4144-2.4064 29.3376-14.8992 29.3376H354.3552c-12.544-0.0512-20.6336-15.9744-14.9504-29.3376z m47.5648 188.9792H320.8192c-11.7248 0-21.1968-9.472-21.1968-21.1968v-29.696c0-11.7248 9.472-21.1968 21.1968-21.1968h7.8336c32.2048 0 58.3168 26.112 58.3168 58.3168v13.7728z m341.7088-21.1968c0 11.7248-9.472 21.1968-21.1968 21.1968h-66.1504v-13.7728c0-32.2048 26.112-58.3168 58.3168-58.3168h7.8336c11.7248 0 21.1968 9.472 21.1968 21.1968v29.696z" fill="#05C46D" p-id="5232"></path><path d="M728.3712 267.008c-5.376-16.3328-20.224-27.2896-37.0176-27.2896H332.8512c-16.7936 0-31.6416 10.9568-37.0176 27.2896L209.408 530.5856c-1.3824 4.1472-2.048 8.448-2.048 12.8v174.08c0 22.1184 17.5104 40.1408 39.0656 40.1408h67.6352c17.5104 0 32.9728-12.1344 37.632-29.4912l10.496-39.2704c0.6144-2.2528 2.3552-3.84 4.2496-3.84h287.232c1.4848 0 2.9696 1.024 3.7888 2.6112l0.8192 1.6384c65.7408-63.5904 112.1792-146.9952 129.6896-240.64l-59.5968-181.6064zM339.4048 414.2592L360.704 327.68c2.8672-6.7584 8.6016-11.008 14.8992-11.008h271.6672c6.2976 0 12.0832 4.2496 14.8992 11.008l21.2992 86.5792c5.6832 13.4144-2.4064 29.3376-14.8992 29.3376H354.3552c-12.544-0.0512-20.6336-15.9744-14.9504-29.3376z m47.5648 188.9792H320.8192c-11.7248 0-21.1968-9.472-21.1968-21.1968v-29.696c0-11.7248 9.472-21.1968 21.1968-21.1968h7.8336c32.2048 0 58.3168 26.112 58.3168 58.3168v13.7728z m320.512 0h-66.1504v-13.7728c0-32.2048 26.112-58.3168 58.3168-58.3168h7.8336c11.7248 0 21.1968 9.472 21.1968 21.1968v29.696c0 11.7248-9.472 21.1968-21.1968 21.1968z" fill="#1DCE75" p-id="5233"></path><path d="M221.6448 655.9744c161.4336 0 303.0528-84.8896 382.6688-212.4288H354.3552c-12.4928 0-20.5824-15.9232-14.8992-29.3376l21.2992-86.5792c2.8672-6.7584 8.6016-11.008 14.8992-11.008h271.6672c3.7376 0 7.2704 1.536 10.1376 4.1472a450.23232 450.23232 0 0 0 13.6704-81.1008H332.8512c-16.7936 0-31.6416 10.9568-37.0176 27.2896L209.408 530.5856c-1.3824 4.1472-2.048 8.448-2.048 12.8v112.3328c4.7616 0.1536 9.5232 0.256 14.2848 0.256z m77.9776-103.6288c0-11.7248 9.472-21.1968 21.1968-21.1968h7.8336c32.2048 0 58.3168 26.112 58.3168 58.3168v13.7728H320.8192c-11.7248 0-21.1968-9.472-21.1968-21.1968v-29.696z" fill="#3CD38E" p-id="5234"></path><path d="M339.5072 432.64a23.69536 23.69536 0 0 1-0.1024-18.432l21.2992-86.5792c2.8672-6.7584 8.6016-11.008 14.8992-11.008H468.48c18.0224-23.9104 33.6896-49.664 46.7456-76.9024H332.8512c-16.7936 0-31.6416 10.9568-37.0176 27.2896l-70.144 213.9136a446.7712 446.7712 0 0 0 113.8176-48.2816z" fill="#48E1AA" p-id="5235"></path></svg>