<svg class="icon" style="width: 1em;height: 1em;vertical-align: middle;fill: currentColor;overflow: hidden;" viewBox="0 0 1024 1024" version="1.1" xmlns="http://www.w3.org/2000/svg" p-id="4187"><path d="M504.3712 509.5936m-450.816 0a450.816 450.816 0 1 0 901.632 0 450.816 450.816 0 1 0-901.632 0Z" fill="#E9F4FF" p-id="4188"></path><path d="M143.0528 584.8576l183.808 69.0688a11.264 11.264 0 0 0 11.6224-2.304l279.7568-261.4272c0.9216-0.8704 2.3552 0.4096 1.536 1.4336l-213.8624 272.0768c-4.6592 5.9392-2.2528 14.6944 4.8128 17.408l231.9872 88.8832c6.5536 2.5088 13.7216-1.536 15.0528-8.3968l102.2976-536.7296c1.792-9.472-8.3456-16.64-16.6912-11.776L141.312 564.6848c-8.1408 4.7616-7.1168 16.8448 1.7408 20.1728zM399.2576 714.7008l54.4768 23.7568c7.3216 3.1744 9.0624 12.8512 3.2768 18.3808l-54.4768 52.4288c-7.1168 6.8608-18.9952 1.792-18.9952-8.0896V724.992c0-8.0896 8.2944-13.5168 15.7184-10.2912z" fill="#2595E8" p-id="4189"></path><path d="M413.952 653.3632a300.91264 300.91264 0 0 0 91.3408 14.1824c68.4544 0 131.5328-22.9376 182.0672-61.4912l72.6528-381.1328c1.792-9.472-8.3456-16.64-16.6912-11.776L239.616 507.2896a301.75744 301.75744 0 0 0 121.344 123.3408l257.2288-240.384c0.9216-0.8704 2.3552 0.4096 1.536 1.4336l-205.7728 261.6832z" fill="#3A9CED" p-id="4190"></path><path d="M493.2096 552.5504c132.096-31.5904 230.2976-150.3232 230.2976-292.0448 0-11.7248-0.768-23.2448-2.048-34.6112L246.3744 503.296c49.6128 36.1472 110.6432 57.5488 176.7424 57.5488 4.3008 0 8.5504-0.1536 12.7488-0.3072l182.272-170.3424c0.9216-0.8704 2.3552 0.4096 1.536 1.4336l-126.464 160.9216z" fill="#59ADF8" p-id="4191"></path><path d="M347.5456 454.5536c118.272 0 220.5696-68.4032 269.5168-167.7824L330.7008 454.0928c5.5808 0.3072 11.2128 0.4608 16.8448 0.4608z" fill="#6BC2FC" p-id="4192"></path></svg>