<svg class="icon" style="width: 1em;height: 1em;vertical-align: middle;fill: currentColor;overflow: hidden;" viewBox="0 0 1024 1024" version="1.1" xmlns="http://www.w3.org/2000/svg" p-id="898"><path d="M516.9664 513.3312m-450.816 0a450.816 450.816 0 1 0 901.632 0 450.816 450.816 0 1 0-901.632 0Z" fill="#E3FFF3" p-id="899"></path><path d="M447.8464 232.6528H287.4368a43.6224 43.6224 0 0 0-43.6224 43.6224v159.0272a43.6224 43.6224 0 0 0 43.6224 43.6224h160.4096a43.6224 43.6224 0 0 0 43.6224-43.6224V276.2752c0-24.064-19.5072-43.6224-43.6224-43.6224z" fill="#3CD38E" p-id="900"></path><path d="M447.8464 532.6336H287.4368a43.6224 43.6224 0 0 0-43.6224 43.6224v159.0272a43.6224 43.6224 0 0 0 43.6224 43.6224h160.4096a43.6224 43.6224 0 0 0 43.6224-43.6224v-159.0784c0-24.0128-19.5072-43.5712-43.6224-43.5712zM588.6464 478.976h160.3584a43.6224 43.6224 0 0 0 43.6224-43.6224V276.2752a43.6224 43.6224 0 0 0-43.6224-43.6224h-160.3584a43.6224 43.6224 0 0 0-43.6224 43.6224v159.0272c-0.0512 24.1152 19.5072 43.6736 43.6224 43.6736z" fill="#30CE77" p-id="901"></path><path d="M577.024 529.8688c-17.7664 0-32.1536 14.3872-32.1536 32.1536v197.632c0 17.7664 14.3872 32.1536 32.1536 32.1536s32.1536-14.3872 32.1536-32.1536v-197.632c0-17.7664-14.3872-32.1536-32.1536-32.1536zM760.7296 529.8688c-17.7664 0-32.1536 14.3872-32.1536 32.1536v197.632c0 17.7664 14.3872 32.1536 32.1536 32.1536s32.1536-14.3872 32.1536-32.1536v-197.632c0-17.7664-14.3872-32.1536-32.1536-32.1536zM671.5392 592.128c-17.7664 0-32.1536 14.3872-32.1536 32.1536v135.3728c0 17.7664 14.3872 32.1536 32.1536 32.1536s32.1536-14.3872 32.1536-32.1536v-135.3728c0-17.7152-14.3872-32.1536-32.1536-32.1536z" fill="#05C46D" p-id="902"></path><path d="M577.024 529.8688c-17.7664 0-32.1536 14.3872-32.1536 32.1536v197.632c0 4.4032 0.8704 8.6016 2.5088 12.3904 21.5552-9.5744 42.1888-20.736 61.7984-33.3824v-176.64c0-17.7664-14.3872-32.1536-32.1536-32.1536zM703.6928 657.0496v-32.768c0-17.7664-14.3872-32.1536-32.1536-32.1536s-32.1536 14.3872-32.1536 32.1536v92.9792c23.3472-17.92 44.9024-38.0928 64.3072-60.2112zM779.8272 536.1664a31.9488 31.9488 0 0 0-19.0464-6.2976c-17.7664 0-32.1536 14.3872-32.1536 32.1536v64.0512a449.9456 449.9456 0 0 0 51.2-89.9072z" fill="#30CE77" p-id="903"></path><path d="M243.8144 576.256v74.1376c91.5456-0.4608 176.64-28.2112 247.552-75.52a43.5712 43.5712 0 0 0-43.5712-42.24H287.4368c-24.064 0-43.6224 19.5584-43.6224 43.6224zM588.6464 232.6528a43.6224 43.6224 0 0 0-43.6224 43.6224v159.0272a43.6224 43.6224 0 0 0 43.6224 43.6224h6.7584c54.3232-68.7104 89.0368-153.6512 95.744-246.3232h-102.5024z" fill="#3CD38E" p-id="904"></path><path d="M491.4688 306.9952v-30.6688a43.6224 43.6224 0 0 0-43.6224-43.6224H287.4368a43.6224 43.6224 0 0 0-43.6224 43.6224v159.0272c0 14.592 7.168 27.4432 18.176 35.3792 92.9792-28.8768 173.056-87.0912 229.4784-163.7376z" fill="#48E1AA" p-id="905"></path></svg>