<svg class="icon" style="width: 1em;height: 1em;vertical-align: middle;fill: currentColor;overflow: hidden;" viewBox="0 0 1024 1024" version="1.1" xmlns="http://www.w3.org/2000/svg" p-id="4795"><path d="M507.392 514.7136m-450.816 0a450.816 450.816 0 1 0 901.632 0 450.816 450.816 0 1 0-901.632 0Z" fill="#E9F4FF" p-id="4796"></path><path d="M629.504 286.4128H387.2768a32.256 32.256 0 0 1-32.256-32.256 32.256 32.256 0 0 1 32.256-32.256h242.2272a32.256 32.256 0 1 1 0 64.512z" fill="#59ADF8" p-id="4797"></path><path d="M776.0896 315.5456H242.0736c-17.664 0-33.0752 13.6192-33.5872 31.2832a32.21504 32.21504 0 0 0 32.256 33.2288h37.6832v368.4864c0 32.2048 26.112 58.2656 58.2656 58.2656h343.5008c32.2048 0 58.2656-26.112 58.2656-58.2656V380.0576h36.3008c17.664 0 33.0752-13.6192 33.5872-31.2832 0.512-18.2784-14.1312-33.2288-32.256-33.2288zM453.12 635.8016a32.256 32.256 0 0 1-32.256 32.256 32.256 32.256 0 0 1-32.256-32.256V481.1264a32.256 32.256 0 0 1 32.256-32.256 32.256 32.256 0 0 1 32.256 32.256v154.6752z m175.0528 0a32.256 32.256 0 0 1-32.256 32.256 32.256 32.256 0 0 1-32.256-32.256V481.1264a32.256 32.256 0 0 1 32.256-32.256 32.256 32.256 0 0 1 32.256 32.256v154.6752z" fill="#2595E8" p-id="4798"></path><path d="M738.4064 624.9984V380.0576h36.3008c17.664 0 33.0752-13.6192 33.5872-31.2832a32.21504 32.21504 0 0 0-32.256-33.2288H242.0224c-17.664 0-33.0752 13.6192-33.5872 31.2832a32.21504 32.21504 0 0 0 32.256 33.2288h37.6832v368.4864c0 32.2048 26.112 58.2656 58.2656 58.2656h142.2336c107.0592-27.4432 198.7072-93.2352 259.5328-181.8112z m-174.7456-143.872a32.256 32.256 0 0 1 32.256-32.256 32.256 32.256 0 0 1 32.256 32.256v154.6752a32.256 32.256 0 0 1-32.256 32.256 32.256 32.256 0 0 1-32.256-32.256V481.1264zM420.864 668.0576a32.256 32.256 0 0 1-32.256-32.256V481.1264a32.256 32.256 0 0 1 32.256-32.256 32.256 32.256 0 0 1 32.256 32.256v154.6752a32.256 32.256 0 0 1-32.256 32.256z" fill="#3A9CED" p-id="4799"></path><path d="M242.0736 315.5456c-17.664 0-33.0752 13.6192-33.5872 31.2832a32.21504 32.21504 0 0 0 32.256 33.2288h37.6832v279.3984a449.4848 449.4848 0 0 0 110.2848-22.6304c0-0.3584-0.0512-0.6656-0.0512-1.024V481.1264a32.256 32.256 0 0 1 32.256-32.256 32.256 32.256 0 0 1 32.256 32.256v127.8976a451.3792 451.3792 0 0 0 110.5408-81.9712v-45.9264a32.256 32.256 0 0 1 32.256-32.256c9.1648 0 17.408 3.84 23.2448 9.9328a447.96416 447.96416 0 0 0 62.4128-143.2576H242.0736z" fill="#59ADF8" p-id="4800"></path><path d="M546.8672 221.8496H387.2768c-17.8176 0-32.256 14.4384-32.256 32.256s14.4384 32.256 32.256 32.256h126.7712a443.904 443.904 0 0 0 32.8192-64.512zM208.4864 346.8288a32.21504 32.21504 0 0 0 32.256 33.2288h37.6832v96.1536c87.4496-30.5152 162.6112-87.1936 216.1152-160.6656h-252.416c-17.7152 0-33.1264 13.6192-33.6384 31.2832z" fill="#6BC2FC" p-id="4801"></path></svg>