<svg class="icon" style="width: 1em;height: 1em;vertical-align: middle;fill: currentColor;overflow: hidden;" viewBox="0 0 1024 1024" version="1.1" xmlns="http://www.w3.org/2000/svg" p-id="5295"><path d="M507.392 513.1264m-450.816 0a450.816 450.816 0 1 0 901.632 0 450.816 450.816 0 1 0-901.632 0Z" fill="#FFF1DC" p-id="5296"></path><path d="M813.0048 379.9552v-38.0416c0-40.2944-31.9488-73.1136-71.2192-73.1136H271.5136c-39.2704 0-71.2192 32.768-71.2192 73.1136v38.0416h612.7104zM200.2944 446.5152v229.2224c0 40.2944 31.9488 73.1136 71.2192 73.1136h470.272c39.2704 0 71.2192-32.768 71.2192-73.1136V446.5152H200.2944z m235.0592 112.64H327.0656a33.28 33.28 0 1 1 0-66.56h108.3392c18.3808 0 33.28 14.8992 33.28 33.28s-14.9504 33.28-33.3312 33.28z" fill="#FC7032" p-id="5297"></path><path d="M736.1536 268.8H271.5136c-39.2704 0-71.2192 32.768-71.2192 73.1136v38.0416h556.032a447.9488 447.9488 0 0 0-20.1728-111.1552zM200.2944 446.5152v229.2224c0 40.2944 31.9488 73.1136 71.2192 73.1136h325.9392c87.6544-74.24 146.5344-181.4016 157.6448-302.336H200.2944z m235.0592 112.64H327.0656a33.28 33.28 0 1 1 0-66.56h108.3392c18.3808 0 33.28 14.8992 33.28 33.28s-14.9504 33.28-33.3312 33.28z" fill="#FF7E3E" p-id="5298"></path><path d="M633.088 268.8H271.5136c-39.2704 0-71.2192 32.768-71.2192 73.1136v38.0416h412.7232a447.872 447.872 0 0 0 20.0704-111.1552zM586.0864 446.5152H200.2944v229.2224c0 6.656 0.9728 13.1072 2.6112 19.2512 167.8848-7.2704 311.9616-106.4448 383.1808-248.4736z m-150.7328 112.64H327.0656a33.28 33.28 0 1 1 0-66.56h108.3392c18.3808 0 33.28 14.8992 33.28 33.28s-14.9504 33.28-33.3312 33.28z" fill="#FF9552" p-id="5299"></path><path d="M481.3312 268.8H271.5136c-39.2704 0-71.2192 32.768-71.2192 73.1136v38.0416h210.2784A451.05664 451.05664 0 0 0 481.3312 268.8zM200.2944 516.6592a449.2288 449.2288 0 0 0 138.752-70.144h-138.752v70.144z" fill="#FFA56A" p-id="5300"></path></svg>