<svg class="icon" style="width: 1em;height: 1em;vertical-align: middle;fill: currentColor;overflow: hidden;" viewBox="0 0 1024 1024" version="1.1" xmlns="http://www.w3.org/2000/svg" p-id="6315"><path d="M513.792 514.2016m-450.816 0a450.816 450.816 0 1 0 901.632 0 450.816 450.816 0 1 0-901.632 0Z" fill="#FFE3DB" p-id="6316"></path><path d="M775.3728 724.736h-145.408V437.9136h20.5824v183.9104c0 37.6832 30.6688 68.352 68.352 68.352s68.352-30.6688 68.352-68.352V397.1584c0-17.152-6.4-33.5872-18.0224-46.2336l-39.5264-43.0592a27.392 27.392 0 0 0-38.7584-1.6384 27.392 27.392 0 0 0-1.6384 38.7584l39.5264 43.0592c2.304 2.5088 3.5328 5.7344 3.5328 9.1136v224.6656c0 7.424-6.0416 13.4656-13.4656 13.4656s-13.4656-6.0416-13.4656-13.4656V429.2608c0-25.4976-20.736-46.2336-46.2336-46.2336h-29.2864V254.1568c0-26.5216-21.504-48.0256-48.0256-48.0256H325.632a48.0256 48.0256 0 0 0-48.0256 48.0256v470.5792h-20.7872a27.4432 27.4432 0 0 0 0 54.8864h518.5024c15.1552 0 27.4432-12.288 27.4432-27.4432s-12.2368-27.4432-27.392-27.4432zM391.2192 293.7856h125.1328a27.4432 27.4432 0 0 1 0 54.8864H391.2192a27.4432 27.4432 0 0 1 0-54.8864z" fill="#F23D4F" p-id="6317"></path><path d="M629.9648 654.336V437.9136h20.5824v183.9104c0 2.9696 0.256 5.888 0.6144 8.7552 20.8896-25.088 39.1168-52.4288 54.272-81.664V429.2608c0-25.4976-20.736-46.2336-46.2336-46.2336h-29.2864V254.1568c0-26.5216-21.504-48.0256-48.0256-48.0256H325.632a48.0256 48.0256 0 0 0-48.0256 48.0256v470.5792h-20.7872a27.4432 27.4432 0 0 0 0 54.8864h156.928c83.7632-20.7872 158.3104-65.024 216.2176-125.2864zM363.776 321.2288c0-15.1552 12.288-27.4432 27.4432-27.4432h125.1328a27.4432 27.4432 0 0 1 0 54.8864H391.2192a27.4432 27.4432 0 0 1-27.4432-27.4432zM690.9952 306.176a27.392 27.392 0 0 0-1.6384 38.7584l39.5264 43.0592c2.304 2.5088 3.5328 5.7344 3.5328 9.1136v88.064c15.0528-44.9536 23.1936-93.0816 23.1936-143.1552 0-2.048-0.0512-4.096-0.1024-6.144l-25.7536-28.1088c-10.24-11.0592-27.5968-11.8272-38.7584-1.5872z" fill="#FC4956" p-id="6318"></path><path d="M628.3264 241.92c-5.4272-20.5824-24.1152-35.7888-46.3872-35.7888H325.632a48.0256 48.0256 0 0 0-48.0256 48.0256v368.3328c183.7056-39.8848 325.632-191.7952 350.72-380.5696zM391.2192 293.7856h125.1328a27.4432 27.4432 0 0 1 0 54.8864H391.2192a27.4432 27.4432 0 0 1 0-54.8864z" fill="#FF5C64" p-id="6319"></path><path d="M381.2352 346.7264c-10.1888-3.9936-17.4592-13.8752-17.4592-25.4976 0-15.1552 12.288-27.4432 27.4432-27.4432h36.864a450.86208 450.86208 0 0 0 51.8144-87.6544H325.632a48.0256 48.0256 0 0 0-48.0256 48.0256v167.5264a451.03104 451.03104 0 0 0 103.6288-74.9568z" fill="#FF716E" p-id="6320"></path></svg>