<svg class="icon" style="width: 1em;height: 1em;vertical-align: middle;fill: currentColor;overflow: hidden;" viewBox="0 0 1024 1024" version="1.1" xmlns="http://www.w3.org/2000/svg" p-id="5278"><path d="M514.2528 509.5936m-450.816 0a450.816 450.816 0 1 0 901.632 0 450.816 450.816 0 1 0-901.632 0Z" fill="#FBE1FF" p-id="5279"></path><path d="M677.0176 557.4144c-64.512 0-116.992 52.48-116.992 116.9408s52.48 116.992 116.992 116.992 116.992-52.48 116.992-116.992-52.48-116.9408-116.992-116.9408z m39.8336 141.568h-15.7696v19.456c0 13.3632-10.8544 24.2176-24.2176 24.2176-13.3632 0-24.2176-10.8544-24.2176-24.2176v-19.456h-16.9984c-13.3632 0-24.2176-10.8544-24.2176-24.2176s10.8544-24.2176 24.2176-24.2176h16.9984v-16.5888c0-13.3632 10.8544-24.2176 24.2176-24.2176 13.3632 0 24.2176 10.8544 24.2176 24.2176v16.5888h15.7696c13.3632 0 24.2176 10.8544 24.2176 24.2176s-10.8032 24.2176-24.2176 24.2176z" fill="#BD50D3" p-id="5280"></path><path d="M513.1264 200.448c-170.752 0-309.1968 138.4448-309.1968 309.1968s138.4448 309.1968 309.1968 309.1968c26.8288 0 52.7872-3.4304 77.6192-9.8304-44.288-28.416-73.6256-78.08-73.6256-134.6048 0-88.32 71.5776-159.8976 159.8976-159.8976 56.7808 0 106.6496 29.6448 135.0144 74.2912 6.656-25.2928 10.2912-51.7632 10.2912-79.1552-0.0512-170.8032-138.4448-309.1968-309.1968-309.1968z m34.304 310.4768c0 17.0496-13.824 30.8224-30.8224 30.8224H357.6832a30.8224 30.8224 0 1 1 0-61.6448h128.1024v-155.648a30.8224 30.8224 0 1 1 61.6448 0v186.4704z" fill="#BD50D3" p-id="5281"></path><path d="M513.1264 200.448c-170.752 0-309.1968 138.4448-309.1968 309.1968 0 142.9504 97.024 263.168 228.8128 298.5472 39.6288-9.728 77.056-25.0368 111.4112-44.9536a158.75072 158.75072 0 0 1-27.0336-88.832c0-88.32 71.5776-159.8976 159.8976-159.8976 20.8384 0 40.704 3.9936 58.9312 11.264a425.47712 425.47712 0 0 0 20.5824-131.1232c0-29.4912-3.0208-58.2656-8.704-86.1184-56.6784-66.1504-140.7488-108.0832-234.7008-108.0832z m34.304 310.4768c0 17.0496-13.824 30.8224-30.8224 30.8224H357.6832a30.8224 30.8224 0 1 1 0-61.6448h128.1024v-155.648a30.8224 30.8224 0 1 1 61.6448 0v186.4704z" fill="#BF5CD6" p-id="5282"></path><path d="M560.0256 674.3552c0 24.2176 7.424 46.7456 20.0704 65.4336 17.5104-12.6464 33.9968-26.624 49.3568-41.728-10.3936-2.7648-18.0736-12.0832-18.0736-23.3472 0-13.3632 10.8544-24.2176 24.2176-24.2176h16.9984v-16.5888a24.23296 24.23296 0 0 1 41.4208-17.0496c9.984-16.2816 18.8928-33.28 26.624-50.944a115.82976 115.82976 0 0 0-43.6736-8.4992c-64.4608 0-116.9408 52.48-116.9408 116.9408z" fill="#BF5CD6" p-id="5283"></path><path d="M203.9296 509.5936c0 57.9072 15.9232 112.0256 43.6224 158.3616 105.6768-8.192 200.4992-54.9888 270.4896-126.2592-0.4608 0-0.9728 0.0512-1.4336 0.0512H357.6832a30.8224 30.8224 0 1 1 0-61.6448h128.1024v-155.648a30.8224 30.8224 0 1 1 61.6448 0v184.0128C605.3888 435.712 640 343.552 640 243.3536c0-5.2736-0.1536-10.5472-0.3072-15.7696a308.22912 308.22912 0 0 0-126.6176-27.136c-170.7008 0-309.1456 138.3936-309.1456 309.1456z" fill="#CA6EE0" p-id="5284"></path><path d="M203.9808 507.392c153.6512-35.7888 275.3536-154.7264 315.0848-306.8416-1.9968-0.0512-3.9424-0.1536-5.9392-0.1536-170.0352 0.0512-307.968 137.2672-309.1456 306.9952z" fill="#D786EA" p-id="5285"></path></svg>