<svg class="icon" style="width: 1em;height: 1em;vertical-align: middle;fill: currentColor;overflow: hidden;" viewBox="0 0 1024 1024" version="1.1" xmlns="http://www.w3.org/2000/svg" p-id="4157"><path d="M511.744 509.5936m-450.816 0a450.816 450.816 0 1 0 901.632 0 450.816 450.816 0 1 0-901.632 0Z" fill="#FFF1DC" p-id="4158"></path><path d="M826.0096 385.28c0-70.6048-57.2416-127.8464-127.8464-127.8464-50.7904 0-94.6176 29.5936-115.2512 72.4992A255.21152 255.21152 0 0 0 440.32 329.3696c-20.736-42.5984-64.4608-71.936-114.9952-71.936-70.6048 0-127.8464 57.2416-127.8464 127.8464 0 49.408 28.0064 92.2112 69.0176 113.5104a256.23552 256.23552 0 0 0-11.6224 76.3904c0 141.2096 114.4832 255.6928 255.6928 255.6928s255.6928-114.4832 255.6928-255.6928c0-26.2656-3.9936-51.5584-11.3152-75.4176 42.1376-20.8896 71.0656-64.3072 71.0656-114.4832z m-174.3872 250.4704c-15.7184 52.0192-73.1136 88.32-139.6224 88.32-68.0448 0-125.7984-37.4272-140.3392-90.9824-4.9152-18.1248 5.7856-36.864 23.9104-41.7792 18.1248-4.9664 36.864 5.7856 41.7792 23.9104 5.376 19.7632 33.3824 40.7552 74.7008 40.7552 40.4992 0 68.608-20.5824 74.4448-39.936 5.4272-17.9712 24.4224-28.16 42.4448-22.7328 17.92 5.4784 28.1088 24.4736 22.6816 42.4448z" fill="#FC7032" p-id="4159"></path><path d="M782.0288 352.768c0-23.1936-1.7408-45.9776-5.12-68.1984-21.7088-16.9984-48.9984-27.136-78.7456-27.136-50.7904 0-94.6176 29.5936-115.3024 72.4992a255.21152 255.21152 0 0 0-142.592-0.5632c-20.736-42.5984-64.4608-71.936-114.9952-71.936-70.6048 0-127.8464 57.2416-127.8464 127.8464 0 49.408 28.0064 92.2112 69.0176 113.5104a256.23552 256.23552 0 0 0-11.6224 76.3904c0 97.024 54.0672 181.4528 133.6832 224.768 170.7008-21.7088 311.6032-138.9056 367.5136-296.3456-0.3584-1.28-0.7168-2.56-1.1264-3.84 1.024-0.512 2.048-1.1264 3.072-1.6384 15.616-45.568 24.064-94.464 24.064-145.3568z m-130.4064 282.9824c-15.7184 52.0192-73.1136 88.32-139.6224 88.32-68.0448 0-125.7984-37.4272-140.3392-90.9824-4.9152-18.1248 5.7856-36.864 23.9104-41.7792 18.1248-4.9664 36.864 5.7856 41.7792 23.9104 5.376 19.7632 33.3824 40.7552 74.7008 40.7552 40.4992 0 68.608-20.5824 74.4448-39.936 5.4272-17.9712 24.4224-28.16 42.4448-22.7328 17.92 5.4784 28.1088 24.4736 22.6816 42.4448z" fill="#FF7E3E" p-id="4160"></path><path d="M582.912 329.9328A255.21152 255.21152 0 0 0 440.32 329.3696c-20.736-42.5984-64.4608-71.936-114.9952-71.936-70.6048 0-127.8464 57.2416-127.8464 127.8464 0 49.408 28.0064 92.2112 69.0176 113.5104a256.23552 256.23552 0 0 0-11.6224 76.3904c0 22.4256 2.9184 44.1856 8.3456 64.9216a447.6928 447.6928 0 0 0 109.312-27.648 33.96608 33.96608 0 0 1 43.9296-20.0704c123.3408-64.512 213.0944-184.4224 236.288-326.656a128.32768 128.32768 0 0 0-69.8368 64.2048z" fill="#FF9552" p-id="4161"></path><path d="M438.0672 325.0176c-21.5552-40.192-63.8976-67.584-112.6912-67.584-70.6048 0-127.8464 57.2416-127.8464 127.8464 0 30.0032 10.3936 57.6 27.7504 79.4112C309.1456 439.296 382.6688 390.144 438.0672 325.0176z" fill="#FFA56A" p-id="4162"></path></svg>