<svg class="icon" style="width: 1em;height: 1em;vertical-align: middle;fill: currentColor;overflow: hidden;" viewBox="0 0 1024 1024" version="1.1" xmlns="http://www.w3.org/2000/svg" p-id="5362"><path d="M509.44 513.1264m-450.816 0a450.816 450.816 0 1 0 901.632 0 450.816 450.816 0 1 0-901.632 0Z" fill="#E9ECFF" p-id="5363"></path><path d="M686.2336 228.4544H331.264c-50.8416 0-92.2112 41.3696-92.2112 92.2112v378.6752c0 50.8416 41.3696 92.2112 92.2112 92.2112l222.2592 0.1024-50.9952-88.32a21.92896 21.92896 0 0 1 0-21.8624l70.5024-122.1632a21.80096 21.80096 0 0 1 18.8928-10.9056h141.056c7.7824 0 15.0016 4.1472 18.8928 10.9056l26.5728 46.0288V320.7168c0-50.8928-41.3696-92.2624-92.2112-92.2624zM434.688 663.3472H365.4656a33.28 33.28 0 1 1 0-66.56H434.688a33.28 33.28 0 1 1 0 66.56z m65.7408-133.376H365.4656a33.28 33.28 0 1 1 0-66.56h134.9632a33.28 33.28 0 1 1 0 66.56z m154.8288-133.376h-289.792a33.28 33.28 0 1 1 0-66.56h289.792a33.28 33.28 0 1 1 0 66.56z" fill="#6C6CEA" p-id="5364"></path><path d="M729.0368 601.1392a23.97184 23.97184 0 0 0-20.7872-11.9808h-91.5968c-8.5504 0-16.4864 4.5568-20.7872 11.9808l-45.824 79.36a23.8592 23.8592 0 0 0 0 23.9616l45.824 79.36a23.97184 23.97184 0 0 0 20.7872 11.9808h91.5968c8.5504 0 16.4864-4.5568 20.7872-11.9808l45.824-79.36a23.8592 23.8592 0 0 0 0-23.9616l-45.824-79.36z m-66.6112 134.2976c-23.7568 0-42.9568-19.2512-42.9568-42.9568s19.2512-42.9568 42.9568-42.9568 42.9568 19.2512 42.9568 42.9568-19.2 42.9568-42.9568 42.9568z" fill="#6C6CEA" p-id="5365"></path><path d="M331.264 228.4544c-50.8416 0-92.2112 41.3696-92.2112 92.2112v378.6752c0 50.8416 41.3696 92.2112 92.2112 92.2112l104.5504 0.0512a450.816 450.816 0 0 0 92.4672-43.5712l-25.8048-44.6976a21.92896 21.92896 0 0 1 0-21.8624l70.5024-122.1632a21.80096 21.80096 0 0 1 18.8928-10.9056h111.104c25.1392-56.1664 39.168-118.4256 39.168-184.0128 0-44.4416-6.4512-87.3984-18.432-127.9488-11.4688-5.12-24.1664-8.0384-37.5296-8.0384H331.264z m103.424 434.8928H365.4656a33.28 33.28 0 1 1 0-66.56H434.688a33.28 33.28 0 1 1 0 66.56z m65.7408-133.376H365.4656a33.28 33.28 0 1 1 0-66.56h134.9632a33.28 33.28 0 1 1 0 66.56z m154.8288-133.376h-289.792a33.28 33.28 0 1 1 0-66.56h289.792a33.28 33.28 0 1 1 0 66.56z" fill="#757BF2" p-id="5366"></path><path d="M595.8656 601.1392l-45.824 79.36a23.8592 23.8592 0 0 0 0 23.9616l11.9296 20.6336a453.0688 453.0688 0 0 0 120.3712-135.936h-65.6896a23.808 23.808 0 0 0-20.7872 11.9808z" fill="#757BF2" p-id="5367"></path><path d="M365.4656 396.5952a33.28 33.28 0 1 1 0-66.56h235.6224a452.224 452.224 0 0 0 17.152-101.5808H331.264c-50.8416 0-92.2112 41.3696-92.2112 92.2112v328.9088c32.512-5.12 63.8976-13.7728 93.7472-25.4464 2.816-15.5648 16.384-27.3408 32.7168-27.3408h24.576a452.608 452.608 0 0 0 89.7536-66.816H365.4656a33.28 33.28 0 1 1 0-66.56h134.9632c10.9568 0 20.6336 5.3248 26.7264 13.5168a450.40128 450.40128 0 0 0 48.7424-80.3328h-210.432z" fill="#8486F8" p-id="5368"></path><path d="M345.088 389.5808a33.18784 33.18784 0 0 1-12.9024-26.2656 33.28 33.28 0 0 1 33.28-33.28h38.2976c25.1392-30.72 46.2848-64.8704 62.72-101.5808H331.264c-50.8416 0-92.2112 41.3696-92.2112 92.2112v135.6288A450.67264 450.67264 0 0 0 345.088 389.5808z" fill="#8D92F8" p-id="5369"></path></svg>