<svg class="icon" style="width: 1em;height: 1em;vertical-align: middle;fill: currentColor;overflow: hidden;" viewBox="0 0 1024 1024" version="1.1" xmlns="http://www.w3.org/2000/svg" p-id="2189"><path d="M509.184 513.1264m-450.816 0a450.816 450.816 0 1 0 901.632 0 450.816 450.816 0 1 0-901.632 0Z" fill="#E9F4FF" p-id="2190"></path><path d="M507.0336 681.0112c-142.6944 0.9728-258.2016-113.8688-258.816-257.2288-0.5632-143.4624 113.0496-258.5088 256.4096-259.584 142.592-1.0752 258.8672 113.5104 260.0448 256.3584 1.28 143.36-113.6128 259.4816-257.6384 260.4544z m164.608-299.4176c-1.4336-21.4016-13.8752-32.8704-32.1024-37.8368-12.2368-3.328-24.9856-5.9392-37.5296-6.3488-22.1184-0.7168-37.5808-8.2944-43.9296-31.1296-2.4576-8.9088-7.9872-16.9984-12.1856-25.4464-7.8848-15.9744-19.7632-26.5728-38.4-27.4432-19.8144-0.9216-32.0512 9.9328-40.3968 26.5216-6.9632 13.8752-12.7488 28.3648-20.736 41.6256-3.328 5.5296-10.496 10.6496-16.7936 12.1344-15.5648 3.6352-31.744 4.7616-47.5648 7.4752-17.5616 2.9696-30.72 11.7248-36.7104 29.5936-5.888 17.5616 0.768 31.4368 12.2368 43.8784 6.7584 7.3216 13.4656 15.0016 21.4528 20.8384 18.2272 13.2608 25.1392 29.0816 16.9984 51.1488-3.1744 8.6528-2.9184 18.5856-4.8128 27.7504-3.7376 17.92 0.512 33.6896 14.9504 44.6976 15.104 11.52 31.9488 10.4448 48.5888 1.8432 17.152-8.9088 34.5088-24.3712 51.7632-24.32 17.2544 0.0512 34.56 15.5648 51.712 24.4736 15.9744 8.2944 31.8464 9.6768 47.0528-1.2288 15.872-11.3664 19.3024-27.648 16.3328-45.824-2.4064-14.7456-6.2976-29.3376-7.5264-44.1856-0.5632-6.6048 1.9456-15.104 6.144-20.0704 10.3936-12.1856 23.4496-22.1184 33.7408-34.4064 7.4752-8.96 17.7152-16.9984 17.7152-33.7408z" fill="#757BF2" p-id="2191"></path><path d="M435.968 722.7392c-2.7648 6.656-4.1472 10.9568-6.2976 14.848-16.3328 29.6448-32.7168 59.3408-49.3056 88.832-9.216 16.384-16.9984 17.2544-29.9008 3.5328-17.3568-18.5344-33.536-38.3488-52.0192-55.7056-9.2672-8.704-21.8112-15.6672-34.0992-18.9952-23.9104-6.5024-48.6912-9.472-73.0112-14.6432-17.2544-3.6864-20.48-11.1616-11.8272-26.5216 18.0224-31.9488 36.4544-63.6928 54.8352-95.4368 12.8-22.1696 19.0464-23.2448 36.6592-5.2224 34.2528 35.1232 72.6016 64.4096 117.76 84.1216 10.8544 4.7104 22.4256 7.8848 33.024 13.056 5.4784 2.6112 9.5744 8.0384 14.1824 12.1344zM839.5264 728.3712c-5.9392 4.0448-11.6224 10.3936-18.3808 11.9296-25.7536 5.9904-52.1216 9.5744-77.7728 15.872-9.728 2.3552-19.8144 8.0384-26.9312 15.0528-19.3024 18.8928-36.9664 39.4752-55.552 59.136-12.2368 12.9024-20.3264 12.288-28.8768-2.9184-17.152-30.4128-33.6384-61.2352-50.2784-91.904-6.912-12.8-3.2768-21.3504 10.6496-25.856 59.8016-19.5072 109.2608-54.8864 152.5248-99.84 12.2368-12.6976 20.2752-11.7248 29.184 3.2256 19.8144 33.4336 39.3216 67.072 58.88 100.6592 1.8944 3.3792 3.1744 7.1168 6.5536 14.6432z" fill="#6C6CEA" p-id="2192"></path><path d="M506.2656 300.6976c8.8064 18.0736 16.2816 32.512 22.9376 47.36 8.1408 18.176 22.272 26.9312 41.5744 29.0816 15.616 1.7408 31.1808 4.1984 49.2544 6.656-11.8272 12.032-21.76 23.296-32.8192 33.2288-16.64 14.9504-24.1152 31.8976-18.2784 54.528 3.7376 14.6432 5.12 29.8496 8.1408 48.7936-16.7936-9.1648-30.6688-16.128-43.9296-24.1664-17.92-10.8032-35.1232-11.3152-53.2992-0.3584-13.4144 8.0896-27.648 14.848-44.544 23.7568 2.9184-18.432 4.7616-34.2016 7.9872-49.7152 4.2496-20.3264-0.2048-36.7104-16.5376-50.6368-11.8784-10.1376-21.9136-22.3744-34.4064-35.3792 17.0496-2.4064 32.768-5.2224 48.6912-6.7072 19.5584-1.792 33.28-10.2912 41.2672-28.8768 6.656-15.1552 14.9504-29.696 23.9616-47.5648z" fill="#8486F8" p-id="2193"></path><path d="M421.8368 710.5536c-10.5984-5.1712-22.1696-8.2944-33.024-13.056-45.1584-19.712-83.5072-48.9984-117.76-84.1216-17.6128-18.0736-23.8592-16.9472-36.6592 5.2224-15.8208 27.3408-31.5904 54.6816-47.2064 82.1248a438.56896 438.56896 0 0 0 202.752 49.4592c11.3152 0 22.4768-0.5632 33.5872-1.3824 2.048-3.7376 4.1472-7.4752 6.1952-11.2128 2.1504-3.8912 3.4816-8.192 6.2976-14.848-4.6592-4.096-8.7552-9.5232-14.1824-12.1856z" fill="#757BF2" p-id="2194"></path><path d="M587.264 417.024c11.0592-9.9328 20.992-21.1968 32.8192-33.2288-18.0736-2.4576-33.6384-4.9152-49.2544-6.656-19.2512-2.1504-33.4336-10.9056-41.5744-29.0816-6.656-14.848-14.1824-29.3376-22.9376-47.36-9.0624 17.8688-17.3568 32.4096-23.9104 47.6672-7.9872 18.5856-21.76 27.0336-41.2672 28.8768-15.872 1.4848-31.6416 4.3008-48.6912 6.7072 12.4928 13.0048 22.528 25.2416 34.4064 35.3792 16.3328 13.8752 20.7872 30.3104 16.5376 50.6368-3.2256 15.5136-5.0688 31.2832-7.9872 49.7152 16.896-8.96 31.1296-15.6672 44.544-23.7568 18.1248-10.9056 35.3792-10.3936 53.2992 0.3584 3.6864 2.2016 7.424 4.352 11.264 6.5024 9.1136-7.2704 17.92-14.8992 26.368-22.8864-0.5632-2.7648-1.1264-5.5296-1.8432-8.2432-5.888-22.7328 1.5872-39.68 18.2272-54.6304zM481.8944 544.5632c-0.8192 0.4608-1.6896 0.9728-2.5088 1.4336 0.8192-0.4096 1.6384-0.9216 2.5088-1.4336z" fill="#8486F8" p-id="2195"></path><path d="M504.6272 164.1984c-143.36 1.0752-256.9728 116.1216-256.4096 259.584 0.256 66.816 25.5488 127.4368 66.8672 173.0048 41.728-4.3008 81.664-14.4896 119.0912-29.6448-9.728 0.9216-19.2-1.4336-28.1088-8.192-14.3872-11.008-18.688-26.7776-14.9504-44.6976 1.9456-9.216 1.6384-19.0976 4.8128-27.7504 8.1408-22.1184 1.2288-37.9392-16.9984-51.1488-7.9872-5.7856-14.6944-13.5168-21.4528-20.8384-11.4688-12.4416-18.1248-26.2656-12.2368-43.8784 5.9904-17.8688 19.1488-26.5728 36.7104-29.5936 15.8208-2.7136 32-3.84 47.5648-7.4752 6.2976-1.4848 13.4656-6.6048 16.7936-12.1344 7.9872-13.2096 13.824-27.7504 20.736-41.6256 8.2944-16.5888 20.5824-27.4432 40.3968-26.5216 18.6368 0.8704 30.5152 11.4688 38.4 27.4432 4.1472 8.448 9.6768 16.5376 12.1856 25.4464 6.3488 22.8352 21.8112 30.4128 43.9296 31.1296 12.5952 0.4096 25.344 3.0208 37.5296 6.3488 9.5232 2.56 17.408 7.0144 23.04 13.6192a437.48352 437.48352 0 0 0 37.5296-105.7792c-47.7184-53.9648-117.6064-87.8592-195.4304-87.296z" fill="#8486F8" p-id="2196"></path><path d="M345.2928 370.688c5.9904-17.8688 19.1488-26.5728 36.7104-29.5936 15.8208-2.7136 32-3.84 47.5648-7.4752 6.2976-1.4848 13.4656-6.6048 16.7936-12.1344 7.9872-13.2096 13.824-27.7504 20.736-41.6256 8.2944-16.5888 20.5824-27.4432 40.3968-26.5216 4.3008 0.2048 8.192 0.9728 11.776 2.1504 18.432-26.2144 34.0992-54.4768 46.4896-84.48-19.6096-4.608-40.0384-7.0144-61.1328-6.8608-143.36 1.0752-256.9728 116.1216-256.4096 259.584 0 3.4304 0.1536 6.8096 0.3072 10.24a440.22272 440.22272 0 0 0 99.0208-33.28c-4.608-8.8576-6.0928-18.6368-2.2528-30.0032z" fill="#8D92F8" p-id="2197"></path></svg>