<svg class="icon" style="width: 1em;height: 1em;vertical-align: middle;fill: currentColor;overflow: hidden;" viewBox="0 0 1024 1024" version="1.1" xmlns="http://www.w3.org/2000/svg" p-id="1364"><path d="M510.3104 517.7856m-450.816 0a450.816 450.816 0 1 0 901.632 0 450.816 450.816 0 1 0-901.632 0Z" fill="#FBE1FF" p-id="1365"></path><path d="M376.064 805.12c-15.5648 0-31.1808 0.7168-46.7456-0.1536-30.5152-1.6896-40.8064-21.6064-38.0416-43.9808 10.3424-83.712 18.8416-167.68 27.5968-251.5456 0.512-4.7616-1.4848-11.0592-4.5568-14.7456-38.3488-45.824-77.056-91.2896-115.7632-136.7552-13.2096-15.5136-13.3632-19.968-0.9216-35.8912 89.7536-114.8928 267.0592-112.8448 354.4064 3.8912 8.0896 10.8544 5.4272 19.712-2.2016 29.1328-36.5056 45.056-73.0112 90.112-108.9536 135.6288-3.9936 5.0688-6.4512 13.3632-5.8368 19.7632 8.6016 83.9168 17.7152 167.7824 27.0336 251.648 2.6112 23.7056-9.9328 40.8064-34.1504 42.5472-17.2032 1.2288-34.6112 0.256-51.9168 0.256 0.0512 0.0512 0.0512 0.1536 0.0512 0.2048z m-0.0512-337.6128c12.1856 0 22.016 0.3072 31.7952-0.2048 2.2016-0.1024 5.7344-2.816 6.144-4.8128 4.0448-21.1456 7.936-41.7792 10.8032-63.1296 1.28-9.5744-4.2496-17.2032-14.0288-18.7904-10.5984-1.7408-19.2512 3.2768-21.504 14.0288-4.9664 23.552-8.5504 46.848-13.2096 72.9088z m-1.4336 0.1024c-6.0416-24.6272-11.5712-48.0256-17.5616-71.2704-3.072-11.9296-11.52-17.3056-21.8112-14.9504-10.0864 2.304-15.6672 11.2128-13.1584 23.04 3.9424 18.5856 8.3968 37.0688 13.312 55.3984 0.8192 3.072 5.0176 7.168 7.936 7.4752 9.7792 0.8704 19.6608 0.3072 31.2832 0.3072z m31.0784 97.0752c-2.6112-9.2672-7.6288-32.256-8.448-36.1984-14.3872 0.256-29.8496 0.3584-45.4144 0.3584-1.9456 14.0288-3.7888 23.2448-5.6832 35.84h59.5456z" fill="#C65EDB" p-id="1366"></path><path d="M593.5104 465.408v-32.6656c0-28.1088 0.3584-56.2688-0.1024-84.3776-0.4096-27.3408 11.4688-48.4352 32-64.9728 15.5136-12.4416 31.8464-23.808 47.872-35.6352 2.7648-2.048 5.6832-3.9936 8.7552-5.5808 23.3472-12.3904 41.4208-2.3552 43.3152 24.064 0.4608 6.0416 0.3072 12.1344 0.3072 18.176v180.736c3.0208 0.6656 5.0176 1.2288 7.0656 1.4848 17.9712 2.56 25.6512 10.0352 25.7024 28.0064 0.256 94.3616 0.3072 188.7232 0 283.0336-0.0512 18.7904-9.472 27.6992-28.3648 27.8528-48.4352 0.3072-96.9216 0.3072-145.408 0-18.2784-0.1536-27.3408-9.1648-27.392-27.2896-0.2048-94.7712-0.2048-189.5424 0-284.3648 0.0512-17.6128 8.3456-25.4976 26.2656-27.2384 2.9184-0.3072 5.8368-0.7168 9.984-1.2288z m108.8 167.5264c0-25.0368 0.1024-50.1248-0.0512-75.1616-0.1024-14.336-7.5264-23.4496-18.5856-23.3984-11.4688 0-17.9712 8.2944-18.0224 23.5008-0.0512 50.1248-0.0512 100.2496 0 150.3744 0 14.8992 6.9632 23.6544 18.176 23.5008 11.4176-0.1536 18.3808-8.7552 18.432-23.552 0.1536-25.1392 0.0512-50.2272 0.0512-75.264z" fill="#BD50D3" p-id="1367"></path><path d="M732.7232 466.6368c-2.048-0.3072-4.0448-0.8704-7.0656-1.4848v-14.5408-166.1952c0-6.0416 0.1024-12.1344-0.3072-18.176-1.8944-26.4704-19.968-36.4544-43.3152-24.064-3.0208 1.6384-5.9392 3.5328-8.7552 5.5808-16.0256 11.776-32.3584 23.1424-47.872 35.6352-20.5824 16.5376-32.4608 37.632-32 64.9728 0.4608 28.1088 0.1024 56.2688 0.1024 84.3776v32.6656c-4.1472 0.512-7.0656 0.9728-9.984 1.2288-17.92 1.7408-26.2144 9.6256-26.2656 27.2384-0.2048 84.1216-0.2048 168.2432-0.0512 252.3648A452.95616 452.95616 0 0 0 665.6 637.6448c0-26.5728-0.0512-53.1968 0-79.7696 0-15.1552 6.5536-23.4496 18.0224-23.5008 11.0592 0 18.5344 9.1136 18.5856 23.3984 0.0512 5.9904 0.0512 11.9296 0.0512 17.92 16.4864-33.792 28.928-69.9392 36.5568-107.8272-1.8432-0.512-3.8912-0.9216-6.0928-1.2288z" fill="#C65EDB" p-id="1368"></path><path d="M549.7856 355.072c7.6288-9.4208 10.2912-18.3296 2.2016-29.1328-87.3472-116.7872-264.6528-118.784-354.4064-3.8912-12.4416 15.9744-12.288 20.3776 0.9216 35.8912 38.7072 45.5168 77.4144 90.9824 115.7632 136.7552 3.072 3.6864 5.0688 9.984 4.5568 14.7456-4.864 46.6944-9.6768 93.44-14.7456 140.1344a449.54112 449.54112 0 0 0 138.2912-69.632c-2.4576-23.1424-4.9664-46.336-7.3216-69.4784-0.6656-6.4 1.792-14.6944 5.8368-19.7632 35.8912-45.5168 72.448-90.5728 108.9024-135.6288zM335.36 459.776c-4.9152-18.3296-9.3184-36.8128-13.312-55.3984-2.5088-11.776 3.072-20.736 13.1584-23.04 10.2912-2.3552 18.7392 3.072 21.8112 14.9504 5.9904 23.2448 11.52 46.6432 17.5616 71.2704-11.6224 0-21.504 0.5632-31.2832-0.3584-2.9184-0.256-7.1168-4.352-7.936-7.424z m10.8032 104.9088c1.8432-12.6464 3.7376-21.8112 5.6832-35.84 15.5648 0 31.0272-0.1024 45.4144-0.3584 0.8192 3.9936 5.888 26.9824 8.448 36.1984H346.1632zM424.704 399.36c-2.8672 21.2992-6.7584 41.984-10.8032 63.1296-0.3584 1.9968-3.9424 4.7104-6.144 4.8128-9.7792 0.512-19.6096 0.2048-31.7952 0.2048 4.7104-26.112 8.2432-49.408 13.1584-72.9088 2.2528-10.752 10.9056-15.7696 21.504-14.0288 9.8304 1.5872 15.4112 9.216 14.08 18.7904zM593.408 348.3136c0.1536 11.264 0.2048 22.5792 0.2048 33.8432a449.51552 449.51552 0 0 0 25.2416-93.0304c-16.4864 15.616-25.8048 34.9696-25.4464 59.1872z" fill="#CA6EE0" p-id="1369"></path><path d="M197.5808 321.9968c-12.4416 15.9744-12.288 20.3776 0.9216 35.8912 26.8288 31.5904 53.6576 63.1808 80.384 94.8224 16.4352-9.1136 32.2048-19.2512 47.2576-30.2592-1.3824-6.0416-2.816-12.032-4.096-18.0736-2.5088-11.776 3.072-20.736 13.1584-23.04 10.2912-2.3552 18.7392 3.072 21.8112 14.9504l0.3072 1.1776a452.82304 452.82304 0 0 0 107.9296-140.8512C375.4496 216.6272 263.168 238.08 197.5808 321.9968z" fill="#D285E5" p-id="1370"></path></svg>