<svg class="icon" style="width: 1em;height: 1em;vertical-align: middle;fill: currentColor;overflow: hidden;" viewBox="0 0 1024 1024" version="1.1" xmlns="http://www.w3.org/2000/svg" p-id="3505"><path d="M511.744 514.7136m-450.816 0a450.816 450.816 0 1 0 901.632 0 450.816 450.816 0 1 0-901.632 0Z" fill="#E3FFF3" p-id="3506"></path><path d="M578.0992 328.6528H445.696c-29.184 0-52.8896-23.6544-52.8896-52.8896 0-29.184 23.6544-52.8896 52.8896-52.8896h132.4032c29.184 0 52.8896 23.6544 52.8896 52.8896 0 29.184-23.6544 52.8896-52.8896 52.8896z" fill="#3CD38E" p-id="3507"></path><path d="M719.1552 282.9824h-44.5952c-1.6896 44.032-37.888 79.1552-82.3296 79.1552H431.5648c-44.4416 0-80.64-35.1744-82.3296-79.1552H304.64c-38.7072 0-70.0416 31.3856-70.0416 70.0416v370.0224c0 38.7072 31.3856 70.0416 70.0416 70.0416h414.5664c38.7072 0 70.0416-31.3856 70.0416-70.0416V353.024c0-38.656-31.3856-70.0416-70.0928-70.0416z m-104.2432 305.9712h-73.6256v73.6256c0 14.4384-11.6736 26.112-26.112 26.112s-26.112-11.6736-26.112-26.112v-73.6256H415.488c-14.4384 0-26.112-11.6736-26.112-26.112s11.6736-26.112 26.112-26.112h73.6256V463.104c0-14.4384 11.6736-26.112 26.112-26.112s26.112 11.6736 26.112 26.112v73.6256h73.6256c14.4384 0 26.112 11.6736 26.112 26.112a26.19904 26.19904 0 0 1-26.1632 26.112z" fill="#05C46D" p-id="3508"></path><path d="M789.248 353.024c0-38.7072-31.3856-70.0416-70.0416-70.0416h-44.5952c-1.6896 44.032-37.888 79.1552-82.3296 79.1552H431.5648c-44.4416 0-80.64-35.1744-82.3296-79.1552H304.64c-38.7072 0-70.0416 31.3856-70.0416 70.0416v370.0224c0 38.7072 31.3856 70.0416 70.0416 70.0416h103.3728c200.96-29.8496 358.6048-192.256 381.2352-395.4688v-44.5952z m-174.336 235.9296h-73.6256v73.6256c0 14.4384-11.6736 26.112-26.112 26.112s-26.112-11.6736-26.112-26.112v-73.6256H415.488c-14.4384 0-26.112-11.6736-26.112-26.112s11.6736-26.112 26.112-26.112h73.6256V463.104c0-14.4384 11.6736-26.112 26.112-26.112s26.112 11.6736 26.112 26.112v73.6256h73.6256c14.4384 0 26.112 11.6736 26.112 26.112a26.19904 26.19904 0 0 1-26.1632 26.112z" fill="#1DCE75" p-id="3509"></path><path d="M422.5536 588.9536h-7.0656c-14.4384 0-26.112-11.6736-26.112-26.112s11.6736-26.112 26.112-26.112h73.6256V463.104c0-14.4384 11.6736-26.112 26.112-26.112s26.112 11.6736 26.112 26.112v38.0928a451.82464 451.82464 0 0 0 98.1504-154.0096 82.0224 82.0224 0 0 1-47.2064 14.9504H431.5648c-44.4416 0-80.64-35.1744-82.3296-79.1552H304.64c-38.7072 0-70.0416 31.3856-70.0416 70.0416v284.5696c67.4816-2.4064 131.1744-19.6608 187.9552-48.64z" fill="#3CD38E" p-id="3510"></path><path d="M510.976 222.8736H445.696c-29.184 0-52.8896 23.6544-52.8896 52.8896 0 27.392 20.8384 49.92 47.5136 52.6336a453.41696 453.41696 0 0 0 70.656-105.5232zM409.9072 359.168c-33.9968-9.216-59.2896-39.6288-60.7232-76.2368h-44.544c-38.7072 0-70.0416 31.3856-70.0416 70.0416V459.264c66.0992-19.8144 125.7984-54.4768 175.3088-100.096z" fill="#48E1AA" p-id="3511"></path></svg>