<svg class="icon" style="width: 1em;height: 1em;vertical-align: middle;fill: currentColor;overflow: hidden;" viewBox="0 0 1024 1024" version="1.1" xmlns="http://www.w3.org/2000/svg" p-id="1490"><path d="M511.232 510.8224m-450.816 0a450.816 450.816 0 1 0 901.632 0 450.816 450.816 0 1 0-901.632 0Z" fill="#E9F4FF" p-id="1491"></path><path d="M739.84 324.864h-55.9104v-41.4208c0-38.912-31.6416-70.5536-70.5536-70.5536H416.1536c-38.912 0-70.5536 31.6416-70.5536 70.5536v41.4208H289.6896c-37.2736 0-67.5328 30.208-67.5328 67.5328v316.4672c0 37.2736 30.208 67.5328 67.5328 67.5328h450.1504c37.2736 0 67.5328-30.208 67.5328-67.5328V392.3968c0-37.3248-30.2592-67.5328-67.5328-67.5328z m-330.1376-41.472c0-3.5328 2.8672-6.4 6.4-6.4h197.2224c3.5328 0 6.4 2.8672 6.4 6.4v41.4208H409.7024v-41.4208z m234.0864 297.9328c0 4.096-3.328 7.424-7.424 7.424h-65.7408c-4.096 0-7.424 3.328-7.424 7.424v65.7408c0 4.096-3.328 7.424-7.424 7.424H484.1472c-4.096 0-7.424-3.328-7.424-7.424v-65.7408c0-4.096-3.328-7.424-7.424-7.424H403.5584c-4.096 0-7.424-3.328-7.424-7.424V509.696c0-4.096 3.328-7.424 7.424-7.424h65.7408c4.096 0 7.424-3.328 7.424-7.424V429.1072c0-4.096 3.328-7.424 7.424-7.424h71.6288c4.096 0 7.424 3.328 7.424 7.424v65.7408c0 4.096 3.328 7.424 7.424 7.424h65.7408c4.096 0 7.424 3.328 7.424 7.424v71.6288z" fill="#2595E8" p-id="1492"></path><path d="M683.9296 324.864v-41.4208c0-38.912-31.6416-70.5536-70.5536-70.5536H416.1536c-38.912 0-70.5536 31.6416-70.5536 70.5536v41.4208H289.6896c-37.2736 0-67.5328 30.208-67.5328 67.5328v316.4672c0 37.2736 30.208 67.5328 67.5328 67.5328h216.7808c158.1568-69.9904 268.544-228.3008 268.544-412.416 0-9.984-0.3584-19.9168-1.024-29.7472a67.2256 67.2256 0 0 0-34.1504-9.3696h-55.9104z m-274.2272-41.472c0-3.5328 2.8672-6.4 6.4-6.4h197.2224c3.5328 0 6.4 2.8672 6.4 6.4v41.4208H409.7024v-41.4208z m234.0864 297.9328c0 4.096-3.328 7.424-7.424 7.424h-65.7408c-4.096 0-7.424 3.328-7.424 7.424v65.7408c0 4.096-3.328 7.424-7.424 7.424H484.1472c-4.096 0-7.424-3.328-7.424-7.424v-65.7408c0-4.096-3.328-7.424-7.424-7.424H403.5584c-4.096 0-7.424-3.328-7.424-7.424V509.696c0-4.096 3.328-7.424 7.424-7.424h65.7408c4.096 0 7.424-3.328 7.424-7.424V429.1072c0-4.096 3.328-7.424 7.424-7.424h71.6288c4.096 0 7.424 3.328 7.424 7.424v65.7408c0 4.096 3.328 7.424 7.424 7.424h65.7408c4.096 0 7.424 3.328 7.424 7.424v71.6288z" fill="#3A9CED" p-id="1493"></path><path d="M435.712 588.7488h-32.1536c-4.096 0-7.424-3.328-7.424-7.424V509.696c0-4.096 3.328-7.424 7.424-7.424h65.7408c4.096 0 7.424-3.328 7.424-7.424V429.1072c0-4.096 3.328-7.424 7.424-7.424h71.6288c4.096 0 7.424 3.328 7.424 7.424v43.008c51.8656-69.9392 83.968-155.392 88.0128-248.1664a69.90336 69.90336 0 0 0-37.8368-11.1104H416.1536c-38.912 0-70.5536 31.6416-70.5536 70.5536v41.4208H289.6896c-37.2736 0-67.5328 30.208-67.5328 67.5328v261.7856c78.0288-3.584 150.8352-27.0336 213.5552-65.3824z m-26.0096-305.3568c0-3.5328 2.8672-6.4 6.4-6.4h197.2224c3.5328 0 6.4 2.8672 6.4 6.4v41.4208H409.7024v-41.4208z" fill="#59ADF8" p-id="1494"></path><path d="M440.3712 324.864h-30.6688v-41.4208c0-3.5328 2.8672-6.4 6.4-6.4h57.5488c12.288-20.3776 23.04-41.7792 32-64.1024H416.1536c-38.912 0-70.5536 31.6416-70.5536 70.5536v41.4208H289.6896c-37.2736 0-67.5328 30.208-67.5328 67.5328v82.2784c87.04-27.2896 162.7136-80.1792 218.2144-149.8624z" fill="#6BC2FC" p-id="1495"></path></svg>