<svg class="icon" style="width: 1em;height: 1em;vertical-align: middle;fill: currentColor;overflow: hidden;" viewBox="0 0 1024 1024" version="1.1" xmlns="http://www.w3.org/2000/svg" p-id="5070"><path d="M512.768 513.1264m-450.816 0a450.816 450.816 0 1 0 901.632 0 450.816 450.816 0 1 0-901.632 0Z" fill="#E3FFF3" p-id="5071"></path><path d="M607.8976 304.1792H417.6384c-10.4448 0-18.944-8.4992-18.944-18.944V225.4848c0-10.4448 8.4992-18.944 18.944-18.944h190.2592c10.4448 0 18.944 8.4992 18.944 18.944V285.184c0 10.496-8.4992 18.9952-18.944 18.9952z" fill="#3CD38E" p-id="5072"></path><path d="M704.7168 255.6416h-27.2384v57.4976c0 19.8656-16.0768 35.9424-35.9424 35.9424H384.0512c-19.8656 0-35.9424-16.0768-35.9424-35.9424V255.6416h-27.2384c-41.5232 0-75.1616 33.6384-75.1616 75.1616v392.2432c0 41.5232 33.6384 75.1616 75.1616 75.1616h383.8464c41.5232 0 75.1616-33.6384 75.1616-75.1616V330.8032c-0.0512-41.5232-33.6896-75.1616-75.1616-75.1616z m-99.7376 342.4768H543.232v61.7472c0 16.8448-13.6704 30.5152-30.5152 30.5152s-30.5152-13.6704-30.5152-30.5152v-61.7472H420.5568c-16.8448 0-30.5152-13.6704-30.5152-30.5152s13.6704-30.5152 30.5152-30.5152H482.304V475.4432c0-16.8448 13.6704-30.5152 30.5152-30.5152s30.5152 13.6704 30.5152 30.5152v61.7472h61.7472c16.8448 0 30.5152 13.6704 30.5152 30.5152a30.62272 30.62272 0 0 1-30.6176 30.4128z" fill="#05C46D" p-id="5073"></path><path d="M779.8272 330.8032c0-41.5232-33.6384-75.1616-75.1616-75.1616h-27.2384v57.4976c0 19.8656-16.0768 35.9424-35.9424 35.9424H384.0512c-19.8656 0-35.9424-16.0768-35.9424-35.9424V255.6416h-27.2384c-41.5232 0-75.1616 33.6384-75.1616 75.1616v392.2432c0 41.5232 33.6384 75.1616 75.1616 75.1616H406.528c188.5696-29.3376 338.4832-175.5136 373.2992-362.1888V330.8032z m-174.848 267.3152H543.232v61.7472c0 16.8448-13.6704 30.5152-30.5152 30.5152s-30.5152-13.6704-30.5152-30.5152v-61.7472H420.5568c-16.8448 0-30.5152-13.6704-30.5152-30.5152s13.6704-30.5152 30.5152-30.5152H482.304V475.4432c0-16.8448 13.6704-30.5152 30.5152-30.5152s30.5152 13.6704 30.5152 30.5152v61.7472h61.7472c16.8448 0 30.5152 13.6704 30.5152 30.5152a30.62272 30.62272 0 0 1-30.6176 30.4128z" fill="#1DCE75" p-id="5074"></path><path d="M412.7232 597.0944a30.44864 30.44864 0 0 1-22.6816-29.44c0-16.8448 13.6704-30.5152 30.5152-30.5152H482.304V475.4432c0-16.8448 13.6704-30.5152 30.5152-30.5152s30.5152 13.6704 30.5152 30.5152v24.4736a450.42688 450.42688 0 0 0 93.0816-150.8352H384.0512c-19.8656 0-35.9424-16.0768-35.9424-35.9424V255.6416h-27.2384c-41.5232 0-75.1616 33.6384-75.1616 75.1616v311.5008a446.9504 446.9504 0 0 0 167.0144-45.2096z" fill="#3CD38E" p-id="5075"></path><path d="M421.5296 349.0816H384c-19.8656 0-35.9424-16.0768-35.9424-35.9424V255.6416h-27.2384c-41.5232 0-75.1616 33.6384-75.1616 75.1616v129.0752c67.2256-22.9376 127.232-61.2864 175.872-110.7968zM516.2496 206.5408H417.6384c-10.4448 0-18.944 8.4992-18.944 18.944V285.184c0 10.4448 8.4992 18.944 18.944 18.944h42.5984c22.528-29.8496 41.4208-62.5664 56.0128-97.5872z" fill="#48E1AA" p-id="5076"></path></svg>