<svg class="icon" style="width: 1em;height: 1em;vertical-align: middle;fill: currentColor;overflow: hidden;" viewBox="0 0 1024 1024" version="1.1" xmlns="http://www.w3.org/2000/svg" p-id="6362"><path d="M514.9184 514.2016m-450.816 0a450.816 450.816 0 1 0 901.632 0 450.816 450.816 0 1 0-901.632 0Z" fill="#E9ECFF" p-id="6363"></path><path d="M784.9472 718.2848h-32.6144V268.9024c0-27.9552-22.6816-50.6368-50.6368-50.6368H328.1408c-27.9552 0-50.6368 22.6816-50.6368 50.6368v449.3824h-32.6144a31.8976 31.8976 0 0 0 0 63.7952h540.0576a31.8976 31.8976 0 0 0 0-63.7952z m-158.3616-13.4656a31.8976 31.8976 0 0 1-63.7952 0v-90.3168H467.0976v90.3168a31.8976 31.8976 0 0 1-63.7952 0v-122.2144a31.8976 31.8976 0 0 1 31.8976-31.8976h159.4368a31.8976 31.8976 0 0 1 31.8976 31.8976v122.2144z m-31.8976-265.8816h-47.8208v47.8208a31.8976 31.8976 0 0 1-63.7952 0v-47.8208H435.2a31.8976 31.8976 0 0 1 0-63.7952h47.8208v-47.8208a31.8976 31.8976 0 0 1 63.7952 0v47.8208h47.8208c17.6128 0 31.8976 14.2848 31.8976 31.8976s-14.2336 31.8976-31.8464 31.8976z" fill="#6C6CEA" p-id="6364"></path><path d="M574.4128 729.4464a31.72864 31.72864 0 0 1-11.6224-24.6272v-90.3168H467.0976v90.3168a31.8976 31.8976 0 0 1-63.7952 0v-122.2144a31.8976 31.8976 0 0 1 31.8976-31.8976h159.4368a31.8976 31.8976 0 0 1 31.8976 31.8976v107.52c55.7568-48.7424 99.3792-111.0016 125.7984-181.6576V268.9024c0-27.9552-22.6816-50.6368-50.6368-50.6368H328.1408c-27.9552 0-50.6368 22.6816-50.6368 50.6368v449.3824h-32.6144a31.8976 31.8976 0 0 0 0 63.7952h215.8592a447.36 447.36 0 0 0 113.664-52.6336zM435.2 375.1424h47.8208v-47.8208a31.8976 31.8976 0 0 1 63.7952 0v47.8208h47.8208a31.8976 31.8976 0 0 1 0 63.7952h-47.8208v47.8208a31.8976 31.8976 0 0 1-63.7952 0v-47.8208H435.2a31.8976 31.8976 0 0 1 0-63.7952z" fill="#757BF2" p-id="6365"></path><path d="M403.3024 596.2752v-13.6704a31.8976 31.8976 0 0 1 31.8976-31.8976h42.5472c13.2608-9.984 25.9072-20.6848 37.9904-32.0512-0.256 0-0.5632 0.0512-0.8192 0.0512a31.8976 31.8976 0 0 1-31.8976-31.8976v-47.8208H435.2a31.8976 31.8976 0 0 1 0-63.7952h47.8208v-47.8208a31.8976 31.8976 0 0 1 63.7952 0v47.8208h47.8208c7.6288 0 14.592 2.6624 20.0704 7.1168a449.18272 449.18272 0 0 0 41.8816-163.9936H328.1408c-27.9552 0-50.6368 22.6816-50.6368 50.6368v366.7968a449.46432 449.46432 0 0 0 125.7984-39.4752z" fill="#8486F8" p-id="6366"></path><path d="M546.8672 486.2976c13.0048-14.9504 25.0368-30.7712 36.0448-47.36h-36.0448v47.36z" fill="#8486F8" p-id="6367"></path><path d="M503.4496 218.2656H328.1408c-27.9552 0-50.6368 22.6816-50.6368 50.6368v173.568a452.41856 452.41856 0 0 0 225.9456-224.2048z" fill="#8D92F8" p-id="6368"></path></svg>