<svg class="icon" style="width: 1em;height: 1em;vertical-align: middle;fill: currentColor;overflow: hidden;" viewBox="0 0 1024 1024" version="1.1" xmlns="http://www.w3.org/2000/svg" p-id="1167"><path d="M510.9248 511.3856m-450.816 0a450.816 450.816 0 1 0 901.632 0 450.816 450.816 0 1 0-901.632 0Z" fill="#E9ECFF" p-id="1168"></path><path d="M670.2592 607.8976c-35.328 0-63.9488-28.6208-63.9488-63.9488s28.6208-63.9488 63.9488-63.9488h148.8384V407.7056c0-42.5472-34.4576-77.0048-77.0048-77.0048H291.328c-42.5472 0-77.0048 34.4576-77.0048 77.0048v299.5712c0 42.5472 34.4576 77.0048 77.0048 77.0048h450.7648c42.5472 0 77.0048-34.4576 77.0048-77.0048v-99.3792h-148.8384z" fill="#6C6CEA" p-id="1169"></path><path d="M667.904 545.3824m-30.8224 0a30.8224 30.8224 0 1 0 61.6448 0 30.8224 30.8224 0 1 0-61.6448 0Z" fill="#7E80F7" p-id="1170"></path><path d="M426.1888 295.8848h303.3088l-36.1472-64.1024c-18.8416-33.3824-60.8256-45.6192-94.6688-27.648L426.1888 295.8848zM670.2592 480.0512h89.344a440.55552 440.55552 0 0 0-8.7552-148.7872c-2.8672-0.3072-5.7856-0.512-8.704-0.512H291.328c-42.5472 0-77.0048 34.4576-77.0048 77.0048v299.5712c0 42.5472 34.4576 77.0048 77.0048 77.0048h292.1472a439.37792 439.37792 0 0 0 141.6704-176.384H670.208c-35.328 0-63.9488-28.6208-63.9488-63.9488 0.0512-35.328 28.672-63.9488 64-63.9488z" fill="#757BF2" p-id="1171"></path><path d="M641.7408 295.8848a443.45856 443.45856 0 0 0-5.632-99.84c-12.5952-0.768-25.4976 1.7408-37.4272 8.0896L426.1888 295.8848h215.552zM639.0784 330.7008H291.328c-42.5472 0-77.0048 34.4576-77.0048 77.0048v299.5712c0 2.0992 0.1536 4.1984 0.3072 6.2464 218.6752-4.9664 397.7728-170.1888 424.448-382.8224z" fill="#8486F8" p-id="1172"></path><path d="M426.1888 295.8848h67.4816c6.6048-14.6432 12.4416-29.7472 17.408-45.1584l-84.8896 45.1584zM478.7712 330.7008H291.328c-42.5472 0-77.0048 34.4576-77.0048 77.0048v134.3488c113.8176-32.3584 208.7424-109.568 264.448-211.3536z" fill="#8D92F8" p-id="1173"></path></svg>