<svg class="icon" style="width: 1em;height: 1em;vertical-align: middle;fill: currentColor;overflow: hidden;" viewBox="0 0 1024 1024" version="1.1" xmlns="http://www.w3.org/2000/svg" p-id="2509"><path d="M507.5456 512.5632m-450.816 0a450.816 450.816 0 1 0 901.632 0 450.816 450.816 0 1 0-901.632 0Z" fill="#FFF1DC" p-id="2510"></path><path d="M614.656 647.0144c-12.3392 50.3808-57.856 87.8592-111.9744 87.8592s-99.6352-37.4784-111.9744-87.8592H222.464v87.7056c0 38.0416 30.8736 68.9152 68.9152 68.9152h432.3328c38.0416 0 68.9152-30.8736 68.9152-68.9152v-87.7056h-177.9712z" fill="#FC7032" p-id="2511"></path><path d="M414.7712 592.2816a27.392 27.392 0 0 1 27.392 27.392c0 33.3824 27.136 60.5184 60.5184 60.5184s60.5184-27.136 60.5184-60.5184a27.392 27.392 0 0 1 27.392-27.392h202.0352V290.3552c0-38.0416-30.8736-68.9152-68.9152-68.9152H291.3792c-38.0416 0-68.9152 30.8736-68.9152 68.9152v301.9264h192.3072z m12.5952-147.5072c-15.104 0-27.392-12.2368-27.392-27.392s12.2368-27.392 27.392-27.392h22.8352l-32.3584-39.5776a27.32544 27.32544 0 0 1 3.8912-38.5024 27.33056 27.33056 0 0 1 38.5024 3.8912l47.616 58.2144 46.9504-58.112a27.34592 27.34592 0 0 1 38.5024-4.096c11.776 9.5232 13.6192 26.7264 4.096 38.5024l-32.1024 39.7312h22.4768c15.104 0 27.392 12.2368 27.392 27.392s-12.2368 27.392-27.392 27.392h-52.7872v17.92h52.7872c15.104 0 27.392 12.2368 27.392 27.392s-12.2368 27.392-27.392 27.392h-52.7872v28.16c0 15.104-12.2368 27.392-27.392 27.392s-27.392-12.2368-27.392-27.392v-28.16H427.3664c-15.104 0-27.392-12.2368-27.392-27.392s12.2368-27.392 27.392-27.392h52.8384v-17.92H427.3664z" fill="#FC7032" p-id="2512"></path><path d="M792.6272 398.1312V290.3552c0-38.0416-30.8736-68.9152-68.9152-68.9152H291.3792c-38.0416 0-68.9152 30.8736-68.9152 68.9152v301.9264h192.3072a27.392 27.392 0 0 1 27.392 27.392c0 33.3824 27.136 60.5184 60.5184 60.5184s60.5184-27.136 60.5184-60.5184a27.392 27.392 0 0 1 27.392-27.392h118.8352c41.8816-56.064 71.0656-122.2144 83.2-194.1504z m-204.9024 119.3472h-52.7872v28.16c0 15.104-12.2368 27.392-27.392 27.392s-27.392-12.2368-27.392-27.392v-28.16H427.3664c-15.104 0-27.392-12.2368-27.392-27.392s12.2368-27.392 27.392-27.392h52.8384v-17.92H427.3664c-15.104 0-27.392-12.2368-27.392-27.392s12.2368-27.392 27.392-27.392h22.8352l-32.3584-39.5776a27.32544 27.32544 0 0 1 3.8912-38.5024 27.33056 27.33056 0 0 1 38.5024 3.8912l47.616 58.2144 46.9504-58.112a27.34592 27.34592 0 0 1 38.5024-4.096c11.776 9.5232 13.6192 26.7264 4.096 38.5024l-32.1024 39.7312h22.4768c15.104 0 27.392 12.2368 27.392 27.392s-12.2368 27.392-27.392 27.392h-52.7872v17.92h52.7872c15.104 0 27.392 12.2368 27.392 27.392s-12.288 27.3408-27.4432 27.3408z" fill="#FF7E3E" p-id="2513"></path><path d="M661.0944 647.0144h-46.4384c-12.3392 50.3808-57.856 87.8592-111.9744 87.8592s-99.6352-37.4784-111.9744-87.8592H222.464v87.7056c0 7.68 1.28 15.0016 3.6352 21.9136a450.3296 450.3296 0 0 0 122.0096 16.7424c121.6 0 231.8848-48.128 312.9856-126.3616z" fill="#FF7E3E" p-id="2514"></path><path d="M480.1536 534.016v-16.5376H427.3664c-15.104 0-27.392-12.2368-27.392-27.392s12.2368-27.392 27.392-27.392h52.8384v-17.92H427.3664c-15.104 0-27.392-12.2368-27.392-27.392s12.2368-27.392 27.392-27.392h22.8352l-32.3584-39.5776a27.32544 27.32544 0 0 1 3.8912-38.5024 27.33056 27.33056 0 0 1 38.5024 3.8912l47.616 58.2144 46.9504-58.112a27.34592 27.34592 0 0 1 38.5024-4.096c11.776 9.5232 13.6192 26.7264 4.096 38.5024l-32.1024 39.7312h22.4768c8.2432 0 15.5648 3.7376 20.5824 9.472a447.76448 447.76448 0 0 0 63.488-178.0736h-380.416c-38.0416 0-68.9152 30.8736-68.9152 68.9152v301.9264h138.6496a448.65536 448.65536 0 0 0 118.9888-58.2656z" fill="#FF9552" p-id="2515"></path><path d="M534.9376 444.7744v17.92h26.112c5.2224-5.8368 10.2912-11.8272 15.2064-17.92h-41.3184z" fill="#FF9552" p-id="2516"></path><path d="M412.3136 338.5856c-1.9968-9.6768 1.2288-20.0192 9.3696-26.7264 6.7072-5.4784 15.2064-7.1168 23.04-5.4272 23.5008-25.7536 43.9808-54.272 61.0304-84.992H291.3792c-38.0416 0-68.9152 30.8736-68.9152 68.9152v149.6064c71.68-18.176 136.4992-53.504 189.8496-101.376z" fill="#FFA56A" p-id="2517"></path></svg>