<svg class="icon" style="width: 1em;height: 1em;vertical-align: middle;fill: currentColor;overflow: hidden;" viewBox="0 0 1024 1024" version="1.1" xmlns="http://www.w3.org/2000/svg" p-id="4523"><path d="M511.1296 510.72m-450.816 0a450.816 450.816 0 1 0 901.632 0 450.816 450.816 0 1 0-901.632 0Z" fill="#FBE1FF" p-id="4524"></path><path d="M742.8608 433.0496h-5.4272v122.7264c0 37.8368-30.6688 68.5568-68.5568 68.5568H353.3824c-37.8368 0-68.5568-30.6688-68.5568-68.5568V433.0496h-5.4272c-32.256 0-58.4192 26.1632-58.4192 58.4192v241.3568c0 32.256 26.1632 58.4192 58.4192 58.4192h463.4624c32.256 0 58.4192-26.1632 58.4192-58.4192V491.4688c0-32.256-26.1632-58.4192-58.4192-58.4192z" fill="#BD50D3" p-id="4525"></path><path d="M645.0688 238.5408H377.1904c-22.6304 0-40.96 18.3296-40.96 40.96v254.4128c0 22.6304 18.3296 40.96 40.96 40.96h267.8784c22.6304 0 40.96-18.3296 40.96-40.96V279.5008c0.0512-22.6304-18.3296-40.96-40.96-40.96z m-117.6576 244.6848H424.96c-15.5648 0-28.16-12.5952-28.16-28.16s12.5952-28.16 28.16-28.16h102.4512c15.5648 0 28.16 12.5952 28.16 28.16s-12.5952 28.16-28.16 28.16z m73.0624-99.072H424.96c-15.5648 0-28.16-12.5952-28.16-28.16s12.5952-28.16 28.16-28.16h175.5136c15.5648 0 28.16 12.5952 28.16 28.16s-12.6464 28.16-28.16 28.16z" fill="#BF5CD6" p-id="4526"></path><path d="M742.8608 433.0496h-5.4272v122.7264c0 37.8368-30.6688 68.5568-68.5568 68.5568H353.3824c-37.8368 0-68.5568-30.6688-68.5568-68.5568V433.0496h-5.4272c-32.256 0-58.4192 26.1632-58.4192 58.4192v241.3568c0 32.256 26.1632 58.4192 58.4192 58.4192h190.1568c159.488-39.9872 285.2352-164.864 326.4512-323.8912-9.1648-20.224-29.4912-34.304-53.1456-34.304z" fill="#BF5CD6" p-id="4527"></path><path d="M382.2592 624.3328h-28.8768c-37.8368 0-68.5568-30.6688-68.5568-68.5568V433.0496h-5.4272c-32.256 0-58.4192 26.1632-58.4192 58.4192v190.3104c63.1296-16.5888 118.3744-38.0928 161.28-57.4464z" fill="#CA6EE0" p-id="4528"></path><path d="M645.0688 238.5408H377.1904c-22.6304 0-40.96 18.3296-40.96 40.96v254.4128c0 22.6304 18.3296 40.96 40.96 40.96h100.0448c107.9296-68.4032 184.832-181.4016 204.7488-313.088a40.97024 40.97024 0 0 0-36.9152-23.2448z m-117.6576 244.6848H424.96c-15.5648 0-28.16-12.5952-28.16-28.16s12.5952-28.16 28.16-28.16h102.4512c15.5648 0 28.16 12.5952 28.16 28.16s-12.5952 28.16-28.16 28.16z m73.0624-99.072H424.96c-15.5648 0-28.16-12.5952-28.16-28.16s12.5952-28.16 28.16-28.16h175.5136c15.5648 0 28.16 12.5952 28.16 28.16s-12.6464 28.16-28.16 28.16z" fill="#CA6EE0" p-id="4529"></path><path d="M284.8256 455.1168v-22.0672h-5.4272c-26.112 0-48.1792 17.1008-55.6544 40.7552a446.1568 446.1568 0 0 0 61.0816-18.688zM336.2304 279.5008v152.0128a450.93376 450.93376 0 0 0 75.2128-50.8416A28.14464 28.14464 0 0 1 424.96 327.8336h40.0896c23.296-27.136 43.4176-57.088 59.8016-89.2416H377.1904c-22.6304-0.0512-40.96 18.2784-40.96 40.9088z" fill="#D786EA" p-id="4530"></path></svg>