<svg class="icon" style="width: 1em;height: 1em;vertical-align: middle;fill: currentColor;overflow: hidden;" viewBox="0 0 1024 1024" version="1.1" xmlns="http://www.w3.org/2000/svg" p-id="1584"><path d="M510.7712 509.4912m-450.816 0a450.816 450.816 0 1 0 901.632 0 450.816 450.816 0 1 0-901.632 0Z" fill="#E3FFF3" p-id="1585"></path><path d="M842.3936 409.6h-49.3056v-5.0176c0-52.7872-42.8032-95.5904-95.5904-95.5904H557.056v-22.6816c20.0192-0.1536 36.2496-16.384 36.2496-36.4544 0-20.1728-16.3328-36.5056-36.5056-36.5056H464.7424c-20.1728 0-36.5056 16.3328-36.5056 36.5056 0 20.0704 16.1792 36.352 36.2496 36.4544v22.6816H324.096c-52.7872 0-95.5904 42.8032-95.5904 95.5904V409.6H179.2c-14.7456 0-26.6752 11.9296-26.6752 26.6752v46.2848c0 14.7456 11.9296 26.6752 26.6752 26.6752h49.3056v200.8064c0 52.7872 42.8032 95.5904 95.5904 95.5904h373.3504c52.7872 0 95.5904-42.8032 95.5904-95.5904V509.2352h49.3056c14.7456 0 26.6752-11.9296 26.6752-26.6752v-46.2848c0-14.7456-11.9296-26.6752-26.624-26.6752z m-481.792 232.2944c0 15.5648-12.5952 28.16-28.16 28.16s-28.16-12.5952-28.16-28.16V496.7936c0-15.5648 12.5952-28.16 28.16-28.16s28.16 12.5952 28.16 28.16v145.1008z" fill="#05C46D" p-id="1586"></path><path d="M762.368 334.5408c-17.0496-15.8208-39.8336-25.5488-64.9216-25.5488H557.056v-22.6816c20.0192-0.1536 36.2496-16.384 36.2496-36.4544 0-20.1728-16.3328-36.5056-36.5056-36.5056H464.7424c-20.1728 0-36.5056 16.3328-36.5056 36.5056 0 20.0704 16.1792 36.352 36.2496 36.4544v22.6816H324.096c-52.7872 0-95.5904 42.8032-95.5904 95.5904V409.6H179.2c-14.7456 0-26.6752 11.9296-26.6752 26.6752v46.2848c0 14.7456 11.9296 26.6752 26.6752 26.6752h49.3056v200.8064c0 52.7872 42.8032 95.5904 95.5904 95.5904h159.6416c165.1712-66.8672 281.7536-228.8128 281.7536-417.9968 0-17.9712-1.0752-35.6864-3.1232-53.0944z m-401.7664 307.3536c0 15.5648-12.5952 28.16-28.16 28.16s-28.16-12.5952-28.16-28.16V496.7936c0-15.5648 12.5952-28.16 28.16-28.16s28.16 12.5952 28.16 28.16v145.1008z" fill="#1DCE75" p-id="1587"></path><path d="M557.056 308.992v-22.6816c20.0192-0.1536 36.2496-16.384 36.2496-36.4544 0-20.1728-16.3328-36.5056-36.5056-36.5056H464.7424c-20.1728 0-36.5056 16.3328-36.5056 36.5056 0 20.0704 16.1792 36.352 36.2496 36.4544v22.6816H324.096c-52.7872 0-95.5904 42.8032-95.5904 95.5904V409.6H179.2c-14.7456 0-26.6752 11.9296-26.6752 26.6752v46.2848c0 14.7456 11.9296 26.6752 26.6752 26.6752h49.3056v167.5776c28.8768-2.3552 56.9856-7.424 84.1216-15.0016-5.12-5.12-8.2944-12.1856-8.2944-19.968V496.7936c0-15.5648 12.5952-28.16 28.16-28.16s28.16 12.5952 28.16 28.16v145.1008c0 1.28-0.1024 2.5088-0.256 3.6864 140.9536-57.0368 246.528-183.296 274.4832-336.5888h-77.824z" fill="#3CD38E" p-id="1588"></path><path d="M459.008 308.992H324.096c-52.7872 0-95.5904 42.8032-95.5904 95.5904V409.6H179.2c-14.7456 0-26.6752 11.9296-26.6752 26.6752v46.2848c0 12.8 9.0112 23.4496 21.0432 26.0608 119.808-25.856 221.8496-99.328 285.44-199.6288zM464.4864 286.3104v13.7728c16.384-27.1872 29.952-56.2176 40.3456-86.7328h-40.0896c-20.1728 0-36.5056 16.3328-36.5056 36.5056 0 20.0704 16.2304 36.3008 36.2496 36.4544z" fill="#48E1AA" p-id="1589"></path></svg>