<svg class="icon" style="width: 1em;height: 1em;vertical-align: middle;fill: currentColor;overflow: hidden;" viewBox="0 0 1024 1024" version="1.1" xmlns="http://www.w3.org/2000/svg" p-id="2966"><path d="M509.184 519.8336m-450.816 0a450.816 450.816 0 1 0 901.632 0 450.816 450.816 0 1 0-901.632 0Z" fill="#E9ECFF" p-id="2967"></path><path d="M835.6352 430.2336c-3.6864-61.1328-52.9408-111.104-114.0736-115.6096-26.3168-1.9456-50.9952 4.4032-71.7824 16.5888-10.3936-69.2224-70.144-122.3168-142.336-122.3168-72.3456 0-132.1984 53.3504-142.3872 122.88-20.8384-12.4928-45.6704-18.9952-72.1408-17.152-61.1328 4.1984-110.6944 54.016-114.5856 115.2512-4.096 64.5632 41.4208 119.3472 102.0928 129.8432v213.2992c0 20.9408 16.9984 37.9392 37.9392 37.9392h376.2176c20.9408 0 37.9392-16.9984 37.9392-37.9392v-213.0944c61.0816-10.0864 107.0592-64.9216 103.1168-129.6896z m-232.3968 281.5488H410.6752c-17.7664 0-32.1024-14.3872-32.1024-32.1024s14.3872-32.1024 32.1024-32.1024h192.5632c17.7664 0 32.1024 14.3872 32.1024 32.1024s-14.336 32.1024-32.1024 32.1024z" fill="#6C6CEA" p-id="2968"></path><path d="M760.1152 324.096c-12.032-5.12-24.9856-8.448-38.5536-9.472-26.3168-1.9456-50.9952 4.4032-71.7824 16.5888-10.3936-69.2224-70.144-122.3168-142.2848-122.3168-72.3456 0-132.1984 53.3504-142.3872 122.88-20.8384-12.4928-45.6704-18.9952-72.1408-17.152-61.184 4.1984-110.7456 54.016-114.6368 115.2512-4.096 64.5632 41.4208 119.3472 102.0928 129.8432v213.2992c0 20.9408 16.9984 37.9392 37.9392 37.9392h128.5632c183.6032-52.3776 318.0032-221.3888 318.0032-421.7856 0-22.1184-1.6384-43.8272-4.8128-65.0752z m-156.8768 387.6864H410.6752c-17.7664 0-32.1024-14.3872-32.1024-32.1024 0-17.7664 14.3872-32.1024 32.1024-32.1024h192.5632c17.7664 0 32.1024 14.3872 32.1024 32.1024 0.0512 17.7152-14.336 32.1024-32.1024 32.1024z" fill="#757BF2" p-id="2969"></path><path d="M640.3072 297.4208c-21.7088-52.0192-72.96-88.576-132.864-88.576-72.3456 0-132.1984 53.3504-142.3872 122.88-20.8384-12.4928-45.6704-18.9952-72.1408-17.152-61.1328 4.2496-110.6944 54.0672-114.5856 115.3024-4.096 64.5632 41.4208 119.3472 102.0928 129.8432v105.984c186.2144-31.6416 332.4416-180.6848 359.8848-368.2816z" fill="#8486F8" p-id="2970"></path><path d="M514.816 209.0496c-2.4576-0.1024-4.864-0.2048-7.3216-0.2048-72.3456 0-132.1984 53.3504-142.3872 122.88-20.8384-12.4928-45.6704-18.9952-72.1408-17.152-61.184 4.2496-110.7456 54.0672-114.6368 115.3024-1.7408 27.7504 5.632 53.6576 19.456 75.008 150.6816-35.7376 271.3088-149.248 317.0304-295.8336z" fill="#8D92F8" p-id="2971"></path></svg>