<svg class="icon" style="width: 1em;height: 1em;vertical-align: middle;fill: currentColor;overflow: hidden;" viewBox="0 0 1024 1024" version="1.1" xmlns="http://www.w3.org/2000/svg" p-id="3254"><path d="M512.4096 514.7136m-450.816 0a450.816 450.816 0 1 0 901.632 0 450.816 450.816 0 1 0-901.632 0Z" fill="#FFF1DC" p-id="3255"></path><path d="M726.4256 271.616h-428.032c-38.8608 0-70.3488 31.488-70.3488 70.3488v338.3296c0 38.8608 31.488 70.3488 70.3488 70.3488h135.0144c6.5024 0 12.6464 2.7136 16.9984 7.5264l50.5344 55.7568a22.9376 22.9376 0 0 0 33.3312 0.7168l56.4736-57.1904c4.3008-4.352 10.1888-6.8096 16.3328-6.8096h119.296c38.8608 0 70.3488-31.488 70.3488-70.3488V341.9136c0.0512-38.8096-31.4368-70.2976-70.2976-70.2976z m-370.432 288.8704c-23.0912 0-41.8304-18.7392-41.8304-41.8304s18.7392-41.8304 41.8304-41.8304 41.8304 18.7392 41.8304 41.8304-18.7392 41.8304-41.8304 41.8304z m159.1296 0c-23.0912 0-41.8304-18.7392-41.8304-41.8304s18.7392-41.8304 41.8304-41.8304 41.8304 18.7392 41.8304 41.8304-18.688 41.8304-41.8304 41.8304z m159.1808 0c-23.0912 0-41.8304-18.7392-41.8304-41.8304s18.7392-41.8304 41.8304-41.8304 41.8304 18.7392 41.8304 41.8304-18.7392 41.8304-41.8304 41.8304z" fill="#FC7032" p-id="3256"></path><path d="M726.4256 271.616h-428.032c-38.8608 0-70.3488 31.488-70.3488 70.3488v338.3296c0 38.8608 31.488 70.3488 70.3488 70.3488h135.0144c6.5024 0 12.6464 2.7136 16.9984 7.5264l10.6496 11.7248c186.0608-55.5008 321.7408-227.8912 321.7408-432.0256 0-13.568-0.6144-26.9824-1.792-40.192-12.9024-15.9232-32.512-26.0608-54.5792-26.0608z m-370.432 288.8704c-23.0912 0-41.8304-18.7392-41.8304-41.8304s18.7392-41.8304 41.8304-41.8304 41.8304 18.7392 41.8304 41.8304-18.7392 41.8304-41.8304 41.8304z m159.1296 0c-23.0912 0-41.8304-18.7392-41.8304-41.8304s18.7392-41.8304 41.8304-41.8304 41.8304 18.7392 41.8304 41.8304-18.688 41.8304-41.8304 41.8304z m159.1808 0c-23.0912 0-41.8304-18.7392-41.8304-41.8304s18.7392-41.8304 41.8304-41.8304 41.8304 18.7392 41.8304 41.8304-18.7392 41.8304-41.8304 41.8304z" fill="#FF7E3E" p-id="3257"></path><path d="M298.3936 271.616c-38.8608 0-70.3488 31.488-70.3488 70.3488v286.1568a448.3584 448.3584 0 0 0 250.4704-89.1904 41.56416 41.56416 0 0 1-5.2224-20.224c0-23.0912 18.7392-41.8304 41.8304-41.8304 8.9088 0 17.152 2.816 23.9616 7.5776 54.4256-58.5728 93.44-131.6352 110.592-212.7872H298.3936z m57.6 288.8704c-23.0912 0-41.8304-18.7392-41.8304-41.8304s18.7392-41.8304 41.8304-41.8304 41.8304 18.7392 41.8304 41.8304-18.7392 41.8304-41.8304 41.8304z" fill="#FF9552" p-id="3258"></path><path d="M298.3936 271.616c-38.8608 0-70.3488 31.488-70.3488 70.3488v107.2128c98.816-30.4128 183.1936-93.9008 240.128-177.5104H298.3936z" fill="#FFA56A" p-id="3259"></path></svg>