<svg class="icon" style="width: 1em;height: 1em;vertical-align: middle;fill: currentColor;overflow: hidden;" viewBox="0 0 1024 1024" version="1.1" xmlns="http://www.w3.org/2000/svg" p-id="4375"><path d="M505.088 513.1264m-450.816 0a450.816 450.816 0 1 0 901.632 0 450.816 450.816 0 1 0-901.632 0Z" fill="#FFF1DC" p-id="4376"></path><path d="M683.3664 220.3136H327.2192c-49.92 0-90.368 40.448-90.368 90.368v432.2304c0 25.4464 27.4944 41.3696 49.5616 28.672l76.9024-44.1856a33.0752 33.0752 0 0 1 38.5024 3.9936l81.664 72.9088c12.544 11.1616 31.488 11.2128 44.032 0.0512l82.4832-73.3184a33.05472 33.05472 0 0 1 38.656-3.84l75.264 43.9296c22.0672 12.8512 49.7664-3.0208 49.7664-28.5696V310.6816c0.0512-49.92-40.448-90.368-90.3168-90.368z m-88.2176 320.2048a26.52672 26.52672 0 0 1 0 53.0432h-63.3856v31.5904a26.52672 26.52672 0 0 1-53.0432 0v-31.5904H415.3856a26.52672 26.52672 0 0 1 0-53.0432h63.3856v-27.2896H415.3856a26.52672 26.52672 0 0 1 0-53.0432h31.1808l-45.0048-58.4704c-8.1408-10.5984-4.9152-24.9344 7.2192-32.0512 12.1344-7.1168 28.6208-4.3008 36.7616 6.2976l60.0576 78.0288 59.1872-78.8992c8.0384-10.7008 24.4224-13.6704 36.6592-6.656 12.2368 6.9632 15.6672 21.2992 7.68 32l-44.9024 59.8016h30.8736a26.52672 26.52672 0 0 1 0 53.0432h-63.3856v27.2896h63.4368z" fill="#FF8E12" p-id="4377"></path><path d="M683.3664 220.3136H327.2192c-49.92 0-90.368 40.448-90.368 90.368v432.2304c0 11.008 5.1712 20.224 12.7488 26.112 11.3152 1.6896 22.7328 2.9696 34.2528 3.84 0.8704-0.4096 1.6896-0.768 2.56-1.2288l76.9024-44.1856a33.0752 33.0752 0 0 1 38.5024 3.9936l31.0784 27.6992c193.024-51.0464 335.3088-226.816 335.3088-435.8656 0-17.0496-0.9728-33.8432-2.816-50.3808-14.336-30.976-45.6192-52.5824-82.0224-52.5824z m-88.2176 320.2048a26.52672 26.52672 0 0 1 0 53.0432h-63.3856v31.5904a26.52672 26.52672 0 0 1-53.0432 0v-31.5904H415.3856a26.52672 26.52672 0 0 1 0-53.0432h63.3856v-27.2896H415.3856a26.52672 26.52672 0 0 1 0-53.0432h31.1808l-45.0048-58.4704c-8.1408-10.5984-4.9152-24.9344 7.2192-32.0512 12.1344-7.1168 28.6208-4.3008 36.7616 6.2976l60.0576 78.0288 59.1872-78.8992c7.9872-10.7008 24.4224-13.6704 36.6592-6.656 12.2368 6.9632 15.6672 21.2992 7.68 32l-44.9024 59.8016h30.8736a26.52672 26.52672 0 0 1 0 53.0432h-63.3856v27.2896h63.4368z" fill="#FCA315" p-id="4378"></path><path d="M327.2192 220.3136c-49.92 0-90.368 40.448-90.368 90.368v301.312c54.1184-5.12 105.472-19.7632 152.32-42.2912-0.1024-0.8704-0.256-1.7408-0.256-2.6624 0-14.6432 11.8784-26.5216 26.5216-26.5216h25.344c12.9024-8.448 25.3952-17.5616 37.3248-27.2896H415.3856a26.52672 26.52672 0 0 1 0-53.0432h31.1808l-45.0048-58.4704c-8.1408-10.5984-4.9152-24.9344 7.2192-32.0512 12.1344-7.1168 28.6208-4.3008 36.7616 6.2976l60.0576 78.0288 59.1872-78.8992c6.9632-9.3184 20.3776-12.7488 31.7952-8.8576a446.95552 446.95552 0 0 0 44.6464-145.9712H327.2192z" fill="#FCB138" p-id="4379"></path><path d="M236.8512 310.6816v115.968c102.4-37.8368 187.2896-111.7696 239.2064-206.336H327.2192c-49.92 0-90.368 40.448-90.368 90.368z" fill="#FFC65E" p-id="4380"></path></svg>