<svg class="icon" style="width: 1em;height: 1em;vertical-align: middle;fill: currentColor;overflow: hidden;" viewBox="0 0 1024 1024" version="1.1" xmlns="http://www.w3.org/2000/svg" p-id="2079"><path d="M510.2592 508.2624m-450.816 0a450.816 450.816 0 1 0 901.632 0 450.816 450.816 0 1 0-901.632 0Z" fill="#FFE3DB" p-id="2080"></path><path d="M754.9952 249.856H368.8448v71.424a23.5008 23.5008 0 1 1-47.0016 0V249.856H265.472c-38.8608 0-70.3488 31.488-70.3488 70.3488v114.2272c38.2976 2.8672 68.5056 34.816 68.5056 73.8304 0 39.0656-30.208 70.9632-68.5056 73.8816V696.32c0 38.8608 31.488 70.3488 70.3488 70.3488h56.3712v-71.68a23.5008 23.5008 0 1 1 47.0016 0v71.68h386.2016c38.8608 0 70.3488-31.488 70.3488-70.3488V320.1536c-0.0512-38.8096-31.5392-70.2976-70.4-70.2976z m-386.1504 307.712a23.5008 23.5008 0 1 1-47.0016 0V458.6496a23.5008 23.5008 0 1 1 47.0016 0v98.9184z m352.6656-15.7184a23.5008 23.5008 0 1 1 0 47.0016h-98.56v50.5344a23.5008 23.5008 0 1 1-47.0016 0v-50.5344H477.3888a23.5008 23.5008 0 1 1 0-47.0016h98.56v-40.4992H477.3888a23.5008 23.5008 0 1 1 0-47.0016h74.24L493.9264 397.2608a23.51616 23.51616 0 0 1-0.1536-33.2288 23.51616 23.51616 0 0 1 33.2288-0.1536l72.8064 72.0896 74.1888-72.2432c9.3184-9.0624 24.1664-8.8576 33.2288 0.4608s8.8576 24.1664-0.4608 33.2288L648.192 454.4h73.3184a23.5008 23.5008 0 1 1 0 47.0016h-98.56v40.4992h98.56z" fill="#F23D4F" p-id="2081"></path><path d="M825.344 320.1536c0-38.8608-31.488-70.3488-70.3488-70.3488H368.8448v71.424c0 12.9536-10.496 23.5008-23.5008 23.5008s-23.5008-10.496-23.5008-23.5008V249.856H265.472c-38.8608 0-70.3488 31.488-70.3488 70.3488v114.2272c38.2976 2.8672 68.5056 34.816 68.5056 73.8816s-30.208 70.9632-68.5056 73.8816V696.32c0 38.8608 31.488 70.3488 70.3488 70.3488h56.3712v-71.68c0-12.9536 10.496-23.5008 23.5008-23.5008s23.5008 10.496 23.5008 23.5008v71.68h172.4928c144.4352-54.1696 253.696-180.3264 284.0576-334.7968V320.1536zM368.8448 557.568c0 12.9536-10.496 23.5008-23.5008 23.5008s-23.5008-10.496-23.5008-23.5008V458.6496c0-12.9536 10.496-23.5008 23.5008-23.5008s23.5008 10.496 23.5008 23.5008v98.9184z m352.6656-15.7184c12.9536 0 23.5008 10.496 23.5008 23.5008s-10.496 23.5008-23.5008 23.5008h-98.56v50.5344c0 12.9536-10.496 23.5008-23.5008 23.5008s-23.5008-10.496-23.5008-23.5008v-50.5344H477.3888c-12.9536 0-23.5008-10.496-23.5008-23.5008s10.496-23.5008 23.5008-23.5008h98.56v-40.4992H477.3888a23.5008 23.5008 0 1 1 0-47.0016h74.24L493.9264 397.2608a23.51616 23.51616 0 0 1-0.1536-33.2288 23.51616 23.51616 0 0 1 33.2288-0.1536l72.8064 72.0896 74.1888-72.2432a23.47008 23.47008 0 0 1 33.2288 0.4608 23.47008 23.47008 0 0 1-0.4608 33.2288L648.192 454.4h73.3184a23.5008 23.5008 0 1 1 0 47.0016h-98.56v40.4992h98.56z" fill="#FC4956" p-id="2082"></path><path d="M368.8448 321.28c0 12.9536-10.496 23.5008-23.5008 23.5008s-23.5008-10.496-23.5008-23.5008V249.856H265.472c-38.8608 0-70.3488 31.488-70.3488 70.3488v114.2272c38.2976 2.8672 68.5056 34.816 68.5056 73.8816s-30.208 70.9632-68.5056 73.8816v48.4352c21.0944 3.0208 42.6496 4.608 64.5632 4.608 74.1376 0 144.128-17.92 205.824-49.6128-6.912-4.096-11.6224-11.52-11.6224-20.1728a23.5008 23.5008 0 0 1 23.5008-23.5008h56.8832c14.6432-11.264 28.5184-23.3472 41.6768-36.3008v-4.2496H477.3888a23.5008 23.5008 0 1 1 0-47.0016h74.24L493.9264 397.2608a23.51616 23.51616 0 0 1-0.1536-33.2288 23.51616 23.51616 0 0 1 33.2288-0.1536l72.8064 72.0896 73.1648-71.2192a448.64 448.64 0 0 0 32.8192-114.8928H368.8448v71.424z m0 236.288c0 12.9536-10.496 23.5008-23.5008 23.5008s-23.5008-10.496-23.5008-23.5008V458.6496c0-12.9536 10.496-23.5008 23.5008-23.5008s23.5008 10.496 23.5008 23.5008v98.9184z" fill="#FF5C64" p-id="2083"></path><path d="M368.8448 321.28c0 12.9536-10.496 23.5008-23.5008 23.5008s-23.5008-10.496-23.5008-23.5008V249.856H265.472c-38.8608 0-70.3488 31.488-70.3488 70.3488v114.2272c21.9648 1.6384 41.216 12.9024 53.7088 29.4912 123.0336-28.6208 226.7136-107.6224 288.1536-214.0672H368.8448v71.424z" fill="#FF716E" p-id="2084"></path></svg>