<svg class="icon" style="width: 1em;height: 1em;vertical-align: middle;fill: currentColor;overflow: hidden;" viewBox="0 0 1024 1024" version="1.1" xmlns="http://www.w3.org/2000/svg" p-id="2916"><path d="M505.088 519.8336m-450.816 0a450.816 450.816 0 1 0 901.632 0 450.816 450.816 0 1 0-901.632 0Z" fill="#E9F4FF" p-id="2917"></path><path d="M834.3552 515.84c2.1504 179.3024-144.4352 329.6768-326.1952 331.1104-179.3024 1.4336-329.6768-144.5888-331.1104-326.3488-1.3824-179.9168 145.2032-329.6768 326.2976-331.1104 179.6096-1.4336 331.9808 143.104 331.008 326.3488z m-467.5072 154.624c1.3824-0.3584 4.1472-0.9216 6.8096-1.792 66.1504-21.6064 132.2496-43.264 198.4-64.768 9.4208-3.072 14.8992-8.8576 17.9712-18.3808 12.3392-38.656 25.1904-77.1072 37.888-115.6096 9.2672-28.16 18.688-56.2688 27.8528-84.4288 3.6864-11.4176-2.0992-17.7152-13.8752-15.4624-2.7648 0.512-5.4272 1.4848-8.0896 2.3552-64.3584 21.0432-128.6656 42.2912-193.0752 63.1296-10.1376 3.2768-16.0768 9.0624-19.3536 19.3536-14.5408 45.4656-29.7472 90.7264-44.6464 136.0384-7.0144 21.3504-14.1312 42.6496-21.0432 64.0512-2.9184 9.0112 1.3824 15.6672 11.1616 15.5136z" fill="#2595E8" p-id="2918"></path><path d="M504.7296 568.0128c-28.0576-1.1264-49.9712-24.1664-48.64-51.2512 1.3312-27.8016 23.6544-49.152 50.5856-48.384 27.648 0.768 50.0224 23.9616 48.9984 50.944-1.1264 28.5696-23.3472 49.8176-50.944 48.6912z" fill="#3A9CED" p-id="2919"></path><path d="M746.9056 388.6592c0-37.12-4.5056-73.216-13.0048-107.7248-60.16-57.344-142.0288-92.16-230.5024-91.4432-181.1456 1.4336-327.7312 151.1936-326.2976 331.1104 1.1264 142.336 93.5936 262.7072 219.7504 307.5584 200.4992-45.7728 350.0544-225.1264 350.0544-439.5008zM355.6864 654.848c6.912-21.4016 14.0288-42.7008 21.0432-64.0512 14.9504-45.312 30.1056-90.624 44.6464-136.0384 3.2768-10.2912 9.216-16.0768 19.3536-19.3536 64.4096-20.8384 128.7168-42.0352 193.0752-63.1296 2.6624-0.8704 5.3248-1.792 8.0896-2.3552 11.776-2.2016 17.5616 4.096 13.8752 15.4624-9.1648 28.2112-18.5856 56.32-27.8528 84.4288-12.6976 38.5024-25.5488 77.0048-37.888 115.6096-3.072 9.5744-8.5504 15.36-17.9712 18.3808-66.1504 21.504-132.3008 43.1616-198.4 64.768-2.6624 0.8704-5.376 1.4336-6.8096 1.792-9.7792 0.256-14.08-6.4-11.1616-15.5136z" fill="#3A9CED" p-id="2920"></path><path d="M376.7296 590.7968c14.9504-45.312 30.1056-90.624 44.6464-136.0384 3.2768-10.2912 9.216-16.0768 19.3536-19.3536 51.712-16.7424 103.3728-33.6896 155.0336-50.6368 17.9712-48.64 27.8016-101.2736 27.8016-156.16 0-5.8368-0.1536-11.6736-0.3584-17.4592-37.376-14.2336-77.824-21.9648-119.808-21.6576-181.1456 1.4336-327.7312 151.1936-326.2976 331.1104a326.1952 326.1952 0 0 0 41.2672 156.5184c50.4832-5.0688 98.5088-18.4832 142.6944-38.8608l15.6672-47.4624z" fill="#59ADF8" p-id="2921"></path><path d="M506.624 468.3776c-26.9312-0.7168-49.2544 20.6336-50.5856 48.384-0.8704 17.7664 8.2944 33.6896 22.5792 42.9568 24.1152-22.272 45.7728-47.1552 64.5632-74.1888-8.96-10.0864-21.9648-16.7424-36.5568-17.152z" fill="#59ADF8" p-id="2922"></path><path d="M177.408 504.2176c153.1904-41.472 274.0224-161.5872 316.416-314.4192-171.1616 6.4-309.248 145.0496-316.416 314.4192z" fill="#6BC2FC" p-id="2923"></path></svg>