<svg class="icon" style="width: 1em;height: 1em;vertical-align: middle;fill: currentColor;overflow: hidden;" viewBox="0 0 1024 1024" version="1.1" xmlns="http://www.w3.org/2000/svg" p-id="3739"><path d="M510.208 513.1264m-450.816 0a450.816 450.816 0 1 0 901.632 0 450.816 450.816 0 1 0-901.632 0Z" fill="#FFF1DC" p-id="3740"></path><path d="M728.1152 277.0944H285.8496c-41.5744 0-75.2128 33.6896-75.2128 75.2128v288c0 41.5744 33.6896 75.2128 75.2128 75.2128h48.4352c11.52 0 20.8384 9.3184 20.8384 20.8384v30.9248c0 16.64 18.5344 26.5728 32.3584 17.3568l98.816-65.6384a20.992 20.992 0 0 1 11.52-3.4816h230.1952c41.5744 0 75.2128-33.6896 75.2128-75.2128V352.3584c0.1024-41.5744-33.5872-75.264-75.1104-75.264z m-209.5616 341.0432h-22.6304c-103.8848 0-188.416-84.5312-188.416-188.416 0-16.1792 13.1072-29.2864 29.2864-29.2864 16.1792 0 29.2864 13.1072 29.2864 29.2864 0 71.5776 58.2144 129.792 129.792 129.792h22.6304c71.5776 0 129.792-58.2144 129.792-129.792 0-16.1792 13.1072-29.2864 29.2864-29.2864s29.2864 13.1072 29.2864 29.2864c0.1024 103.8848-84.4288 188.416-188.3136 188.416z" fill="#FF8E12" p-id="3741"></path><path d="M728.1152 277.0944H285.8496c-41.5744 0-75.2128 33.6896-75.2128 75.2128v288c0 41.5744 33.6896 75.2128 75.2128 75.2128h48.4864c11.52 0 20.8384 9.3184 20.8384 20.8384v30.9248c0 16.64 18.5344 26.5728 32.3584 17.3568l98.816-65.6384a20.992 20.992 0 0 1 11.52-3.4816h93.952c116.5312-81.5104 192.768-216.6784 192.768-369.664 0-15.4112-0.768-30.6176-2.304-45.6704-13.6704-14.1824-32.8704-23.0912-54.1696-23.0912z m-209.5616 341.0432h-22.6304c-103.8848 0-188.416-84.5312-188.416-188.416 0-16.1792 13.1072-29.2864 29.2864-29.2864 16.1792 0 29.2864 13.1072 29.2864 29.2864 0 71.5776 58.2144 129.792 129.792 129.792h22.6304c71.5776 0 129.792-58.2144 129.792-129.792 0-16.1792 13.1072-29.2864 29.2864-29.2864 16.1792 0 29.2864 13.1072 29.2864 29.2864 0.1024 103.8848-84.4288 188.416-188.3136 188.416z" fill="#FCA315" p-id="3742"></path><path d="M210.5856 352.3584v284.2624c68.8128 0 134.0416-15.4624 192.3584-43.1104-56.9856-32.4608-95.488-93.696-95.488-163.7888 0-16.1792 13.1072-29.2864 29.2864-29.2864 16.1792 0 29.2864 13.1072 29.2864 29.2864 0 61.7472 43.3664 113.5104 101.1712 126.5664 93.44-64.768 161.1264-163.9424 184.832-279.1936H285.8496c-41.5744 0-75.264 33.6896-75.264 75.264z" fill="#FCB138" p-id="3743"></path><path d="M210.5856 352.3584v110.336a444.54912 444.54912 0 0 0 97.3312-37.888 29.2864 29.2864 0 0 1 28.8768-24.3712c3.2768 0 6.4512 0.5632 9.4208 1.5872a453.33504 453.33504 0 0 0 125.4912-124.928h-185.856c-41.5744 0-75.264 33.6896-75.264 75.264z" fill="#FFC65E" p-id="3744"></path></svg>