<svg class="icon" style="width: 1em;height: 1em;vertical-align: middle;fill: currentColor;overflow: hidden;" viewBox="0 0 1024 1024" version="1.1" xmlns="http://www.w3.org/2000/svg" p-id="3833"><path d="M507.392 519.8336m-450.816 0a450.816 450.816 0 1 0 901.632 0 450.816 450.816 0 1 0-901.632 0Z" fill="#E3FFF3" p-id="3834"></path><path d="M777.9328 336.7424h-39.936c-1.536-24.2176-21.6064-43.3664-46.1824-43.3664H257.2288c-25.6 0-46.336 20.736-46.336 46.336v202.5984c0 81.7664 58.624 149.76 136.0896 164.4032H225.6896c-17.152 0-31.0272 13.8752-31.0272 31.0272s13.8752 31.0272 31.0272 31.0272h518.0928c17.152 0 31.0272-13.8752 31.0272-31.0272s-13.8752-31.0272-31.0272-31.0272h-141.6192c57.8048-10.9568 105.1136-51.712 125.3376-105.6768h7.3728c72.8576 0 132.1472-59.2896 132.1472-132.1472v-43.0592c0-49.152-39.936-89.088-89.088-89.088z m-438.784 200.6528c0 17.152-13.8752 31.0272-31.0272 31.0272s-31.0272-13.8752-31.0272-31.0272V436.2752c0-17.152 13.8752-31.0272 31.0272-31.0272s31.0272 13.8752 31.0272 31.0272v101.12z m465.8688-68.5056c0 37.5808-29.696 68.2496-66.8672 69.9392V398.7968h39.7824c14.8992 0 27.0336 12.1344 27.0336 27.0336v43.0592z" fill="#05C46D" p-id="3835"></path><path d="M706.3552 371.456c0-26.5216-2.6112-52.3776-7.3728-77.5168-2.3552-0.3584-4.7104-0.6144-7.1168-0.6144H257.2288c-25.6 0-46.336 20.736-46.336 46.336v202.5984c0 81.7664 58.624 149.76 136.0896 164.4032H225.6896c-17.152 0-31.0272 13.8752-31.0272 31.0272s13.8752 31.0272 31.0272 31.0272h175.9744c175.4624-46.9504 304.6912-206.9504 304.6912-397.2608z m-367.2064 165.9392c0 17.152-13.8752 31.0272-31.0272 31.0272s-31.0272-13.8752-31.0272-31.0272V436.2752c0-17.152 13.8752-31.0272 31.0272-31.0272s31.0272 13.8752 31.0272 31.0272v101.12z" fill="#1DCE75" p-id="3836"></path><path d="M588.1344 293.376H257.2288c-25.6 0-46.336 20.736-46.336 46.336v202.5984c0 33.4336 9.7792 64.512 26.6752 90.624 178.7392-23.9104 321.1264-162.6112 350.5664-339.5584z m-248.9856 244.0192c0 17.152-13.8752 31.0272-31.0272 31.0272s-31.0272-13.8752-31.0272-31.0272V436.2752c0-17.152 13.8752-31.0272 31.0272-31.0272s31.0272 13.8752 31.0272 31.0272v101.12z" fill="#3CD38E" p-id="3837"></path><path d="M277.0944 440.3712v-4.096a31.00672 31.00672 0 0 1 47.36-26.368 413.11232 413.11232 0 0 0 106.1888-116.5824H257.2288c-25.6 0-46.336 20.736-46.336 46.336v129.7408c23.04-7.7824 45.1584-17.4592 66.2016-29.0304z" fill="#48E1AA" p-id="3838"></path></svg>