<svg class="icon" style="width: 1em;height: 1em;vertical-align: middle;fill: currentColor;overflow: hidden;" viewBox="0 0 1024 1024" version="1.1" xmlns="http://www.w3.org/2000/svg" p-id="4938"><path d="M508.416 509.5936m-450.816 0a450.816 450.816 0 1 0 901.632 0 450.816 450.816 0 1 0-901.632 0Z" fill="#E9F4FF" p-id="4939"></path><path d="M480.6656 800.3072c4.9664-6.656 10.5472-12.9024 14.7968-19.968 19.5072-32.4608 15.0016-70.4-13.2608-99.7888-42.0864-43.7248-84.736-86.9376-127.744-129.792-25.5488-25.4976-63.0272-24.576-89.4976 0.9216-18.4832 17.8176-36.8128 35.84-56.0128 54.528-17.408-6.3488-25.6512-20.6848-25.7536-39.3216-0.4096-66.6112-0.512-133.2224 0.0512-199.7824 0.2048-24.2176 15.9232-39.9872 39.6288-40.5504 29.9008-0.7168 59.8016-0.1536 91.3408-0.1536-1.9968 3.2256-3.2768 5.5296-4.7616 7.6288-16.5888 23.4496-12.8512 54.528 9.8304 72.448 32.4096 25.6512 68.7616 30.0544 107.3152 16.6912 26.2144-9.0624 52.3264-18.5856 78.2336-28.5184 7.8848-3.0208 12.3904-2.6112 17.6128 4.9664 56.6784 82.176 113.8176 164.096 170.752 246.1184 19.0976 27.5456 12.6976 52.5824-17.3056 67.5328-56.2176 27.9552-112.4352 55.8592-168.8576 83.4048-7.5776 3.6864-16.384 5.0176-24.6272 7.424-0.5632-1.28-1.1776-2.56-1.7408-3.7888z" fill="#2298E0" p-id="4940"></path><path d="M538.5216 324.7616c-38.2976 17.8688-75.4688 34.816-112.2816 52.5312-22.016 10.5984-42.7008 6.8608-62.8224-3.8912-14.08-7.5264-16.128-19.8144-4.5056-30.8736 14.2848-13.6192 29.0816-26.9824 45.2608-38.1952 32.2048-22.272 65.024-43.7248 98.4064-64.1536 41.8816-25.6512 82.9952-16.1792 123.4432 5.3248 37.888 20.1216 76.0832 39.6288 114.1248 59.4944 16.5376 8.6528 34.0992 10.4448 52.5312 10.0864 34.7648-0.6656 49.408 14.2848 49.408 48.7424 0.0512 61.952 0.0512 123.904 0 185.856-0.0512 33.9968-14.4384 48.2816-48.4864 48.3328-17.7152 0-35.4304-0.4608-53.0944 0.2048-8.96 0.3584-14.2848-2.4064-19.456-10.0352-57.7024-84.0192-115.8144-167.7312-173.8752-251.5456-2.6112-3.6864-5.376-7.3728-8.6528-11.8784zM449.1776 736.3072c-2.9696 10.5984-4.8128 21.6576-9.0624 31.6928-7.2704 17.2032-25.7024 22.784-40.8064 11.9296-45.5168-32.8192-90.7264-65.9968-135.5264-99.6864-17.8688-13.4656-19.0464-36.096-4.096-53.504 6.9632-8.0896 14.4384-15.7696 22.2208-23.0912 15.104-14.1824 37.6832-13.6192 52.4288 1.28 33.3824 33.5872 66.56 67.2768 99.9424 100.864 8.3456 8.3456 14.592 17.5616 14.8992 30.5152z" fill="#2298E0" p-id="4941"></path><path d="M774.656 348.4672c0-11.4688-0.6144-22.784-1.536-33.9968-11.3664-1.1264-22.3744-3.84-32.9728-9.4208-37.9904-19.9168-76.2368-39.3728-114.1248-59.4944-40.448-21.504-81.5104-30.976-123.4432-5.3248-33.3824 20.4288-66.2016 41.8816-98.4064 64.1536-16.1792 11.2128-30.976 24.576-45.2608 38.1952-11.6224 11.0592-9.5232 23.3984 4.5056 30.8736 20.1216 10.752 40.8064 14.4896 62.8224 3.8912 36.7616-17.7152 73.9328-34.6624 112.2816-52.5312 3.2768 4.5056 5.9904 8.192 8.6016 11.9808 53.7088 77.568 107.52 155.0848 160.9728 232.8064a398.9504 398.9504 0 0 0 66.56-221.1328zM334.336 604.8256c-14.7456-14.848-37.3248-15.4624-52.4288-1.28a305.09056 305.09056 0 0 0-22.2208 23.0912c-15.0016 17.408-13.824 40.0384 4.096 53.504 30.6688 23.0912 61.5936 45.824 92.6208 68.4544 5.888 0.256 11.776 0.4608 17.7152 0.4608 25.1392 0 49.7152-2.4064 73.5744-6.8608 0.512-1.9968 0.9728-3.9936 1.536-5.9392-0.256-12.9024-6.5536-22.1184-14.8992-30.5664-33.4336-33.536-66.6112-67.2768-99.9936-100.864z" fill="#39A5E9" p-id="4942"></path><path d="M522.4448 399.616c-5.2224-7.5776-9.728-8.0384-17.6128-4.9664-25.9072 9.984-52.0192 19.5072-78.2336 28.5184-38.6048 13.312-74.9056 8.9088-107.3152-16.6912-22.6816-17.92-26.4192-48.9984-9.8304-72.448 1.4848-2.0992 2.7648-4.4032 4.7616-7.6288-31.5392 0-61.44-0.5632-91.3408 0.1536-23.7056 0.5632-39.424 16.3328-39.6288 40.5504-0.5632 66.6112-0.4608 133.2224-0.0512 199.7824 0.1024 18.6368 8.3456 32.9728 25.7536 39.3216 19.2-18.688 37.5296-36.7104 56.0128-54.528 26.4704-25.4976 63.9488-26.368 89.4976-0.9216 43.008 42.8544 85.6576 86.016 127.744 129.792 13.3632 13.9264 21.3504 29.7984 24.064 46.08 64.4608-22.528 121.4464-61.0816 166.144-110.8992-50.0224-71.9872-100.1472-143.9232-149.9648-216.1152z" fill="#39A5E9" p-id="4943"></path><path d="M660.8896 263.7824c-11.6224-6.0416-23.296-12.0832-34.8672-18.2272-40.448-21.504-81.5104-30.976-123.4432-5.3248-33.3824 20.4288-66.2016 41.8816-98.4064 64.1536-16.1792 11.2128-30.976 24.576-45.2608 38.1952-11.6224 11.0592-9.5232 23.3984 4.5056 30.8736 20.1216 10.752 40.8064 14.4896 62.8224 3.8912 36.7616-17.7152 73.9328-34.6624 112.2816-52.5312 3.2768 4.5056 5.9904 8.192 8.6016 11.9808l56.832 82.0224a397.32224 397.32224 0 0 0 56.9344-155.0336z" fill="#55B5F3" p-id="4944"></path><path d="M522.4448 399.616c-5.2224-7.5776-9.728-8.0384-17.6128-4.9664-25.9072 9.984-52.0192 19.5072-78.2336 28.5184-38.6048 13.312-74.9056 8.9088-107.3152-16.6912-22.6816-17.92-26.4192-48.9984-9.8304-72.448 1.4848-2.0992 2.7648-4.4032 4.7616-7.6288-31.5392 0-61.44-0.5632-91.3408 0.1536-23.7056 0.5632-39.424 16.3328-39.6288 40.5504-0.5632 66.6112-0.4608 133.2224-0.0512 199.7824 0.1024 15.0016 5.5808 27.136 16.7424 34.6624 3.9936 0.6656 8.0384 1.1776 12.0832 1.6896 18.0736-17.6128 35.4304-34.7136 52.992-51.5584 26.4704-25.4976 63.9488-26.368 89.4976-0.9216 11.9296 11.8784 23.7568 23.8592 35.6352 35.7888 70.144-23.1424 131.7376-65.1776 178.688-120.064-15.4624-22.272-30.976-44.544-46.3872-66.8672z" fill="#55B5F3" p-id="4945"></path><path d="M281.9072 603.5968c-0.9728 0.9216-1.8944 1.8944-2.9184 2.8672 17.408-0.6144 34.5088-2.3552 51.3024-5.12-14.592-11.3152-34.6112-10.7008-48.384 2.2528z" fill="#55B5F3" p-id="4946"></path><path d="M344.5248 421.8368c-8.6528-3.84-17.1008-8.9088-25.2416-15.4112-22.6816-17.92-26.4192-48.9984-9.8304-72.448 1.4848-2.0992 2.7648-4.4032 4.7616-7.6288-31.5392 0-61.44-0.5632-91.3408 0.1536-23.7056 0.5632-39.424 16.3328-39.6288 40.5504-0.256 32.4608-0.3584 64.9728-0.3584 97.4336a396.63616 396.63616 0 0 0 161.6384-42.6496zM529.152 228.5056c-8.8064 2.5088-17.664 6.2464-26.5216 11.7248-33.3824 20.4288-66.2016 41.8816-98.4064 64.1536-16.1792 11.2128-30.976 24.576-45.2608 38.1952-11.6224 11.0592-9.5232 23.3984 4.5056 30.8736 13.8752 7.424 28.0576 11.4688 42.752 9.8304a402.54464 402.54464 0 0 0 122.9312-154.7776z" fill="#6BC2FC" p-id="4947"></path></svg>