<svg class="icon" style="width: 1em;height: 1em;vertical-align: middle;fill: currentColor;overflow: hidden;" viewBox="0 0 1024 1024" version="1.1" xmlns="http://www.w3.org/2000/svg" p-id="5949"><path d="M512.1536 513.6384m-450.816 0a450.816 450.816 0 1 0 901.632 0 450.816 450.816 0 1 0-901.632 0Z" fill="#E9ECFF" p-id="5950"></path><path d="M692.7872 216.9344H331.52c-39.8336 0-72.1408 32.3072-72.1408 72.1408v449.1264c0 39.8336 32.3072 72.1408 72.1408 72.1408h361.2672c39.8336 0 72.1408-32.3072 72.1408-72.1408V289.0752c0-39.8848-32.256-72.1408-72.1408-72.1408zM383.0784 327.1168h235.4176c16.4352 0 29.7472 13.312 29.7472 29.7472 0 16.4352-13.312 29.7472-29.7472 29.7472H383.0784c-16.4352 0-29.7472-13.312-29.7472-29.7472 0-16.4352 13.312-29.7472 29.7472-29.7472z m0 106.752h135.6288c16.4352 0 29.7472 13.312 29.7472 29.7472s-13.312 29.7472-29.7472 29.7472H383.0784c-16.4352 0-29.7472-13.312-29.7472-29.7472s13.312-29.7472 29.7472-29.7472z m67.7888 166.2976H383.0784c-16.4352 0-29.7472-13.312-29.7472-29.7472 0-16.4352 13.312-29.7472 29.7472-29.7472h67.7888c16.4352 0 29.7472 13.312 29.7472 29.7472 0 16.4352-13.312 29.7472-29.7472 29.7472z m262.7072 4.0448l-43.2128 42.1376c-1.9968 1.9456-2.8672 4.7104-2.4064 7.424l10.1888 59.4944c1.1776 6.8608-5.9904 12.032-12.1344 8.8064l-53.4528-28.1088c-2.4576-1.28-5.3248-1.28-7.7824 0l-53.4528 28.1088c-6.144 3.2256-13.312-1.9968-12.1344-8.8064l10.1888-59.4944c0.4608-2.7136-0.4096-5.4784-2.4064-7.424l-43.2128-42.1376c-4.9664-4.864-2.2016-13.2608 4.6592-14.2848l59.7504-8.704c2.7136-0.4096 5.0688-2.0992 6.2976-4.5568l26.7264-54.1184c3.072-6.1952 11.9296-6.1952 15.0016 0l26.7264 54.1184c1.2288 2.4576 3.584 4.1984 6.2976 4.5568l59.7504 8.704c6.8608 1.024 9.5744 9.472 4.608 14.2848z" fill="#6C6CEA" p-id="5951"></path><path d="M670.3616 646.3488c-1.9968 1.9456-2.8672 4.7104-2.4064 7.424l0.3072 1.9456c8.7552-10.1376 16.9984-20.6336 24.832-31.5392l-22.7328 22.1696zM764.928 289.0752c0-39.8336-32.3072-72.1408-72.1408-72.1408H331.52c-39.8336 0-72.1408 32.3072-72.1408 72.1408v449.1264c0 39.8336 32.3072 72.1408 72.1408 72.1408h35.9424c97.9968-8.7552 186.9312-48.8448 256.768-110.2336l-11.6736-6.144c-2.4576-1.28-5.3248-1.28-7.7824 0l-53.4528 28.1088c-6.144 3.2256-13.312-1.9968-12.1344-8.8064l10.1888-59.4944c0.4608-2.7136-0.4096-5.4784-2.4064-7.424l-43.2128-42.1376c-4.9664-4.864-2.2016-13.2608 4.6592-14.2848l59.7504-8.704c2.7136-0.4096 5.0688-2.0992 6.2976-4.5568l26.7264-54.1184c3.072-6.1952 11.9296-6.1952 15.0016 0l26.7264 54.1184c1.2288 2.4576 3.584 4.1984 6.2976 4.5568l59.7504 8.704c2.048 0.3072 3.6864 1.3312 4.9152 2.6624a447.5904 447.5904 0 0 0 51.0976-124.7744V289.0752z m-314.0608 311.0912H383.0784c-16.4352 0-29.7472-13.312-29.7472-29.7472 0-16.4352 13.312-29.7472 29.7472-29.7472h67.7888c16.4352 0 29.7472 13.312 29.7472 29.7472 0 16.4352-13.312 29.7472-29.7472 29.7472z m67.84-106.8032H383.0784c-16.4352 0-29.7472-13.312-29.7472-29.7472s13.312-29.7472 29.7472-29.7472h135.6288c16.4352 0 29.7472 13.312 29.7472 29.7472s-13.3632 29.7472-29.7472 29.7472z m99.7888-106.752H383.0784c-16.4352 0-29.7472-13.312-29.7472-29.7472 0-16.4352 13.312-29.7472 29.7472-29.7472h235.4176c16.4352 0 29.7472 13.312 29.7472 29.7472 0 16.4352-13.312 29.7472-29.7472 29.7472z" fill="#757BF2" p-id="5952"></path><path d="M413.696 600.1664h-30.6176c-16.4352 0-29.7472-13.312-29.7472-29.7472 0-16.4352 13.312-29.7472 29.7472-29.7472h67.7888c12.288 0 22.784 7.424 27.3408 18.0224 58.4704-45.0048 105.6256-104.0384 136.3456-172.0832H383.0784c-16.4352 0-29.7472-13.312-29.7472-29.7472 0-16.4352 13.312-29.7472 29.7472-29.7472h235.4176c6.0928 0 11.776 1.8432 16.4864 5.0176 11.1104-36.6592 17.664-75.264 18.9952-115.2H331.52c-39.8336 0-72.1408 32.3072-72.1408 72.1408v359.5776a448.53248 448.53248 0 0 0 154.3168-48.4864z m-30.6176-166.2976h135.6288c16.4352 0 29.7472 13.312 29.7472 29.7472s-13.312 29.7472-29.7472 29.7472H383.0784c-16.4352 0-29.7472-13.312-29.7472-29.7472s13.312-29.7472 29.7472-29.7472z" fill="#8486F8" p-id="5953"></path><path d="M380.5696 386.4576a29.7216 29.7216 0 0 1 2.5088-59.3408h56.0128c27.136-33.1264 49.664-70.1952 66.5088-110.1824h-174.08c-39.8336 0-72.1408 32.3072-72.1408 72.1408v170.5984a451.97312 451.97312 0 0 0 121.1904-73.216z" fill="#8D92F8" p-id="5954"></path></svg>