<svg class="icon" style="width: 1em;height: 1em;vertical-align: middle;fill: currentColor;overflow: hidden;" viewBox="0 0 1024 1024" version="1.1" xmlns="http://www.w3.org/2000/svg" p-id="5544"><path d="M509.184 519.8336m-450.816 0a450.816 450.816 0 1 0 901.632 0 450.816 450.816 0 1 0-901.632 0Z" fill="#FFE1E9" p-id="5545"></path><path d="M466.0736 529.4592h88.576l-42.5984-95.5392z" fill="#FF5F89" p-id="5546"></path><path d="M513.2288 192.6144c-178.3296 0-323.4304 145.1008-323.4304 323.4304s145.1008 323.4304 323.4304 323.4304 323.4304-145.1008 323.4304-323.4304-145.1008-323.4304-323.4304-323.4304z m144.384 483.328c-4.5568 2.048-9.3184 2.9696-13.9776 2.9696-13.1584 0-25.7536-7.5776-31.4368-20.4288l-26.88-60.2112H432.9472l-29.3888 61.1328a34.38592 34.38592 0 0 1-45.9264 16.0768 34.41664 34.41664 0 0 1-16.0768-45.9264l140.6976-292.4032a34.44224 34.44224 0 0 1 31.0272-19.5072h0.512c13.4144 0.2048 25.4464 8.1408 30.9248 20.3776l130.4064 292.4032c7.68 17.408-0.1536 37.7856-17.5104 45.5168z" fill="#FF3369" p-id="5547"></path><path d="M742.8608 288.5632c-58.624-59.1872-139.9296-95.9488-229.632-95.9488-178.3296 0-323.4304 145.1008-323.4304 323.4304 0 144.0256 94.6688 266.2912 224.9728 308.0704 91.8528-23.4496 172.4416-75.1616 231.936-145.3056a34.3296 34.3296 0 0 1-34.56-20.2752l-26.88-60.2112H432.9472l-29.3888 61.1328a34.38592 34.38592 0 0 1-45.9264 16.0768 34.41664 34.41664 0 0 1-16.0768-45.9264l140.6976-292.4032a34.44224 34.44224 0 0 1 31.0272-19.5072h0.512c13.4144 0.2048 25.4464 8.1408 30.9248 20.3776l130.4064 292.4032c1.1264 2.56 1.8944 5.12 2.3552 7.7824 48.1792-71.7312 76.288-158.1056 76.288-250.9824a453.888 453.888 0 0 0-10.9056-98.7136z" fill="#FF4D7C" p-id="5548"></path><path d="M189.7984 515.9936c0 57.7536 15.3088 111.9744 41.9328 158.9248 37.12-4.3008 72.9088-13.056 106.752-25.8048a34.56 34.56 0 0 1 3.072-19.5584l140.6976-292.4032a34.44224 34.44224 0 0 1 31.0272-19.5072h0.512c13.4144 0.2048 25.4464 8.1408 30.9248 20.3776l39.3728 88.3712c29.6448-60.1088 46.336-127.744 46.336-199.2704 0-4.1984-0.0512-8.3968-0.2048-12.544a321.77152 321.77152 0 0 0-116.992-22.016c-178.3296 0.0512-323.4304 145.1008-323.4304 323.4304zM435.5072 598.272h-2.56l-1.28 2.6624c1.3312-0.8704 2.56-1.7408 3.84-2.6624z" fill="#FF5F89" p-id="5549"></path><path d="M190.208 501.1456c148.8384-42.496 266.1888-159.5392 309.1456-308.1728-167.0144 7.0656-301.568 141.312-309.1456 308.1728z" fill="#FF7196" p-id="5550"></path></svg>