<svg class="icon" style="width: 1em;height: 1em;vertical-align: middle;fill: currentColor;overflow: hidden;" viewBox="0 0 1024 1024" version="1.1" xmlns="http://www.w3.org/2000/svg" p-id="5642"><path d="M514.304 515.1232m-450.816 0a450.816 450.816 0 1 0 901.632 0 450.816 450.816 0 1 0-901.632 0Z" fill="#FFF7DC" p-id="5643"></path><path d="M670.1056 602.0608c0.1536-0.0512 0.3072-0.0512 0.4608-0.1024 158.464-45.4144 161.5872-222.4128 160.5632-257.4848a37.89824 37.89824 0 0 0-38.0928-37.0176h-0.1024l-75.8272 0.1536V295.936c0-29.952-24.3712-54.272-54.272-54.272H368.128c-29.952 0-54.272 24.3712-54.272 54.272v11.52H235.5712c-20.7872 0-37.5296 16.2816-38.0928 37.0176-0.9728 35.0208 2.0992 212.0704 160.5632 257.4848 1.1264 0.3072 2.2528 0.512 3.3792 0.7168 30.6176 36.2496 73.728 61.5936 122.624 69.2736v72.9088H371.7632c-17.7152 0-32.1024 14.336-32.1024 32.1024 0 17.7152 14.336 32.0512 32.1024 32.0512h287.1808c17.7152 0 32.1024-14.336 32.1024-32.0512s-14.336-32.1024-32.1024-32.1024h-110.7456v-73.1648c48.64-7.936 91.4944-33.3824 121.9072-69.632z m47.0016-129.28V371.8144l49.3056-0.1024c-2.4064 34.8672-12.6464 92.672-51.712 132.352 1.5872-10.1888 2.4064-20.6336 2.4064-31.2832zM262.1952 371.6096H313.856v101.1712c0 11.6224 1.024 22.9888 2.9184 34.048-41.472-39.7312-52.1216-99.5328-54.5792-135.2192z m175.2064 100.4032c0 16.9472-13.7728 30.72-30.72 30.72s-30.72-13.7728-30.72-30.72V354.9696c0-16.9472 13.7728-30.72 30.72-30.72s30.72 13.7728 30.72 30.72v117.0432z" fill="#FF8E12" p-id="5644"></path><path d="M692.2752 348.0576c0-36.1984-5.1712-71.168-14.6432-104.2944-4.7104-1.3312-9.6768-2.0992-14.7968-2.0992H368.128c-29.952 0-54.272 24.3712-54.272 54.272v11.52H235.5712c-20.7872 0-37.5296 16.2816-38.0928 37.0176-0.9728 35.0208 2.0992 212.0704 160.5632 257.4848 1.1264 0.3072 2.2528 0.512 3.3792 0.7168 30.6176 36.2496 73.728 61.5936 122.624 69.2736v14.8992c123.4944-62.6688 208.2304-190.8224 208.2304-338.7904z m-430.08 23.552H313.856v101.1712c0 11.6224 1.024 22.9888 2.9184 34.048-41.472-39.7312-52.1216-99.5328-54.5792-135.2192z m175.2064 100.4032c0 16.9472-13.7728 30.72-30.72 30.72s-30.72-13.7728-30.72-30.72V354.9696c0-16.9472 13.7728-30.72 30.72-30.72s30.72 13.7728 30.72 30.72v117.0432z" fill="#FCA315" p-id="5645"></path><path d="M587.2128 241.664H368.128c-29.952 0-54.272 24.3712-54.272 54.272v11.52H235.5712c-20.7872 0-37.5296 16.2816-38.0928 37.0176-0.8704 30.7712 1.4336 171.1104 109.4656 235.5712 153.1904-40.96 268.1856-175.3088 280.2688-338.3808zM262.1952 371.6096H313.856v101.1712c0 11.6224 1.024 22.9888 2.9184 34.048-41.472-39.7312-52.1216-99.5328-54.5792-135.2192z m175.2064 100.4032c0 16.9472-13.7728 30.72-30.72 30.72s-30.72-13.7728-30.72-30.72V354.9696c0-16.9472 13.7728-30.72 30.72-30.72s30.72 13.7728 30.72 30.72v117.0432z" fill="#FCB138" p-id="5646"></path><path d="M262.1952 371.6096H313.856v29.5424c22.4256-13.9776 43.264-30.2592 62.2592-48.4864a30.59712 30.59712 0 0 1 26.4192-28.0576c21.2992-25.0368 39.424-52.8896 53.7088-82.8928H368.128c-29.952 0-54.272 24.3712-54.272 54.272v11.52H235.5712c-20.7872 0-37.5296 16.2816-38.0928 37.0176-0.4096 15.0016-0.0512 55.9616 12.8512 101.4784 20.9408-5.5296 41.1648-12.8512 60.5184-21.7088-5.2736-19.6096-7.68-38.144-8.6528-52.6848z" fill="#FFC65E" p-id="5647"></path></svg>