<svg class="icon" style="width: 1em;height: 1em;vertical-align: middle;fill: currentColor;overflow: hidden;" viewBox="0 0 1024 1024" version="1.1" xmlns="http://www.w3.org/2000/svg" p-id="5458"><path d="M511.744 519.8336m-450.816 0a450.816 450.816 0 1 0 901.632 0 450.816 450.816 0 1 0-901.632 0Z" fill="#E3FFF3" p-id="5459"></path><path d="M306.8416 445.8496h-68.608c-15.5648 0-28.16-12.5952-28.16-28.16s12.5952-28.16 28.16-28.16h68.608c15.5648 0 28.16 12.5952 28.16 28.16s-12.5952 28.16-28.16 28.16zM306.8416 640.8704h-68.608c-15.5648 0-28.16-12.5952-28.16-28.16s12.5952-28.16 28.16-28.16h68.608c15.5648 0 28.16 12.5952 28.16 28.16s-12.5952 28.16-28.16 28.16z" fill="#3CD38E" p-id="5460"></path><path d="M554.3424 460.8512c13.824 0 25.088-11.264 25.088-25.088s-11.264-25.088-25.088-25.088-25.088 11.264-25.088 25.088 11.264 25.088 25.088 25.088z" fill="#05C46D" p-id="5461"></path><path d="M554.3424 559.872c-34.4064 0-64.6656 20.7872-77.1584 52.3264h154.368c-12.4928-31.5392-42.8032-52.3264-77.2096-52.3264z" fill="#1DCE75" p-id="5462"></path><path d="M664.576 221.5936H384.768c-63.488 0-115.0976 51.6608-115.0976 115.0976v4.1984h37.1712c42.3936 0 76.8 34.4064 76.8 76.8s-34.4064 76.8-76.8 76.8h-37.1712v41.5232h37.1712c42.3936 0 76.8 34.4064 76.8 76.8s-34.4064 76.8-76.8 76.8h-37.1712v2.7136c0 63.488 51.6608 115.0976 115.0976 115.0976h279.808c63.488 0 115.0976-51.6608 115.0976-115.0976V336.6912c0-63.488-51.6096-115.0976-115.0976-115.0976z m19.1488 428.544a57.6 57.6 0 0 1-46.336 23.5008H471.296c-18.2272 0-35.584-8.8064-46.336-23.5008-10.8544-14.7968-13.9264-33.2288-8.448-50.6368A143.6416 143.6416 0 0 1 505.344 507.0336c-22.6304-15.616-37.5296-41.728-37.5296-71.2704 0-47.7184 38.8096-86.528 86.528-86.528 47.7184 0 86.528 38.8096 86.528 86.528 0 29.5424-14.8992 55.6544-37.5296 71.2704 41.6256 14.8992 74.9056 48.3328 88.832 92.4672 5.4784 17.408 2.4064 35.84-8.448 50.6368z" fill="#05C46D" p-id="5463"></path><path d="M664.576 221.5936H384.768c-63.488 0-115.0976 51.6608-115.0976 115.0976v4.1984h37.1712c42.3936 0 76.8 34.4064 76.8 76.8s-34.4064 76.8-76.8 76.8h-37.1712v41.5232h37.1712c42.3936 0 76.8 34.4064 76.8 76.8s-34.4064 76.8-76.8 76.8h-37.1712v2.7136c0 63.488 51.6608 115.0976 115.0976 115.0976h279.808c63.488 0 115.0976-51.6608 115.0976-115.0976V336.6912c0-63.488-51.6096-115.0976-115.0976-115.0976z m19.1488 428.544a57.6 57.6 0 0 1-46.336 23.5008H471.296c-18.2272 0-35.584-8.8064-46.336-23.5008-10.8544-14.7968-13.9264-33.2288-8.448-50.6368A143.6416 143.6416 0 0 1 505.344 507.0336c-22.6304-15.616-37.5296-41.728-37.5296-71.2704 0-47.7184 38.8096-86.528 86.528-86.528 47.7184 0 86.528 38.8096 86.528 86.528 0 29.5424-14.8992 55.6544-37.5296 71.2704 41.6256 14.8992 74.9056 48.3328 88.832 92.4672 5.4784 17.408 2.4064 35.84-8.448 50.6368z" fill="#05C46D" p-id="5464"></path><path d="M779.6736 440.7296V336.6912c0-63.488-51.6608-115.0976-115.0976-115.0976H384.768c-63.488 0-115.0976 51.6608-115.0976 115.0976v4.1984h37.1712c42.3936 0 76.8 34.4064 76.8 76.8s-34.4064 76.8-76.8 76.8h-37.1712v41.5232h37.1712c42.3936 0 76.8 34.4064 76.8 76.8s-34.4064 76.8-76.8 76.8h-37.1712v2.7136c0 61.3888 48.3328 111.7184 108.9536 114.944 113.2032-10.5472 214.272-62.8736 287.5392-141.5168-8.6528 5.0176-18.5856 7.8848-28.8256 7.8848H471.296c-18.2272 0-35.584-8.8064-46.336-23.5008-10.8544-14.7968-13.9264-33.2288-8.448-50.6368A143.6416 143.6416 0 0 1 505.344 507.0336c-22.6304-15.616-37.5296-41.728-37.5296-71.2704 0-47.7184 38.8096-86.528 86.528-86.528 47.7184 0 86.528 38.8096 86.528 86.528 0 29.5424-14.8992 55.6544-37.5296 71.2704 41.6256 14.8992 74.9056 48.3328 88.832 92.4672 3.9424 12.544 3.3792 25.6-1.2288 37.4272a448.4352 448.4352 0 0 0 88.7296-196.1984z" fill="#1DCE75" p-id="5465"></path><path d="M416.1536 600.8832c0.1536-0.4608 0.2048-0.9216 0.3584-1.4336A143.6416 143.6416 0 0 1 505.344 506.9824c-22.6304-15.616-37.5296-41.728-37.5296-71.2704 0-47.7184 38.8096-86.528 86.528-86.528 28.4672 0 53.7088 13.8752 69.4784 35.1744a447.744 447.744 0 0 0 39.4752-162.816h-278.528c-63.488 0-115.0976 51.6608-115.0976 115.0976v4.1984h37.1712c42.3936 0 76.8 34.4064 76.8 76.8s-34.4064 76.8-76.8 76.8h-37.1712v41.5232h37.1712c42.3936 0 76.8 34.4064 76.8 76.8 0 1.024-0.1024 1.9968-0.1536 2.9696 11.1104-4.4544 22.016-9.4208 32.6656-14.848z" fill="#3CD38E" p-id="5466"></path><path d="M511.8976 221.5936H384.768c-63.488 0-115.0976 51.6608-115.0976 115.0976v4.1984h37.1712c33.536 0 62.0032 21.5552 72.448 51.5584 56.9344-45.1072 102.7584-103.68 132.608-170.8544zM306.8416 389.5296h-68.608c-15.5648 0-28.16 12.5952-28.16 28.16s12.5952 28.16 28.16 28.16h55.4496c13.9776-6.656 27.5456-14.0288 40.6528-22.016 0.4608-1.9968 0.6656-4.0448 0.6656-6.144 0-15.5648-12.5952-28.16-28.16-28.16z" fill="#48E1AA" p-id="5467"></path></svg>