<svg class="icon" style="width: 1em;height: 1em;vertical-align: middle;fill: currentColor;overflow: hidden;" viewBox="0 0 1024 1024" version="1.1" xmlns="http://www.w3.org/2000/svg" p-id="5590"><path d="M514.2528 514.7136m-450.816 0a450.816 450.816 0 1 0 901.632 0 450.816 450.816 0 1 0-901.632 0Z" fill="#FFF1DC" p-id="5591"></path><path d="M759.3984 438.0672l-141.824 137.0624a74.74176 74.74176 0 0 1-21.7088 14.6432l-73.472 32.8704c-11.1616 5.0176-23.04 7.5264-35.328 7.5264-21.6576 0-42.4448-8.0896-58.4192-22.7328a86.50752 86.50752 0 0 1-23.3472-92.0576l25.344-73.2672c3.7888-10.9568 10.1376-21.0432 18.3808-29.184l155.6992-153.5488-11.5712-13.3632a28.0576 28.0576 0 0 0-21.2992-9.728H316.2112c-45.8752 0-83.3024 37.3248-83.3536 83.2-0.1536 95.232-0.0512 287.6416 0.0512 393.8304 0.0512 45.568 37.12 82.6368 82.688 82.688 55.9104 0.0512 165.7344 0.1024 262.7072 0.1024 49.4592 0 95.5904 0 129.536-0.0512 45.8752-0.0512 83.2-37.4272 83.2-83.3536V485.12c0-6.7584-2.4576-13.312-6.8608-18.432l-24.7808-28.6208z" fill="#FC7032" p-id="5592"></path><path d="M633.5488 301.9776l-148.5824 147.456c-2.6624 2.6624-4.7104 5.888-5.9392 9.4208l-25.344 73.2672a35.30752 35.30752 0 0 0 33.3824 46.848c4.864 0 9.7792-1.024 14.4384-3.072l73.472-32.8704c2.6112-1.1776 4.9664-2.7648 7.0144-4.7616l141.6704-138.0864-90.112-98.2016z" fill="#FF7E3E" p-id="5593"></path><path d="M784.4864 286.4128l-36.8128-38.2976a40.26368 40.26368 0 0 0-28.672-12.4416c-10.8544-0.2048-21.248 3.9936-29.0304 11.6736l-17.7152 17.5104 90.5728 98.816 20.6336-19.968c16.0256-15.5648 16.4864-41.216 1.024-57.2928z" fill="#FC7032" p-id="5594"></path><path d="M771.072 451.584l-11.6736-13.4656-141.824 137.0624a74.74176 74.74176 0 0 1-21.7088 14.6432l-73.472 32.8704c-11.1616 5.0176-23.04 7.5264-35.328 7.5264-21.6576 0-42.4448-8.0896-58.4192-22.7328a86.50752 86.50752 0 0 1-23.3472-92.0576l25.344-73.2672c3.7888-10.9568 10.1376-21.0432 18.3808-29.184l155.6992-153.5488-11.5712-13.3632a28.0576 28.0576 0 0 0-21.2992-9.728H316.2112c-45.8752 0-83.3024 37.3248-83.3536 83.2-0.1536 95.232-0.0512 287.6416 0.0512 393.8304 0.0512 45.568 37.12 82.6368 82.688 82.688 29.696 0 74.5472 0.0512 124.6208 0.0512 166.144-41.8304 295.6288-175.872 330.8544-344.5248zM772.608 273.9712l-24.9344-25.9072a40.26368 40.26368 0 0 0-28.672-12.4416c-10.8544-0.2048-21.248 3.9936-29.0304 11.6736l-17.7152 17.5104 90.5728 98.816 17.6128-17.0496c-0.6656-24.7808-3.3792-48.9984-7.8336-72.6016z" fill="#FF7E3E" p-id="5595"></path><path d="M405.2992 515.4304l25.344-73.2672c3.7888-10.9568 10.1376-21.0432 18.3808-29.184l155.6992-153.5488-11.5712-13.3632a28.0576 28.0576 0 0 0-21.2992-9.728H316.2112c-45.8752 0-83.3024 37.3248-83.3536 83.2-0.1024 78.1312-0.0512 221.6448 0 329.3184a448.0256 448.0256 0 0 0 185.856-52.224 86.56896 86.56896 0 0 1-13.4144-81.2032z" fill="#FF9552" p-id="5596"></path><path d="M642.9184 312.2176l-9.3184-10.1888-148.5824 147.456c-2.6624 2.6624-4.7104 5.888-5.9392 9.4208l-25.344 73.2672a35.29216 35.29216 0 0 0 9.3184 37.376c87.4496-60.672 152.4224-151.4496 179.8656-257.3312z" fill="#FF9552" p-id="5597"></path><path d="M498.6368 236.3392H316.2112c-45.8752 0-83.3024 37.3248-83.3536 83.2-0.0512 37.9392-0.0512 91.2896-0.0512 148.4288 116.8384-38.0416 212.6848-122.5216 265.8304-231.6288z" fill="#FFA56A" p-id="5598"></path></svg>