<svg class="icon" style="width: 1em;height: 1em;vertical-align: middle;fill: currentColor;overflow: hidden;" viewBox="0 0 1024 1024" version="1.1" xmlns="http://www.w3.org/2000/svg" p-id="5440"><path d="M507.392 519.8336m-450.816 0a450.816 450.816 0 1 0 901.632 0 450.816 450.816 0 1 0-901.632 0Z" fill="#E9F4FF" p-id="5441"></path><path d="M714.8544 267.4688H293.3248c-63.8464 0-115.8144 51.968-115.8144 115.8144v277.248c0 63.8464 51.968 115.8144 115.8144 115.8144h421.5296c63.8464 0 115.8144-51.968 115.8144-115.8144V383.232c0-63.8464-51.968-115.7632-115.8144-115.7632z m-142.6944 113.7664h110.4384c17.6128 0 31.9488 14.2848 31.9488 31.9488 0 17.6128-14.2848 31.9488-31.9488 31.9488h-110.4384c-17.6128 0-31.9488-14.2848-31.9488-31.9488 0.0512-17.664 14.336-31.9488 31.9488-31.9488z m0 96.4608h110.4384c17.6128 0 31.9488 14.2848 31.9488 31.9488 0 17.6128-14.2848 31.9488-31.9488 31.9488h-110.4384c-17.6128 0-31.9488-14.2848-31.9488-31.9488 0.0512-17.664 14.336-31.9488 31.9488-31.9488z m-68.3008 156.7744c-12.2368 21.8624-35.328 35.4304-60.3648 35.4304H327.936c-24.9856 0-48.128-13.568-60.3648-35.4304-12.288-21.9648-11.8272-47.872 1.3312-69.2736 10.5984-17.3056 24.576-31.5904 40.704-42.3936-12.288-16.0768-19.6608-36.1472-19.6608-57.9072 0-52.7872 42.9568-95.744 95.744-95.744s95.744 42.9568 95.744 95.744c0 21.76-7.3728 41.7792-19.6608 57.9072 16.128 10.8032 30.1056 25.088 40.704 42.3936 13.1584 21.3504 13.6704 47.2576 1.3824 69.2736z m218.2144 23.8592h-149.9136c-17.6128 0-31.9488-14.2848-31.9488-31.9488 0-17.6128 14.2848-31.9488 31.9488-31.9488h149.9136c17.6128 0 31.9488 14.2848 31.9488 31.9488-0.0512 17.664-14.336 31.9488-31.9488 31.9488z" fill="#00A0E9" p-id="5442"></path><path d="M385.6896 464.896m-29.5424 0a29.5424 29.5424 0 1 0 59.0848 0 29.5424 29.5424 0 1 0-59.0848 0Z" fill="#55B5F3" p-id="5443"></path><path d="M385.6896 566.016c-24.832 0-47.36 12.6464-60.3648 33.8432-0.256 0.4608-0.6656 1.0752 0.0512 2.304 0.8704 1.536 2.048 1.536 2.56 1.536h115.5584c0.512 0 1.6896 0 2.56-1.536 0.7168-1.2288 0.3072-1.8432 0.0512-2.304-13.0048-21.1968-35.584-33.8432-60.416-33.8432z" fill="#39A5E9" p-id="5444"></path><path d="M714.8544 267.4688H293.3248c-63.8464 0-115.8144 51.968-115.8144 115.8144v277.248c0 63.8464 51.968 115.8144 115.8144 115.8144h206.848c73.8816-23.04 139.776-64.0512 192.6144-117.9648h-120.6272c-17.6128 0-31.9488-14.2848-31.9488-31.9488s14.2848-31.9488 31.9488-31.9488h149.9136c7.0144 0 13.5168 2.304 18.7904 6.144 50.7904-72.0896 81.4592-159.2832 83.968-253.5424-15.2064-46.1824-58.7264-79.616-109.9776-79.616z m-210.9952 367.0016c-12.2368 21.8624-35.328 35.4304-60.3648 35.4304H327.936c-24.9856 0-48.128-13.568-60.3648-35.4304-12.288-21.9648-11.8272-47.872 1.3312-69.2736 10.5984-17.3056 24.576-31.5904 40.704-42.3936-12.288-16.0768-19.6608-36.1472-19.6608-57.9072 0-52.7872 42.9568-95.744 95.744-95.744 52.7872 0 95.744 42.9568 95.744 95.744 0 21.76-7.3728 41.7792-19.6608 57.9072 16.128 10.8032 30.1056 25.088 40.704 42.3936 13.1584 21.3504 13.6704 47.2576 1.3824 69.2736z m178.7904-92.928h-110.4384c-17.6128 0-31.9488-14.2848-31.9488-31.9488s14.2848-31.9488 31.9488-31.9488h110.4384c17.6128 0 31.9488 14.2848 31.9488 31.9488s-14.336 31.9488-31.9488 31.9488z m0-96.4608h-110.4384c-17.6128 0-31.9488-14.2848-31.9488-31.9488s14.2848-31.9488 31.9488-31.9488h110.4384c17.6128 0 31.9488 14.2848 31.9488 31.9488s-14.336 31.9488-31.9488 31.9488z" fill="#39A5E9" p-id="5445"></path><path d="M235.8272 632.8832c10.24 0 20.3776-0.3584 30.4128-1.024-10.8544-21.4016-9.9328-46.1312 2.6624-66.7136 10.5984-17.3056 24.576-31.5904 40.704-42.3936-12.288-16.0768-19.6608-36.1472-19.6608-57.9072 0-52.7872 42.9568-95.744 95.744-95.744 52.7872 0 95.744 42.9568 95.744 95.744 0 21.76-7.3728 41.7792-19.6608 57.9072 12.4416 8.3456 23.552 18.7392 32.8704 30.976 16.3328-11.0592 31.8976-23.1424 46.6432-36.096-0.6656-2.56-1.0752-5.2736-1.0752-8.0384 0-17.6128 14.2848-31.9488 31.9488-31.9488h9.3184c9.3184-10.4448 18.1248-21.3504 26.4704-32.6144h-35.7888c-17.6128 0-31.9488-14.2848-31.9488-31.9488s14.2848-31.9488 31.9488-31.9488h75.4688a460.0832 460.0832 0 0 0 40.5504-113.7664H293.3248c-63.8464 0-115.8144 51.968-115.8144 115.8144v245.9648c19.0976 2.5088 38.5536 3.7376 58.3168 3.7376z" fill="#55B5F3" p-id="5446"></path><path d="M385.6896 566.016c-24.832 0-47.36 12.6464-60.3648 33.8432-0.256 0.4608-0.6656 1.0752 0.0512 2.304 0.8704 1.536 2.048 1.536 2.56 1.536h69.9392c13.056-4.9152 25.9072-10.3424 38.4-16.3328a70.02112 70.02112 0 0 0-50.5856-21.3504z" fill="#55B5F3" p-id="5447"></path><path d="M294.912 434.688c12.6976-38.0416 48.5376-65.5872 90.8288-65.5872 6.4 0 12.6464 0.6656 18.7392 1.8432a465.00864 465.00864 0 0 0 97.0752-103.5264H293.3248c-63.8464 0-115.8144 51.968-115.8144 115.8144v82.2784c41.0624-5.12 80.4352-15.6672 117.4016-30.8224z" fill="#6BC2FC" p-id="5448"></path></svg>