<svg class="icon" style="width: 1em;height: 1em;vertical-align: middle;fill: currentColor;overflow: hidden;" viewBox="0 0 1024 1024" version="1.1" xmlns="http://www.w3.org/2000/svg" p-id="3521"><path d="M509.9008 513.1264m-450.816 0a450.816 450.816 0 1 0 901.632 0 450.816 450.816 0 1 0-901.632 0Z" fill="#E9ECFF" p-id="3522"></path><path d="M797.44 741.1712H223.3344c-18.0736 0-32.7168-14.6432-32.7168-32.7168s14.6432-32.7168 32.7168-32.7168h574.1056c18.0736 0 32.7168 14.6432 32.7168 32.7168s-14.6432 32.7168-32.7168 32.7168zM245.6576 649.0112h527.0016c31.488 0 52.736-32.2048 40.2944-61.184l-115.9168-269.824c-14.2848-33.2288-60.3648-35.8912-78.336-4.5056L523.264 480.0512c-9.6256 16.7936-33.6384 17.3056-43.9808 0.9216L419.5328 386.048c-16.6912-26.5216-55.0912-27.4432-73.0624-1.7408l-136.7552 195.7376c-20.3264 29.0304 0.4608 68.9664 35.9424 68.9664z" fill="#6C6CEA" p-id="3523"></path><path d="M413.9008 238.4896m-54.3744 0a54.3744 54.3744 0 1 0 108.7488 0 54.3744 54.3744 0 1 0-108.7488 0Z" fill="#8D92F8" p-id="3524"></path><path d="M761.3952 467.7632l-64.3072-149.7088c-14.2848-33.2288-60.3648-35.8912-78.336-4.5056L523.264 480.0512c-9.6256 16.7936-33.6384 17.3056-43.9808 0.9216L419.5328 386.048c-16.7424-26.5216-55.0912-27.4432-73.0624-1.7408l-136.7552 195.7376c-20.3264 29.0816 0.512 68.9664 35.9424 68.9664h452.3008a399.91808 399.91808 0 0 0 63.4368-181.248zM223.3344 675.7376c-18.0736 0-32.7168 14.6432-32.7168 32.7168s14.6432 32.7168 32.7168 32.7168h391.7824c23.6544-19.3024 45.056-41.2672 63.7952-65.4336H223.3344z" fill="#757BF2" p-id="3525"></path><path d="M653.1072 291.6352c-13.4656 1.0752-26.5728 8.2432-34.4064 21.8624L523.264 480.0512c-9.6256 16.7936-33.6384 17.3056-43.9808 0.9216L419.5328 386.048c-16.7424-26.5216-55.0912-27.4432-73.0624-1.7408l-136.7552 195.7376c-20.3264 29.0816 0.512 68.9664 35.9424 68.9664h180.0704c133.2224-64.3072 225.4848-199.9872 227.3792-357.376zM251.136 688.7936c35.1744 0 69.2736-4.5568 101.7856-13.056H223.3344c-9.1136 0-17.3056 3.6864-23.2448 9.6768 16.7424 2.1504 33.7408 3.3792 51.0464 3.3792z" fill="#8486F8" p-id="3526"></path><path d="M441.6 421.0688l-22.0672-35.0208c-16.7424-26.5216-55.0912-27.4432-73.0624-1.7408l-106.0864 151.8592c78.2336-18.0224 147.7632-58.7776 201.216-115.0976z" fill="#8D92F8" p-id="3527"></path></svg>