<svg class="icon" style="width: 1em;height: 1em;vertical-align: middle;fill: currentColor;overflow: hidden;" viewBox="0 0 1024 1024" version="1.1" xmlns="http://www.w3.org/2000/svg" p-id="1300"><path d="M506.9824 517.7856m-450.816 0a450.816 450.816 0 1 0 901.632 0 450.816 450.816 0 1 0-901.632 0Z" fill="#FFF1DC" p-id="1301"></path><path d="M741.5296 722.5344H253.7984c-18.0736 0-32.7168 15.872-32.7168 35.4304s14.6432 35.4304 32.7168 35.4304h487.7312c18.0736 0 32.7168-15.872 32.7168-35.4304s-14.6432-35.4304-32.7168-35.4304z" fill="#FC7032" p-id="1302"></path><path d="M537.6512 722.5344H253.7984c-18.0736 0-32.7168 15.872-32.7168 35.4304s14.6432 35.4304 32.7168 35.4304h105.728a447.67744 447.67744 0 0 0 178.1248-70.8608z" fill="#FF7E3E" p-id="1303"></path><path d="M768.7168 320.6656c-17.6128 0-34.2016 4.3008-48.8448 11.8784V249.1904a22.016 22.016 0 0 0-22.016-22.016H278.1696a22.016 22.016 0 0 0-22.016 22.016v272.64c0 86.272 69.9392 156.16 156.16 156.16h151.3472c86.1184 0 155.9552-69.7344 156.16-155.8016a105.9328 105.9328 0 0 0 48.8448 11.8784c58.8288 0 106.7008-47.872 106.7008-106.7008 0.0512-58.8288-47.8208-106.7008-106.6496-106.7008zM376.4736 455.7824c0 16.9472-13.7728 30.72-30.72 30.72s-30.72-13.7728-30.72-30.72V337.7664c0-16.9472 13.7728-30.72 30.72-30.72s30.72 13.7728 30.72 30.72v118.016z m392.2432 19.456c-26.368 0-47.872-21.4528-47.872-47.872 0-26.368 21.4528-47.872 47.872-47.872s47.872 21.4528 47.872 47.872c-0.0512 26.4192-21.504 47.872-47.872 47.872z" fill="#FC7032" p-id="1304"></path><path d="M736.6144 348.6208c0-7.6288-0.2048-15.2576-0.5632-22.784-5.5808 1.792-11.008 4.0448-16.1792 6.7072V249.1904a22.016 22.016 0 0 0-22.016-22.016H278.1696a22.016 22.016 0 0 0-22.016 22.016v272.64c0 86.272 69.9392 156.16 156.16 156.16h151.3472c11.6224 0 22.8864-1.3312 33.792-3.6864 62.8736-60.16 108.3392-138.3936 128.1024-226.304a47.14496 47.14496 0 0 1-4.7104-20.6336c0-12.9024 5.1712-24.576 13.4656-33.1776 1.4848-15.0016 2.304-30.208 2.304-45.568zM376.4736 455.7824c0 16.9472-13.7728 30.72-30.72 30.72s-30.72-13.7728-30.72-30.72V337.7664c0-16.9472 13.7728-30.72 30.72-30.72s30.72 13.7728 30.72 30.72v118.016z" fill="#FF7E3E" p-id="1305"></path><path d="M278.1696 227.1744a22.016 22.016 0 0 0-22.016 22.016v272.64c0 37.4784 13.2096 71.8336 35.2256 98.7648 174.2848-51.9168 304.3328-206.3872 320.2048-393.4208H278.1696z m98.304 228.608c0 16.9472-13.7728 30.72-30.72 30.72s-30.72-13.7728-30.72-30.72V337.7664c0-16.9472 13.7728-30.72 30.72-30.72s30.72 13.7728 30.72 30.72v118.016z" fill="#FF9552" p-id="1306"></path><path d="M315.0336 337.7664c0-16.9472 13.7728-30.72 30.72-30.72s30.72 13.7728 30.72 30.72v0.9728a451.46112 451.46112 0 0 0 77.568-111.5136H278.1696a22.016 22.016 0 0 0-22.016 22.016v180.2752c20.6336-10.7008 40.2944-22.9376 58.88-36.5568V337.7664z" fill="#FFA56A" p-id="1307"></path></svg>