<svg class="icon" style="width: 1em;height: 1em;vertical-align: middle;fill: currentColor;overflow: hidden;" viewBox="0 0 1024 1024" version="1.1" xmlns="http://www.w3.org/2000/svg" p-id="2463"><path d="M505.088 513.1264m-450.816 0a450.816 450.816 0 1 0 901.632 0 450.816 450.816 0 1 0-901.632 0Z" fill="#E9ECFF" p-id="2464"></path><path d="M810.1888 501.2992c0-167.9872-140.032-303.3088-309.76-295.5264-150.1184 6.8608-272.5888 127.744-281.3952 277.76-4.608 78.6432 21.6064 151.1424 67.6352 206.5408 25.8048 31.0784 15.5648 77.0048-18.4832 95.0272-4.2496 2.2528-6.7072 6.912-5.8368 11.6224 0.8192 4.5568 4.4544 8.0896 9.0112 8.7552 147.8144 22.3232 326.4 35.584 429.9776-75.0592 66.4576-54.1696 108.8512-136.704 108.8512-229.12z m-299.776 222.208c-14.7456 0-26.7264-11.9808-26.7264-26.7264s11.9808-26.7264 26.7264-26.7264 26.7264 11.9808 26.7264 26.7264-11.9808 26.7264-26.7264 26.7264z m111.36-239.8208c-27.8528 43.1104-61.1328 68.9152-80.9984 84.2752-1.8944 1.4336-3.6352 2.816-5.3248 4.1472v47.872a25.0368 25.0368 0 0 1-50.0736 0v-59.5456c0-6.912 2.816-13.4656 7.8336-18.2272 4.5568-4.3008 10.24-8.704 16.8448-13.824 18.4832-14.336 46.3872-35.9424 69.5808-71.8848 11.264-17.4592 12.8-37.4272 4.096-53.4528-10.752-19.712-36.0448-31.0272-69.4272-31.0272-68.0448 0-81.92 64-83.3024 71.3216-2.5088 13.568-15.5136 22.6304-29.0816 20.1728s-22.6304-15.3088-20.2752-28.8768c6.7584-38.9632 43.2128-112.6912 132.608-112.6912 52.2752 0 93.6448 20.8384 113.408 57.1904 17.7152 32.3584 15.5136 71.4752-5.888 104.5504z" fill="#6C6CEA" p-id="2465"></path><path d="M788.8384 391.0144c-44.544-110.7968-154.1632-188.416-281.5488-185.4464-156.7744 3.6352-284.672 131.328-288.6656 288.0512-1.8944 74.9568 24.1664 143.8208 68.4544 196.9152 17.4592 20.9408 18.1248 48.8448 6.144 70.2464 23.552 4.0448 47.7184 6.144 72.3968 6.144 218.368 0 398.336-164.2496 423.2192-375.9104z m-278.4256 332.4928c-14.7456 0-26.7264-11.9808-26.7264-26.7264s11.9808-26.7264 26.7264-26.7264 26.7264 11.9808 26.7264 26.7264-11.9808 26.7264-26.7264 26.7264z m111.36-239.8208c-27.8528 43.1104-61.1328 68.9152-80.9984 84.2752-1.8944 1.4336-3.6352 2.816-5.3248 4.1472v47.872a25.0368 25.0368 0 0 1-50.0736 0v-59.5456c0-6.912 2.816-13.4656 7.8336-18.2272 4.5568-4.3008 10.24-8.704 16.8448-13.824 18.4832-14.336 46.3872-35.9424 69.5808-71.8848 11.264-17.4592 12.8-37.4272 4.096-53.4528-10.752-19.712-36.0448-31.0272-69.4272-31.0272-68.0448 0-81.92 64.0512-83.3024 71.3216-2.5088 13.568-15.5136 22.6304-29.0816 20.1728s-22.6304-15.3088-20.2752-28.8768c6.7584-38.9632 43.2128-112.6912 132.608-112.6912 52.2752 0 93.6448 20.8384 113.408 57.1904 17.7152 32.3584 15.5136 71.4752-5.888 104.5504z" fill="#757BF2" p-id="2466"></path><path d="M507.2896 205.5168c-156.7744 3.6864-284.672 131.3792-288.6656 288.1024-1.0752 43.264 7.168 84.48 22.8352 121.856 2.5088 0.0512 5.0176 0.1024 7.5776 0.1024 129.5872 0 245.6576-57.856 323.7888-149.0944 2.304-3.2256 4.608-6.5024 6.8096-9.9328 11.264-17.4592 12.8-37.4272 4.096-53.4528-10.752-19.712-36.0448-31.0272-69.4272-31.0272-68.0448 0-81.92 64.0512-83.3024 71.3216-2.5088 13.568-15.5136 22.6304-29.0816 20.1728s-22.6304-15.3088-20.2752-28.8768c6.7584-38.9632 43.2128-112.6912 132.608-112.6912 52.2752 0 93.6448 20.8384 113.408 57.1904 0.512 0.9728 0.9728 1.9968 1.4848 2.9696a422.7584 422.7584 0 0 0 41.6256-131.7888c-47.1552-29.5936-103.3216-46.2336-163.4816-44.8512z" fill="#8486F8" p-id="2467"></path><path d="M221.9008 457.1648c73.1136-13.9264 139.6224-46.4896 194.3552-92.6208 6.1952-6.912 13.2608-13.4144 21.2992-19.2a426.6752 426.6752 0 0 0 96.2048-139.2128c-8.7552-0.5632-17.5616-0.8192-26.4704-0.6144-144.384 3.3792-264.2432 112.0256-285.3888 251.648z" fill="#8D92F8" p-id="2468"></path></svg>