<svg class="icon" style="width: 1em;height: 1em;vertical-align: middle;fill: currentColor;overflow: hidden;" viewBox="0 0 1024 1024" version="1.1" xmlns="http://www.w3.org/2000/svg" p-id="3089"><path d="M505.088 513.1264m-450.816 0a450.816 450.816 0 1 0 901.632 0 450.816 450.816 0 1 0-901.632 0Z" fill="#E3FFF3" p-id="3090"></path><path d="M342.5792 441.8048L673.792 440.32c5.9392-0.0512 11.264-3.6352 13.4656-9.1136l61.2864-151.808c3.8912-9.5744-3.1744-20.0192-13.5168-20.0704l-453.376-0.5632c-10.2912 0-17.3568 10.3936-13.568 19.968l60.8768 153.856a14.49984 14.49984 0 0 0 13.6192 9.216z" fill="#05C46D" p-id="3091"></path><path d="M342.5792 441.8048L673.792 440.32c5.9392-0.0512 11.264-3.6352 13.4656-9.1136l61.2864-151.808c3.8912-9.5744-3.1744-20.0192-13.5168-20.0704l-453.376-0.5632c-10.2912 0-17.3568 10.3936-13.568 19.968l60.8768 153.856a14.49984 14.49984 0 0 0 13.6192 9.216z" fill="#05C46D" p-id="3092"></path><path d="M342.5792 441.8048L673.792 440.32c5.9392-0.0512 11.264-3.6352 13.4656-9.1136l61.2864-151.808c3.8912-9.5744-3.1744-20.0192-13.5168-20.0704l-453.376-0.5632c-10.2912 0-17.3568 10.3936-13.568 19.968l60.8768 153.856a14.49984 14.49984 0 0 0 13.6192 9.216zM843.776 418.9184l-40.2432-88.9344c-5.2736-11.6736-22.016-11.3664-26.8288 0.5632L740.6592 419.84c-3.8912 9.6256 3.2256 20.0704 13.568 20.0192l76.288-0.3584c10.6496-0.0512 17.6128-10.9568 13.2608-20.5824z" fill="#05C46D" p-id="3093"></path><path d="M276.224 422.2976l-37.4784-94.72c-4.6592-11.776-21.0944-12.4416-26.6752-1.024l-46.4896 95.1296c-4.7616 9.728 2.3552 21.0432 13.1584 20.992l83.968-0.3584c10.2912-0.1024 17.2544-10.4448 13.5168-20.0192z" fill="#48E1AA" p-id="3094"></path><path d="M298.8544 485.9904l-104.6528 0.4608c-12.1344 0.0512-18.8928 14.0288-11.4176 23.6032l211.6096 269.9264c10.3936 13.2608 31.232 1.28 25.0368-14.3872l-106.9568-270.336a14.54592 14.54592 0 0 0-13.6192-9.2672zM636.4672 484.4032l-257.7408 1.1776c-10.2912 0.0512-17.2544 10.3936-13.5168 19.968l127.3344 321.9456c4.864 12.2368 22.1696 12.288 27.0848 0.1024l130.4576-323.1232c3.84-9.6256-3.2256-20.1216-13.6192-20.0704zM703.488 493.056l-105.728 261.8368c-6.3488 15.7184 14.7456 27.8016 25.088 14.336l201.9328-262.2464c7.424-9.6256 0.512-23.552-11.6224-23.5008l-96.2048 0.4608c-5.9392 0.0512-11.2128 3.6352-13.4656 9.1136z" fill="#05C46D" p-id="3095"></path><path d="M312.4736 495.2576a14.55104 14.55104 0 0 0-13.6192-9.216l-104.6528 0.4608c-12.1344 0.0512-18.8928 14.0288-11.4176 23.6032l150.9376 192.512c6.2976 0.3072 12.5952 0.512 18.9952 0.512 13.8752 0 27.5968-0.8704 41.0624-2.3552L312.4736 495.2576zM636.4672 484.4032l-257.7408 1.1776c-10.2912 0.0512-17.2544 10.3936-13.5168 19.968l73.984 187.136c68.2496-16.6912 128.8704-52.5824 175.9232-101.7344l34.9184-86.4768c3.8912-9.6256-3.1744-20.1216-13.568-20.0704zM707.1744 259.2768l-425.5232-0.512c-10.2912 0-17.3568 10.3936-13.568 19.968l60.8768 153.856a14.55104 14.55104 0 0 0 13.6192 9.216L673.792 440.32c5.9392-0.0512 11.264-3.6352 13.4656-9.1136l28.2112-69.9392c0.4096-7.168 0.7168-14.3872 0.7168-21.6576 0-27.5968-3.1744-54.4768-9.0112-80.3328z" fill="#1DCE75" p-id="3096"></path><path d="M613.4272 259.1744l-331.776-0.4096c-10.2912 0-17.3568 10.3936-13.568 19.968l60.8768 153.856a14.55104 14.55104 0 0 0 13.6192 9.216l191.7952-0.8704a362.0864 362.0864 0 0 0 79.0528-181.76zM378.7264 485.5808c-10.2912 0.0512-17.2544 10.3936-13.5168 19.968l17.664 44.5952a363.78624 363.78624 0 0 0 108.4928-65.0752l-112.64 0.512zM312.4736 495.2576a14.55104 14.55104 0 0 0-13.6192-9.216l-104.6528 0.4608c-12.1344 0.0512-18.8928 14.0288-11.4176 23.6032l49.6128 63.2832a362.84416 362.84416 0 0 0 107.1104-9.7792l-27.0336-68.352z" fill="#3CD38E" p-id="3097"></path><path d="M477.0304 259.0208L281.6 258.7648c-10.2912 0-17.3568 10.3936-13.568 19.968l55.4496 140.2368a364.6976 364.6976 0 0 0 153.5488-159.9488z" fill="#48E1AA" p-id="3098"></path></svg>