<svg class="icon" style="width: 1em;height: 1em;vertical-align: middle;fill: currentColor;overflow: hidden;" viewBox="0 0 1024 1024" version="1.1" xmlns="http://www.w3.org/2000/svg" p-id="1505"><path d="M512.9216 510.8224m-450.816 0a450.816 450.816 0 1 0 901.632 0 450.816 450.816 0 1 0-901.632 0Z" fill="#E3FFF3" p-id="1506"></path><path d="M794.0608 701.3888l-23.9616-397.5168c-2.4576-41.1136-36.5056-73.1648-77.7216-73.1648h-358.912c-41.1648 0-75.2128 32.0512-77.6704 73.1648l-23.9616 397.5168c-2.7136 44.7488 32.8704 82.5344 77.6704 82.5344h406.8864c44.8 0 80.384-37.7856 77.6704-82.5344z m-120.576-301.2096c-9.7792 79.9744-78.0288 142.1312-160.5632 142.1312-82.5856 0-150.8352-62.1568-160.5632-142.1312a45.00992 45.00992 0 0 1-17.7152-35.7888c0-24.8832 20.1728-45.1072 45.1072-45.1072 24.8832 0 45.1072 20.1728 45.1072 45.1072 0 13.312-5.8368 25.2416-15.0016 33.4848 8.3456 49.408 51.4048 87.1936 103.1168 87.1936s94.8224-37.7856 103.1168-87.1936a44.94336 44.94336 0 0 1-15.0016-33.4848c0-24.8832 20.1728-45.1072 45.1072-45.1072 24.8832 0 45.1072 20.1728 45.1072 45.1072a45.39904 45.39904 0 0 1-17.8176 35.7888z" fill="#05C46D" p-id="1507"></path><path d="M770.0992 303.872c-2.4576-41.1136-36.5056-73.1648-77.7216-73.1648h-358.912c-41.1648 0-75.2128 32.0512-77.6704 73.1648l-23.9616 397.5168c-2.7136 44.7488 32.8704 82.5344 77.6704 82.5344h172.6464c154.624-54.7328 270.4896-191.4368 295.3728-357.888l-7.424-122.1632z m-96.6144 96.3072c-9.7792 79.9744-78.0288 142.1312-160.5632 142.1312-82.5856 0-150.8352-62.1568-160.5632-142.1312a45.00992 45.00992 0 0 1-17.7152-35.7888c0-24.8832 20.1728-45.1072 45.1072-45.1072 24.8832 0 45.1072 20.1728 45.1072 45.1072 0 13.312-5.8368 25.2416-15.0016 33.4848 8.3456 49.408 51.4048 87.1936 103.168 87.1936s94.8224-37.7856 103.168-87.1936a44.94336 44.94336 0 0 1-15.0016-33.4848c0-24.8832 20.1728-45.1072 45.1072-45.1072s45.1072 20.1728 45.1072 45.1072a45.7984 45.7984 0 0 1-17.92 35.7888z" fill="#1DCE75" p-id="1508"></path><path d="M500.736 541.7984C423.7312 536.064 361.6256 476.16 352.3072 400.1792a45.00992 45.00992 0 0 1-17.7152-35.7888c0-24.8832 20.1728-45.1072 45.1072-45.1072 24.8832 0 45.1072 20.1728 45.1072 45.1072 0 13.312-5.8368 25.2416-15.0016 33.4848 8.3456 49.408 51.4048 87.1936 103.168 87.1936 20.992 0 40.4992-6.2976 56.8832-16.9984 16.8448-22.5792 31.6416-46.7968 44.0832-72.3456-7.8848-8.0896-12.8512-19.1488-12.8512-31.3344 0-23.7568 18.3808-43.1616 41.6768-44.9024a448.9216 448.9216 0 0 0 15.2576-88.7808H333.4656c-41.1648 0-75.2128 32.0512-77.6704 73.1648l-20.7872 344.8832c101.12-5.888 193.3312-45.1584 265.728-106.9568z" fill="#3CD38E" p-id="1509"></path><path d="M353.5872 408.4224c-0.4608-2.7136-0.9216-5.4784-1.2288-8.2944a45.00992 45.00992 0 0 1-17.7152-35.7888c0-24.8832 20.1728-45.1072 45.1072-45.1072 19.6096 0 36.1984 12.4928 42.4448 29.952a452.51584 452.51584 0 0 0 80.9984-118.5792H333.4656c-41.1648 0-75.2128 32.0512-77.6704 73.1648l-9.6768 160.1536a445.37344 445.37344 0 0 0 107.4688-55.5008z" fill="#48E1AA" p-id="1510"></path></svg>