<svg class="icon" style="width: 1em;height: 1em;vertical-align: middle;fill: currentColor;overflow: hidden;" viewBox="0 0 1024 1024" version="1.1" xmlns="http://www.w3.org/2000/svg" p-id="4606"><path d="M512.7168 510.72m-450.816 0a450.816 450.816 0 1 0 901.632 0 450.816 450.816 0 1 0-901.632 0Z" fill="#FFE3DB" p-id="4607"></path><path d="M716.7488 302.2336h-63.744v-1.3312c0-77.3632-62.9248-140.288-140.288-140.288s-140.288 62.9248-140.288 140.288v1.3312H308.6336c-41.4208 0-75.008 33.5872-75.008 75.008v345.6c0 41.4208 33.5872 75.008 75.008 75.008h408.1152c41.4208 0 75.008-33.5872 75.008-75.008v-345.6c0.0512-41.4208-33.536-75.008-75.008-75.008z m-282.0096-1.3312c0-43.008 34.9696-77.9776 77.9776-77.9776s77.9776 34.9696 77.9776 77.9776v1.3312H434.7392v-1.3312z m238.2848 318.9248c-2.6624 3.584-66.1504 87.6032-160.8704 87.6032-94.9248 0-157.3376-84.2752-159.8976-87.8592-10.1376-13.9264-7.0656-33.4336 6.8608-43.52a31.1552 31.1552 0 0 1 43.4688 6.8096c0.8192 1.1264 46.9504 62.2592 109.568 62.2592 62.72 0 110.3872-61.7984 110.848-62.464 10.24-13.824 29.7984-16.6912 43.6224-6.4512 13.7728 10.24 16.64 29.7984 6.4 43.6224z" fill="#F23D4F" p-id="4608"></path><path d="M791.808 377.2928c0-41.4208-33.5872-75.008-75.008-75.008h-63.744v-1.3312c0-77.3632-62.9248-140.288-140.288-140.288s-140.288 62.9248-140.288 140.288v1.3312H308.6336c-41.4208 0-75.008 33.5872-75.008 75.008v345.6c0 41.4208 33.5872 75.008 75.008 75.008h176.9472c154.1632-48.2816 272.64-177.152 306.2272-337.2544V377.2928zM434.7392 300.9024c0-43.008 34.9696-77.9776 77.9776-77.9776s77.9776 34.9696 77.9776 77.9776v1.3312H434.7392v-1.3312z m238.2848 318.9248c-2.6624 3.584-66.1504 87.6032-160.8704 87.6032-94.9248 0-157.3376-84.2752-159.8976-87.8592-10.1376-13.9264-7.0656-33.4336 6.8608-43.52a31.1552 31.1552 0 0 1 43.4688 6.8096c0.8192 1.1264 46.9504 62.2592 109.568 62.2592 62.72 0 110.3872-61.7984 110.848-62.464 10.24-13.824 29.7984-16.6912 43.6224-6.4512 13.7728 10.24 16.64 29.7984 6.4 43.6224z" fill="#FC4956" p-id="4609"></path><path d="M653.0048 300.9024c0-77.3632-62.9248-140.288-140.288-140.288s-140.288 62.9248-140.288 140.288v1.3312H308.6336c-41.4208 0-75.008 33.5872-75.008 75.008v280.9856c46.336-0.6144 90.9312-8.2432 132.864-21.8624-8.6016-9.2672-13.568-15.9232-14.2336-16.8448-10.1376-13.9264-7.0656-33.4336 6.8608-43.52a31.1552 31.1552 0 0 1 43.4688 6.8096c0.3584 0.512 10.2912 13.6192 26.9312 27.6992 120.2688-60.4672 209.7152-173.1584 238.592-308.2752h-15.104v-1.3312z m-62.3104 1.3312H434.7392v-1.3312c0-43.008 34.9696-77.9776 77.9776-77.9776s77.9776 34.9696 77.9776 77.9776v1.3312z" fill="#FF5C64" p-id="4610"></path><path d="M486.1952 302.2336H434.7392v-1.3312c0-43.008 34.9696-77.9776 77.9776-77.9776 5.5296 0 10.9056 0.6144 16.0768 1.6896 8.1408-19.0976 14.9504-38.8608 20.4288-59.1872-11.6736-3.1232-23.9104-4.864-36.5056-4.864-77.3632 0-140.288 62.9248-140.288 140.288v1.3312H308.6336c-41.4208 0-75.008 33.5872-75.008 75.008v105.472C337.7152 454.0928 426.752 389.12 486.1952 302.2336z" fill="#FF716E" p-id="4611"></path></svg>