<svg class="icon" style="width: 1em;height: 1em;vertical-align: middle;fill: currentColor;overflow: hidden;" viewBox="0 0 1024 1024" version="1.1" xmlns="http://www.w3.org/2000/svg" p-id="1520"><path d="M511.5904 510.8224m-450.816 0a450.816 450.816 0 1 0 901.632 0 450.816 450.816 0 1 0-901.632 0Z" fill="#E9ECFF" p-id="1521"></path><path d="M297.3696 295.936h428.288c18.0224 0 32.6144-14.592 32.6144-32.6144s-14.592-32.6144-32.6144-32.6144H297.3696c-18.0224 0-32.6144 14.592-32.6144 32.6144s14.592 32.6144 32.6144 32.6144z" fill="#757BF2" p-id="1522"></path><path d="M816.1792 444.2624l-52.4288-114.4832a1.57696 1.57696 0 0 0-1.4336-0.9216H265.7792c-0.6144 0-1.1776 0.3584-1.4336 0.9216l-49.92 115.456c-9.1136 21.0944-7.7312 45.568 4.9664 64.7168 14.592 22.016 39.5776 36.5056 67.9424 36.5056 33.536 0 62.2592-20.3264 74.752-49.2544 0.5632-1.28 2.2528-1.28 2.816 0 12.4928 28.928 41.216 49.2544 74.752 49.2544 33.536 0 62.2592-20.3264 74.752-49.2544 0.5632-1.28 2.2528-1.28 2.816 0 12.4928 28.928 41.216 49.2544 74.752 49.2544s62.2592-20.3264 74.752-49.2544c0.5632-1.28 2.2528-1.28 2.816 0 12.4928 28.928 41.216 49.2544 74.752 49.2544 26.624 0 50.2272-12.7488 65.0752-32.4608 15.0528-20.0192 17.2544-46.9504 6.8096-69.7344zM668.1088 559.6672c-21.1456 17.0496-47.8208 26.88-76.1344 26.88s-54.9888-9.8304-76.1344-26.88a121.25184 121.25184 0 0 1-152.2688 0 121.25184 121.25184 0 0 1-76.1344 26.88c-7.6288 0-15.2064-0.7168-22.5792-2.0992v165.7856a43.0592 43.0592 0 0 0 43.0592 43.0592h410.0608a43.0592 43.0592 0 0 0 43.0592-43.0592v-164.9152c-5.5296 0.768-11.1104 1.2288-16.7424 1.2288-28.3648 0-55.04-9.8304-76.1856-26.88z" fill="#6C6CEA" p-id="1523"></path><path d="M762.368 328.8576H265.7792c-0.6144 0-1.1776 0.3584-1.4336 0.9216l-49.92 115.456c-9.1136 21.0944-7.7312 45.568 4.9664 64.7168 14.592 22.016 39.5776 36.5056 67.9424 36.5056 33.536 0 62.2592-20.3264 74.752-49.2544 0.5632-1.28 2.2528-1.28 2.816 0 12.4928 28.928 41.216 49.2544 74.752 49.2544 33.536 0 62.2592-20.3264 74.752-49.2544 0.5632-1.28 2.2528-1.28 2.816 0 12.4928 28.928 41.216 49.2544 74.752 49.2544 33.536 0 62.2592-20.3264 74.752-49.2544 0.5632-1.28 2.2528-1.28 2.816 0 11.1104 25.7024 35.0208 44.5952 63.6928 48.4864 26.88-57.088 41.9328-120.7808 41.9328-188.0576 0-1.024-0.0512-2.0992-0.0512-3.1232l-11.3152-24.7296a1.57696 1.57696 0 0 0-1.4336-0.9216zM668.1088 559.6672c-21.1456 17.0496-47.8208 26.88-76.1344 26.88s-54.9888-9.8304-76.1344-26.88a121.25184 121.25184 0 0 1-152.2688 0 121.25184 121.25184 0 0 1-76.1344 26.88c-7.6288 0-15.2064-0.7168-22.5792-2.0992v165.7856a43.0592 43.0592 0 0 0 43.0592 43.0592h99.1744c130.5088-21.9136 241.6128-101.0176 306.6368-210.688-16.7936-4.352-32.3072-12.1856-45.6192-22.9376z" fill="#757BF2" p-id="1524"></path><path d="M653.2608 230.7072H297.3696c-18.0224 0-32.6144 14.592-32.6144 32.6144s14.592 32.6144 32.6144 32.6144h346.624c4.6592-21.1968 7.7824-43.008 9.2672-65.2288zM635.4432 328.8576h-369.664c-0.6144 0-1.1776 0.3584-1.4336 0.9216l-49.92 115.456c-9.1136 21.0944-7.7312 45.568 4.9664 64.7168 14.592 22.016 39.5776 36.5056 67.9424 36.5056 33.536 0 62.2592-20.3264 74.752-49.2544 0.5632-1.28 2.2528-1.28 2.816 0 12.4928 28.928 41.216 49.2544 74.752 49.2544 33.536 0 62.2592-20.3264 74.752-49.2544 0.5632-1.28 2.2528-1.28 2.816 0 2.304 5.3248 5.1712 10.3936 8.4992 15.104a442.06592 442.06592 0 0 0 109.7216-183.4496zM428.7488 586.0352c-24.2176-2.1504-46.848-11.52-65.28-26.368a121.25184 121.25184 0 0 1-76.1344 26.88c-7.6288 0-15.2064-0.7168-22.5792-2.0992v54.9888a438.87616 438.87616 0 0 0 163.9936-53.4016z" fill="#8486F8" p-id="1525"></path><path d="M502.0672 230.7072H297.3696c-18.0224 0-32.6144 14.592-32.6144 32.6144s14.592 32.6144 32.6144 32.6144h167.2192c14.2848-20.5312 26.8288-42.3424 37.4784-65.2288zM439.3984 328.8576H265.7792c-0.6144 0-1.1776 0.3584-1.4336 0.9216l-49.92 115.456a70.7584 70.7584 0 0 0-5.7344 27.8016c91.5456-22.8352 171.776-74.24 230.7072-144.1792z" fill="#8D92F8" p-id="1526"></path></svg>