<svg class="icon" style="width: 1em;height: 1em;vertical-align: middle;fill: currentColor;overflow: hidden;" viewBox="0 0 1024 1024" version="1.1" xmlns="http://www.w3.org/2000/svg" p-id="4988"><path d="M504.3712 513.1264m-450.816 0a450.816 450.816 0 1 0 901.632 0 450.816 450.816 0 1 0-901.632 0Z" fill="#FFE1E9" p-id="4989"></path><path d="M350.3104 472.5248c-5.7344 34.7136-23.808 58.112-57.4464 67.7376-44.7488 12.8512-91.0336-18.2784-96.1536-64.4608-0.4096-3.7888 0.2048-8.0384 1.5872-11.5712 15.9232-41.3696 32.1536-75.6736 48.0256-117.0944 1.9968-5.1712 4.608-6.5024 9.8816-6.5024 163.84 0.1536 327.68 0.1536 491.52 0 5.7856 0 8.192 1.9456 10.2912 7.168 15.1552 38.2464 30.1056 69.6832 46.4384 107.4688 6.2976 14.592 5.2224 27.8016-0.3584 41.5232-12.2368 30.1056-43.9808 48.4864-78.592 45.8752-32.4096-2.4576-60.416-26.112-67.7888-57.3952-0.9216-3.9936-1.792-7.9872-2.816-12.4928-1.1264 39.0656-36.4032 70.4-74.496 70.1952-40.8064-0.256-72.3456-28.2112-76.9536-70.5536-3.1744 21.6576-11.1616 39.424-27.5456 52.736-16.4864 13.3632-35.2768 19.1488-56.4224 17.5616-35.4304-2.6624-67.84-31.8464-69.1712-70.1952z" fill="#FF3369" p-id="4990"></path><path d="M751.872 250.3168c-9.1648-13.4144-22.5792-15.2576-34.5088-15.2576h-0.0512c-73.728 0-147.5072 0-221.2352 0.0512H288.6656c-4.608 0-8.448 0.256-12.032 0.8704-15.5136 2.56-27.3408 15.3088-28.7744 30.9248-1.5872 17.6128 7.5264 32.7168 22.6304 37.5296 6.912 2.2016 14.2848 2.2016 19.6608 2.2528 42.496 0.0512 84.992 0.0512 127.488 0.0512H684.2368c13.2096 0 26.8288 0 40.3456-0.256 13.6192-0.256 24.4224-7.424 30.464-20.2752 5.7344-12.0832 4.608-24.4736-3.1744-35.8912z" fill="#FF4D7C" p-id="4991"></path><path d="M697.5488 790.016c32.512 0 58.88-26.368 58.88-58.88v-129.8944-9.2672c-44.9024 8.6528-78.4384-6.0928-100.5056-45.824-30.8224 65.792-124.0576 63.3856-152.576-0.6144-16.1792 30.9248-41.1648 48.64-76.2368 48.9472-35.4304 0.3584-60.8256-17.152-77.1072-48.64-22.1184 40.3456-55.9104 54.528-100.096 46.2848-0.256 2.1504-0.6144 3.6864-0.6144 5.2224 0 26.5216-0.0512 86.784-0.0512 133.7856 0 32.512 26.368 58.88 58.88 58.88h389.4272z" fill="#FF3369" p-id="4992"></path><path d="M758.016 347.7504c-2.048-5.2224-4.4544-7.168-10.2912-7.168-163.84 0.1536-327.68 0.1536-491.52 0-5.2736 0-7.8848 1.28-9.8816 6.5024-15.8208 41.3696-32.1024 75.7248-48.0256 117.0944-1.3824 3.584-1.9968 7.8336-1.5872 11.5712 5.12 46.2336 51.4048 77.312 96.1536 64.4608 33.6384-9.6768 51.712-33.024 57.4464-67.7376 1.3824 38.3488 33.7408 67.5328 69.1712 70.144 21.1456 1.536 39.936-4.1984 56.4224-17.6128 16.384-13.312 24.3712-31.0784 27.5456-52.736 4.5568 42.3936 36.1472 70.3488 76.9536 70.5536 38.0928 0.2048 73.4208-31.1296 74.496-70.1952 1.024 4.5056 1.8432 8.5504 2.816 12.4928 7.424 31.2832 35.3792 54.9376 67.7888 57.3952 4.1984 0.3072 8.3968 0.3072 12.4928 0a448.14848 448.14848 0 0 0 36.1984-156.0576c-5.4272-12.3904-10.8032-25.088-16.1792-38.7072z" fill="#FF4D7C" p-id="4993"></path><path d="M655.9744 546.1504c-30.8224 65.792-124.0576 63.3856-152.576-0.6144-16.1792 30.9248-41.1648 48.64-76.2368 48.9472-35.4304 0.3584-60.8256-17.152-77.1072-48.64-22.1184 40.3456-55.9104 54.528-100.096 46.2848-0.256 2.1504-0.6144 3.6864-0.6144 5.2224 0 26.5216-0.0512 86.784-0.0512 133.7856 0 32.512 26.368 58.88 58.88 58.88h163.7888c101.8368-35.3792 187.0848-106.24 240.896-197.8368-23.7056-5.2736-42.7008-20.4288-56.8832-46.0288z" fill="#FF4D7C" p-id="4994"></path><path d="M496.0768 235.0592H288.6656c-4.608 0-8.448 0.256-12.032 0.8704-15.5136 2.56-27.3408 15.3088-28.7744 30.9248-1.5872 17.6128 7.5264 32.7168 22.6304 37.5296 6.912 2.2016 14.2848 2.2016 19.6608 2.2528 42.496 0.0512 84.992 0.0512 127.488 0.0512h219.4432c5.9904-23.1936 10.1376-47.1552 12.3904-71.68-51.0976 0.0512-102.2464 0.0512-153.3952 0.0512zM256.1536 340.6336c-5.2736 0-7.8848 1.28-9.8816 6.5024-15.8208 41.3696-32.1024 75.7248-48.0256 117.0944-1.3824 3.584-1.9968 7.8336-1.5872 11.5712 5.12 46.2336 51.4048 77.312 96.1536 64.4608 33.6384-9.6768 51.712-33.024 57.4464-67.7376 1.3824 38.3488 33.7408 67.5328 69.1712 70.144 21.1456 1.536 39.936-4.1984 56.4224-17.6128 16.384-13.312 24.3712-31.0784 27.5456-52.736 1.9968 18.5856 9.1648 34.3552 20.0704 46.2848 48.3328-49.6128 85.3504-110.336 106.8544-177.9712-124.7232 0.0512-249.4464 0.1024-374.1696 0zM426.0352 594.4832c-34.8672 0-59.904-17.408-76.032-48.5888-22.1184 40.3456-55.9104 54.528-100.096 46.2848-0.256 2.1504-0.6144 3.6864-0.6144 5.2224 0 12.4416 0 32.3584-0.0512 54.8352a448.8192 448.8192 0 0 0 176.7936-57.7536z" fill="#FF5F89" p-id="4995"></path><path d="M288.6656 235.1104c-4.608 0-8.448 0.256-12.032 0.8704-15.5136 2.56-27.3408 15.3088-28.7744 30.9248-1.5872 17.6128 7.5264 32.7168 22.6304 37.5296 6.912 2.2016 14.2848 2.2016 19.6608 2.2528 42.496 0.0512 84.992 0.0512 127.488 0.0512h28.6208a451.5328 451.5328 0 0 0 44.544-71.6288H288.6656zM427.1104 340.5824c-56.9856 0-113.9712 0.0512-170.9056 0-5.2736 0-7.8848 1.28-9.8816 6.5024-15.8208 41.3696-32.1024 75.7248-48.0256 117.0944-1.3824 3.584-1.9968 7.8336-1.5872 11.5712 0.2048 1.9968 0.6144 3.8912 0.9728 5.8368 90.4704-22.784 170.0352-72.8576 229.4272-141.0048z" fill="#FF7196" p-id="4996"></path></svg>