<svg class="icon" style="width: 1em;height: 1em;vertical-align: middle;fill: currentColor;overflow: hidden;" viewBox="0 0 1024 1024" version="1.1" xmlns="http://www.w3.org/2000/svg" p-id="2301"><path d="M513.9456 513.6384m-450.816 0a450.816 450.816 0 1 0 901.632 0 450.816 450.816 0 1 0-901.632 0Z" fill="#FFE3DB" p-id="2302"></path><path d="M840.3456 399.4624c-23.9616-108.9536-109.2096-177.1008-230.4-152.6272-38.0416 7.68-68.096 28.5696-94.7712 55.9104-2.2528-0.9728-3.1744-1.1776-3.7888-1.6896-1.6896-1.4336-3.328-2.9184-4.864-4.5056-34.7648-35.9936-77.7728-52.5312-127.1808-54.528-59.0848-2.3552-109.2608 16.9984-146.8416 62.976-65.9968 80.6912-67.7376 201.6768-6.0416 288.2048 31.3856 44.032 69.376 81.7152 111.2576 115.3536 43.1104 34.6624 87.1936 68.1984 131.5328 101.2736 27.8016 20.736 58.0096 22.2208 84.0192 3.4304 75.6736-54.784 151.808-109.1072 215.04-178.944 60.672-67.1744 92.16-143.3088 72.0384-234.8544z m-502.016 150.3744c-5.4272 3.9424-11.776 5.8368-18.0224 5.8368-9.5232 0-18.8928-4.4032-24.8832-12.6976-58.9824-81.3568-16.384-154.3168-14.592-157.3888a30.68928 30.68928 0 0 1 42.1376-10.496 30.75584 30.75584 0 0 1 10.7008 41.8816c-2.5088 4.5056-22.4256 43.2128 11.4688 89.9584 9.984 13.7216 6.912 32.9216-6.8096 42.9056z" fill="#F23D4F" p-id="2303"></path><path d="M740.2496 260.5056c-36.096-17.9712-80.128-23.808-130.3552-13.6704-38.0416 7.68-68.096 28.5696-94.7712 55.9104-2.2528-0.9728-3.1744-1.1776-3.7888-1.6896-1.6896-1.4336-3.328-2.9184-4.864-4.5056-34.7648-35.9936-77.7728-52.5312-127.1808-54.528-59.0848-2.3552-109.2608 16.9984-146.8416 62.976-65.9968 80.6912-67.7376 201.6768-6.0416 288.2048 31.3856 44.032 69.376 81.7152 111.2576 115.3536 23.6544 19.0464 47.6672 37.6832 71.7824 56.1664 193.7408-42.3936 338.7904-214.8864 338.7904-421.376a428.8 428.8 0 0 0-7.9872-82.8416z m-401.92 289.3312c-5.4272 3.9424-11.776 5.8368-18.0224 5.8368-9.5232 0-18.8928-4.4032-24.8832-12.6976-58.9824-81.3568-16.384-154.3168-14.592-157.3888a30.68928 30.68928 0 0 1 42.1376-10.496 30.75584 30.75584 0 0 1 10.7008 41.8816c-2.5088 4.5056-22.4256 43.2128 11.4688 89.9584 9.984 13.7216 6.912 32.9216-6.8096 42.9056z" fill="#FC4956" p-id="2304"></path><path d="M609.9456 246.8352c-38.0416 7.68-68.096 28.5696-94.7712 55.9104-2.2528-0.9728-3.1744-1.1776-3.7888-1.6896-1.6896-1.4336-3.328-2.9184-4.864-4.5056-34.7648-35.9936-77.7728-52.5312-127.1808-54.528-59.0848-2.3552-109.2608 16.9984-146.8416 62.976-65.9968 80.6912-67.7376 201.6768-6.0416 288.2048 6.2976 8.8576 12.9536 17.3568 19.7632 25.7024 198.1952-21.6576 355.9424-177.5616 380.5696-374.8864-5.5296 0.768-11.1616 1.6896-16.8448 2.816z m-271.616 303.0016c-5.4272 3.9424-11.776 5.8368-18.0224 5.8368-9.5232 0-18.8928-4.4032-24.8832-12.6976-58.9824-81.3568-16.384-154.3168-14.592-157.3888a30.68928 30.68928 0 0 1 42.1376-10.496 30.75584 30.75584 0 0 1 10.7008 41.8816c-2.5088 4.5056-22.4256 43.2128 11.4688 89.9584 9.984 13.7216 6.912 32.9216-6.8096 42.9056z" fill="#FF5C64" p-id="2305"></path><path d="M379.2896 242.0224c-59.0848-2.3552-109.2608 16.9984-146.8416 62.976-35.584 43.52-52.48 98.816-50.7904 154.0608a430.24896 430.24896 0 0 0 84.1216-27.4944c3.8912-26.88 14.1824-44.4928 15.0528-45.9776a30.68928 30.68928 0 0 1 42.1376-10.496c6.5536 3.9424 11.0592 9.8816 13.312 16.5888a433.59232 433.59232 0 0 0 122.7264-130.2016c-24.1152-12.0832-50.7904-18.2784-79.7184-19.456z" fill="#FF716E" p-id="2306"></path></svg>