<svg class="icon" style="width: 1em;height: 1em;vertical-align: middle;fill: currentColor;overflow: hidden;" viewBox="0 0 1024 1024" version="1.1" xmlns="http://www.w3.org/2000/svg" p-id="5673"><path d="M513.792 509.696m-450.816 0a450.816 450.816 0 1 0 901.632 0 450.816 450.816 0 1 0-901.632 0Z" fill="#FFE3DB" p-id="5674"></path><path d="M603.9552 744.7552c7.168 18.8416 33.024 28.16 50.1248 21.8624 20.5824-8.4992 41.0112-17.4592 61.3888-26.368 28.416-12.3904 57.2416-23.9616 85.0432-37.5296 57.7536-28.1088 69.9392-105.5232 23.5008-150.016-28.0576-26.8288-61.4912-33.024-98.2528-20.2752-2.3552 0.8192-4.6592 1.7408-6.0928 2.304-6.2976-9.3184-11.52-18.7904-18.3808-26.7776-16.8448-19.6096-38.656-30.1056-64.512-31.5392-33.3824-1.8432-60.5696 10.9056-80.2304 37.4784-21.2992 28.8256-24.1152 60.5696-10.4448 93.7472l57.856 137.1136z" fill="#F23D4F" p-id="5675"></path><path d="M556.3904 764.1088l-57.6-136.4992c-20.8384-50.6368-14.9504-101.7344 16.4864-144.2304 29.7984-40.3456 73.9328-60.9792 124.3136-58.2144 39.9872 2.2016 74.752 19.2512 100.608 49.3568 0.4608 0.512 0.9216 1.0752 1.3312 1.5872 6.7584-0.9216 13.4144-1.28 20.0192-1.28 21.6064-59.5968 14.848-116.6336-23.552-168.6016-37.3248-50.4832-89.0368-74.752-152.4736-71.2192-49.2032 2.7136-90.624 22.7328-122.6752 59.9552-13.1072 15.2576-22.9888 33.2288-34.9696 50.944-2.7648-1.024-7.1168-2.816-11.5712-4.4032-69.9392-24.2176-133.4784-12.4928-186.7776 38.5536-88.32 84.5312-65.1776 231.7824 44.6464 285.184 52.9408 25.7536 107.7248 47.7696 161.7408 71.3216 38.8096 16.9472 77.568 34.048 116.736 50.176 6.1952 2.304 13.056 3.2256 20.1216 3.072-6.912-7.4752-12.544-16.0768-16.384-25.7024z" fill="#FC4956" p-id="5676"></path><path d="M789.8112 530.9952c-19.7632-7.0656-41.2672-6.4512-64.0512 1.4336-2.3552 0.8192-4.6592 1.7408-6.0928 2.304-6.2976-9.3184-11.52-18.7904-18.3808-26.7776-16.8448-19.6096-38.656-30.1056-64.512-31.5392-33.3824-1.8432-60.5696 10.9056-80.2304 37.4784-21.2992 28.8256-24.1152 60.5696-10.4448 93.7472l57.856 137.1648c2.9184 7.5776 8.8576 13.6192 15.9744 17.7152a452.57728 452.57728 0 0 0 169.8816-231.5264z" fill="#FC4956" p-id="5677"></path><path d="M662.6816 246.528c-23.2448-9.216-49.0496-13.1072-77.1072-11.52-49.2032 2.7136-90.624 22.7328-122.6752 59.9552-13.1072 15.2576-22.9888 33.2288-34.9696 50.944-2.7648-1.024-7.1168-2.816-11.5712-4.4032-69.9392-24.2176-133.4784-12.4928-186.7776 38.5536-88.32 84.5312-65.1776 231.7824 44.6464 285.184 18.7392 9.1136 37.7344 17.7664 56.832 26.1632a447.6928 447.6928 0 0 0 161.536-81.92c-12.8-44.5952-4.9664-88.7296 22.7328-126.208 27.9552-37.7856 68.5056-58.3168 114.944-58.4704a447.488 447.488 0 0 0 32.4096-178.2784z" fill="#FF5C64" p-id="5678"></path><path d="M603.5456 480c-18.5344 5.4272-34.3552 16.7936-47.0016 33.8944-12.6976 17.152-18.7904 35.3792-18.7392 54.3232 25.3952-26.6752 47.5136-56.32 65.7408-88.2176z" fill="#FF5C64" p-id="5679"></path><path d="M500.992 261.5296c-13.8752 8.9088-26.5728 20.0704-38.0928 33.4336-13.1072 15.2576-22.9888 33.2288-34.9696 50.944-2.7648-1.024-7.1168-2.816-11.5712-4.4032-69.9392-24.2176-133.4784-12.4928-186.7776 38.5536-50.0736 47.9232-64.3072 115.968-47.2064 175.6672 153.2928-37.9392 270.848-151.9616 318.6176-294.1952z" fill="#FF716E" p-id="5680"></path></svg>