<svg class="icon" style="width: 1em;height: 1em;vertical-align: middle;fill: currentColor;overflow: hidden;" viewBox="0 0 1024 1024" version="1.1" xmlns="http://www.w3.org/2000/svg" p-id="2728"><path d="M507.392 513.1264m-450.816 0a450.816 450.816 0 1 0 901.632 0 450.816 450.816 0 1 0-901.632 0Z" fill="#FFF1DC" p-id="2729"></path><path d="M663.7056 330.24l-148.3264-139.776c-23.5008-22.1696-60.2624-22.1184-83.712 0.0512L283.8016 330.24a60.99968 60.99968 0 0 0-19.0976 44.3392v361.0624c0 33.6896 27.2896 60.9792 60.9792 60.9792h296.1408c33.6896 0 60.9792-27.2896 60.9792-60.9792V374.6304c0.0512-16.7936-6.912-32.8704-19.0976-44.3904z m-188.416-47.7184c19.3024 0 35.0208 15.6672 35.0208 35.0208 0 19.3024-15.6672 35.0208-35.0208 35.0208s-35.0208-15.6672-35.0208-35.0208 15.6672-35.0208 35.0208-35.0208z m-61.5424 395.8272l38.6048-111.616H381.1328L501.248 429.7728l-7.68 101.8368 63.7952 3.1744-143.616 143.5648zM718.4384 460.0832l89.6 176.896c10.6496 20.992 2.816 46.6432-17.7152 58.1632l-73.216 40.96 1.3312-276.0192z" fill="#FF8E12" p-id="2730"></path><path d="M515.3792 190.464c-23.5008-22.1696-60.2624-22.1184-83.712 0.0512L283.8016 330.24a60.99968 60.99968 0 0 0-19.0976 44.3392v345.1904a450.49344 450.49344 0 0 0 135.2704 20.6336c107.1616 0 205.5168-37.376 282.88-99.84V374.6304c0-16.7936-6.912-32.8704-19.1488-44.3904l-148.3264-139.776z m-40.0896 92.0576c19.3024 0 35.0208 15.6672 35.0208 35.0208s-15.6672 35.0208-35.0208 35.0208-35.0208-15.6672-35.0208-35.0208 15.6672-35.0208 35.0208-35.0208z m-61.5424 395.8272l38.6048-111.616H381.1328L501.248 429.7728l-7.68 101.8368 63.7952 3.1744-143.616 143.5648zM717.7216 609.3824c17.4592-17.3568 33.4848-36.096 47.9232-56.1152l-47.2064-93.2352-0.7168 149.3504z" fill="#FCA315" p-id="2731"></path><path d="M663.7056 330.24l-148.3264-139.776c-23.5008-22.1696-60.2624-22.1184-83.712 0.0512L283.8016 330.24a60.99968 60.99968 0 0 0-19.0976 44.3392v205.6192a453.23264 453.23264 0 0 0 122.2656-13.4656h-5.8368L501.248 429.7728l-7.168 94.7712a453.19168 453.19168 0 0 0 179.7632-181.6064c-2.816-4.6592-6.144-8.9088-10.1376-12.6976z m-188.416 22.272c-19.3024 0-35.0208-15.6672-35.0208-35.0208s15.6672-35.0208 35.0208-35.0208 35.0208 15.6672 35.0208 35.0208-15.7184 35.0208-35.0208 35.0208z" fill="#FCB138" p-id="2732"></path><path d="M431.616 190.5152L283.8016 330.24a60.99968 60.99968 0 0 0-19.0976 44.3392v34.7648a448.89088 448.89088 0 0 0 176.384-84.3264c-0.512-2.4064-0.8192-4.9152-0.8192-7.4752 0-19.3024 15.6672-35.0208 35.0208-35.0208 3.8912 0 7.5776 0.6656 11.0592 1.792a450.4576 450.4576 0 0 0 55.2448-69.1712l-26.2144-24.7296c-23.552-22.1184-60.2624-22.0672-83.7632 0.1024z" fill="#FFC65E" p-id="2733"></path></svg>