<svg class="icon" style="width: 1em;height: 1em;vertical-align: middle;fill: currentColor;overflow: hidden;" viewBox="0 0 1024 1024" version="1.1" xmlns="http://www.w3.org/2000/svg" p-id="4058"><path d="M505.088 513.1264m-450.816 0a450.816 450.816 0 1 0 901.632 0 450.816 450.816 0 1 0-901.632 0Z" fill="#E9F4FF" p-id="4059"></path><path d="M705.0752 649.3696l-148.3776-78.6432 42.752-61.0816a39.1168 39.1168 0 0 0 7.1168-22.5792V369.2544c0-78.5408-63.8976-142.4384-142.4384-142.4384S321.6896 290.6624 321.6896 369.2544v117.5552c0 8.4992 2.816 16.9472 7.9872 23.7568l44.288 58.5728-160.7168 84.2752a39.24992 39.24992 0 0 0-21.0944 34.8672v41.8816c0 21.7088 17.664 39.3728 39.3728 39.3728h455.2192c21.7088 0 39.3728-17.664 39.3728-39.3728v-45.9776a39.53664 39.53664 0 0 0-21.0432-34.816z" fill="#2595E8" p-id="4060"></path><path d="M843.2128 604.3136l-148.3776-78.6432 42.752-61.0816a39.1168 39.1168 0 0 0 7.1168-22.5792V324.1472c0-78.5408-63.8976-142.4384-142.4384-142.4384-13.6192 0-24.6784 11.0592-24.6784 24.6784s11.0592 24.6784 24.6784 24.6784c51.3536 0 93.1328 41.7792 93.1328 93.1328v114.7392l-47.4112 67.7376a39.6032 39.6032 0 0 0-6.0416 31.7952 39.62368 39.62368 0 0 0 19.8656 25.6L814.848 645.12v30.0032h-20.992c-13.6192 0-24.6784 11.0592-24.6784 24.6784s11.0592 24.6784 24.6784 24.6784h30.976c21.7088 0 39.3728-17.664 39.3728-39.3728v-45.9776c0-14.6432-8.0384-28.0064-20.992-34.816z" fill="#2595E8" p-id="4061"></path><path d="M556.6976 570.7264l42.752-61.0816a39.1168 39.1168 0 0 0 7.1168-22.5792V369.2544c0-78.5408-63.8976-142.4384-142.4384-142.4384S321.6896 290.7136 321.6896 369.2544v117.5552c0 8.4992 2.816 16.9472 7.9872 23.7568l44.288 58.5728-160.7168 84.2752a39.24992 39.24992 0 0 0-21.0944 34.8672v41.8816c0 21.7088 17.664 39.3728 39.3728 39.3728h247.5008c78.3872-25.9584 147.2-72.8576 199.8848-134.0416l-122.2144-64.768z" fill="#3A9CED" p-id="4062"></path><path d="M606.5664 402.688v-33.4336c0-78.5408-63.8976-142.4384-142.4384-142.4384S321.6896 290.7136 321.6896 369.2544v117.5552c0 8.4992 2.816 16.9472 7.9872 23.7568l44.288 58.5728-116.3264 60.9792c149.9136-14.4896 278.3744-102.4512 348.928-227.4304z" fill="#59ADF8" p-id="4063"></path><path d="M737.5872 464.5888a39.1168 39.1168 0 0 0 7.1168-22.5792V324.1472c0-78.5408-63.8976-142.4384-142.4384-142.4384-13.6192 0-24.6784 11.0592-24.6784 24.6784s11.0592 24.6784 24.6784 24.6784c51.3536 0 93.1328 41.7792 93.1328 93.0816v114.7392l-47.4112 67.7376a39.6032 39.6032 0 0 0-6.0416 31.7952 39.62368 39.62368 0 0 0 19.8656 25.6l50.8416 26.9312a447.8464 447.8464 0 0 0 25.088-42.5472l-42.8544-22.6816 42.7008-61.1328z" fill="#3A9CED" p-id="4064"></path><path d="M602.2656 181.7088c-13.6192 0-24.6784 11.0592-24.6784 24.6784s11.0592 24.6784 24.6784 24.6784c21.4528 0 41.216 7.3728 56.9856 19.6608 2.7648-17.92 4.4544-36.1984 5.0176-54.7328a140.72832 140.72832 0 0 0-62.0032-14.2848z" fill="#59ADF8" p-id="4065"></path><path d="M499.6608 231.2704c-11.3664-2.9184-23.2448-4.5056-35.5328-4.5056-78.5408 0-142.4384 63.8976-142.4384 142.4384v45.4656a452.9408 452.9408 0 0 0 177.9712-183.3984z" fill="#6BC2FC" p-id="4066"></path></svg>