<svg class="icon" style="width: 1em;height: 1em;vertical-align: middle;fill: currentColor;overflow: hidden;" viewBox="0 0 1024 1024" version="1.1" xmlns="http://www.w3.org/2000/svg" p-id="3108"><path d="M504.3712 513.1264m-450.816 0a450.816 450.816 0 1 0 901.632 0 450.816 450.816 0 1 0-901.632 0Z" fill="#FFF1DC" p-id="3109"></path><path d="M747.8272 385.8944H367.104c-34.2016 0-61.9008 27.6992-61.9008 61.9008v247.0912c0 34.2016 27.6992 61.9008 61.9008 61.9008h41.9328c7.7312 0 13.9776 6.2464 13.9776 13.9776v49.7152c0 11.52 13.1584 18.1248 22.3744 11.2128l96.6656-72.1408c2.4064-1.792 5.376-2.7648 8.3968-2.7648h197.4272c34.2016 0 61.9008-27.6992 61.9008-61.9008V447.8464c0-34.2016-27.7504-61.952-61.952-61.952z m-62.976 283.3408H429.568c-16.384 0-29.6448-13.2608-29.6448-29.6448s13.2608-29.6448 29.6448-29.6448h255.2832c16.384 0 29.6448 13.2608 29.6448 29.6448s-13.312 29.6448-29.6448 29.6448z m0-117.3504H429.568c-16.384 0-29.6448-13.2608-29.6448-29.6448s13.2608-29.6448 29.6448-29.6448h255.2832c16.384 0 29.6448 13.2608 29.6448 29.6448s-13.312 29.6448-29.6448 29.6448z" fill="#FF8E12" p-id="3110"></path><path d="M244.224 626.5344c-30.6176-2.2016-54.8352-27.8016-54.8352-58.9312v-185.344c0-71.4752 57.9584-129.4848 129.4848-129.4848h356.1984c32.6144 0 59.0848 26.4704 59.0848 59.0848v19.5072c0 16.2304-12.4928 30.3616-28.7232 30.8736a29.6448 29.6448 0 0 1-30.5664-29.6448c0-11.4688-9.2672-20.736-20.736-20.736l-335.3088 0.1536c-38.7072 0-70.1952 31.488-70.1952 70.1952v173.1072c0 6.1952 3.7888 11.8272 9.6768 13.8752 11.8784 4.096 20.2752 15.4624 19.8656 28.8256-0.512 17.3568-16.64 29.7472-33.9456 28.5184z" fill="#FCA315" p-id="3111"></path><path d="M747.8272 385.8944H367.104c-34.2016 0-61.9008 27.6992-61.9008 61.9008v247.0912c0 34.2016 27.6992 61.9008 61.9008 61.9008h41.9328c7.7312 0 13.9776 6.2464 13.9776 13.9776v49.7152c0 0.7168 0.0512 1.3824 0.1536 2.048a448.7168 448.7168 0 0 0 54.4256-14.848l64.512-48.128c2.4064-1.792 5.376-2.7648 8.3968-2.7648h30.3616a454.81984 454.81984 0 0 0 97.6384-87.6544H429.568c-16.384 0-29.6448-13.2608-29.6448-29.6448s13.2608-29.6448 29.6448-29.6448h255.2832c11.1616 0 20.8384 6.1952 25.9072 15.2576 42.8032-66.3552 68.6592-144.6912 71.4752-228.864a62.59712 62.59712 0 0 0-34.4064-10.3424z m-62.976 165.9904H429.568c-16.384 0-29.6448-13.2608-29.6448-29.6448s13.2608-29.6448 29.6448-29.6448h255.2832c16.384 0 29.6448 13.2608 29.6448 29.6448s-13.312 29.6448-29.6448 29.6448z" fill="#FCA315" p-id="3112"></path><path d="M318.8224 312.0128l331.2128-0.1536c3.9424-19.3024 6.656-39.0144 8.0384-59.0848H318.8224c-71.5264 0-129.4848 57.9584-129.4848 129.4848v185.344c0 31.1808 24.2176 56.7808 54.8352 58.9312 17.3056 1.2288 33.4336-11.1616 33.9456-28.5184a29.39904 29.39904 0 0 0-19.8656-28.8256c-5.8368-1.9968-9.6768-7.68-9.6768-13.8752V382.208c0.0512-38.7072 31.5392-70.1952 70.2464-70.1952z" fill="#FCB138" p-id="3113"></path><path d="M305.2032 447.8464v213.504a446.58688 446.58688 0 0 0 97.024-33.2288c4.5056-10.6496 15.0528-18.176 27.3408-18.176h6.8608a452.31616 452.31616 0 0 0 78.08-58.0096H429.568c-16.384 0-29.6448-13.2608-29.6448-29.6448s13.2608-29.6448 29.6448-29.6448h138.6496a448.82944 448.82944 0 0 0 59.904-106.7008H367.104c-34.2016-0.0512-61.9008 27.6992-61.9008 61.9008z" fill="#FCB138" p-id="3114"></path><path d="M503.296 252.7744H318.8224c-71.5264 0-129.4848 57.9584-129.4848 129.4848v120.1152c20.2752-4.3008 40.0896-9.984 59.2896-16.9472V382.2592c0-38.7072 31.488-70.1952 70.1952-70.1952l151.04-0.1024a453.2736 453.2736 0 0 0 33.4336-59.1872z" fill="#FFC65E" p-id="3115"></path><path d="M305.2032 447.8464v12.4928c37.7344-19.9168 72.2944-45.056 102.7584-74.3936H367.104c-34.2016-0.0512-61.9008 27.6992-61.9008 61.9008z" fill="#FFC65E" p-id="3116"></path></svg>