<svg class="icon" style="width: 1em;height: 1em;vertical-align: middle;fill: currentColor;overflow: hidden;" viewBox="0 0 1024 1024" version="1.1" xmlns="http://www.w3.org/2000/svg" p-id="880"><path d="M516.5056 513.3312m-450.816 0a450.816 450.816 0 1 0 901.632 0 450.816 450.816 0 1 0-901.632 0Z" fill="#FFE3DB" p-id="881"></path><path d="M340.48 417.9456c7.8848-7.2704 13.6704-12.3392 19.1488-17.7664 48.9984-48.896 97.9968-97.792 146.7392-146.8928 4.7616-4.8128 9.472-7.0144 16.1792-6.6048 9.216 0.512 18.4832 0.1536 29.6448 0.1536-2.3552 3.072-3.7376 5.1712-5.376 7.0144-53.3504 60.3648-57.9072 139.6736-11.52 205.312 4.7616 6.7584 10.4448 13.0048 16.3328 18.8928 32.9216 33.0752 65.9968 65.9456 99.072 98.8672 12.4416 12.3392 18.7904 12.288 31.0784 0.0512 31.0784-30.976 62.1568-61.952 93.2352-92.8768 2.304-2.304 4.7616-4.4032 8.704-8.0384V711.2704c0 42.1376-23.9104 65.4848-66.2016 66.1504-11.1616 0.2048-18.688-3.2256-26.4704-11.0592-113.3568-113.8688-227.0208-227.3792-340.6848-340.9408-2.3552-2.4064-5.376-4.1472-9.8816-7.4752zM309.8112 450.048c109.3632 109.0048 217.9072 217.1392 327.5264 326.3488-3.5328 0.3072-5.9904 0.6656-8.4992 0.6656-104.3968 0.0512-208.8448 0.1024-313.2416-0.0512-37.2736-0.0512-62.0544-25.0368-62.1568-62.4128-0.1536-67.0208-0.1024-134.0928 0.0512-201.1136 0-3.1744 0.4608-7.2704 2.4576-9.3184 17.8176-18.2784 36.0448-36.3008 53.8624-54.1184z" fill="#F23D4F" p-id="882"></path><path d="M783.7184 370.7904c-0.4608 33.8944-11.8784 63.3344-35.2256 88.064-23.552 24.9344-47.0016 49.9712-70.5536 74.8544-9.6768 10.24-13.8752 10.0352-23.4496-0.0512-22.9376-24.2176-45.824-48.4864-68.864-72.6016-51.2512-53.6576-49.408-133.888 4.352-184.8832 40.3968-38.3488 110.4896-38.656 151.552-0.6656 27.7504 25.7536 42.24 58.368 42.1888 95.2832z m-117.248-65.1776c-32.9216-0.256-58.9312 25.1392-59.392 58.0096-0.4608 33.2288 25.344 59.6992 58.5216 59.904 32.9216 0.2048 58.88-25.2416 59.3408-58.0608 0.4096-33.536-25.0368-59.648-58.4704-59.8528z" fill="#FC4956" p-id="883"></path><path d="M446.3616 246.784C381.7984 311.3472 317.7472 375.3472 253.7472 439.3472c-0.1024-2.0992-0.3584-5.0176-0.3584-7.9872 0-40.1408-0.0512-80.2304 0-120.3712 0.0512-39.68 24.4224-64.1536 64-64.2048 40.448-0.1024 80.8448 0 121.2928 0h7.68z" fill="#FF716E" p-id="884"></path><path d="M584.704 724.0192c-91.8016-91.4944-183.0912-182.4256-274.944-273.9712-17.8176 17.8176-35.9936 35.7888-53.8624 54.1696-1.9456 2.048-2.4576 6.144-2.4576 9.3184-0.1536 67.0208-0.2048 134.0928-0.0512 201.1136 0.1024 37.376 24.8832 62.3616 62.1568 62.4128 44.7488 0.0512 89.5488 0.0512 134.2976 0.0512a446.28992 446.28992 0 0 0 134.8608-53.0944zM775.0656 483.9936c-31.0784 30.976-62.1568 61.952-93.2352 92.8768-12.3392 12.288-18.688 12.288-31.0784-0.0512-33.0752-32.9216-66.1504-65.792-99.072-98.8672-5.8368-5.888-11.5712-12.1344-16.3328-18.8928-46.3872-65.6896-41.8304-144.9472 11.52-205.312 1.6384-1.8432 3.0208-3.9424 5.376-7.0144-11.1104 0-20.3776 0.4096-29.6448-0.1536-6.7072-0.3584-11.4176 1.792-16.1792 6.6048-48.7424 49.1008-97.7408 97.9968-146.7392 146.8928-5.4272 5.4272-11.264 10.496-19.1488 17.7664 4.4544 3.328 7.4752 5.0176 9.8816 7.424 91.0336 90.9312 182.016 181.8624 272.8448 272.9472 73.8304-54.9888 130.2528-132.0448 159.488-221.44-3.328 3.1744-5.632 5.1712-7.68 7.2192z" fill="#FC4956" p-id="885"></path><path d="M309.8112 450.048c-17.8176 17.8176-35.9936 35.7888-53.8624 54.1696-1.9456 2.048-2.4576 6.144-2.4576 9.3184-0.0512 37.7344-0.1024 75.4176-0.1024 113.152a448.55296 448.55296 0 0 0 184.064-49.408c-42.496-42.3936-84.992-84.736-127.6416-127.232zM559.104 485.4784c-2.5088-2.5088-5.0176-4.9664-7.4752-7.4752-5.8368-5.888-11.5712-12.1344-16.3328-18.8928-46.3872-65.6896-41.8304-144.9472 11.52-205.312 1.6384-1.8432 3.0208-3.9424 5.376-7.0144-11.1104 0-20.3776 0.4096-29.6448-0.1536-6.7072-0.3584-11.4176 1.792-16.1792 6.6048-48.7424 49.1008-97.7408 97.9968-146.7392 146.8928-5.4272 5.4272-11.264 10.496-19.1488 17.7664 4.4544 3.328 7.4752 5.0176 9.8816 7.424 42.6496 42.6496 85.3504 85.2992 128 127.8976a449.0752 449.0752 0 0 0 80.7424-67.7376z" fill="#FF5C64" p-id="886"></path><path d="M582.912 458.0864c13.9776-17.4592 26.6752-35.9424 37.9904-55.3472-8.8064-10.4448-14.0288-24.064-13.824-39.1168 0.4608-31.6416 24.576-56.2688 55.808-57.856 5.632-18.8928 10.0864-38.2976 13.2608-58.1632-31.1296-2.6112-63.3856 6.8608-86.2208 28.5184-52.7872 50.0736-55.4496 128.3584-7.0144 181.9648z" fill="#FF5C64" p-id="887"></path><path d="M368.1792 391.6288A453.376 453.376 0 0 0 492.544 267.1104C451.1744 308.736 409.7024 350.208 368.1792 391.6288z" fill="#FF716E" p-id="888"></path></svg>