<svg class="icon" style="width: 1em;height: 1em;vertical-align: middle;fill: currentColor;overflow: hidden;" viewBox="0 0 1024 1024" version="1.1" xmlns="http://www.w3.org/2000/svg" p-id="3455"><path d="M508.416 513.1264m-450.816 0a450.816 450.816 0 1 0 901.632 0 450.816 450.816 0 1 0-901.632 0Z" fill="#E3FFF3" p-id="3456"></path><path d="M687.7696 221.3376H329.1136c-41.9328 0-75.9296 33.1264-75.9296 74.0352v367.872c0 23.1424 19.2512 41.9328 43.008 41.9328h424.4992c23.7568 0 43.008-18.7904 43.008-41.9328V295.3728c0-40.8576-33.9968-74.0352-75.9296-74.0352zM344.1664 631.296c-22.8864 0-41.472-18.1248-41.472-40.448s18.5856-40.448 41.472-40.448 41.472 18.1248 41.472 40.448-18.5856 40.448-41.472 40.448z m327.0656 0c-22.8864 0-41.472-18.1248-41.472-40.448s18.5856-40.448 41.472-40.448 41.472 18.1248 41.472 40.448-18.5856 40.448-41.472 40.448z m46.5408-192.1536c0 13.312-11.0592 24.1152-24.7296 24.1152H326.6048c-13.6704 0-24.7296-10.8032-24.7296-24.1152V349.184c0-27.0848 22.528-49.1008 50.3296-49.1008h315.2384c27.8016 0 50.3296 21.9648 50.3296 49.1008v89.9584zM675.3792 787.456H341.4528c-13.4144 0-24.2688-10.8544-24.2688-24.2688s10.8544-24.2688 24.2688-24.2688h333.9264c13.4144 0 24.2688 10.8544 24.2688 24.2688s-10.8544 24.2688-24.2688 24.2688z" fill="#05C46D" p-id="3457"></path><path d="M763.6992 295.3728c0-40.9088-33.9968-74.0352-75.9296-74.0352H329.1136c-41.9328 0-75.9296 33.1264-75.9296 74.0352v367.872c0 23.1424 19.2512 41.9328 43.008 41.9328h264.5504a440.69376 440.69376 0 0 0 94.1056-77.2096c-14.7456-6.1952-25.088-20.48-25.088-37.1712 0-22.3232 18.5856-40.448 41.472-40.448 12.8512 0 24.32 5.6832 31.9488 14.6432a433.79712 433.79712 0 0 0 60.5184-155.4944V295.3728zM344.1664 631.296c-22.8864 0-41.472-18.1248-41.472-40.448s18.5856-40.448 41.472-40.448 41.472 18.1248 41.472 40.448-18.5856 40.448-41.472 40.448z m373.6064-192.1536c0 13.312-11.0592 24.1152-24.7296 24.1152H326.6048c-13.6704 0-24.7296-10.8032-24.7296-24.1152V349.184c0-27.0848 22.528-49.1008 50.3296-49.1008h315.2384c27.8016 0 50.3296 21.9648 50.3296 49.1008v89.9584zM492.8512 738.9184H341.4528c-13.4144 0-24.2688 10.8544-24.2688 24.2688 0 1.8944 0.256 3.6864 0.6656 5.4784 5.12 0.1536 10.24 0.3072 15.36 0.3072 56.3712 0 110.1824-10.6496 159.6416-30.0544z" fill="#1DCE75" p-id="3458"></path><path d="M304.9984 604.0576c-1.4848-4.1472-2.304-8.5504-2.304-13.2096 0-22.3232 18.5856-40.448 41.472-40.448 18.7904 0 34.6112 12.1856 39.7312 28.8256a438.23104 438.23104 0 0 0 159.6928-115.968H326.6048c-13.6704 0-24.7296-10.8032-24.7296-24.1152V349.184c0-27.0848 22.528-49.1008 50.3296-49.1008h280.9856a435.712 435.712 0 0 0 15.5136-78.7456H329.1136c-41.9328 0-75.9296 33.1264-75.9296 74.0352v316.416c17.5616-1.536 34.8672-4.1472 51.8144-7.7312z" fill="#3CD38E" p-id="3459"></path><path d="M301.824 411.392V349.184c0-27.0848 22.528-49.1008 50.3296-49.1008h88.5248a438.4768 438.4768 0 0 0 51.968-78.7456H329.1136c-41.9328 0-75.9296 33.1264-75.9296 74.0352v137.216c16.7424-6.0928 32.9728-13.1584 48.64-21.1968z" fill="#48E1AA" p-id="3460"></path></svg>