<svg class="icon" style="width: 1em;height: 1em;vertical-align: middle;fill: currentColor;overflow: hidden;" viewBox="0 0 1024 1024" version="1.1" xmlns="http://www.w3.org/2000/svg" p-id="2950"><path d="M508.1088 519.8336m-450.816 0a450.816 450.816 0 1 0 901.632 0 450.816 450.816 0 1 0-901.632 0Z" fill="#FFF1DC" p-id="2951"></path><path d="M578.1504 206.1312c39.4752 49.8688 63.1296 112.896 63.1296 181.4528 0 161.6384-131.0208 292.6592-292.6592 292.6592-54.7328 0-105.9328-15.0528-149.7088-41.216 46.8992 121.9072 165.0688 208.4864 303.5136 208.4864 179.6096 0 325.1712-145.6128 325.1712-325.1712 0.0512-153.4976-106.3936-282.0608-249.4464-316.2112z" fill="#FF8E12" p-id="2952"></path><path d="M375.3984 276.1216l26.624 53.9136a13.568 13.568 0 0 0 10.2912 7.4752l59.4944 8.6528c11.2128 1.6384 15.7184 15.4624 7.5776 23.3472l-43.0592 41.984c-3.2256 3.1232-4.7104 7.68-3.9424 12.1344l10.1888 59.2896c1.8944 11.2128-9.8304 19.712-19.8656 14.4384l-53.248-28.0064c-3.9936-2.0992-8.7552-2.0992-12.7488 0l-53.248 28.0064c-10.0352 5.2736-21.8112-3.2256-19.8656-14.4384l10.1888-59.2896a13.7216 13.7216 0 0 0-3.9424-12.1344l-43.0592-41.984c-8.1408-7.936-3.6352-21.76 7.5776-23.3472l59.4944-8.6528c4.4544-0.6656 8.2944-3.4304 10.2912-7.4752l26.624-53.9136c5.0688-10.1888 19.6096-10.1888 24.6272 0z" fill="#FCB138" p-id="2953"></path><path d="M822.4256 464.2304c-22.9376-127.0272-119.7056-228.4032-244.2752-258.0992 39.4752 49.8688 63.1296 112.896 63.1296 181.4528 0 161.6384-131.0208 292.6592-292.6592 292.6592-54.7328 0-105.9328-15.0528-149.7088-41.216 24.7808 64.4608 69.5296 118.9888 126.5664 156.1088 20.0192 2.7136 40.3968 4.1472 61.1328 4.1472 208.9472 0.0512 384.7168-142.1312 435.8144-335.0528z" fill="#FCA315" p-id="2954"></path><path d="M636.2112 441.8048a447.872 447.872 0 0 0 70.6048-172.2368c-37.0688-29.952-80.7936-52.0192-128.6656-63.4368 39.4752 49.8688 63.1296 112.896 63.1296 181.4528 0 18.5344-1.792 36.6592-5.0688 54.2208z" fill="#FCB138" p-id="2955"></path><path d="M402.0224 330.0864l-26.624-53.9136c-5.0176-10.1888-19.5584-10.1888-24.576 0l-26.624 53.9136a13.568 13.568 0 0 1-10.2912 7.4752l-59.4944 8.6528c-11.2128 1.6384-15.7184 15.4624-7.5776 23.3472l43.0592 41.984c3.2256 3.1232 4.7104 7.68 3.9424 12.1344l-5.888 34.4576a451.2256 451.2256 0 0 0 182.4256-112.1792l-57.9584-8.448c-4.5568-0.6144-8.3968-3.3792-10.3936-7.424z" fill="#FFC65E" p-id="2956"></path></svg>