<svg class="icon" style="width: 1em;height: 1em;vertical-align: middle;fill: currentColor;overflow: hidden;" viewBox="0 0 1024 1024" version="1.1" xmlns="http://www.w3.org/2000/svg" p-id="6440"><path d="M507.1872 520.96m-450.816 0a450.816 450.816 0 1 0 901.632 0 450.816 450.816 0 1 0-901.632 0Z" fill="#E9ECFF" p-id="6441"></path><path d="M503.9104 200.0896c-2.304 0-4.608 0-6.912 0.0512-11.4688 0.256-15.6672 15.4624-5.7344 21.248 66.3552 38.7072 109.568 112.7936 103.7312 196.4032-7.2192 103.6288-91.2384 187.4944-194.8672 194.4576-83.968 5.6832-158.208-38.0416-196.6592-104.96-5.7344-9.984-20.9408-5.7856-21.248 5.6832-0.1024 2.9696-0.1024 5.9392-0.1024 8.9088 0 182.784 152.3712 329.984 336.9984 321.4848 164.864-7.5776 298.7008-141.4144 306.2784-306.2784 8.448-184.576-138.7008-336.9984-321.4848-336.9984z" fill="#6C6CEA" p-id="6442"></path><path d="M361.5744 476.16m-50.2272 0a50.2272 50.2272 0 1 0 100.4544 0 50.2272 50.2272 0 1 0-100.4544 0Z" fill="#8D92F8" p-id="6443"></path><path d="M503.9104 200.0896c-2.304 0-4.608 0-6.912 0.0512-11.4688 0.256-15.6672 15.4624-5.7344 21.248 66.3552 38.7072 109.568 112.7424 103.7312 196.4032-7.2192 103.6288-91.2384 187.4944-194.8672 194.4576-83.968 5.6832-158.208-38.0416-196.6592-104.96-5.7344-9.984-20.9408-5.7856-21.248 5.6832-0.1024 2.9696-0.1024 5.9392-0.1024 8.9088 0 107.4176 52.6848 202.5472 133.5808 260.9664a366.65344 366.65344 0 0 0 108.1856 16.2304c202.9568 0 367.5136-164.5568 367.5136-367.5136 0-22.4256-2.0992-44.3392-5.9392-65.6384-54.9888-98.816-160.4096-165.8368-281.5488-165.8368z" fill="#757BF2" p-id="6444"></path><path d="M496.9984 200.192c-11.4688 0.256-15.6672 15.4624-5.7344 21.248 66.3552 38.7072 109.568 112.7424 103.7312 196.4032-7.2192 103.6288-91.2384 187.4944-194.8672 194.4576-83.968 5.6832-158.208-38.0416-196.6592-104.96-5.7344-9.984-20.9408-5.7856-21.248 5.6832-0.1024 2.9696-0.1024 5.9392-0.1024 8.9088 0 50.176 11.5712 97.6896 32.0512 140.032a366.80192 366.80192 0 0 0 111.616 17.3056c202.9568 0 367.5136-164.5568 367.5136-367.5136 0-17.92-1.3312-35.5328-3.84-52.7872-52.4288-37.0688-116.4288-58.8288-185.4976-58.8288-2.3552-0.0512-4.6592 0-6.9632 0.0512z" fill="#8486F8" p-id="6445"></path><path d="M203.4688 507.3408c-5.7344-9.984-20.9408-5.7856-21.248 5.6832-0.1024 2.9696-0.1024 5.9392-0.1024 8.9088 0 10.5472 0.5632 20.992 1.536 31.2832 16.2304 2.2016 32.8192 3.4304 49.664 3.4304 3.1232 0 6.1952-0.1536 9.2672-0.256-15.36-14.2848-28.6208-30.7712-39.1168-49.0496zM503.9104 200.0896c-2.304 0-4.608 0-6.912 0.0512-11.4688 0.256-15.6672 15.4624-5.7344 21.248a210.49344 210.49344 0 0 1 86.272 96.4608 367.1552 367.1552 0 0 0 22.272-103.168 322.62144 322.62144 0 0 0-95.8976-14.592z" fill="#8D92F8" p-id="6446"></path></svg>