<svg class="icon" style="width: 1em;height: 1em;vertical-align: middle;fill: currentColor;overflow: hidden;" viewBox="0 0 1024 1024" version="1.1" xmlns="http://www.w3.org/2000/svg" p-id="5853"><path d="M512.256 511.3344m-450.816 0a450.816 450.816 0 1 0 901.632 0 450.816 450.816 0 1 0-901.632 0Z" fill="#E9F4FF" p-id="5854"></path><path d="M226.4064 636.9792c-13.568-2.3552-22.3744-8.448-27.904-19.6096-5.7344-11.5712-3.6864-22.4256 4.096-31.8464 6.6048-7.936 13.9264-15.4624 21.76-22.1696 12.544-10.8032 30.8224-9.6256 41.7792 1.792 11.9296 12.3904 12.2368 29.5936 0.3584 42.3936-6.3488 6.8608-12.7488 13.8752-20.1728 19.5072-5.7856 4.4032-13.2096 6.7072-19.9168 9.9328z" fill="#59ADF8" p-id="5855"></path><path d="M186.1632 417.2288c11.9296-0.4096 24.6784-0.6144 34.048 10.5984 7.5776 9.0112 9.5744 19.0464 5.888 29.952-3.9936 11.8784-12.7488 19.0976-24.9856 20.3264-10.9056 1.0752-22.1184 1.1776-33.024 0.0512-16.5376-1.6896-27.904-15.8208-27.0848-31.8464 0.8192-16.0256 13.4656-28.2624 30.208-29.0304 4.7104-0.256 9.3696-0.0512 14.9504-0.0512zM259.1744 352.3072c-1.6384-0.1024-3.328-0.1024-5.0176-0.3584-15.2576-2.048-43.008-29.7984-44.4416-45.1072-1.1264-12.2368 3.6352-22.3744 14.1312-29.0816 11.3152-7.2192 23.5008-7.3216 33.792 0.9728a164.5568 164.5568 0 0 1 26.5216 27.1872c7.0656 9.1136 6.7584 20.3776 1.024 30.3616-5.5808 9.728-13.9776 16.0768-26.0096 16.0256z" fill="#6BC2FC" p-id="5856"></path><path d="M552.0896 300.4416c0.256 22.016-29.5936 52.0704-48.9472 51.6608-11.5712-0.256-20.6848-5.5808-26.2144-15.8208-6.4-11.8272-5.2736-23.6032 3.1232-33.8432a163.0208 163.0208 0 0 1 21.9136-22.1696c10.0352-8.3456 21.76-10.2912 33.8432-3.9936 10.7008 5.632 15.9744 14.7968 16.2816 24.1664z" fill="#59ADF8" p-id="5857"></path><path d="M412.5184 262.7584c0.6656 14.5408 0.8192 27.4944-10.8544 37.2224-9.3184 7.7312-19.8656 8.3968-30.3616 4.864-10.9056-3.6864-17.9712-12.288-18.9952-23.8592-1.024-11.6224-1.024-23.5008-0.0512-35.1744 1.1776-14.3872 15.4112-25.9584 30.0544-25.9072 15.2576 0.0512 28.8256 12.0832 30.0544 27.0336 0.5632 5.6832 0.1536 11.4176 0.1536 15.8208z" fill="#6BC2FC" p-id="5858"></path><path d="M860.0576 640.768c-2.9696-56.6784-50.2272-110.4384-106.5472-117.0944-15.2064-1.792-30.6176-1.9968-45.9264-2.9184-1.8944-101.5296-110.6432-159.9488-193.28-110.848-12.8-16.9472-24.32-34.7136-38.4-50.0736-14.6944-15.9744-33.9968-26.112-55.04-32.0512-20.6336-5.8368-41.728-7.5776-62.72-3.072-56.6784 12.1856-94.7712 45.9264-108.2368 102.5024-15.7696 66.1504 10.5472 116.4288 66.304 153.7536-18.5344 31.232-24.4224 64.1024-15.4624 98.4576 15.4112 58.8288 64 95.744 125.0304 95.8976 101.0688 0.2048 202.1376-0.8192 303.1552 0.3584 77.2608 0.9216 134.912-63.0272 131.1232-134.912z m-166.7072 79.3088H455.9872a33.28 33.28 0 1 1 0-66.56h237.3632a33.28 33.28 0 1 1 0 66.56z" fill="#2595E8" p-id="5859"></path><path d="M753.5616 523.7248c-15.2064-1.792-30.6176-1.9968-45.9264-2.9184-1.8944-101.5296-110.6432-159.9488-193.28-110.848-12.8-16.9472-24.32-34.7136-38.4-50.0736-14.6944-15.9744-33.9968-26.112-55.04-32.0512-20.6336-5.8368-41.728-7.5776-62.72-3.072-56.6784 12.1856-94.7712 45.9264-108.2368 102.5024-15.7696 66.1504 10.5472 116.4288 66.304 153.7536-18.5344 31.232-24.4224 64.1024-15.4624 98.4576 15.4112 58.8288 64 95.744 125.0304 95.8976 66.1504 0.1536 132.2496-0.2048 198.4-0.1536 20.224-16.6912 38.9632-35.1744 56.0128-55.1424h-224.256a33.28 33.28 0 1 1 0-66.56h237.3632c10.6496 0 20.1216 5.0176 26.2144 12.8512 26.0608-41.6256 45.568-87.808 56.9344-137.1136-7.424-2.6624-15.0528-4.608-22.9376-5.5296z" fill="#3A9CED" p-id="5860"></path><path d="M641.9456 409.2416c-37.8368-21.504-86.016-24.0128-127.5904 0.6656-12.8-16.9472-24.32-34.7136-38.4-50.0736-14.6944-15.9744-33.9968-26.112-55.04-32.0512-20.6336-5.8368-41.728-7.5776-62.72-3.072-56.6784 12.1856-94.7712 45.9264-108.2368 102.5024-15.7696 66.1504 10.5472 116.4288 66.304 153.7536-18.5344 31.232-24.4224 64.1024-15.4624 98.4576 2.6112 10.0352 6.2976 19.3536 10.752 28.0576 155.4944-34.2528 280.8832-148.9408 330.3936-298.24z" fill="#59ADF8" p-id="5861"></path><path d="M501.9136 280.32c-7.9872 6.6048-15.3088 14.1824-21.9136 22.1696-8.3968 10.24-9.5232 22.016-3.1232 33.8432 1.8944 3.5328 4.2496 6.4512 6.9632 8.8064 14.1824-22.8352 26.368-47.0528 36.352-72.3968-6.4512 0.3072-12.5952 2.8672-18.2784 7.5776zM474.9824 358.912c-14.5408-15.4112-33.4848-25.2416-54.0672-31.0784-20.6336-5.8368-41.728-7.5776-62.72-3.072-56.6784 12.1856-94.7712 45.9264-108.2368 102.5024-9.3184 39.0144-3.8912 72.448 13.5168 101.0176 86.6304-33.6384 160.3584-93.2864 211.5072-169.3696z" fill="#6BC2FC" p-id="5862"></path></svg>