<svg class="icon" style="width: 1em;height: 1em;vertical-align: middle;fill: currentColor;overflow: hidden;" viewBox="0 0 1024 1024" version="1.1" xmlns="http://www.w3.org/2000/svg" p-id="4714"><path d="M504.32 513.1264m-450.816 0a450.816 450.816 0 1 0 901.632 0 450.816 450.816 0 1 0-901.632 0Z" fill="#E9F4FF" p-id="4715"></path><path d="M510.976 749.7216c-63.1296 0-126.2592 0.3072-189.3376-0.1024-58.7776-0.4096-108.0832-37.5296-122.7776-91.5968-19.1488-70.2976 30.1056-142.2336 104.2944-151.7568 13.7216-1.7408 27.7504-1.6384 41.6256-1.6896 6.1952-0.0512 8.6016-1.9968 9.728-8.192 14.592-82.2272 82.5344-141.3632 163.9424-150.1184 103.1168-11.1104 192.512 57.7024 207.5648 154.0096 1.28 8.2432 6.5024 8.192 11.6224 9.6768 55.8592 16.0768 92.2112 66.4064 89.7024 124.3136-2.4064 55.1424-48.64 105.8816-103.6288 113.3056-9.8304 1.3312-19.8656 1.9456-29.7984 1.9968-60.9792 0.2048-121.9584 0.1536-182.9376 0.1536z" fill="#2595E8" p-id="4716"></path><path d="M212.2752 501.0432c-2.9184-4.5056-5.9392-7.9872-7.7312-12.032-27.0848-59.5968-22.0672-141.3632 26.2144-193.4336 38.5536-41.5232 87.5008-58.88 142.8992-58.6752 39.4752 0.1536 77.056 9.3696 109.7728 33.024 11.0592 7.9872 20.1216 17.7664 25.5488 31.5392-93.3888 17.408-165.12 59.7504-190.3616 158.4128-39.8336-0.1024-75.52 11.4688-106.3424 41.1648z" fill="#59ADF8" p-id="4717"></path><path d="M729.2928 506.88c-1.536-1.28-2.7136-3.2256-3.2768-6.5536-15.0528-96.3584-104.448-165.12-207.5648-154.0096-81.408 8.7552-149.3504 67.8912-163.9424 150.1184-1.1264 6.1952-3.4816 8.192-9.728 8.192-13.8752 0.0512-27.904-0.1024-41.6256 1.6896-74.24 9.5232-123.4432 81.4592-104.2944 151.7568 14.6944 54.0672 64 91.1872 122.7776 91.5968 63.1296 0.4096 126.2592 0.1024 189.3376 0.1024h7.2192c97.0752-52.0192 172.8512-138.3936 211.0976-242.8928z" fill="#3A9CED" p-id="4718"></path><path d="M602.7264 355.3792c-25.9584-8.8064-54.528-12.288-84.224-9.0624-81.408 8.7552-149.3504 67.8912-163.9424 150.1184-1.1264 6.1952-3.4816 8.192-9.728 8.192-13.8752 0.0512-27.904-0.1024-41.6256 1.6896-68.7616 8.8064-116.0192 71.2192-107.4176 136.2432 185.5488-5.4272 342.9888-122.9312 406.9376-287.1808z" fill="#59ADF8" p-id="4719"></path><path d="M230.7584 295.5776c-42.0864 45.3632-51.3024 113.3568-35.0208 169.5232 61.5936-17.9712 117.7088-48.7936 165.2736-89.2928a181.8112 181.8112 0 0 1 28.928-26.88c27.2896-27.6992 51.0976-58.88 70.5536-92.8256-26.9312-13.4656-56.32-19.0464-86.8864-19.2-55.3472-0.2048-104.2944 17.152-142.848 58.6752z" fill="#6BC2FC" p-id="4720"></path></svg>