<svg class="icon" style="width: 1em;height: 1em;vertical-align: middle;fill: currentColor;overflow: hidden;" viewBox="0 0 1024 1024" version="1.1" xmlns="http://www.w3.org/2000/svg" p-id="5023"><path d="M513.792 513.1264m-450.816 0a450.816 450.816 0 1 0 901.632 0 450.816 450.816 0 1 0-901.632 0Z" fill="#E3FFF3" p-id="5024"></path><path d="M784.4864 721.7152l-25.7024-347.136c-2.3552-32-30.0544-56.832-63.3856-56.832h-29.3888c-3.6864-80.7424-70.5536-145.3056-152.2176-145.3056-81.664 0-148.48 64.5632-152.2176 145.3056h-29.3888c-33.3312 0-60.9792 24.832-63.3856 56.832l-25.7024 347.136c-2.6112 35.4304 26.5216 65.536 63.3856 65.536h414.6688c36.8128 0 65.9456-30.1056 63.3344-65.536z m-270.6944-482.7136c44.9536 0 81.8688 34.7136 85.4528 78.7456H428.288c3.6352-43.9808 40.5504-78.7456 85.504-78.7456z m164.0448 462.9504a30.54592 30.54592 0 0 1-22.1696 9.4208c-7.68 0-15.3088-2.816-21.2992-8.5504l-48.7424-46.7968c-21.5552 13.824-47.1552 21.8624-74.5984 21.8624-76.4416 0-138.5984-62.1568-138.5984-138.5984s62.1568-138.5984 138.5984-138.5984c76.3904 0 138.5984 62.1568 138.5984 138.5984 0 26.7776-7.6288 51.7632-20.8384 72.96l48.128 46.2336c12.288 11.776 12.6464 31.232 0.9216 43.4688z" fill="#05C46D" p-id="5025"></path><path d="M511.0272 462.1824c-42.5472 0-77.1584 34.6112-77.1584 77.1584s34.6112 77.1584 77.1584 77.1584 77.1584-34.6112 77.1584-77.1584-34.6112-77.1584-77.1584-77.1584z" fill="#1DCE75" p-id="5026"></path><path d="M574.208 495.1552c-13.9776-19.9168-37.0176-32.9728-63.1296-32.9728-42.5472 0-77.1584 34.6112-77.1584 77.1584 0 26.624 13.5168 50.1248 34.0992 63.9488a454.0928 454.0928 0 0 0 106.1888-108.1344z" fill="#3CD38E" p-id="5027"></path><path d="M758.7328 374.6304c-2.3552-32-30.0544-56.832-63.3856-56.832h-29.3888c-3.6864-80.7424-70.5536-145.3056-152.2176-145.3056-81.664 0-148.48 64.5632-152.2176 145.3056h-29.3888c-33.3312 0-60.9792 24.832-63.3856 56.832l-25.7024 347.136c-2.6112 35.4304 26.5216 65.536 63.3856 65.536h248.2688a453.3504 453.3504 0 0 0 96.9216-76.2368 30.3616 30.3616 0 0 1-17.2544-8.192l-48.7424-46.7968c-21.5552 13.824-47.1552 21.8624-74.5984 21.8624-76.4416 0-138.5984-62.1568-138.5984-138.5984s62.1568-138.5984 138.5984-138.5984c76.3904 0 138.5984 62.1568 138.5984 138.5984 0 26.7776-7.6288 51.7632-20.8384 72.96l48.128 46.2336c4.0448 3.8912 6.7072 8.6528 8.1408 13.7216a449.49504 449.49504 0 0 0 82.5856-177.4592l-8.9088-120.1664z m-330.4448-56.832c3.6352-44.032 40.5504-78.7456 85.4528-78.7456s81.8688 34.7136 85.4528 78.7456H428.288z" fill="#1DCE75" p-id="5028"></path><path d="M413.1328 637.2864c-25.088-25.088-40.6528-59.7504-40.6528-97.9968 0-76.3904 62.1568-138.5984 138.5984-138.5984 37.3248 0 71.2192 14.848 96.1536 38.912a448.5632 448.5632 0 0 0 46.7456-174.4384c-23.2448-54.4768-77.312-92.7232-140.1856-92.7232-81.664 0-148.48 64.5632-152.2176 145.3056h-29.3888c-33.3312 0-60.9792 24.832-63.3856 56.832l-23.1424 312.1152a446.91456 446.91456 0 0 0 167.4752-49.408z m100.6592-398.2848c44.9536 0 81.8688 34.7136 85.4528 78.7456H428.288c3.6352-43.9808 40.5504-78.7456 85.504-78.7456z" fill="#3CD38E" p-id="5029"></path><path d="M472.576 317.7984h-44.288c3.584-43.3664 39.4752-77.6704 83.5584-78.6432 8.0896-21.1456 14.592-43.0592 19.456-65.5872-5.7344-0.6656-11.5712-1.024-17.5104-1.024-81.664 0-148.48 64.5632-152.2176 145.3056h-29.3888c-33.3312 0-60.9792 24.832-63.3856 56.832l-9.0112 121.6512c88.32-35.84 162.7136-98.7648 212.7872-178.5344z" fill="#48E1AA" p-id="5030"></path></svg>