<svg class="icon" style="width: 1em;height: 1em;vertical-align: middle;fill: currentColor;overflow: hidden;" viewBox="0 0 1024 1024" version="1.1" xmlns="http://www.w3.org/2000/svg" p-id="5040"><path d="M508.416 513.1264m-450.816 0a450.816 450.816 0 1 0 901.632 0 450.816 450.816 0 1 0-901.632 0Z" fill="#FFF1DC" p-id="5041"></path><path d="M794.88 282.624h-94.8736v-26.4704c0-15.0528-12.1856-27.2384-27.2384-27.2384H342.6816c-15.0528 0-27.2384 12.1856-27.2384 27.2384v26.4704H222.464c-14.7456 0-26.6752 11.9296-26.6752 26.6752v130.816c0 46.848 38.144 84.992 84.992 84.992h39.8848c18.0224 76.3904 81.5616 135.1168 160.4096 146.0736V757.76h-96.256c-14.7456 0-26.6752 11.9296-26.6752 26.6752s11.9296 26.6752 26.6752 26.6752h252.16c14.7456 0 26.6752-11.9296 26.6752-26.6752s-11.9296-26.6752-26.6752-26.6752h-102.6048v-86.5792c78.848-10.9568 142.3872-69.6832 160.4096-146.0736h41.728c46.848 0 84.992-38.144 84.992-84.992V309.2992c0-14.7456-11.9296-26.6752-26.624-26.6752zM315.4432 471.7568h-34.6624c-17.4592 0-31.6416-14.1824-31.6416-31.6416V335.9232h66.3552v135.8336z m99.6352 0c0 14.1312-11.4688 25.6-25.6 25.6s-25.6-11.4688-25.6-25.6V347.7504c0-14.1312 11.4688-25.6 25.6-25.6s25.6 11.4688 25.6 25.6v124.0064z m353.1264-31.6416c0 17.4592-14.1824 31.6416-31.6416 31.6416h-36.5568V335.9232h68.1984v104.192z" fill="#FF8E12" p-id="5042"></path><path d="M673.5872 228.9664c-0.256 0-0.512-0.1024-0.768-0.1024H342.6816c-15.0528 0-27.2384 12.1856-27.2384 27.2384v26.4704H222.464c-14.7456 0-26.6752 11.9296-26.6752 26.6752v130.816c0 46.848 38.144 84.992 84.992 84.992h39.8848c18.0224 76.3904 81.5616 135.1168 160.4096 146.0736v6.7072c123.5456-63.5904 208.0768-192.3072 208.0768-340.7872a386.22208 386.22208 0 0 0-15.5648-108.0832zM315.4432 471.7568h-34.6624c-17.4592 0-31.6416-14.1824-31.6416-31.6416V335.9232h66.3552v135.8336z m99.6352 0c0 14.1312-11.4688 25.6-25.6 25.6s-25.6-11.4688-25.6-25.6V347.7504c0-14.1312 11.4688-25.6 25.6-25.6s25.6 11.4688 25.6 25.6v124.0064z" fill="#FCA315" p-id="5043"></path><path d="M342.6816 228.9152c-15.0528 0-27.2384 12.1856-27.2384 27.2384v26.4704H222.464c-14.7456 0-26.6752 11.9296-26.6752 26.6752v130.816c0 46.848 38.144 84.992 84.992 84.992h39.8848c2.9184 12.4416 7.2192 24.3712 12.4416 35.7376 138.2912-50.7392 239.0528-178.8928 250.112-331.9296H342.6816z m-27.2384 242.8416h-34.6624c-17.4592 0-31.6416-14.1824-31.6416-31.6416V335.9232h66.3552v135.8336z m99.6352 0c0 14.1312-11.4688 25.6-25.6 25.6s-25.6-11.4688-25.6-25.6V347.7504c0-14.1312 11.4688-25.6 25.6-25.6s25.6 11.4688 25.6 25.6v124.0064z" fill="#FCB138" p-id="5044"></path><path d="M363.9296 347.392c0.1536-13.824 11.264-24.9344 25.0368-25.2416A382.9248 382.9248 0 0 0 451.328 228.864H342.6816c-15.0528 0-27.2384 12.1856-27.2384 27.2384v26.4704H222.464c-14.7456 0-26.6752 11.9296-26.6752 26.6752v128.256c18.3296-4.4544 36.1472-10.24 53.2992-17.2544V335.9232h66.3552v49.408c17.2032-11.3152 33.3824-24.0128 48.4864-37.9392z" fill="#FFC65E" p-id="5045"></path></svg>