<svg class="icon" style="width: 1em;height: 1em;vertical-align: middle;fill: currentColor;overflow: hidden;" viewBox="0 0 1024 1024" version="1.1" xmlns="http://www.w3.org/2000/svg" p-id="2808"><path d="M515.2768 513.1264m-450.816 0a450.816 450.816 0 1 0 901.632 0 450.816 450.816 0 1 0-901.632 0Z" fill="#FFE1E9" p-id="2809"></path><path d="M383.744 357.6832c6.5536 9.6256 18.3296 29.2864 23.296 47.2064h212.736c1.1776-3.584 2.816-7.3728 5.12-11.8272 5.9392-11.5712 24.1152-37.5296 31.8976-49.6128 7.7824-12.0832 15.2576-29.1328 12.4416-64.1024-2.816-34.9184-11.9296-97.024-11.9296-108.4416-10.5984 0-39.5776-3.6352-39.5776-3.6352s-13.9264 44.2368-38.0928 73.5232c-24.1664 29.2864-57.7024 63.2832-64.4096 135.5264-11.4176-71.5264-39.0144-105.5744-54.8864-123.1872-15.872-17.6128-46.5408-59.5968-48.5888-86.1696l-39.0656 3.4816s-18.688 111.2576-10.752 143.0528c3.2256 13.8752 13.3632 31.7952 21.8112 44.1856z" fill="#FF5F89" p-id="2810"></path><path d="M814.4384 662.1184c-12.2368-23.8592-46.848-100.2496-172.6976-210.8928-7.0144-5.888-11.9808-9.6768-15.5648-12.5952H404.7872c-4.1472 7.3216-10.0864 11.52-13.7728 15.2576-6.144 6.144-96.3584 85.76-175.5136 210.944-4.9664 7.6288-9.7792 19.968 0.5632 26.4192 10.2912 6.4512 42.9568 26.7264 42.9568 26.7264s-21.6064 34.5088 16.5376 43.4688c38.144 8.96 96.4608 11.5712 96.4608 11.5712s-15.5648 37.2736 40.3968 28.4672c55.9616-8.7552 152.1664-15.0528 214.1184-4.3008 17.7152 2.9696 49.3568 13.7216 46.1824-32.1024 27.3408-0.9728 60.2112-1.8432 77.2608-3.9936 16.9984-2.0992 43.8272-2.9696 23.2448-55.9104 28.2112-9.216 27.3408-8.704 36.2496-11.5712 8.9088-2.816 17.2032-7.6288 4.9664-31.488z" fill="#FF3369" p-id="2811"></path><path d="M641.7408 451.2768c-7.0144-5.888-11.9808-9.6768-15.5648-12.5952H404.7872c-4.1472 7.3216-10.0864 11.52-13.7728 15.2576-6.144 6.144-96.3584 85.76-175.5136 210.944-4.9664 7.6288-9.7792 19.968 0.512 26.4192 10.2912 6.4512 42.9568 26.7264 42.9568 26.7264s-21.6064 34.5088 16.5376 43.4688c38.144 8.96 96.4608 11.5712 96.4608 11.5712s-1.4848 3.5328-1.8944 8.1408c1.3312 0 2.7136 0.0512 4.0448 0.0512 160.9728 0 302.2336-84.3776 381.952-211.3024-25.7024-32.8704-62.1568-72.8576-114.3296-118.6816z" fill="#FF4D7C" p-id="2812"></path><path d="M613.0688 438.6816H404.7872c-4.1472 7.3216-10.0864 11.52-13.7728 15.2576-5.376 5.376-75.5712 67.3792-146.176 167.1168 1.9968 0.0512 3.9424 0.0512 5.9392 0.0512 148.48 0 280.1152-71.7312 362.2912-182.4256z" fill="#FF5F89" p-id="2813"></path><path d="M488.7552 293.2224c-10.0864-18.8928-20.6336-31.488-28.416-40.1408-15.872-17.6128-46.5408-59.5968-48.5888-86.1696l-39.0656 3.4816s-18.688 111.2576-10.752 143.0528c3.328 13.9264 13.4144 31.7952 21.8624 44.2368 3.4304 5.0688 8.3456 12.9536 12.9536 21.9136a455.89504 455.89504 0 0 0 92.0064-86.3744z" fill="#FF7196" p-id="2814"></path></svg>