<svg class="icon" style="width: 1em;height: 1em;vertical-align: middle;fill: currentColor;overflow: hidden;" viewBox="0 0 1024 1024" version="1.1" xmlns="http://www.w3.org/2000/svg" p-id="4172"><path d="M507.392 509.5936m-450.816 0a450.816 450.816 0 1 0 901.632 0 450.816 450.816 0 1 0-901.632 0Z" fill="#FBE1FF" p-id="4173"></path><path d="M508.416 191.1296c-175.1552 0-317.184 142.0288-317.184 317.184 0 175.1552 142.0288 317.184 317.184 317.184 175.1552 0 317.184-142.0288 317.184-317.184 0-175.1552-141.9776-317.184-317.184-317.184z m137.216 291.6352l-46.336 45.2096a20.1216 20.1216 0 0 0-5.7856 17.8688l10.9568 63.7952c2.816 16.4864-14.4896 29.0304-29.2864 21.248l-57.2928-30.1056c-5.888-3.072-12.9024-3.072-18.7904 0l-57.2928 30.1056c-14.7968 7.7824-32.1024-4.7616-29.2864-21.248l10.9568-63.7952a20.1728 20.1728 0 0 0-5.7856-17.8688l-46.336-45.2096c-11.9808-11.6736-5.376-32 11.1616-34.4064l64.0512-9.3184c6.5536-0.9728 12.2368-5.0688 15.2064-11.0592l28.672-58.0608c7.424-15.0016 28.7744-15.0016 36.1472 0l28.672 58.0608a20.21376 20.21376 0 0 0 15.2064 11.0592l64.0512 9.3184c16.4352 2.4064 23.04 22.7328 11.1104 34.4064z" fill="#BD50D3" p-id="4174"></path><path d="M792.1664 366.592c-52.0704-103.9872-159.5392-175.4624-283.7504-175.4624-175.1552 0-317.184 142.0288-317.184 317.184 0 123.3408 70.4512 230.1952 173.312 282.6752 229.9904-11.3152 414.6688-194.8672 427.6224-424.3968zM382.464 448.3584l64.0512-9.3184c6.5536-0.9728 12.2368-5.0688 15.2064-11.0592l28.672-58.0608c7.424-15.0016 28.7744-15.0016 36.1472 0l28.672 58.0608a20.21376 20.21376 0 0 0 15.2064 11.0592l64.0512 9.3184c16.5376 2.4064 23.1424 22.7328 11.1616 34.4064l-46.336 45.2096a20.1216 20.1216 0 0 0-5.7856 17.8688l10.9568 63.7952c2.816 16.4864-14.4896 29.0304-29.2864 21.248l-57.2928-30.1056c-5.888-3.072-12.9024-3.072-18.7904 0l-57.2928 30.1056c-14.7968 7.7824-32.1024-4.7616-29.2864-21.248l10.9568-63.7952a20.1728 20.1728 0 0 0-5.7856-17.8688l-46.336-45.2096c-12.032-11.6736-5.4272-32 11.1104-34.4064z" fill="#BF5CD6" p-id="4175"></path><path d="M508.416 191.1296c-175.1552 0-317.184 142.0288-317.184 317.184 0 43.6224 8.8064 85.248 24.7808 123.0848 0.9216 0 1.8432 0.0512 2.7648 0.0512 70.9632 0 138.0352-16.384 197.7856-45.6192l6.8608-39.9872a20.1728 20.1728 0 0 0-5.7856-17.8688l-46.336-45.2096c-11.9808-11.6736-5.376-32 11.1616-34.4064l64.0512-9.3184c6.5536-0.9728 12.2368-5.0688 15.2064-11.0592l28.672-58.0608c7.424-15.0016 28.7744-15.0016 36.1472 0l28.672 58.0608a20.21376 20.21376 0 0 0 15.2064 11.0592l16.1792 2.3552a448.256 448.256 0 0 0 79.9744-208.0256 315.88864 315.88864 0 0 0-158.1568-42.24z" fill="#CA6EE0" p-id="4176"></path><path d="M194.5088 463.0528c149.3504-29.952 271.9744-133.6832 328.3456-271.5648-4.7616-0.2048-9.5744-0.3584-14.4384-0.3584-159.7952 0-291.9424 118.2208-313.9072 271.9232z" fill="#D786EA" p-id="4177"></path></svg>