<svg class="icon" style="width: 1em;height: 1em;vertical-align: middle;fill: currentColor;overflow: hidden;" viewBox="0 0 1024 1024" version="1.1" xmlns="http://www.w3.org/2000/svg" p-id="5657"><path d="M511.6928 509.696m-450.816 0a450.816 450.816 0 1 0 901.632 0 450.816 450.816 0 1 0-901.632 0Z" fill="#FFF7DC" p-id="5658"></path><path d="M687.616 236.9536v168.704c0 46.8992-38.0416 84.9408-84.9408 84.9408H431.4624c-46.8992 0-84.9408-38.0416-84.9408-84.9408V218.0608h-30.2592c-38.7072 0-70.0928 31.3856-70.0928 70.0928v429.2096c0 38.7072 31.3856 70.0928 70.0928 70.0928h402.2272c38.7072 0 70.0928-31.3856 70.0928-70.0928v-368.128c0-6.7072-2.6624-13.1584-7.3728-17.9712L687.616 236.9536z" fill="#FF8E12" p-id="5659"></path><path d="M408.9344 218.0608v187.5968c0 12.3904 10.0864 22.528 22.528 22.528h171.2128c12.3904 0 22.528-10.0864 22.528-22.528V218.0608H408.9344z m165.1712 180.4288H484.5568c-16.7936 0-30.4128-13.9776-30.4128-31.232 0-17.2544 13.6192-31.232 30.4128-31.232h89.5488c16.7936 0 30.4128 13.9776 30.4128 31.232 0 17.2544-13.6192 31.232-30.4128 31.232z" fill="#FCB138" p-id="5660"></path><path d="M788.5824 349.2352c0-6.7072-2.6624-13.1584-7.3728-17.9712L687.616 236.9536v168.704c0 46.8992-38.0416 84.9408-84.9408 84.9408H431.4624c-46.8992 0-84.9408-38.0416-84.9408-84.9408V218.0608h-30.2592c-38.7072 0-70.0928 31.3856-70.0928 70.0928v429.2096c0 38.7072 31.3856 70.0928 70.0928 70.0928h136.7552c152.0128-27.4432 277.5552-131.072 335.5648-269.9776V349.2352z" fill="#FCA315" p-id="5661"></path><path d="M246.1184 634.5216c0.9728 0 1.9968 0.0512 2.9696 0.0512 130.4064 0 247.9104-55.3984 330.24-143.9744H431.4624c-46.8992 0-84.9408-38.0416-84.9408-84.9408V218.0608h-30.2592c-38.7072 0-70.0928 31.3856-70.0928 70.0928v346.368zM695.7568 245.1456l-8.1408-8.192v51.712c3.3792-14.2336 6.144-28.7744 8.1408-43.52z" fill="#FCB138" p-id="5662"></path><path d="M348.1088 421.9392c-1.024-5.2736-1.5872-10.7008-1.5872-16.2816V218.0608h-30.2592c-38.7072 0-70.0928 31.3856-70.0928 70.0928v173.2096c35.84-9.0112 70.0416-22.3744 101.9392-39.424zM408.9344 382.7712a452.36224 452.36224 0 0 0 133.888-164.7104H408.9344v164.7104z" fill="#FFC65E" p-id="5663"></path></svg>