<svg class="icon" style="width: 1em;height: 1em;vertical-align: middle;fill: currentColor;overflow: hidden;" viewBox="0 0 1024 1024" version="1.1" xmlns="http://www.w3.org/2000/svg" p-id="3946"><path d="M509.184 519.8336m-450.816 0a450.816 450.816 0 1 0 901.632 0 450.816 450.816 0 1 0-901.632 0Z" fill="#E9ECFF" p-id="3947"></path><path d="M346.9312 786.5344H256.9728c-16.64 0-30.1568-13.5168-30.1568-30.1568v-412.672c0-16.64 13.5168-30.1568 30.1568-30.1568h89.9584c16.64 0 30.1568 13.5168 30.1568 30.1568v412.672c0 16.64-13.5168 30.1568-30.1568 30.1568z" fill="#757BF2" p-id="3948"></path><path d="M765.1328 226.4064H445.0816c-13.4656 0-24.3712 10.9056-24.3712 24.3712v512.6656c0 13.4656 10.9056 24.3712 24.3712 24.3712h320.1024c13.4656 0 24.3712-10.9056 24.3712-24.3712V250.7776c0-13.4656-10.9568-24.3712-24.4224-24.3712z m-71.2192 466.432h-181.504v-61.7984h181.504v61.7984z m0-158.0544h-181.504V472.9856h181.504v61.7984z m0-158.1056h-181.504V314.88h181.504v61.7984z" fill="#6C6CEA" p-id="3949"></path><path d="M789.5552 503.3472V250.7776c0-13.4656-10.9056-24.3712-24.3712-24.3712H445.0816c-13.4656 0-24.3712 10.9056-24.3712 24.3712v512.6656c0 13.4656 10.9056 24.3712 24.3712 24.3712h45.312c64.4096-18.8416 122.88-51.6608 171.8784-94.976h-149.8624v-61.7984h181.504v30.9248a450.75968 450.75968 0 0 0 95.6416-158.6176zM512.4096 314.88h181.504v61.7984h-181.504V314.88z m0 219.904V472.9856h181.504v61.7984h-181.504z" fill="#757BF2" p-id="3950"></path><path d="M346.9312 313.5488H256.9728c-16.64 0-30.1568 13.5168-30.1568 30.1568v301.8752c4.5056 0.1536 9.0624 0.2048 13.568 0.2048 47.6672 0 93.5936-7.424 136.704-21.1456V343.7056c0-16.64-13.5168-30.1568-30.1568-30.1568z" fill="#8486F8" p-id="3951"></path><path d="M346.9312 313.5488H256.9728c-16.64 0-30.1568 13.5168-30.1568 30.1568V475.136a448.27648 448.27648 0 0 0 150.272-64.6144V343.7056c0-16.64-13.5168-30.1568-30.1568-30.1568z" fill="#8D92F8" p-id="3952"></path><path d="M420.6592 250.7776v357.4784c42.496-18.5344 81.5616-43.4688 116.0192-73.5232h-24.2688V472.9856h82.944c23.04-29.3888 42.496-61.696 57.7536-96.3072h-140.6464V314.88h162.6624a450.07872 450.07872 0 0 0 15.0528-88.4736H445.0816a24.3712 24.3712 0 0 0-24.4224 24.3712z" fill="#8486F8" p-id="3953"></path><path d="M420.6592 250.7776v126.6688a452.9664 452.9664 0 0 0 114.7904-151.0912H445.0816a24.45312 24.45312 0 0 0-24.4224 24.4224z" fill="#8D92F8" p-id="3954"></path></svg>