<svg class="icon" style="width: 1em;height: 1em;vertical-align: middle;fill: currentColor;overflow: hidden;" viewBox="0 0 1024 1024" version="1.1" xmlns="http://www.w3.org/2000/svg" p-id="3329"><path d="M509.1328 519.8336m-450.816 0a450.816 450.816 0 1 0 901.632 0 450.816 450.816 0 1 0-901.632 0Z" fill="#E9F4FF" p-id="3330"></path><path d="M751.0528 296.704c-58.4192-1.6384-171.4688-10.752-227.584-55.5008-12.7488-10.1888-30.464-11.264-44.2368-2.5088-36.0448 22.8864-108.9024 60.5184-203.264 64.6656-20.4288 0.9216-36.608 17.5104-36.608 37.9392 0 143.36 0.1536 139.6224 0.1536 177.3568 0 40.1408-10.24 229.1712 257.1776 329.728 9.6256 3.6352 20.1728 4.1984 29.696 0.256 221.0816-91.0336 261.4272-186.9824 261.4272-298.0864V334.6432a37.888 37.888 0 0 0-36.7616-37.9392z m-148.48 245.76h-53.0944v53.0944c0 19.8144-16.0256 35.84-35.84 35.84s-35.84-16.0256-35.84-35.84v-53.0944H424.704c-19.8144 0-35.84-16.0256-35.84-35.84s16.0256-35.84 35.84-35.84h53.0944V417.6384c0-19.8144 16.0256-35.84 35.84-35.84s35.84 16.0256 35.84 35.84v53.0944h53.0944c19.8144 0 35.84 16.0256 35.84 35.84s-16.0256 35.8912-35.84 35.8912z" fill="#2595E8" p-id="3331"></path><path d="M787.8656 440.576V334.6432c0-20.5312-16.2816-37.376-36.8128-37.9392-58.4192-1.6384-171.4688-10.752-227.584-55.5008-12.7488-10.1888-30.464-11.264-44.2368-2.5088-36.0448 22.8864-108.9024 60.5184-203.264 64.6656-20.4288 0.9216-36.608 17.5104-36.608 37.9392 0 143.36 0.1536 139.6224 0.1536 177.3568 0 30.8224-6.0416 149.248 111.9232 248.1152 6.656 0.3072 13.312 0.512 20.0192 0.512 201.6768 0.0512 370.688-139.2128 416.4096-326.7072z m-185.2928 101.888h-53.0944v53.0944c0 19.8144-16.0256 35.84-35.84 35.84s-35.84-16.0256-35.84-35.84v-53.0944H424.704c-19.8144 0-35.84-16.0256-35.84-35.84s16.0256-35.84 35.84-35.84h53.0944V417.6384c0-19.8144 16.0256-35.84 35.84-35.84s35.84 16.0256 35.84 35.84v53.0944h53.0944c19.8144 0 35.84 16.0256 35.84 35.84s-16.0256 35.8912-35.84 35.8912z" fill="#3A9CED" p-id="3332"></path><path d="M523.4688 241.2544c-12.7488-10.1888-30.464-11.264-44.2368-2.5088-36.0448 22.8864-108.9024 60.5184-203.264 64.6656-20.4288 0.9216-36.608 17.5104-36.608 37.9392 0 143.36 0.1536 139.6224 0.1536 177.3568 0 15.1552-1.4336 51.5072 11.1104 96.3072 1.2288 0 2.4064 0.1024 3.6352 0.1024 81.92 0 158.4128-22.9888 223.488-62.8736v-9.7792H424.704c-19.8144 0-35.84-16.0256-35.84-35.84s16.0256-35.84 35.84-35.84h53.0944V417.6384c0-19.8144 16.0256-35.84 35.84-35.84s35.84 16.0256 35.84 35.84v53.0944h25.4464c45.056-50.7904 78.2336-112.2816 95.1808-180.2752-52.7872-6.8608-111.104-20.8896-146.6368-49.2032z" fill="#59ADF8" p-id="3333"></path><path d="M522.5472 240.5888c-12.6976-9.5232-29.7984-10.3936-43.264-1.8944-36.0448 22.8864-108.9024 60.5184-203.264 64.6656-20.4288 0.9216-36.608 17.5104-36.608 37.9392 0 56.0128 0.0512 89.4976 0.0512 111.872 122.0608-26.9824 224.6144-105.9328 283.0848-212.5824z" fill="#6BC2FC" p-id="3334"></path></svg>