<svg class="icon" style="width: 1em;height: 1em;vertical-align: middle;fill: currentColor;overflow: hidden;" viewBox="0 0 1024 1024" version="1.1" xmlns="http://www.w3.org/2000/svg" p-id="1412"><path d="M510.5152 510.8224m-450.816 0a450.816 450.816 0 1 0 901.632 0 450.816 450.816 0 1 0-901.632 0Z" fill="#FFE3DB" p-id="1413"></path><path d="M421.376 809.1136h196.1472c57.2416 0 151.7568-47.2576 151.7568-151.7568S682.6496 412.16 510.8736 412.16 252.416 561.408 252.416 673.0752c0 99.8912 75.8784 136.0384 168.96 136.0384z" fill="#F23D4F" p-id="1414"></path><path d="M379.6992 295.7312m-81.0496 0a81.0496 81.0496 0 1 0 162.0992 0 81.0496 81.0496 0 1 0-162.0992 0Z" fill="#FF716E" p-id="1415"></path><path d="M227.4304 442.4704m-62.2592 0a62.2592 62.2592 0 1 0 124.5184 0 62.2592 62.2592 0 1 0-124.5184 0Z" fill="#FF716E" p-id="1416"></path><path d="M636.2624 295.7312m-81.0496 0a81.0496 81.0496 0 1 0 162.0992 0 81.0496 81.0496 0 1 0-162.0992 0Z" fill="#FC4956" p-id="1417"></path><path d="M793.6512 442.4704m-62.2592 0a62.2592 62.2592 0 1 0 124.5184 0 62.2592 62.2592 0 1 0-124.5184 0Z" fill="#F23D4F" p-id="1418"></path><path d="M731.392 442.4704c0 20.48 9.9328 38.6048 25.1904 49.92a453.12512 453.12512 0 0 0 9.472-92.3136c0-4.4544-0.1024-8.8576-0.2048-13.2608-20.4288 10.24-34.4576 31.2832-34.4576 55.6544zM741.0176 548.5056c-38.1952-73.1648-114.9952-136.3968-230.1952-136.3968-171.8272 0-258.4576 149.248-258.4576 260.9664 0 99.8912 75.8784 136.0384 168.96 136.0384h83.6608c109.9776-51.0976 195.7888-145.152 236.032-260.608z" fill="#FC4956" p-id="1419"></path><path d="M555.2128 295.7312c0 39.8848 28.8768 73.0112 66.816 79.7184a450.26816 450.26816 0 0 0 20.0192-160.512c-1.9456-0.1536-3.84-0.3072-5.7856-0.3072-44.8 0.0512-81.0496 36.352-81.0496 81.1008zM602.1632 427.1616c-27.1872-9.5232-57.5488-15.0016-91.3408-15.0016-171.8272 0-258.4576 149.248-258.4576 260.9664 0 4.7104 0.2048 9.216 0.5632 13.6192 155.7504-21.1456 286.2592-121.7024 349.2352-259.584z" fill="#FF5C64" p-id="1420"></path></svg>