<svg class="icon" style="width: 1em;height: 1em;vertical-align: middle;fill: currentColor;overflow: hidden;" viewBox="0 0 1024 1024" version="1.1" xmlns="http://www.w3.org/2000/svg" p-id="6108"><path d="M507.1872 510.1568m-450.816 0a450.816 450.816 0 1 0 901.632 0 450.816 450.816 0 1 0-901.632 0Z" fill="#FFF1DC" p-id="6109"></path><path d="M237.312 699.4432c-0.4608-41.4208 12.288-68.8128 29.3376-92.6208 34.304-47.872 70.144-94.8736 108.3904-139.5712 23.2448-27.136 55.4496-44.288 89.5488-56.064 50.7392-17.5616 95.4368-0.9216 135.9872 28.1088 70.8608 50.7392 119.3984 120.9344 158.1056 197.0176 34.7648 68.3008-11.008 155.4432-86.0672 172.3904-23.2448 5.2224-44.6976-0.7168-63.1808-14.6944-46.08-34.8672-97.9456-38.7072-151.3984-26.9824-19.9168 4.352-38.7584 16.0768-56.6784 26.7776-38.7072 23.1424-69.7856 22.272-104.96-5.7856-32.0512-25.6-57.0368-55.5008-59.0848-88.576z" fill="#FC7032" p-id="6110"></path><path d="M688.896 311.5008c0 4.1984 0.256 8.448-0.0512 12.5952-3.4304 44.8512-31.1808 67.4304-75.1616 61.2864-47.3088-6.5536-68.2496-35.072-59.392-80.1792 7.2704-36.9152 25.344-67.2768 54.8352-90.4704 22.1696-17.408 40.192-13.824 56.3712 9.3184 18.4832 26.4704 22.272 56.576 23.3984 87.4496z" fill="#FF7C33" p-id="6111"></path><path d="M321.2288 310.6304c1.1776-31.0272 5.4784-61.184 24.1664-87.5008 15.4624-21.8112 35.1232-25.5488 55.3984-8.704 28.1088 23.3984 47.6672 52.2752 54.784 88.9856 9.1136 47.0016-10.9568 75.2128-59.5456 82.0224-44.544 6.2464-72.0896-17.3056-74.752-64-0.2048-3.5328-0.0512-7.168-0.0512-10.8032z" fill="#FFA56A" p-id="6112"></path><path d="M179.5072 454.6048c-0.0512-38.6048 13.9776-49.2032 51.8144-40.2944 23.2448 5.4784 42.1376 16.7936 55.7568 36.6592 10.3936 15.1552 10.9568 30.2592-0.8704 44.7488-16.9472 20.6848-36.4032 38.0416-65.6384 32.6656-20.3264-3.7376-38.8096-34.8672-41.0112-64.768-0.256-2.9696-0.0512-5.9904-0.0512-9.0112z" fill="#FF9552" p-id="6113"></path><path d="M834.304 454.144c-6.656 18.432-11.2128 38.0416-20.5312 54.9888-11.7248 21.4528-32.768 26.5728-54.528 15.2576-21.0432-10.9568-43.4176-23.8592-43.0592-50.9952 0.3584-28.16 22.272-42.3936 45.2096-53.4528 6.4512-3.1232 13.6192-4.9664 20.6336-6.5536 34.304-7.7312 48.9984 4.3008 52.2752 40.7552z" fill="#FC7032" p-id="6114"></path><path d="M744.0896 608.768c-36.2496-65.3824-81.3056-124.9792-143.5136-169.5232-40.5504-29.0304-85.248-45.6704-135.9872-28.1088-34.0992 11.8272-66.3552 28.928-89.5488 56.064-38.2464 44.7488-74.0864 91.7504-108.3904 139.5712-17.0496 23.808-29.7984 51.2-29.3376 92.6208 2.048 33.0752 27.0848 62.976 59.0848 88.5248 35.1744 28.0064 66.2016 28.928 104.96 5.7856 17.92-10.7008 36.7616-22.4256 56.6784-26.7776 36.0448-7.8848 71.424-8.6528 104.7552 2.3552a453.13536 453.13536 0 0 0 181.2992-160.512zM782.0288 413.3888c-7.0144 1.5872-14.1824 3.4304-20.6336 6.5536-22.9376 11.0592-44.9024 25.2928-45.2096 53.4528-0.3072 27.136 22.016 40.0384 43.0592 50.9952 8.8064 4.5568 17.5104 6.4 25.4976 5.632a447.36512 447.36512 0 0 0 28.8768-116.3264c-7.8336-3.2768-18.2272-3.328-31.5904-0.3072z" fill="#FF8345" p-id="6115"></path><path d="M618.1376 452.6592c-5.7344-4.608-11.52-9.1136-17.5616-13.4144-40.5504-29.0304-85.248-45.6704-135.9872-28.1088-34.0992 11.8272-66.3552 28.928-89.5488 56.064-38.2464 44.7488-74.0864 91.7504-108.3904 139.5712-9.984 13.9264-18.4832 29.1328-23.7568 47.6672 156.672-0.1536 294.6048-80.2816 375.2448-201.7792zM665.5488 224.1024c-16.1792-23.1424-34.2016-26.7264-56.3712-9.3184-29.5424 23.1936-47.5648 53.5552-54.8352 90.4704-8.9088 45.1584 12.0832 73.6256 59.392 80.1792 17.2544 2.4064 31.9488 0.3072 43.7248-5.7344 13.2608-31.1808 23.04-64.2048 29.0304-98.5088-2.8672-20.0704-8.6528-39.424-20.9408-57.088z" fill="#FF9552" p-id="6116"></path><path d="M287.0784 450.9696c-13.568-19.8656-32.512-31.232-55.7568-36.6592-37.8368-8.9088-51.8656 1.7408-51.8144 40.2944 0 3.0208-0.2048 6.0416 0.0512 9.0112 0.6656 9.4208 3.0208 18.944 6.4512 27.7504 37.4272-4.7104 73.472-14.08 107.4688-27.392-1.3312-4.3008-3.4304-8.6528-6.4-13.0048z" fill="#FFA56A" p-id="6117"></path></svg>