<svg class="icon" style="width: 1em;height: 1em;vertical-align: middle;fill: currentColor;overflow: hidden;" viewBox="0 0 1024 1024" version="1.1" xmlns="http://www.w3.org/2000/svg" p-id="5492"><path d="M501.76 517.6832m-450.816 0a450.816 450.816 0 1 0 901.632 0 450.816 450.816 0 1 0-901.632 0Z" fill="#FBE1FF" p-id="5493"></path><path d="M501.76 197.2736c-176.6912 0-320.4096 143.7184-320.4096 320.4096S325.0688 838.0928 501.76 838.0928s320.4096-143.7184 320.4096-320.4096S678.4512 197.2736 501.76 197.2736z m162.1504 316.9792l-53.6064 52.2752 12.6464 73.7792c2.4576 14.2848-3.328 28.4672-15.0528 37.0176a37.61664 37.61664 0 0 1-39.8336 2.8672L501.76 645.376l-66.2528 34.816c-5.5808 2.9184-11.6224 4.4032-17.664 4.4032-7.8336 0-15.5648-2.4576-22.2208-7.2704a37.66272 37.66272 0 0 1-15.0528-37.0176l12.6464-73.7792-53.6064-52.2752c-10.3936-10.1376-14.08-24.9856-9.5744-38.7584a37.61664 37.61664 0 0 1 30.5152-25.7536l74.0864-10.752 33.1264-67.1232c6.4-13.0048 19.4048-21.0944 33.9456-21.0944s27.4944 8.0896 33.9456 21.0944l33.1264 67.1232 74.0864 10.752a37.6832 37.6832 0 0 1 30.5664 25.7536c4.5056 13.7728 0.8192 28.672-9.5232 38.7584z" fill="#BD50D3" p-id="5494"></path><path d="M516.9664 480.4096L501.76 449.5872l-15.2064 30.8224a37.80608 37.80608 0 0 1-28.4672 20.6848l-34.048 4.9664 24.6272 23.9616a37.87776 37.87776 0 0 1 10.9056 33.4848l-5.7856 33.8432 30.4128-15.9744c5.4784-2.9184 11.5712-4.352 17.6128-4.352 6.0416 0 12.1344 1.4336 17.664 4.4032l30.3616 15.9744-5.7856-33.8432a37.888 37.888 0 0 1 10.8544-33.4848l24.6272-24.0128-33.9968-4.9152a37.98016 37.98016 0 0 1-28.5696-20.736z" fill="#BF5CD6" p-id="5495"></path><path d="M759.9616 375.9104c0-17.5104-1.0752-34.816-3.072-51.7632C698.3168 247.0912 605.7472 197.2736 501.76 197.2736c-176.6912 0-320.4096 143.7184-320.4096 320.4096 0 131.5328 79.6672 244.736 193.28 294.0416 217.1392-26.5216 385.3312-211.5072 385.3312-435.8144zM330.0864 475.4944a37.61664 37.61664 0 0 1 30.5152-25.7536l74.0864-10.752 33.1264-67.1232c6.4-13.0048 19.4048-21.0944 33.9456-21.0944s27.4944 8.0896 33.9456 21.0944l33.1264 67.1232 74.0864 10.752a37.6832 37.6832 0 0 1 30.5664 25.7536c4.5056 13.7728 0.8192 28.672-9.5744 38.7584l-53.6064 52.2752 12.6464 73.7792c2.4576 14.2848-3.328 28.4672-15.0528 37.0176a37.61664 37.61664 0 0 1-39.8336 2.8672L501.76 645.376l-66.2528 34.816c-5.5808 2.9184-11.6224 4.4032-17.664 4.4032-7.8336 0-15.5648-2.4576-22.2208-7.2704a37.66272 37.66272 0 0 1-15.0528-37.0176l12.6464-73.7792-53.6064-52.2752a37.55008 37.55008 0 0 1-9.5232-38.7584z" fill="#BF5CD6" p-id="5496"></path><path d="M181.3504 517.6832c0 50.6368 11.8784 98.56 32.8704 141.1584 60.5696-1.8432 118.0672-15.9232 170.0352-39.8848l9.0112-52.4288-53.6064-52.2752c-10.3936-10.1376-14.08-24.9856-9.5744-38.7584a37.61664 37.61664 0 0 1 30.5152-25.7536l74.0864-10.752 33.1264-67.1232c6.4-13.0048 19.4048-21.0944 33.9456-21.0944s27.4944 8.0896 33.9456 21.0944l33.1264 67.1232 11.5712 1.6896c36.4544-62.5152 57.856-134.912 59.3408-212.1216a318.60736 318.60736 0 0 0-137.9328-31.2832c-176.7424 0-320.4608 143.7184-320.4608 320.4096z" fill="#CA6EE0" p-id="5497"></path><path d="M457.3696 576.256a440.79616 440.79616 0 0 0 81.92-76.6976 37.7856 37.7856 0 0 1-22.3232-19.2L501.76 449.5872l-15.2064 30.8224a37.80608 37.80608 0 0 1-28.4672 20.6848l-34.048 4.9664 24.6272 23.9616a37.87776 37.87776 0 0 1 10.9056 33.4848l-2.2016 12.7488z" fill="#CA6EE0" p-id="5498"></path><path d="M182.3232 493.9776c154.7776-33.024 279.3472-147.5584 326.5536-296.5504-2.3552-0.0512-4.7616-0.2048-7.1168-0.2048-168.704 0.0512-307.2512 131.1232-319.4368 296.7552z" fill="#D786EA" p-id="5499"></path></svg>