<svg class="icon" style="width: 1em;height: 1em;vertical-align: middle;fill: currentColor;overflow: hidden;" viewBox="0 0 1024 1024" version="1.1" xmlns="http://www.w3.org/2000/svg" p-id="4874"><path d="M510.7712 514.7136m-450.816 0a450.816 450.816 0 1 0 901.632 0 450.816 450.816 0 1 0-901.632 0Z" fill="#FFF1DC" p-id="4875"></path><path d="M746.3424 556.0832h-93.184c-17.152-7.3728-35.072-20.8384-37.376-45.1072-3.7888-40.3968 21.1968-57.6512 28.8256-68.9664a173.11744 173.11744 0 0 0 39.8848-110.7456c0-96-77.824-173.7728-173.7728-173.7728-96 0-173.7728 77.824-173.7728 173.7728 0 36.096 11.008 69.632 29.8496 97.4336l-0.1536 0.2048s0.256 0.256 0.7168 0.6144c7.2704 10.5984 15.6672 20.3264 25.0368 29.0304 9.9328 15.0016 18.176 33.9968 14.592 53.1456-5.0176 26.624-27.2384 39.0656-45.9264 44.4928H275.2c-27.4944 0-49.8176 22.3232-49.8176 49.8176v138.3424c0 27.4944 22.3232 49.8176 49.8176 49.8176h471.0912c27.4944 0 49.8176-22.3232 49.8176-49.8176v-138.3424c0.0512-27.5968-22.272-49.92-49.7664-49.92zM673.28 739.84H348.2624a33.28 33.28 0 1 1 0-66.56h325.0688c18.3808 0 33.28 14.8992 33.28 33.28s-14.9504 33.28-33.3312 33.28z" fill="#FC7032" p-id="4876"></path><path d="M746.3424 556.0832h-93.184c-17.152-7.3728-35.072-20.8384-37.376-45.1072-3.7888-40.3968 21.1968-57.6512 28.8256-68.9664a173.11744 173.11744 0 0 0 39.8848-110.7456c0-96-77.824-173.7728-173.7728-173.7728-96 0-173.7728 77.824-173.7728 173.7728 0 36.096 11.008 69.632 29.8496 97.4336l-0.1536 0.2048s0.256 0.256 0.7168 0.6144c7.2704 10.5984 15.6672 20.3264 25.0368 29.0304 9.9328 15.0016 18.176 33.9968 14.592 53.1456-5.0176 26.624-27.2384 39.0656-45.9264 44.4928H275.2c-27.4944 0-49.8176 22.3232-49.8176 49.8176v138.3424c0 27.4944 22.3232 49.8176 49.8176 49.8176h243.8656a450.99008 450.99008 0 0 0 96.5632-54.272H348.2624a33.28 33.28 0 1 1 0-66.56h325.0688c4.4032 0 8.6528 0.8704 12.4928 2.4576 30.8224-34.7648 56.32-74.2912 75.3152-117.4016-4.7104-1.4848-9.6768-2.304-14.7968-2.304z" fill="#FF7E3E" p-id="4877"></path><path d="M672.8704 268.8c-25.088-65.0752-88.2176-111.3088-162.1504-111.3088-96 0-173.7728 77.824-173.7728 173.7728 0 36.096 11.008 69.632 29.8496 97.4336l-0.1536 0.2048s0.256 0.256 0.7168 0.6144c7.2704 10.5984 15.6672 20.3264 25.0368 29.0304 9.9328 15.0016 18.176 33.9968 14.592 53.1456-5.0176 26.624-27.2384 39.0656-45.9264 44.4928H275.2c-27.4944 0-49.8176 22.3232-49.8176 49.8176v61.5424c231.2192-0.2048 421.6832-174.4384 447.488-398.7456z" fill="#FF9552" p-id="4878"></path><path d="M550.1952 162.048c-12.6976-2.9696-25.9072-4.5568-39.4752-4.5568-96 0-173.7728 77.824-173.7728 173.7728 0 36.096 11.008 69.632 29.8496 97.4336l-0.1536 0.2048 0.0512 0.0512c90.5728-62.3104 157.2352-156.7744 183.5008-266.9056z" fill="#FFA56A" p-id="4879"></path></svg>