<svg class="icon" style="width: 1em;height: 1em;vertical-align: middle;fill: currentColor;overflow: hidden;" viewBox="0 0 1024 1024" version="1.1" xmlns="http://www.w3.org/2000/svg" p-id="5560"><path d="M509.9008 509.5936m-450.816 0a450.816 450.816 0 1 0 901.632 0 450.816 450.816 0 1 0-901.632 0Z" fill="#FBE1FF" p-id="5561"></path><path d="M764.3136 420.4544c-8.6016-127.3344-117.0944-228.352-249.1904-228.352-131.584 0-239.616 100.1472-249.088 226.7136-35.3792 15.104-60.2624 50.2272-60.2624 91.0848v101.5808c0 54.5792 44.3904 98.9696 98.9696 98.9696h38.144c19.8144 0 35.84-16.0256 35.84-35.84v-227.84c0-19.8144-16.0256-35.84-35.84-35.84h-3.9424c12.9024-83.1488 86.9888-147.1488 176.128-147.1488 89.1904 0 163.2256 63.9488 176.1792 147.1488h-7.2192c-19.8144 0-35.84 16.0256-35.84 35.84v227.84c0 12.9536 6.912 24.2688 17.2032 30.5664-23.3984 22.7328-60.6208 48.6912-113.2032 56.1152a37.93408 37.93408 0 0 0-22.6816-7.5264h-26.112a38.1952 38.1952 0 0 0 0 76.3904h26.112c11.3152 0 21.4528-4.9664 28.4672-12.8 99.9424-13.056 156.928-78.4896 177.8176-107.9808 48.128-6.7072 85.2992-47.9744 85.2992-97.9456V509.9008c0.1024-39.4752-23.2448-73.5744-56.7808-89.4464z" fill="#BD50D3" p-id="5562"></path><path d="M818.0736 485.4272c-7.3728-28.7744-27.3408-52.48-53.7088-64.9728-8.6016-127.3344-117.0944-228.352-249.1904-228.352-131.584 0-239.616 100.1472-249.088 226.7136-35.3792 15.104-60.2624 50.2272-60.2624 91.0848v101.5808c0 54.5792 44.3904 98.9696 98.9696 98.9696h38.144c19.8144 0 35.84-16.0256 35.84-35.84v-227.84c0-19.8144-16.0256-35.84-35.84-35.84h-3.9936c12.9024-83.1488 86.9888-147.1488 176.128-147.1488 89.1904 0 163.2256 63.9488 176.1792 147.1488h-7.2192c-19.8144 0-35.84 16.0256-35.84 35.84v227.84c0 4.7104 0.9216 9.1648 2.56 13.2608 74.0352-49.1008 132.7104-119.5008 167.3216-202.4448z" fill="#BF5CD6" p-id="5563"></path><path d="M515.1232 192.1024c-131.584 0-239.616 100.1472-249.088 226.7136-35.3792 15.104-60.2624 50.2272-60.2624 91.0848v86.9888c23.6544 3.84 47.9744 5.888 72.704 5.888 34.4576 0 67.9936-3.8912 100.2496-11.2128V446.7712c0-19.8144-16.0256-35.84-35.84-35.84h-3.9424c12.9024-83.1488 86.9888-147.1488 176.128-147.1488 71.3728 0 133.0176 40.96 161.4336 99.9424a449.90976 449.90976 0 0 0 33.2288-80.128c-45.824-55.7056-116.0192-91.4944-194.6112-91.4944z" fill="#CA6EE0" p-id="5564"></path><path d="M515.1232 263.7824c3.2768 0 6.5024 0.1024 9.7792 0.3072 15.7696-20.8896 29.7984-43.1616 41.8304-66.6624-16.64-3.4304-33.8944-5.3248-51.6096-5.3248-131.584 0-239.616 100.1472-249.088 226.7136-10.5984 4.5056-20.224 10.8544-28.5696 18.5856a448.4864 448.4864 0 0 0 101.9392-29.1328c14.08-81.8688 87.5008-144.4864 175.7184-144.4864z" fill="#D786EA" p-id="5565"></path></svg>