<svg class="icon" style="width: 1em;height: 1em;vertical-align: middle;fill: currentColor;overflow: hidden;" viewBox="0 0 1024 1024" version="1.1" xmlns="http://www.w3.org/2000/svg" p-id="2824"><path d="M509.1328 513.1264m-450.816 0a450.816 450.816 0 1 0 901.632 0 450.816 450.816 0 1 0-901.632 0Z" fill="#FBE1FF" p-id="2825"></path><path d="M801.8432 473.5488c-38.0416-16.7424-77.2096 6.4512-85.6064 46.336-8.6528 41.4208-6.2976 69.0176-6.2976 69.0176s-67.584-35.7376-198.5024-35.7376-198.2464 32.1024-198.2464 32.1024 0.512-55.1936-10.496-79.4112c-11.0592-24.1664-33.8944-51.4048-78.592-35.6352-44.6976 15.7696-37.9904 70.6048-18.5344 95.8464s26.1632 44.9536 27.2384 60.7232c0.6656 10.0864 2.6112 57.9072 3.9424 96.256 0.7168 20.1728 16.4864 36.352 36.2496 37.888v26.7776c0 8.4992 6.912 15.36 15.36 15.36h44.9536c8.4992 0 15.36-6.912 15.36-15.36v-26.624h326.9632v26.624c0 8.4992 6.8608 15.36 15.36 15.36h44.9536c8.4992 0 15.36-6.912 15.36-15.36v-27.0336c19.2-2.6112 34.048-19.0976 34.048-39.0144v-86.9888c0-27.8528 17.3568-62.0544 35.2256-85.7088 17.92-23.7056 10.1888-62.6688-18.7392-75.4176z" fill="#BD50D3" p-id="2826"></path><path d="M345.2416 530.0224s82.5856-25.2416 164.608-25.2416 169.3184 28.928 169.3184 28.928-6.8608-77.312 75.7248-104.6528c0-80.9984 1.0752-211.9168-236.6464-211.9168-237.6704 0-236.1344 154.0608-242.432 201.4208 17.92 7.8336 73.2672 52.992 69.4272 111.4624z" fill="#C65EDB" p-id="2827"></path><path d="M716.2368 519.8848c-8.6528 41.4208-6.2976 69.0176-6.2976 69.0176s-67.584-35.7376-198.5024-35.7376-198.2464 32.1024-198.2464 32.1024 0.512-55.1936-10.496-79.4112c-11.0592-24.1664-33.8944-51.4048-78.592-35.6352-44.6976 15.7696-37.9904 70.6048-18.5344 95.8464s26.1632 44.9536 27.2384 60.7232c0.6656 10.0864 2.6112 57.9072 3.9424 96.256 0.7168 20.1728 16.4864 36.352 36.2496 37.888v26.7776c0 8.4992 6.8608 15.36 15.36 15.36h44.9536c8.4992 0 15.36-6.8608 15.36-15.36v-26.624h237.2608c99.328-66.304 170.8544-171.008 193.3312-292.9152-29.8496-1.4336-56.32 19.7632-63.0272 51.712z" fill="#C65EDB" p-id="2828"></path><path d="M275.8656 418.5088c17.8688 7.8848 73.216 53.0432 69.4272 111.4624 0 0 82.5856-25.2416 164.608-25.2416 18.0736 0 36.4544 1.4336 54.016 3.584 59.0848-73.3696 95.6416-165.5808 99.2768-266.24-34.0992-15.5136-80.7936-25.0368-144.896-25.0368-237.7216 0.1024-236.1344 154.1632-242.432 201.472z" fill="#CA6EE0" p-id="2829"></path><path d="M511.4368 553.1648c-130.9184 0-198.2464 32.1024-198.2464 32.1024s0.512-55.1936-10.496-79.4112c-11.0592-24.1664-33.8944-51.4048-78.592-35.6352-44.6976 15.7696-37.9904 70.6048-18.5344 95.8464s26.1632 44.9536 27.2384 60.7232c0.4096 6.0928 1.28 26.0096 2.2016 49.2544 111.2064-5.4272 211.8144-51.0976 287.5392-122.7776-3.6864-0.1024-7.3728-0.1024-11.1104-0.1024z" fill="#CA6EE0" p-id="2830"></path><path d="M518.2464 217.1392c-237.6704 0-236.1344 154.0608-242.432 201.4208 9.4208 4.1472 29.3376 18.7392 45.4144 40.1408 93.6448-53.0944 166.4-138.7008 202.9056-241.5104-1.9456-0.0512-3.8912-0.0512-5.888-0.0512zM282.7776 478.1056c-13.2608-11.4176-32.1024-17.3056-58.7264-7.936-19.5584 6.912-29.2864 21.248-32.3584 37.376a446.6176 446.6176 0 0 0 91.0848-29.44z" fill="#D786EA" p-id="2831"></path></svg>