<svg class="icon" style="width: 1em;height: 1em;vertical-align: middle;fill: currentColor;overflow: hidden;" viewBox="0 0 1024 1024" version="1.1" xmlns="http://www.w3.org/2000/svg" p-id="1994"><path d="M504.32 519.8336m-450.816 0a450.816 450.816 0 1 0 901.632 0 450.816 450.816 0 1 0-901.632 0Z" fill="#FFE1E9" p-id="1995"></path><path d="M693.4528 215.1424H320.3072c-31.7952 0-57.6 25.8048-57.6 57.6V347.648h488.2944V272.7424c0.0512-31.7952-25.7536-57.6-57.5488-57.6z m-140.1856 101.0176a26.9312 26.9312 0 1 1 26.9312-26.9312c0 14.848-12.0832 26.9312-26.9312 26.9312z m100.7104 0a26.9312 26.9312 0 0 1 0-53.8624c14.8992 0 26.9312 12.032 26.9312 26.9312 0 14.848-12.032 26.9312-26.9312 26.9312zM506.88 469.6064c-64.8704 0-117.6576 52.7872-117.6576 117.6576S442.0096 704.9216 506.88 704.9216s117.6576-52.7872 117.6576-117.6576c0-64.9216-52.7872-117.6576-117.6576-117.6576z m0 207.5648c-49.5616 0-89.9072-40.3456-89.9072-89.9072S457.3184 497.3568 506.88 497.3568s89.9072 40.3456 89.9072 89.9072-40.3456 89.9072-89.9072 89.9072z" fill="#FF4D7C" p-id="1996"></path><path d="M262.7072 387.5328v377.6c0 31.7952 25.8048 57.6 57.6 57.6h373.0944c31.7952 0 57.6-25.8048 57.6-57.6V387.5328H262.7072zM506.88 744.8064c-86.8864 0-157.5936-70.7072-157.5936-157.5936S419.9936 429.6704 506.88 429.6704s157.5936 70.7072 157.5936 157.5936-70.7072 157.5424-157.5936 157.5424z" fill="#FF3369" p-id="1997"></path><path d="M506.88 537.2416c-27.5456 0-49.9712 22.4256-49.9712 49.9712s22.4256 49.9712 49.9712 49.9712 49.9712-22.4256 49.9712-49.9712-22.4256-49.9712-49.9712-49.9712z" fill="#FF4D7C" p-id="1998"></path><path d="M751.0528 387.5328H262.7072v377.6c0 14.6944 5.5296 28.0064 14.5408 38.1952 14.6944 1.4336 29.5936 2.2016 44.6976 2.2016 90.7776 0 175.3088-26.88 246.0672-73.0624A156.86656 156.86656 0 0 1 506.88 744.8064c-86.8864 0-157.5936-70.7072-157.5936-157.5936S419.9936 429.6704 506.88 429.6704s157.5936 70.7072 157.5936 157.5936c0 34.5088-11.1616 66.4576-30.0544 92.416a450.93888 450.93888 0 0 0 116.6336-186.368V387.5328z" fill="#FF4D7C" p-id="1999"></path><path d="M634.9824 308.2752a26.7264 26.7264 0 0 1-7.936-19.0464c0-11.3664 7.0656-21.0432 17.0496-24.9856 2.5088-16.0768 4.1472-32.4608 4.864-49.1008H320.3072c-31.7952 0-57.6 25.8048-57.6 57.6V347.648h360.0384c4.6592-12.8512 8.7552-25.9584 12.2368-39.3728z m-81.7152 7.8848c-14.8992 0-26.9312-12.032-26.9312-26.9312 0-14.8992 12.032-26.9312 26.9312-26.9312 14.848 0 26.9312 12.032 26.9312 26.9312 0 14.848-12.0832 26.9312-26.9312 26.9312zM389.2224 587.264c0 5.2736 0.3584 10.4448 1.0752 15.5136a454.144 454.144 0 0 0 26.7776-13.7216c0-0.6144-0.1024-1.1776-0.1024-1.792 0-49.5616 40.3456-89.9072 89.9072-89.9072 7.936 0 15.616 1.1264 22.9888 3.072 6.8096-7.3728 13.3632-14.9504 19.6608-22.784A116.76672 116.76672 0 0 0 506.88 469.6064c-64.8704 0-117.6576 52.736-117.6576 117.6576z" fill="#FF5F89" p-id="2000"></path><path d="M262.7072 640.8704c31.0272-4.4032 61.0304-11.9808 89.7024-22.3744-2.048-10.0864-3.1232-20.5824-3.1232-31.232 0-86.8864 70.7072-157.5936 157.5936-157.5936 23.9104 0 46.592 5.376 66.9184 14.9504 12.1344-18.1248 22.9376-37.2224 32.3584-57.088H262.7072v253.3376z" fill="#FF5F89" p-id="2001"></path><path d="M498.6368 215.1424H320.3072c-31.7952 0-57.6 25.8048-57.6 57.6V347.648h147.3024a450.69312 450.69312 0 0 0 88.6272-132.5056zM262.7072 449.5872c37.4272-16.0256 72.192-37.0176 103.5776-62.0544H262.7072v62.0544z" fill="#FF7196" p-id="2002"></path></svg>