<svg class="icon" style="width: 1em;height: 1em;vertical-align: middle;fill: currentColor;overflow: hidden;" viewBox="0 0 1024 1024" version="1.1" xmlns="http://www.w3.org/2000/svg" p-id="5771"><path d="M507.1872 516.4544m-450.816 0a450.816 450.816 0 1 0 901.632 0 450.816 450.816 0 1 0-901.632 0Z" fill="#E9F4FF" p-id="5772"></path><path d="M509.4912 184.2176c-181.8624 0-329.3184 147.456-329.3184 329.3184s147.456 329.3184 329.3184 329.3184 329.3184-147.456 329.3184-329.3184-147.456-329.3184-329.3184-329.3184z m162.1504 212.3776l-90.7264 283.6992c-5.7856 18.1248-22.2208 30.0544-41.1136 30.0544h-1.1776c-19.4048-0.512-35.7376-13.4656-40.6528-32.2048l-32.8192-124.9792-128.8192-34.7648c-18.5856-5.0176-31.4368-21.2992-31.9488-40.5504a43.01824 43.01824 0 0 1 29.6448-42.24l282.9312-93.2352c15.5136-5.12 32.3584-1.1264 43.9296 10.3424a43.04384 43.04384 0 0 1 10.752 43.8784z" fill="#2595E8" p-id="5773"></path><path d="M492.5952 495.2576c14.8992 4.0448 26.624 15.8208 30.5152 30.72l18.4832 70.3488 58.2144-181.9648-183.296 60.3648 76.0832 20.5312z" fill="#2595E8" p-id="5774"></path><path d="M180.1728 513.536c0 135.8336 82.2272 252.416 199.6288 302.7456 200.192-41.1648 350.7712-218.368 350.7712-430.7456 0-46.4384-7.2192-91.1872-20.5312-133.1712-55.552-42.7008-125.0304-68.1472-200.5504-68.1472-181.8624 0-329.3184 147.456-329.3184 329.3184z m480.7168-160.768a43.08992 43.08992 0 0 1 10.752 43.8272l-90.7264 283.6992c-5.7856 18.1248-22.2208 30.0544-41.1136 30.0544h-1.1776c-19.4048-0.512-35.7376-13.4656-40.6528-32.2048l-32.8192-124.9792-128.8192-34.7648c-18.5856-5.0176-31.4368-21.2992-31.9488-40.5504a43.01824 43.01824 0 0 1 29.6448-42.24l282.9312-93.2352c15.5136-5.12 32.3584-1.1264 43.9296 10.3936z" fill="#3A9CED" p-id="5775"></path><path d="M180.1728 513.536c0 55.2448 13.6704 107.3152 37.7344 153.0368 94.8736-10.1888 180.736-50.4832 247.808-111.2576l-0.6144-2.2528-128.8192-34.7648c-18.5856-5.0176-31.4368-21.2992-31.9488-40.5504a43.01824 43.01824 0 0 1 29.6448-42.24l259.4816-85.504a440.7808 440.7808 0 0 0 15.7696-150.4768 329.45152 329.45152 0 0 0-99.7888-15.4112c-181.8112 0.1024-329.2672 147.5584-329.2672 329.4208z" fill="#59ADF8" p-id="5776"></path><path d="M416.512 474.7776l76.0832 20.5312c7.424 1.9968 14.08 5.9392 19.3536 11.264a438.91712 438.91712 0 0 0 51.9168-80.3328l-147.3536 48.5376z" fill="#59ADF8" p-id="5777"></path><path d="M180.5824 496.7424c148.9408-42.3936 265.5744-161.3312 304.7936-311.552-165.0688 11.9296-296.448 145.5104-304.7936 311.552z" fill="#6BC2FC" p-id="5778"></path></svg>