<svg class="icon" style="width: 1em;height: 1em;vertical-align: middle;fill: currentColor;overflow: hidden;" viewBox="0 0 1024 1024" version="1.1" xmlns="http://www.w3.org/2000/svg" p-id="5528"><path d="M505.088 519.8336m-450.816 0a450.816 450.816 0 1 0 901.632 0 450.816 450.816 0 1 0-901.632 0Z" fill="#E9F4FF" p-id="5529"></path><path d="M677.8368 358.2464h86.5792l-127.744-142.2848v103.3728c0 21.4528 18.4832 38.912 41.1648 38.912z" fill="#39A5E9" p-id="5530"></path><path d="M677.8368 424.8064c-59.392 0-107.6736-47.3088-107.6736-105.472v-115.712H370.8416c-63.5392 0-115.2512 51.712-115.2512 115.2512v395.776c0 63.5392 51.712 115.2512 115.2512 115.2512h298.5472c63.5392 0 115.2512-51.712 115.2512-115.2512V424.8064h-106.8032zM399.2576 365.1584h121.3952a33.28 33.28 0 1 1 0 66.56H399.2576a33.28 33.28 0 1 1 0-66.56z m239.616 321.8944h-239.616a33.28 33.28 0 1 1 0-66.56h239.616a33.28 33.28 0 1 1 0 66.56z m0-127.6928h-239.616a33.28 33.28 0 1 1 0-66.56h239.616a33.28 33.28 0 1 1 0 66.56z" fill="#3A9CED" p-id="5531"></path><path d="M784.5888 439.1936v-14.3872h-106.8032c-59.392 0-107.6736-47.3088-107.6736-105.472v-115.712H370.8416c-63.5392 0-115.2512 51.712-115.2512 115.2512v395.776c0 45.5168 26.5216 84.8896 64.8704 103.6288 6.2976 0.256 12.5952 0.4096 18.944 0.4096 224.7168 0 411.0336-164.4032 445.184-379.4944zM399.2576 365.1584h121.3952a33.28 33.28 0 1 1 0 66.56H399.2576a33.28 33.28 0 1 1 0-66.56z m0 127.6416h239.616a33.28 33.28 0 1 1 0 66.56h-239.616a33.28 33.28 0 1 1 0-66.56z m0 194.2528a33.28 33.28 0 1 1 0-66.56h239.616a33.28 33.28 0 1 1 0 66.56h-239.616z" fill="#39A5E9" p-id="5532"></path><path d="M377.088 628.992a32.91136 32.91136 0 0 1 20.48-8.3968c36.3008-15.9744 70.144-36.6592 100.6592-61.184H399.2576a33.28 33.28 0 1 1 0-66.56h166.0928a451.072 451.072 0 0 0 54.6304-84.6336c-29.952-18.7392-49.8688-51.5072-49.8688-88.832V203.6224H370.8416c-63.5392 0-115.2512 51.712-115.2512 115.2512v337.9712a449.8432 449.8432 0 0 0 121.4976-27.8528z m22.1696-263.8336h121.3952a33.28 33.28 0 1 1 0 66.56H399.2576a33.28 33.28 0 1 1 0-66.56zM636.672 215.9616v103.3728c0 9.3184 3.4816 17.8688 9.2672 24.576 9.728-30.7712 16.2304-63.0272 19.1488-96.256l-28.416-31.6928z" fill="#55B5F3" p-id="5533"></path><path d="M368.896 412.0576c-1.8944-4.1472-2.9696-8.7552-2.9696-13.6704a33.28 33.28 0 0 1 33.28-33.28h24.064a451.3792 451.3792 0 0 0 102.7072-161.4848h-155.136c-63.5392 0-115.2512 51.712-115.2512 115.2512v153.6a448.37376 448.37376 0 0 0 113.3056-60.416z" fill="#6BC2FC" p-id="5534"></path></svg>