<svg class="icon" style="width: 1em;height: 1em;vertical-align: middle;fill: currentColor;overflow: hidden;" viewBox="0 0 1024 1024" version="1.1" xmlns="http://www.w3.org/2000/svg" p-id="5379"><path d="M508.416 513.1264m-450.816 0a450.816 450.816 0 1 0 901.632 0 450.816 450.816 0 1 0-901.632 0Z" fill="#E3FFF3" p-id="5380"></path><path d="M778.0864 735.8464l-68.8128-67.7376c40.8576-49.9712 65.3824-113.7664 65.3824-183.1936 0-159.8976-130.048-289.9456-289.9456-289.9456s-289.9456 130.048-289.9456 289.9456 130.048 289.9456 289.9456 289.9456c64.6656 0 124.416-21.2992 172.6976-57.1904l70.3488 69.2736a35.75296 35.75296 0 0 0 25.1392 10.2912c9.2672 0 18.5344-3.584 25.5488-10.7008 13.9264-14.1312 13.7728-36.8128-0.3584-50.688z m-189.0304-247.0912h-68.9664v30.3104h56.6784c19.8144 0 35.84 16.0256 35.84 35.84s-16.0256 35.84-35.84 35.84h-56.6784v29.5424c0 19.8144-16.0256 35.84-35.84 35.84s-35.84-16.0256-35.84-35.84v-29.5424H389.6832c-19.8144 0-35.84-16.0256-35.84-35.84s16.0256-35.84 35.84-35.84h58.6752v-30.3104H377.3952c-19.8144 0-35.84-16.0256-35.84-35.84s16.0256-35.84 35.84-35.84h40.8576l-30.5152-26.7776c-14.8992-13.056-16.3328-35.6864-3.2768-50.5856a35.77856 35.77856 0 0 1 50.5856-3.2768l48.4352 42.496 44.5952-41.728a35.7888 35.7888 0 0 1 50.6368 1.6896 35.7888 35.7888 0 0 1-1.6896 50.6368l-29.44 27.5456h41.472c19.8144 0 35.84 16.0256 35.84 35.84s-16.0768 35.84-35.84 35.84z" fill="#05C46D" p-id="5381"></path><path d="M733.5936 353.6896c0-6.0416-0.1536-12.0832-0.4096-18.0736-50.7904-84.224-143.1552-140.6976-248.4736-140.6976-159.8976 0-289.9456 130.0992-289.9456 289.9456 0 147.968 111.4624 270.336 254.7712 287.744 166.4512-66.2528 284.0576-228.8128 284.0576-418.9184z m-379.7504 201.216c0-19.8144 16.0256-35.84 35.84-35.84h58.6752v-30.3104H377.3952c-19.8144 0-35.84-16.0256-35.84-35.84s16.0256-35.84 35.84-35.84h40.8576l-30.5152-26.7776c-14.8992-13.056-16.3328-35.6864-3.2768-50.5856a35.77856 35.77856 0 0 1 50.5856-3.2768l48.4352 42.496 44.5952-41.728a35.7888 35.7888 0 0 1 50.6368 1.6896 35.7888 35.7888 0 0 1-1.6896 50.6368l-29.44 27.5456h41.472c19.8144 0 35.84 16.0256 35.84 35.84s-16.0256 35.84-35.84 35.84h-68.9664v30.3104h56.6784c19.8144 0 35.84 16.0256 35.84 35.84s-16.0256 35.84-35.84 35.84h-56.6784v29.5424c0 19.8144-16.0256 35.84-35.84 35.84s-35.84-16.0256-35.84-35.84v-29.5424H389.6832c-19.7632 0-35.84-16.0256-35.84-35.84z" fill="#1DCE75" p-id="5382"></path><path d="M547.584 417.0752h3.4816c1.28-2.2528 2.56-4.5568 3.84-6.8608l-7.3216 6.8608zM194.7648 484.9152c0 55.9616 15.9744 108.2368 43.5712 152.6272 49.5104-8.7552 96.256-25.6 138.8032-49.0496a35.8144 35.8144 0 0 1 12.544-69.376h58.6752v-30.3104H377.3952c-19.8144 0-35.84-16.0256-35.84-35.84s16.0256-35.84 35.84-35.84h40.8576l-30.5152-26.7776c-14.8992-13.056-16.3328-35.6864-3.2768-50.5856a35.77856 35.77856 0 0 1 50.5856-3.2768l48.4352 42.496 44.5952-41.728a35.7888 35.7888 0 0 1 50.6368 1.6896c2.048 2.2016 3.7376 4.608 5.1712 7.168a448.84992 448.84992 0 0 0 25.4464-122.9312 288.62464 288.62464 0 0 0-124.5696-28.16c-159.8976-0.0512-289.9968 129.9968-289.9968 289.8944z" fill="#3CD38E" p-id="5383"></path><path d="M195.9936 459.3152C320.512 415.4368 419.9424 318.464 467.0976 195.5328c-143.2064 8.6528-258.6112 121.6512-271.104 263.7824z" fill="#48E1AA" p-id="5384"></path></svg>