<svg class="icon" style="width: 1em;height: 1em;vertical-align: middle;fill: currentColor;overflow: hidden;" viewBox="0 0 1024 1024" version="1.1" xmlns="http://www.w3.org/2000/svg" p-id="5754"><path d="M515.3792 509.696m-450.816 0a450.816 450.816 0 1 0 901.632 0 450.816 450.816 0 1 0-901.632 0Z" fill="#E9F4FF" p-id="5755"></path><path d="M503.9616 634.5216c5.7344 5.0176 14.3872 4.9152 20.0704-0.1536l258.3552-230.7072c-0.8704-0.8704-1.6896-1.792-2.6112-2.6112l-220.16-198.0416a69.7344 69.7344 0 0 0-93.2864 0l-220.16 198.0416c-1.8432 1.6384-3.5328 3.3792-5.1712 5.1712l262.9632 228.3008z" fill="#3A9CED" p-id="5756"></path><path d="M569.0368 684.8a82.5344 82.5344 0 0 1-55.1424 20.992c-19.3536 0-38.7072-6.7072-54.2208-20.1728L223.0784 480.1536v232.2944c0 45.1072 36.608 81.7152 81.7152 81.7152h416.3584c45.1072 0 81.7152-36.608 81.7152-81.7152V475.9552l-233.8304 208.8448z" fill="#2595E8" p-id="5757"></path><path d="M802.8672 475.9552l-233.8304 208.7936a82.5344 82.5344 0 0 1-55.1424 20.992c-19.3536 0-38.7072-6.7072-54.2208-20.224L223.0784 480.1536v232.2944c0 45.1072 36.608 81.7152 81.7152 81.7152h199.8336c144.4352-45.6704 257.3824-162.0992 298.24-308.5824v-9.6256z" fill="#3A9CED" p-id="5758"></path><path d="M463.0016 598.9888c108.0832-59.7504 188.9792-162.5088 219.648-285.2352L559.616 203.0592a69.7344 69.7344 0 0 0-93.2864 0l-220.16 198.0416c-1.8432 1.6384-3.5328 3.3792-5.1712 5.1712l222.0032 192.7168z" fill="#59ADF8" p-id="5759"></path><path d="M466.3296 203.0592l-220.16 198.0416c-1.8432 1.6384-3.5328 3.3792-5.1712 5.1712l63.3344 54.9888C420.4032 413.184 512 318.0032 555.3664 199.5776c-26.4704-20.2752-63.8976-19.1488-89.0368 3.4816z" fill="#6BC2FC" p-id="5760"></path><path d="M391.9872 626.7904l-168.96-146.6368v175.7184c65.8432-1.0752 125.5424-15.1552 168.96-29.0816z" fill="#59ADF8" p-id="5761"></path></svg>