<svg class="icon" style="width: 1em;height: 1em;vertical-align: middle;fill: currentColor;overflow: hidden;" viewBox="0 0 1024 1024" version="1.1" xmlns="http://www.w3.org/2000/svg" p-id="6534"><path d="M512 515.84m-450.816 0a450.816 450.816 0 1 0 901.632 0 450.816 450.816 0 1 0-901.632 0Z" fill="#FFF1DC" p-id="6535"></path><path d="M721.408 756.736c-4.352-7.168-3.1232-16.3328 2.8672-22.1696 59.4432-57.6512 96.4608-138.3424 96.4608-227.6864 0-180.224-150.272-325.3248-332.3392-316.8256-161.8944 7.5264-293.4784 138.5472-301.6704 300.3904-9.1136 180.7872 133.2224 330.496 311.3472 333.5168l-0.0512 0.1536h232.5504c13.9776 0 22.5792-15.2576 15.3088-27.1872l-24.4736-40.192z m-212.8384-27.4432c-20.4288 0-36.9664-16.5376-36.9664-36.9664 0-20.4288 16.5376-36.9664 36.9664-36.9664 20.4288 0 36.9664 16.5376 36.9664 36.9664 0 20.4288-16.5376 36.9664-36.9664 36.9664z m38.2464-179.1488c-1.9968 0.6144-4.0448 2.1504-4.0448 4.3008v43.9296c0 18.8416-15.3088 34.1504-34.1504 34.1504-18.8416 0-34.1504-15.3088-34.1504-34.1504v-43.9296c0-32.4096 21.3504-60.4672 53.0432-69.8368 29.7472-8.7552 49.3568-36.608 47.7184-67.6864-1.7408-33.5872-29.44-61.2352-63.0272-63.0272-18.5856-0.9728-36.1472 5.4784-49.5616 18.2272s-20.8384 29.952-20.8384 48.4352c0 18.8416-15.3088 34.1504-34.1504 34.1504-18.8416 0-34.1504-15.3088-34.1504-34.1504 0-36.864 15.36-72.6016 42.0864-97.9968 27.136-25.7536 62.6688-38.8608 100.1472-36.864 67.9936 3.584 124.0576 59.648 127.6416 127.6416 3.3792 62.8224-36.4032 119.0912-96.5632 136.8064z" fill="#FC7032" p-id="6536"></path><path d="M776.9088 373.248c0-9.6768-0.3584-19.2512-0.9216-28.7232-57.7536-96.7168-165.4784-160.1536-287.5904-154.4704-161.8944 7.5264-293.4784 138.5472-301.6704 300.3904-7.7824 154.5216 95.0784 286.208 236.288 323.1744 202.3936-44.3904 353.8944-224.6656 353.8944-440.3712z m-268.3392 356.0448c-20.4288 0-36.9664-16.5376-36.9664-36.9664 0-20.4288 16.5376-36.9664 36.9664-36.9664 20.4288 0 36.9664 16.5376 36.9664 36.9664 0 20.4288-16.5376 36.9664-36.9664 36.9664zM373.5552 420.608c0-36.864 15.36-72.6016 42.0864-97.9968 27.136-25.7536 62.6688-38.8608 100.1472-36.864 67.9936 3.584 124.0576 59.648 127.6416 127.6416 3.2768 62.8224-36.4544 119.04-96.6656 136.8064-1.9968 0.6144-4.0448 2.1504-4.0448 4.3008v43.9296c0 18.8416-15.3088 34.1504-34.1504 34.1504s-34.1504-15.3088-34.1504-34.1504v-43.9296c0-32.4096 21.3504-60.4672 53.0432-69.8368 29.7472-8.7552 49.3568-36.608 47.7184-67.6864-1.7408-33.5872-29.44-61.2352-63.0272-63.0272-18.5856-0.9728-36.1472 5.4784-49.5616 18.2272s-20.8384 29.952-20.8384 48.4352c0 18.8416-15.3088 34.1504-34.1504 34.1504-18.7904 0-34.048-15.3088-34.048-34.1504z" fill="#FF7C33" p-id="6537"></path><path d="M474.4192 572.928v-18.4832c0-32.4096 21.3504-60.4672 53.0432-69.8368 29.7472-8.7552 49.3568-36.608 47.7184-67.6864-1.7408-33.5872-29.44-61.2352-63.0272-63.0272-18.5856-0.9728-36.1472 5.4784-49.5616 18.2272s-20.8384 29.952-20.8384 48.4352c0 18.8416-15.3088 34.1504-34.1504 34.1504-18.8416 0-34.1504-15.3088-34.1504-34.1504 0-36.864 15.36-72.6016 42.0864-97.9968 27.136-25.7536 62.6688-38.8608 100.1472-36.864 49.0496 2.56 91.8528 32.4096 113.2544 74.3424a450.17088 450.17088 0 0 0 24.2688-132.7616c-48.7424-26.2144-105.1136-40.0896-164.9664-37.3248-161.8944 7.5264-293.4784 138.5472-301.6704 300.3904-3.1744 63.0272 12.0832 122.2656 40.8576 172.8512 92.5696-4.9152 177.6128-37.7856 246.9888-90.2656z" fill="#FF9552" p-id="6538"></path><path d="M374.784 402.5856c4.1472-30.3104 18.4832-58.7264 40.8576-79.9744 16.5376-15.7184 36.1984-26.6752 57.5488-32.4096a448.60416 448.60416 0 0 0 45.9776-100.096c-10.1376-0.512-20.3776-0.5632-30.72-0.1024-161.8944 7.5264-293.4784 138.5472-301.6704 300.3904-0.0512 1.1776-0.0512 2.304-0.1024 3.4304A448.37376 448.37376 0 0 0 374.784 402.5856z" fill="#FFA56A" p-id="6539"></path></svg>