<svg class="icon" style="width: 1em;height: 1em;vertical-align: middle;fill: currentColor;overflow: hidden;" viewBox="0 0 1024 1024" version="1.1" xmlns="http://www.w3.org/2000/svg" p-id="4828"><path d="M508.1088 514.7136m-450.816 0a450.816 450.816 0 1 0 901.632 0 450.816 450.816 0 1 0-901.632 0Z" fill="#FFF1DC" p-id="4829"></path><path d="M505.344 201.5232c-176.128 0-318.8736 142.7456-318.8736 318.8736s142.7456 318.8736 318.8736 318.8736 318.8736-142.7456 318.8736-318.8736S681.472 201.5232 505.344 201.5232z m0.4096 541.3888c-17.5104 0-31.6928-14.1824-31.6928-31.6928 0-17.5104 14.1824-31.6928 31.6928-31.6928s31.6928 14.1824 31.6928 31.6928c0.0512 17.5104-14.1824 31.6928-31.6928 31.6928z m58.9824-185.4464c-21.0432 10.752-34.0992 31.3344-34.0992 53.7088v16.896a27.904 27.904 0 1 1-55.808 0v-16.896c0-43.4688 24.7296-83.0976 64.512-103.424 28.8256-14.7456 46.0288-45.1584 43.776-77.568-2.7648-39.7824-34.816-71.8336-74.5984-74.5984-22.6816-1.536-44.2368 6.0416-60.7232 21.4528-16.5376 15.4112-25.6 36.352-25.6 58.9312a27.904 27.904 0 1 1-55.808 0c0-37.6832 15.8208-74.0352 43.3664-99.7376 27.9552-26.0608 64.3584-38.9632 102.656-36.352 67.4304 4.6592 121.8048 59.0336 126.464 126.464a136.72448 136.72448 0 0 1-74.1376 131.1232z" fill="#FF8E12" p-id="4830"></path><path d="M762.2656 388.096c0-21.0944-1.4848-41.8304-4.3008-62.1568-58.3168-75.6224-149.76-124.416-252.672-124.416-176.128 0-318.8736 142.7456-318.8736 318.8736 0 145.2032 97.1264 267.6736 229.888 306.2272 198.4512-47.3088 345.9584-225.6896 345.9584-438.528z m-256.512 354.816c-17.5104 0-31.6928-14.1824-31.6928-31.6928 0-17.5104 14.1824-31.6928 31.6928-31.6928s31.6928 14.1824 31.6928 31.6928c0.0512 17.5104-14.1824 31.6928-31.6928 31.6928zM366.2848 435.9168c0-37.6832 15.8208-74.0352 43.3664-99.7376 27.9552-26.0608 64.3584-38.9632 102.656-36.352 67.4304 4.6592 121.8048 59.0336 126.464 126.464a136.38144 136.38144 0 0 1-74.0864 131.1232c-21.0432 10.752-34.0992 31.3344-34.0992 53.7088v16.896a27.904 27.904 0 1 1-55.808 0v-16.896c0-43.4688 24.7296-83.0976 64.512-103.424 28.8256-14.7456 46.0288-45.1584 43.776-77.568-2.7648-39.7824-34.816-71.8336-74.5984-74.5984-22.6816-1.536-44.2368 6.0416-60.7232 21.4528-16.5376 15.4112-25.6 36.352-25.6 58.9312A27.904 27.904 0 0 1 394.24 463.8208c-15.4624 0-27.9552-12.4928-27.9552-27.904z" fill="#FCA315" p-id="4831"></path><path d="M186.4704 520.3968a317.44 317.44 0 0 0 41.1648 156.672c97.2288-8.448 185.6-47.6672 255.2832-107.9808 10.3424-25.9072 30.0032-47.872 56.3712-61.3376 1.4336-0.7168 2.8672-1.536 4.2496-2.3552 14.4896-18.4832 27.4944-38.1952 38.9632-58.8288 0.7168-5.376 0.9216-10.8032 0.5632-16.384-2.7648-39.7824-34.816-71.8336-74.5984-74.5984-22.6816-1.536-44.2368 6.0416-60.7232 21.4528-16.5376 15.4112-25.6 36.352-25.6 58.9312a27.904 27.904 0 1 1-55.808 0c0-37.6832 15.8208-74.0352 43.3664-99.7376 27.9552-26.0608 64.3584-38.9632 102.656-36.352 44.4928 3.072 83.3024 27.8016 105.8816 63.6416a448.8192 448.8192 0 0 0 20.6848-132.6592 317.45024 317.45024 0 0 0-133.5808-29.3376c-176.128 0-318.8736 142.7456-318.8736 318.8736z" fill="#FCB138" p-id="4832"></path><path d="M186.8288 505.1904c68.2496-17.4592 130.2016-50.4832 181.9648-95.0784A136.92416 136.92416 0 0 1 409.6 336.1792 136.4992 136.4992 0 0 1 457.1136 307.2a450.29376 450.29376 0 0 0 48.4352-105.728h-0.256c-170.9568 0.0512-310.528 134.7072-318.464 303.7184z" fill="#FFC65E" p-id="4833"></path></svg>