<svg class="icon" style="width: 1em;height: 1em;vertical-align: middle;fill: currentColor;overflow: hidden;" viewBox="0 0 1024 1024" version="1.1" xmlns="http://www.w3.org/2000/svg" p-id="3979"><path d="M511.744 513.1264m-450.816 0a450.816 450.816 0 1 0 901.632 0 450.816 450.816 0 1 0-901.632 0Z" fill="#FFF1DC" p-id="3980"></path><path d="M320.1536 644.4544h97.3824c1.6896 0 3.0208-1.3824 3.0208-3.0208V366.2848c0-1.6896-1.3824-3.0208-3.0208-3.0208H320.1536c-74.496 0-134.912 60.416-134.912 134.912v11.3664c0.0512 74.496 60.416 134.912 134.912 134.912z" fill="#FCB138" p-id="3981"></path><path d="M468.992 645.3248l221.44 118.3232c25.1904 12.9024 55.1424-5.4272 55.1424-33.7408V283.6992c0-27.9552-29.2864-46.2848-54.4256-34.0992L469.0432 362.3936c-1.0752 0.512-1.792 1.6384-1.792 2.8672v277.248c0.0512 1.1776 0.7168 2.304 1.7408 2.816zM831.232 503.8592c0-29.4912-23.04-53.6064-52.1216-55.296a3.1488 3.1488 0 0 0-3.2768 3.1744v104.2432c0 1.792 1.4848 3.2768 3.2768 3.1744 29.0816-1.6896 52.1216-25.8048 52.1216-55.296z" fill="#FF8E12" p-id="3982"></path><path d="M331.2128 664.32h67.9936c1.0752 0 2.0992 0.5632 2.6624 1.4848l54.784 87.04c0.9728 1.536 0.4608 3.5328-1.1264 4.4032l-67.584 38.7584c-1.6384 0.9216-3.6864 0.256-4.4544-1.4848l-55.1936-125.7984c-0.8704-2.048 0.6656-4.4032 2.9184-4.4032zM745.5232 283.6992c0-27.9552-29.2864-46.2848-54.4256-34.0992L469.0944 362.3936c-1.0752 0.512-1.792 1.6384-1.792 2.8672v277.248c0 1.1776 0.6656 2.2528 1.7408 2.816l155.392 84.6336c55.0912-51.456 97.28-116.5824 121.1392-190.0032V283.6992z" fill="#FCA315" p-id="3983"></path><path d="M643.072 272.9472L469.0944 362.3936c-1.0752 0.512-1.792 1.6384-1.792 2.8672v240.8448c105.1136-75.9296 165.9904-196.0448 175.7696-333.1584z" fill="#FCB138" p-id="3984"></path><path d="M420.5568 370.2272v-3.9424c0-1.6896-1.3824-3.0208-3.0208-3.0208H320.1536c-74.496 0-134.912 60.416-134.912 134.912v11.3664c0 3.2256 0.1536 6.4512 0.3584 9.6256 95.488-22.8864 173.9264-76.1344 234.9568-148.9408z" fill="#FFC65E" p-id="3985"></path></svg>