<svg class="icon" style="width: 1em;height: 1em;vertical-align: middle;fill: currentColor;overflow: hidden;" viewBox="0 0 1024 1024" version="1.1" xmlns="http://www.w3.org/2000/svg" p-id="4889"><path d="M509.184 514.7136m-450.816 0a450.816 450.816 0 1 0 901.632 0 450.816 450.816 0 1 0-901.632 0Z" fill="#E9ECFF" p-id="4890"></path><path d="M357.5296 225.9968c74.24 0 134.4 60.16 134.4 134.4v107.008c0 15.1552-12.288 27.392-27.392 27.392h-107.008c-74.24 0-134.4-60.16-134.4-134.4 0-74.1888 60.16-134.4 134.4-134.4z" fill="#8486F8" p-id="4891"></path><path d="M357.5296 808.7552c74.24 0 134.4-60.16 134.4-134.4v-107.008c0-15.1552-12.288-27.392-27.392-27.392h-107.008c-74.24 0-134.4 60.16-134.4 134.4s60.16 134.4 134.4 134.4zM668.2624 225.9968c-74.24 0-134.4 60.16-134.4 134.4v107.008c0 15.1552 12.288 27.392 27.392 27.392h107.008c74.24 0 134.4-60.16 134.4-134.4 0-74.1888-60.16-134.4-134.4-134.4zM668.2624 808.7552c-74.24 0-134.4-60.16-134.4-134.4v-107.008c0-15.1552 12.288-27.392 27.392-27.392h107.008c74.24 0 134.4 60.16 134.4 134.4s-60.16 134.4-134.4 134.4z" fill="#6C6CEA" p-id="4892"></path><path d="M464.5376 539.9552h-107.008c-74.24 0-134.4 60.16-134.4 134.4 0 47.1552 24.32 88.6272 61.0304 112.5888 10.8032 0.768 21.76 1.1776 32.768 1.1776 48.3328 0 94.8224-7.6288 138.4448-21.7088 22.6304-24.064 36.5568-56.4224 36.5568-92.1088v-107.008c0-15.104-12.2368-27.3408-27.392-27.3408zM761.7536 263.936c-24.2176-23.4496-57.1392-37.888-93.4912-37.888-74.24 0-134.4 60.16-134.4 134.4v107.008c0 15.1552 12.288 27.392 27.392 27.392h107.008c30.0032 0 57.7536-9.8304 80.128-26.4704 12.5952-41.472 19.3536-85.4528 19.3536-131.0208 0-25.0368-2.048-49.5616-5.9904-73.4208zM715.3152 548.4544a134.0928 134.0928 0 0 0-47.0528-8.4992h-107.008a27.392 27.392 0 0 0-27.392 27.392v107.008c0 18.5344 3.7376 36.1984 10.5472 52.2752a453.55008 453.55008 0 0 0 170.9056-178.176z" fill="#757BF2" p-id="4893"></path><path d="M461.312 539.9552H357.5296c-57.344 0-106.24 35.8912-125.5424 86.4768 85.4528-7.2192 164.1472-38.2976 229.3248-86.4768zM533.8624 360.448v107.008c0 1.6896 0.2048 3.3792 0.512 4.9664 58.0096-66.8672 96.6144-151.04 107.1104-243.712-61.3888 12.3904-107.6224 66.6624-107.6224 131.7376z" fill="#8486F8" p-id="4894"></path><path d="M455.1168 268.0832a133.80096 133.80096 0 0 0-97.5872-42.0352c-74.24 0-134.4 60.16-134.4 134.4 0 28.3136 8.7552 54.5792 23.7568 76.2368 85.2992-33.9968 157.8496-93.2864 208.2304-168.6016z" fill="#8D92F8" p-id="4895"></path></svg>