<svg class="icon" style="width: 1em;height: 1em;vertical-align: middle;fill: currentColor;overflow: hidden;" viewBox="0 0 1024 1024" version="1.1" xmlns="http://www.w3.org/2000/svg" p-id="5409"><path d="M509.9008 513.1264m-450.816 0a450.816 450.816 0 1 0 901.632 0 450.816 450.816 0 1 0-901.632 0Z" fill="#FFF1DC" p-id="5410"></path><path d="M738.5088 254.1056H264.0896c-14.08 0-27.1872 7.6288-34.0992 19.9168a39.28576 39.28576 0 0 0 0.5632 39.4752l30.5664 50.688-36.352 56.6272a39.15264 39.15264 0 0 0 0.512 43.0592l33.3312 49.3568-34.1504 54.784a39.17824 39.17824 0 0 0 1.024 43.008l34.048 49.3568-28.4672 45.9264c-7.4752 12.0832-7.8336 27.2896-0.9216 39.7312s20.0192 20.1216 34.2528 20.1216h474.1632c46.6432 0 84.6336-37.9392 84.6336-84.6336V338.688c-0.0512-46.6432-37.9904-84.5824-84.6848-84.5824z m-333.2096 418.816c0 18.3808-13.1072 33.28-29.2864 33.28s-29.2864-14.8992-29.2864-33.28V347.3408c0-18.3808 13.1072-33.28 29.2864-33.28s29.2864 14.8992 29.2864 33.28v325.5808z m288-164.8128h-61.8496v28.8256h50.6368a33.28 33.28 0 1 1 0 66.56h-50.6368v23.1936a33.28 33.28 0 1 1-66.56 0v-23.1936h-52.48a33.28 33.28 0 1 1 0-66.56h52.48v-28.8256H501.248a33.28 33.28 0 1 1 0-66.56h35.072l-26.1632-22.9888c-13.824-12.1344-15.2064-33.1264-3.072-46.9504s33.1776-15.2064 46.9504-3.072l43.4176 38.0928 39.936-37.376c13.4144-12.544 34.4576-11.8784 47.0528 1.536s11.8784 34.4576-1.536 47.0528l-25.2928 23.7056h35.6864a33.28 33.28 0 1 1 0 66.56z" fill="#FC7032" p-id="5411"></path><path d="M823.1424 338.688c0-46.6432-37.9392-84.6336-84.6336-84.6336H264.0896c-14.08 0-27.1872 7.6288-34.0992 19.9168a39.28576 39.28576 0 0 0 0.5632 39.4752l30.5664 50.688-36.352 56.6784a39.15264 39.15264 0 0 0 0.512 43.0592l33.3312 49.3568-34.1504 54.784a39.17824 39.17824 0 0 0 1.024 43.008l34.048 49.3568-28.4672 45.9264c-7.4752 12.0832-7.8336 27.2896-0.9216 39.7312s20.0192 20.1216 34.2528 20.1216h249.1392c165.4272-53.1968 289.1776-199.3728 309.6576-377.0368v-50.432z m-417.8432 334.2336c0 18.3808-13.1072 33.28-29.2864 33.28s-29.2864-14.8992-29.2864-33.28V347.3408c0-18.3808 13.1072-33.28 29.2864-33.28s29.2864 14.8992 29.2864 33.28v325.5808z m288-164.8128h-61.8496v28.8256h50.6368a33.28 33.28 0 1 1 0 66.56h-50.6368v23.1936a33.28 33.28 0 1 1-66.56 0v-23.1936h-52.48a33.28 33.28 0 1 1 0-66.56h52.48v-28.8256H501.248a33.28 33.28 0 1 1 0-66.56h35.072l-26.1632-22.9888c-13.824-12.1344-15.2064-33.1264-3.072-46.9504s33.1776-15.2064 46.9504-3.072l43.4176 38.0928 39.936-37.376c13.4144-12.544 34.4576-11.8784 47.0528 1.536s11.8784 34.4576-1.536 47.0528l-25.2928 23.7056h35.6864a33.28 33.28 0 1 1 0 66.56z" fill="#FF7E3E" p-id="5412"></path><path d="M229.9904 274.0224a39.28576 39.28576 0 0 0 0.5632 39.4752l30.5664 50.688-36.352 56.6272a39.15264 39.15264 0 0 0 0.512 43.0592l33.3312 49.3568-34.1504 54.784a39.17824 39.17824 0 0 0 1.024 43.008l11.3152 16.384c5.0688 0.1536 10.1376 0.3072 15.2576 0.3072 32.4608 0 64.1536-3.4816 94.6688-9.984v-270.336c0-18.3808 13.1072-33.28 29.2864-33.28s29.2864 14.8992 29.2864 33.28v253.5936c25.9072-9.3696 50.688-21.0432 74.1376-34.7648a33.26976 33.26976 0 0 1 33.024-29.2352h10.8544c11.9808-9.0624 23.5008-18.688 34.5088-28.8256H501.248a33.28 33.28 0 1 1 0-66.56h35.072l-26.1632-22.9888c-13.824-12.1344-15.2064-33.1264-3.072-46.9504s33.1776-15.2064 46.9504-3.072l43.4176 38.0928 39.936-37.376a33.21856 33.21856 0 0 1 26.4192-8.7552 448.9472 448.9472 0 0 0 32.4096-106.3936h-432.128a38.99392 38.99392 0 0 0-34.0992 19.8656z" fill="#FF9552" p-id="5413"></path><path d="M229.9904 274.0224a39.28576 39.28576 0 0 0 0.5632 39.4752l30.5664 50.688-36.352 56.6272a39.01952 39.01952 0 0 0-1.5872 39.3728 449.10592 449.10592 0 0 0 123.5456-42.8544V347.3408c0-18.3808 13.1072-33.28 29.2864-33.28s29.2864 14.8992 29.2864 33.28v33.4848c46.6432-34.304 86.4768-77.312 116.992-126.72H264.0896c-14.1312 0-27.1872 7.6288-34.0992 19.9168z" fill="#FFA56A" p-id="5414"></path></svg>