<svg class="icon" style="width: 1em;height: 1em;vertical-align: middle;fill: currentColor;overflow: hidden;" viewBox="0 0 1024 1024" version="1.1" xmlns="http://www.w3.org/2000/svg" p-id="4252"><path d="M513.0752 504.6272m-450.816 0a450.816 450.816 0 1 0 901.632 0 450.816 450.816 0 1 0-901.632 0Z" fill="#E9ECFF" p-id="4253"></path><path d="M513.0752 181.9648c-178.176 0-322.6624 144.4352-322.6624 322.6624 0 178.176 144.4352 322.6624 322.6624 322.6624 178.176 0 322.6624-144.4352 322.6624-322.6624 0-178.176-144.4352-322.6624-322.6624-322.6624zM419.1232 397.8752c0-51.8656 42.0352-93.952 93.952-93.952 51.8656 0 93.952 42.0352 93.952 93.952v96.256c0 51.8656-42.0352 93.952-93.952 93.952-51.8656 0-93.952-42.0352-93.952-93.952v-96.256z m265.3696 94.6176c0 86.4768-63.2832 158.3616-145.664 171.1616v46.7456c0 14.1312-11.4688 25.6-25.6 25.6s-25.6-11.4688-25.6-25.6v-46.5408C404.48 651.6736 340.3776 579.4816 340.3776 492.4928v-12.8c0-14.1312 11.4688-25.6 25.6-25.6s25.6 11.4688 25.6 25.6v12.8c0 67.2768 54.2208 122.0096 120.832 122.0096 66.6624 0 120.832-54.7328 120.832-122.0096v-12.8c0-14.1312 11.4688-25.6 25.6-25.6s25.6 11.4688 25.6 25.6v12.8z" fill="#6C6CEA" p-id="4254"></path><path d="M799.6416 356.4032c-53.7088-103.5776-161.8432-174.4384-286.5664-174.4384-178.176 0-322.6624 144.4352-322.6624 322.6624 0 117.0944 62.4128 219.648 155.7504 276.1728 1.1264 0 2.304 0.0512 3.4304 0.0512 240.128 0 436.3776-187.7504 450.048-424.448z m-380.5184 41.472c0-51.8656 42.0352-93.952 93.952-93.952 51.8656 0 93.952 42.0352 93.952 93.952v96.256c0 51.8656-42.0352 93.952-93.952 93.952-51.8656 0-93.952-42.0352-93.952-93.952v-96.256z m119.7056 265.7792v46.7456c0 14.1312-11.4688 25.6-25.6 25.6s-25.6-11.4688-25.6-25.6v-46.5408C404.48 651.6736 340.3776 579.4816 340.3776 492.4928v-12.8c0-14.1312 11.4688-25.6 25.6-25.6s25.6 11.4688 25.6 25.6v12.8c0 67.2768 54.2208 122.0096 120.832 122.0096 66.6624 0 120.832-54.7328 120.832-122.0096v-12.8c0-14.1312 11.4688-25.6 25.6-25.6s25.6 11.4688 25.6 25.6v12.8c0.0512 86.4768-63.232 158.3616-145.6128 171.1616z" fill="#757BF2" p-id="4255"></path><path d="M190.4128 504.6272c0 40.8576 7.68 79.872 21.504 115.8656 4.7616 0.1536 9.5232 0.256 14.336 0.256 51.9168 0 101.7856-8.8064 148.1728-24.9344a172.93824 172.93824 0 0 1-34.0992-103.3216v-12.8c0-14.1312 11.4688-25.6 25.6-25.6s25.6 11.4688 25.6 25.6v12.8c0 31.9488 12.2368 61.0304 32.2048 82.7904 8.3968-4.096 16.64-8.448 24.7296-13.056-18.0736-17.1008-29.3888-41.2672-29.3888-68.096v-96.256c0-51.8656 42.0352-93.952 93.952-93.952 51.8656 0 93.952 42.0352 93.952 93.952v13.568a448.54784 448.54784 0 0 0 66.7648-186.5728 321.024 321.024 0 0 0-160.7168-42.9056c-178.1248 0-322.6112 144.4864-322.6112 322.6624z" fill="#8486F8" p-id="4256"></path><path d="M194.4576 453.8368c152.2176-27.8016 277.6576-132.0448 335.2576-271.4624-5.5296-0.256-11.0592-0.4096-16.64-0.4096-160.9216 0-294.2464 117.8112-318.6176 271.872z" fill="#8D92F8" p-id="4257"></path></svg>