<svg class="icon" style="width: 1em;height: 1em;vertical-align: middle;fill: currentColor;overflow: hidden;" viewBox="0 0 1024 1024" version="1.1" xmlns="http://www.w3.org/2000/svg" p-id="1268"><path d="M515.7888 511.3856m-450.816 0a450.816 450.816 0 1 0 901.632 0 450.816 450.816 0 1 0-901.632 0Z" fill="#FBE1FF" p-id="1269"></path><path d="M804.7104 729.856H713.216c62.7712-56.576 102.2976-138.496 102.2976-229.632 0-175.5136-146.3296-316.8768-323.6352-308.6848-160.256 7.3728-289.536 138.9056-294.2976 299.264-5.0176 169.2672 126.1056 309.0432 291.9936 318.0032h0.256a299.93472 299.93472 0 0 0 33.3824 0h281.5488c5.9904 0 10.8032-4.864 10.8032-10.8032v-57.2928a10.89536 10.89536 0 0 0-10.8544-10.8544zM338.944 572.3648c-41.5232 0-75.2128-33.6896-75.2128-75.2128s33.6896-75.2128 75.2128-75.2128 75.2128 33.6896 75.2128 75.2128-33.6384 75.2128-75.2128 75.2128z m167.5264 167.5264c-41.5232 0-75.2128-33.6896-75.2128-75.2128s33.6896-75.2128 75.2128-75.2128 75.2128 33.6896 75.2128 75.2128-33.6384 75.2128-75.2128 75.2128zM448.5632 494.9504c0-32 25.9072-57.9072 57.9072-57.9072 32 0 57.9072 25.9072 57.9072 57.9072 0 32-25.9072 57.9072-57.9072 57.9072-31.9488 0-57.9072-25.9584-57.9072-57.9072z m57.9072-90.0608c-41.5232 0-75.2128-33.6896-75.2128-75.2128S464.9472 254.464 506.4704 254.464s75.2128 33.6896 75.2128 75.2128-33.6384 75.2128-75.2128 75.2128z m92.3136 92.2624c0-41.5232 33.6896-75.2128 75.2128-75.2128s75.2128 33.6896 75.2128 75.2128-33.6896 75.2128-75.2128 75.2128-75.2128-33.6384-75.2128-75.2128z" fill="#BD50D3" p-id="1270"></path><path d="M806.1952 424.8064c-34.816-138.7008-163.2768-240.2816-314.3168-233.3184-160.256 7.3728-289.536 138.9056-294.2976 299.264-4.0448 136.7552 80.7424 254.208 200.96 299.008 204.1856-15.7184 370.2272-167.5776 407.6544-364.9536zM338.944 572.3648c-41.5232 0-75.2128-33.6896-75.2128-75.2128s33.6896-75.2128 75.2128-75.2128 75.2128 33.6896 75.2128 75.2128-33.6384 75.2128-75.2128 75.2128z m167.5264 167.5264c-41.5232 0-75.2128-33.6896-75.2128-75.2128s33.6896-75.2128 75.2128-75.2128 75.2128 33.6896 75.2128 75.2128-33.6384 75.2128-75.2128 75.2128zM448.5632 494.9504c0-32 25.9072-57.9072 57.9072-57.9072 32 0 57.9072 25.9072 57.9072 57.9072 0 32-25.9072 57.9072-57.9072 57.9072-31.9488 0-57.9072-25.9584-57.9072-57.9072z m57.9072-90.0608c-41.5232 0-75.2128-33.6896-75.2128-75.2128S464.9472 254.464 506.4704 254.464s75.2128 33.6896 75.2128 75.2128-33.6384 75.2128-75.2128 75.2128z m92.3136 92.2624c0-41.5232 33.6896-75.2128 75.2128-75.2128s75.2128 33.6896 75.2128 75.2128-33.6896 75.2128-75.2128 75.2128-75.2128-33.6384-75.2128-75.2128z" fill="#C65EDB" p-id="1271"></path><path d="M448.5632 494.9504c0-32 25.9072-57.9072 57.9072-57.9072 31.4368 0 56.9856 25.088 57.8048 56.32 63.3856-65.6384 107.008-150.4768 121.344-244.8896-54.2208-38.656-121.3952-60.2624-193.792-56.8832-160.256 7.3728-289.536 138.9056-294.2976 299.264-1.4848 50.176 9.0624 97.6896 28.8256 140.032 4.5056 0.1536 9.0112 0.2048 13.568 0.2048 94.8224 0 182.784-29.2864 255.3856-79.3088-26.5728-5.2224-46.7456-28.672-46.7456-56.832zM338.944 572.3648c-41.5232 0-75.2128-33.6896-75.2128-75.2128s33.6896-75.2128 75.2128-75.2128 75.2128 33.6896 75.2128 75.2128-33.6384 75.2128-75.2128 75.2128z m167.5264-317.952c41.5232 0 75.2128 33.6896 75.2128 75.2128s-33.6896 75.2128-75.2128 75.2128-75.2128-33.6896-75.2128-75.2128 33.6896-75.2128 75.2128-75.2128z" fill="#CA6EE0" p-id="1272"></path><path d="M199.424 465.6128c30.8224-5.0176 60.5696-13.1584 88.9344-24.064 11.6736-10.5984 26.624-17.664 43.2128-19.2512A451.52256 451.52256 0 0 0 434.1248 350.208c-1.8432-6.5536-2.9184-13.4656-2.9184-20.5824 0-41.5232 33.6896-75.2128 75.2128-75.2128 1.8432 0 3.6864 0.1536 5.5296 0.256a447.6928 447.6928 0 0 0 31.1296-61.3376c-16.6912-1.9968-33.8432-2.6624-51.2512-1.8432-151.7568 7.0144-275.6608 125.3888-292.4032 274.1248z" fill="#D786EA" p-id="1273"></path></svg>