<svg class="icon" style="width: 1em;height: 1em;vertical-align: middle;fill: currentColor;overflow: hidden;" viewBox="0 0 1024 1024" version="1.1" xmlns="http://www.w3.org/2000/svg" p-id="2045"><path d="M509.9008 519.8336m-450.816 0a450.816 450.816 0 1 0 901.632 0 450.816 450.816 0 1 0-901.632 0Z" fill="#FFF1DC" p-id="2046"></path><path d="M593.3056 682.24c-29.7472 0-53.9136-24.1664-53.9136-53.9136v-95.9488c0-29.7472 24.1664-53.9136 53.9136-53.9136h202.24V416.6144c0-33.4848-27.136-60.672-60.672-60.672H234.5472v382.0032c0 33.4848 27.136 60.672 60.672 60.672h439.7568c33.4848 0 60.672-27.136 60.672-60.672v-55.7056h-202.3424z" fill="#FF8E12" p-id="2047"></path><path d="M593.3568 241.1008H285.7472c-28.2624 0-51.2 22.9376-51.2 51.2v23.2448h410.0096v-23.2448c0-28.2624-22.9376-51.2-51.2-51.2z" fill="#FCB138" p-id="2048"></path><path d="M593.3056 523.776c-7.424 0-13.4656 6.0416-13.4656 13.4656v85.7088c0 7.424 6.0416 13.4656 13.4656 13.4656h202.24v-112.64h-202.24z m39.7312 81.2544c-13.7728 0-24.8832-11.1616-24.8832-24.8832a24.87808 24.87808 0 1 1 49.7664 0c0 13.7216-11.1616 24.8832-24.8832 24.8832z" fill="#FF8E12" p-id="2049"></path><path d="M768.3072 523.776h-175.0016c-7.424 0-13.4656 6.0416-13.4656 13.4656v85.7088c0 7.424 6.0416 13.4656 13.4656 13.4656h108.7488c27.2384-33.8432 49.664-71.7824 66.2528-112.64z m-135.2704 81.2544a24.87808 24.87808 0 1 1 0-49.7664 24.87808 24.87808 0 1 1 0 49.7664z" fill="#FCA315" p-id="2050"></path><path d="M795.5456 416.6144c0-33.4848-27.136-60.672-60.672-60.672H234.5472v382.0032c0 33.4848 27.136 60.672 60.672 60.672h131.584c89.3952-15.2576 169.7792-56.7808 232.96-116.3776h-66.4576c-29.7472 0-53.9136-24.1664-53.9136-53.9136v-95.9488c0-29.7472 24.1664-53.9136 53.9136-53.9136h190.6688a439.9616 439.9616 0 0 0 11.5712-52.1728v-9.6768z" fill="#FCA315" p-id="2051"></path><path d="M234.5472 355.9424v288.9216c119.3984-1.8944 227.4816-50.2272 307.0976-127.6928 4.7616-16.128 16.896-29.0816 32.4608-35.072a450.32448 450.32448 0 0 0 73.984-126.1568H234.5472z" fill="#FCB138" p-id="2052"></path><path d="M514.6112 241.1008h-228.864c-28.2624 0-51.2 22.9376-51.2 51.2v23.2448h231.8336c18.3808-23.0912 34.6112-47.9744 48.2304-74.4448zM429.9264 355.9424H234.5472v113.1008c74.7008-20.736 141.6704-60.2112 195.3792-113.1008z" fill="#FFC65E" p-id="2053"></path></svg>