<svg class="icon" style="width: 1em;height: 1em;vertical-align: middle;fill: currentColor;overflow: hidden;" viewBox="0 0 1024 1024" version="1.1" xmlns="http://www.w3.org/2000/svg" p-id="2027"><path d="M509.1328 519.8336m-450.816 0a450.816 450.816 0 1 0 901.632 0 450.816 450.816 0 1 0-901.632 0Z" fill="#FFE3DB" p-id="2028"></path><path d="M833.1264 463.0528L770.048 400.384a51.61984 51.61984 0 0 0-36.4032-14.9504h-64.7168V332.9024c0-44.3904-35.9936-80.384-80.384-80.384H289.8432c-44.3904 0-80.384 35.9936-80.384 80.384v327.2192c0 42.1376 32.4096 76.5952 73.6256 80.0256 0.2048-62.1056 50.7392-112.5376 112.8448-112.5376 62.2592 0 112.896 50.6368 112.896 112.896h36.3008c0-62.2592 50.6368-112.896 112.896-112.896s112.896 50.6368 112.896 112.896h3.6352c40.704 0 73.6768-32.768 73.6768-73.216V499.2512a51.2512 51.2512 0 0 0-15.104-36.1984z m-353.9968 25.7536c0 15.872-12.9536 28.8256-28.8256 28.8256H332.5952c-11.6736 0-21.8112-11.52-21.8112-23.1936s10.1376-24.1664 21.8112-24.1664h99.1744V382.5152c0-11.6736 11.1104-21.1456 22.784-21.1456s24.6272 9.472 24.6272 21.1456v106.2912z m315.8016 51.1488h-85.1968c-15.872 0-28.8256-12.9024-28.8256-28.8256V436.736c0-11.6736 11.52-21.1456 23.1936-21.1456s24.2176 9.472 24.2176 21.1456v55.8592h66.6624c11.6736 0 21.1456 11.9808 21.1456 23.6544s-9.5232 23.7056-21.1968 23.7056z" fill="#F23D4F" p-id="2029"></path><path d="M396.288 740.5056m-71.8336 0a71.8336 71.8336 0 1 0 143.6672 0 71.8336 71.8336 0 1 0-143.6672 0Z" fill="#FC4956" p-id="2030"></path><path d="M658.0224 740.5056m-71.8336 0a71.8336 71.8336 0 1 0 143.6672 0 71.8336 71.8336 0 1 0-143.6672 0Z" fill="#F23D4F" p-id="2031"></path><path d="M709.7344 539.9552c-15.872 0-28.8256-12.9024-28.8256-28.8256V436.736c0-11.6736 11.52-21.1456 23.1936-21.1456 11.6736 0 24.2176 9.472 24.2176 21.1456v55.8592h23.1424c9.0112-31.8464 14.592-59.9552 16.384-94.2592-9.3696-8.2944-21.504-12.9536-34.1504-12.9536h-64.7168V332.9024c0-44.3904-35.9936-80.384-80.384-80.384H289.8432c-44.3904 0-80.384 35.9936-80.384 80.384v327.2192c0 42.1376 32.4096 76.5952 73.6256 80.0256 0.2048-62.1056 50.7392-112.5376 112.8448-112.5376 62.2592 0 112.896 50.6368 112.896 112.896h36.3008c0-62.2592 50.6368-112.896 112.896-112.896 10.3936 0 20.4288 1.4336 29.952 4.0448a449.87392 449.87392 0 0 0 49.152-91.7504h-27.392z m-230.6048-51.1488c0 15.872-12.9536 28.8256-28.8256 28.8256H332.5952c-11.6736 0-21.8112-11.52-21.8112-23.1936 0-11.6736 10.1376-24.1664 21.8112-24.1664h99.1744V382.5152c0-11.6736 11.1104-21.1456 22.784-21.1456s24.6272 9.472 24.6272 21.1456v106.2912z" fill="#FC4956" p-id="2032"></path><path d="M586.3936 736.6656c26.7264-19.9168 51.2-42.7008 72.9088-67.8912-0.4096 0-0.8704-0.0512-1.28-0.0512-38.3488-0.0512-69.632 30.0544-71.6288 67.9424z" fill="#FC4956" p-id="2033"></path><path d="M588.5952 252.5184H289.8432c-44.3904 0-80.384 35.9936-80.384 80.384v327.2192c0 1.6896 0.1536 3.3792 0.256 5.0176 47.9232-1.6384 93.952-10.7008 136.96-26.1632 5.7344-2.816 11.776-5.12 18.0224-6.912 147.4048-60.2624 255.7952-196.2496 276.736-359.68-14.1824-12.3392-32.6144-19.8656-52.8384-19.8656zM479.1296 488.8064c0 15.872-12.9536 28.8256-28.8256 28.8256H332.5952c-9.6768 0-21.8112-9.728-21.8112-23.1936 0-14.08 13.2608-24.1664 21.8112-24.1664h99.1744V382.5152c0-11.6736 11.1104-21.1456 22.784-21.1456s24.6272 9.472 24.6272 21.1456v106.2912z" fill="#FF5C64" p-id="2034"></path><path d="M289.8432 252.5184c-44.3904 0-80.384 35.9936-80.384 80.384v154.368c121.7536-36.1472 221.952-122.368 276.7872-234.752H289.8432z" fill="#FF716E" p-id="2035"></path></svg>