<svg class="icon" style="width: 1em;height: 1em;vertical-align: middle;fill: currentColor;overflow: hidden;" viewBox="0 0 1024 1024" version="1.1" xmlns="http://www.w3.org/2000/svg" p-id="5872"><path d="M512.0512 516.4544m-450.816 0a450.816 450.816 0 1 0 901.632 0 450.816 450.816 0 1 0-901.632 0Z" fill="#FFE3DB" p-id="5873"></path><path d="M801.2288 380.8768L637.44 217.088c-26.9824-26.9824-70.656-26.9824-97.6384 0s-26.9824 70.656 0 97.6384l17.5104 17.5104L493.056 396.4928c-91.5968-55.9104-212.7872-44.3392-292.0448 34.9184l-27.8016 27.8016 161.2288 161.2288-66.304 66.304a44.81024 44.81024 0 0 0 0 63.3856 44.81024 44.81024 0 0 0 63.3856 0l66.304-66.304 161.2288 161.2288 27.8016-27.8016c79.2576-79.2576 90.8288-200.448 34.9184-292.0448L686.08 461.0048l17.5104 17.5104c26.9824 26.9824 70.656 26.9824 97.6384 0s26.9824-70.7072 0-97.6384zM462.5408 479.3856a30.75584 30.75584 0 0 1-25.5488 13.6192c-5.888 0-11.8272-1.6896-17.1008-5.2224-41.6256-27.9552-91.0336-6.0416-91.5456-5.7856-15.36 7.2192-33.6384 0.6656-40.8576-14.6944-7.2192-15.36-0.6656-33.6384 14.6944-40.8576 3.2768-1.536 81.0496-37.2224 151.9616 10.3936 14.1312 9.3696 17.8688 28.4672 8.3968 42.5472z" fill="#F23D4F" p-id="5874"></path><path d="M539.8016 217.088c-26.9824 26.9824-26.9824 70.656 0 97.6384l17.5104 17.5104L493.056 396.4928c-91.5968-55.9104-212.7872-44.3392-292.0448 34.9184l-27.8016 27.8016 161.2288 161.2288-66.304 66.304a44.81024 44.81024 0 0 0 0 63.3856 44.81024 44.81024 0 0 0 63.3856 0l66.304-66.304 78.7968 78.7968c73.8816-31.5904 135.6288-86.0672 176.384-154.4704a236.53888 236.53888 0 0 0-31.1808-82.944L686.08 461.0048l15.0016 15.0016c3.2256-19.8144 4.9664-40.0896 4.9664-60.8256 0-61.1328-14.592-118.784-40.3968-169.8816l-28.2112-28.2112c-26.9312-26.9312-70.656-26.9312-97.6384 0zM462.5408 479.3856a30.75584 30.75584 0 0 1-25.5488 13.6192c-5.888 0-11.8272-1.6896-17.1008-5.2224-41.6256-27.9552-91.0336-6.0416-91.5456-5.7856-15.36 7.2192-33.6384 0.6656-40.8576-14.6944-7.2192-15.36-0.6656-33.6384 14.6944-40.8576 3.2768-1.536 81.0496-37.2224 151.9616 10.3936 14.1312 9.3696 17.8688 28.4672 8.3968 42.5472z" fill="#FC4956" p-id="5875"></path><path d="M304.5888 650.3424c170.3936-36.608 298.0864-188.0064 298.0864-369.3056 0-28.8768-3.328-56.9344-9.472-83.9168a68.8128 68.8128 0 0 0-53.4016 20.0192c-26.9824 26.9824-26.9824 70.656 0 97.6384l17.5104 17.5104L493.056 396.4928c-91.5968-55.9104-212.7872-44.3392-292.0448 34.9184l-27.8016 27.8016 161.2288 161.2288-29.8496 29.9008z m23.808-168.3968c-15.36 7.2192-33.6384 0.6656-40.8576-14.6944-7.2192-15.36-0.6656-33.6384 14.6944-40.8576 3.2768-1.536 81.0496-37.2224 151.9616 10.3936a30.79168 30.79168 0 0 1 8.3968 42.6496 30.75584 30.75584 0 0 1-25.5488 13.6192c-5.888 0-11.8272-1.6896-17.1008-5.2224-41.6768-28.0576-91.0848-6.144-91.5456-5.888z" fill="#FF5C64" p-id="5876"></path><path d="M287.5392 467.2512c-7.2192-15.36-0.6656-33.6384 14.6944-40.8576 2.4064-1.1264 44.7488-20.5312 95.0784-12.1856 13.4144-13.4656 25.8048-27.9552 37.0688-43.264C354.0992 348.16 264.192 368.2816 201.0112 431.4624l-27.8016 27.8016 53.3504 53.3504a377.9072 377.9072 0 0 0 77.3632-29.952 30.464 30.464 0 0 1-16.384-15.4112z" fill="#FF716E" p-id="5877"></path></svg>