<svg class="icon" style="width: 1em;height: 1em;vertical-align: middle;fill: currentColor;overflow: hidden;" viewBox="0 0 1024 1024" version="1.1" xmlns="http://www.w3.org/2000/svg" p-id="2063"><path d="M511.744 515.9936m-450.816 0a450.816 450.816 0 1 0 901.632 0 450.816 450.816 0 1 0-901.632 0Z" fill="#E9ECFF" p-id="2064"></path><path d="M805.6832 324.1472V303.104c0-30.1568-24.4224-54.5792-54.5792-54.5792H272.384c-30.1568 0-54.5792 24.4224-54.5792 54.5792v21.0432h587.8784z" fill="#757BF2" p-id="2065"></path><path d="M217.8048 375.3472v353.536c0 30.1568 24.4224 54.5792 54.5792 54.5792h478.72c30.1568 0 54.5792-24.4224 54.5792-54.5792V375.3472H217.8048z m302.2336 236.6976h-15.5136c-97.9968 0-177.7152-80.4352-177.7152-179.2512 0-12.7488 10.2912-23.04 23.04-23.04s23.04 10.2912 23.04 23.04c0 73.4208 59.0336 133.1712 131.6352 133.1712h15.5136c72.5504 0 131.6352-59.7504 131.6352-133.1712 0-12.7488 10.2912-23.04 23.04-23.04s23.04 10.2912 23.04 23.04c0 98.8672-79.7184 179.2512-177.7152 179.2512z" fill="#6C6CEA" p-id="2066"></path><path d="M805.6832 375.3472H217.8048v353.536c0 30.1568 24.4224 54.5792 54.5792 54.5792h237.312c144.2304-46.8992 256.5632-164.5568 295.9872-312.0128V375.3472z m-285.6448 236.6976h-15.5136c-97.9968 0-177.7152-80.4352-177.7152-179.2512 0-12.7488 10.2912-23.04 23.04-23.04s23.04 10.2912 23.04 23.04c0 73.4208 59.0336 133.1712 131.6352 133.1712h15.5136c72.5504 0 131.6352-59.7504 131.6352-133.1712 0-12.7488 10.2912-23.04 23.04-23.04s23.04 10.2912 23.04 23.04c0 98.8672-79.7184 179.2512-177.7152 179.2512z" fill="#757BF2" p-id="2067"></path><path d="M694.4768 248.5248H272.384c-30.1568 0-54.5792 24.4224-54.5792 54.5792v21.0432h460.9536c7.3216-24.3712 12.5952-49.664 15.7184-75.6224zM217.8048 644.4544c9.6256 0.6144 19.3024 0.9728 29.0816 0.9728 70.144 0 136.4992-16.0256 195.7376-44.5952-67.5328-25.3952-115.7632-91.136-115.7632-167.9872 0-12.7488 10.2912-23.04 23.04-23.04s23.04 10.2912 23.04 23.04c0 72.7552 57.9584 132.0448 129.5872 133.12 68.7104-47.36 123.5968-113.3056 157.44-190.5664H217.8048v269.056z" fill="#8486F8" p-id="2068"></path><path d="M530.6368 248.5248H272.384c-30.1568 0-54.5792 24.4224-54.5792 54.5792v21.0432h261.5296c19.5584-23.296 36.7616-48.64 51.3024-75.6224zM217.8048 477.952a447.2832 447.2832 0 0 0 109.2608-35.6864c-0.1536-3.1232-0.256-6.2976-0.256-9.472 0-12.7488 10.2912-23.04 23.04-23.04a23.04 23.04 0 0 1 18.8928 9.8816 451.1744 451.1744 0 0 0 60.416-44.3392H217.8048v102.656z" fill="#8D92F8" p-id="2069"></path></svg>