<svg class="icon" style="width: 1em;height: 1em;vertical-align: middle;fill: currentColor;overflow: hidden;" viewBox="0 0 1024 1024" version="1.1" xmlns="http://www.w3.org/2000/svg" p-id="1713"><path d="M512.3072 516.608m-450.816 0a450.816 450.816 0 1 0 901.632 0 450.816 450.816 0 1 0-901.632 0Z" fill="#E3FFF3" p-id="1714"></path><path d="M660.8384 401.5104c-71.0144 0.9216-132.9664 20.3264-181.3504 72.0384-49.3568 52.736-62.5664 113.4592-37.2736 187.392-32.3584-3.7888-61.3376-7.7312-90.368-10.2912-8.4992-0.768-18.4832 0.1024-25.7536 4.0448-21.504 11.6224-41.6768 25.6512-62.976 37.5808-5.0176 2.816-13.7216 3.2768-18.5344 0.7168-3.1744-1.6896-4.1984-11.1616-3.0208-16.4352 3.9424-17.5104 8.7552-34.9184 14.3872-51.968 3.7376-11.4176 1.3824-18.2784-8.2432-26.3168-66.816-55.6544-92.16-126.1568-67.1232-209.9712 17.3056-57.9072 58.4192-97.9968 111.872-125.5424 99.0208-51.0464 223.2832-36.4544 306.0736 36.1984 30.8224 27.0336 51.9168 60.16 62.3104 102.5536z m-158.9248 5.888c16.384-0.4096 29.1328-13.0048 28.7744-28.5184-0.3072-15.5136-13.3632-27.2384-30.1568-26.9824-16.1792 0.256-29.7984 13.3632-29.44 28.3648 0.3584 14.5408 15.1552 27.5456 30.8224 27.136z m-160.2048 0c16.2816-0.4608 29.2352-13.312 28.7744-28.6208-0.4608-15.616-13.5168-27.1872-30.2592-26.88-16.384 0.256-29.3376 13.0048-28.928 28.416 0.4096 15.2064 14.2848 27.5456 30.4128 27.0848z" fill="#1DCE75" p-id="1715"></path><path d="M843.5712 588.6464c-0.4608 56.8832-21.8624 94.8736-57.5488 125.2864-9.0112 7.68-11.52 14.7456-9.1648 25.4976 2.1504 9.6768 3.6352 19.5584 4.096 29.44 0.2048 4.9152-1.2288 12.5952-4.4032 14.2336-4.3008 2.2016-11.7248 1.3824-16.5888-0.8704-8.96-4.1472-18.0224-9.1648-25.2928-15.7184-13.6192-12.288-27.5968-12.8-45.4144-9.8816-58.7264 9.5744-114.432-0.4096-162.1504-37.3248-88.7296-68.7104-86.4768-182.1184 3.84-248.7808 86.784-64.0512 218.2656-46.1824 283.5968 39.0656 19.712 25.6512 30.1568 55.0912 29.0304 79.0528z m-250.624-18.432c12.7488 0 23.2448-9.6768 22.9888-21.1968-0.2048-11.3664-11.264-21.6064-23.1424-21.504-11.9808 0.1024-22.8864 10.3424-22.9888 21.6064-0.1536 11.4688 10.4448 21.0944 23.1424 21.0944z m134.4512-19.0464c0.4096-13.056-9.8816-23.5008-21.9136-23.6544-12.0832-0.1536-22.9376 9.984-22.9888 21.504-0.0512 11.5712 10.5472 21.6064 23.0912 21.1456 12.9024-0.4608 20.4288-7.2704 21.8112-18.9952z" fill="#05C46D" p-id="1716"></path><path d="M815.616 511.0272c-0.3584-0.4608-0.6656-0.9728-1.024-1.4336-65.3312-85.2992-196.8128-103.1168-283.5968-39.0656-90.3168 66.6624-92.6208 180.1216-3.84 248.7808 4.9664 3.84 10.0352 7.3216 15.2064 10.5984 119.0912-30.9248 218.0608-111.7696 273.2544-218.88z m-222.6688 59.1872c-12.6976 0-23.296-9.6256-23.1424-21.0944 0.1536-11.264 11.008-21.504 22.9888-21.6064 11.8784-0.1024 22.9376 10.1376 23.1424 21.504 0.256 11.5712-10.24 21.248-22.9888 21.1968z m112.64-0.0512c-12.544 0.4608-23.1424-9.6256-23.0912-21.1456 0.0512-11.4688 10.9568-21.6576 22.9888-21.504 12.032 0.1536 22.3232 10.5984 21.9136 23.6544-1.3824 11.7248-8.9088 18.5344-21.8112 18.9952z" fill="#1DCE75" p-id="1717"></path><path d="M598.5792 298.9568c-82.7392-72.704-207.0528-87.2448-306.0736-36.1984-53.4528 27.5456-94.5664 67.6352-111.872 125.5424-23.1936 77.6192-3.1744 143.8208 52.992 197.376 21.5552 3.1744 43.6224 4.8128 66.048 4.8128 45.6704 0 89.7024-6.8096 131.2256-19.4048 4.4544-35.6864 20.7872-67.8912 48.5888-97.5872 48.384-51.712 110.2848-71.0656 181.3504-72.0384-10.3936-42.3424-31.488-75.4688-62.2592-102.5024zM341.7088 407.3984c-16.1792 0.4096-30.0032-11.8784-30.4128-27.0848-0.4096-15.4112 12.544-28.16 28.928-28.416 16.7936-0.3072 29.7984 11.264 30.2592 26.88 0.4608 15.3088-12.4928 28.2112-28.7744 28.6208z m160.2048 0c-15.7184 0.4096-30.464-12.6464-30.8224-27.1872-0.3584-15.0016 13.2608-28.1088 29.44-28.3648 16.7424-0.256 29.7984 11.4688 30.1568 26.9824 0.3584 15.5648-12.3904 28.16-28.7744 28.5696z" fill="#3CD38E" p-id="1718"></path><path d="M530.9952 470.4768c-35.3792 26.112-57.1904 59.4432-65.3824 94.4128 73.0624-27.0336 136.7552-73.3696 184.8832-132.864-42.24 0.1536-84.5312 12.6464-119.5008 38.4512z" fill="#3CD38E" p-id="1719"></path><path d="M311.296 380.3648c-0.4096-15.4112 12.544-28.16 28.928-28.416 16.7936-0.3072 29.7984 11.264 30.2592 26.88 0.1536 5.3248-1.3312 10.3936-4.0448 14.6944 68.1984-29.7472 127.5904-75.8784 173.2608-133.4784-76.4928-37.0176-169.6256-37.3248-247.2448 2.7136-53.4016 27.5456-94.5152 67.6352-111.8208 125.5424-4.352 14.5408-7.168 28.7232-8.4992 42.4448 4.7104 0.1536 9.4208 0.256 14.1824 0.256 51.456 0 100.9152-8.6528 146.9952-24.5248-12.288-3.1744-21.6576-13.6704-22.016-26.112z" fill="#48E1AA" p-id="1720"></path></svg>