<svg class="icon" style="width: 1em;height: 1em;vertical-align: middle;fill: currentColor;overflow: hidden;" viewBox="0 0 1024 1024" version="1.1" xmlns="http://www.w3.org/2000/svg" p-id="1695"><path d="M511.5904 511.488m-450.816 0a450.816 450.816 0 1 0 901.632 0 450.816 450.816 0 1 0-901.632 0Z" fill="#FFE3DB" p-id="1696"></path><path d="M470.3232 770.0992c-67.4304-2.048-142.4896-10.1888-210.3808-48.5376-46.4384-26.2656-76.9024-65.0752-83.3024-119.7056-3.6352-30.9248 6.0416-59.2384 19.4048-86.3232 19.712-40.1408 48.896-73.1136 80.384-104.2944 35.9936-35.6352 75.52-66.5088 123.3408-84.224 18.9952-7.0144 39.8848-11.4176 60.1088-12.0832 38.656-1.2288 56.3712 27.4432 53.1456 66.2528-0.5632 6.8096-3.1232 13.4144-3.84 20.224-0.8192 7.9872 3.2256 12.6976 11.52 11.264 7.8848-1.3824 15.8208-3.3792 23.3984-6.0416 29.1328-10.3424 58.4704-19.968 89.9072-16.64 43.8784 4.6592 63.3344 39.5264 45.312 79.8208-9.216 20.6336-8.6016 19.0976 13.1584 27.4944 17.8176 6.912 36.608 15.1552 50.3296 27.8016 32 29.5424 34.2016 72.5504 10.1376 114.4832-25.9584 45.2608-65.9456 73.728-112.4352 94.208-51.4048 22.6304-105.5232 33.4336-170.1888 36.3008z m-4.9664-296.192c-9.3184 0-18.6368-0.6144-27.904 0.1024-53.2992 4.1984-103.6288 17.7664-147.0464 50.4832-24.9344 18.7904-44.0832 42.2912-47.9744 74.3936-5.2224 43.2128 15.872 74.496 50.3808 96.512 66.3552 42.3424 138.8544 47.2576 213.6576 29.5936 46.1312-10.9056 87.6544-31.3344 118.9376-68.352 21.8112-25.8048 34.0992-54.9888 25.856-89.6-6.7072-28.3136-25.6512-47.5136-49.6128-61.5424-41.8816-24.6272-88.1152-32.9216-136.2944-31.5904zM664.7808 242.0736c71.5776 4.7104 130.5088 30.3104 165.12 96 19.0976 36.2496 22.4256 75.4688 13.4144 114.7392-1.9968 8.6528-4.1472 17.2544-6.4512 25.856-3.584 13.3632-19.2512 24.2176-34.816 19.0976-11.776-3.8912-19.7632-12.288-20.3264-24.8832-0.3072-7.1168 1.0752-13.3632 3.4816-20.0192 20.224-55.296-4.352-119.4496-68.1472-145.5104-29.2864-11.9296-59.0848-18.432-90.88-8.4992-16.64 5.1712-30.5664-3.6352-33.7408-18.5344-3.2256-15.2064 6.144-31.1808 23.3472-34.1504 16.2816-2.816 30.8736-4.096 48.9984-4.096z" fill="#F23D4F" p-id="1697"></path><path d="M667.1872 332.9024c59.8016 1.1776 93.5936 43.3152 81.8176 102.656-2.0992 10.496-9.9328 16.384-19.968 14.9504-10.5984-1.536-16.7936-9.7792-16.2816-20.5312 0.4096-9.1648 1.28-18.6368-0.3072-27.5456-4.5056-24.832-20.3776-36.4544-45.6704-34.8672-6.8608 0.4096-13.7216 1.9456-20.5312 1.7408-9.5232-0.256-16.128-4.9664-16.9472-15.3088-0.8192-10.1376 4.4544-16.2816 13.8752-18.2272 7.8336-1.6384 15.9744-1.9456 24.0128-2.8672z" fill="#FC4956" p-id="1698"></path><path d="M539.5456 610.4064c0.9728 24.8832-9.472 44.6976-27.5968 60.7232-43.4688 38.4-109.824 44.1856-159.488 14.2336-22.8352-13.7216-31.8464-37.6832-28.4672-68.3008 6.5024-58.9824 47.2064-89.5488 101.12-94.208 15.0528-1.28 30.8224-0.768 45.6192 2.2528 44.2368 9.0624 68.7616 40.4992 68.8128 85.2992z m-122.5216-4.7104c-8.0896-3.7888-17.3056-4.3008-26.0608-2.4576-3.4304 0.7168-6.7584 1.536-9.984 2.816-15.3088 6.144-26.2144 24.4224-23.7056 38.5024 2.2016 12.288 15.2064 22.7328 30.7712 22.3744 8.96-0.2048 18.5344-2.4064 26.624-6.2464 15.616-7.3728 22.784-22.7328 19.0976-36.5056-2.1504-8.0896-8.2432-14.4896-16.7424-18.4832z m52.8384-11.6736c-3.4304-6.9632-12.2368-9.728-19.1488-6.2464-5.8368 2.9696-9.1136 8.0384-9.0624 13.7216 0.0512 8.0384 3.9936 13.0048 12.1856 13.3632 8.704 0.4096 18.7392-9.3696 17.0496-17.9712a14.7456 14.7456 0 0 0-1.024-2.8672z" fill="#F23D4F" p-id="1699"></path><path d="M785.3056 283.2896c-32.6656-26.112-73.8816-38.144-120.5248-41.216-18.1248 0-32.7168 1.28-48.9984 4.096-17.2544 3.0208-26.624 18.944-23.3472 34.1504 3.1744 14.8992 17.1008 23.7056 33.7408 18.5344 31.7952-9.8816 61.5936-3.4304 90.88 8.4992 41.6768 16.9984 66.5088 50.2784 73.1648 86.7328 1.28-12.8 1.9968-25.7024 1.9968-38.8096-0.0512-24.576-2.5088-48.5888-6.912-71.9872zM749.3632 532.0704c-2.0992-2.3552-4.2496-4.7104-6.656-6.912-13.7216-12.6464-32.512-20.9408-50.3296-27.8016-21.76-8.3968-22.3232-6.8608-13.1584-27.4944 17.9712-40.2944-1.4336-75.1616-45.312-79.8208-31.4368-3.328-60.7744 6.2976-89.9072 16.64-7.5776 2.6624-15.4624 4.6592-23.3984 6.0416-8.2944 1.4336-12.3392-3.2768-11.52-11.264 0.7168-6.8096 3.2768-13.4144 3.84-20.224 3.2256-38.8096-14.4896-67.4816-53.1456-66.2528-20.1728 0.6144-41.1136 5.0688-60.1088 12.0832-47.8208 17.664-87.3472 48.5888-123.3408 84.224-31.488 31.1808-60.672 64.1536-80.384 104.2944-13.312 27.136-22.9888 55.3984-19.3536 86.3232 6.4 54.6816 36.864 93.4912 83.3024 119.7056 28.0064 15.8208 57.1904 26.4192 86.6304 33.6384 9.216 0.5632 18.5344 0.9728 27.904 0.9728 164.608 0 306.8928-91.392 374.9376-224.1536z m-123.904 124.5696c-31.2832 37.0176-72.8064 57.4464-118.9376 68.352-74.8032 17.664-147.3024 12.7488-213.6576-29.5936-34.5088-22.016-55.6032-53.2992-50.3808-96.512 3.8912-32.1024 23.04-55.6032 47.9744-74.3936 43.4176-32.7168 93.7472-46.2848 147.0464-50.4832 9.2672-0.7168 18.5856-0.1024 27.904-0.1024 48.1792-1.3312 94.4128 7.0144 136.3968 31.5904 23.9616 14.0288 42.9056 33.2288 49.6128 61.5424 8.1408 34.6112-4.1472 63.7952-25.9584 89.6z" fill="#FC4956" p-id="1700"></path><path d="M664.7808 242.0736c-18.1248 0-32.7168 1.28-48.9984 4.096-17.2544 3.0208-26.624 18.944-23.3472 34.1504 3.1744 14.8992 17.1008 23.7056 33.7408 18.5344 14.7456-4.5568 29.0304-5.632 43.0592-4.2496 3.6352-16.7936 6.0416-34.048 7.424-51.5584-3.9936-0.3584-7.8848-0.7168-11.8784-0.9728zM242.432 598.8864c3.8912-32.1024 23.04-55.6032 47.9744-74.3936 43.4176-32.7168 93.7472-46.2848 147.0464-50.4832 9.2672-0.7168 18.5856-0.1024 27.904-0.1024 34.0992-0.9216 67.2256 3.0208 98.56 14.08 28.416-28.928 52.4288-61.7984 70.9632-97.8432-0.3072-0.0512-0.6144-0.1024-0.9728-0.1536-31.4368-3.328-60.7744 6.2976-89.9072 16.64-7.5776 2.6624-15.4624 4.6592-23.3984 6.0416-8.2944 1.4336-12.3392-3.2768-11.52-11.264 0.7168-6.8096 3.2768-13.4144 3.84-20.224 3.2256-38.8096-14.4896-67.4816-53.1456-66.2528-20.1728 0.6144-41.1136 5.0688-60.1088 12.0832-47.8208 17.664-87.3472 48.5888-123.3408 84.224-31.488 31.1808-60.672 64.1536-80.384 104.2944-13.312 27.136-22.9888 55.3984-19.3536 86.3232 0.1536 1.3824 0.4096 2.7136 0.6144 4.0448 20.992 4.0448 42.496 6.5536 64.4608 7.4752-0.0512-4.6592 0.2048-9.472 0.768-14.4896zM643.1232 335.7696c-9.4208 1.9456-14.6944 8.0896-13.8752 18.2272 0.768 9.8816 6.8608 14.5408 15.7184 15.2064 5.0688-11.52 9.6256-23.3472 13.568-35.4304-5.1712 0.4608-10.3424 0.9216-15.4112 1.9968z" fill="#FF5C64" p-id="1701"></path><path d="M483.3792 318.7712c-6.7072-2.7136-14.5408-4.096-23.552-3.84-20.1728 0.6144-41.1136 5.0688-60.1088 12.0832-47.8208 17.664-87.3472 48.5888-123.3408 84.224-17.5104 17.3056-34.2528 35.2768-49.1008 54.6304C330.752 448.5632 421.0688 394.752 483.3792 318.7712z" fill="#FF716E" p-id="1702"></path><path d="M470.6816 525.1072c-14.7456-3.0208-30.5664-3.584-45.6192-2.2528-52.3776 4.5568-92.2112 33.5872-100.4032 89.344 99.0208-18.688 162.7648-59.1872 181.504-72.3456-9.7792-6.912-21.6576-11.9296-35.4816-14.7456z" fill="#FF5C64" p-id="1703"></path></svg>