<svg class="icon" style="width: 1em;height: 1em;vertical-align: middle;fill: currentColor;overflow: hidden;" viewBox="0 0 1024 1024" version="1.1" xmlns="http://www.w3.org/2000/svg" p-id="3692"><path d="M511.744 513.1264m-450.816 0a450.816 450.816 0 1 0 901.632 0 450.816 450.816 0 1 0-901.632 0Z" fill="#FFF1DC" p-id="3693"></path><path d="M728.0128 366.2848h-36.1472V301.4144c0-30.4128-24.6272-55.04-55.04-55.04h-328.192c-30.4128 0-55.04 24.6272-55.04 55.04v444.672c0 30.4128 24.6272 55.04 55.04 55.04h310.5792v0.1024h108.8c35.328 0 64.1024-27.3408 64.1024-60.928V427.2128c0-33.5872-28.7744-60.928-64.1024-60.928z m-389.7344 13.5168c0-9.5744 7.7824-17.3568 17.3568-17.3568h128.0512c9.5744 0 17.3568 7.7824 17.3568 17.3568v52.6336c0 9.5744-7.7824 17.3568-17.3568 17.3568H355.6352c-9.5744 0-17.3568-7.7824-17.3568-17.3568V379.8016z m243.3024 308.2752H358.6048c-13.9776 0-25.2928-11.3152-25.2928-25.2928s11.3152-25.2928 25.2928-25.2928h222.976c13.9776 0 25.2928 11.3152 25.2928 25.2928s-11.3152 25.2928-25.2928 25.2928z m0-118.0672H358.6048c-13.9776 0-25.2928-11.3152-25.2928-25.2928 0-13.9776 11.3152-25.2928 25.2928-25.2928h222.976c13.9776 0 25.2928 11.3152 25.2928 25.2928 0 13.9776-11.3152 25.2928-25.2928 25.2928z m159.9488 170.24c0 7.1168-6.0928 12.8512-13.5168 12.8512h-36.6592c0.3072-2.304 0.512-4.6592 0.512-7.0656V414.3616h36.1472c7.4752 0 13.5168 5.7856 13.5168 12.8512v313.0368z" fill="#FC7032" p-id="3694"></path><path d="M781.2096 393.2672c-11.52-16.2816-31.0784-26.9824-53.1968-26.9824h-36.1472V301.4144c0-30.4128-24.6272-55.04-55.04-55.04h-328.192c-30.4128 0-55.04 24.6272-55.04 55.04v444.672c0 30.4128 24.6272 55.04 55.04 55.04h81.152c123.136-15.7184 230.7072-81.1008 302.0288-175.4112V414.3616h36.1472c7.4752 0 13.5168 5.7856 13.5168 12.8512v115.6096a446.0544 446.0544 0 0 0 39.7312-149.5552z m-442.9312-13.4656c0-9.5744 7.7824-17.3568 17.3568-17.3568h128.0512c9.5744 0 17.3568 7.7824 17.3568 17.3568v52.6336c0 9.5744-7.7824 17.3568-17.3568 17.3568H355.6352c-9.5744 0-17.3568-7.7824-17.3568-17.3568V379.8016z m243.3024 308.2752H358.6048c-13.9776 0-25.2928-11.3152-25.2928-25.2928s11.3152-25.2928 25.2928-25.2928h222.976c13.9776 0 25.2928 11.3152 25.2928 25.2928s-11.3152 25.2928-25.2928 25.2928z m0-118.0672H358.6048c-13.9776 0-25.2928-11.3152-25.2928-25.2928 0-13.9776 11.3152-25.2928 25.2928-25.2928h222.976c13.9776 0 25.2928 11.3152 25.2928 25.2928 0 13.9776-11.3152 25.2928-25.2928 25.2928z" fill="#FF7E3E" p-id="3695"></path><path d="M457.2672 570.0096H358.6048c-13.9776 0-25.2928-11.3152-25.2928-25.2928 0-13.9776 11.3152-25.2928 25.2928-25.2928h161.9456c72.96-69.888 122.4704-164.0448 135.5776-269.5168-6.0416-2.2528-12.544-3.584-19.3536-3.584h-328.192c-30.4128 0-55.04 24.6272-55.04 55.04v341.0432a447.0272 447.0272 0 0 0 203.7248-72.3968zM338.2784 379.8016c0-9.5744 7.7824-17.3568 17.3568-17.3568h128.0512c9.5744 0 17.3568 7.7824 17.3568 17.3568v52.6336c0 9.5744-7.7824 17.3568-17.3568 17.3568H355.6352c-9.5744 0-17.3568-7.7824-17.3568-17.3568V379.8016z" fill="#FF9552" p-id="3696"></path><path d="M338.2784 414.1568v-34.4064c0-9.5744 7.7824-17.3568 17.3568-17.3568h48.896a452.47488 452.47488 0 0 0 88.7808-116.0704H308.6336c-30.4128 0-55.04 24.6272-55.04 55.04v155.1872a445.3376 445.3376 0 0 0 84.6848-42.3936z" fill="#FFA56A" p-id="3697"></path></svg>