<svg class="icon" style="width: 1em;height: 1em;vertical-align: middle;fill: currentColor;overflow: hidden;" viewBox="0 0 1024 1024" version="1.1" xmlns="http://www.w3.org/2000/svg" p-id="2841"><path d="M509.9008 513.1264m-450.816 0a450.816 450.816 0 1 0 901.632 0 450.816 450.816 0 1 0-901.632 0Z" fill="#FFE3DB" p-id="2842"></path><path d="M843.008 445.4912l-79.872 3.4304 1.792 41.472-36.5568-22.272c6.0928-19.0976 9.4208-39.424 9.4208-60.5184 0-109.824-89.344-199.168-199.168-199.168S339.456 297.728 339.456 407.552s89.344 199.168 199.168 199.168c60.0576 0 113.92-26.7264 150.4768-68.9152l38.7584 23.6032-41.2672 23.808 39.9872 69.2736 122.368-70.656-5.9392-138.3424z m-304.384 81.2544c-65.7408 0-119.1936-53.4528-119.1936-119.1936s53.504-119.1936 119.1936-119.1936 119.1936 53.504 119.1936 119.1936-53.4528 119.1936-119.1936 119.1936z" fill="#F23D4F" p-id="2843"></path><path d="M433.664 643.84c13.7728-3.1744 26.9824-7.7824 39.4752-13.6192a231.48544 231.48544 0 0 1-102.5536-62.6688c-57.0368-8.8576-100.8128-58.3168-100.8128-117.8112 0-36.2496 16.2816-68.7104 41.8816-90.624a231.3216 231.3216 0 0 1 54.8864-107.264C267.264 263.0656 189.7984 347.4944 189.7984 449.7408c0 97.792 70.8608 179.2512 163.8912 195.9936v31.3344H285.4912v79.9744h68.1984v57.1392H433.664v-57.1392h68.1984v-79.9744H433.664v-33.2288z" fill="#F23D4F" p-id="2844"></path><path d="M737.792 407.552c0-109.824-89.344-199.168-199.168-199.168S339.456 297.728 339.456 407.552s89.344 199.168 199.168 199.168c60.0576 0 113.92-26.7264 150.4768-68.9152l6.4 3.8912c18.0224-32.9216 31.6416-68.608 40.2944-106.1888 1.28-9.1136 1.9968-18.432 1.9968-27.9552z m-199.168 119.1936c-65.7408 0-119.1936-53.4528-119.1936-119.1936 0-65.7408 53.504-119.1936 119.1936-119.1936s119.1936 53.504 119.1936 119.1936c0 65.7408-53.4528 119.1936-119.1936 119.1936z" fill="#FC4956" p-id="2845"></path><path d="M433.664 643.84c13.7728-3.1744 26.9824-7.7824 39.5264-13.6192a231.48544 231.48544 0 0 1-102.5536-62.6688C313.6 558.6944 269.824 509.2352 269.824 449.7408c0-36.2496 16.2816-68.7104 41.8816-90.624A231.56736 231.56736 0 0 1 366.592 251.8528c-99.328 11.2128-176.7936 95.6416-176.7936 197.888 0 97.792 70.8608 179.2512 163.8912 195.9936v31.3344H285.4912v78.08c7.5264 0.8192 15.1552 1.4848 22.8352 1.8944h45.3632v0.0512a413.4656 413.4656 0 0 0 148.1728-36.096v-43.9296H433.664v-33.2288z" fill="#FC4956" p-id="2846"></path><path d="M419.4304 407.552c0-65.7408 53.504-119.1936 119.1936-119.1936 28.9792 0 55.552 10.3936 76.2368 27.648a413.50144 413.50144 0 0 0 16.2816-84.736 197.6832 197.6832 0 0 0-92.5184-22.8864c-109.824 0-199.168 89.344-199.168 199.168 0 62.0544 28.5184 117.504 73.1136 154.0608 25.4976-13.6192 49.4592-29.7472 71.424-48.1792-38.2976-19.8144-64.5632-59.8528-64.5632-105.8816z" fill="#FF5C64" p-id="2847"></path><path d="M370.5856 567.552c-57.0368-8.8576-100.8128-58.3168-100.8128-117.8112 0-36.2496 16.2816-68.7104 41.8816-90.624a231.56736 231.56736 0 0 1 54.8864-107.264C267.264 263.0656 189.7984 347.4944 189.7984 449.7408c0 64 30.3616 120.9856 77.3632 157.44 39.68-4.7104 77.6704-14.9504 113.1008-30.0544-3.2768-3.1232-6.5536-6.2976-9.6768-9.5744z" fill="#FF5C64" p-id="2848"></path><path d="M311.6544 359.1168a231.56736 231.56736 0 0 1 54.8864-107.264C267.264 263.0656 189.7984 347.4944 189.7984 449.7408c0 2.1504 0.0512 4.2496 0.1536 6.3488 28.16-5.2736 55.296-13.312 81.152-23.9616 4.352-29.0816 19.2-54.7328 40.5504-73.0112zM339.8144 395.9296C407.5008 351.744 461.5168 288.3584 494.08 213.4528c-84.7872 19.456-149.0944 93.1328-154.2656 182.4768z" fill="#FF716E" p-id="2849"></path></svg>