<svg class="icon" style="width: 1em;height: 1em;vertical-align: middle;fill: currentColor;overflow: hidden;" viewBox="0 0 1024 1024" version="1.1" xmlns="http://www.w3.org/2000/svg" p-id="2367"><path d="M509.1328 509.5936m-450.816 0a450.816 450.816 0 1 0 901.632 0 450.816 450.816 0 1 0-901.632 0Z" fill="#E9F4FF" p-id="2368"></path><path d="M626.7392 478.6688c-14.4384 14.336-33.3312 21.504-52.1728 21.504-19.0464 0-38.0928-7.3216-52.5824-21.9136-28.8256-29.0304-28.672-75.9296 0.3584-104.7552l148.8896-147.8144h-353.28c-46.848 0-84.8384 37.9904-84.8384 84.8384v417.1264c0 46.848 37.9904 84.8384 84.8384 84.8384h359.8848c46.848 0 84.8384-37.9904 84.8384-84.8384v-384l-135.936 135.0144z m-281.1904-36.5568h94.0544c15.4624 0 28.0064 12.544 28.0064 28.0064 0 15.4624-12.544 28.0064-28.0064 28.0064H345.5488c-15.4624 0-28.0064-12.544-28.0064-28.0064-0.0512-15.4624 12.544-28.0064 28.0064-28.0064z m257.6384 221.7472H335.3088c-15.4624 0-28.0064-12.544-28.0064-28.0064s12.544-28.0064 28.0064-28.0064h267.8784c15.4624 0 28.0064 12.544 28.0064 28.0064s-12.4928 28.0064-28.0064 28.0064z" fill="#2595E8" p-id="2369"></path><path d="M574.5664 454.144c-7.2192 0-14.3872-2.7648-19.9168-8.2944a27.99616 27.99616 0 0 1 0.1536-39.6288l188.3136-186.6752a27.99616 27.99616 0 0 1 39.6288 0.1536 27.99616 27.99616 0 0 1-0.1536 39.6288l-188.3136 186.6752a27.83232 27.83232 0 0 1-19.712 8.1408z" fill="#2595E8" p-id="2370"></path><path d="M737.3824 225.28l-182.5792 180.9408a27.99616 27.99616 0 0 0-0.1536 39.6288 27.94496 27.94496 0 0 0 19.9168 8.2944c7.1168 0 14.2848-2.7136 19.7632-8.1408l158.72-157.3376c-3.7376-21.7088-8.96-42.8544-15.6672-63.3856z" fill="#3A9CED" p-id="2371"></path><path d="M574.5664 500.1728c-19.0464 0-38.0928-7.3216-52.5824-21.9136-28.8256-29.0304-28.672-75.9296 0.3584-104.7552l148.8896-147.8144h-353.28c-46.848 0-84.8384 37.9904-84.8384 84.8384v417.1264c0 46.848 37.9904 84.8384 84.8384 84.8384h45.2096c223.2832-26.88 396.3904-216.9856 396.3904-447.5392 0-5.9392-0.1536-11.8784-0.3584-17.7664l-132.352 131.3792a73.64608 73.64608 0 0 1-52.2752 21.6064zM345.5488 442.112h94.0544c15.4624 0 28.0576 12.544 28.0576 28.0064 0 15.4624-12.544 28.0064-28.0576 28.0064H345.5488c-15.4624 0-28.0064-12.544-28.0064-28.0064-0.0512-15.4624 12.544-28.0064 28.0064-28.0064z m257.6384 221.7472H335.3088c-15.4624 0-28.0064-12.544-28.0064-28.0064 0-15.4624 12.544-28.0064 28.0064-28.0064h267.8784c15.4624 0 28.0576 12.544 28.0576 28.0064 0 15.4624-12.544 28.0064-28.0576 28.0064z" fill="#3A9CED" p-id="2372"></path><path d="M554.8032 406.2208a27.99616 27.99616 0 0 0-0.1536 39.6288c2.4064 2.4576 5.2224 4.2496 8.1408 5.632a450.58048 450.58048 0 0 0 49.92-102.656l-57.9072 57.3952z" fill="#59ADF8" p-id="2373"></path><path d="M307.5072 639.0272c-0.1024-1.0752-0.2048-2.0992-0.2048-3.2256 0-15.4624 12.544-28.0064 28.0064-28.0064h52.6336a452.27008 452.27008 0 0 0 147.5072-118.8352c-4.7616-2.9696-9.3184-6.5024-13.4656-10.6496-28.8256-29.0304-28.672-75.9296 0.3584-104.7552l109.9264-109.1072c1.6896-12.7488 2.816-25.6512 3.4304-38.7072H317.952c-46.848 0-84.8384 37.9904-84.8384 84.8384v342.6816c25.4464-2.6624 50.3296-7.4752 74.3936-14.2336z m38.0416-196.9152h94.0544c15.4624 0 28.0576 12.544 28.0576 28.0064 0 15.4624-12.544 28.0064-28.0576 28.0064H345.5488c-15.4624 0-28.0064-12.544-28.0064-28.0064-0.0512-15.4624 12.544-28.0064 28.0064-28.0064z" fill="#59ADF8" p-id="2374"></path><path d="M485.2736 225.7408H317.952c-46.848 0-84.8384 37.9904-84.8384 84.8384v155.9552c112.8448-43.2128 203.9296-130.4576 252.16-240.7936z" fill="#6BC2FC" p-id="2375"></path></svg>