<svg class="icon" style="width: 1em;height: 1em;vertical-align: middle;fill: currentColor;overflow: hidden;" viewBox="0 0 1024 1024" version="1.1" xmlns="http://www.w3.org/2000/svg" p-id="845"><path d="M517.9392 513.3312m-450.816 0a450.816 450.816 0 1 0 901.632 0 450.816 450.816 0 1 0-901.632 0Z" fill="#FFF1DC" p-id="846"></path><path d="M574.0032 324.352H459.6224c-30.8224 0-55.808-24.9856-55.808-55.808 0-30.8224 24.9856-55.808 55.808-55.808h114.3808c30.8224 0 55.808 24.9856 55.808 55.808-0.0512 30.8224-24.9856 55.808-55.808 55.808z" fill="#FF9552" p-id="847"></path><path d="M688.2816 251.9552h-25.1392c1.1264 5.5808 1.7408 11.3152 1.7408 17.2032 0 47.8208-38.8096 86.6304-86.6304 86.6304h-122.88c-47.8208 0-86.6304-38.8096-86.6304-86.6304 0-5.888 0.6144-11.6736 1.7408-17.2032h-25.1392c-43.9296 0-79.5136 35.584-79.5136 79.5136v382.3616c0 43.9296 35.584 79.5136 79.5136 79.5136h342.9376c43.9296 0 79.5136-35.584 79.5136-79.5136V331.4688c-0.0512-43.8784-35.6352-79.5136-79.5136-79.5136z m-170.5984 439.8592H377.6c-15.2576 0-27.648-12.3904-27.648-27.648s12.3904-27.648 27.648-27.648h140.0832c15.2576 0 27.648 12.3904 27.648 27.648s-12.3904 27.648-27.648 27.648z m142.2848-99.7888H377.6c-15.2576 0-27.648-12.3904-27.648-27.648s12.3904-27.648 27.648-27.648h282.368c15.2576 0 27.648 12.3904 27.648 27.648s-12.3904 27.648-27.648 27.648z m0-109.2608H377.6c-15.2576 0-27.648-12.3904-27.648-27.648s12.3904-27.648 27.648-27.648h282.368c15.2576 0 27.648 12.3904 27.648 27.648s-12.3904 27.648-27.648 27.648z" fill="#FC7032" p-id="848"></path><path d="M767.744 494.7968v-163.328c0-43.9296-35.584-79.5136-79.5136-79.5136h-25.1392c1.1264 5.5808 1.7408 11.3152 1.7408 17.2032 0 47.8208-38.8096 86.6304-86.6304 86.6304H455.3728c-47.8208 0-86.6304-38.8096-86.6304-86.6304 0-5.888 0.6144-11.6736 1.7408-17.2032h-25.1392c-43.9296 0-79.5136 35.584-79.5136 79.5136v382.3616c0 37.376 25.856 68.6592 60.6208 77.1584 5.8368 0.2048 11.6736 0.3584 17.5616 0.3584 194.816 0.0512 360.7552-123.4944 423.7312-296.5504z m-390.144-67.3792h282.368c15.2576 0 27.648 12.3904 27.648 27.648s-12.3904 27.648-27.648 27.648H377.6c-15.2576 0-27.648-12.3904-27.648-27.648s12.3904-27.648 27.648-27.648z m140.0832 264.3968H377.6c-15.2576 0-27.648-12.3904-27.648-27.648s12.3904-27.648 27.648-27.648h140.0832c15.2576 0 27.648 12.3904 27.648 27.648s-12.3904 27.648-27.648 27.648z m-140.0832-99.7888c-15.2576 0-27.648-12.3904-27.648-27.648s12.3904-27.648 27.648-27.648h282.368c15.2576 0 27.648 12.3904 27.648 27.648s-12.3904 27.648-27.648 27.648H377.6z" fill="#FF7C33" p-id="849"></path><path d="M404.992 592.0256h-27.392c-15.2576 0-27.648-12.3904-27.648-27.648s12.3904-27.648 27.648-27.648h119.3984c20.9408-16.2816 40.3968-34.304 58.1632-53.9648H377.6c-15.2576 0-27.648-12.3904-27.648-27.648s12.3904-27.648 27.648-27.648h220.3136a447.7952 447.7952 0 0 0 52.5824-110.5408c-15.5136 23.4496-42.0864 38.912-72.2944 38.912H455.3728c-47.8208 0-86.6304-38.8096-86.6304-86.6304 0-5.888 0.6144-11.6736 1.7408-17.2032h-25.1392c-43.9296 0-79.5136 35.584-79.5136 79.5136v297.5744a449.4336 449.4336 0 0 0 139.1616-37.0688zM664.4224 260.6592c0.512-2.8672 0.9728-5.7856 1.4336-8.704h-2.7648c0.6144 2.8672 1.024 5.7856 1.3312 8.704z" fill="#FF9552" p-id="850"></path><path d="M418.2528 347.392c-29.2352-13.9264-49.5104-43.6224-49.5104-78.1824 0-5.888 0.6144-11.6736 1.7408-17.2032h-25.1392c-43.9296 0-79.5136 35.584-79.5136 79.5136v111.5648a451.61984 451.61984 0 0 0 152.4224-95.6928zM515.3792 212.7872H459.6224c-30.8224 0-55.808 24.9856-55.808 55.808 0 25.0368 16.4864 46.2336 39.168 53.2992a452.60288 452.60288 0 0 0 72.3968-109.1072z" fill="#FFA56A" p-id="851"></path></svg>