<svg class="icon" style="width: 1em;height: 1em;vertical-align: middle;fill: currentColor;overflow: hidden;" viewBox="0 0 1024 1024" version="1.1" xmlns="http://www.w3.org/2000/svg" p-id="3299"><path d="M510.464 511.3856m-450.816 0a450.816 450.816 0 1 0 901.632 0 450.816 450.816 0 1 0-901.632 0Z" fill="#E9F4FF" p-id="3300"></path><path d="M681.8816 221.3376H339.0464c-51.0464 0-92.4672 41.4208-92.4672 92.4672v395.1616c0 51.0464 41.4208 92.4672 92.4672 92.4672h342.8352c51.0464 0 92.4672-41.4208 92.4672-92.4672V313.8048c0-51.0464-41.3696-92.4672-92.4672-92.4672z m-59.3408 444.16H398.4384c-22.5792 0-40.8576-18.2784-40.8576-40.8576s18.2784-40.8576 40.8576-40.8576h224.1024c22.5792 0 40.8576 18.2784 40.8576 40.8576s-18.2784 40.8576-40.8576 40.8576z m0-111.0016H398.4384c-22.5792 0-40.8576-18.2784-40.8576-40.8576s18.2784-40.8576 40.8576-40.8576h224.1024c22.5792 0 40.8576 18.2784 40.8576 40.8576s-18.2784 40.8576-40.8576 40.8576z m0-116.4288H398.4384c-22.5792 0-40.8576-18.2784-40.8576-40.8576s18.2784-40.8576 40.8576-40.8576h224.1024c22.5792 0 40.8576 18.2784 40.8576 40.8576s-18.2784 40.8576-40.8576 40.8576z" fill="#2595E8" p-id="3301"></path><path d="M774.3488 313.8048c0-51.0464-41.4208-92.4672-92.4672-92.4672H339.0464c-51.0464 0-92.4672 41.4208-92.4672 92.4672v395.1616c0 51.0464 41.4208 92.4672 92.4672 92.4672h47.2064c188.4672-20.224 342.1184-156.5696 388.096-336.0768v-151.552z m-151.808 351.6928H398.4384c-22.5792 0-40.8576-18.2784-40.8576-40.8576s18.2784-40.8576 40.8576-40.8576h224.1024c22.5792 0 40.8576 18.2784 40.8576 40.8576s-18.2784 40.8576-40.8576 40.8576z m0-111.0016H398.4384c-22.5792 0-40.8576-18.2784-40.8576-40.8576s18.2784-40.8576 40.8576-40.8576h224.1024c22.5792 0 40.8576 18.2784 40.8576 40.8576s-18.2784 40.8576-40.8576 40.8576z m0-116.4288H398.4384c-22.5792 0-40.8576-18.2784-40.8576-40.8576s18.2784-40.8576 40.8576-40.8576h224.1024c22.5792 0 40.8576 18.2784 40.8576 40.8576s-18.2784 40.8576-40.8576 40.8576z" fill="#3A9CED" p-id="3302"></path><path d="M339.0464 221.3376c-51.0464 0-92.4672 41.4208-92.4672 92.4672v328.96c38.6048-2.7136 75.8784-10.3424 111.2064-22.1696a40.8576 40.8576 0 0 1 40.6528-36.8128h40.96c15.4112-8.9088 30.3104-18.688 44.4928-29.3376H398.4384c-22.5792 0-40.8576-18.2784-40.8576-40.8576s18.2784-40.8576 40.8576-40.8576h169.472c8.8576-11.1616 17.152-22.7328 24.9344-34.7136H398.4384c-22.5792 0-40.8576-18.2784-40.8576-40.8576s18.2784-40.8576 40.8576-40.8576h224.1024c3.9936 0 7.8336 0.6144 11.4688 1.6384a449.41312 449.41312 0 0 0 30.208-136.704H339.0464z" fill="#59ADF8" p-id="3303"></path><path d="M246.5792 313.8048v146.5344a449.36704 449.36704 0 0 0 111.5648-56.5248c-0.3584-2.1504-0.5632-4.352-0.5632-6.6048 0-22.5792 18.2784-40.8576 40.8576-40.8576h17.152a451.2 451.2 0 0 0 95.2832-135.0144H339.0464c-51.0464 0-92.4672 41.4208-92.4672 92.4672z" fill="#6BC2FC" p-id="3304"></path></svg>