<svg class="icon" style="width: 1em;height: 1em;vertical-align: middle;fill: currentColor;overflow: hidden;" viewBox="0 0 1024 1024" version="1.1" xmlns="http://www.w3.org/2000/svg" p-id="809"><path d="M512.0512 513.3312m-450.816 0a450.816 450.816 0 1 0 901.632 0 450.816 450.816 0 1 0-901.632 0Z" fill="#FFF7DC" p-id="810"></path><path d="M401.8688 323.8912c17.408 0 31.488-14.08 31.488-31.488V228.352c0-17.408-14.1312-31.488-31.488-31.488-17.408 0-31.488 14.08-31.488 31.488v64c0 17.408 14.1312 31.5392 31.488 31.5392z" fill="#FFC65E" p-id="811"></path><path d="M612.7616 323.8912c17.408 0 31.488-14.08 31.488-31.488V228.352c0-17.408-14.1312-31.488-31.488-31.488-17.408 0-31.488 14.08-31.488 31.488v64c0 17.408 14.1312 31.5392 31.488 31.5392z" fill="#FCB138" p-id="812"></path><path d="M670.1056 253.7472v37.6832c0 28.3648-25.6 51.3536-57.1904 51.3536s-57.1904-22.9888-57.1904-51.3536v-37.8368H459.1104v37.8368c0 28.3648-25.6 51.3536-57.1904 51.3536s-57.1904-22.9888-57.1904-51.3536v-37.7856c-48.7936 1.0752-88.0128 40.9088-88.0128 89.9584v346.9824c0 49.7152 40.2944 90.0096 90.0096 90.0096h318.3104c49.7152 0 90.0096-40.2944 90.0096-90.0096V343.6032c-0.0512-47.9744-37.632-87.1936-84.9408-89.856z m-300.4416 158.72h185.088a27.392 27.392 0 1 1 0 54.784H369.664a27.392 27.392 0 1 1 0-54.784z m279.8592 278.6816H369.664a27.392 27.392 0 1 1 0-54.784h279.8592a27.392 27.392 0 1 1 0 54.784z m0-111.9232H369.664a27.392 27.392 0 1 1 0-54.784h279.8592a27.392 27.392 0 1 1 0 54.784z" fill="#FF8E12" p-id="813"></path><path d="M754.9952 343.6032c0-47.9744-37.5296-87.1936-84.8384-89.856v37.6832c0 28.3648-25.6 51.3536-57.1904 51.3536s-57.1904-22.9888-57.1904-51.3536v-37.8368H459.1104v37.8368c0 28.3648-25.6 51.3536-57.1904 51.3536s-57.1904-22.9888-57.1904-51.3536v-37.7856c-48.7936 1.0752-88.0128 40.9088-88.0128 89.9584v346.9824c0 39.9872 26.112 73.8816 62.208 85.6064 12.6976 1.0752 25.5488 1.6384 38.5536 1.6384 99.3792 0 191.232-32.2048 265.7792-86.6816H369.664a27.392 27.392 0 1 1 0-54.784h279.8592c9.7792 0 18.3296 5.1712 23.1424 12.9024a453.56032 453.56032 0 0 0 82.3296-109.5168V343.6032zM369.664 412.4672h185.088a27.392 27.392 0 1 1 0 54.784H369.664a27.392 27.392 0 1 1 0-54.784z m279.8592 166.7584H369.664a27.392 27.392 0 1 1 0-54.784h279.8592a27.392 27.392 0 1 1 0 54.784z" fill="#FCA315" p-id="814"></path><path d="M670.1568 281.7536c2.3552-9.0112 4.4544-18.176 6.2976-27.392-2.0992-0.256-4.1472-0.5632-6.2976-0.6656v28.0576z" fill="#FFB32B" p-id="815"></path><path d="M416.6144 579.2256H369.664a27.392 27.392 0 1 1 0-54.784h139.0592c66.304-51.0464 118.016-120.064 147.8144-199.8336-10.496 11.1104-26.112 18.176-43.6224 18.176-31.5904 0-57.1904-22.9888-57.1904-51.3536v-37.8368H459.1104v37.8368c0 28.3648-25.6 51.3536-57.1904 51.3536s-57.1904-22.9888-57.1904-51.3536v-37.7856c-48.7936 1.0752-88.0128 40.9088-88.0128 89.9584v273.5616c56.6784-2.816 110.592-16.0768 159.8976-37.9392zM369.664 412.4672h185.088a27.392 27.392 0 1 1 0 54.784H369.664a27.392 27.392 0 1 1 0-54.784z" fill="#FCB138" p-id="816"></path><path d="M498.3808 253.5936h-39.3216v37.8368c0 6.3488-1.3312 12.3392-3.6864 17.9712 15.7696-17.4592 30.1568-36.096 43.008-55.808zM428.288 336.9472a62.208 62.208 0 0 1-26.368 5.8368c-31.5904 0-57.1904-22.9888-57.1904-51.3536v-37.7856c-48.7936 1.0752-88.0128 40.9088-88.0128 89.9584v93.7472c64.6656-20.48 123.0848-55.1936 171.5712-100.4032z" fill="#FFC65E" p-id="817"></path></svg>