<svg class="icon" style="width: 1em;height: 1em;vertical-align: middle;fill: currentColor;overflow: hidden;" viewBox="0 0 1024 1024" version="1.1" xmlns="http://www.w3.org/2000/svg" p-id="4923"><path d="M509.44 510.3616m-450.816 0a450.816 450.816 0 1 0 901.632 0 450.816 450.816 0 1 0-901.632 0Z" fill="#FBE1FF" p-id="4924"></path><path d="M766.72 710.7072V476.5184c0-29.184-23.6544-52.8384-52.8384-52.8384h-62.8736v287.0272h-54.6816V306.9952c0-29.184-23.6544-52.8384-52.8384-52.8384H304.7424c-29.184 0-52.8384 23.6544-52.8384 52.8384v403.712h-25.8048a27.9552 27.9552 0 0 0 0 55.9104h566.784a27.9552 27.9552 0 0 0 0-55.9104h-26.1632z m-286.1056-170.0864H368.7936V484.7104h111.7696v55.9104z m0-115.456H368.7936V369.3056h111.7696v55.8592z" fill="#BD50D3" p-id="4925"></path><path d="M651.008 692.6336c51.3536-48.2304 91.392-108.3392 115.712-175.9744v-40.0896c0-29.184-23.6544-52.8384-52.8384-52.8384h-62.8736v268.9024zM630.5792 710.7072h-34.2016V306.9952c0-29.184-23.6544-52.8384-52.8384-52.8384H304.7424c-29.184 0-52.8384 23.6544-52.8384 52.8384v403.712h-25.8048a27.9552 27.9552 0 0 0 0 55.9104h319.3856a456.38656 456.38656 0 0 0 85.0944-55.9104z m-149.9648-170.0864H368.7936V484.7104h111.7696v55.9104z m0-115.456H368.7936V369.3056h111.7696v55.8592z" fill="#BF5CD6" p-id="4926"></path><path d="M596.3264 450.7648V306.9952c0-29.184-23.6544-52.8384-52.8384-52.8384H304.7424c-29.184 0-52.8384 23.6544-52.8384 52.8384v346.4704c144.128-10.3424 269.5168-88.4736 344.4224-202.7008zM368.7936 369.3056h111.7696v55.9104H368.7936V369.3056z m0 115.4048h111.7696v55.9104H368.7936V484.7104z" fill="#CA6EE0" p-id="4927"></path><path d="M368.7936 410.4192v-41.1648h49.3568a452.9152 452.9152 0 0 0 86.6304-115.0976H304.7424c-29.184 0-52.8384 23.6544-52.8384 52.8384v163.8912a446.6688 446.6688 0 0 0 116.8896-60.4672z" fill="#D786EA" p-id="4928"></path></svg>