<svg class="icon" style="width: 1em;height: 1em;vertical-align: middle;fill: currentColor;overflow: hidden;" viewBox="0 0 1024 1024" version="1.1" xmlns="http://www.w3.org/2000/svg" p-id="6330"><path d="M519.7312 506.9824m-450.816 0a450.816 450.816 0 1 0 901.632 0 450.816 450.816 0 1 0-901.632 0Z" fill="#FFE1E9" p-id="6331"></path><path d="M862.3104 492.4416l-84.0192-84.0192a20.5824 20.5824 0 0 1-6.0416-14.5408V274.9952c0-11.3664-9.216-20.5312-20.5312-20.5312h-118.8352c-5.4272 0-10.7008-2.1504-14.5408-6.0416l-84.0192-84.0192a20.55168 20.55168 0 0 0-29.0816 0L421.1712 248.4224a20.5824 20.5824 0 0 1-14.5408 6.0416H287.7952a20.5312 20.5312 0 0 0-20.5312 20.5312v118.8352c0 5.4272-2.1504 10.7008-6.0416 14.5408L177.2032 492.4416a20.55168 20.55168 0 0 0 0 29.0816l84.0192 84.0192a20.5824 20.5824 0 0 1 6.0416 14.5408v118.8352c0 11.3664 9.216 20.5312 20.5312 20.5312h118.8352c5.4272 0 10.7008 2.1504 14.5408 6.0416l84.0192 84.0192a20.55168 20.55168 0 0 0 29.0816 0l84.0192-84.0192a20.5824 20.5824 0 0 1 14.5408-6.0416h118.8352c11.3664 0 20.5312-9.216 20.5312-20.5312v-118.8352c0-5.4272 2.1504-10.7008 6.0416-14.5408l84.0192-84.0192a20.5056 20.5056 0 0 0 0.0512-29.0816zM356.5056 417.4848c0-48.7936 29.696-86.9888 67.6352-86.9888 37.9392 0 67.6352 38.1952 67.6352 86.9888s-29.696 86.9888-67.6352 86.9888c-37.9392 0-67.6352-38.1952-67.6352-86.9888zM475.136 675.84a27.83744 27.83744 0 0 1-24.832 15.1552 27.86304 27.86304 0 0 1-24.7808-40.6016l145.4592-283.8016a27.81696 27.81696 0 0 1 37.5296-12.0832 27.86304 27.86304 0 0 1 12.0832 37.5296L475.136 675.84z m165.4272-1.6384c-37.9392 0-67.6352-38.1952-67.6352-86.9888s29.696-86.9888 67.6352-86.9888c37.9392 0 67.6352 38.1952 67.6352 86.9888s-29.7472 86.9888-67.6352 86.9888z" fill="#FF3369" p-id="6332"></path><path d="M640.4096 555.9808c-2.6112 0.7168-11.7248 11.4176-11.7248 31.232 0 19.8144 9.1136 30.5664 11.9808 31.232 2.6112-0.7168 11.7248-11.4176 11.7248-31.232 0-19.8144-9.1136-30.5664-11.9808-31.232z" fill="#FF4D7C" p-id="6333"></path><path d="M435.968 417.4848c0-19.8144-9.1136-30.5664-11.9808-31.232-2.6112 0.7168-11.7248 11.4176-11.7248 31.232 0 19.8144 9.1136 30.5664 11.9808 31.232 2.6624-0.7168 11.7248-11.4176 11.7248-31.232z" fill="#FF5F89" p-id="6334"></path><path d="M796.7744 426.9056l-18.4832-18.4832a20.5824 20.5824 0 0 1-6.0416-14.5408V274.9952c0-11.3664-9.216-20.5312-20.5312-20.5312h-118.8352c-5.4272 0-10.7008-2.1504-14.5408-6.0416l-84.0192-84.0192a20.55168 20.55168 0 0 0-29.0816 0L421.1712 248.4224a20.5824 20.5824 0 0 1-14.5408 6.0416H287.7952a20.5312 20.5312 0 0 0-20.5312 20.5312v118.8352c0 5.4272-2.1504 10.7008-6.0416 14.5408L177.2032 492.4416a20.55168 20.55168 0 0 0 0 29.0816l84.0192 84.0192a20.5824 20.5824 0 0 1 6.0416 14.5408v118.8352c0 11.3664 9.216 20.5312 20.5312 20.5312h118.8352c5.4272 0 10.7008 2.1504 14.5408 6.0416l25.1904 25.1904c179.2-37.888 319.0784-182.272 350.4128-363.776z m-440.2688-9.4208c0-48.7936 29.696-86.9888 67.6352-86.9888 37.9392 0 67.6352 38.1952 67.6352 86.9888s-29.696 86.9888-67.6352 86.9888c-37.9392 0-67.6352-38.1952-67.6352-86.9888z m93.7984 273.5616a27.86304 27.86304 0 0 1-24.7808-40.6016l145.4592-283.8016a27.81696 27.81696 0 0 1 37.5296-12.0832 27.86304 27.86304 0 0 1 12.0832 37.5296L475.136 675.84a27.79136 27.79136 0 0 1-24.832 15.2064z m122.624-103.8336c0-48.7936 29.696-86.9888 67.6352-86.9888 37.9392 0 67.6352 38.1952 67.6352 86.9888 0 48.7936-29.696 86.9888-67.6352 86.9888-37.9392 0-67.6352-38.1952-67.6352-86.9888z" fill="#FF4D7C" p-id="6335"></path><path d="M618.3424 248.4224l-84.0192-84.0192a20.55168 20.55168 0 0 0-29.0816 0L421.1712 248.4224a20.5824 20.5824 0 0 1-14.5408 6.0416H287.7952a20.5312 20.5312 0 0 0-20.5312 20.5312v118.8352c0 5.4272-2.1504 10.7008-6.0416 14.5408L177.2032 492.4416a20.55168 20.55168 0 0 0 0 29.0816l84.0192 84.0192a20.5824 20.5824 0 0 1 6.0416 14.5408v18.688a447.91296 447.91296 0 0 0 197.376-64.6656l106.3424-207.5136a27.81696 27.81696 0 0 1 37.5296-12.0832 27.86304 27.86304 0 0 1 12.0832 37.5296l-42.7008 83.3024c50.8928-62.0032 85.504-137.7792 97.4848-220.928h-42.5472c-5.4272 0.0512-10.6496-2.0992-14.4896-5.9904zM424.1408 504.4736c-37.888 0-67.6352-38.1952-67.6352-86.9888s29.696-86.9888 67.6352-86.9888c37.9392 0 67.6352 38.1952 67.6352 86.9888s-29.7472 86.9888-67.6352 86.9888z" fill="#FF5F89" p-id="6336"></path><path d="M356.7616 411.136c2.4576-45.7216 31.1296-80.6912 67.3792-80.6912 8.192 0 15.9232 1.8944 23.1424 5.1712 42.5984-46.1824 75.6736-101.2224 96.1024-162.1504l-9.0624-9.0624a20.55168 20.55168 0 0 0-29.0816 0L421.1712 248.4224a20.5824 20.5824 0 0 1-14.5408 6.0416H287.7952a20.5312 20.5312 0 0 0-20.5312 20.5312v118.8352c0 5.4272-2.1504 10.7008-6.0416 14.5408L195.84 473.7536A448.6144 448.6144 0 0 0 356.7616 411.136z" fill="#FF7196" p-id="6337"></path></svg>