<svg class="icon" style="width: 1em;height: 1em;vertical-align: middle;fill: currentColor;overflow: hidden;" viewBox="0 0 1024 1024" version="1.1" xmlns="http://www.w3.org/2000/svg" p-id="5820"><path d="M510.9248 516.4544m-450.816 0a450.816 450.816 0 1 0 901.632 0 450.816 450.816 0 1 0-901.632 0Z" fill="#E3FFF3" p-id="5821"></path><path d="M659.968 234.752H311.8592c-29.7472 0-53.8624 24.1152-53.8624 53.8624v475.8016a33.3312 33.3312 0 0 0 33.3312 33.3312c7.0144 0 13.8752-2.2528 19.5584-6.3488l58.8288-42.752 52.5824 38.1952c2.304 1.6896 5.376 1.6896 7.68 0l52.5824-38.1952 52.9408 38.4512c2.2016 1.5872 5.1712 1.6384 7.424 0.1536-27.8016-32.256-44.6464-74.24-44.6464-120.2176 0-101.7856 82.4832-184.2688 184.2688-184.2688 10.7008 0 21.1456 0.9728 31.3344 2.7136V288.6144c0-29.7472-24.1152-53.8624-53.9136-53.8624zM459.0592 593.92H372.5824a30.3104 30.3104 0 0 1-30.3104-30.3104 30.3104 30.3104 0 0 1 30.3104-30.3104h86.4768a30.3104 30.3104 0 0 1 30.3104 30.3104 30.3104 30.3104 0 0 1-30.3104 30.3104z m105.216-113.3568H372.5824a30.3104 30.3104 0 0 1-30.3104-30.3104 30.3104 30.3104 0 0 1 30.3104-30.3104h191.6928a30.3104 30.3104 0 0 1 30.3104 30.3104 30.3104 30.3104 0 0 1-30.3104 30.3104z m34.9696-109.0048H372.5824a30.3104 30.3104 0 0 1-30.3104-30.3104 30.3104 30.3104 0 0 1 30.3104-30.3104h226.6624a30.3104 30.3104 0 1 1 0 60.6208z" fill="#1DCE75" p-id="5822"></path><path d="M682.5472 535.3472c-72.704 0-131.6864 58.9312-131.6864 131.6864 0 72.704 58.9312 131.6864 131.6864 131.6864 72.704 0 131.6864-58.9312 131.6864-131.6864-0.0512-72.704-58.9824-131.6864-131.6864-131.6864z m60.8768 157.6448c11.9808 0 21.6576 9.6768 21.6576 21.6576 0 11.9808-9.6768 21.6576-21.6576 21.6576h-38.8608v18.0736c0 11.9808-9.6768 21.6576-21.6576 21.6576-11.9808 0-21.6576-9.6768-21.6576-21.6576v-18.0736h-38.8608c-11.9808 0-21.6576-9.6768-21.6576-21.6576 0-11.9808 9.6768-21.6576 21.6576-21.6576h38.8608v-12.2368h-38.8608c-11.9808 0-21.6576-9.6768-21.6576-21.6576 0-11.9808 9.6768-21.6576 21.6576-21.6576h10.8032l-20.224-21.8112a21.632 21.632 0 0 1 1.1776-30.6176 21.632 21.632 0 0 1 30.6176 1.1776l37.888 40.8576 36.9664-44.3392a21.67296 21.67296 0 0 1 30.5152-2.7648c9.1648 7.68 10.4448 21.2992 2.7648 30.5152l-22.528 26.9824h13.056c11.9808 0 21.6576 9.6768 21.6576 21.6576 0 11.9808-9.6768 21.6576-21.6576 21.6576h-38.8608v12.2368h38.8608z" fill="#05C46D" p-id="5823"></path><path d="M550.8608 667.0336c0 36.3008 14.6944 69.2224 38.5024 93.0304 9.8304-7.68 19.3536-15.7696 28.5184-24.2688a21.632 21.632 0 0 1-17.1008-21.1456c0-11.9808 9.6768-21.6576 21.6576-21.6576h36.1472c0.9216-1.0752 1.792-2.1504 2.7136-3.2768v-9.0112h-38.8608c-11.9808 0-21.6576-9.6768-21.6576-21.6576 0-11.9808 9.6768-21.6576 21.6576-21.6576h10.8032l-20.224-21.8112a21.632 21.632 0 0 1 1.1776-30.6176 21.632 21.632 0 0 1 30.6176 1.1776l37.888 40.8576 36.9664-44.3392c2.6112-3.1232 5.9392-5.2736 9.5232-6.5024 3.7888-9.1648 7.2704-18.432 10.4448-27.904a131.26656 131.26656 0 0 0-56.9856-12.9536c-72.8064 0.0512-131.7888 59.0336-131.7888 131.7376z" fill="#1DCE75" p-id="5824"></path><path d="M564.2752 480.5632H372.5824a30.3104 30.3104 0 0 1-30.3104-30.3104 30.3104 30.3104 0 0 1 30.3104-30.3104h191.6928c14.2336 0 26.112 9.8304 29.3888 23.04a449.26464 449.26464 0 0 0 32.1024-87.04 30.26944 30.26944 0 0 1-26.4704 15.616H372.5824c-16.7424 0-30.3104-13.568-30.3104-30.3104s13.568-30.3104 30.3104-30.3104h226.6624a30.3104 30.3104 0 0 1 30.2592 28.9792c6.656-30.7712 10.1376-62.6688 10.1376-95.4368 0-3.2256-0.0512-6.4512-0.1024-9.6768h-327.68c-29.7472 0-53.8624 24.1152-53.8624 53.8624v401.3568c133.7856-20.5824 248.1664-99.9936 315.904-210.9952-3.0208 0.9728-6.2464 1.536-9.6256 1.536zM459.0592 593.92H372.5824a30.3104 30.3104 0 0 1-30.3104-30.3104 30.3104 30.3104 0 0 1 30.3104-30.3104h86.4768a30.3104 30.3104 0 0 1 30.3104 30.3104 30.3104 30.3104 0 0 1-30.3104 30.3104z" fill="#3CD38E" p-id="5825"></path><path d="M342.3744 448.2048c1.0752-15.7696 14.1824-28.2624 30.208-28.2624h4.4544c16.64-14.9504 32.1024-31.1296 46.336-48.384h-50.8416c-16.7424 0-30.3104-13.568-30.3104-30.3104s13.568-30.3104 30.3104-30.3104h92.9792c13.9776-24.064 25.7536-49.5616 35.1232-76.1856H311.8592c-29.7472 0-53.8624 24.1152-53.8624 53.8624v208.5888c30.0032-13.312 58.2656-29.7984 84.3776-48.9984z" fill="#48E1AA" p-id="5826"></path></svg>