<svg class="icon" style="width: 1em;height: 1em;vertical-align: middle;fill: currentColor;overflow: hidden;" viewBox="0 0 1024 1024" version="1.1" xmlns="http://www.w3.org/2000/svg" p-id="4091"><path d="M508.416 513.1264m-450.816 0a450.816 450.816 0 1 0 901.632 0 450.816 450.816 0 1 0-901.632 0Z" fill="#E3FFF3" p-id="4092"></path><path d="M515.4816 402.1248c-60.928 0-110.5408 49.5616-110.5408 110.5408s49.5616 110.5408 110.5408 110.5408c60.928 0 110.5408-49.5616 110.5408-110.5408s-49.5616-110.5408-110.5408-110.5408z" fill="#05C46D" p-id="4093"></path><path d="M684.8 226.9696H333.1584c-58.9824 0-106.752 47.7696-106.752 106.752v357.9392c0 58.9824 47.7696 106.752 106.752 106.752h351.6416c58.9824 0 106.752-47.7696 106.752-106.752V333.7216c0-58.9824-47.7696-106.752-106.752-106.752zM291.9424 339.2c0-22.784 18.432-41.216 41.216-41.216 22.784 0 41.216 18.432 41.216 41.216 0 22.784-18.432 41.216-41.216 41.216-22.784 0-41.216-18.4832-41.216-41.216z m223.5392 341.3504c-92.5696 0-167.8848-75.3152-167.8848-167.8848s75.3152-167.8848 167.8848-167.8848 167.8848 75.3152 167.8848 167.8848-75.264 167.8848-167.8848 167.8848z" fill="#05C46D" p-id="4094"></path><path d="M757.9648 256.1024c-19.0976-18.0224-44.8-29.1328-73.1648-29.1328H333.1584c-58.9824 0-106.752 47.7696-106.752 106.752v357.9392c0 58.9824 47.7696 106.752 106.752 106.752h96.512c195.6864-49.152 340.6336-226.2528 340.6336-437.1968 0-36.2496-4.3008-71.424-12.3392-105.1136zM291.9424 339.2c0-22.784 18.432-41.216 41.216-41.216 22.784 0 41.216 18.432 41.216 41.216 0 22.784-18.432 41.216-41.216 41.216-22.784 0-41.216-18.4832-41.216-41.216z m223.5392 341.3504c-92.5696 0-167.8848-75.3152-167.8848-167.8848s75.3152-167.8848 167.8848-167.8848 167.8848 75.3152 167.8848 167.8848c0.0512 92.5696-75.264 167.8848-167.8848 167.8848z" fill="#1DCE75" p-id="4095"></path><path d="M585.984 427.6224c-19.1488-15.872-43.7248-25.4464-70.5024-25.4464-60.928 0-110.5408 49.5616-110.5408 110.5408 0 27.7504 10.3424 53.0432 27.2896 72.4992a453.95968 453.95968 0 0 0 153.7536-157.5936z" fill="#3CD38E" p-id="4096"></path><path d="M226.4064 333.7216v317.1328a449.17248 449.17248 0 0 0 154.2144-38.2976 166.97856 166.97856 0 0 1-33.024-99.84c0-92.5696 75.3152-167.8848 167.8848-167.8848 35.8912 0 69.1712 11.3664 96.512 30.6688 19.3536-46.08 31.232-96.1024 34.2016-148.48H333.1584c-58.9824-0.0512-106.752 47.7184-106.752 106.7008z m147.968 5.4784c0 22.784-18.432 41.216-41.216 41.216-22.784 0-41.216-18.432-41.216-41.216 0-22.784 18.432-41.216 41.216-41.216 22.784 0 41.216 18.432 41.216 41.216z" fill="#3CD38E" p-id="4097"></path><path d="M226.4064 333.7216V468.992c119.1936-40.0384 216.1152-128.512 267.4176-242.0224H333.1584c-58.9824 0-106.752 47.7696-106.752 106.752z m147.968 5.4784c0 22.784-18.432 41.216-41.216 41.216-22.784 0-41.216-18.432-41.216-41.216 0-22.784 18.432-41.216 41.216-41.216 22.784 0 41.216 18.432 41.216 41.216z" fill="#48E1AA" p-id="4098"></path></svg>