<svg class="icon" style="width: 1em;height: 1em;vertical-align: middle;fill: currentColor;overflow: hidden;" viewBox="0 0 1024 1024" version="1.1" xmlns="http://www.w3.org/2000/svg" p-id="963"><path d="M514.8672 514.1504m-450.816 0a450.816 450.816 0 1 0 901.632 0 450.816 450.816 0 1 0-901.632 0Z" fill="#FFE3DB" p-id="964"></path><path d="M681.984 733.8496H260.7616c-14.7456 0-26.7264 11.9808-26.7264 26.7264v3.328c0 14.7456 11.9808 26.7264 26.7264 26.7264h421.2224c14.7456 0 26.7264-11.9808 26.7264-26.7264v-3.328c0-14.7456-11.9808-26.7264-26.7264-26.7264zM830.4128 499.9168L604.8768 412.16l29.3376-75.3664a32.768 32.768 0 0 0 40.704-19.2512c6.5536-16.896-1.792-35.8912-18.688-42.496l-254.1568-98.816c-16.896-6.5536-35.8912 1.792-42.496 18.688-6.5536 16.896 1.792 35.8912 18.688 42.496l1.1776 0.4608-107.1616 275.4048c-16.5376-5.632-34.7136 2.7136-41.1136 19.1488-6.5536 16.896 1.792 35.8912 18.688 42.496l254.1568 98.8672c16.896 6.5536 35.8912-1.792 42.496-18.688 6.5536-16.896-1.792-35.8912-18.688-42.496l-0.768-0.3072 30.1568-77.4656 225.536 87.7568c31.8464 12.3904 67.7376-3.3792 80.128-35.2768l2.816-7.2192c12.3904-31.8976-3.4304-67.7888-35.2768-80.1792z m-392.2944-157.184l-49.8688 131.7376A25.85088 25.85088 0 0 1 363.52 491.1616c-2.8672-0.0512-5.7856-0.6144-8.6016-1.6896a25.82528 25.82528 0 0 1-15.0016-33.3312l49.8688-131.7888c5.0688-13.3632 19.968-20.0704 33.3312-15.0528a26.0608 26.0608 0 0 1 15.0016 33.4336z" fill="#F23D4F" p-id="965"></path><path d="M567.296 733.8496H260.7616c-14.7456 0-26.7264 11.9808-26.7264 26.7264v3.328c0 14.7456 11.9808 26.7264 26.7264 26.7264H450.56a448.7168 448.7168 0 0 0 116.736-56.7808zM701.6448 591.0016c22.272-37.4272 39.2192-78.336 49.92-121.7536L604.8768 412.16l29.3376-75.3664a32.768 32.768 0 0 0 40.704-19.2512c6.5536-16.896-1.792-35.8912-18.688-42.496l-254.1568-98.816c-16.896-6.5536-35.8912 1.792-42.496 18.688-6.5536 16.896 1.792 35.8912 18.688 42.496l1.1776 0.4608-107.1616 275.4048c-16.5376-5.632-34.7136 2.7136-41.1136 19.1488-6.5536 16.896 1.792 35.8912 18.688 42.496l254.1568 98.8672c16.896 6.5536 35.8912-1.792 42.496-18.688 6.5536-16.896-1.792-35.8912-18.688-42.496l-0.768-0.3072 30.1568-77.4656 144.4352 56.1664zM438.1184 342.7328l-49.8688 131.7376A25.85088 25.85088 0 0 1 363.52 491.1616c-2.8672-0.0512-5.7856-0.6144-8.6016-1.6896a25.82528 25.82528 0 0 1-15.0016-33.3312l49.8688-131.7888c5.0688-13.3632 19.968-20.0704 33.3312-15.0528a26.0608 26.0608 0 0 1 15.0016 33.4336z" fill="#FC4956" p-id="966"></path><path d="M636.4672 267.4176L402.0736 176.2304c-16.896-6.5536-35.8912 1.792-42.496 18.688-6.5536 16.896 1.792 35.8912 18.688 42.496l1.1776 0.4608-107.1616 275.4048c-16.5376-5.632-34.7136 2.7136-41.1136 19.1488-6.5536 16.896 1.792 35.8912 18.688 42.496l111.4112 43.3152c144.64-59.2896 251.648-191.4368 275.2-350.8224zM438.1184 342.7328l-49.8688 131.7376A25.85088 25.85088 0 0 1 363.52 491.1616c-2.8672-0.0512-5.7856-0.6144-8.6016-1.6896a25.82528 25.82528 0 0 1-15.0016-33.3312l49.8688-131.7888c5.0688-13.3632 19.968-20.0704 33.3312-15.0528a26.0608 26.0608 0 0 1 15.0016 33.4336z" fill="#FF5C64" p-id="967"></path><path d="M402.0736 176.2304c-16.896-6.5536-35.8912 1.792-42.496 18.688-6.5536 16.896 1.792 35.8912 18.688 42.496l1.1776 0.4608-75.008 192.8704c21.7088-12.6976 42.24-27.136 61.3888-43.1104l23.9104-63.1808c5.0688-13.3632 19.968-20.0704 33.3312-15.0528 4.352 1.6384 7.8848 4.4032 10.6496 7.7824a451.74272 451.74272 0 0 0 60.7232-105.0112l-92.3648-35.9424z" fill="#FF716E" p-id="968"></path></svg>