<svg class="icon" style="width: 1em;height: 1em;vertical-align: middle;fill: currentColor;overflow: hidden;" viewBox="0 0 1024 1024" version="1.1" xmlns="http://www.w3.org/2000/svg" p-id="2223"><path d="M509.1328 513.1264m-450.816 0a450.816 450.816 0 1 0 901.632 0 450.816 450.816 0 1 0-901.632 0Z" fill="#FFE1E9" p-id="2224"></path><path d="M548.7616 404.8384c26.2656 0 47.616-21.3504 47.616-47.616 0-26.2656-21.3504-47.616-47.616-47.616-26.2656 0-47.616 21.3504-47.616 47.616 0.0512 26.2656 21.4016 47.616 47.616 47.616z" fill="#FF3369" p-id="2225"></path><path d="M807.8848 418.9696l-111.104 60.8768v-0.9728c0-20.4288-9.7792-38.5024-24.8832-49.9712a141.6192 141.6192 0 0 0 19.3536-71.6288c0-78.6944-63.7952-142.4896-142.4896-142.4896-78.6944 0-142.4896 63.7952-142.4896 142.4896 0 20.992 4.5568 40.9088 12.6976 58.8288H364.544c1.3824-6.656 2.1504-13.5168 2.1504-20.5824 0-54.9888-44.5952-99.584-99.584-99.584s-99.5328 44.544-99.5328 99.5328c0 23.6544 8.2432 45.3632 22.016 62.464-2.304 6.5536-3.6352 13.568-3.6352 20.8896v225.1264c0 34.6624 28.1088 62.7712 62.7712 62.7712h385.28c34.6624 0 62.7712-28.1088 62.7712-62.7712v-22.3232l111.7184 57.8048c19.2512 9.984 42.24-3.9936 42.24-25.7024V444.3136c0-21.9648-23.552-35.9424-42.8544-25.344z m-259.1232-143.2064c44.9024 0 81.4592 36.5568 81.4592 81.4592s-36.5568 81.4592-81.4592 81.4592-81.4592-36.5568-81.4592-81.4592 36.5568-81.4592 81.4592-81.4592z m96.6144 401.664c0 23.8592-19.4048 43.264-43.3152 43.264H476.0064c-14.0288 0-25.4464-11.3664-25.4464-25.4464s11.3664-25.4464 25.4464-25.4464h118.528v-37.3248a25.4464 25.4464 0 1 1 50.8928 0v44.9536z" fill="#FF3369" p-id="2226"></path><path d="M638.72 700.3648c69.4784-68.3008 116.8896-158.976 130.6624-260.352l-72.6016 39.7824v-0.9728c0-20.4288-9.7792-38.5024-24.8832-49.9712a141.6192 141.6192 0 0 0 19.3536-71.6288c0-78.6944-63.7952-142.4896-142.4896-142.4896-78.6944 0-142.4384 63.7952-142.4384 142.4896 0 20.992 4.5568 40.9088 12.6976 58.8288H364.544c1.3824-6.656 2.1504-13.5168 2.1504-20.5824 0-54.9888-44.5952-99.584-99.584-99.584-54.9888 0-99.584 44.5952-99.584 99.584 0 23.6544 8.2432 45.3632 22.016 62.464-2.304 6.5536-3.6352 13.568-3.6352 20.8896v225.1264c0 34.6624 28.1088 62.7712 62.7712 62.7712h303.9744a451.328 451.328 0 0 0 69.7856-51.0976c-6.0928 3.2768-13.0048 5.12-20.3776 5.12H476.0064c-14.0288 0-25.4464-11.3664-25.4464-25.4464s11.3664-25.4464 25.4464-25.4464h118.528v-37.3248c0-14.0288 11.3664-25.4464 25.4464-25.4464s25.4464 11.3664 25.4464 25.4464v44.9024a43.2896 43.2896 0 0 1-6.7072 22.9376z m-89.9584-261.6832c-44.9024 0-81.4592-36.5568-81.4592-81.4592s36.5568-81.4592 81.4592-81.4592 81.4592 36.5568 81.4592 81.4592-36.5568 81.4592-81.4592 81.4592z" fill="#FF4D7C" p-id="2227"></path><path d="M185.9584 669.3888c4.4544 0.1536 8.9088 0.2048 13.4144 0.2048 178.176 0 332.1856-103.3728 405.3504-253.3888-14.592 13.8752-34.304 22.4256-56.0128 22.4256-44.9024 0-81.4592-36.5568-81.4592-81.4592s36.5568-81.4592 81.4592-81.4592c43.3664 0 78.848 34.0992 81.2032 76.8512a449.14176 449.14176 0 0 0 18.688-96.9216c-25.7024-25.2928-60.9792-40.96-99.8912-40.96-78.6944 0-142.4384 63.7952-142.4384 142.4896 0 20.992 4.5568 40.9088 12.6976 58.8288H364.544c1.3824-6.656 2.1504-13.5168 2.1504-20.5824 0-54.9888-44.5952-99.584-99.584-99.584-54.9888 0-99.584 44.5952-99.584 99.584 0 23.6544 8.2432 45.3632 22.016 62.464-2.304 6.5536-3.6352 13.568-3.6352 20.8896v190.6176z" fill="#FF5F89" p-id="2228"></path><path d="M406.3232 357.2224c0 6.0928 0.4096 12.1344 1.1776 18.0224A451.56352 451.56352 0 0 0 506.88 221.0304c-58.2144 17.8688-100.5568 72.0896-100.5568 136.192zM185.9584 498.944a448.82944 448.82944 0 0 0 178.9952-85.5552c1.0752-5.8368 1.7408-11.776 1.7408-17.92 0-54.9888-44.5952-99.584-99.584-99.584-54.9888 0-99.584 44.5952-99.584 99.584 0 23.6544 8.2432 45.3632 22.016 62.464-2.304 6.5536-3.6352 13.568-3.6352 20.8896v20.1216z" fill="#FF7196" p-id="2229"></path></svg>