<svg class="icon" style="width: 1em;height: 1em;vertical-align: middle;fill: currentColor;overflow: hidden;" viewBox="0 0 1024 1024" version="1.1" xmlns="http://www.w3.org/2000/svg" p-id="2664"><path d="M509.184 509.5936m-450.816 0a450.816 450.816 0 1 0 901.632 0 450.816 450.816 0 1 0-901.632 0Z" fill="#E9ECFF" p-id="2665"></path><path d="M761.088 325.6832h-73.7792c-9.0624 0-17.2032-5.5296-20.5312-13.9776l-16.4864-41.6768a36.85376 36.85376 0 0 0-34.304-23.296H413.0304c-15.5648 0-29.44 9.7792-34.7136 24.4224l-14.336 39.936a22.10816 22.10816 0 0 1-20.7872 14.592h-76.288c-34.6624 0-62.72 28.0576-62.72 62.72v314.1632c0 34.6624 28.0576 62.72 62.72 62.72h494.1824c34.6624 0 62.72-28.0576 62.72-62.72V388.4032c0-34.6112-28.0576-62.72-62.72-62.72z m-247.0912 342.9376c-78.6432 0-142.592-63.9488-142.592-142.592s63.9488-142.592 142.592-142.592 142.592 63.9488 142.592 142.592-63.9488 142.592-142.592 142.592z m200.6528-229.12a34.2528 34.2528 0 1 1 0-68.5056 34.2528 34.2528 0 1 1 0 68.5056z" fill="#6C6CEA" p-id="2666"></path><path d="M513.9968 526.0288m-87.3472 0a87.3472 87.3472 0 1 0 174.6944 0 87.3472 87.3472 0 1 0-174.6944 0Z" fill="#757BF2" p-id="2667"></path><path d="M761.088 325.6832h-73.7792c-9.0624 0-17.2032-5.5296-20.5312-13.9776l-16.4864-41.6768a36.85376 36.85376 0 0 0-34.304-23.296H413.0304c-15.5648 0-29.44 9.7792-34.7136 24.4224l-14.336 39.936a22.10816 22.10816 0 0 1-20.7872 14.592h-76.288c-34.6112 0-62.72 28.0576-62.72 62.72v314.1632c0 34.6624 28.0576 62.72 62.72 62.72h232.0896c175.7696-61.3376 301.9264-228.4544 302.2336-425.0624a62.59712 62.59712 0 0 0-40.1408-14.5408z m-247.0912 342.9376c-78.6432 0-142.592-63.9488-142.592-142.592 0-78.6432 63.9488-142.592 142.592-142.592 78.6432 0 142.592 63.9488 142.592 142.592 0 78.6432-63.9488 142.592-142.592 142.592z m200.6528-229.12a34.2528 34.2528 0 1 1 0-68.5056 34.2528 34.2528 0 1 1 0 68.5056z" fill="#757BF2" p-id="2668"></path><path d="M227.072 630.272c58.112 0 113.6128-11.008 164.608-31.0272a141.9008 141.9008 0 0 1-20.2752-73.216c0-78.6432 63.9488-142.592 142.592-142.592 36.3008 0 69.4784 13.6704 94.6688 36.096 23.2448-36.864 41.2672-77.312 53.0944-120.3712L650.24 270.0288a36.85376 36.85376 0 0 0-34.304-23.296H413.0304c-15.5648 0-29.44 9.7792-34.7136 24.4224l-14.336 39.936a22.10816 22.10816 0 0 1-20.7872 14.592h-76.288c-34.6112 0-62.72 28.0576-62.72 62.72v241.3056c7.5776 0.4096 15.2064 0.5632 22.8864 0.5632z" fill="#8486F8" p-id="2669"></path><path d="M576.1536 464.7424c-15.872-16.0768-37.8368-26.0608-62.1568-26.0608-48.1792 0-87.3472 39.2192-87.3472 87.3472 0 18.432 5.7856 35.584 15.616 49.7152a453.53984 453.53984 0 0 0 133.888-111.0016z" fill="#8486F8" p-id="2670"></path><path d="M503.3472 246.7328H413.0304c-15.5648 0-29.44 9.7792-34.7136 24.4224l-14.336 39.936a22.10816 22.10816 0 0 1-20.7872 14.592h-76.288c-34.6112 0-62.72 28.0576-62.72 62.72v73.2672c127.6416-26.0096 235.6224-105.9328 299.1616-214.9376z" fill="#8D92F8" p-id="2671"></path></svg>