<svg class="icon" style="width: 1em;height: 1em;vertical-align: middle;fill: currentColor;overflow: hidden;" viewBox="0 0 1024 1024" version="1.1" xmlns="http://www.w3.org/2000/svg" p-id="4025"><path d="M504.3712 513.1264m-450.816 0a450.816 450.816 0 1 0 901.632 0 450.816 450.816 0 1 0-901.632 0Z" fill="#E9ECFF" p-id="4026"></path><path d="M737.6896 438.016a25.19552 25.19552 0 0 1 0-20.0192l59.7504-136.9088c7.2192-16.5376-4.9152-35.0208-22.8864-35.0208H378.5728c0-16.9472-13.7728-30.72-30.72-30.72s-30.72 13.7728-30.72 30.72v528.7936h-13.824c-16.9472 0-30.72 13.7728-30.72 30.72s13.7728 30.72 30.72 30.72h91.3408c16.9472 0 30.72-13.7728 30.72-30.72s-13.7728-30.72-30.72-30.72h-16.0256v-164.9664h395.9808c18.0224 0 30.1056-18.4832 22.8864-35.0208l-59.8016-136.8576z m-58.5728 91.0336a28.18048 28.18048 0 0 1-36.8128-15.2064l-33.4336-80.5888a28.0064 28.0064 0 0 1 0.6144-22.9376l33.0752-69.0688c6.7072-14.0288 23.552-19.968 37.5296-13.2608 14.0288 6.7072 19.968 23.552 13.2608 37.5296l-27.648 57.7536 28.6208 69.0176c5.9904 14.336-0.8704 30.7712-15.2064 36.7616z" fill="#6C6CEA" p-id="4027"></path><path d="M679.1168 529.0496a28.18048 28.18048 0 0 1-36.8128-15.2064l-33.4336-80.5888a28.0064 28.0064 0 0 1 0.6144-22.9376l33.0752-69.0688c6.7072-14.0288 23.552-19.968 37.5296-13.2608 14.0288 6.7072 19.968 23.552 13.2608 37.5296l-27.648 57.7536 28.6208 69.0176c1.024 2.4064 1.6384 4.9152 1.9456 7.3728a387.80928 387.80928 0 0 0 27.6992-144.2304c0-37.9392-5.5296-74.5984-15.6672-109.312h-329.728c0-16.9472-13.7728-30.72-30.72-30.72s-30.72 13.7728-30.72 30.72v498.8416c5.5808 0.256 11.2128 0.4096 16.896 0.4096 15.0528 0 29.9008-0.9216 44.544-2.6112v-132.8128h250.7264a392.0896 392.0896 0 0 0 55.3984-84.0192c-1.6896 1.2288-3.584 2.2528-5.5808 3.1232z" fill="#757BF2" p-id="4028"></path><path d="M616.0896 246.0672H378.5728c0-16.9472-13.7728-30.72-30.72-30.72s-30.72 13.7728-30.72 30.72v350.2592c162.8672-38.4 286.2592-178.8416 298.9568-350.2592z" fill="#8486F8" p-id="4029"></path><path d="M481.5872 246.0672H378.5728c0-16.9472-13.7728-30.72-30.72-30.72s-30.72 13.7728-30.72 30.72v174.5408a391.0912 391.0912 0 0 0 164.4544-174.5408z" fill="#8D92F8" p-id="4030"></path></svg>