<svg class="icon" style="width: 1em;height: 1em;vertical-align: middle;fill: currentColor;overflow: hidden;" viewBox="0 0 1024 1024" version="1.1" xmlns="http://www.w3.org/2000/svg" p-id="2933"><path d="M504.3712 519.8336m-450.816 0a450.816 450.816 0 1 0 901.632 0 450.816 450.816 0 1 0-901.632 0Z" fill="#E3FFF3" p-id="2934"></path><path d="M386.3552 359.2192a30.3616 30.3616 0 0 1-30.3616-30.3616V253.3888a30.3616 30.3616 0 0 1 60.7232 0v75.4688c0 16.7936-13.568 30.3616-30.3616 30.3616z" fill="#48E1AA" p-id="2935"></path><path d="M624.7936 359.2192a30.3616 30.3616 0 0 1-30.3616-30.3616V253.3888a30.3616 30.3616 0 0 1 60.7232 0v75.4688c-0.0512 16.7936-13.6192 30.3616-30.3616 30.3616z" fill="#3CD38E" p-id="2936"></path><path d="M713.8304 273.8688h-31.488v55.04c0 32.3072-26.2144 58.5216-58.5216 58.5216s-58.5216-26.2144-58.5216-58.5216V273.8688H444.8768v55.04c0 32.3072-26.2144 58.5216-58.5216 58.5216s-58.5216-26.2144-58.5216-58.5216V273.8688H302.08c-45.9776 0-83.3024 37.2736-83.3024 83.3024v346.5728c0 45.9776 37.2736 83.3024 83.3024 83.3024h411.6992c45.9776 0 83.3024-37.2736 83.3024-83.3024v-346.624c0.0512-45.9776-37.2736-83.2512-83.2512-83.2512z m-54.784 218.2656l-157.0304 155.5968a30.3616 30.3616 0 0 1-21.3504 8.8064h-0.9728a30.34624 30.34624 0 0 1-21.7088-10.1376L368.9984 546.304c-11.1616-12.4928-10.0352-31.6928 2.5088-42.8544a30.32064 30.32064 0 0 1 42.8544 2.5088l67.7376 76.1344 134.2976-133.0688c11.8784-11.776 31.1296-11.7248 42.9056 0.2048 11.7248 11.9296 11.6736 31.1296-0.256 42.9056z" fill="#05C46D" p-id="2937"></path><path d="M797.1328 357.12c0-45.9776-37.2736-83.3024-83.3024-83.3024h-31.488v55.04c0 32.3072-26.2144 58.5216-58.5216 58.5216s-58.5216-26.2144-58.5216-58.5216V273.8688H444.928v55.04c0 32.3072-26.2144 58.5216-58.5216 58.5216s-58.5216-26.2144-58.5216-58.5216V273.8688h-25.7536c-45.9776 0-83.3024 37.2736-83.3024 83.3024v346.5728c0 45.9776 37.2736 83.3024 83.3024 83.3024h164.9152c170.6496-40.96 302.4384-181.7088 330.0864-357.1712V357.12z m-138.0864 135.0144l-157.0304 155.5968a30.3616 30.3616 0 0 1-21.3504 8.8064h-0.9728a30.34624 30.34624 0 0 1-21.7088-10.1376L368.9984 546.304c-11.1616-12.4928-10.0352-31.6928 2.5088-42.8544a30.32064 30.32064 0 0 1 42.8544 2.5088l67.7376 76.1344 134.2976-133.0688c11.8784-11.776 31.1296-11.7248 42.9056 0.2048 11.7248 11.9296 11.6736 31.1296-0.256 42.9056z" fill="#1DCE75" p-id="2938"></path><path d="M244.6336 653.2608c65.5872 0 127.744-14.4896 183.6032-40.3456L368.9984 546.304c-11.1616-12.4928-10.0352-31.6928 2.5088-42.8544a30.32064 30.32064 0 0 1 42.8544 2.5088l67.7376 76.1344 130.56-129.3824c14.592-22.528 27.136-46.4384 37.4272-71.5776-7.8848 3.9936-16.7936 6.2464-26.2656 6.2464-32.3072 0-58.5216-26.2144-58.5216-58.5216V273.8688H444.928v55.04c0 32.3072-26.2144 58.5216-58.5216 58.5216s-58.5216-26.2144-58.5216-58.5216V273.8688h-25.7536c-45.9776 0-83.3024 37.2736-83.3024 83.3024v295.3216c8.5504 0.4608 17.152 0.768 25.8048 0.768z" fill="#3CD38E" p-id="2939"></path><path d="M511.3344 273.8688H444.928v55.04c0 32.3072-26.2144 58.5216-58.5216 58.5216s-58.5216-26.2144-58.5216-58.5216V273.8688h-25.7536c-45.9776 0-83.3024 37.2736-83.3024 83.3024v123.2896c124.416-24.32 229.888-101.1712 292.5056-206.592z" fill="#48E1AA" p-id="2940"></path></svg>