<svg class="icon" style="width: 1em;height: 1em;vertical-align: middle;fill: currentColor;overflow: hidden;" viewBox="0 0 1024 1024" version="1.1" xmlns="http://www.w3.org/2000/svg" p-id="2174"><path d="M509.9008 513.1264m-450.816 0a450.816 450.816 0 1 0 901.632 0 450.816 450.816 0 1 0-901.632 0Z" fill="#FFF1DC" p-id="2175"></path><path d="M790.3744 313.3952h-66.9696v-42.6496a28.4672 28.4672 0 0 0-28.4672-28.4672H335.0528a28.4672 28.4672 0 0 0-28.4672 28.4672v42.6496H237.4144a28.4672 28.4672 0 0 0-28.4672 28.4672v76.8512c0 59.4944 45.568 108.544 103.6288 114.1248 20.1216 82.3808 89.344 145.664 174.7456 157.0304v61.7984H377.1392a28.4672 28.4672 0 0 0 0 56.9344h277.2992a28.4672 28.4672 0 0 0 0-56.9344H544.256V689.664c84.7872-11.9808 153.2928-75.1104 173.2096-157.0816 56.9856-6.6048 101.376-55.1424 101.376-113.8688v-76.8a28.416 28.416 0 0 0-28.4672-28.5184zM306.5856 473.9072c-23.552-7.2704-40.704-29.2352-40.704-55.1424v-48.384h40.704v103.5264z m267.1616 60.928l-59.8528-31.4368-59.8016 31.4368 11.4176-66.6112-48.384-47.1552 66.8672-9.728 29.9008-60.6208 29.9008 60.6208 66.8672 9.728-48.384 47.1552 11.4688 66.6112z m188.16-116.0704c0 25.088-16.128 46.4384-38.5024 54.3744V370.3808h38.5024v48.384z" fill="#FF8E12" p-id="2176"></path><path d="M723.4048 270.7456a28.4672 28.4672 0 0 0-28.4672-28.4672H335.0528a28.4672 28.4672 0 0 0-28.4672 28.4672v42.6496H237.4144a28.4672 28.4672 0 0 0-28.4672 28.4672v76.8512c0 59.4944 45.568 108.544 103.6288 114.1248 11.008 45.0048 36.6592 84.224 71.5776 112.4864 6.144 0.3072 12.3392 0.4608 18.5856 0.4608 141.056 0 262.9632-82.0224 320.7168-200.96V370.3808h26.2656c4.3008-18.4832 7.1168-37.4784 8.448-56.9344h-34.7136v-42.7008zM306.5856 473.9072c-23.552-7.2704-40.704-29.2352-40.704-55.1424v-48.384h40.704v103.5264z m267.1616 60.928l-59.8528-31.4368-59.8016 31.4368 11.4176-66.6112-48.384-47.1552 66.8672-9.728 29.9008-60.6208 29.9008 60.6208 66.8672 9.728-48.384 47.1552 11.4688 66.6112z" fill="#FCA315" p-id="2177"></path><path d="M465.5104 468.224l-48.384-47.1552 66.8672-9.728 29.9008-60.6208 29.9008 60.6208 14.7968 2.1504a355.1744 355.1744 0 0 0 93.952-171.2128H335.0528a28.4672 28.4672 0 0 0-28.4672 28.4672v42.6496H237.4144a28.4672 28.4672 0 0 0-28.4672 28.4672v76.8512c0 41.6768 22.3744 78.1312 55.7056 98.2016 13.312 1.536 26.88 2.3552 40.6016 2.3552 56.6784 0 110.2336-13.312 157.7984-36.864l2.4576-14.1824z m-158.9248 5.6832c-23.552-7.2704-40.704-29.2352-40.704-55.1424v-48.384h40.704v103.5264z" fill="#FCB138" p-id="2178"></path><path d="M506.7264 242.2784H335.0528a28.4672 28.4672 0 0 0-28.4672 28.4672v42.6496H237.4144a28.4672 28.4672 0 0 0-28.4672 28.4672v51.2c2.2528 0.0512 4.4544 0.1536 6.7072 0.1536 17.0496 0 33.8432-1.28 50.2784-3.584v-19.3024h40.704v11.1104c82.0224-21.5552 152.4224-71.7312 200.0896-139.1616z" fill="#FFC65E" p-id="2179"></path></svg>