<svg class="icon" style="width: 1em;height: 1em;vertical-align: middle;fill: currentColor;overflow: hidden;" viewBox="0 0 1024 1024" version="1.1" xmlns="http://www.w3.org/2000/svg" p-id="3174"><path d="M509.9008 513.1264m-450.816 0a450.816 450.816 0 1 0 901.632 0 450.816 450.816 0 1 0-901.632 0Z" fill="#E9F4FF" p-id="3175"></path><path d="M355.84 772.5568H268.4928c-23.7568 0-42.9568-19.2512-42.9568-42.9568V433.6128c0-23.7568 19.2512-42.9568 42.9568-42.9568H355.84c23.7568 0 42.9568 19.2512 42.9568 42.9568v295.9872c0 23.7056-19.2512 42.9568-42.9568 42.9568z" fill="#3A9CED" p-id="3176"></path><path d="M558.3872 772.5568H471.04c-23.7568 0-42.9568-19.2512-42.9568-42.9568V234.3424c0-23.7568 19.2512-42.9568 42.9568-42.9568h87.3472c23.7568 0 42.9568 19.2512 42.9568 42.9568v495.2064c0 23.7568-19.2512 43.008-42.9568 43.008zM760.9344 772.5568h-87.3472c-23.7568 0-42.9568-19.2512-42.9568-42.9568v-155.2384c0-23.7568 19.2512-42.9568 42.9568-42.9568h87.3472c23.7568 0 42.9568 19.2512 42.9568 42.9568v155.2384c0 23.7056-19.2 42.9568-42.9568 42.9568z" fill="#2595E8" p-id="3177"></path><path d="M559.2576 191.3856H470.1184a42.0864 42.0864 0 0 0-42.0864 42.0864v496.9984a42.0864 42.0864 0 0 0 42.0864 42.0864h67.1744c21.6576-8.448 42.4448-18.5344 62.2592-30.1056 1.1264-3.7888 1.7408-7.8336 1.7408-11.9808V233.472c0.0512-23.2448-18.7904-42.0864-42.0352-42.0864zM782.2848 536.6784a41.91744 41.91744 0 0 0-20.48-5.3248h-89.1392a42.0864 42.0864 0 0 0-42.0864 42.0864v149.0944a442.76224 442.76224 0 0 0 151.7056-185.856z" fill="#3A9CED" p-id="3178"></path><path d="M356.7104 390.6048H267.5712a42.0864 42.0864 0 0 0-42.0864 42.0864v211.9168c10.1888 0.7168 20.4288 1.0752 30.8224 1.0752 49.8688 0 97.792-8.2944 142.4896-23.5008V432.6912a42.0864 42.0864 0 0 0-42.0864-42.0864zM601.344 479.6928V233.472a42.0864 42.0864 0 0 0-42.0864-42.0864H470.1184a42.0864 42.0864 0 0 0-42.0864 42.0864v377.6c68.2496-28.8256 127.6928-74.3424 173.312-131.3792z" fill="#59ADF8" p-id="3179"></path><path d="M225.4848 432.6912v49.408a439.23968 439.23968 0 0 0 168.2944-69.2736 42.12736 42.12736 0 0 0-37.12-22.2208h-89.088a42.0864 42.0864 0 0 0-42.0864 42.0864zM562.8928 191.5392c-1.1776-0.1024-2.4064-0.2048-3.6352-0.2048H470.1184a42.0864 42.0864 0 0 0-42.0864 42.0864v153.4976c61.2352-51.0464 108.3904-118.3744 134.8608-195.3792z" fill="#6BC2FC" p-id="3180"></path></svg>