<svg class="icon" style="width: 1em;height: 1em;vertical-align: middle;fill: currentColor;overflow: hidden;" viewBox="0 0 1024 1024" version="1.1" xmlns="http://www.w3.org/2000/svg" p-id="4973"><path d="M511.8464 510.72m-450.816 0a450.816 450.816 0 1 0 901.632 0 450.816 450.816 0 1 0-901.632 0Z" fill="#FBE1FF" p-id="4974"></path><path d="M706.5088 237.4656H317.184c-55.296 0-100.096 44.8-100.096 100.096v346.368c0 55.296 44.8 100.096 100.096 100.096h389.2736c55.296 0 100.096-44.8 100.096-100.096V337.5616c0-55.296-44.8-100.096-100.0448-100.096z m-118.1184 170.9568c0-4.608 3.7376-8.2944 8.2944-8.2944h60.2624c4.608 0 8.2944 3.7376 8.2944 8.2944v182.3744c0 4.608-3.7376 8.2944-8.2944 8.2944h-60.2624c-4.608 0-8.2944-3.7376-8.2944-8.2944V408.4224zM473.3952 348.416c0-4.608 3.7376-8.2944 8.2944-8.2944h60.2624c4.608 0 8.2944 3.7376 8.2944 8.2944v242.3808c0 4.608-3.7376 8.2944-8.2944 8.2944H481.6896c-4.608 0-8.2944-3.7376-8.2944-8.2944V348.416z m-114.944 120.832c0-4.608 3.7376-8.2944 8.2944-8.2944H427.008c4.608 0 8.2944 3.7376 8.2944 8.2944v121.5488c0 4.608-3.7376 8.2944-8.2944 8.2944H366.7456c-4.608 0-8.2944-3.7376-8.2944-8.2944V469.248z m322.56 225.4848H343.296c-16.9472 0-30.72-13.7728-30.72-30.72s13.7728-30.72 30.72-30.72h337.7152c16.9472 0 30.72 13.7728 30.72 30.72s-13.7216 30.72-30.72 30.72z" fill="#BD50D3" p-id="4975"></path><path d="M706.5088 237.4656H317.184c-55.296 0-100.096 44.8-100.096 100.096v346.368c0 42.8032 26.9312 79.2576 64.7168 93.5424 23.552 3.7888 47.6672 5.7856 72.2432 5.7856 100.5056 0 193.3312-32.9216 268.288-88.4736h-279.04c-16.9472 0-30.72-13.7728-30.72-30.72s13.7728-30.72 30.72-30.72h337.7152c2.7136 0 5.3248 0.4096 7.8336 1.024 72.1408-79.9232 116.0704-185.8048 116.0704-301.9264 0-4.7616-0.1024-9.5232-0.256-14.2848-9.0624-45.9776-49.5104-80.6912-98.1504-80.6912z m-271.2064 353.3312c0 4.608-3.7376 8.2944-8.2944 8.2944H366.7456c-4.608 0-8.2944-3.7376-8.2944-8.2944V469.248c0-4.608 3.7376-8.2944 8.2944-8.2944H427.008c4.608 0 8.2944 3.7376 8.2944 8.2944v121.5488z m114.9952 0c0 4.608-3.7376 8.2944-8.2944 8.2944H481.6896c-4.608 0-8.2944-3.7376-8.2944-8.2944V348.416c0-4.608 3.7376-8.2944 8.2944-8.2944h60.2624c4.608 0 8.2944 3.7376 8.2944 8.2944v242.3808z m114.944 0c0 4.608-3.7376 8.2944-8.2944 8.2944h-60.2624c-4.608 0-8.2944-3.7376-8.2944-8.2944V408.4224c0-4.608 3.7376-8.2944 8.2944-8.2944h60.2624c4.608 0 8.2944 3.7376 8.2944 8.2944v182.3744z" fill="#BF5CD6" p-id="4976"></path><path d="M217.1392 622.9504c4.5568 0.1536 9.1136 0.2048 13.6704 0.2048 50.944 0 99.9424-8.448 145.6128-24.064h-9.6768c-4.608 0-8.2944-3.7376-8.2944-8.2944V469.248c0-4.608 3.7376-8.2944 8.2944-8.2944H427.008c4.608 0 8.2944 3.7376 8.2944 8.2944v104.96c13.056-6.656 25.8048-13.9776 38.0928-21.8112V348.416c0-4.608 3.7376-8.2944 8.2944-8.2944h60.2624c4.608 0 8.2944 3.7376 8.2944 8.2944v141.9264a452.608 452.608 0 0 0 38.0928-43.52v-38.4c0-4.608 3.7376-8.2944 8.2944-8.2944h23.1424a448.24064 448.24064 0 0 0 57.0368-162.6624H317.184c-55.296 0-100.096 44.8-100.096 100.096v285.3888z" fill="#CA6EE0" p-id="4977"></path><path d="M508.3136 237.4656H317.184c-55.296 0-100.096 44.8-100.096 100.096v114.9952c124.416-28.1088 229.3248-107.6736 291.2256-215.0912z" fill="#D786EA" p-id="4978"></path></svg>