<svg class="icon" style="width: 1em;height: 1em;vertical-align: middle;fill: currentColor;overflow: hidden;" viewBox="0 0 1024 1024" version="1.1" xmlns="http://www.w3.org/2000/svg" p-id="3439"><path d="M514.56 509.3376m-450.816 0a450.816 450.816 0 1 0 901.632 0 450.816 450.816 0 1 0-901.632 0Z" fill="#FFF1DC" p-id="3440"></path><path d="M260.1472 770.0992c0 25.4464 20.6336 46.1312 46.1312 46.1312h184.9856V535.552H260.1472v234.5472z" fill="#FCA315" p-id="3441"></path><path d="M537.856 816.2304h184.9856c25.4464 0 46.1312-20.6336 46.1312-46.1312V535.552h-231.0656v280.6784zM792.9856 352.0512h-78.9504c6.6048-11.6736 11.6224-24.9344 13.0048-39.3216 1.7408-17.6128-1.4336-44.032-26.2656-70.0928-30.1056-31.5392-60.6208-44.6464-90.7264-38.9632-34.9696 6.6048-65.6896 37.4272-96.768 97.9968-31.0272-60.5696-61.7984-91.392-96.768-97.9968-30.1568-5.7344-60.672 7.424-90.7264 38.9632-24.832 26.0608-28.0064 52.48-26.2656 70.0928 1.4336 14.3872 6.4512 27.648 13.0048 39.3216H236.1344c-25.6 0-46.3872 20.736-46.3872 46.3872v45.1072c0 25.6 20.736 46.3872 46.3872 46.3872h255.1296V398.9504h46.592v90.9824h255.1296c25.6 0 46.3872-20.736 46.3872-46.3872v-45.1072c0-25.6-20.7872-46.3872-46.3872-46.3872z m-172.8512-94.8736c10.8544-2.0992 24.7808 5.6832 41.3184 23.04 11.4688 12.032 12.0832 21.248 11.52 27.136-1.5872 16.7936-17.152 34.3552-28.6208 44.7488h-94.9248c34.6624-76.9024 58.8288-92.7232 70.7072-94.9248z m-266.496 50.2272c-0.5632-5.888 0-15.1552 11.52-27.2384 16.5376-17.3568 30.464-25.088 41.3184-23.04 11.8784 2.2528 36.0448 18.0224 70.7072 94.9248H382.208c-11.0592-10.0864-26.9312-27.6992-28.5696-44.6464z" fill="#FF8E12" p-id="3442"></path><path d="M727.04 312.7296c1.7408-17.6128-1.4336-44.032-26.2656-70.0928-30.1056-31.5392-60.6208-44.6464-90.7264-38.9632-34.9696 6.6048-65.6896 37.4272-96.768 97.9968-31.0272-60.5696-61.7984-91.392-96.768-97.9968-30.1568-5.7344-60.672 7.424-90.7264 38.9632-24.832 26.0608-28.0064 52.48-26.2656 70.0928 1.4336 14.3872 6.4512 27.648 13.0048 39.3216H236.1344c-25.6 0-46.3872 20.736-46.3872 46.3872v45.1072c0 25.6 20.736 46.3872 46.3872 46.3872h255.1296V398.9504h46.592v90.9824h232.448a454.21056 454.21056 0 0 0 8.5504-87.7568c0-16.9472-0.9728-33.6384-2.7648-50.1248h-62.0032c6.5024-11.6736 11.52-24.8832 12.9536-39.3216z m-344.832 39.3216c-11.1104-10.0864-26.9312-27.6992-28.6208-44.6464-0.5632-5.888 0-15.1552 11.52-27.2384 16.5376-17.3568 30.464-25.088 41.3184-23.04 11.8784 2.2528 36.0448 18.0224 70.7072 94.9248H382.208z m290.7136-44.7488c-1.5872 16.7936-17.152 34.3552-28.6208 44.7488H549.376c34.6624-76.8512 58.8288-92.672 70.7072-94.9248 10.8544-2.0992 24.7808 5.6832 41.3184 23.04 11.52 12.0832 12.0832 21.248 11.52 27.136zM537.856 801.28c104.8576-55.2448 185.344-150.6304 220.928-265.728h-220.928v265.728z" fill="#FCA315" p-id="3443"></path><path d="M549.4272 352.0512c34.6624-76.8512 58.8288-92.672 70.7072-94.9248 8.0896-1.536 17.8176 2.3552 29.0816 11.6224 0.768-10.9056 1.2288-21.9648 1.2288-33.0752 0-9.6768-0.3584-19.2512-0.9216-28.7744-13.1584-4.608-26.368-5.6832-39.4752-3.2256-34.9696 6.6048-65.6896 37.4272-96.768 97.9968-31.0272-60.5696-61.7984-91.392-96.768-97.9968-30.1568-5.7344-60.672 7.424-90.7264 38.9632-24.832 26.0608-28.0064 52.48-26.2656 70.0928 1.4336 14.3872 6.4512 27.648 13.0048 39.3216H236.1344c-25.6 0-46.3872 20.736-46.3872 46.3872v45.1072c0 25.6 20.736 46.3872 46.3872 46.3872h255.1296V398.9504h46.592v90.9824h34.048c28.3648-41.472 50.0224-87.9616 63.2832-137.8304h-85.76z m-167.2192 0c-11.1104-10.0864-26.9312-27.6992-28.6208-44.6464-0.5632-5.888 0-15.1552 11.52-27.2384 16.5376-17.3568 30.464-25.088 41.3184-23.04 11.8784 2.2528 36.0448 18.0224 70.7072 94.9248H382.208zM260.1472 682.4448c87.4496-11.7248 166.9632-48.5888 231.0656-103.0144v-43.8784H260.1472v146.8928z" fill="#FCB138" p-id="3444"></path><path d="M416.512 203.7248c-30.1568-5.7344-60.672 7.424-90.7264 38.9632-24.832 26.0608-28.0064 52.48-26.2656 70.0928 1.4336 14.3872 6.4512 27.648 13.0048 39.3216H236.1344c-25.6 0-46.3872 20.736-46.3872 46.3872v45.1072c0 25.6 20.736 46.3872 46.3872 46.3872h48.4864a452.59776 452.59776 0 0 0 168.1408-137.8304H382.208c-11.1104-10.0864-26.9312-27.6992-28.6208-44.6464-0.5632-5.888 0-15.1552 11.52-27.2384 16.5376-17.3568 30.464-25.088 41.3184-23.04 10.7008 2.048 31.4368 15.104 60.8768 74.1376 11.7248-17.7152 22.272-36.3008 31.488-55.7056-26.2144-43.4688-52.736-66.3552-82.2784-71.936z" fill="#FFC65E" p-id="3445"></path></svg>