<svg class="icon" style="width: 1em;height: 1em;vertical-align: middle;fill: currentColor;overflow: hidden;" viewBox="0 0 1024 1024" version="1.1" xmlns="http://www.w3.org/2000/svg" p-id="3931"><path d="M514.6624 510.1568m-450.816 0a450.816 450.816 0 1 0 901.632 0 450.816 450.816 0 1 0-901.632 0Z" fill="#FFF1DC" p-id="3932"></path><path d="M697.9584 234.8032H331.4176c-50.8416 0-92.0576 41.216-92.0576 92.0576v366.5408c0 50.8416 41.216 92.0576 92.0576 92.0576h366.5408c50.8416 0 92.0576-41.216 92.0576-92.0576V326.912c0-50.8416-41.216-92.1088-92.0576-92.1088z m-34.1504 260.864l-50.5856 49.3056c-5.12 5.0176-7.4752 12.1856-6.2464 19.2512l11.9296 69.632c3.072 17.7664-15.616 31.3344-31.5904 22.9376l-62.5152-32.8704a21.8368 21.8368 0 0 0-20.2752 0l-62.5152 32.8704c-15.9744 8.3968-34.6112-5.1712-31.5904-22.9376l11.9296-69.632c1.2288-7.0656-1.1264-14.2848-6.2464-19.2512l-50.5856-49.3056c-12.9024-12.5952-5.7856-34.5088 12.0832-37.12l69.9392-10.1376a21.8112 21.8112 0 0 0 16.384-11.8784l31.2832-63.3344c7.9872-16.1792 31.0272-16.1792 39.0144 0l31.2832 63.3344a21.8112 21.8112 0 0 0 16.384 11.8784l69.9392 10.1376c17.7664 2.56 24.8832 24.5248 11.9808 37.12z" fill="#FC7032" p-id="3933"></path><path d="M790.016 326.912c0-50.8416-41.216-92.0576-92.0576-92.0576H331.4176c-50.8416 0-92.0576 41.216-92.0576 92.0576v366.5408c0 50.8416 41.216 92.0576 92.0576 92.0576h143.872c158.1056-46.08 280.32-176.4352 314.7264-339.1488V326.912z m-126.208 168.7552l-50.5856 49.3056c-5.12 5.0176-7.4752 12.1856-6.2464 19.2512l11.9296 69.632c3.072 17.7664-15.616 31.3344-31.5904 22.9376l-62.5152-32.8704a21.8368 21.8368 0 0 0-20.2752 0l-62.5152 32.8704c-15.9744 8.3968-34.6112-5.1712-31.5904-22.9376l11.9296-69.632c1.2288-7.0656-1.1264-14.2848-6.2464-19.2512l-50.5856-49.3056c-12.9024-12.5952-5.7856-34.5088 12.0832-37.12l69.9392-10.1376a21.8112 21.8112 0 0 0 16.384-11.8784l31.2832-63.3344c7.9872-16.1792 31.0272-16.1792 39.0144 0l31.2832 63.3344a21.8112 21.8112 0 0 0 16.384 11.8784l69.9392 10.1376c17.7664 2.56 24.8832 24.5248 11.9808 37.12z" fill="#FF7E3E" p-id="3934"></path><path d="M331.4176 234.8032c-50.8416 0-92.0576 41.216-92.0576 92.0576v316.2624c63.0272-1.8944 122.7264-16.6912 176.6912-41.8816l6.3488-37.0688c1.2288-7.0656-1.1264-14.2848-6.2464-19.2512L365.568 495.616c-12.9024-12.5952-5.7856-34.5088 12.0832-37.12l69.9392-10.1376a21.8112 21.8112 0 0 0 16.384-11.8784l31.2832-63.3344c7.9872-16.1792 31.0272-16.1792 39.0144 0l31.2832 63.3344a21.8112 21.8112 0 0 0 16.384 11.8784l13.6704 1.9968c43.4176-62.208 71.5776-135.8336 79.0016-215.552H331.4176z" fill="#FF9552" p-id="3935"></path><path d="M239.36 326.912v138.752c120.832-35.4304 220.6208-120.1152 276.1216-230.8096H331.4176c-50.8416-0.0512-92.0576 41.216-92.0576 92.0576z" fill="#FFA56A" p-id="3936"></path></svg>