<svg class="icon" style="width: 1em;height: 1em;vertical-align: middle;fill: currentColor;overflow: hidden;" viewBox="0 0 1024 1024" version="1.1" xmlns="http://www.w3.org/2000/svg" p-id="4859"><path d="M504.3712 514.7136m-450.816 0a450.816 450.816 0 1 0 901.632 0 450.816 450.816 0 1 0-901.632 0Z" fill="#FFE3DB" p-id="4860"></path><path d="M617.6256 854.784H399.9232c-16.9472 0-30.72-13.7728-30.72-30.72s13.7728-30.72 30.72-30.72h217.7024c16.9472 0 30.72 13.7728 30.72 30.72s-13.7728 30.72-30.72 30.72zM514.304 172.8c-144.3328-4.7104-266.9568 113.8688-266.9568 258.304 0 92.6208 48.7424 173.7728 121.9072 219.392v58.8288c0 24.6784 20.0192 44.6464 44.6464 44.6464h188.1088c24.6784 0 44.6464-20.0192 44.6464-44.6464V647.68c70.7584-46.1312 117.5552-125.9008 117.5552-216.6272 0.0512-139.8272-111.104-253.7472-249.9072-258.2528zM437.1968 345.1392c-0.8192 0.8192-40.96 39.6288-43.1616 97.3824-0.6656 17.92-15.4624 32-33.2288 32h-1.28a33.33632 33.33632 0 0 1-32-34.56c3.328-86.3232 61.9008-141.312 64.4096-143.616a33.32608 33.32608 0 0 1 47.0528 1.8944 33.2288 33.2288 0 0 1-1.792 46.8992z" fill="#F23D4F" p-id="4861"></path><path d="M731.7504 355.7376c0-19.456-1.4848-38.5536-4.1472-57.2928-43.776-73.0624-122.624-122.7264-213.2992-125.6448-144.3328-4.7104-266.9568 113.8688-266.9568 258.304 0 92.6208 48.7424 173.7728 121.9072 219.392v58.8288c0 19.5072 12.544 36.096 30.0032 42.1376 188.8768-32.8192 332.4928-197.4784 332.4928-395.7248z m-294.5536-10.5984c-0.8192 0.8192-40.96 39.6288-43.1616 97.3824-0.6656 17.92-15.4624 32-33.2288 32h-1.28a33.33632 33.33632 0 0 1-32-34.56c3.328-86.3232 61.9008-141.312 64.4096-143.616a33.32608 33.32608 0 0 1 47.0528 1.8944 33.2288 33.2288 0 0 1-1.792 46.8992z" fill="#FC4956" p-id="4862"></path><path d="M247.3472 431.104c0 66.4064 25.1904 126.9248 66.3552 172.6464 176.6912-42.24 308.1216-201.1136 308.1216-390.7584 0-4.352-0.2048-8.704-0.3072-13.056a256.39424 256.39424 0 0 0-107.1616-27.1872c-144.384-4.6592-267.008 113.92-267.008 258.3552z m189.8496-85.9648c-0.8192 0.8192-40.96 39.6288-43.1616 97.3824-0.6656 17.92-15.4624 32-33.2288 32h-1.28a33.33632 33.33632 0 0 1-32-34.56c3.328-86.3232 61.9008-141.312 64.4096-143.616a33.32608 33.32608 0 0 1 47.0528 1.8944 33.2288 33.2288 0 0 1-1.792 46.8992z" fill="#FF5C64" p-id="4863"></path><path d="M391.936 296.3456a33.32608 33.32608 0 0 1 52.5312 9.8816c28.7232-39.68 50.4832-84.7872 63.232-133.5296-141.4656-0.8192-260.352 116.224-260.352 258.4064 0 6.8096 0.3584 13.5168 0.8704 20.1728a400.67584 400.67584 0 0 0 82.3808-38.912c12.6464-70.2976 59.136-113.9712 61.3376-116.0192z" fill="#FF716E" p-id="4864"></path></svg>