<svg class="icon" style="width: 1em;height: 1em;vertical-align: middle;fill: currentColor;overflow: hidden;" viewBox="0 0 1024 1024" version="1.1" xmlns="http://www.w3.org/2000/svg" p-id="4668"><path d="M512.512 513.1264m-450.816 0a450.816 450.816 0 1 0 901.632 0 450.816 450.816 0 1 0-901.632 0Z" fill="#E9ECFF" p-id="4669"></path><path d="M841.0112 434.0736L536.576 174.2336c-15.6672-13.3632-39.4752-13.3632-55.1424 0L176.9472 434.0736c-28.16 24.0128-10.24 68.352 27.5968 68.352h68.3008v242.8416c0 37.376 31.8976 67.6864 71.2192 67.6864h329.8816c39.3216 0 71.2192-30.3104 71.2192-67.6864V502.4768h68.3008c37.8368 0 55.7056-44.3392 27.5456-68.4032z m-232.6016 178.176c18.5856 0 33.6384 14.2848 33.6384 31.9488s-15.0528 31.9488-33.6384 31.9488h-63.3344v31.5392c0 17.664-15.0528 31.9488-33.6384 31.9488-18.5856 0-33.6384-14.2848-33.6384-31.9488v-31.5392H414.5152c-18.5856 0-33.6384-14.2848-33.6384-31.9488s15.0528-31.9488 33.6384-31.9488h63.3344v-20.6336H414.5152c-18.5856 0-33.6384-14.2848-33.6384-31.9488s15.0528-31.9488 33.6384-31.9488h31.4368l-43.6224-52.0192c-11.5712-13.824-9.1648-33.8944 5.3248-44.9024 14.5408-11.008 35.6864-8.704 47.2576 5.0688l55.4496 66.1504 55.3472-68.5568c11.3152-13.9776 32.4096-16.64 47.1552-5.888 14.7456 10.752 17.5104 30.8224 6.1952 44.8l-44.6976 55.3472h33.9968c18.5856 0 33.6384 14.2848 33.6384 31.9488s-15.0528 31.9488-33.6384 31.9488h-63.3344v20.6336h63.3856z" fill="#6C6CEA" p-id="4670"></path><path d="M536.576 174.2336c-15.6672-13.3632-39.4752-13.3632-55.1424 0L176.9472 434.0736c-28.16 24.0128-10.24 68.352 27.5968 68.352h68.3008v242.8416c0 11.1616 2.8672 21.6576 7.936 30.9248 29.0816 6.2976 59.2896 9.728 90.2656 9.728 162.048 0 302.848-90.9824 374.1696-224.6144v-58.88h25.8048a423.45472 423.45472 0 0 0 22.6304-108.8512L536.576 174.2336z m71.8336 438.016c18.5856 0 33.6384 14.2848 33.6384 31.9488s-15.0528 31.9488-33.6384 31.9488h-63.3344v31.5392c0 17.664-15.0528 31.9488-33.6384 31.9488-18.5856 0-33.6384-14.2848-33.6384-31.9488v-31.5392H414.5152c-18.5856 0-33.6384-14.2848-33.6384-31.9488s15.0528-31.9488 33.6384-31.9488h63.2832v-20.6336H414.5152c-18.5856 0-33.6384-14.2848-33.6384-31.9488s15.0528-31.9488 33.6384-31.9488h31.4368l-43.6224-52.0192c-11.5712-13.824-9.1648-33.8944 5.3248-44.9024 14.5408-11.008 35.6864-8.704 47.2576 5.0688l55.4496 66.1504 55.3472-68.5568c11.3152-13.9776 32.4096-16.64 47.1552-5.888 14.7456 10.752 17.5104 30.8224 6.1952 44.8l-44.6976 55.3472h33.9968c18.5856 0 33.6384 14.2848 33.6384 31.9488s-15.0528 31.9488-33.6384 31.9488h-63.3344v20.6336h63.3856z" fill="#757BF2" p-id="4671"></path><path d="M536.576 174.2336c-15.6672-13.3632-39.4752-13.3632-55.1424 0L176.9472 434.0736c-28.16 24.0128-10.24 68.352 27.5968 68.352h68.3008v132.5056c60.8256-2.5088 118.3232-17.8176 169.9328-43.3664h-28.2112c-18.5856 0-33.6384-14.2848-33.6384-31.9488s15.0528-31.9488 33.6384-31.9488h31.4368L402.3808 475.648c-11.5712-13.824-9.1648-33.8944 5.3248-44.9024 14.5408-11.008 35.6864-8.704 47.2576 5.0688l55.4496 66.1504 55.3472-68.5568c11.3152-13.9776 32.4096-16.64 47.1552-5.888 1.6896 1.2288 3.1744 2.56 4.5568 4.0448 26.112-42.9056 44.6976-90.88 54.2208-142.0288L536.576 174.2336z" fill="#8486F8" p-id="4672"></path><path d="M481.4336 174.2336L176.9472 434.0736c-16.7424 14.2848-17.1008 35.6864-6.7584 50.7392 180.3776-9.1136 331.008-131.0208 382.8224-296.6016l-16.4352-14.0288c-15.6672-13.3632-39.4752-13.3632-55.1424 0.0512z" fill="#8D92F8" p-id="4673"></path></svg>