<svg class="icon" style="width: 1em;height: 1em;vertical-align: middle;fill: currentColor;overflow: hidden;" viewBox="0 0 1024 1024" version="1.1" xmlns="http://www.w3.org/2000/svg" p-id="2996"><path d="M508.416 519.8336m-450.816 0a450.816 450.816 0 1 0 901.632 0 450.816 450.816 0 1 0-901.632 0Z" fill="#FFF1DC" p-id="2997"></path><path d="M546.5088 838.8608H477.5424a47.4624 47.4624 0 0 1-47.4624-47.4624 47.4624 47.4624 0 0 1 47.4624-47.4624h68.9664a47.4624 47.4624 0 0 1 47.4624 47.4624 47.4624 47.4624 0 0 1-47.4624 47.4624zM740.864 559.3088h-19.5584V402.7392c0-115.6096-93.696-209.3056-209.3056-209.3056s-209.3056 93.696-209.3056 209.3056v156.5696H283.136c-43.4176 0-78.592 35.1744-78.592 78.592s35.1744 78.592 78.592 78.592h457.7792c43.4176 0 78.592-35.1744 78.592-78.592-0.0512-43.4176-35.2256-78.592-78.6432-78.592z m-309.76-42.8032c0 18.0224-14.592 32.6144-32.6144 32.6144s-32.6144-14.592-32.6144-32.6144v-133.12c0-18.0224 14.592-32.6144 32.6144-32.6144s32.6144 14.592 32.6144 32.6144v133.12z" fill="#FC7032" p-id="2998"></path><path d="M721.3056 559.3088V402.7392c0-115.6096-93.696-209.3056-209.3056-209.3056s-209.3056 93.696-209.3056 209.3056v156.5696H283.136c-43.4176 0-78.592 35.1744-78.592 78.592s35.1744 78.592 78.592 78.592h299.4176a433.17248 433.17248 0 0 0 154.8288-157.184h-16.0768z m-290.2016-42.8032c0 18.0224-14.592 32.6144-32.6144 32.6144s-32.6144-14.592-32.6144-32.6144v-133.12c0-18.0224 14.592-32.6144 32.6144-32.6144s32.6144 14.592 32.6144 32.6144v133.12zM527.7184 743.8848h-50.176c-18.7392 0-34.8672 10.8544-42.5984 26.5728 32.256-5.376 63.3344-14.3872 92.7744-26.5728z" fill="#FF7E3E" p-id="2999"></path><path d="M206.2336 621.6704c12.8512 1.1776 25.856 1.792 39.0144 1.792 213.1456 0 390.0928-154.7264 424.704-357.9904-38.4-44.1344-94.8736-72.0384-157.952-72.0384-115.6096 0-209.3056 93.696-209.3056 209.3056v156.5696H283.136c-37.8368 0-69.4272 26.7776-76.9024 62.3616z m159.6416-238.336c0-18.0224 14.592-32.6144 32.6144-32.6144s32.6144 14.592 32.6144 32.6144v133.12c0 18.0224-14.592 32.6144-32.6144 32.6144s-32.6144-14.592-32.6144-32.6144v-133.12z" fill="#FF9552" p-id="3000"></path><path d="M365.8752 405.1456v-21.76c0-18.0224 14.592-32.6144 32.6144-32.6144 9.8816 0 18.688 4.4032 24.6784 11.3664 50.7904-45.2096 90.8288-102.2976 115.7632-166.8608-8.8064-1.1264-17.8176-1.792-26.9312-1.792-115.6096 0-209.3056 93.696-209.3056 209.3056v35.1744c22.0672-9.2672 43.1616-20.2752 63.1808-32.8192z" fill="#FFA56A" p-id="3001"></path></svg>