<svg class="icon" style="width: 1em;height: 1em;vertical-align: middle;fill: currentColor;overflow: hidden;" viewBox="0 0 1024 1024" version="1.1" xmlns="http://www.w3.org/2000/svg" p-id="1899"><path d="M511.744 519.8336m-450.816 0a450.816 450.816 0 1 0 901.632 0 450.816 450.816 0 1 0-901.632 0Z" fill="#FFF1DC" p-id="1900"></path><path d="M750.4384 334.4896l-36.4544-99.4304S182.1184 208.5376 188.7232 488.5504c0 54.6816 53.8624 115.1488 225.3312 102.7072 76.2368-8.2944 201.3184-24.0128 211.2512 10.752 9.9328 34.816-86.2208 84.48-155.8016 91.9552s-157.3888 4.1472-201.2672 0c24.0128 56.32 45.568 103.5776 45.568 103.5776s222.8736 42.24 408.4224-71.2704c72.9088-45.568 128.4096-111.8208 111.0016-178.1248-17.408-66.2528-74.5472-105.216-236.9536-100.2496-115.1488 4.9664-192.2048 14.8992-198.8096-20.736-6.6048-35.4816 70.4512-94.3104 352.9728-92.672z" fill="#FC7032" p-id="1901"></path><path d="M596.3264 448c-115.1488 4.9664-192.2048 14.8992-198.8096-20.736-6.6048-35.6352 70.4-94.464 352.9216-92.7744l-36.4544-99.4304S182.1184 208.5376 188.7232 488.5504c0 54.6816 53.8624 115.1488 225.3312 102.7072 76.2368-8.2944 201.3184-24.0128 211.2512 10.752 9.9328 34.816-86.2208 84.48-155.8016 91.9552-69.5808 7.4752-157.3888 4.1472-201.2672 0 24.0128 56.32 45.568 103.5776 45.568 103.5776s78.9504 14.9504 182.016 3.1232c134.8096-60.3648 234.496-184.9344 260.2496-334.848-36.3008-13.568-87.6544-20.0192-159.744-17.8176z" fill="#FF7E3E" p-id="1902"></path><path d="M582.2464 448.6144c-107.3152 5.0688-178.432 12.8-184.7808-21.3504-5.5296-29.696 47.1552-75.52 228.4544-88.9856a451.36896 451.36896 0 0 0 13.312-103.2704c-146.2272 4.608-455.5776 39.5776-450.56 253.5424 0 54.6816 53.8624 115.1488 225.3312 102.7072 15.104-1.6384 32.1024-3.584 49.7664-5.3248a451.16416 451.16416 0 0 0 118.4768-137.3184z" fill="#FF9552" p-id="1903"></path><path d="M488.6016 249.2928c-144.128 23.9616-303.5136 85.1968-299.8784 239.3088 0 5.5808 0.6144 11.1616 1.792 16.7424 134.0416-35.3792 243.6096-130.9184 298.0864-256.0512z" fill="#FFA56A" p-id="1904"></path></svg>