<svg class="icon" style="width: 1em;height: 1em;vertical-align: middle;fill: currentColor;overflow: hidden;" viewBox="0 0 1024 1024" version="1.1" xmlns="http://www.w3.org/2000/svg" p-id="4475"><path d="M511.744 510.72m-450.816 0a450.816 450.816 0 1 0 901.632 0 450.816 450.816 0 1 0-901.632 0Z" fill="#E9F4FF" p-id="4476"></path><path d="M818.6368 766.208l-89.4976-92.7232c39.424-51.3024 62.9248-115.5072 62.9248-185.2416 0-168.0896-136.2432-304.3328-304.3328-304.3328S183.3984 320.1536 183.3984 488.2432s136.2432 304.3328 304.3328 304.3328c72.4992 0 139.008-25.4464 191.2832-67.7888l88.0128 91.2384a35.74784 35.74784 0 0 0 25.8048 10.9568c8.96 0 17.92-3.328 24.8832-10.0352 14.2336-13.824 14.6432-36.5056 0.9216-50.7392z m-329.0624-79.9232h-1.1776c-117.76 0-175.2576-89.6-189.2352-137.1136a30.7712 30.7712 0 0 1 20.8384-38.144c16.2304-4.7616 33.2288 4.5056 38.0928 20.6848 1.28 4.1472 29.9008 93.1328 130.304 93.1328h1.024c16.896 0 30.6176 13.6704 30.72 30.5664 0.1024 16.9472-13.6192 30.7712-30.5664 30.8736z" fill="#2595E8" p-id="4477"></path><path d="M747.4688 359.2704c0-10.6496-0.512-21.1968-1.28-31.6928-53.7088-86.272-149.3504-143.7184-258.4576-143.7184-168.0896 0-304.3328 136.2432-304.3328 304.3328 0 138.9568 93.1328 256.0512 220.416 292.5056 196.096-40.0384 343.6544-213.504 343.6544-421.4272z m-427.52 151.808c16.2304-4.7616 33.2288 4.5056 38.0928 20.6848 1.28 4.1472 29.9008 93.1328 130.304 93.1328h1.024c16.896 0 30.6176 13.6704 30.72 30.5664 0.1024 16.9472-13.6192 30.7712-30.5664 30.8736h-1.1776c-117.76 0-175.2576-89.6-189.2352-137.1136-4.7616-16.2816 4.5568-33.3824 20.8384-38.144z" fill="#3A9CED" p-id="4478"></path><path d="M487.7312 183.9104c-168.0896 0-304.3328 136.2432-304.3328 304.3328a303.0016 303.0016 0 0 0 38.3488 147.8656c39.4752-1.9968 77.4656-9.4208 113.408-21.3504-18.9952-23.0912-30.6688-47.4112-36.0448-65.536a30.7712 30.7712 0 0 1 20.8384-38.144c16.2304-4.7616 33.2288 4.5056 38.0928 20.6848 0.7168 2.3552 10.4448 32.4608 37.3248 57.8048 135.68-69.4784 229.5296-208.7936 234.1376-370.5856a302.5408 302.5408 0 0 0-141.7728-35.072z" fill="#59ADF8" p-id="4479"></path><path d="M183.7568 474.4192c150.6816-32.9728 271.8208-144.7936 317.8496-290.1504-4.608-0.2048-9.216-0.3584-13.8752-0.3584-163.4304 0-296.7552 128.8192-303.9744 290.5088z" fill="#6BC2FC" p-id="4480"></path></svg>