<svg class="icon" style="width: 1em;height: 1em;vertical-align: middle;fill: currentColor;overflow: hidden;" viewBox="0 0 1024 1024" version="1.1" xmlns="http://www.w3.org/2000/svg" p-id="827"><path d="M517.8368 513.3312m-450.816 0a450.816 450.816 0 1 0 901.632 0 450.816 450.816 0 1 0-901.632 0Z" fill="#E9ECFF" p-id="828"></path><path d="M516.8128 407.808m-66.5088 0a66.5088 66.5088 0 1 0 133.0176 0 66.5088 66.5088 0 1 0-133.0176 0Z" fill="#8486F8" p-id="829"></path><path d="M515.4816 676.5568c39.4752-1.8432 196.8128-102.144 198.1952-277.1456 0-108.6976-88.1152-196.8128-196.8128-196.8128-108.6976 0-196.8128 88.1152-196.8128 196.8128-2.048 160.8192 161.2288 283.3408 195.4304 277.1456z m1.3312-385.6896c64.512 0 116.9408 52.48 116.9408 116.9408s-52.48 116.9408-116.9408 116.9408S399.872 472.32 399.872 407.808s52.48-116.9408 116.9408-116.9408z" fill="#757BF2" p-id="830"></path><path d="M706.5088 592.0768c-46.2848 51.8656-119.808 120.832-191.6928 132.1472-77.9264-14.1824-153.088-95.3344-184.3712-133.0176-84.7872 20.6848-140.3392 55.0912-140.3392 94.1056 0 63.2832 146.2784 114.5856 326.7072 114.5856s326.7072-51.3024 326.7072-114.5856c0-38.4512-54.1184-72.448-137.0112-93.2352z" fill="#6C6CEA" p-id="831"></path><path d="M713.6768 593.92c-2.3552-0.6144-4.7104-1.2288-7.1168-1.8432-46.2848 51.8656-119.808 120.832-191.6928 132.1472-77.9264-14.1824-153.088-95.3344-184.3712-133.0176-84.7872 20.6848-140.3392 55.0912-140.3392 94.1056 0 50.8928 94.72 94.0544 225.6896 108.9536 124.8256-22.9376 231.7312-97.28 297.8304-200.3456z" fill="#757BF2" p-id="832"></path><path d="M399.872 407.808c0-64.512 52.48-116.9408 116.9408-116.9408 49.7664 0 92.3648 31.2832 109.2096 75.1616a449.77152 449.77152 0 0 0 30.0032-105.7792c-35.6352-35.6352-84.8384-57.6512-139.2128-57.6512-108.6976 0-196.8128 88.1152-196.8128 196.8128-0.9728 79.4112 38.4 149.504 82.5856 199.3728a451.90144 451.90144 0 0 0 110.8992-74.0864c-62.976-1.792-113.6128-53.504-113.6128-116.8896z" fill="#8486F8" p-id="833"></path><path d="M449.8944 312.0128a448.44544 448.44544 0 0 0 64.3072-109.3632c-107.4688 1.4336-194.2016 88.9344-194.2016 196.7616-0.1024 7.8848 0.3072 15.616 0.9728 23.296a452.864 452.864 0 0 0 93.2864-71.0144c8.704-15.8208 20.9408-29.3888 35.6352-39.68z" fill="#8D92F8" p-id="834"></path><path d="M330.496 591.2064c-31.3344 7.6288-58.624 17.152-80.64 28.1088 37.1712 1.0752 71.6288-2.9184 98.4064-7.68a511.44704 511.44704 0 0 1-17.7664-20.4288z" fill="#8486F8" p-id="835"></path></svg>