<svg class="icon" style="width: 1em;height: 1em;vertical-align: middle;fill: currentColor;overflow: hidden;" viewBox="0 0 1024 1024" version="1.1" xmlns="http://www.w3.org/2000/svg" p-id="6393"><path d="M515.3792 514.2016m-450.816 0a450.816 450.816 0 1 0 901.632 0 450.816 450.816 0 1 0-901.632 0Z" fill="#FFF7DC" p-id="6394"></path><path d="M536.5248 507.6992l-17.664-35.7376-17.664 35.7376a52.736 52.736 0 0 1-39.68 28.8256l-39.4752 5.7344 28.5696 27.8528c12.4416 12.0832 18.0736 29.5424 15.1552 46.6432l-6.7584 39.3216 35.2768-18.5344c15.36-8.0896 33.6896-8.0896 49.0496 0l35.2768 18.5344-6.7584-39.3216c-2.9184-17.1008 2.7136-34.5088 15.1552-46.6432l28.5696-27.8528-39.4752-5.7344a52.736 52.736 0 0 1-39.5776-28.8256z" fill="#FCA315" p-id="6395"></path><path d="M747.1616 336.7424h-225.1264c-12.1344 0-23.5008-5.9392-30.464-15.9232l-40.3968-53.2992a37.0688 37.0688 0 0 0-30.464-15.9232h-130.048c-41.1136 0-74.3936 33.3312-74.3936 74.3936v376.4736c0 41.1136 33.3312 74.3936 74.3936 74.3936h456.4992c41.1136 0 74.3936-33.3312 74.3936-74.3936V416.0512c0-41.1136-33.3312-79.3088-74.3936-79.3088z m-81.6128 239.0016l-35.1232 34.2016 8.2944 48.3328c3.4304 19.9168-4.608 39.6288-20.9408 51.5072-16.3328 11.8784-37.5808 13.4144-55.5008 3.9936l-43.4176-22.8352-43.4176 22.8352c-7.7824 4.096-16.1792 6.0928-24.576 6.0928-10.8544 0-21.6576-3.4304-30.9248-10.1376-16.3328-11.8784-24.3712-31.5904-20.9408-51.5072l8.2944-48.3328-35.1232-34.2016a52.38272 52.38272 0 0 1-13.312-54.016c6.2464-19.2 22.528-32.9728 42.5472-35.84l48.5376-7.0656 21.7088-43.9808c8.96-18.1248 27.0336-29.3888 47.2576-29.3888 20.1728 0 38.2976 11.264 47.2576 29.3888l21.7088 43.9808 48.5376 7.0656c19.968 2.9184 36.3008 16.64 42.5472 35.84 6.144 19.2512 1.024 39.936-13.4144 54.0672z" fill="#FF8E12" p-id="6396"></path><path d="M747.1616 336.7424h-225.1264c-12.1344 0-23.5008-5.9392-30.464-15.9232l-40.3968-53.2992a37.0688 37.0688 0 0 0-30.464-15.9232h-130.048c-41.1136 0-74.3936 33.3312-74.3936 74.3936v376.4736c0 41.1136 33.3312 74.3936 74.3936 74.3936h279.0912c142.9504-75.5712 240.4352-225.792 240.4352-398.7456 0-1.024-0.0512-1.9968-0.0512-3.0208-13.2096-22.3744-36.4544-38.3488-62.976-38.3488z m-81.6128 239.0016l-35.1232 34.2016 8.2944 48.3328c3.4304 19.9168-4.608 39.6288-20.9408 51.5072-16.3328 11.8784-37.5808 13.4144-55.5008 3.9936l-43.4176-22.8352-43.4176 22.8352c-7.7824 4.096-16.1792 6.0928-24.576 6.0928-10.8544 0-21.6576-3.4304-30.9248-10.1376-16.3328-11.8784-24.3712-31.5904-20.9408-51.5072l8.2944-48.3328-35.1232-34.2016a52.38272 52.38272 0 0 1-13.312-54.016c6.2464-19.2 22.528-32.9728 42.5472-35.84l48.5376-7.0656 21.7088-43.9808c8.96-18.1248 27.0336-29.3888 47.2576-29.3888 20.1728 0 38.2976 11.264 47.2576 29.3888l21.7088 43.9808 48.5376 7.0656c19.968 2.9184 36.3008 16.64 42.5472 35.84 6.144 19.2512 1.024 39.936-13.4144 54.0672z" fill="#FCA315" p-id="6397"></path><path d="M491.5712 320.8192l-40.3968-53.2992a37.0688 37.0688 0 0 0-30.464-15.9232h-130.048c-41.1136 0-74.3936 33.3312-74.3936 74.3936v342.3744a449.90464 449.90464 0 0 0 186.5216-31.3856l4.6592-27.0336-35.1232-34.2016a52.38272 52.38272 0 0 1-13.312-54.016c6.2464-19.2 22.528-32.9728 42.5472-35.84l48.5376-7.0656 21.7088-43.9808c8.96-18.1248 27.0336-29.3888 47.2576-29.3888 20.1728 0 38.2976 11.264 47.2576 29.3888l21.7088 43.9808 14.4384 2.0992a448.94208 448.94208 0 0 0 68.7616-144.1792H522.24a37.2224 37.2224 0 0 1-30.6688-15.9232z" fill="#FCB138" p-id="6398"></path><path d="M536.5248 507.6992l-17.664-35.7376-17.664 35.7376a52.736 52.736 0 0 1-39.68 28.8256l-39.4752 5.7344 28.5696 27.8528c9.6768 9.472 15.2064 22.1696 15.7696 35.4304a454.59968 454.59968 0 0 0 93.6448-74.1376c-10.0352-5.12-18.3808-13.312-23.5008-23.7056z" fill="#FCB138" p-id="6399"></path><path d="M490.3936 319.232l-39.2192-51.7632a37.0688 37.0688 0 0 0-30.464-15.9232h-130.048c-41.1136 0-74.3936 33.3312-74.3936 74.3936v173.5168c112.5888-23.7056 209.7152-89.4976 274.1248-180.224z" fill="#FFC65E" p-id="6400"></path></svg>