<svg class="icon" style="width: 1em;height: 1em;vertical-align: middle;fill: currentColor;overflow: hidden;" viewBox="0 0 1024 1024" version="1.1" xmlns="http://www.w3.org/2000/svg" p-id="1059"><path d="M513.7408 511.6416m-450.816 0a450.816 450.816 0 1 0 901.632 0 450.816 450.816 0 1 0-901.632 0Z" fill="#FFE3DB" p-id="1060"></path><path d="M829.7472 455.8336c25.0368-24.4224 11.2128-66.9696-23.3984-71.9872l-153.6-22.3232a42.30656 42.30656 0 0 1-31.7952-23.0912l-68.7104-139.1616c-15.4624-31.3856-60.2112-31.3856-75.6736 0L407.9104 338.4832a42.21952 42.21952 0 0 1-31.7952 23.0912l-153.6 22.3232c-34.6112 5.0176-48.4352 47.5648-23.3984 71.9872L310.272 564.224a42.2144 42.2144 0 0 1 12.1344 37.376l-26.2144 152.9856c-5.888 34.4576 30.2592 60.7744 61.2352 44.4928l137.3696-72.2432a42.26048 42.26048 0 0 1 39.2704 0l137.3696 72.2432c30.976 16.2816 67.1232-10.0352 61.2352-44.4928l-26.2144-152.9856c-2.3552-13.6704 2.2016-27.648 12.1344-37.376l111.1552-108.3904z m-131.1744-14.0288a28.0064 28.0064 0 0 1-27.4432 22.3232c-1.8944 0-3.7888-0.2048-5.7344-0.5632l-92.8768-19.2512a28.1088 28.1088 0 0 1-19.968-16.128l-30.976-70.144c-6.2464-14.1824 0.1536-30.72 14.336-36.9664 14.1824-6.2464 30.72 0.1536 36.9664 14.336l25.1392 56.9344 78.7456 16.3328c15.2064 3.1232 24.9344 17.92 21.8112 33.1264z" fill="#F23D4F" p-id="1061"></path><path d="M806.3488 383.8976l-153.6-22.3232a42.30656 42.30656 0 0 1-31.7952-23.0912l-68.7104-139.1616c-15.4624-31.3856-60.2112-31.3856-75.6736 0L407.9104 338.4832a42.21952 42.21952 0 0 1-31.7952 23.0912l-153.6 22.3232c-34.6112 5.0176-48.4352 47.5648-23.3984 71.9872L310.272 564.224a42.2144 42.2144 0 0 1 12.1344 37.376l-26.2144 152.9856c-1.536 8.96-0.1536 17.3568 3.1744 24.6272 20.5824 2.8672 41.6256 4.4032 62.976 4.4032 8.704 0 17.3056-0.256 25.856-0.768l106.5984-56.0128a42.26048 42.26048 0 0 1 39.2704 0l23.6032 12.3904c58.9312-28.3648 110.6944-69.1712 152.0128-118.9888l-3.1744-18.6368c-2.3552-13.6704 2.2016-27.648 12.1344-37.376l60.3136-58.7776a448.1536 448.1536 0 0 0 31.2832-120.7296c-1.3312-0.3072-2.56-0.6656-3.8912-0.8192z m-107.776 57.9072a28.0064 28.0064 0 0 1-27.4432 22.3232c-1.8944 0-3.7888-0.2048-5.7344-0.5632l-92.8768-19.2512a28.1088 28.1088 0 0 1-19.968-16.128l-30.976-70.144c-6.2464-14.1824 0.1536-30.72 14.336-36.9664 14.1824-6.2464 30.72 0.1536 36.9664 14.336l25.1392 56.9344 78.7456 16.3328c15.2064 3.1232 24.9344 17.92 21.8112 33.1264z" fill="#FC4956" p-id="1062"></path><path d="M319.9488 616.2432c111.4112-20.1728 208.5376-81.3056 275.3024-167.2704l-22.6816-4.7104a28.1088 28.1088 0 0 1-19.968-16.128l-30.976-70.144c-6.2464-14.1824 0.1536-30.72 14.336-36.9664 14.1824-6.2464 30.72 0.1536 36.9664 14.336l25.1392 56.9344 31.0272 6.4512c7.168-12.288 13.7216-24.9856 19.712-37.9904a42.05568 42.05568 0 0 1-27.8528-22.272l-68.7104-139.1616c-15.4624-31.3856-60.2112-31.3856-75.6736 0L407.9104 338.4832a42.21952 42.21952 0 0 1-31.7952 23.0912l-153.6 22.3232c-34.6112 5.0176-48.4352 47.5648-23.3984 71.9872L310.272 564.224a42.2144 42.2144 0 0 1 12.1344 37.376l-2.4576 14.6432z" fill="#FF5C64" p-id="1063"></path><path d="M542.0544 186.0608c-19.712-17.152-52.6336-12.8-65.4336 13.2096L407.9104 338.4832a42.21952 42.21952 0 0 1-31.7952 23.0912l-153.6 22.3232c-34.6112 5.0176-48.4352 47.5648-23.3984 71.9872l1.8432 1.792c154.6752-26.0608 282.5728-130.7648 341.0944-271.616z" fill="#FF716E" p-id="1064"></path></svg>