<svg class="icon" style="width: 1em;height: 1em;vertical-align: middle;fill: currentColor;overflow: hidden;" viewBox="0 0 1024 1024" version="1.1" xmlns="http://www.w3.org/2000/svg" p-id="4555"><path d="M515.328 510.72m-450.816 0a450.816 450.816 0 1 0 901.632 0 450.816 450.816 0 1 0-901.632 0Z" fill="#FFF1DC" p-id="4556"></path><path d="M580.7616 465.2032c-6.656 1.3312-12.8 5.2224-19.968 12.544l-15.36 15.7184-20.1216-8.7552a32.5632 32.5632 0 0 1-9.1136-5.3248c-1.5872-1.3312-3.072-2.6624-4.4544-4.096-7.0656-7.3216-15.4624-10.8032-27.2384-11.264-0.8192-0.0512-1.6384-0.0512-2.4576-0.0512-12.2368 0-20.992 3.9424-28.0576 12.5952-15.9744 19.5584-16.4352 50.5344-1.024 72.0896 9.472 13.312 21.504 25.7536 36.7616 37.9904 13.6704 11.008 28.4672 22.3744 47.6672 36.7616 27.3408-19.8144 53.1456-38.5536 74.24-61.8496 18.8416-20.7872 25.088-39.936 20.224-62.0032-3.4304-16.0256-14.7456-41.728-51.0976-34.3552z" fill="#FF7E3E" p-id="4557"></path><path d="M772.5568 311.6544h-212.5312c-13.2608 0-26.0608-4.9664-35.84-13.9776L467.968 245.9648a53.12 53.12 0 0 0-35.84-13.9776H302.592c-28.7744 0-52.1216 23.3472-52.1216 52.1216v432.2304c0 28.7744 23.3472 52.1216 52.1216 52.1216h469.9648c28.7744 0 52.1216-23.3472 52.1216-52.1728V363.8272c0.0512-28.8256-23.296-52.1728-52.1216-52.1728z m-113.6128 292.608c-25.7536 28.416-55.7056 50.1248-84.6848 71.1168l-2.8672 2.048c-10.24 7.424-21.8112 11.1616-33.4848 11.1616-12.4928 0-25.1904-4.2496-36.5056-12.6976-20.7872-15.5136-36.6592-27.7504-51.456-39.6288-19.8656-15.9744-35.7888-32.512-48.7424-50.6368-32-44.8512-30.5152-107.7248 3.584-149.4016 20.2752-24.832 48.7936-37.1712 82.3808-35.8912 18.944 0.768 35.8912 5.6832 50.5856 14.6432a91.904 91.904 0 0 1 30.464-12.1856c60.672-12.288 112.4864 21.9136 125.952 83.0464 9.3184 42.4448-2.56 82.2784-35.2256 118.4256z" fill="#FC7032" p-id="4558"></path><path d="M772.5568 311.6544h-212.5312c-13.2608 0-26.0608-4.9664-35.84-13.9776L467.968 245.9648a53.12 53.12 0 0 0-35.84-13.9776H302.592c-28.7744 0-52.1216 23.3472-52.1216 52.1216v432.2304c0 28.8256 23.3472 52.1728 52.1728 52.1728h199.8848c182.6304-56.6272 315.5456-226.2528 317.0816-427.1616-8.3968-17.5104-26.2656-29.696-47.0528-29.696z m-113.6128 292.608c-25.7536 28.416-55.7056 50.1248-84.6848 71.1168l-2.8672 2.0992c-10.24 7.424-21.8112 11.1616-33.4848 11.1616-12.4928 0-25.1904-4.2496-36.5056-12.6976-20.7872-15.5136-36.6592-27.7504-51.456-39.6288-19.8656-15.9744-35.7888-32.512-48.7424-50.6368-32-44.8512-30.5152-107.7248 3.584-149.4016 20.2752-24.832 48.7936-37.1712 82.3808-35.8912 18.944 0.768 35.8912 5.6832 50.5856 14.6432a91.904 91.904 0 0 1 30.464-12.1856c60.672-12.288 112.4864 21.9136 125.952 83.0464 9.3184 42.3936-2.56 82.2272-35.2256 118.3744z" fill="#FF7E3E" p-id="4559"></path><path d="M524.2368 297.6768L467.968 245.9648a53.12 53.12 0 0 0-35.84-13.9776H302.592c-28.7744 0-52.1216 23.3472-52.1216 52.1216v344.3712c56.3712-0.6144 110.2848-11.52 159.8464-31.0272-3.2256-3.8912-6.2976-7.8848-9.1648-11.9296-32-44.8512-30.5152-107.7248 3.584-149.4016 20.2752-24.832 48.7936-37.1712 82.3808-35.8912 18.944 0.768 35.8912 5.6832 50.5856 14.6432a91.904 91.904 0 0 1 30.464-12.1856c23.5008-4.7616 45.6704-2.4576 64.768 5.5808a448.39424 448.39424 0 0 0 43.1616-96.6656h-116.0704c-13.2608 0.0512-26.0096-4.9152-35.7888-13.9264z" fill="#FF9552" p-id="4560"></path><path d="M593.8688 463.9232c-3.9424-0.1024-8.2944 0.3072-13.1072 1.28-6.656 1.3312-12.8 5.2224-19.968 12.544l-15.36 15.7184-20.1216-8.7552a32.5632 32.5632 0 0 1-9.1136-5.3248c-1.5872-1.3312-3.072-2.6624-4.4544-4.096-7.0656-7.3216-15.4624-10.8032-27.2384-11.264-0.8192-0.0512-1.6384-0.0512-2.4576-0.0512-12.2368 0-20.992 3.9424-28.0576 12.5952-15.9744 19.5584-16.4352 50.5344-1.024 72.0896a170.9056 170.9056 0 0 0 17.0496 20.224 453.888 453.888 0 0 0 123.8528-104.96z" fill="#FF9552" p-id="4561"></path><path d="M501.4528 276.7872l-33.4848-30.7712a53.12 53.12 0 0 0-35.84-13.9776H302.592c-28.7744 0-52.1216 23.3472-52.1216 52.1216v169.1648c103.0144-27.9552 191.3344-91.4432 250.9824-176.5376z" fill="#FFA56A" p-id="4562"></path></svg>