<svg class="icon" style="width: 1em;height: 1em;vertical-align: middle;fill: currentColor;overflow: hidden;" viewBox="0 0 1024 1024" version="1.1" xmlns="http://www.w3.org/2000/svg" p-id="6142"><path d="M510.208 510.1568m-450.816 0a450.816 450.816 0 1 0 901.632 0 450.816 450.816 0 1 0-901.632 0Z" fill="#E9ECFF" p-id="6143"></path><path d="M512.6656 466.2272l265.984-153.2416c-1.0752-0.7168-2.1504-1.3824-3.2768-2.048l-222.3104-129.1264a80.46592 80.46592 0 0 0-80.4352-0.2048l-222.976 128c-1.1264 0.6144-2.2016 1.3312-3.2256 1.9968l266.24 154.624z" fill="#757BF2" p-id="6144"></path><path d="M548.8128 836.6592c0.8704-0.4608 1.6896-0.8704 2.56-1.3312l222.976-128c24.9344-14.2848 40.2944-40.8064 40.3968-69.5296l0.6656-257.1264c0-1.28-0.0512-2.5088-0.1024-3.7888l-266.4448 153.4976v306.2784zM475.1872 529.664L209.408 375.2448c-0.0512 1.28-0.1536 2.56-0.1536 3.8912l-0.6656 257.0752c-0.0512 28.7232 15.2064 55.296 40.0384 69.7344l222.3104 129.1264c1.3824 0.8192 2.7648 1.536 4.1984 2.2528v-307.6608z" fill="#6C6CEA" p-id="6145"></path><path d="M209.2544 379.136l-0.6656 257.1264c-0.0512 28.7232 15.2064 55.296 40.0384 69.7344l72.1408 41.8816a454.15424 454.15424 0 0 0 154.368-2.816v-215.3984L209.408 375.2448c-0.1024 1.3312-0.1536 2.6112-0.1536 3.8912zM548.864 724.2752c124.2112-46.848 222.2592-146.8928 266.3936-272.384l0.2048-71.2192c0-1.28-0.0512-2.5088-0.1024-3.7888L548.864 530.432v193.8432z" fill="#757BF2" p-id="6146"></path><path d="M209.2544 379.136l-0.512 210.2272c18.944 2.4064 38.1952 3.6864 57.8048 3.6864 75.3152 0 146.2784-18.4832 208.64-51.0976v-12.2368L209.408 375.2448c-0.1024 1.3312-0.1536 2.6112-0.1536 3.8912zM642.048 391.68c25.2416-37.888 44.8512-79.8208 57.7536-124.6208l-146.7904-85.248a80.46592 80.46592 0 0 0-80.4352-0.2048l-222.976 128c-1.1264 0.6144-2.2016 1.3312-3.2256 1.9968l266.24 154.624L642.048 391.68z" fill="#8486F8" p-id="6147"></path><path d="M553.0112 181.8112a80.46592 80.46592 0 0 0-80.4352-0.2048l-222.976 128c-1.1264 0.6144-2.2016 1.3312-3.2256 1.9968l118.784 68.9664a452.75136 452.75136 0 0 0 191.4368-196.7104l-3.584-2.048z" fill="#8D92F8" p-id="6148"></path></svg>