<svg class="icon" style="width: 1em;height: 1em;vertical-align: middle;fill: currentColor;overflow: hidden;" viewBox="0 0 1024 1024" version="1.1" xmlns="http://www.w3.org/2000/svg" p-id="5707"><path d="M517.6832 509.696m-450.816 0a450.816 450.816 0 1 0 901.632 0 450.816 450.816 0 1 0-901.632 0Z" fill="#FFF1DC" p-id="5708"></path><path d="M658.2784 219.8528H341.2992c-49.408 0-89.4464 40.0384-89.4464 89.4464v390.3488c0 49.408 40.0384 89.4464 89.4464 89.4464h211.0464c-3.7376-10.8032-4.864-22.5792-2.816-34.4064l7.4752-43.52-31.6416-30.8224c-18.944-18.4832-25.6512-45.6192-17.4592-70.8096 8.192-25.1904 29.5424-43.2128 55.7568-47.0016l43.7248-6.3488 19.5584-39.6288c11.7248-23.7568 35.4304-38.5024 61.9008-38.5024 24.3712 0 46.336 12.4928 58.8288 32.9728v-201.728c0.0512-49.408-39.9872-89.4464-89.3952-89.4464z m-209.4592 394.3936H385.8944a34.304 34.304 0 0 1 0-68.608h62.9248a34.304 34.304 0 0 1 0 68.608z m133.2224-113.0496H385.8944a34.304 34.304 0 0 1 0-68.608h196.1472a34.304 34.304 0 0 1 0 68.608z m26.4192-113.0496H385.8944a34.304 34.304 0 0 1 0-68.608h222.5664a34.304 34.304 0 0 1 0 68.608z" fill="#FC7032" p-id="5709"></path><path d="M712.9088 535.2448l23.1424 46.848a26.81344 26.81344 0 0 0 20.224 14.6944l51.712 7.5264c22.016 3.1744 30.8224 30.2592 14.8992 45.7728l-37.4272 36.4544a26.78784 26.78784 0 0 0-7.7312 23.7568l8.8576 51.5072c3.7376 21.9136-19.2512 38.656-38.9632 28.3136l-46.2336-24.32c-7.8336-4.096-17.152-4.096-24.9856 0l-46.2336 24.32c-19.712 10.3424-42.7008-6.3488-38.9632-28.3136l8.8576-51.5072c1.4848-8.704-1.3824-17.6128-7.7312-23.7568l-37.4272-36.4544c-15.9232-15.5136-7.1168-42.5984 14.8992-45.7728l51.712-7.5264a26.90048 26.90048 0 0 0 20.224-14.6944l23.1424-46.848c9.728-19.968 38.1952-19.968 48.0256 0z" fill="#FC7032" p-id="5710"></path><path d="M688.8448 478.0544c24.3712 0 46.336 12.4928 58.8288 32.9728v-201.728c0-49.408-40.0384-89.4464-89.4464-89.4464h-316.928c-49.408 0-89.4464 40.0384-89.4464 89.4464v390.3488c0 49.408 40.0384 89.4464 89.4464 89.4464h47.9232a448.29696 448.29696 0 0 0 161.6384-41.8816l6.1952-36.096-31.6416-30.8224c-18.944-18.4832-25.6512-45.6192-17.4592-70.8096 8.192-25.1904 29.5424-43.2128 55.7568-47.0016l43.7248-6.3488 19.5584-39.6288c11.6736-23.7056 35.3792-38.4512 61.8496-38.4512z m-240.0256 136.192H385.8944a34.304 34.304 0 0 1 0-68.608h62.9248a34.304 34.304 0 0 1 0 68.608z m133.2224-113.0496H385.8944a34.304 34.304 0 0 1 0-68.608h196.1472a34.304 34.304 0 0 1 0 68.608z m26.4192-113.0496H385.8944a34.304 34.304 0 0 1 0-68.608h222.5664a34.304 34.304 0 0 1 0 68.608z" fill="#FF7C33" p-id="5711"></path><path d="M598.1184 721.3056c55.7568-35.0208 103.3216-81.92 139.1104-137.1648-0.4096-0.6656-0.8192-1.3312-1.1776-2.048l-23.1424-46.848c-9.8304-19.968-38.2976-19.968-48.128 0l-23.1424 46.848a26.81344 26.81344 0 0 1-20.224 14.6944l-51.712 7.5264c-22.016 3.2256-30.8224 30.2592-14.8992 45.7728l37.4272 36.4544c6.3488 6.144 9.216 15.0528 7.7312 23.7568l-1.8432 11.008z" fill="#FF7C33" p-id="5712"></path><path d="M658.2784 219.8528H341.2992c-49.408 0-89.4464 40.0384-89.4464 89.4464v320.4096c40.704-1.4848 80.0256-8.2944 117.248-19.8656-10.4448-5.888-17.5616-17.0496-17.5616-29.9008 0-18.944 15.36-34.304 34.304-34.304h62.9248a34.2528 34.2528 0 0 1 27.904 14.3872 452.79232 452.79232 0 0 0 74.1376-58.8288H385.8944a34.304 34.304 0 0 1 0-68.608h196.1472c7.9872 0 15.3088 2.7648 21.0944 7.3216a448.4608 448.4608 0 0 0 80.7936-216.2688 88.576 88.576 0 0 0-25.6512-3.7888z m-49.8176 168.2944H385.8944a34.304 34.304 0 0 1 0-68.608h222.5664a34.304 34.304 0 0 1 0 68.608z" fill="#FF9552" p-id="5713"></path><path d="M382.0032 387.9424c-17.1008-1.9456-30.4128-16.4352-30.4128-34.048 0-18.944 15.36-34.304 34.304-34.304h72.6016a452.5312 452.5312 0 0 0 67.4304-99.7376H341.2992c-49.408 0-89.4464 40.0384-89.4464 89.4464v142.1824c47.104-14.1824 90.9312-35.7888 130.1504-63.5392z" fill="#FFA56A" p-id="5714"></path></svg>