<svg class="icon" style="width: 1em;height: 1em;vertical-align: middle;fill: currentColor;overflow: hidden;" viewBox="0 0 1024 1024" version="1.1" xmlns="http://www.w3.org/2000/svg" p-id="6075"><path d="M514.6112 510.1568m-450.816 0a450.816 450.816 0 1 0 901.632 0 450.816 450.816 0 1 0-901.632 0Z" fill="#FBE1FF" p-id="6076"></path><path d="M673.9968 198.8096H380.928c-49.9712 0-90.6752 40.6528-90.6752 90.6752v10.0352c-20.1728 9.8816-34.1504 30.5152-34.1504 54.528v400.2304c0 33.536 27.1872 60.672 60.672 60.672h293.0688c29.7984 0 54.528-21.504 59.648-49.8688h4.4544c49.9712 0 90.6752-40.6528 90.6752-90.6752V289.4848c0.0512-49.9712-40.6528-90.6752-90.624-90.6752z m-84.5312 324.3008l-31.3856 30.6176 7.424 43.264c2.816 16.4864-3.84 32.8192-17.3568 42.6496a43.33568 43.33568 0 0 1-45.9264 3.328l-38.8096-20.4288-38.8096 20.4288a43.776 43.776 0 0 1-20.3264 5.0688 43.264 43.264 0 0 1-25.6-8.3968 43.4176 43.4176 0 0 1-17.3568-42.7008l7.424-43.2128-31.4368-30.6176a43.33568 43.33568 0 0 1-11.0592-44.6976 43.37664 43.37664 0 0 1 35.2256-29.696l43.4176-6.2976 19.4048-39.3216a43.35616 43.35616 0 0 1 39.1168-24.32c16.7424 0 31.6928 9.3184 39.1168 24.32l19.4048 39.3216 43.4176 6.2976c16.5376 2.4064 30.0544 13.7728 35.2256 29.696s0.8704 33.024-11.1104 44.6976z m115.2512 151.296c0 16.9472-13.7728 30.72-30.72 30.72h-3.4304V353.9968c0-33.536-27.1872-60.672-60.672-60.672H350.208v-3.84c0-16.9472 13.7728-30.72 30.72-30.72h293.0688c16.9472 0 30.72 13.7728 30.72 30.72v384.9216z" fill="#BD50D3" p-id="6077"></path><path d="M471.9104 476.6208L463.36 459.264l-8.5504 17.3568a43.50464 43.50464 0 0 1-32.8704 23.8592l-19.1488 2.7648 13.8752 13.5168a43.66848 43.66848 0 0 1 12.544 38.6048l-3.2768 19.0976 17.152-9.0112c6.3488-3.328 13.312-5.0176 20.3264-5.0176s13.9264 1.6896 20.3264 5.0176l17.152 9.0112-3.2768-19.0976c-2.4064-14.1312 2.2528-28.5696 12.544-38.6048l13.8752-13.5168-19.1488-2.7648c-14.336-2.048-26.624-10.9568-32.9728-23.8592z" fill="#C65EDB" p-id="6078"></path><path d="M448.7168 429.568z" fill="#BD50D3" p-id="6079"></path><path d="M764.672 462.2336V289.4848c0-49.9712-40.6528-90.6752-90.6752-90.6752H380.928c-49.9712 0-90.6752 40.6528-90.6752 90.6752v10.0352c-20.1728 9.8816-34.1504 30.5152-34.1504 54.528v400.2304c0 23.296 13.1584 43.52 32.4096 53.6576 12.288 1.024 24.7296 1.536 37.2736 1.536 138.2912 0 262.0416-62.3104 344.7296-160.3584V353.9968c0-33.536-27.1872-60.672-60.672-60.672H350.208v-3.84c0-16.9472 13.7728-30.72 30.72-30.72h293.0688c16.9472 0 30.72 13.7728 30.72 30.72v313.5488a449.26464 449.26464 0 0 0 59.9552-140.8z m-403.3024-13.5168l43.4176-6.2976 19.4048-39.3216a43.41248 43.41248 0 0 1 39.1168-24.32c16.7424 0 31.6928 9.3184 39.1168 24.32l19.4048 39.3216 43.4176 6.2976c16.5376 2.4064 30.0544 13.7728 35.2256 29.696 5.1712 15.9232 0.9216 33.0752-11.0592 44.7488l-31.3856 30.6176 7.424 43.264c2.816 16.4864-3.84 32.8192-17.3568 42.6496a43.33568 43.33568 0 0 1-45.9264 3.328l-38.8096-20.4288-38.8096 20.4288a43.776 43.776 0 0 1-20.3264 5.0688 43.264 43.264 0 0 1-25.6-8.3968 43.4176 43.4176 0 0 1-17.3568-42.7008l7.424-43.2128-31.4368-30.6176a43.33568 43.33568 0 0 1-11.0592-44.6976 43.2128 43.2128 0 0 1 35.1744-29.7472z" fill="#C65EDB" p-id="6080"></path><path d="M609.8944 293.3248H350.208v-3.84c0-16.9472 13.7728-30.72 30.72-30.72h268.3904c2.6112-19.6096 3.9936-39.6288 3.9936-59.9552H380.928c-49.9712 0-90.6752 40.6528-90.6752 90.6752v10.0352c-20.1728 9.8816-34.1504 30.5152-34.1504 54.528v292.1472c37.376-4.4032 73.3184-13.4144 107.264-26.4192a43.88864 43.88864 0 0 1-2.2016-22.784l7.424-43.2128-31.4368-30.6176a43.33568 43.33568 0 0 1-11.0592-44.6976 43.37664 43.37664 0 0 1 35.2256-29.696l43.4176-6.2976 19.4048-39.3216a43.41248 43.41248 0 0 1 39.1168-24.32c16.7424 0 31.6928 9.3184 39.1168 24.32l19.4048 39.3216 43.4176 6.2976c3.6352 0.512 7.0656 1.536 10.3424 2.8672a448.62464 448.62464 0 0 0 65.6896-149.4016c-9.0624-5.632-19.8144-8.9088-31.3344-8.9088z" fill="#CA6EE0" p-id="6081"></path><path d="M504.7808 500.48a43.70944 43.70944 0 0 1-32.8704-23.8592L463.36 459.264l-8.5504 17.3568a43.50464 43.50464 0 0 1-32.8704 23.8592l-19.1488 2.7648 13.8752 13.5168a43.66848 43.66848 0 0 1 12.544 38.6048l-3.2768 19.0976 17.152-9.0112a43.7248 43.7248 0 0 1 20.3264-5.0176c2.3552 0 4.7104 0.256 7.0656 0.6656a451.9936 451.9936 0 0 0 27.4432-21.9648 43.83744 43.83744 0 0 1 12.2368-22.3744l13.8752-13.5168-19.2512-2.7648z" fill="#CA6EE0" p-id="6082"></path><path d="M350.208 289.4848c0-16.9472 13.7728-30.72 30.72-30.72h101.8368c10.7008-19.1488 20.0704-39.2192 27.9552-59.9552H380.928c-49.9712 0-90.6752 40.6528-90.6752 90.6752v10.0352c-20.1728 9.8816-34.1504 30.5152-34.1504 54.528v103.8336C339.8144 424.448 411.136 366.6944 461.3632 293.3248H350.208v-3.84z" fill="#D786EA" p-id="6083"></path></svg>