<svg class="icon" style="width: 1em;height: 1em;vertical-align: middle;fill: currentColor;overflow: hidden;" viewBox="0 0 1024 1024" version="1.1" xmlns="http://www.w3.org/2000/svg" p-id="3407"><path d="M511.8976 511.6416m-450.816 0a450.816 450.816 0 1 0 901.632 0 450.816 450.816 0 1 0-901.632 0Z" fill="#FBE1FF" p-id="3408"></path><path d="M351.8976 206.7968H333.312c-43.52 0-78.848 35.2768-78.848 78.848v452.0448c0 43.52 35.2768 78.848 78.848 78.848h18.5856V206.7968z" fill="#C65EDB" p-id="3409"></path><path d="M600.9856 337.92l42.3936 19.8144V206.7968h-109.7216v150.9376l42.3936-19.8144a29.4912 29.4912 0 0 1 24.9344 0z" fill="#CA6EE0" p-id="3410"></path><path d="M702.1568 207.7696V403.968c0 10.0352-5.12 19.4048-13.6192 24.832a29.28128 29.28128 0 0 1-28.2112 1.8432l-71.7824-33.5872-71.8336 33.5872c-9.1136 4.2496-19.7632 3.584-28.2624-1.8432a29.3376 29.3376 0 0 1-13.6192-24.832V206.7968H410.7264v609.6896h279.7568c43.52 0 78.848-35.2768 78.848-78.848V285.6448c-0.0512-39.5776-29.184-72.192-67.1744-77.8752z" fill="#BD50D3" p-id="3411"></path><path d="M769.28 285.6448c0-39.5264-29.1328-72.192-67.1232-77.8752V403.968c0 10.0352-5.12 19.4048-13.6192 24.832a29.28128 29.28128 0 0 1-28.2112 1.8432l-71.7824-33.5872-71.7824 33.5872c-9.1136 4.2496-19.7632 3.584-28.2624-1.8432a29.3376 29.3376 0 0 1-13.6192-24.832V206.7968H410.7264v609.6896h0.8704c169.1136-27.136 306.7904-148.3264 357.6832-308.2752V285.6448z" fill="#C65EDB" p-id="3412"></path><path d="M620.1856 411.8016l-31.6928-14.7968-71.7824 33.5872c-9.1136 4.2496-19.7632 3.584-28.2624-1.8432a29.3376 29.3376 0 0 1-13.6192-24.832v-197.12H410.7264v411.392c90.7776-43.4176 164.7104-116.3776 209.4592-206.3872zM254.5152 285.6448v374.8864c33.6384-2.816 66.2528-9.3184 97.4336-19.1488V206.7968H333.312c-43.52 0-78.7968 35.2768-78.7968 78.848z" fill="#CA6EE0" p-id="3413"></path><path d="M410.7264 381.1328a454.6048 454.6048 0 0 0 64.1024-74.5472v-99.84H410.7264v174.3872zM254.5152 285.6448v190.8224a448.48128 448.48128 0 0 0 97.4336-48.8448V206.7968H333.312c-43.52 0-78.7968 35.2768-78.7968 78.848z" fill="#D786EA" p-id="3414"></path></svg>