<svg class="icon" style="width: 1em;height: 1em;vertical-align: middle;fill: currentColor;overflow: hidden;" viewBox="0 0 1024 1024" version="1.1" xmlns="http://www.w3.org/2000/svg" p-id="1380"><path d="M511.8464 517.7856m-450.816 0a450.816 450.816 0 1 0 901.632 0 450.816 450.816 0 1 0-901.632 0Z" fill="#E9F4FF" p-id="1381"></path><path d="M302.8992 421.4784H237.9264c-15.3088 0-27.7504-12.3904-27.7504-27.7504s12.3904-27.7504 27.7504-27.7504h64.9728c15.3088 0 27.7504 12.3904 27.7504 27.7504s-12.4416 27.7504-27.7504 27.7504z" fill="#6BC2FC" p-id="1382"></path><path d="M302.8992 668.7744H237.9264c-15.3088 0-27.7504-12.3904-27.7504-27.7504s12.3904-27.7504 27.7504-27.7504h64.9728c15.3088 0 27.7504 12.3904 27.7504 27.7504s-12.4416 27.7504-27.7504 27.7504z" fill="#3A9CED" p-id="1383"></path><path d="M707.4816 224.8192H311.5008c-30.976 0-56.1152 25.1392-56.1152 56.1152v50.0736h43.9808c35.1744 0 63.6928 28.5184 63.6928 63.6928 0 35.1744-28.5184 63.6928-63.6928 63.6928h-43.9808v118.3232h43.9808c35.1744 0 63.6928 28.5184 63.6928 63.6928 0 35.1744-28.5184 63.6928-63.6928 63.6928h-43.9808v47.0528c0 30.976 25.1392 56.1152 56.1152 56.1152h395.9808c31.0272 0 56.1152-25.1392 56.1152-56.1152V280.9856c0-31.0272-25.1392-56.1664-56.1152-56.1664z m-46.4896 264.704l-48.9984 47.7696c-3.84 3.7376-5.632 9.1648-4.7104 14.4896l11.5712 67.4304c2.304 13.3632-11.7248 23.552-23.7568 17.2544l-60.5696-31.8464c-4.7616-2.5088-10.4448-2.5088-15.2064 0l-60.5696 31.8464c-11.9808 6.2976-26.0096-3.8912-23.7568-17.2544l11.5712-67.4304c0.9216-5.3248-0.8704-10.7008-4.7104-14.4896l-48.9984-47.7696c-9.728-9.472-4.352-25.9584 9.0624-27.904l67.7376-9.8304c5.3248-0.768 9.9328-4.1472 12.3392-8.96l30.2592-61.3376c5.9904-12.1856 23.3472-12.1856 29.3376 0l30.2592 61.3376c2.4064 4.8128 7.0144 8.192 12.3392 8.96l67.7376 9.8304c13.4144 1.9456 18.7904 18.432 9.0624 27.904z" fill="#2595E8" p-id="1384"></path><path d="M763.5968 280.9856c0-30.976-25.1392-56.1152-56.1152-56.1152H311.5008c-30.976 0-56.1152 25.1392-56.1152 56.1152v50.0736h43.9808c35.1744 0 63.6928 28.5184 63.6928 63.6928 0 35.1744-28.5184 63.6928-63.6928 63.6928h-43.9808v118.3232h43.9808c35.1744 0 63.6928 28.5184 63.6928 63.6928 0 35.1744-28.5184 63.6928-63.6928 63.6928h-43.9808v47.0528c0 30.976 25.1392 56.1152 56.1152 56.1152h89.1904c173.1584-23.7568 314.3168-147.8656 362.9056-311.808v-214.528zM660.992 489.5232l-48.9984 47.7696c-3.84 3.7376-5.632 9.1648-4.7104 14.4896l11.5712 67.4304c2.304 13.3632-11.7248 23.552-23.7568 17.2544l-60.5696-31.8464c-4.7616-2.5088-10.4448-2.5088-15.2576 0l-60.5696 31.8464c-11.9808 6.2976-26.0608-3.8912-23.7568-17.2544l11.5712-67.4304c0.9216-5.3248-0.8704-10.7008-4.7104-14.4896l-48.9984-47.7696c-9.728-9.472-4.352-25.9584 9.0624-27.904l67.7376-9.8304c5.3248-0.768 9.9328-4.1472 12.3392-8.96l30.2592-61.3376c5.9904-12.1856 23.3472-12.1856 29.3376 0l30.2592 61.3376c2.4064 4.8128 7.0144 8.192 12.3392 8.96l67.7376 9.8304c13.4656 1.9456 18.8416 18.432 9.1136 27.904z" fill="#3A9CED" p-id="1385"></path><path d="M330.6496 640.5632c-0.256-15.104-12.544-27.2896-27.6992-27.2896h-65.024a27.74016 27.74016 0 0 0-24.1664 41.3696c1.8432 0 3.7376 0.0512 5.5808 0.0512 38.4512 0.0512 75.7248-4.864 111.3088-14.1312zM255.3856 280.9856v50.0736h43.9808c35.1744 0 63.6928 28.5184 63.6928 63.6928 0 35.1744-28.5184 63.6928-63.6928 63.6928h-43.9808v118.3232h43.9808c31.9488 0 58.368 23.552 62.9248 54.272a440.1152 440.1152 0 0 0 76.5952-34.7136l7.6288-44.5952c0.9216-5.3248-0.8704-10.7008-4.7104-14.4896l-48.9984-47.7696c-9.728-9.472-4.352-25.9584 9.0624-27.904l67.7376-9.8304c5.3248-0.768 9.9328-4.1472 12.3392-8.96l30.2592-61.3376c5.9904-12.1856 23.3472-12.1856 29.3376 0l30.2592 61.3376c2.4064 4.8128 7.0144 8.192 12.3392 8.96l6.1952 0.9216a439.10144 439.10144 0 0 0 70.4-227.84H311.5008c-30.976 0-56.1152 25.1392-56.1152 56.1664z" fill="#59ADF8" p-id="1386"></path><path d="M255.3856 473.344c12.4928-4.4032 24.7808-9.3696 36.7104-14.848h-36.7104v14.848zM255.3856 280.9856v50.0736h43.9808c35.1744 0 63.6928 28.5184 63.6928 63.6928 0 9.6768-2.2016 18.7904-6.0928 27.0336 70.7584-48.3328 126.72-116.6848 159.7952-196.9152H311.5008c-30.976-0.0512-56.1152 25.088-56.1152 56.1152z" fill="#6BC2FC" p-id="1387"></path></svg>