<svg class="icon" style="width: 1em;height: 1em;vertical-align: middle;fill: currentColor;overflow: hidden;" viewBox="0 0 1024 1024" version="1.1" xmlns="http://www.w3.org/2000/svg" p-id="4040"><path d="M508.1088 513.1264m-450.816 0a450.816 450.816 0 1 0 901.632 0 450.816 450.816 0 1 0-901.632 0Z" fill="#E9ECFF" p-id="4041"></path><path d="M575.6928 641.8432a137.344 137.344 0 0 1-135.168 0l-134.144-75.8784v175.0528s75.1104 89.5488 201.728 89.5488 198.656-84.3776 198.656-84.3776v-178.432l-131.072 74.0864z" fill="#6C6CEA" p-id="4042"></path><path d="M825.0368 374.6816l-263.2704-149.5552a108.68224 108.68224 0 0 0-107.3152 0L191.1808 374.6816c-27.0336 15.36-27.0336 54.3744 0.0512 69.6832l10.752 6.0928V614.4c0 15.5648 12.6464 28.2112 28.2112 28.2112 15.5648 0 28.2112-12.6464 28.2112-28.2112V482.304l196.1984 110.9504a108.7744 108.7744 0 0 0 106.9568 0l263.3728-148.9408c27.0848-15.3088 27.136-54.272 0.1024-69.632z" fill="#6C6CEA" p-id="4043"></path><path d="M454.4512 225.1264L191.1808 374.6816c-27.0336 15.36-27.0336 54.3744 0.0512 69.6832l10.752 6.0928V614.4c0 15.5648 12.6464 28.2112 28.2112 28.2112 15.5648 0 28.2112-12.6464 28.2112-28.2112V482.304l196.1984 110.9504a108.7744 108.7744 0 0 0 106.9568 0l173.824-98.304a450.36544 450.36544 0 0 0 14.7968-114.9952c0-16.6912-0.9216-33.1264-2.7136-49.3568l-185.7536-105.5232a108.71296 108.71296 0 0 0-107.264 0.0512z" fill="#757BF2" p-id="4044"></path><path d="M706.7648 573.3376v-5.632l-131.072 74.1376a137.344 137.344 0 0 1-135.168 0l-134.144-75.8784v175.0528s40.5504 48.2304 112.128 73.8816c127.488-34.8672 232.448-124.2112 288.256-241.5616z" fill="#757BF2" p-id="4045"></path><path d="M624.9984 261.0688l-63.232-35.9424a108.68224 108.68224 0 0 0-107.3152 0L191.1808 374.6816c-27.0336 15.36-27.0336 54.3744 0.0512 69.6832l10.752 6.0928V614.4c0 15.5648 12.6464 28.2112 28.2112 28.2112 15.5648 0 28.2112-12.6464 28.2112-28.2112V482.304L440.32 585.1648c102.6048-74.3424 172.6464-190.8736 184.6784-324.096z" fill="#8486F8" p-id="4046"></path><path d="M393.216 615.0656l-86.8352-49.1008v85.6064a448.11776 448.11776 0 0 0 86.8352-36.5056z" fill="#8486F8" p-id="4047"></path><path d="M487.0144 212.992c-11.264 2.2528-22.272 6.2464-32.5632 12.0832L191.1808 374.6816c-27.0336 15.36-27.0336 54.3744 0.0512 69.6832l10.752 6.0928v38.8096c132.4544-43.0592 238.0288-145.664 285.0304-276.2752z" fill="#8D92F8" p-id="4048"></path></svg>