<svg class="icon" style="width: 1em;height: 1em;vertical-align: middle;fill: currentColor;overflow: hidden;" viewBox="0 0 1024 1024" version="1.1" xmlns="http://www.w3.org/2000/svg" p-id="2332"><path d="M508.416 519.8336m-450.816 0a450.816 450.816 0 1 0 901.632 0 450.816 450.816 0 1 0-901.632 0Z" fill="#E9F4FF" p-id="2333"></path><path d="M258.6624 525.9264l218.4192 97.2288c20.1728 8.96 43.2128 8.96 63.3856-0.1024l202.2912-90.8288-25.0368 222.6688s-45.1584 72.5504-208.9472 72.5504-221.3376-71.3216-221.3376-71.3216l-28.7744-230.1952z" fill="#2595E8" p-id="2334"></path><path d="M852.8384 439.5008c24.7808-11.5712 25.088-46.9504 0.2048-58.7776l-303.9744-144.9472c-21.4016-10.24-46.2848-10.3936-67.84-0.4608L164.9152 381.0304c-25.3952 11.6736-25.1904 47.8208 0.3072 59.2384l310.3232 138.752c20.736 9.2672 44.4928 9.2672 65.28 0l271.9744-121.6 40.0384-17.92z" fill="#2595E8" p-id="2335"></path><path d="M713.984 545.0752l-173.568 77.9264a77.69088 77.69088 0 0 1-63.3856 0.1024l-218.4192-97.2288 28.7744 230.144s24.6272 30.464 87.3984 51.5584c153.9072-21.1456 281.856-123.4944 339.2-262.5024z" fill="#3A9CED" p-id="2336"></path><path d="M481.2288 235.3152L164.9152 381.0304c-25.3952 11.6736-25.1904 47.8208 0.3072 59.2384l310.3232 138.752c20.736 9.2672 44.4928 9.2672 65.28 0l190.5664-85.1968a431.16032 431.16032 0 0 0 15.104-113.0496c0-17.7664-1.1776-35.2256-3.2768-52.4288l-194.1504-92.5696a80.01536 80.01536 0 0 0-67.84-0.4608z" fill="#3A9CED" p-id="2337"></path><path d="M626.2784 272.5888l-77.2096-36.8128c-21.4016-10.24-46.2848-10.3936-67.84-0.4608L164.9152 381.0304c-25.3952 11.6736-25.1904 47.8208 0.3072 59.2384l292.7104 130.8672c92.4672-70.144 155.7504-176.7936 168.3456-298.5472zM258.6624 525.9264l15.7184 125.8496a428.32384 428.32384 0 0 0 144.8448-54.3744l-160.5632-71.4752z" fill="#59ADF8" p-id="2338"></path><path d="M481.2288 235.3152L164.9152 381.0304c-25.3952 11.6736-25.1904 47.8208 0.3072 59.2384l81.0496 36.2496c111.8208-43.8272 200.8064-132.9152 244.48-244.8384-3.2256 1.0752-6.4512 2.2016-9.5232 3.6352z" fill="#6BC2FC" p-id="2339"></path><path d="M855.1936 651.776h-2.3552V485.5808l-40.0384 17.2032v148.992h-2.3552c-3.6352 0-6.5536 2.9184-6.5536 6.5536v71.8848c0 3.6352 2.9184 6.5536 6.5536 6.5536h44.7488c3.6352 0 6.5536-2.9184 6.5536-6.5536v-71.8848c-0.0512-3.6352-2.9696-6.5536-6.5536-6.5536z" fill="#2595E8" p-id="2340"></path></svg>