<svg class="icon" style="width: 1em;height: 1em;vertical-align: middle;fill: currentColor;overflow: hidden;" viewBox="0 0 1024 1024" version="1.1" xmlns="http://www.w3.org/2000/svg" p-id="6127"><path d="M510.9248 510.1568m-450.816 0a450.816 450.816 0 1 0 901.632 0 450.816 450.816 0 1 0-901.632 0Z" fill="#E9F4FF" p-id="6128"></path><path d="M755.3024 255.7952h-204.8512v-20.3776c0-17.3568-14.08-31.4368-31.4368-31.4368-17.3568 0-31.4368 14.08-31.4368 31.4368v20.3776H263.0656c-29.4912 0-53.3504 23.9104-53.3504 53.3504v306.3808c0 29.4912 23.9104 53.3504 53.3504 53.3504h137.8816l-58.7776 107.3664a31.4368 31.4368 0 0 0 12.4928 42.7008c4.8128 2.6112 9.984 3.8912 15.0528 3.8912 11.1104 0 21.9136-5.9392 27.648-16.384l75.3152-137.5744h101.12l75.3152 137.5744a31.488 31.488 0 0 0 27.648 16.384c5.12 0 10.2912-1.2288 15.0528-3.8912a31.4368 31.4368 0 0 0 12.4928-42.7008l-58.7776-107.3664h109.7728c29.4912 0 53.3504-23.9104 53.3504-53.3504V309.1456c0-29.4912-23.9104-53.3504-53.3504-53.3504zM542.72 565.1456H355.9936c-17.3568 0-31.4368-14.08-31.4368-31.4368 0-17.3568 14.08-31.4368 31.4368-31.4368H542.72c17.3568 0 31.4368 14.08 31.4368 31.4368 0.0512 17.3568-14.0288 31.4368-31.4368 31.4368z m116.1728-135.6288H355.9936c-17.3568 0-31.4368-14.08-31.4368-31.4368 0-17.3568 14.08-31.4368 31.4368-31.4368h302.9504c17.3568 0 31.4368 14.08 31.4368 31.4368 0 17.3568-14.08 31.4368-31.488 31.4368z" fill="#2595E8" p-id="6129"></path><path d="M755.3024 255.7952h-204.8512v-20.3776c0-17.3568-14.08-31.4368-31.4368-31.4368-17.3568 0-31.4368 14.08-31.4368 31.4368v20.3776H263.0656c-29.4912 0-53.3504 23.9104-53.3504 53.3504v306.3808c0 29.4912 23.9104 53.3504 53.3504 53.3504h137.8816l-47.6672 87.04c0.8704 0 1.7408 0.0512 2.6112 0.0512 24.6272 0 48.7424-1.9968 72.2944-5.7856l44.4928-81.3056h101.12l12.9024 23.6032c131.7376-78.6944 219.9552-222.6688 219.9552-387.2768 0-3.6352-0.0512-7.2192-0.1536-10.8032-6.4-22.3232-26.88-38.6048-51.2-38.6048zM542.72 565.1456H355.9936c-17.3568 0-31.4368-14.08-31.4368-31.4368 0-17.3568 14.08-31.4368 31.4368-31.4368H542.72c17.3568 0 31.4368 14.08 31.4368 31.4368 0.0512 17.3568-14.0288 31.4368-31.4368 31.4368z m116.1728-135.6288H355.9936c-17.3568 0-31.4368-14.08-31.4368-31.4368 0-17.3568 14.08-31.4368 31.4368-31.4368h302.9504c17.3568 0 31.4368 14.08 31.4368 31.4368 0 17.3568-14.08 31.4368-31.488 31.4368z" fill="#3A9CED" p-id="6130"></path><path d="M550.4512 235.4176c0-17.3568-14.08-31.4368-31.4368-31.4368-17.3568 0-31.4368 14.08-31.4368 31.4368v20.3776H263.0656c-29.4912 0-53.3504 23.9104-53.3504 53.3504v286.1568c7.5776 0.3584 15.2064 0.5632 22.8352 0.5632 57.8048 0 113.0496-10.9056 163.7888-30.72h-40.3456c-17.3568 0-31.4368-14.08-31.4368-31.4368 0-17.3568 14.08-31.4368 31.4368-31.4368h151.552a454.46144 454.46144 0 0 0 74.7008-72.7552H355.9936c-17.3568 0-31.4368-14.08-31.4368-31.4368 0-17.3568 14.08-31.4368 31.4368-31.4368h269.2096a446.3104 446.3104 0 0 0 44.3904-110.848H550.4v-20.3776z" fill="#59ADF8" p-id="6131"></path><path d="M327.1168 385.5872a31.44192 31.44192 0 0 1 28.8768-18.9952h4.096c46.3872-29.3888 87.04-67.0208 119.9104-110.848H263.0656c-29.4912 0-53.3504 23.9104-53.3504 53.3504v118.1184c41.472-8.448 80.896-22.6304 117.4016-41.6256zM513.28 204.4928c-14.6432 2.7136-25.7536 15.5136-25.7536 30.9248v10.0352c9.2672-13.1584 17.8688-26.8288 25.7536-40.96z" fill="#6BC2FC" p-id="6132"></path></svg>