<svg class="icon" style="width: 1em;height: 1em;vertical-align: middle;fill: currentColor;overflow: hidden;" viewBox="0 0 1024 1024" version="1.1" xmlns="http://www.w3.org/2000/svg" p-id="4267"><path d="M509.184 509.5936m-450.816 0a450.816 450.816 0 1 0 901.632 0 450.816 450.816 0 1 0-901.632 0Z" fill="#E9F4FF" p-id="4268"></path><path d="M746.0864 328.8064h-205.0048c-12.8 0-25.1392-4.8128-34.56-13.4656l-54.272-49.8688a51.10784 51.10784 0 0 0-34.56-13.4656h-124.928c-27.8016 0-50.2784 22.528-50.2784 50.2784v416.9216c0 27.8016 22.528 50.2784 50.2784 50.2784h453.2736c27.8016 0 50.2784-22.528 50.2784-50.2784V379.0848c0.0512-27.7504-22.4256-50.2784-50.2272-50.2784z m-133.5296 256.1024h-52.8896v52.8896c0 21.1968-17.2032 38.4-38.4 38.4-21.1968 0-38.4-17.2032-38.4-38.4v-52.8896H429.9776c-21.1968 0-38.4-17.2032-38.4-38.4s17.2032-38.4 38.4-38.4h52.8896V455.168c0-21.1968 17.2032-38.4 38.4-38.4 21.1968 0 38.4 17.2032 38.4 38.4v52.8896h52.8896c21.1968 0 38.4 17.2032 38.4 38.4s-17.152 38.4512-38.4 38.4512z" fill="#2595E8" p-id="4269"></path><path d="M796.3648 379.0848c0-27.8016-22.528-50.2784-50.2784-50.2784h-205.0048c-12.8 0-25.1392-4.8128-34.56-13.4656l-54.272-49.8688a51.10784 51.10784 0 0 0-34.56-13.4656h-124.928c-27.8016 0-50.2784 22.528-50.2784 50.2784v416.9216c0 27.8016 22.528 50.2784 50.2784 50.2784H511.488c157.696-61.9008 271.9744-210.1248 284.8768-386.4576v-3.9424z m-183.808 205.824h-52.8896v52.8896c0 21.1968-17.2032 38.4-38.4 38.4-21.1968 0-38.4-17.2032-38.4-38.4v-52.8896H429.9776c-21.1968 0-38.4-17.2032-38.4-38.4s17.2032-38.4 38.4-38.4h52.8896V455.168c0-21.1968 17.2032-38.4 38.4-38.4 21.1968 0 38.4 17.2032 38.4 38.4v52.8896h52.8896c21.1968 0 38.4 17.2032 38.4 38.4s-17.152 38.4512-38.4 38.4512z" fill="#3A9CED" p-id="4270"></path><path d="M541.0816 328.8064c-12.8 0-25.1392-4.8128-34.56-13.4656l-54.272-49.8688a51.10784 51.10784 0 0 0-34.56-13.4656h-124.928c-27.8016 0-50.2784 22.528-50.2784 50.2784V640c71.5264-2.9696 138.752-22.5792 197.888-55.1424h-10.4448c-21.1968 0-38.4-17.2032-38.4-38.4s17.2032-38.4 38.4-38.4H482.816V455.168c0-21.1968 17.2032-38.4 38.4-38.4 21.1968 0 38.4 17.2032 38.4 38.4v34.7648c41.2672-46.1824 73.1648-100.864 92.672-161.1264h-111.2064z" fill="#59ADF8" p-id="4271"></path><path d="M478.6688 289.6896l-26.368-24.2688a51.10784 51.10784 0 0 0-34.56-13.4656h-124.928c-27.8016 0-50.2784 22.528-50.2784 50.2784v158.8736c96.512-29.5936 179.2-90.7264 236.1344-171.4176z" fill="#6BC2FC" p-id="4272"></path></svg>