<svg class="icon" style="width: 1em;height: 1em;vertical-align: middle;fill: currentColor;overflow: hidden;" viewBox="0 0 1024 1024" version="1.1" xmlns="http://www.w3.org/2000/svg" p-id="5118"><path d="M509.9008 513.1264m-450.816 0a450.816 450.816 0 1 0 901.632 0 450.816 450.816 0 1 0-901.632 0Z" fill="#FFE3DB" p-id="5119"></path><path d="M308.224 497.9712c16.128-32.512 48.6912-52.6848 84.9408-52.6848h406.4256v-22.6816c0-40.6528-32.9216-73.5744-73.5744-73.5744h-106.1376c-17.3056 0-34.048-6.0928-47.3088-17.2544L490.0352 262.4512a73.70752 73.70752 0 0 0-47.3088-17.2544H311.8592c-40.6528 0-73.5744 32.9216-73.5744 73.5744v320.2048L308.224 497.9712z" fill="#F23D4F" p-id="5120"></path><path d="M825.5488 493.7216H393.1648a46.4384 46.4384 0 0 0-41.5744 25.7536l-106.1888 214.016c11.8272 24.8832 37.0688 42.0864 66.4064 42.0864h414.208c29.952 0 55.7056-17.92 67.2256-43.5712l0.1024 0.1024 74.8032-173.6192c13.2096-30.6176-9.2672-64.768-42.5984-64.768z m-131.1744 229.7344h-138.24c-15.5648 0-28.16-12.5952-28.16-28.16s12.5952-28.16 28.16-28.16h138.24c15.5648 0 28.16 12.5952 28.16 28.16s-12.6464 28.16-28.16 28.16z" fill="#F23D4F" p-id="5121"></path><path d="M767.2832 379.4432c0-6.0416-0.1536-12.032-0.4096-17.9712a73.00096 73.00096 0 0 0-40.8576-12.3904h-106.1376c-17.3056 0-34.048-6.0928-47.3088-17.2544L490.0352 262.4512a73.70752 73.70752 0 0 0-47.3088-17.2544H311.8592c-40.6528 0-73.5744 32.9216-73.5744 73.5744v320.2048L308.224 497.9712c16.128-32.512 48.6912-52.6848 84.9408-52.6848h369.3056c3.1744-21.4528 4.8128-43.4688 4.8128-65.8432z" fill="#FC4956" p-id="5122"></path><path d="M393.1648 493.7216a46.4384 46.4384 0 0 0-41.5744 25.7536l-106.1888 214.016c11.8272 24.8832 37.0688 42.0864 66.4064 42.0864h219.8528a451.90144 451.90144 0 0 0 76.0832-52.1728h-51.6608c-15.5648 0-28.16-12.5952-28.16-28.16s12.5952-28.16 28.16-28.16h107.4176c41.3696-49.8688 72.2432-108.8 89.088-173.4144h-359.424z" fill="#FC4956" p-id="5123"></path><path d="M624.9984 349.0816h-5.0176c-17.3056 0-34.048-6.0928-47.3088-17.2544L490.0352 262.4512a73.70752 73.70752 0 0 0-47.3088-17.2544H311.8592c-40.6528 0-73.5744 32.9216-73.5744 73.5744v320.2048L308.224 497.9712c16.128-32.512 48.6912-52.6848 84.9408-52.6848h190.1056a446.44352 446.44352 0 0 0 41.728-96.2048z" fill="#FF5C64" p-id="5124"></path><path d="M351.6416 519.5264l-70.4512 142.0288c109.2608-21.6064 204.288-82.7392 269.6704-167.7824h-157.696a46.1824 46.1824 0 0 0-41.5232 25.7536z" fill="#FF5C64" p-id="5125"></path><path d="M484.5568 258.304a73.50784 73.50784 0 0 0-41.8816-13.1072H311.8592c-40.6528 0-73.5744 32.9216-73.5744 73.5744v163.1232c107.776-40.4992 195.9424-121.0368 246.272-223.5904z" fill="#FF716E" p-id="5126"></path></svg>