<svg class="icon" style="width: 1em;height: 1em;vertical-align: middle;fill: currentColor;overflow: hidden;" viewBox="0 0 1024 1024" version="1.1" xmlns="http://www.w3.org/2000/svg" p-id="1074"><path d="M514.7136 511.6416m-450.816 0a450.816 450.816 0 1 0 901.632 0 450.816 450.816 0 1 0-901.632 0Z" fill="#E3FFF3" p-id="1075"></path><path d="M747.7248 264.4992H276.1216c-35.072 0-63.488 28.416-63.488 63.488v323.6864c0 35.072 28.416 63.488 63.488 63.488h158.8736c6.5024 0 12.6976 2.7136 17.1008 7.5264l43.5712 47.5136c9.4208 10.24 25.6512 9.984 34.7136-0.5632l39.8336-46.3872c4.4032-5.12 10.8544-8.0896 17.6128-8.0896h159.9488c35.072 0 63.488-28.416 63.488-63.488V327.9872c-0.0512-35.0208-28.4672-63.488-63.5392-63.488z m-330.2912 294.7584c0 9.8304-6.2464 18.5856-15.5136 21.76-9.2672 3.2256-19.5584 0.2048-25.6512-7.5264l-60.672-77.312v67.9936c0 12.7488-10.2912 23.04-23.04 23.04s-23.04-10.2912-23.04-23.04v-134.656c0-9.8304 6.2464-18.5856 15.5136-21.76 9.2672-3.2256 19.6096-0.1536 25.6512 7.5264l60.672 77.312v-65.536c0-12.7488 10.2912-23.04 23.04-23.04s23.04 10.2912 23.04 23.04v132.1984z m139.008 30.72H465.0496c-12.7488 0-23.04-10.2912-23.04-23.04v-142.336c0-12.7488 10.2912-23.04 23.04-23.04h86.1696c12.7488 0 23.04 10.2912 23.04 23.04s-10.2912 23.04-23.04 23.04H488.0896v23.7056h64.512c12.7488 0 23.04 10.2912 23.04 23.04s-10.2912 23.04-23.04 23.04h-64.512v26.4704h68.352c12.7488 0 23.04 10.2912 23.04 23.04s-10.2912 23.04-23.04 23.04z m206.7456-158.3616l-25.1392 138.5472a23.04 23.04 0 0 1-43.6224 5.4784l-15.9744-34.9696-14.3872 34.8672a22.9888 22.9888 0 0 1-21.2992 14.2336c-0.8192 0-1.5872-0.0512-2.4064-0.1024a23.04 23.04 0 0 1-20.224-18.7392l-25.8048-140.3392a23.06048 23.06048 0 0 1 18.4832-26.8288 23.06048 23.06048 0 0 1 26.8288 18.4832l11.6736 63.488 4.8128-11.6224a22.9376 22.9376 0 0 1 20.8896-14.2336h0.4096c9.0112 0 17.2032 5.2736 20.9408 13.4656l7.4752 16.384 12.032-66.304c2.2528-12.544 14.2848-20.7872 26.7776-18.5856 12.4928 2.2528 20.8384 14.2336 18.5344 26.7776z" fill="#05C46D" p-id="1076"></path><path d="M747.7248 264.4992H276.1216c-35.072 0-63.488 28.416-63.488 63.488v323.6864c0 35.072 28.416 63.488 63.488 63.488h158.8736c6.5024 0 12.6976 2.7136 17.1008 7.5264l22.784 24.8832c95.9488-25.8048 179.2-82.432 238.5408-158.6688a23.05024 23.05024 0 0 1-18.9952-13.312l-15.9744-34.9696-14.3872 34.8672a22.9888 22.9888 0 0 1-21.2992 14.2336c-0.8192 0-1.5872-0.0512-2.4064-0.1024a23.04 23.04 0 0 1-20.224-18.7392l-25.8048-140.3392a23.06048 23.06048 0 0 1 18.4832-26.8288 23.06048 23.06048 0 0 1 26.8288 18.4832l11.6736 63.488 4.8128-11.6224a22.9376 22.9376 0 0 1 20.8896-14.2336h0.4096c9.0112 0 17.2032 5.2736 20.9408 13.4656l7.4752 16.384 12.032-66.304c2.2528-12.544 14.2848-20.7872 26.7776-18.5856 12.544 2.2528 20.8384 14.2848 18.5856 26.7776l-20.992 115.7632c41.9328-68.4544 66.1504-148.992 66.1504-235.1616 0-1.0752-0.0512-2.1504-0.0512-3.2256-8.0896-25.7024-32.2048-44.4416-60.6208-44.4416z m-330.2912 294.7584c0 9.8304-6.2464 18.5856-15.5136 21.76-9.2672 3.2256-19.5584 0.2048-25.6512-7.5264l-60.672-77.312v67.9936c0 12.7488-10.2912 23.04-23.04 23.04s-23.04-10.2912-23.04-23.04v-134.656c0-9.8304 6.2464-18.5856 15.5136-21.76 9.2672-3.2256 19.6096-0.1536 25.6512 7.5264l60.672 77.312v-65.536c0-12.7488 10.2912-23.04 23.04-23.04s23.04 10.2912 23.04 23.04v132.1984z m139.008 30.72H465.0496c-12.7488 0-23.04-10.2912-23.04-23.04v-142.336c0-12.7488 10.2912-23.04 23.04-23.04h86.1696c12.7488 0 23.04 10.2912 23.04 23.04s-10.2912 23.04-23.04 23.04H488.0896v23.7056h64.512c12.7488 0 23.04 10.2912 23.04 23.04s-10.2912 23.04-23.04 23.04h-64.512v26.4704h68.352c12.7488 0 23.04 10.2912 23.04 23.04s-10.2912 23.04-23.04 23.04z" fill="#1DCE75" p-id="1077"></path><path d="M488.0896 524.6464c3.4816-2.3552 6.8608-4.7616 10.2912-7.2192h-10.2912v7.2192z" fill="#35D895" p-id="1078"></path><path d="M606.976 405.76a448.28672 448.28672 0 0 0 63.9488-141.2096h-394.752c-35.072 0-63.488 28.416-63.488 63.488v274.3808c7.168 0.3584 14.336 0.512 21.5552 0.512 51.5584 0 101.0688-8.6528 147.2-24.6272a23.04 23.04 0 0 1-5.1712-4.8128l-60.672-77.312v67.9936c0 12.7488-10.2912 23.04-23.04 23.04s-23.04-10.2912-23.04-23.04v-134.656c0-9.8304 6.2464-18.5856 15.5136-21.76 9.2672-3.2256 19.6096-0.1536 25.6512 7.5264l60.672 77.312v-65.536c0-12.7488 10.2912-23.04 23.04-23.04s23.04 10.2912 23.04 23.04v132.1984c0 1.7408-0.256 3.4816-0.6656 5.12 8.5504-3.7888 16.9984-7.8336 25.2416-12.1344V424.6016c0-12.7488 10.2912-23.04 23.04-23.04h86.1696c12.7488 0 23.04 10.2912 23.04 23.04s-10.2912 23.04-23.04 23.04H488.0896v23.7056h64.4096c15.0016-14.9504 28.928-30.976 41.728-47.9232 1.024-7.6288 5.7344-14.2848 12.7488-17.664z" fill="#3CD38E" p-id="1079"></path><path d="M212.6336 327.9872v106.0352c20.7872-4.3008 41.0112-10.0352 60.6208-17.1008 2.7136-4.1984 6.7584-7.4752 11.7248-9.216 4.3008-1.4848 8.8576-1.5872 13.056-0.512 72.5504-31.0272 135.2704-80.5888 182.3232-142.6944H276.1216c-35.072 0-63.488 28.4672-63.488 63.488z" fill="#48E1AA" p-id="1080"></path></svg>