<svg class="icon" style="width: 1em;height: 1em;vertical-align: middle;fill: currentColor;overflow: hidden;" viewBox="0 0 1024 1024" version="1.1" xmlns="http://www.w3.org/2000/svg" p-id="2159"><path d="M508.416 513.1264m-450.816 0a450.816 450.816 0 1 0 901.632 0 450.816 450.816 0 1 0-901.632 0Z" fill="#E3FFF3" p-id="2160"></path><path d="M780.8512 696.32h-19.3536c-10.1888-187.3408-78.1824-262.5024-137.2672-292.2496 47.36-7.424 116.736-12.3392 157.3888-4.4032 5.1712 1.024 9.3696-4.2496 7.1168-9.0112-13.6192-29.184-71.936-73.9328-139.6736-67.072-5.9392 0.6144-9.472-6.4512-5.4272-10.8544 22.3744-24.1664 54.0672-53.9648 95.5392-68.5056 5.6832-1.9968 5.8368-9.9328 0.256-12.1344-38.3488-15.104-116.48-10.0352-149.4016 32.3072-3.584 4.5568-10.9056 2.4576-11.5712-3.328-4.8128-42.1376-8.2944-71.3728 2.9184-107.3664 1.8432-5.9392-4.9664-10.9056-9.984-7.2192-48.128 35.6352-81.4592 122.7776-59.392 176.9984 8.8576 21.76-112.7936-53.248-190.0544 48.4864-3.328 4.4032-0.1536 10.7008 5.376 10.496 36.7616-1.3824 82.1248-1.792 113.664 1.8944 5.5808 0.6656 7.6288 7.5776 3.3792 11.264-26.112 22.528-64.4096 86.1696-43.9808 141.568 1.6896 4.5568 7.5776 5.8368 10.9056 2.304 31.1296-33.6384 68.9152-67.84 90.2656-86.5792 4.7616-4.1984 12.0832 0.256 10.5984 6.4-9.1648 38.2976-17.7152 119.7568 57.856 164.9152 3.8912 2.3552 8.96 0 9.7792-4.5056 10.5472-57.9072 8.0384-132.864 0.7168-188.0064 91.4432 106.9056 79.5648 223.0272 71.3216 264.6528h-118.272c-2.6624-76.3904-65.3824-137.472-142.3872-137.472s-139.7248 61.0816-142.3872 137.472h-13.4144a37.7344 37.7344 0 0 0 0 75.4688h545.5872c20.8384 0 37.7344-16.896 37.7344-37.7344-0.1024-20.8896-16.9984-37.7856-37.8368-37.7856z" fill="#05C46D" p-id="2161"></path><path d="M751.6672 610.7136c-23.0912-125.7984-78.336-181.9648-127.4368-206.6944 47.36-7.424 116.736-12.3392 157.3888-4.4032 5.1712 1.024 9.3696-4.2496 7.1168-9.0112-13.6192-29.184-71.936-73.9328-139.6736-67.072-5.9392 0.6144-9.472-6.4512-5.4272-10.8544 22.3744-24.1664 54.0672-53.9648 95.5392-68.5056 5.6832-1.9968 5.8368-9.9328 0.256-12.1344-38.3488-15.104-116.48-10.0352-149.4016 32.3072-3.584 4.5568-10.9056 2.4576-11.5712-3.328-4.8128-42.1376-8.2944-71.3728 2.9184-107.3664 1.8432-5.9392-5.0176-10.9056-9.984-7.2192-48.128 35.6864-81.4592 122.7776-59.392 176.9984 8.8576 21.76-112.7936-53.248-190.0544 48.4864-3.328 4.4032-0.1536 10.7008 5.376 10.496 36.7616-1.3824 82.1248-1.792 113.664 1.8944 5.5808 0.6656 7.6288 7.5776 3.3792 11.264-26.112 22.528-64.4096 86.1696-43.9808 141.568 1.6896 4.5568 7.5776 5.8368 10.9056 2.304 31.1296-33.6384 68.9152-67.84 90.2656-86.5792 4.7616-4.1984 12.0832 0.256 10.5984 6.4-9.1648 38.2976-17.7152 119.7568 57.856 164.9152 3.8912 2.3552 8.96 0 9.7792-4.5056 10.5472-57.9072 8.0384-132.864 0.7168-188.0064 91.4432 106.9056 79.5648 223.0272 71.3216 264.6528h-118.272c-2.6624-76.3904-65.3824-137.472-142.3872-137.472S251.4432 619.9296 248.7808 696.32h-13.4144a37.7344 37.7344 0 0 0 0 75.4688h352.4608c68.3008-37.4784 125.1328-93.44 163.84-161.0752z" fill="#1DCE75" p-id="2162"></path><path d="M512 323.328c8.8576 21.76-112.7936-53.248-190.0544 48.4864-3.328 4.4032-0.1536 10.7008 5.376 10.496 36.7616-1.3824 82.1248-1.792 113.664 1.8944 5.5808 0.6656 7.6288 7.5776 3.3792 11.264-26.112 22.528-64.4096 86.1696-43.9808 141.568 1.6896 4.5568 7.5776 5.8368 10.9056 2.304 31.1296-33.6384 68.9152-67.84 90.2656-86.5792 4.7616-4.1984 12.0832 0.256 10.5984 6.4-6.912 28.8256-13.4144 82.0224 15.872 125.8496 21.2992-16.5376 40.96-35.0208 58.7776-55.2448 0-34.6112-2.4576-69.12-6.3488-98.1504 15.9232 18.6368 28.672 37.5296 38.8608 56.2176 13.7216-20.224 25.6-41.728 35.6864-64.2048a180.2752 180.2752 0 0 0-30.7712-19.6096c12.4416-1.9456 26.4192-3.7376 40.96-5.12 8.9088-23.808 15.616-48.6912 20.1216-74.3424-11.6224-1.8432-23.808-2.304-36.3008-1.0752-5.9392 0.6144-9.472-6.4512-5.4272-10.8544 12.8-13.8752 28.7232-29.5424 47.7184-43.1616 0.256-6.0928 0.4608-12.2368 0.4608-18.3808 0-9.0112-0.3584-17.9712-0.9216-26.8288-36.9152 0.1536-78.8992 11.776-100.864 39.9872-3.584 4.5568-10.9056 2.4576-11.5712-3.328-4.8128-42.1376-8.2944-71.3728 2.9184-107.3664 1.8432-5.9392-5.0176-10.9056-9.984-7.2192-48.0768 35.6864-81.408 122.8288-59.3408 176.9984zM269.3632 673.5872c84.0192 0 162.2528-24.6272 228.096-66.9184-26.112-29.3376-64.1024-47.8208-106.3936-47.8208-69.0176 0-126.5664 49.1008-139.6224 114.2784 5.9392 0.256 11.9296 0.4608 17.92 0.4608z" fill="#3CD38E" p-id="2163"></path><path d="M408.7296 445.2352c81.4592-58.3168 141.2608-144.8448 165.2224-245.2992 0.3072-15.2576 2.3552-30.1056 7.424-46.336 1.8432-5.9392-5.0176-10.9056-9.984-7.2192-48.128 35.6864-81.4592 122.7776-59.392 176.9984 8.8576 21.76-112.7936-53.248-190.0544 48.4864-3.328 4.4032-0.1536 10.7008 5.376 10.496 36.7616-1.3824 82.1248-1.792 113.664 1.8944 5.5808 0.6656 7.6288 7.5776 3.3792 11.264-11.5712 9.984-25.4464 27.9552-35.6352 49.7152z" fill="#48E1AA" p-id="2164"></path></svg>