<svg class="icon" style="width: 1em;height: 1em;vertical-align: middle;fill: currentColor;overflow: hidden;" viewBox="0 0 1024 1024" version="1.1" xmlns="http://www.w3.org/2000/svg" p-id="1253"><path d="M513.6384 517.7856m-450.816 0a450.816 450.816 0 1 0 901.632 0 450.816 450.816 0 1 0-901.632 0Z" fill="#FFE3DB" p-id="1254"></path><path d="M846.1824 382.9248c0.512-7.168-5.2224-13.2096-12.3904-13.2096H638.464l-43.6224-183.0912a21.74464 21.74464 0 0 0-21.1456-16.6912H462.5408c-10.0864 0-18.7904 6.912-21.1456 16.6912l-43.6224 183.0912H190.208c-7.2704 0-13.056 6.2464-12.3392 13.5168 4.4032 47.0016 30.0544 204.0832 176.7936 272.4352l-33.9968 156.416c-2.9696 13.568 7.3728 26.368 21.248 26.368h347.392c13.8752 0 24.1664-12.8 21.248-26.368L676.5056 655.36c144.7936-68.6592 166.4-225.8944 169.6768-272.4352z m-476.8768 190.3616c-5.12 7.9872-13.7728 12.3904-22.6304 12.3904-4.9152 0-9.9328-1.3824-14.3872-4.1984-58.7264-37.4784-77.6192-113.664-78.3872-116.9408a26.73152 26.73152 0 0 1 19.8144-32.3072 26.77248 26.77248 0 0 1 32.3072 19.712c0.2048 0.8704 14.9504 58.6752 55.1424 84.3264a26.86976 26.86976 0 0 1 8.1408 37.0176z" fill="#F23D4F" p-id="1255"></path><path d="M638.464 369.7152l-43.6224-183.0912a21.74464 21.74464 0 0 0-21.1456-16.6912H462.5408c-10.0864 0-18.7904 6.912-21.1456 16.6912l-43.6224 183.0912H190.208c-7.2704 0-13.056 6.2464-12.3392 13.5168 4.4032 47.0016 30.0544 204.0832 176.7936 272.4352l-33.9968 156.416c-0.4096 1.792-0.512 3.584-0.4608 5.3248 1.9456 0 3.84 0.0512 5.7856 0.0512 247.9616 0 449.1264-200.192 450.7648-447.7952H638.464z m-269.1584 203.5712c-5.12 7.9872-13.7728 12.3904-22.6304 12.3904-4.9152 0-9.9328-1.3824-14.3872-4.1984-58.7264-37.4784-77.6192-113.664-78.3872-116.9408a26.73152 26.73152 0 0 1 19.8144-32.3072 26.77248 26.77248 0 0 1 32.3072 19.712c0.2048 0.8704 14.9504 58.6752 55.1424 84.3264a26.86976 26.86976 0 0 1 8.1408 37.0176z" fill="#FC4956" p-id="1256"></path><path d="M632.2688 343.6032l-37.4272-156.9792a21.74464 21.74464 0 0 0-21.1456-16.6912H462.5408c-10.0864 0-18.7904 6.912-21.1456 16.6912l-43.6224 183.0912H190.208c-7.2704 0-13.056 6.2464-12.3392 13.5168 4.096 43.7248 26.6752 182.8864 148.1728 257.0752 145.2032-41.216 260.5568-153.3952 306.2272-296.704z m-262.9632 229.6832c-5.12 7.9872-13.7728 12.3904-22.6304 12.3904-4.9152 0-9.9328-1.3824-14.3872-4.1984-58.7264-37.4784-77.6192-113.664-78.3872-116.9408a26.73152 26.73152 0 0 1 19.8144-32.3072 26.77248 26.77248 0 0 1 32.3072 19.712c0.2048 0.8704 14.9504 58.6752 55.1424 84.3264a26.86976 26.86976 0 0 1 8.1408 37.0176z" fill="#FF5C64" p-id="1257"></path><path d="M253.8496 464.5888a26.73152 26.73152 0 0 1 19.8144-32.3072c11.52-2.7648 23.04 2.4576 28.9792 12.032C408.9344 387.072 489.6768 288.4608 523.1616 169.984H462.5408c-10.0864 0-18.7904 6.912-21.1456 16.6912l-43.6224 183.0912H190.208c-7.2704 0-13.056 6.2464-12.3392 13.5168 1.8432 19.4048 7.3216 57.6 23.3984 100.608 18.176-4.6592 35.9424-10.3936 53.1456-17.2032-0.3072-1.1264-0.4608-1.8432-0.5632-2.0992z" fill="#FF716E" p-id="1258"></path></svg>