<svg class="icon" style="width: 1em;height: 1em;vertical-align: middle;fill: currentColor;overflow: hidden;" viewBox="0 0 1024 1024" version="1.1" xmlns="http://www.w3.org/2000/svg" p-id="4588"><path d="M509.9008 510.72m-450.816 0a450.816 450.816 0 1 0 901.632 0 450.816 450.816 0 1 0-901.632 0Z" fill="#E9F4FF" p-id="4589"></path><path d="M664.7296 327.936c-12.288 0-22.2208-9.9328-22.2208-22.2208V227.2256c0-12.288 9.9328-22.2208 22.2208-22.2208s22.2208 9.9328 22.2208 22.2208v78.5408c0 12.2368-9.9328 22.1696-22.2208 22.1696z" fill="#59ADF8" p-id="4590"></path><path d="M716.1344 245.4528v60.2624c0 25.5488-25.9072 46.336-51.4048 46.336-25.5488 0-51.4048-20.7872-51.4048-46.336V245.1968H424.2432v60.5696c0 25.5488-25.9072 46.336-51.4048 46.336-25.5488 0-51.4048-20.7872-51.4048-46.336V245.248c-48.4352 1.9456-87.0912 41.8304-87.0912 90.7264v71.168h565.5552v-71.168c0-47.7696-36.9152-86.8864-83.7632-90.5216z" fill="#3A9CED" p-id="4591"></path><path d="M372.8384 327.936c-12.288 0-22.2208-9.9328-22.2208-22.2208V227.2256c0-12.288 9.9328-22.2208 22.2208-22.2208s22.2208 9.9328 22.2208 22.2208v78.5408c0 12.2368-9.9328 22.1696-22.2208 22.1696z" fill="#6BC2FC" p-id="4592"></path><path d="M234.3424 452.5568v237.7216c0 50.176 40.6528 90.8288 90.8288 90.8288h383.9488c50.176 0 90.8288-40.6528 90.8288-90.8288V452.5568H234.3424z m159.232 265.5232H312.5248v-81.0496h81.0496v81.0496z m0-133.9904H312.5248V503.04h81.0496v81.0496z m164.096 133.9904H476.6208v-81.0496h81.0496v81.0496z m0-133.9904H476.6208V503.04h81.0496v81.0496z m164.0448 133.9904h-81.0496v-81.0496h81.0496v81.0496z m0-133.9904h-81.0496V503.04h81.0496v81.0496z" fill="#2595E8" p-id="4593"></path><path d="M799.8976 452.5568H234.3424v237.7216c0 50.176 40.6528 90.8288 90.8288 90.8288h151.9104c60.416-15.872 115.9168-43.9296 163.584-81.4592v-62.6176h65.0752c44.4416-52.2752 77.2096-114.7904 94.208-183.5008v-0.9728z m-406.3232 265.5232H312.5248v-81.0496h81.0496v81.0496z m0-133.9904H312.5248V503.04h81.0496v81.0496z m164.096 133.9904H476.6208v-81.0496h81.0496v81.0496z m0-133.9904H476.6208V503.04h81.0496v81.0496z m82.9952 0V503.04h81.0496v81.0496h-81.0496z" fill="#3A9CED" p-id="4594"></path><path d="M686.9504 227.2256c0-12.288-9.9328-22.2208-22.2208-22.2208s-22.2208 9.9328-22.2208 22.2208v78.5408c0 12.288 9.9328 22.2208 22.2208 22.2208 0.6656 0 1.28-0.1536 1.8944-0.2048a451.52768 451.52768 0 0 0 20.3264-92.6208v-7.936zM657.9712 351.488c-23.1424-3.2256-44.6464-22.528-44.6464-45.7728V245.1968H424.2432v60.5696c0 25.5488-25.856 46.336-51.4048 46.336-25.5488 0-51.4048-20.7872-51.4048-46.336V245.248c-48.4352 1.9456-87.0912 41.8304-87.0912 90.7264v71.168h396.9024c10.1376-17.8176 19.0464-36.4032 26.7264-55.6544zM234.3424 635.6992c1.536 0 3.072 0.0512 4.608 0.0512 87.2448 0 168.6528-24.7808 237.6704-67.6864v-65.024h81.0496v0.768c15.9232-15.9232 30.6688-33.0752 44.0832-51.2512H234.3424v183.1424z m78.1824-132.6592h81.0496v81.0496H312.5248V503.04z" fill="#59ADF8" p-id="4595"></path><path d="M517.1712 245.1968H424.2432v60.5696c0 25.5488-25.856 46.336-51.4048 46.336-25.5488 0-51.4048-20.7872-51.4048-46.336V245.248c-48.4352 1.9456-87.0912 41.8304-87.0912 90.7264v71.168h113.152a453.5296 453.5296 0 0 0 169.6768-161.9456z" fill="#6BC2FC" p-id="4596"></path></svg>