<svg class="icon" style="width: 1em;height: 1em;vertical-align: middle;fill: currentColor;overflow: hidden;" viewBox="0 0 1024 1024" version="1.1" xmlns="http://www.w3.org/2000/svg" p-id="2527"><path d="M509.1328 513.1264m-450.816 0a450.816 450.816 0 1 0 901.632 0 450.816 450.816 0 1 0-901.632 0Z" fill="#E9F4FF" p-id="2528"></path><path d="M262.9632 448.3584h56.576c14.2336 0 25.7024-11.52 25.7024-25.7024 0-14.2336-11.52-25.7024-25.7024-25.7024H262.9632c-14.2336 0-25.7024 11.52-25.7024 25.7024 0 14.1824 11.52 25.7024 25.7024 25.7024z" fill="#8486F8" p-id="2529"></path><path d="M699.9552 228.864H346.9312c-35.3792 0-64.0512 28.672-64.0512 64.0512v73.472h36.6592c31.0784 0 56.2688 25.1904 56.2688 56.2688s-25.1904 56.2688-56.2688 56.2688h-36.6592v92.7232h36.6592c31.0784 0 56.2688 25.1904 56.2688 56.2688s-25.1904 56.2688-56.2688 56.2688h-36.6592v58.6752c0 35.3792 28.672 64.0512 64.0512 64.0512h353.024c35.3792 0 64.0512-28.672 64.0512-64.0512V292.9152c0-35.3792-28.672-64.0512-64.0512-64.0512z m-75.52 327.168c-22.7328 25.088-50.0736 44.5952-77.2608 64.3072-9.3184 6.7584-20.1728 6.2464-30.208-1.2288-15.9232-11.8784-31.744-23.9104-47.2576-36.4032-15.0528-12.0832-28.672-25.6512-39.9872-41.472-22.1696-31.0784-21.5552-74.5472 2.1504-103.5776 13.5168-16.5376 31.5392-23.5008 52.7872-22.6304 17.7664 0.7168 33.2288 6.656 45.6704 19.6096 0.5632 0.5632 1.1264 1.1264 1.7408 1.6384 0.2048 0.2048 0.5632 0.256 1.3824 0.6144 9.6256-9.8304 20.3776-17.3568 34.048-20.0704 43.5712-8.8064 74.1888 15.7184 82.7904 54.8352 7.3216 32.9216-3.9936 60.2624-25.856 84.3776z" fill="#6C6CEA" p-id="2530"></path><path d="M345.2928 627.8656c0-14.2336-11.52-25.7024-25.7024-25.7024H262.9632c-14.2336 0-25.7024 11.52-25.7024 25.7024s11.52 25.7024 25.7024 25.7024h56.576c14.2336 0.0512 25.7536-11.4688 25.7536-25.7024z" fill="#757BF2" p-id="2531"></path><path d="M764.0064 439.1424V292.9152c0-35.3792-28.672-64.0512-64.0512-64.0512H346.9312c-35.3792 0-64.0512 28.672-64.0512 64.0512v73.472h36.6592c31.0784 0 56.2688 25.1904 56.2688 56.2688s-25.1904 56.2688-56.2688 56.2688h-36.6592v92.7232h36.6592c31.0784 0 56.2688 25.1904 56.2688 56.2688s-25.1904 56.2688-56.2688 56.2688h-36.6592v58.6752c0 16.3328 6.144 31.1808 16.2304 42.496 13.4144 1.2288 26.9312 1.8944 40.6528 1.8944 209.9712-0.0512 384.9728-149.6576 424.2432-348.1088z m-332.0832-1.3824c13.5168-16.5376 31.5392-23.5008 52.7872-22.6304 17.7664 0.7168 33.2288 6.656 45.6704 19.6096 0.5632 0.5632 1.1264 1.1264 1.7408 1.6384 0.2048 0.2048 0.5632 0.256 1.3824 0.6144 9.6256-9.8304 20.3776-17.3568 34.048-20.0704 43.5712-8.8064 74.1888 15.7184 82.7904 54.8352 7.2192 32.8704-4.096 60.2624-25.9072 84.3776-22.7328 25.088-50.0736 44.5952-77.2608 64.3072-9.3184 6.7584-20.1728 6.2464-30.208-1.2288-15.9232-11.8784-31.744-23.9104-47.2576-36.4032-15.0528-12.0832-28.672-25.6512-39.9872-41.472-22.1184-31.1296-21.504-74.5984 2.2016-103.5776z" fill="#757BF2" p-id="2532"></path><path d="M346.9312 228.864c-35.3792 0-64.0512 28.672-64.0512 64.0512v73.472h36.6592c31.0784 0 56.2688 25.1904 56.2688 56.2688s-25.1904 56.2688-56.2688 56.2688h-36.6592v92.7232h36.6592c23.6032 0 43.776 14.5408 52.1728 35.1744a428.68224 428.68224 0 0 0 80.384-39.7824c-8.0896-7.936-15.6672-16.384-22.3232-25.7024-22.1696-31.0784-21.5552-74.5472 2.1504-103.5776 13.5168-16.5376 31.5392-23.5008 52.7872-22.6304 17.7664 0.7168 33.2288 6.656 45.6704 19.6096 0.5632 0.5632 1.1264 1.1264 1.7408 1.6384 0.2048 0.2048 0.5632 0.256 1.3824 0.6144 9.6256-9.8304 20.3776-17.3568 34.048-20.0704 10.5472-2.1504 20.3264-2.2528 29.2352-0.768a430.14144 430.14144 0 0 0 56.2176-187.2384H346.9312z" fill="#8486F8" p-id="2533"></path><path d="M282.88 292.9152v73.472h36.6592c21.5552 0 40.2432 12.1344 49.7152 29.9008 58.4704-43.1616 105.6768-100.6592 136.3968-167.3728h-158.72c-35.3792-0.0512-64.0512 28.6208-64.0512 64zM319.5392 396.9024H262.9632c-14.1824 0-25.7024 11.52-25.7024 25.7024 0 6.6048 2.56 12.5952 6.656 17.152 44.9536-6.656 77.824-18.7392 98.6112-28.5184-4.2496-8.4992-12.9024-14.336-22.9888-14.336z" fill="#8D92F8" p-id="2534"></path><path d="M319.5392 602.1632H262.9632c-14.1824 0-25.7024 11.52-25.7024 25.7024 0 2.4576 0.4608 4.8128 1.1264 7.0656 44.8-4.1472 80.7424-12.288 103.9872-18.7392-4.3008-8.2944-12.8512-14.0288-22.8352-14.0288z" fill="#8486F8" p-id="2535"></path></svg>