<svg class="icon" style="width: 1em;height: 1em;vertical-align: middle;fill: currentColor;overflow: hidden;" viewBox="0 0 1024 1024" version="1.1" xmlns="http://www.w3.org/2000/svg" p-id="6378"><path d="M515.1744 514.2016m-450.816 0a450.816 450.816 0 1 0 901.632 0 450.816 450.816 0 1 0-901.632 0Z" fill="#FBE1FF" p-id="6379"></path><path d="M792.0128 785.408h-183.3984c0-18.7904 0.1536-37.0176-0.0512-55.1936-0.512-55.1424-40.3456-97.9968-91.1872-98.2528-53.4016-0.256-93.9008 42.496-94.0032 99.3792-0.0512 17.664 0 35.2768 0 53.8112H239.9744v-82.9952c0-20.8896-0.6656-41.7792 0.1536-62.6176 1.0752-27.0336 1.0752-49.664-27.392-68.4032-27.0336-17.8176-35.5328-50.944-33.4336-81.0496 22.7328 0.9728 44.0832 4.9664 64.256 1.7408 15.3088-2.4576 33.7408-10.5984 42.5984-22.3232 15.5648-20.5824 33.8944-21.248 55.8592-21.1456 122.7776 0.6144 245.5552 0.4096 368.384 0.1024 11.3152-0.0512 18.6368 2.7648 26.0096 12.4416 25.6 33.5872 64.3584 41.5232 112.9472 25.1904 8.9088 33.2288-10.0864 76.1856-44.9024 97.9968-9.7792 6.144-12.7488 12.4928-12.6464 23.4496 0.512 58.7776 0.2048 117.5552 0.2048 177.8688z" fill="#BD50D3" p-id="6380"></path><path d="M226.4576 306.5856c67.4816 12.8512 121.1392-25.8048 135.168-88.6784h306.944c18.0736 73.216 77.7728 100.2496 135.5264 88.4224-2.3552 34.6624-19.8144 60.16-47.616 76.032-17.8688 10.1888-40.2944 17.1008-60.7744 17.3568-119.1424 1.5872-238.336 0.9728-357.5296 0.7168-61.0816-0.1536-106.3936-38.0416-111.7184-93.8496zM736.4096 460.8512c-7.3728-9.6768-14.6432-12.4416-26.0096-12.4416-122.7776 0.3072-245.5552 0.512-368.384-0.1024-21.9648-0.1024-40.2944 0.5632-55.8592 21.1456-8.9088 11.776-27.3408 19.9168-42.5984 22.3232-20.1728 3.2256-41.472-0.768-64.256-1.7408-2.1504 30.1056 6.3488 63.232 33.4336 81.0496 28.4672 18.7904 28.4672 41.3696 27.392 68.4032-0.8192 20.8384-0.1536 41.728-0.1536 62.6176v82.9952h183.3984c0-18.5344-0.0512-36.1472 0-53.8112 0.1024-56.8832 40.6016-99.6352 94.0032-99.3792 50.8928 0.256 90.7264 43.1104 91.1872 98.2528v3.6864c84.6848-57.1392 149.3504-141.6192 181.4016-240.7424-21.4016-3.1232-39.4752-13.7728-53.5552-32.256z" fill="#C65EDB" p-id="6381"></path><path d="M681.6256 251.8528c-5.4272-9.984-9.8816-21.1968-13.056-33.9456H361.6256c-14.0288 62.8736-67.6864 101.5296-135.168 88.6784 5.3248 55.808 50.6368 93.696 111.7696 93.8496 98.6112 0.2048 197.2224 0.6144 295.8336-0.1536a458.1376 458.1376 0 0 0 47.5648-148.4288zM604.9792 448.6656c-87.6544 0.1536-175.2576 0.1024-262.912-0.3072-21.9648-0.1024-40.2944 0.5632-55.8592 21.1456-8.9088 11.776-27.3408 19.9168-42.5984 22.3232-20.1728 3.2256-41.472-0.768-64.256-1.7408-2.1504 30.1056 6.3488 63.232 33.4336 81.0496 28.4672 18.7904 28.4672 41.3696 27.392 68.4032-0.1024 2.9696-0.1536 5.888-0.2048 8.8576 151.4496-4.9152 284.4672-82.8416 365.0048-199.7312z" fill="#CA6EE0" p-id="6382"></path><path d="M361.6256 217.9072c-14.0288 62.8736-67.6864 101.5296-135.168 88.6784 5.3248 55.808 50.6368 93.696 111.7696 93.8496 12.3904 0.0512 24.7808 0.0512 37.1712 0.1024a462.60224 462.60224 0 0 0 152.0128-182.6304H361.6256z" fill="#D786EA" p-id="6383"></path></svg>