<svg class="icon" style="width: 1em;height: 1em;vertical-align: middle;fill: currentColor;overflow: hidden;" viewBox="0 0 1024 1024" version="1.1" xmlns="http://www.w3.org/2000/svg" p-id="3537"><path d="M512.6144 519.8336m-450.816 0a450.816 450.816 0 1 0 901.632 0 450.816 450.816 0 1 0-901.632 0Z" fill="#FFE1E9" p-id="3538"></path><path d="M792.064 733.696c-2.4576 0-4.6592-0.1536-7.9872-0.1536-0.0512-2.56-0.256-4.1472-0.3072-6.8608-1.536-49.2544-1.3312-98.56-1.7408-147.8656 0-2.048 1.8944-4.608 3.6352-6.144 36.5056-31.5392 36.096-97.6384-7.3728-133.6832-27.8016-23.0912-55.3472-46.5408-83.0976-69.7344-11.1104-9.3184-21.5552-9.1648-32.4608 0.4608-12.3392 10.8544-24.5248 21.9136-36.864 32.8192-2.2528 1.9968-4.9152 3.4304-7.5776 5.2736-3.584-11.0592-1.3312-18.7904 6.7072-25.4976 4.0448-3.3792 6.8608-8.5504 9.5232-13.2608 21.1968-37.12 10.2912-84.8384-26.4704-115.8144-26.5216-22.3744-53.1456-44.5952-79.7696-66.8672-11.3664-9.5232-20.9408-9.5232-32.3584 0.2048-8.0384 6.8608-15.6672 14.2848-23.7568 21.1456-21.76 18.3808-44.8512 35.3792-65.3312 55.0912-35.0208 33.7408-36.5568 89.9072-4.352 122.4704 7.3728 7.424 6.4 13.824 3.328 23.1936-14.2848-12.7488-27.648-24.576-40.96-36.4544-14.4896-12.9024-23.6544-12.5952-38.144-0.1024-22.4256 19.3536-45.3632 37.9904-67.7888 57.344-9.6256 8.3456-19.6096 16.6912-27.392 26.6752-24.576 31.4368-24.6272 78.6432 0.4096 107.6736 7.8848 9.1136 10.5472 17.2032 10.24 29.2864-1.2288 42.752-0.4608 85.5552-0.4608 128.3584v12.0832c-3.2256 0-4.9664 0.1024-6.7072 0.1024-14.4896 0-22.1184 11.8784-21.504 23.6544 0.6656 11.8272 10.3936 20.3776 23.8592 20.8896 2.2016 0.1024 4.4032 0 6.6048 0h537.5488c3.6352 0 7.2704-0.1024 10.9056-0.1024 11.776 0 19.6096-11.264 19.5072-21.9648-0.0512-10.7008-5.6832-22.2208-19.8656-22.2208z m-235.264 2.7136H468.4288v-90.368c0-24.4224 19.8144-44.1856 44.1856-44.1856s44.1856 19.8144 44.1856 44.1856v90.368z" fill="#FF3369" p-id="3539"></path><path d="M778.2912 439.04c-27.8016-23.0912-55.3472-46.5408-83.0976-69.7344-11.1104-9.3184-21.5552-9.1648-32.4608 0.4608-12.3392 10.8544-24.5248 21.9136-36.864 32.8192-2.2528 1.9968-4.9152 3.4304-7.5776 5.2736-3.584-11.0592-1.3312-18.7904 6.7072-25.4976 4.0448-3.3792 6.8608-8.5504 9.5232-13.2608 21.1968-37.12 10.2912-84.8384-26.4704-115.8144-26.5216-22.3744-53.1456-44.5952-79.7696-66.8672-11.3664-9.5232-20.9408-9.5232-32.3584 0.2048-8.0384 6.8608-15.6672 14.2848-23.7568 21.1456-21.76 18.3808-44.8512 35.3792-65.3312 55.0912-35.0208 33.7408-36.5568 89.9072-4.352 122.4704 7.3728 7.424 6.4 13.824 3.328 23.1936-14.2848-12.7488-27.648-24.576-40.96-36.4544-14.4896-12.9024-23.6544-12.5952-38.144-0.1024-22.4256 19.3536-45.3632 37.9904-67.7888 57.344-9.6256 8.3456-19.6096 16.6912-27.392 26.6752-24.576 31.4368-24.6272 78.6432 0.4096 107.6736 7.8848 9.1136 10.5472 17.2032 10.24 29.2864-1.2288 42.752-0.4608 85.5552-0.4608 128.3584v12.0832c-3.2256 0-4.9664 0.1024-6.7072 0.1024-14.4896 0-22.1184 11.8784-21.504 23.6544 0.6656 11.8272 10.3936 20.3776 23.8592 20.8896 2.2016 0.1024 4.4032 0 6.6048 0h340.224c110.8992-72.8064 187.7504-193.1776 201.5232-332.1344-2.304-2.4064-4.7616-4.7104-7.424-6.8608z m-221.4912 297.3696H468.4288v-90.368c0-24.4224 19.8144-44.1856 44.1856-44.1856s44.1856 19.8144 44.1856 44.1856v90.368z" fill="#FF4D7C" p-id="3540"></path><path d="M639.0784 390.7584c-4.4032 3.9424-8.7552 7.8336-13.2096 11.7248-2.2528 1.9968-4.9152 3.4304-7.5776 5.2736-3.584-11.0592-1.3312-18.7904 6.7072-25.4976 4.0448-3.3792 6.8608-8.5504 9.5232-13.2608 21.1968-37.12 10.2912-84.8384-26.4704-115.8144-26.5216-22.3744-53.1456-44.5952-79.7696-66.8672-11.3664-9.5232-20.9408-9.5232-32.3584 0.2048-8.0384 6.8608-15.6672 14.2848-23.7568 21.1456-21.76 18.3808-44.8512 35.3792-65.3312 55.0912-35.0208 33.7408-36.5568 89.9072-4.352 122.4704 7.3728 7.424 6.4 13.824 3.328 23.1936-14.2848-12.7488-27.648-24.576-40.96-36.4544-14.4896-12.9024-23.6544-12.5952-38.144-0.1024-22.4256 19.3536-45.3632 37.9904-67.7888 57.344-9.6256 8.3456-19.6096 16.6912-27.392 26.6752-24.576 31.4368-24.6272 78.6432 0.4096 107.6736 7.8848 9.1136 10.5472 17.2032 10.24 29.2864-0.9216 32.5632-0.7168 65.2288-0.5632 97.8432 184.2688-11.1616 338.5856-133.0176 397.4656-299.9296z" fill="#FF5F89" p-id="3541"></path><path d="M537.088 193.7408c-2.9184-2.4576-5.888-4.9152-8.8064-7.3728-11.3664-9.5232-20.9408-9.5232-32.3584 0.2048-8.0384 6.8608-15.6672 14.2848-23.7568 21.1456-21.76 18.3808-44.8512 35.3792-65.3312 55.0912-35.0208 33.7408-36.5568 89.9072-4.352 122.4704 7.3728 7.424 6.4 13.824 3.328 23.1936-14.2848-12.7488-27.648-24.576-40.96-36.4544-14.4896-12.9024-23.6544-12.5952-38.144-0.1024-22.4256 19.3536-45.3632 37.9904-67.7888 57.344-9.6256 8.3456-19.6096 16.6912-27.392 26.6752-13.824 17.664-19.8656 40.2432-18.0736 61.8496 158.3616-40.8576 282.9824-165.632 323.6352-324.0448z" fill="#FF7196" p-id="3542"></path></svg>