<svg class="icon" style="width: 1em;height: 1em;vertical-align: middle;fill: currentColor;overflow: hidden;" viewBox="0 0 1024 1024" version="1.1" xmlns="http://www.w3.org/2000/svg" p-id="1979"><path d="M509.184 519.8336m-450.816 0a450.816 450.816 0 1 0 901.632 0 450.816 450.816 0 1 0-901.632 0Z" fill="#E3FFF3" p-id="1980"></path><path d="M797.696 283.4944l-116.3776-62.0032h-53.248c-15.9232 50.4832-63.0784 87.0912-118.8352 87.0912s-102.912-36.608-118.8352-87.0912h-56.32l-113.664 62.9248a22.28736 22.28736 0 0 0-11.4688 19.456V396.8c0 10.0864 6.8096 18.944 16.5888 21.504l52.6848 13.9264c9.7792 2.56 16.5888 11.4176 16.5888 21.504v334.0288c0 23.296 18.8928 42.1888 42.1888 42.1888h336.8448c23.296 0 42.1888-18.8928 42.1888-42.1888V453.5808c0-10.4448 7.2192-19.456 17.408-21.7088l58.624-13.0048c10.1888-2.2528 17.408-11.264 17.408-21.7088V303.104c0-8.192-4.5568-15.7696-11.776-19.6096z m-384.7168 380.16c0 14.2848-11.5712 25.856-25.856 25.856s-25.856-11.5712-25.856-25.856v-139.776c0-14.2848 11.5712-25.856 25.856-25.856s25.856 11.5712 25.856 25.856v139.776z" fill="#05C46D" p-id="1981"></path><path d="M628.0192 221.4912c-15.9232 50.4832-63.0784 87.0912-118.8352 87.0912s-102.912-36.608-118.8352-87.0912h-56.32l-113.664 62.9248a22.28736 22.28736 0 0 0-11.4688 19.456V396.8c0 10.0864 6.8096 18.944 16.5888 21.504l52.6848 13.9264c9.7792 2.56 16.5888 11.4176 16.5888 21.504v334.0288c0 1.9968 0.2048 3.8912 0.4608 5.7856 11.1104 0.8192 22.3232 1.2288 33.6384 1.2288 164.5056 0 308.4288-88.1664 387.1744-219.8016V453.5808c0-10.4448 7.2704-19.456 17.408-21.7088l39.2704-8.704c4.5568-25.7024 6.912-52.1216 6.912-79.104 0-24.9856-2.048-49.4592-5.9904-73.3184l-92.3648-49.2032h-53.248z m-215.04 442.1632c0 14.2848-11.5712 25.856-25.856 25.856s-25.856-11.5712-25.856-25.856v-139.776c0-14.2848 11.5712-25.856 25.856-25.856s25.856 11.5712 25.856 25.856v139.776z" fill="#1DCE75" p-id="1982"></path><path d="M628.0192 221.4912c-15.9232 50.4832-63.0784 87.0912-118.8352 87.0912s-102.912-36.608-118.8352-87.0912h-56.32l-113.664 62.9248a22.28736 22.28736 0 0 0-11.4688 19.456V396.8c0 10.0864 6.8096 18.944 16.5888 21.504l52.6848 13.9264c9.7792 2.56 16.5888 11.4176 16.5888 21.504v172.1344c22.8352-4.608 45.1072-10.9056 66.56-18.7904v-83.2c0-14.2848 11.5712-25.856 25.856-25.856s25.856 11.5712 25.856 25.856v60.3648c134.0928-69.632 228.7104-204.5952 241.7664-362.752h-26.7776z" fill="#3CD38E" p-id="1983"></path><path d="M452.7104 294.9632c-29.4912-15.0528-52.224-41.472-62.3104-73.472h-56.32l-113.664 62.9248a22.28736 22.28736 0 0 0-11.4688 19.456V396.8c0 10.0864 6.8096 18.944 16.5888 21.504l52.6848 13.9264c1.2288 0.3072 2.4064 0.7168 3.4816 1.2288 67.7888-31.4368 126.5152-79.3088 171.008-138.496z" fill="#48E1AA" p-id="1984"></path></svg>