<svg class="icon" style="width: 1em;height: 1em;vertical-align: middle;fill: currentColor;overflow: hidden;" viewBox="0 0 1024 1024" version="1.1" xmlns="http://www.w3.org/2000/svg" p-id="2562"><path d="M512.0512 514.7136m-450.816 0a450.816 450.816 0 1 0 901.632 0 450.816 450.816 0 1 0-901.632 0Z" fill="#FFF1DC" p-id="2563"></path><path d="M798.1568 264.2944c-59.1872 8.6016-213.248 23.552-279.3984-40.9088-7.9872-7.7824-20.6336-8.1408-28.7232-0.4608-24.9344 23.5008-92.3136 60.928-265.984 53.0944-11.8784-0.512-21.8624 8.9088-21.8624 20.7872V464.384c0 47.872 20.2752 265.6256 286.3616 399.4624 9.5232 4.8128 20.8384 4.864 30.4128 0.1536 298.7008-146.1248 303.0016-355.9936 303.0016-399.616V284.8768c-0.0512-12.6464-11.264-22.4256-23.808-20.5824z m-154.9824 229.8368l-51.456 50.1248c-3.0208 2.9184-4.4032 7.168-3.6864 11.3152l12.1344 70.8096c1.792 10.4448-9.1648 18.432-18.5856 13.5168l-63.5904-33.4336c-3.7376-1.9456-8.192-1.9456-11.9296 0l-63.5904 33.4336c-9.4208 4.9152-20.3776-3.0208-18.5856-13.5168l12.1344-70.8096c0.7168-4.1472-0.6656-8.3968-3.6864-11.3152L380.928 494.1312c-7.5776-7.424-3.4304-20.3264 7.1168-21.8624l71.0656-10.3424c4.1472-0.6144 7.7824-3.2256 9.6256-7.0144l31.7952-64.4096c4.7104-9.5232 18.2784-9.5232 22.9888 0l31.7952 64.4096c1.8432 3.7888 5.4784 6.4 9.6256 7.0144l71.0656 10.3424c10.5472 1.536 14.7456 14.4896 7.168 21.8624z" fill="#FF8E12" p-id="2564"></path><path d="M798.1568 264.2944c-59.1872 8.6016-213.248 23.552-279.3984-40.9088-7.9872-7.7824-20.6336-8.1408-28.7232-0.4608-24.9344 23.5008-92.3136 60.928-265.984 53.0944-11.8784-0.512-21.8624 8.9088-21.8624 20.7872V464.384c0 38.8096 13.3632 189.0304 159.8464 315.8528 2.1504 0.0512 4.3008 0.1024 6.4 0.1024 248.9856 0 450.816-201.8304 450.816-450.816 0-20.2752-1.3824-40.192-3.9424-59.7504a20.4032 20.4032 0 0 0-17.152-5.4784z m-154.9824 229.8368l-51.456 50.1248c-3.0208 2.9184-4.4032 7.168-3.6864 11.3152l12.1344 70.8096c1.792 10.4448-9.1648 18.432-18.5856 13.5168l-63.5904-33.4336c-3.7376-1.9456-8.192-1.9456-11.9296 0l-63.5904 33.4336c-9.4208 4.9152-20.3776-3.0208-18.5856-13.5168l12.1344-70.8096c0.7168-4.1472-0.6656-8.3968-3.6864-11.3152L380.928 494.1312c-7.5776-7.424-3.4304-20.3264 7.1168-21.8624l71.0656-10.3424c4.1472-0.6144 7.7824-3.2256 9.6256-7.0144l31.7952-64.4096c4.7104-9.5232 18.2784-9.5232 22.9888 0l31.7952 64.4096c1.8432 3.7888 5.4784 6.4 9.6256 7.0144l71.0656 10.3424c10.5472 1.536 14.7456 14.4896 7.168 21.8624z" fill="#FCA315" p-id="2565"></path><path d="M436.0704 555.6224c0.7168-4.1472-0.6656-8.3968-3.6864-11.3152l-51.456-50.176c-7.5776-7.424-3.4304-20.3264 7.1168-21.8624l71.0656-10.3424c4.1472-0.6144 7.7824-3.2256 9.6256-7.0144l31.7952-64.4096c4.7104-9.5232 18.2784-9.5232 22.9888 0l31.7952 64.4096c1.8432 3.7888 5.4784 6.4 9.6256 7.0144l20.5312 2.9696c47.3088-54.4256 81.7664-120.2688 98.6624-192.9216-61.1328-0.9728-127.5904-11.8784-165.4272-48.6912-7.9872-7.7824-20.6336-8.1408-28.7232-0.4608-24.9344 23.5008-92.3136 60.928-265.984 53.0944-11.8784-0.512-21.8624 8.9088-21.8624 20.7872v167.5776c0 22.7328 4.608 83.712 37.8368 155.8016 1.6896 0 3.4304 0.0512 5.12 0.0512 66.6112 0 129.8944-14.4896 186.7776-40.3968l4.1984-24.1152z" fill="#FCB138" p-id="2566"></path><path d="M525.5168 229.4272c-2.3552-1.9456-4.608-3.9424-6.7584-6.0416-7.9872-7.7824-20.6336-8.1408-28.7232-0.4608-24.9344 23.5008-92.3136 60.928-265.984 53.0944-11.8784-0.512-21.8624 8.9088-21.8624 20.7872V455.168c139.1616-21.8112 257.1776-107.3152 323.328-225.7408z" fill="#FFC65E" p-id="2567"></path></svg>