<svg class="icon" style="width: 1em;height: 1em;vertical-align: middle;fill: currentColor;overflow: hidden;" viewBox="0 0 1024 1024" version="1.1" xmlns="http://www.w3.org/2000/svg" p-id="6597"><path d="M514.6112 510.72m-450.816 0a450.816 450.816 0 1 0 901.632 0 450.816 450.816 0 1 0-901.632 0Z" fill="#FFE1E9" p-id="6598"></path><path d="M346.2144 389.8368c-23.296-26.6752-46.592-53.4016-69.888-80.128-8.8576-10.1376-19.0976-19.4048-26.1632-30.6688-4.608-7.3216-8.2432-18.7904-5.632-26.0096 2.0992-5.888 14.0288-11.776 21.6064-11.776 167.0656-0.6656 334.1312-0.6656 501.1456 0.1024 7.7824 0.0512 18.3808 6.9632 22.272 13.7216 2.816 4.9664-1.0752 16.8448-5.7344 22.4768-28.0064 33.4336-57.1392 65.9968-85.8624 98.816-3.4816 3.9936-6.8608 8.0896-11.2128 13.2096 65.536 62.0544 96.0512 137.3696 85.6064 226.9184-7.8848 67.6352-38.912 124.2112-91.3408 167.5264-104.192 86.1696-260.608 75.776-352.1024-21.1456-93.952-99.4304-98.8672-268.4416 17.3056-373.0432z m83.8144 286.6176c-1.1264 21.6064 14.592 32.5632 33.9456 23.6032 12.6976-5.8368 25.0368-12.5952 37.2736-19.4048 10.24-5.6832 19.7632-6.5024 30.2592-0.1536 11.4688 6.9632 23.552 13.056 35.6352 18.944 21.0432 10.1888 37.2224-0.768 34.9696-24.0128-1.3824-13.8752-4.4032-27.648-6.912-41.3696-2.2528-12.1856 1.2288-22.016 10.5472-30.3616 10.4448-9.3184 21.0432-18.6368 30.3104-29.0816 13.2096-14.9504 7.6288-32.4096-11.7248-36.864-13.6192-3.1232-27.5968-4.7104-41.472-6.3488-12.8512-1.4848-22.016-7.168-27.4944-19.3024-5.7344-12.7488-12.0832-25.2928-18.8416-37.5296-10.6496-19.2-29.44-19.4048-40.1408-0.4096a450.1504 450.1504 0 0 0-18.7904 37.5296c-5.4272 12.1344-14.3872 18.1248-27.2896 19.5584-11.776 1.28-24.0128 1.5872-35.072 5.2224-8.7552 2.9184-18.7904 8.6016-23.2448 16.0256-5.7344 9.6768 1.0752 19.1488 9.472 26.5216 8.9088 7.8336 16.9472 16.5888 25.6 24.6784 9.4208 8.8064 13.4144 18.688 10.24 31.8464-3.2768 13.7216-4.9664 27.648-7.2704 40.9088z" fill="#FF3369" p-id="6599"></path><path d="M766.6176 520.0384c-12.3392-48.6912-39.424-92.1088-79.9232-130.4064 4.352-5.1712 7.7312-9.2672 11.2128-13.2096 28.7232-32.8704 57.856-65.3824 85.8624-98.816 4.7104-5.632 8.6016-17.5104 5.7344-22.4768-3.8912-6.8096-14.4896-13.7216-22.272-13.7216-167.0656-0.768-334.1312-0.768-501.1968-0.1024-7.5776 0.0512-19.5072 5.888-21.6064 11.776-2.56 7.2192 1.024 18.688 5.632 26.0096 7.0656 11.264 17.3056 20.5312 26.1632 30.6688 23.296 26.7264 46.592 53.4528 69.888 80.128-116.1216 104.6016-111.2576 273.6128-17.3568 373.0944 6.5536 6.912 13.4144 13.312 20.5824 19.3536 2.5088 0.0512 5.0688 0.1024 7.5776 0.1024 181.8112-0.0512 338.3296-107.52 409.7024-262.4z m-130.56 54.5792c-9.2672 10.4448-19.8656 19.7632-30.3104 29.0816-9.3696 8.3456-12.8 18.176-10.5472 30.3616 2.5088 13.7728 5.5296 27.4944 6.912 41.3696 2.304 23.2448-13.9264 34.2016-34.9696 24.0128-12.1344-5.8368-24.1664-11.9808-35.6352-18.944-10.496-6.3488-20.0192-5.5808-30.2592 0.1536-12.2368 6.8096-24.576 13.5168-37.2736 19.4048-19.3536 8.9088-35.072-1.9968-33.9456-23.6032 2.304-13.2608 3.9424-27.1872 7.2192-40.7552 3.1744-13.1584-0.8192-23.0912-10.24-31.8464-8.6528-8.0896-16.6912-16.8448-25.6-24.6784-8.3968-7.3728-15.2064-16.8448-9.472-26.5216 4.4032-7.424 14.4896-13.1584 23.2448-16.0256 11.0592-3.6864 23.296-3.9424 35.072-5.2224 12.9024-1.4336 21.9136-7.424 27.2896-19.5584 5.6832-12.7488 11.9808-25.344 18.7904-37.5296 10.7008-18.9952 29.4912-18.7904 40.1408 0.4096 6.7584 12.2368 13.1072 24.7808 18.8416 37.5296 5.4784 12.1344 14.592 17.8176 27.4944 19.3024 13.8752 1.6384 27.904 3.2256 41.472 6.3488 19.4048 4.3008 24.9856 21.76 11.776 36.7104z" fill="#FF4D7C" p-id="6600"></path><path d="M266.0864 241.2544c-7.5776 0.0512-19.5072 5.888-21.6064 11.776-2.56 7.2192 1.024 18.688 5.632 26.0096 7.0656 11.264 17.3056 20.5312 26.1632 30.6688 23.296 26.7264 46.592 53.4528 69.888 80.128-70.4512 63.488-96.3072 150.6304-84.8384 231.5776 52.2752-3.1744 102.1952-15.2064 148.1728-34.7136-2.6624-2.56-5.3248-5.12-8.0896-7.5776-8.3968-7.3728-15.2064-16.8448-9.472-26.5216 4.4032-7.424 14.4896-13.1584 23.2448-16.0256 11.0592-3.6864 23.296-3.9424 35.072-5.2224 12.9024-1.4336 21.9136-7.424 27.2896-19.5584 5.6832-12.7488 11.9808-25.344 18.7904-37.5296 10.7008-18.9952 29.4912-18.7904 40.1408 0.4096 3.7888 6.8096 7.3728 13.7216 10.8032 20.6848 68.864-66.7136 116.48-155.136 131.84-254.2592-137.6256-0.4608-275.3536-0.3584-413.0304 0.1536z" fill="#FF5F89" p-id="6601"></path><path d="M321.2288 415.5904c78.1312-38.9632 143.36-99.9424 187.5456-174.7968-80.896 0-161.792 0.1536-242.688 0.4608-7.5776 0.0512-19.5072 5.888-21.6064 11.776-2.56 7.2192 1.024 18.688 5.632 26.0096 7.0656 11.264 17.3056 20.5312 26.1632 30.6688 23.296 26.7264 46.592 53.4528 69.888 80.128a280.4736 280.4736 0 0 0-24.9344 25.7536z" fill="#FF7196" p-id="6602"></path></svg>