<svg class="icon" style="width: 1em;height: 1em;vertical-align: middle;fill: currentColor;overflow: hidden;" viewBox="0 0 1024 1024" version="1.1" xmlns="http://www.w3.org/2000/svg" p-id="5151"><path d="M514.0992 513.7408m-450.816 0a450.816 450.816 0 1 0 901.632 0 450.816 450.816 0 1 0-901.632 0Z" fill="#E9ECFF" p-id="5152"></path><path d="M760.9344 313.9584L536.576 220.928a49.17248 49.17248 0 0 0-36.5056-0.4608L268.4416 309.4528a49.20832 49.20832 0 0 0-31.5392 45.9264v177.6128c0 69.0176 50.6368 194.4064 248.8832 292.6592a48.768 48.768 0 0 0 41.216 0.9728c201.0624-88.2688 264.3456-230.912 264.3456-302.2336V359.3728a49.26464 49.26464 0 0 0-30.4128-45.4144z m-221.0816 201.3184v142.08c0 14.2336-11.52 25.7536-25.7536 25.7536-14.2336 0-25.7536-11.52-25.7536-25.7536v-142.08c-26.9824-10.3424-46.1312-36.4544-46.1312-67.072 0-39.7312 32.2048-71.936 71.936-71.936s71.936 32.2048 71.936 71.936c-0.0512 30.6176-19.2512 56.7296-46.2336 67.072z" fill="#6C6CEA" p-id="5153"></path><path d="M747.2128 366.592c0-20.3776-1.4336-40.3968-4.1472-60.0576L536.576 220.928a49.17248 49.17248 0 0 0-36.5056-0.4608L268.4416 309.4528a49.20832 49.20832 0 0 0-31.5392 45.9264v177.6128c0 60.5696 39.0144 164.5056 182.528 255.488 188.416-47.8208 327.7824-218.5728 327.7824-421.888z m-207.36 148.6848v142.08c0 14.2336-11.52 25.7536-25.7536 25.7536s-25.7536-11.52-25.7536-25.7536v-142.08c-26.9824-10.3424-46.1312-36.4544-46.1312-67.072 0-39.7312 32.2048-71.936 71.936-71.936s71.936 32.2048 71.936 71.936c-0.0512 30.6176-19.2512 56.7296-46.2336 67.072z" fill="#757BF2" p-id="5154"></path><path d="M536.576 220.928a49.17248 49.17248 0 0 0-36.5056-0.4608L268.4416 309.4528a49.20832 49.20832 0 0 0-31.5392 45.9264v177.6128c0 28.3136 8.5504 66.0992 32.256 107.5712 83.7632-14.848 159.2832-53.6064 219.1872-109.056v-16.2816c-26.9824-10.3424-46.1312-36.4544-46.1312-67.072 0-39.7312 32.2048-71.936 71.936-71.936 27.7504 0 51.8144 15.7696 63.7952 38.8096a431.83616 431.83616 0 0 0 47.8208-157.2352l-89.1904-36.864z" fill="#8486F8" p-id="5155"></path><path d="M484.864 226.304L268.4416 309.4528a49.20832 49.20832 0 0 0-31.5392 45.9264v109.9264C348.7744 423.168 438.7328 336.2304 484.864 226.304z" fill="#8D92F8" p-id="5156"></path></svg>