<svg class="icon" style="width: 1em;height: 1em;vertical-align: middle;fill: currentColor;overflow: hidden;" viewBox="0 0 1024 1024" version="1.1" xmlns="http://www.w3.org/2000/svg" p-id="2878"><path d="M507.392 519.8336m-450.816 0a450.816 450.816 0 1 0 901.632 0 450.816 450.816 0 1 0-901.632 0Z" fill="#FBE1FF" p-id="2879"></path><path d="M595.712 259.7376h-24.4224c-6.2464-36.608-37.9904-64.4608-76.3904-64.4608-38.3488 0-70.144 27.904-76.3904 64.4608H380.928c-10.496 0-18.9952 8.4992-18.9952 18.9952v52.8896a22.5792 22.5792 0 0 0 22.5792 22.5792h207.6672a22.5792 22.5792 0 0 0 22.5792-22.5792V278.7328a19.06688 19.06688 0 0 0-19.0464-18.9952zM494.8992 310.272c-20.6848 0-37.4272-16.7424-37.4272-37.4272s16.7424-37.4272 37.4272-37.4272c20.6848 0 37.4272 16.7424 37.4272 37.4272s-16.7424 37.4272-37.4272 37.4272z" fill="#C65EDB" p-id="2880"></path><path d="M784.128 785.664l-19.968-24.7808c14.336-18.4832 22.8864-41.6256 22.8864-66.816 0-60.2112-48.9984-109.2096-109.2096-109.2096s-109.2096 48.9984-109.2096 109.2096 48.9984 109.2096 109.2096 109.2096c15.5648 0 30.3104-3.2768 43.7248-9.1648l20.5312 25.4464a27.01824 27.01824 0 0 0 21.0432 10.0864c5.9392 0 11.9296-1.9456 16.9472-5.9904a27.04896 27.04896 0 0 0 4.0448-37.9904z m-161.4848-91.5968c0-30.4128 24.7808-55.1936 55.1936-55.1936 30.4128 0 55.1936 24.7808 55.1936 55.1936 0 30.4128-24.7808 55.1936-55.1936 55.1936-30.4128 0-55.1936-24.7808-55.1936-55.1936z" fill="#BD50D3" p-id="2881"></path><path d="M670.2592 293.5296h-32.8192v64.9216a22.5792 22.5792 0 0 1-22.5792 22.5792H361.728a22.5792 22.5792 0 0 1-22.5792-22.5792V293.5296h-32.8192c-32.256 0-58.4192 26.1632-58.4192 58.4192v392.2432c0 32.256 26.1632 58.4192 58.4192 58.4192h285.44c-31.9488-25.3952-52.48-64.5632-52.48-108.544 0-76.4928 62.0032-138.5472 138.5472-138.5472 17.9712 0 35.072 3.4304 50.8416 9.6768V351.9488c0-32.256-26.1632-58.4192-58.4192-58.4192zM563.2 544.768h-46.8992v46.8992c0 14.8992-12.0832 27.0336-27.0336 27.0336-14.8992 0-27.0336-12.0832-27.0336-27.0336v-46.8992h-46.8992c-14.8992 0-27.0336-12.0832-27.0336-27.0336 0-14.8992 12.0832-27.0336 27.0336-27.0336h46.8992v-46.8992c0-14.8992 12.0832-27.0336 27.0336-27.0336 14.8992 0 27.0336 12.0832 27.0336 27.0336v46.8992H563.2c14.8992 0 27.0336 12.0832 27.0336 27.0336-0.0512 14.9504-12.1344 27.0336-27.0336 27.0336z" fill="#BD50D3" p-id="2882"></path><path d="M670.2592 293.5296h-32.8192v64.9216a22.5792 22.5792 0 0 1-22.5792 22.5792H361.728a22.5792 22.5792 0 0 1-22.5792-22.5792V293.5296h-32.8192c-32.256 0-58.4192 26.1632-58.4192 58.4192v392.2432c0 32.256 26.1632 58.4192 58.4192 58.4192h28.6208a410.53696 410.53696 0 0 0 208.2816-75.6736c-2.56-10.5472-3.9424-21.504-3.9424-32.8704 0-76.4928 62.0032-138.5472 138.5472-138.5472 1.3824 0 2.7136 0.0512 4.096 0.1024a411.7504 411.7504 0 0 0 34.1504-164.5056c0-28.8768-2.9696-56.9856-8.6016-84.1728a58.0096 58.0096 0 0 0-37.2224-13.4144zM563.2 544.768h-46.8992v46.8992c0 14.8992-12.0832 27.0336-27.0336 27.0336s-27.0336-12.0832-27.0336-27.0336v-46.8992h-46.8992c-14.8992 0-27.0336-12.0832-27.0336-27.0336 0-14.8992 12.0832-27.0336 27.0336-27.0336h46.8992v-46.8992c0-14.8992 12.0832-27.0336 27.0336-27.0336s27.0336 12.0832 27.0336 27.0336v46.8992H563.2c14.8992 0 27.0336 12.0832 27.0336 27.0336-0.0512 14.9504-12.1344 27.0336-27.0336 27.0336z" fill="#C65EDB" p-id="2883"></path><path d="M568.6272 694.0672c0 4.2496 0.3072 8.3968 0.768 12.544a414.976 414.976 0 0 0 98.1504-121.2416c-55.3984 5.2224-98.9184 51.968-98.9184 108.6976z" fill="#C65EDB" p-id="2884"></path><path d="M602.7776 261.12c-2.2016-0.8704-4.5568-1.3824-7.0656-1.3824h-24.4224c-6.2464-36.608-37.9904-64.4608-76.3904-64.4608s-70.144 27.904-76.3904 64.4608H380.928c-10.496 0-18.9952 8.4992-18.9952 18.9952v52.8896a22.5792 22.5792 0 0 0 22.5792 22.5792h203.8784A416.3584 416.3584 0 0 0 602.7776 261.12z m-107.8784 49.152c-20.6848 0-37.4272-16.7424-37.4272-37.4272s16.7424-37.4272 37.4272-37.4272 37.4272 16.7424 37.4272 37.4272-16.7424 37.4272-37.4272 37.4272z" fill="#CA6EE0" p-id="2885"></path><path d="M462.2336 555.008v-10.24h-46.8992c-14.8992 0-27.0336-12.0832-27.0336-27.0336 0-14.8992 12.0832-27.0336 27.0336-27.0336h46.8992v-46.8992c0-14.8992 12.0832-27.0336 27.0336-27.0336s27.0336 12.0832 27.0336 27.0336v46.8992h5.4272a412.3136 412.3136 0 0 0 58.2656-109.7216H361.728A22.5792 22.5792 0 0 1 339.1488 358.4V293.5296h-32.8192c-32.256 0-58.4192 26.1632-58.4192 58.4192v301.312c81.5104-11.4176 155.3408-46.5408 214.3232-98.2528z" fill="#CA6EE0" p-id="2886"></path><path d="M457.472 272.7936c0-12.8 6.4-24.064 16.1792-30.8224 5.5808-15.0528 10.24-30.5664 14.08-46.3872-35.072 3.2256-63.3344 29.8496-69.1712 64.1536H380.928c-10.496 0-18.9952 8.4992-18.9952 18.9952v52.8896a22.5792 22.5792 0 0 0 22.5792 22.5792h25.9584c18.3808-23.296 34.4064-48.5376 47.5136-75.4688-0.3072-1.9456-0.512-3.8912-0.512-5.9392z" fill="#D786EA" p-id="2887"></path><path d="M387.2768 381.0304h-25.5488a22.5792 22.5792 0 0 1-22.5792-22.5792V293.5296h-32.8192c-32.256 0-58.4192 26.1632-58.4192 58.4192v126.5152c53.1456-22.5792 100.4544-56.0128 139.3664-97.4336z" fill="#D786EA" p-id="2888"></path></svg>