<svg class="icon" style="width: 1em;height: 1em;vertical-align: middle;fill: currentColor;overflow: hidden;" viewBox="0 0 1024 1024" version="1.1" xmlns="http://www.w3.org/2000/svg" p-id="4343"><path d="M512.6656 512.3584m-450.816 0a450.816 450.816 0 1 0 901.632 0 450.816 450.816 0 1 0-901.632 0Z" fill="#FFF1DC" p-id="4344"></path><path d="M502.272 501.2992m-86.2208 0a86.2208 86.2208 0 1 0 172.4416 0 86.2208 86.2208 0 1 0-172.4416 0Z" fill="#FC7032" p-id="4345"></path><path d="M686.7456 225.8944h-348.16c-60.7744 0-110.2848 49.4592-110.2848 110.2848v352.4096c0 60.8256 49.4592 110.2848 110.2848 110.2848h348.16c60.7744 0 110.2848-49.4592 110.2848-110.2848V336.1792c-0.0512-60.8256-49.5104-110.2848-110.2848-110.2848z m-12.9024 448.4096c-4.352 4.3008-9.984 6.4-15.616 6.4a22.1696 22.1696 0 0 1-15.8208-6.6048l-58.368-59.136a139.14112 139.14112 0 0 1-81.7664 26.4704c-77.312 0-140.1856-62.8736-140.1856-140.1344S424.96 361.1136 502.272 361.1136s140.1344 62.8736 140.1344 140.1344c0 30.72-9.984 59.1872-26.8288 82.3296l58.4704 59.2384a22.25152 22.25152 0 0 1-0.2048 31.488z" fill="#FC7032" p-id="4346"></path><path d="M686.7456 225.8944h-348.16c-60.7744 0-110.2848 49.4592-110.2848 110.2848v352.4096c0 60.8256 49.4592 110.2848 110.2848 110.2848h59.5968c97.3312-12.1856 184.9856-55.3984 252.7744-119.4496-3.1232-1.0752-6.0416-2.816-8.4992-5.3248l-58.368-59.136a139.14112 139.14112 0 0 1-81.7664 26.4704C424.96 641.4336 362.0864 578.56 362.0864 501.2992S424.96 361.1136 502.272 361.1136c77.2608 0 140.1344 62.8736 140.1344 140.1344 0 30.72-9.984 59.1872-26.8288 82.3296l58.4704 59.2384c2.2016 2.2528 3.84 4.864 4.9152 7.5776 70.5024-79.5648 113.3568-184.2176 113.3568-298.9056 0-19.3536-1.2288-38.4-3.584-57.1392-16.4864-40.0384-55.9616-68.4544-101.9904-68.4544z" fill="#FF7E3E" p-id="4347"></path><path d="M578.8672 461.9264c-14.336-27.8016-43.264-46.848-76.6464-46.848-47.5648 0-86.2208 38.656-86.2208 86.2208 0 30.72 16.1792 57.6512 40.448 72.9088a452.51072 452.51072 0 0 0 122.4192-112.2816z" fill="#FF7E3E" p-id="4348"></path><path d="M228.3008 336.1792v305.9712c62.8736-1.3824 122.5728-15.616 176.5888-40.2432-26.3168-25.4976-42.752-61.184-42.752-100.6592 0-77.2608 62.8736-140.1344 140.1344-140.1344 43.776 0 82.944 20.224 108.6976 51.7632a448.22016 448.22016 0 0 0 56.7808-186.9824H338.5856c-60.8256 0-110.2848 49.4592-110.2848 110.2848z" fill="#FF9552" p-id="4349"></path><path d="M228.3008 336.1792v129.4336c125.2864-35.584 228.352-124.0576 283.5456-239.7184H338.5856c-60.8256 0-110.2848 49.4592-110.2848 110.2848z" fill="#FFA56A" p-id="4350"></path></svg>