<svg class="icon" style="width: 1em;height: 1em;vertical-align: middle;fill: currentColor;overflow: hidden;" viewBox="0 0 1024 1024" version="1.1" xmlns="http://www.w3.org/2000/svg" p-id="4778"><path d="M511.744 514.7136m-450.816 0a450.816 450.816 0 1 0 901.632 0 450.816 450.816 0 1 0-901.632 0Z" fill="#E3FFF3" p-id="4779"></path><path d="M405.0432 356.4544l154.9824-143.4624c24.9344-23.0912 65.3312-23.296 90.5728-0.4608l100.5056 91.0336c14.9504 13.5168 15.6672 35.584 1.6384 49.9712l-347.6992 2.9184z" fill="#1DCE75" p-id="4780"></path><path d="M293.376 356.1472l94.976-142.0288c16.7936-26.7264 52.3776-37.8368 83.2512-26.0096 23.2448 8.9088 45.0048 17.3056 44.3392 17.3056-1.4336 0-163.6352 150.016-163.6352 150.016l-58.9312 0.7168z" fill="#48E1AA" p-id="4781"></path><path d="M749.6192 402.176H280.1664c-44.9536 0-81.4592 36.4544-81.4592 81.4592v213.0944c0 44.9536 36.4544 81.4592 81.4592 81.4592h469.4528c44.9536 0 81.4592-36.4544 81.4592-81.4592V483.584c-0.0512-44.9536-36.5056-81.408-81.4592-81.408z m-430.7968 237.7216c-27.4944 0-49.7664-22.272-49.7664-49.7664s22.272-49.7664 49.7664-49.7664c27.4944 0 49.7664 22.272 49.7664 49.7664s-22.272 49.7664-49.7664 49.7664z" fill="#05C46D" p-id="4782"></path><path d="M280.1664 402.176c-44.9536 0-81.4592 36.4544-81.4592 81.4592v213.0944c0 44.9536 36.4544 81.4592 81.4592 81.4592h322.6624c108.1344-82.3296 177.9712-212.4288 177.9712-358.8608 0-3.6864-0.0512-7.3216-0.1536-10.9568a81.4592 81.4592 0 0 0-31.0784-6.144H280.1664z m38.656 237.7216c-27.4944 0-49.7664-22.272-49.7664-49.7664s22.272-49.7664 49.7664-49.7664c27.4944 0 49.7664 22.272 49.7664 49.7664s-22.272 49.7664-49.7664 49.7664z" fill="#1DCE75" p-id="4783"></path><path d="M644.1984 354.4064c8.6528-32.3072 13.2608-66.048 13.2608-100.864 0-12.2368-0.6144-24.3712-1.7408-36.352l-5.1712-4.7104c-25.2416-22.8352-65.5872-22.6304-90.5728 0.4608L405.0432 356.4544l239.1552-2.048zM634.3168 402.176H280.1664c-44.9536 0-81.4592 36.4544-81.4592 81.4592v213.0944c0 4.5056 0.4608 8.9088 1.1776 13.2096 2.2528 0.0512 4.5056 0.1024 6.8096 0.1024 198.9632-0.0512 367.8208-128.9728 427.6224-307.8656z m-315.4944 237.7216c-27.4944 0-49.7664-22.272-49.7664-49.7664s22.272-49.7664 49.7664-49.7664c27.4944 0 49.7664 22.272 49.7664 49.7664s-22.272 49.7664-49.7664 49.7664z" fill="#3CD38E" p-id="4784"></path><path d="M454.144 355.9936c24.7808-30.6176 45.1072-64.4608 60.16-100.7616L405.0432 356.4544l49.1008-0.4608zM280.1664 402.176c-44.9536 0-81.4592 36.4544-81.4592 81.4592v54.4256c89.6512-21.504 168.9088-69.7344 228.7616-135.8336H280.1664z" fill="#48E1AA" p-id="4785"></path></svg>