<svg class="icon" style="width: 1em;height: 1em;vertical-align: middle;fill: currentColor;overflow: hidden;" viewBox="0 0 1024 1024" version="1.1" xmlns="http://www.w3.org/2000/svg" p-id="5994"><path d="M511.6928 518.7584m-450.816 0a450.816 450.816 0 1 0 901.632 0 450.816 450.816 0 1 0-901.632 0Z" fill="#E3FFF3" p-id="5995"></path><path d="M528.5888 226.7648c-63.3344-20.48-124.5696 2.7648-166.8096 27.6992-7.424-24.5248-30.4128-41.728-56.6272-38.4-23.6032 2.9696-42.8544 23.1424-45.8752 48.1792-2.6112 21.8624 6.7072 41.6256 21.9648 53.0432v509.696c0 17.6128 12.8 32.9728 29.44 33.536 17.2032 0.5632 31.2832-14.08 31.2832-32.1536v-174.3872c171.5712-113.1008 275.9168-33.9968 348.8256-16.2304 59.4944 14.4896 110.2336-8.7552 129.536-19.6608 5.1712-2.9184 8.3456-8.6528 8.3456-14.848V287.1808c0-12.6464-12.544-20.5312-23.1936-14.9504-85.8624 45.2096-171.6224-11.4176-276.8896-45.4656z m141.1584 180.6848c-25.6-5.7344-59.2896-17.8176-100.4544-42.24-72.3968-42.9056-135.4752-2.56-138.0864-0.8192-13.8752 9.1136-32.2048 4.7104-40.9088-9.984-8.704-14.6432-4.6592-33.9456 9.1136-43.264 3.84-2.56 94.8224-62.6688 198.912-0.9216 36.1472 21.4016 64.2048 31.232 83.8144 35.6352 13.6704 3.072 23.3472 15.9744 23.3472 30.7712-0.0512 19.9168-17.3056 34.9184-35.7376 30.8224z" fill="#05C46D" p-id="5996"></path><path d="M805.4784 272.2304c-85.8624 45.2096-171.6224-11.4176-276.8896-45.5168-63.3344-20.48-124.5696 2.7648-166.8096 27.6992-7.424-24.5248-30.4128-41.728-56.6272-38.4-23.6032 2.9696-42.8544 23.1424-45.8752 48.1792-2.6112 21.8624 6.7072 41.6256 21.9648 53.0432v416c19.8144 3.6864 40.0896 6.144 60.672 7.168v-86.4768c150.3232-99.072 248.9856-50.6368 320.2048-25.1904 93.9008-82.6368 153.1904-203.6736 153.1904-338.5856 0-6.5536-0.1536-13.056-0.4608-19.5584-3.0208-0.4608-6.2976 0-9.3696 1.6384z m-135.7312 135.2192c-25.6-5.7344-59.2896-17.8176-100.4544-42.24-72.3968-42.9056-135.4752-2.56-138.0864-0.8192-13.8752 9.1136-32.2048 4.7104-40.9088-9.984-8.704-14.6432-4.6592-33.9456 9.1136-43.264 3.84-2.56 94.8224-62.6688 198.912-0.9216 36.1472 21.4016 64.2048 31.232 83.8144 35.6352 13.6704 3.072 23.3472 15.9744 23.3472 30.7712-0.0512 19.9168-17.3056 34.9184-35.7376 30.8224z" fill="#1DCE75" p-id="5997"></path><path d="M361.7792 254.4128c-7.424-24.5248-30.4128-41.728-56.6272-38.4-23.6032 2.9696-42.8544 23.1424-45.8752 48.1792-2.6112 21.8624 6.7072 41.6256 21.9648 53.0432v261.8368c136.704-12.032 255.8976-85.0944 330.1888-191.7952a437.38624 437.38624 0 0 1-42.1376-22.1184c-72.3968-42.9056-135.4752-2.56-138.0864-0.8192-13.8752 9.1136-32.2048 4.7104-40.9088-9.984-8.704-14.6432-4.6592-33.9456 9.1136-43.264 3.84-2.56 94.8224-62.6688 198.912-0.9216 16.9472 10.0352 32.0512 17.4592 45.4144 23.04 9.1136-18.0224 17.0496-36.7104 23.7056-56.0128-43.264-13.056-88.832-34.2528-138.8032-50.432-63.3856-20.5312-124.6208 2.7136-166.8608 27.648z" fill="#3CD38E" p-id="5998"></path><path d="M385.792 340.1728c-0.8704-11.264 3.9424-22.5792 13.568-29.0816 1.5872-1.0752 18.7392-12.3904 45.824-20.48 21.4528-21.248 40.7552-44.6976 57.6-69.888-53.9136-8.0384-104.5504 12.1344-141.0048 33.6896-7.424-24.5248-30.4128-41.728-56.6272-38.4-23.6032 2.9696-42.8544 23.1424-45.8752 48.1792-2.6112 21.8624 6.7072 41.6256 21.9648 53.0432v77.2608a447.54944 447.54944 0 0 0 104.5504-54.3232z" fill="#48E1AA" p-id="5999"></path></svg>