<svg class="icon" style="width: 1em;height: 1em;vertical-align: middle;fill: currentColor;overflow: hidden;" viewBox="0 0 1024 1024" version="1.1" xmlns="http://www.w3.org/2000/svg" p-id="4327"><path d="M508.1088 513.1264m-450.816 0a450.816 450.816 0 1 0 901.632 0 450.816 450.816 0 1 0-901.632 0Z" fill="#FFE3DB" p-id="4328"></path><path d="M472.832 486.6048l-6.1952 36.096 32.4096-17.0496a21.2992 21.2992 0 0 1 19.8656 0l32.4096 17.0496-6.1952-36.096c-1.1776-6.912 1.1264-13.9776 6.144-18.8928l26.2144-25.5488-36.2496-5.2736a21.39136 21.39136 0 0 1-16.0768-11.6736l-16.2304-32.8704-16.2304 32.8704a21.39136 21.39136 0 0 1-16.0768 11.6736l-36.2496 5.2736 26.2144 25.5488c5.1712 4.9152 7.424 11.9808 6.2464 18.8928z" fill="#F23D4F" p-id="4329"></path><path d="M675.9424 227.2768h-333.824c-58.3168 0-105.728 47.4112-105.728 105.728v337.92c0 58.3168 47.4112 105.728 105.728 105.728h333.824c58.3168 0 105.728-47.4112 105.728-105.728v-337.92c-0.0512-58.2656-47.4624-105.728-105.728-105.728z m-313.9072 190.464a23.13216 23.13216 0 0 1 18.7904-15.8208l74.1376-10.752 33.1776-67.1744c3.9424-7.936 12.032-13.0048 20.8896-13.0048s16.9472 5.0176 20.8896 13.0048l33.1776 67.1744 74.1376 10.752a23.296 23.296 0 0 1 18.7904 15.8208c2.7648 8.448 0.4608 17.664-5.888 23.8592L596.48 493.8752l12.6464 73.8304c1.4848 8.7552-2.0992 17.5616-9.2672 22.784-4.0448 2.9696-8.8576 4.4544-13.6704 4.4544-3.6864 0-7.424-0.8704-10.8544-2.6624l-66.304-34.8672-66.304 34.8672c-7.8336 4.1472-17.3568 3.4304-24.5248-1.792a23.33184 23.33184 0 0 1-9.2672-22.784l12.6464-73.8304-53.6576-52.2752a23.20384 23.20384 0 0 1-5.888-23.8592z m302.6944 280.7808H353.28c-13.7216 0-24.8832-11.1616-24.8832-24.8832s11.1616-24.8832 24.8832-24.8832h311.3984c13.7216 0 24.8832 11.1616 24.8832 24.8832a24.80128 24.80128 0 0 1-24.832 24.8832z" fill="#F23D4F" p-id="4330"></path><path d="M781.6192 333.0048c0-58.3168-47.4112-105.728-105.728-105.728h-333.824c-58.3168 0-105.728 47.4112-105.728 105.728v337.92c0 52.0192 37.8368 95.2832 87.3984 104.0384 6.144 0.256 12.3392 0.4096 18.5344 0.4096 93.2864 0 179.9168-28.3136 251.8016-76.8512H353.28c-13.7216 0-24.8832-11.1616-24.8832-24.8832s11.1616-24.8832 24.8832-24.8832h302.1824c61.6448-59.5456 106.3424-136.4992 126.208-222.9248V333.0048z m-131.5328 108.5952l-53.6576 52.2752 12.6464 73.8304c1.4848 8.7552-2.0992 17.5616-9.2672 22.784-4.0448 2.9696-8.8576 4.4544-13.6704 4.4544-3.6864 0-7.424-0.8704-10.8544-2.6624l-66.304-34.8672-66.304 34.8672c-7.8336 4.1472-17.3568 3.4304-24.5248-1.792a23.33184 23.33184 0 0 1-9.2672-22.784l12.6464-73.8304-53.6064-52.2752a23.22944 23.22944 0 0 1-5.888-23.8592 23.13216 23.13216 0 0 1 18.7904-15.8208l74.1376-10.752 33.1776-67.1744a23.3728 23.3728 0 0 1 20.8896-13.0048c8.8576 0 16.9472 5.0176 20.8896 13.0048l33.1776 67.1744 74.1376 10.752a23.296 23.296 0 0 1 18.7904 15.8208c2.7136 8.448 0.4096 17.664-5.9392 23.8592z" fill="#FC4956" p-id="4331"></path><path d="M408.6784 573.4912c-0.1536-1.8944-0.1024-3.7888 0.2048-5.7344l12.6464-73.8304-53.6064-52.3264a23.22944 23.22944 0 0 1-5.888-23.8592 23.13216 23.13216 0 0 1 18.7904-15.8208l74.1376-10.752 33.1776-67.1744a23.3728 23.3728 0 0 1 20.8896-13.0048c8.8576 0 16.9472 5.0176 20.8896 13.0048l33.1776 67.1744 42.0352 6.0928a448.34816 448.34816 0 0 0 60.3136-169.9328H342.0672c-58.3168 0-105.728 47.4112-105.728 105.728v281.856a449.42336 449.42336 0 0 0 172.3392-41.4208z" fill="#FF5C64" p-id="4332"></path><path d="M497.7664 227.2768H342.0672c-58.3168 0-105.728 47.4112-105.728 105.728v103.424c111.616-33.792 204.9024-109.6704 261.4272-209.152z" fill="#FF716E" p-id="4333"></path></svg>