<svg class="icon" style="width: 1em;height: 1em;vertical-align: middle;fill: currentColor;overflow: hidden;" viewBox="0 0 1024 1024" version="1.1" xmlns="http://www.w3.org/2000/svg" p-id="2126"><path d="M504.32 513.1264m-450.816 0a450.816 450.816 0 1 0 901.632 0 450.816 450.816 0 1 0-901.632 0Z" fill="#E9F4FF" p-id="2127"></path><path d="M767.0272 515.84H525.824c-18.176 0-32.9216-14.7456-32.9216-32.9216V241.7152c0-12.2368-10.4448-21.8624-22.6816-20.9408-157.3888 11.9296-280.4224 146.9952-272.9472 309.0432 6.9632 151.6032 130.048 274.688 281.6512 281.6512 162.0992 7.4752 297.1648-115.5584 309.0432-272.9472 0.9216-12.2368-8.704-22.6816-20.9408-22.6816z" fill="#2595E8" p-id="2128"></path><path d="M541.7984 466.0224h267.9296c12.288 0 21.9136-10.496 20.9408-22.784-11.008-141.8752-124.2624-255.1296-266.1376-266.1376-12.2368-0.9728-22.784 8.6528-22.784 20.9408v267.9808z" fill="#2595E8" p-id="2129"></path><path d="M564.5312 177.1008c-12.2368-0.9728-22.784 8.6528-22.784 20.9408v267.9296h215.808a423.7056 423.7056 0 0 0 23.1936-138.5984c0-8.9088-0.3072-17.7152-0.8704-26.5216-48.2304-69.4272-126.1056-116.7872-215.3472-123.7504z" fill="#3A9CED" p-id="2130"></path><path d="M732.8256 515.84H525.824c-18.176 0-32.9216-14.7456-32.9216-32.9216V241.664c0-12.2368-10.4448-21.8624-22.6816-20.9408-157.3888 11.9296-280.4224 146.9952-272.9472 309.0432 4.4032 95.3856 54.7328 179.456 129.2288 230.4 7.2192 0.3584 14.4896 0.5632 21.8624 0.5632 170.1888 0.0512 316.928-100.1984 384.4608-244.8896z" fill="#3A9CED" p-id="2131"></path><path d="M564.5312 177.1008c-12.2368-0.9728-22.784 8.6528-22.784 20.9408v267.9296h9.0112c65.0752-69.7856 106.9056-161.4848 113.1008-262.8608a289.39776 289.39776 0 0 0-99.328-26.0096zM492.9024 482.8672V241.664c0-12.2368-10.4448-21.8624-22.6816-20.9408-157.3888 11.9296-280.4224 146.9952-272.9472 309.0432 1.28 27.7504 6.5024 54.528 15.0016 79.872 6.656 0.3072 13.312 0.4608 20.0192 0.4608 104.5504 0 200.2944-37.888 274.2272-100.608a32.70144 32.70144 0 0 1-13.6192-26.624z" fill="#59ADF8" p-id="2132"></path><path d="M203.7248 452.864C327.2704 429.824 431.9744 353.28 492.9024 248.1664V241.664c0-12.2368-10.4448-21.8624-22.6816-20.9408-131.6352 9.984-239.1552 106.0864-266.496 232.1408z" fill="#6BC2FC" p-id="2133"></path></svg>