<svg class="icon" style="width: 1em;height: 1em;vertical-align: middle;fill: currentColor;overflow: hidden;" viewBox="0 0 1024 1024" version="1.1" xmlns="http://www.w3.org/2000/svg" p-id="6549"><path d="M512.768 520.96m-450.816 0a450.816 450.816 0 1 0 901.632 0 450.816 450.816 0 1 0-901.632 0Z" fill="#E9ECFF" p-id="6550"></path><path d="M260.4032 363.1616c14.6944 0 26.5728 11.8784 26.5728 26.5216v271.9744c0 51.3536 41.6256 92.9792 92.9792 92.9792h272.3328c14.7968 0 26.8288 11.9808 26.8288 26.8288a26.7776 26.7776 0 0 1-26.6752 26.7776c-69.4784 0.256-180.3264 0.6144-279.5008 0.6144-63.4368 0-138.9568-43.6736-138.9568-137.5232 0-100.0448-0.0512-212.3264-0.0512-281.7536 0-14.592 11.8272-26.4192 26.4704-26.4192z" fill="#6C6CEA" p-id="6551"></path><path d="M730.9312 251.2896c-54.272-0.1536-108.4928-0.0512-162.7648-0.0512-54.8352 0-109.6192-0.2048-164.4544 0.0512-36.3008 0.1536-58.368 22.272-58.4192 58.88-0.2048 109.056-0.2048 218.1632 0 327.2192 0.0512 37.1712 22.5792 60.0576 59.4432 60.1088 109.056 0.2048 218.1632 0.2048 327.2192 0 37.632-0.0512 59.4944-21.9136 59.5968-59.4432 0.1536-109.056 0.1536-218.1632 0-327.2192-0.1024-38.7584-21.248-59.4432-60.6208-59.5456z m-50.7392 138.2912h-83.0976c0 53.1456 0.512 102.9632-0.1536 152.7296-0.6144 47.616-41.8304 80.9472-85.4528 70.0928-40.5504-10.1376-63.7952-49.664-52.1728-88.7808 11.3152-38.0416 52.3776-58.5216 91.2896-45.3632 1.3824 0.4608 2.7648 0.9728 4.1984 1.4848V335.5136h125.3888v54.0672z" fill="#6C6CEA" p-id="6552"></path><path d="M791.5008 310.8864c-0.0512-38.8096-21.1968-59.4944-60.5696-59.5968-54.272-0.1536-108.4928-0.0512-162.7648-0.0512-54.8352 0-109.6192-0.2048-164.4544 0.0512-36.3008 0.1536-58.368 22.272-58.4192 58.88-0.2048 109.056-0.2048 218.1632 0 327.2192 0.0512 37.1712 22.5792 60.0576 59.4432 60.1088 75.3152 0.1536 150.6304 0.1536 225.9456 0.1024 82.8928-64.256 141.7216-158.0032 160.8704-265.5232-0.1024-40.3456 0-80.7936-0.0512-121.1904z m-111.3088 78.6944h-83.0976c0 53.1456 0.512 102.9632-0.1536 152.7296-0.6144 47.616-41.8304 80.9472-85.4528 70.0928-40.5504-10.1376-63.7952-49.664-52.1728-88.7808 11.3152-38.0416 52.3776-58.5216 91.2896-45.3632 1.3824 0.4608 2.7648 0.9728 4.1984 1.4848V335.5136h125.3888v54.0672z" fill="#757BF2" p-id="6553"></path><path d="M379.9552 754.6368c-51.3536 0-92.9792-41.6256-92.9792-92.9792V389.6832c0-14.6432-11.8784-26.5216-26.5216-26.5216h-0.0512c-14.6432 0-26.4704 11.8272-26.4704 26.4704 0 69.4272 0.0512 181.7088 0.0512 281.7536 0 50.8416 22.1696 86.9376 52.5312 109.3632 25.8048 4.8128 52.4288 7.424 79.616 7.424 59.1872 0 115.6096-11.9296 167.0144-33.4848H379.9552z" fill="#757BF2" p-id="6554"></path><path d="M459.3664 523.5712c11.3152-38.0416 52.3776-58.5216 91.2896-45.3632 1.3824 0.4608 2.7648 0.9728 4.1984 1.4848V335.5136h104.2944a425.45152 425.45152 0 0 0 18.1248-84.2752h-109.1072c-54.8352 0-109.6192-0.2048-164.4544 0.0512-36.3008 0.1536-58.368 22.272-58.4192 58.88-0.2048 104.448-0.2048 208.896 0 313.2928a429.2608 429.2608 0 0 0 119.3472-47.1552c-8.3968-15.5136-10.8032-34.1504-5.2736-52.736z" fill="#8486F8" p-id="6555"></path><path d="M597.0944 389.5808c0 22.9888 0.1024 45.2608 0.1536 67.2768 15.36-21.0944 28.928-43.52 40.3456-67.2768h-40.4992zM286.976 632.832V389.6832c0-14.6432-11.8784-26.5216-26.5216-26.5216h-0.0512c-14.6432 0-26.4704 11.8272-26.4704 26.4704 0 60.9792 0.0512 154.9824 0.0512 244.736 4.6592 0.1536 9.2672 0.3584 13.9776 0.3584 13.1072-0.0512 26.112-0.768 39.0144-1.8944z" fill="#8486F8" p-id="6556"></path><path d="M521.4208 251.2384c-39.2192-0.0512-78.4896-0.0512-117.7088 0.1024-36.3008 0.1536-58.368 22.272-58.4192 58.88-0.0512 39.7824-0.1024 79.5648-0.1024 119.3472 74.9056-40.6528 136.3456-102.912 176.2304-178.3296zM286.976 389.6832c0-14.6432-11.8784-26.5216-26.5216-26.5216h-0.0512c-14.6432 0-26.4704 11.8272-26.4704 26.4704v81.6128c18.1248-4.0448 35.84-9.1648 53.0432-15.4112V389.6832z" fill="#8D92F8" p-id="6557"></path></svg>