<svg class="icon" style="width: 1em;height: 1em;vertical-align: middle;fill: currentColor;overflow: hidden;" viewBox="0 0 1024 1024" version="1.1" xmlns="http://www.w3.org/2000/svg" p-id="6519"><path d="M511.2832 520.96m-450.816 0a450.816 450.816 0 1 0 901.632 0 450.816 450.816 0 1 0-901.632 0Z" fill="#FBE1FF" p-id="6520"></path><path d="M394.0864 333.7728l-221.8496 219.904c-26.7264 26.7264-26.7264 70.0416 0 96.7168l195.072 195.072c26.7264 26.7264 70.0416 26.7264 96.7168 0l221.8496-219.904-291.7888-291.7888z m16.384 161.4336l-122.3168 120.3712c-7.0144 7.0144-16.1792 10.496-25.344 10.496s-18.3296-3.4816-25.344-10.496a35.87584 35.87584 0 0 1 0-50.688l122.3168-120.3712a35.87584 35.87584 0 0 1 50.688 0c13.9776 13.9776 13.9776 36.6592 0 50.688zM759.4496 311.7056l20.6848-22.528a35.80416 35.80416 0 0 0-2.1504-50.6368 35.80416 35.80416 0 0 0-50.6368 2.1504l-19.0976 20.7872c-83.2-57.344-163.4816-13.568-194.2528 7.9872l-15.4624-15.3088c-14.08-13.9264-36.7616-13.7728-50.688 0.256-13.9264 14.08-13.7728 36.7616 0.256 50.688l267.6736 264.704a35.61984 35.61984 0 0 0 25.1904 10.3424c9.216 0 18.4832-3.5328 25.4976-10.6496 13.9264-14.08 13.7728-36.7616-0.256-50.688l-18.176-17.9712c23.7056-32.6144 66.8672-110.592 11.4176-189.1328z" fill="#BD50D3" p-id="6521"></path><path d="M513.9968 269.4656l-15.4624-15.3088c-14.08-13.9264-36.7616-13.7728-50.688 0.256-13.9264 14.08-13.7728 36.7616 0.256 50.688l238.848 236.2368c14.3872-37.8368 22.272-78.848 22.272-121.7536 0-66.816-19.1488-129.1776-52.1728-181.9136-63.2832-16.2304-118.6816 14.6944-143.0528 31.7952zM658.9952 598.6304L394.0864 333.7728l-221.8496 219.904c-26.7264 26.7264-26.7264 70.0416 0 96.7168l99.328 99.328a343.89504 343.89504 0 0 0 94.4128 13.2608c124.0064-0.0512 232.6528-65.792 293.0176-164.352z m-248.5248-103.424l-122.3168 120.3712c-7.0144 7.0144-16.1792 10.496-25.344 10.496s-18.3296-3.4816-25.344-10.496a35.87584 35.87584 0 0 1 0-50.688l122.3168-120.3712a35.87584 35.87584 0 0 1 50.688 0c13.9776 13.9776 13.9776 36.6592 0 50.688z" fill="#C65EDB" p-id="6522"></path><path d="M615.3728 297.728c0-21.9648-2.1504-43.3664-6.0928-64.1536-42.4448 3.1744-77.312 23.296-95.2832 35.8912l-15.4624-15.3088c-14.08-13.9264-36.7616-13.7728-50.688 0.256-13.9264 14.08-13.7728 36.7616 0.256 50.688l136.3456 134.8608a341.11488 341.11488 0 0 0 30.9248-142.2336zM553.9328 493.6192L394.0864 333.7728l-221.8496 219.904c-18.0736 18.0736-23.9104 43.776-17.4592 66.816 36.608 13.312 76.0832 20.5824 117.2992 20.5824 116.7872-0.0512 219.8528-58.4192 281.856-147.456z m-316.5184 121.9584a35.87584 35.87584 0 0 1 0-50.688l122.3168-120.3712a35.87584 35.87584 0 0 1 50.688 0 35.87584 35.87584 0 0 1 0 50.688l-122.3168 120.3712c-7.0144 7.0144-16.1792 10.496-25.344 10.496s-18.3296-3.4816-25.344-10.496z" fill="#CA6EE0" p-id="6523"></path><path d="M513.9968 269.4656l-15.4624-15.3088c-14.08-13.9264-36.7616-13.7728-50.688 0.256-13.9264 14.08-13.7728 36.7616 0.256 50.688l37.888 37.4784c13.0048-23.4496 23.3472-48.5376 30.6176-74.9568-0.8704 0.6656-1.792 1.2288-2.6112 1.8432zM394.0864 333.7728l-186.6752 185.0368c34.2528-2.1504 67.1232-9.2672 97.8944-20.6848l54.4256-53.5552a35.82464 35.82464 0 0 1 45.4144-4.3008c17.3056-14.3872 33.1776-30.5152 47.36-48.0256L394.0864 333.7728z" fill="#D786EA" p-id="6524"></path></svg>