<svg class="icon" style="width: 1em;height: 1em;vertical-align: middle;fill: currentColor;overflow: hidden;" viewBox="0 0 1024 1024" version="1.1" xmlns="http://www.w3.org/2000/svg" p-id="2696"><path d="M509.1328 519.8336m-450.816 0a450.816 450.816 0 1 0 901.632 0 450.816 450.816 0 1 0-901.632 0Z" fill="#E9F4FF" p-id="2697"></path><path d="M791.7056 441.2416H651.264l53.8624-107.6736h50.5856c16.9472 0 30.72-13.7728 30.72-30.72s-13.7728-30.72-30.72-30.72h-69.5296c-11.6224 0-22.272 6.5536-27.4944 16.9984L583.168 440.064c-0.2048 0.4096-0.3584 0.768-0.512 1.1776H228.9152c0 155.392 125.952 281.3952 281.3952 281.3952 155.392 0 281.3952-126.0032 281.3952-281.3952z" fill="#2595E8" p-id="2698"></path><path d="M361.5744 197.12C239.8208 272.4864 228.1472 407.6544 228.1472 407.6544h262.6048c0.0512 0-42.4448-73.728-129.1776-210.5344z" fill="#59ADF8" p-id="2699"></path><path d="M340.0192 717.9264c-27.1872 0-49.2032 22.016-49.2032 49.2032s22.016 49.2032 49.2032 49.2032 49.2032-22.016 49.2032-49.2032-22.0672-49.2032-49.2032-49.2032zM686.0288 717.9264c-27.1872 0-49.2032 22.016-49.2032 49.2032s22.016 49.2032 49.2032 49.2032 49.2032-22.016 49.2032-49.2032-22.016-49.2032-49.2032-49.2032z" fill="#2595E8" p-id="2700"></path><path d="M725.3504 441.2416H651.264l53.8624-107.6736h40.2432c0.4096-7.8336 0.6656-15.7184 0.6656-23.6544 0-12.7488-0.6656-25.344-1.7408-37.7856h-58.1632c-11.6224 0-22.272 6.5536-27.4944 16.9984L583.168 440.064c-0.2048 0.4096-0.3584 0.768-0.512 1.1776H228.9152c0 134.5536 94.464 246.9888 220.672 274.7392 130.5088-41.6768 233.6256-144.4864 275.7632-274.7392zM302.1312 735.744c5.888 0.256 11.776 0.4608 17.664 0.4608 18.688 0 37.0688-1.3312 55.1424-3.6864a49.03936 49.03936 0 0 0-34.9696-14.592c-15.2064 0-28.8256 6.912-37.8368 17.8176z" fill="#3A9CED" p-id="2701"></path><path d="M522.0864 441.2416H228.9152c0 50.5344 13.4144 97.9456 36.7616 138.9568 101.5808-14.8992 191.3856-65.6384 256.4096-138.9568z" fill="#59ADF8" p-id="2702"></path><path d="M361.5744 197.12C239.8208 272.4864 228.1472 407.6544 228.1472 407.6544h15.5648c67.8912-25.088 127.5904-67.0208 174.1312-120.6784-16.0256-26.0096-34.7648-55.9616-56.2688-89.856z" fill="#6BC2FC" p-id="2703"></path></svg>