<svg class="icon" style="width: 1em;height: 1em;vertical-align: middle;fill: currentColor;overflow: hidden;" viewBox="0 0 1024 1024" version="1.1" xmlns="http://www.w3.org/2000/svg" p-id="2681"><path d="M510.3104 514.7136m-450.816 0a450.816 450.816 0 1 0 901.632 0 450.816 450.816 0 1 0-901.632 0Z" fill="#E3FFF3" p-id="2682"></path><path d="M791.3472 551.0144c-4.7616-111.0016-101.0688-227.6352-242.5344-156.6208-4.4544-57.2416 28.8256-96.9728 53.3504-118.1696a42.26048 42.26048 0 0 0 11.008-49.1008c-11.264-25.4464-43.6736-33.3312-65.28-15.7184-20.5312 16.7424-43.1104 38.5536-55.7056 61.3376-22.016-40.6528-75.264-90.8288-200.7552-55.0912 5.4272 94.2592 110.08 132.096 180.0704 116.3776-2.816 16.7424-3.9936 35.4304-3.0208 56.4736-26.9312-11.6736-66.304-21.3504-117.7088-14.5408-105.1648 13.9776-127.232 148.5824-120.6272 216.9856 6.6048 68.4032 80.1792 251.5456 282.4192 251.5456s283.904-172.9024 278.784-293.4784zM381.8496 488.6528c-1.4336 2.3552-27.8528 47.0016-14.6944 111.9232 3.2768 16.0256-4.4544 32.8192-19.3536 39.5776-4.864 2.2016-9.8816 3.2256-14.7968 3.2256-16.2304 0-30.7712-11.3664-34.2016-27.904-19.5584-94.464 22.0672-161.3312 23.8592-164.1472 10.3424-16.2816 32-21.0944 48.2816-10.752a34.94912 34.94912 0 0 1 10.9056 48.0768z" fill="#05C46D" p-id="2683"></path><path d="M774.4512 476.8768c-33.9456-80.128-116.2752-137.4208-225.6896-82.4832-4.4544-57.2416 28.8256-96.9728 53.3504-118.1696a42.26048 42.26048 0 0 0 11.008-49.1008c-11.264-25.4464-43.6736-33.3312-65.28-15.7184-20.5312 16.7424-43.1104 38.5536-55.7056 61.3376-22.0672-40.6528-75.264-90.8288-200.8064-55.0912 5.4272 94.2592 110.08 132.096 180.0704 116.3776-2.816 16.7424-3.9936 35.4304-3.0208 56.4736-26.9312-11.6736-66.304-21.3504-117.7088-14.5408-105.1648 13.9776-127.232 148.5824-120.6272 216.9856 4.352 45.2096 38.0928 140.5952 118.8352 200.0384 9.984 0.7168 20.0192 1.2288 30.208 1.2288 193.6384 0 355.328-135.8336 395.3664-317.3376z m-392.6016 11.776c-1.4336 2.3552-27.8528 47.0016-14.6432 111.9232 3.2768 16.0256-4.4544 32.8192-19.3536 39.5776-4.864 2.2016-9.8816 3.2256-14.7968 3.2256-16.2304 0-30.7712-11.3664-34.2016-27.904-19.5584-94.464 22.0672-161.3312 23.8592-164.1472 10.3424-16.2816 32-21.0944 48.2816-10.752a34.97984 34.97984 0 0 1 10.8544 48.0768z" fill="#1DCE75" p-id="2684"></path><path d="M652.3392 374.1696c-30.6688-4.3008-65.4336 1.1264-103.5264 20.224-4.4544-57.2416 28.8256-96.9728 53.3504-118.1696a42.26048 42.26048 0 0 0 11.008-49.1008c-11.264-25.4464-43.6736-33.3312-65.28-15.7184-20.5312 16.7424-43.1104 38.5536-55.7056 61.3376-22.0672-40.6528-75.264-90.8288-200.8064-55.0912 5.4272 94.2592 110.08 132.096 180.0704 116.3776-2.816 16.7424-3.9936 35.4304-3.0208 56.4736-26.9312-11.6736-66.304-21.3504-117.7088-14.5408-105.1648 13.9776-127.232 148.5824-120.6272 216.9856 1.4336 14.6432 5.9392 34.5088 14.08 56.7296 8.0384 0.4608 16.0768 0.768 24.2176 0.768 178.6368-0.0512 330.1888-115.7632 383.9488-276.2752zM381.8496 488.6528c-1.4336 2.3552-27.8528 47.0016-14.6432 111.9232 3.2768 16.0256-4.4544 32.8192-19.3536 39.5776-4.864 2.2016-9.8816 3.2256-14.7968 3.2256-16.2304 0-30.7712-11.3664-34.2016-27.904-19.5584-94.464 22.0672-161.3312 23.8592-164.1472 10.3424-16.2816 32-21.0944 48.2816-10.752a34.97984 34.97984 0 0 1 10.8544 48.0768z" fill="#3CD38E" p-id="2685"></path><path d="M455.7824 385.536c-26.0608-9.216-61.184-15.4112-105.0112-9.5744-66.8672 8.9088-100.1472 66.56-113.7664 124.9792 24.6784-4.352 48.64-10.8544 71.5776-19.4048 6.8096-18.2784 13.5168-29.0816 14.1824-30.1568 10.3424-16.2816 32-21.0944 48.2816-10.752 2.9184 1.8432 5.4784 4.096 7.6288 6.6048 28.16-17.4592 54.016-38.1952 77.1072-61.696zM547.84 211.4048c-20.5312 16.7424-43.1104 38.5536-55.7056 61.3376-22.0672-40.6528-75.264-90.8288-200.8064-55.0912 5.4272 94.2592 110.08 132.096 180.0704 116.3776-1.9456 11.7248-3.072 24.5248-3.2768 38.2976a403.6608 403.6608 0 0 0 90.0096-167.0656c-3.5328 1.4848-7.0144 3.4816-10.2912 6.144z" fill="#48E1AA" p-id="2686"></path></svg>