<svg class="icon" style="width: 1em;height: 1em;vertical-align: middle;fill: currentColor;overflow: hidden;" viewBox="0 0 1024 1024" version="1.1" xmlns="http://www.w3.org/2000/svg" p-id="4763"><path d="M509.9008 513.1264m-450.816 0a450.816 450.816 0 1 0 901.632 0 450.816 450.816 0 1 0-901.632 0Z" fill="#FFF1DC" p-id="4764"></path><path d="M801.792 397.7728c-11.4688 0-21.8624 4.7104-29.3376 12.3392-16.2816-43.52-32.5632-87.0912-48.9472-130.6112-10.24-27.2384-29.5936-40.6528-58.5728-40.704-103.6288-0.0512-207.2576-0.0512-310.8864 0-28.8768 0-48.384 13.6192-58.5728 40.7552-16.3328 43.52-32.6144 86.9888-48.9472 130.5088a41.0368 41.0368 0 0 0-29.2864-12.3392 41.0624 41.0624 0 0 0-41.0624 41.0624v31.5904a41.0624 41.0624 0 0 0 49.5104 40.192c-0.0512 75.008-0.1024 149.9648-0.0512 224.9728 0 15.36 9.3184 24.576 24.6272 24.7296 13.6704 0.1024 27.3408 0.1024 41.0112 0 15.7696-0.1024 24.7808-9.2672 24.9344-25.1392 0.0512-10.1376 0-20.2752 0-30.976h385.8944c0.3072 0.9728 0.512 1.4336 0.512 1.8944 0.0512 9.9328 0 19.8656 0.1536 29.7984 0.2048 14.8992 9.3696 24.2176 24.2176 24.3712 13.1584 0.1536 26.3168 0.0512 39.5264 0.0512 18.2272-0.0512 26.8288-8.6528 26.8288-26.9824 0-74.24 0-148.48-0.0512-222.72 2.7136 0.5632 5.5808 0.8704 8.4992 0.8704a41.0624 41.0624 0 0 0 41.0624-41.0624V438.784c0-22.6304-18.3808-41.0112-41.0624-41.0112z m-451.328 226.9184c-24.4224 0.0512-45.6192-20.992-45.824-45.5168-0.256-24.6784 21.4528-46.0288 46.336-45.6704 25.3952 0.3584 45.056 20.4288 44.9536 45.7728-0.1536 25.2928-20.224 45.3632-45.4656 45.4144z m318.208 0c-24.8832-0.0512-45.4656-20.6848-45.4656-45.568-0.0512-25.088 20.1216-45.4144 45.312-45.6192 24.5248-0.2048 45.8752 20.9408 45.9776 45.4144 0 24.32-21.504 45.824-45.824 45.7728zM286.1568 465.3568c7.4752-19.9168 14.592-38.912 21.76-57.9072 13.1584-35.0208 26.5216-69.9904 39.424-105.1648 2.0992-5.6832 4.7104-7.3216 10.6496-7.3216 101.12 0.2048 202.24 0.1536 303.4112 0.0512 4.9152 0 7.9872 0.6144 10.0352 6.0416 19.3536 52.5824 39.0656 105.0112 58.6752 157.4912 0.768 2.048 1.28 4.1472 2.0992 6.7584-148.6848 0.0512-296.704 0.0512-446.0544 0.0512z" fill="#FC7032" p-id="4765"></path><path d="M772.5056 410.112c-16.2816-43.52-32.5632-87.0912-48.9472-130.6112-10.24-27.2384-29.5936-40.6528-58.5728-40.704-103.6288-0.0512-207.2576-0.0512-310.8864 0-28.8768 0-48.384 13.6192-58.5728 40.7552-16.3328 43.52-32.6656 86.9888-48.9472 130.5088a41.0368 41.0368 0 0 0-29.2864-12.3392 41.0624 41.0624 0 0 0-41.0624 41.0624v31.5904a41.0624 41.0624 0 0 0 49.5104 40.192c-0.0512 75.008-0.1024 149.9648-0.0512 224.9728 0 15.36 9.3184 24.576 24.6272 24.7296 13.6704 0.1024 27.3408 0.1024 41.0112 0 15.7696-0.1024 24.7808-9.2672 24.9344-25.1392 0.0512-10.1376 0-20.2752 0-30.976h291.84c99.1744-70.2976 168.704-179.6608 186.1632-305.664a41.12896 41.12896 0 0 0-21.76 11.6224z m-422.0416 214.5792c-24.4224 0.0512-45.6192-20.992-45.824-45.5168-0.256-24.6784 21.4528-46.0288 46.336-45.6704 25.3952 0.3584 45.056 20.4288 44.9536 45.7728-0.1536 25.2928-20.224 45.3632-45.4656 45.4144z m318.208 0c-24.8832-0.0512-45.4656-20.6848-45.4656-45.568-0.0512-25.088 20.1216-45.4144 45.312-45.6192 24.5248-0.2048 45.8752 20.9408 45.9776 45.4144 0 24.32-21.504 45.824-45.824 45.7728zM286.1568 465.3568c7.4752-19.9168 14.592-38.912 21.76-57.9072 13.1584-35.0208 26.5216-69.9904 39.424-105.1648 2.0992-5.6832 4.7104-7.3216 10.6496-7.3216 101.12 0.2048 202.24 0.1536 303.4112 0.0512 4.9152 0 7.9872 0.6144 10.0352 6.0416 19.3536 52.5824 39.0656 105.0112 58.6752 157.4912 0.768 2.048 1.28 4.1472 2.0992 6.7584-148.6848 0.0512-296.704 0.0512-446.0544 0.0512z" fill="#FF7E3E" p-id="4766"></path><path d="M307.9168 407.4496c13.1584-35.0208 26.5216-69.9904 39.424-105.1648 2.0992-5.6832 4.7104-7.3216 10.6496-7.3216 100.4544 0.2048 200.9088 0.1536 301.3632 0.0512a449.7408 449.7408 0 0 0 11.52-55.9616c-1.8944-0.1536-3.84-0.2048-5.888-0.2048-103.6288-0.0512-207.2576-0.0512-310.8864 0-28.8768 0-48.384 13.6192-58.5728 40.7552-16.3328 43.52-32.6656 86.9888-48.9472 130.5088a41.0368 41.0368 0 0 0-29.2864-12.3392 41.0624 41.0624 0 0 0-41.0624 41.0624v31.5904a41.0624 41.0624 0 0 0 49.5104 40.192c-0.0512 38.7072 0 77.4656 0 116.1728 33.7408-0.1024 66.6112-3.8912 98.2016-11.008-11.4176-8.3968-19.2-21.8624-19.3024-36.608-0.256-24.6784 21.4528-46.0288 46.336-45.6704 25.3952 0.3584 45.056 20.4288 44.9536 45.7728 0 5.1712-0.9216 10.1376-2.5088 14.7968 69.0688-27.9552 129.5872-72.4992 176.6912-128.6656H286.1568c7.4752-19.968 14.592-38.9632 21.76-57.9584z" fill="#FF9552" p-id="4767"></path><path d="M301.2096 425.2672c2.2528-5.9392 4.4544-11.9296 6.7072-17.8176 13.1584-35.0208 26.5216-69.9904 39.424-105.1648 2.0992-5.6832 4.7104-7.3216 10.6496-7.3216 35.84 0.0512 71.68 0.1024 107.52 0.1024 13.9264-17.7152 26.5728-36.5056 37.7856-56.2176H354.1504c-28.8768 0-48.384 13.6192-58.5728 40.7552-16.3328 43.52-32.6656 86.9888-48.9472 130.5088a41.0368 41.0368 0 0 0-29.2864-12.3392 41.0624 41.0624 0 0 0-41.0624 41.0624v23.7056a446.08512 446.08512 0 0 0 124.928-37.2736z" fill="#FFA56A" p-id="4768"></path></svg>