<svg class="icon" style="width: 1em;height: 1em;vertical-align: middle;fill: currentColor;overflow: hidden;" viewBox="0 0 1024 1024" version="1.1" xmlns="http://www.w3.org/2000/svg" p-id="3284"><path d="M510.208 509.7984m-450.816 0a450.816 450.816 0 1 0 901.632 0 450.816 450.816 0 1 0-901.632 0Z" fill="#E3FFF3" p-id="3285"></path><path d="M791.9104 435.0464h-12.9536V334.592c0-55.04-42.24-100.1984-96.1024-104.8576v-1.28c0-15.36-12.4416-27.8016-27.8016-27.8016H365.4144c-15.36 0-27.8016 12.4416-27.8016 27.8016v1.28c-53.8624 4.6592-96.1024 49.8176-96.1024 104.8576v100.4544H223.744c-12.4928 0-22.6304 10.1376-22.6304 22.6304v57.088c0 12.4928 10.1376 22.6304 22.6304 22.6304h17.7664v130.816c0 28.9792 11.6736 55.1936 30.6176 74.1888v40.0896c0 20.1216 16.3328 36.4032 36.4032 36.4032h41.0112c20.1216 0 36.4032-16.2816 36.4032-36.4032v-9.0112h250.9824v9.0112c0 20.1216 16.2816 36.4032 36.4032 36.4032h41.0112c20.1216 0 36.4032-16.2816 36.4032-36.4032v-42.6496c17.4592-18.7904 28.16-43.9808 28.16-71.6288v-130.816h12.9536c12.4928 0 22.6304-10.1376 22.6304-22.6304V457.6256c0.0512-12.4928-10.0864-22.5792-22.5792-22.5792z m-434.7392 257.6384c-26.368 0-47.7696-21.4016-47.7696-47.7696s21.4016-47.7696 47.7696-47.7696 47.7696 21.4016 47.7696 47.7696-21.4016 47.7696-47.7696 47.7696z m305.7152 0c-26.368 0-47.7696-21.4016-47.7696-47.7696s21.4016-47.7696 47.7696-47.7696 47.7696 21.4016 47.7696 47.7696-21.4016 47.7696-47.7696 47.7696z m48.7424-182.8864H308.8384V361.1648c0-15.36 12.4416-27.8016 27.8016-27.8016h347.2384c15.36 0 27.8016 12.4416 27.8016 27.8016v148.6336z" fill="#05C46D" p-id="3286"></path><path d="M778.9568 334.592c0-55.04-42.24-100.1984-96.1024-104.8576v-1.28c0-15.36-12.4416-27.8016-27.8016-27.8016H365.4144c-15.36 0-27.8016 12.4416-27.8016 27.8016v1.28c-53.8624 4.6592-96.1024 49.8176-96.1024 104.8576v100.4544H223.744c-12.4928 0-22.6304 10.1376-22.6304 22.6304v57.088c0 12.4928 10.1376 22.6304 22.6304 22.6304h17.7664v130.816c0 28.9792 11.6736 55.1936 30.6176 74.1888v40.0896c0 3.328 0.512 6.5536 1.3312 9.6256 18.5344 2.304 37.4272 3.5328 56.576 3.5328 18.4832 0 36.6592-1.1264 54.528-3.2768 0.8704-3.1232 1.3824-6.4512 1.3824-9.8816v-9.0112h84.0192a450.08384 450.08384 0 0 0 161.0752-93.0816 47.616 47.616 0 0 1-15.872-35.4816c0-26.368 21.4016-47.7696 47.7696-47.7696 12.3392 0 23.552 4.7104 32 12.3904 46.4384-63.9488 76.544-140.544 84.0192-223.6416V334.592z m-421.7856 358.0928c-26.368 0-47.7696-21.4016-47.7696-47.7696s21.4016-47.7696 47.7696-47.7696 47.7696 21.4016 47.7696 47.7696-21.4016 47.7696-47.7696 47.7696z m354.4576-182.8864H308.8384V361.1648c0-15.36 12.4416-27.8016 27.8016-27.8016h347.2384c15.36 0 27.8016 12.4416 27.8016 27.8016v148.6336z" fill="#1DCE75" p-id="3287"></path><path d="M315.0848 622.3872a47.72352 47.72352 0 0 1 42.0864-25.2416c7.3728 0 14.3872 1.7408 20.6336 4.7104a450.5088 450.5088 0 0 0 141.2608-92.16H308.8384V361.1648c0-15.36 12.4416-27.8016 27.8016-27.8016h295.7824a447.5648 447.5648 0 0 0 24.7808-132.608c-0.7168-0.0512-1.4336-0.1024-2.1504-0.1024H365.4144c-15.36 0-27.8016 12.4416-27.8016 27.8016v1.28c-53.8624 4.6592-96.1024 49.8176-96.1024 104.8576v100.4544H223.744c-12.4928 0-22.6304 10.1376-22.6304 22.6304v57.088c0 12.4928 10.1376 22.6304 22.6304 22.6304h17.7664v96.8704a452.7616 452.7616 0 0 0 73.5744-11.8784z" fill="#3CD38E" p-id="3288"></path><path d="M308.8384 361.1648c0-15.36 12.4416-27.8016 27.8016-27.8016h85.7088a450.22208 450.22208 0 0 0 86.3744-132.7104H365.4144c-15.36 0-27.8016 12.4416-27.8016 27.8016v1.28c-53.8624 4.6592-96.1024 49.8176-96.1024 104.8576v100.4544H223.744c-12.4928 0-22.6304 10.1376-22.6304 22.6304v5.376a446.32576 446.32576 0 0 0 107.7248-41.7792V361.1648z" fill="#48E1AA" p-id="3289"></path></svg>