<svg class="icon" style="width: 1em;height: 1em;vertical-align: middle;fill: currentColor;overflow: hidden;" viewBox="0 0 1024 1024" version="1.1" xmlns="http://www.w3.org/2000/svg" p-id="3552"><path d="M507.392 514.7136m-450.816 0a450.816 450.816 0 1 0 901.632 0 450.816 450.816 0 1 0-901.632 0Z" fill="#E9F4FF" p-id="3553"></path><path d="M401.0496 237.2608c0-34.0992-28.0064-70.4-44.8-70.4-17.2032 0-44.8 40.0896-44.8 70.4 0 24.7296 20.0704 44.8 44.8 44.8s44.8-20.0192 44.8-44.8z" fill="#6BC2FC" p-id="3554"></path><path d="M551.2704 237.2608c0-34.0992-28.0064-70.4-44.8-70.4-17.2032 0-44.8 40.0896-44.8 70.4 0 24.7296 20.0704 44.8 44.8 44.8s44.8-20.0192 44.8-44.8z" fill="#56B0F4" p-id="3555"></path><path d="M701.3376 237.2608c0-34.0992-28.0064-70.4-44.8-70.4-17.2032 0-44.8 40.0896-44.8 70.4 0 24.7296 20.0704 44.8 44.8 44.8s44.8-20.0192 44.8-44.8z" fill="#3A9CED" p-id="3556"></path><path d="M813.8752 492.6464c0-29.6448-14.9504-53.7088-33.3824-53.7088-8.7552 0-16.64 5.4272-22.5792 14.2848l-55.0912-127.6416a24.19712 24.19712 0 0 0-22.2208-14.592H336.128c-9.9328 0-18.8416 6.0928-22.4768 15.3088l-49.7664 126.2592c-5.888-8.448-13.6192-13.6192-22.1184-13.6192-18.432 0-33.3824 24.064-33.3824 53.7088 0 29.2864 14.592 53.0944 32.7168 53.6576v229.2224c0 13.3632 10.8032 24.1664 24.1664 24.1664h46.8992c13.3632 0 24.1664-10.8032 24.1664-24.1664v-12.5952c0-13.3632 10.8032-24.1664 24.1664-24.1664h302.5408c13.3632 0 24.1664 10.8032 24.1664 24.1664v12.5952c0 13.3632 10.8032 24.1664 24.1664 24.1664h46.8992c13.3632 0 24.1664-10.8032 24.1664-24.1664v-229.3248c17.6128-1.6896 31.4368-24.9856 31.4368-53.5552z m-507.0848-2.4064l37.9392-125.6448a9.216 9.216 0 0 1 8.8064-6.5536h316.672c4.0448 0 7.6288 2.6624 8.8064 6.5536l37.9392 125.6448a9.1648 9.1648 0 0 1-8.8064 11.8272H315.5456c-6.144 0-10.5472-5.9392-8.7552-11.8272z m41.5232 157.7984a48.4864 48.4864 0 1 1 0-96.9728 48.4864 48.4864 0 0 1 0 96.9728z m326.4512 0a48.4864 48.4864 0 1 1 0-96.9728 48.4864 48.4864 0 0 1 0 96.9728z" fill="#2595E8" p-id="3557"></path><path d="M780.544 438.9376c-8.7552 0-16.64 5.4272-22.5792 14.2848l-55.0912-127.6416a24.19712 24.19712 0 0 0-22.2208-14.592H336.128c-9.9328 0-18.8416 6.0928-22.4768 15.3088l-49.7664 126.2592c-5.888-8.448-13.6192-13.6192-22.1184-13.6192-18.432 0-33.3824 24.064-33.3824 53.7088 0 29.2864 14.592 53.0944 32.7168 53.6576v229.2224c0 3.072 0.6144 5.9904 1.6896 8.704 24.6784 6.912 50.2272 11.7248 76.4416 14.336 9.9328-3.0208 17.2032-12.1344 17.2032-23.04v-12.5952c0-13.3632 10.8032-24.1664 24.1664-24.1664h231.936c104.6016-61.5424 182.1696-164.096 210.6368-285.5936-6.0416-8.8064-13.9264-14.2336-22.6304-14.2336zM306.7904 490.24l37.9392-125.6448a9.216 9.216 0 0 1 8.8064-6.5536h316.672c4.0448 0 7.6288 2.6624 8.8064 6.5536l37.9392 125.6448a9.1648 9.1648 0 0 1-8.8064 11.8272H315.5456c-6.144 0-10.5472-5.9392-8.7552-11.8272z m41.5232 157.7984a48.4864 48.4864 0 1 1 0-96.9728 48.4864 48.4864 0 0 1 0 96.9728z m326.4512 0a48.4864 48.4864 0 1 1 0-96.9728 48.4864 48.4864 0 0 1 0 96.9728z" fill="#3A9CED" p-id="3558"></path><path d="M656.4864 166.8608c-17.152 0-44.8 40.0896-44.8 70.4 0 24.7296 20.0704 44.8 44.8 44.8 10.3936 0 19.968-3.584 27.5456-9.5232a453.1712 453.1712 0 0 0 7.4752-72.6528c-9.6768-18.8928-24.5248-33.024-35.0208-33.024zM241.0496 640.6656c25.1392 0 49.8176-2.0992 73.8304-6.0928a48.21504 48.21504 0 0 1-15.0528-35.072 48.4864 48.4864 0 0 1 96.9728 0c0 4.9664-0.768 9.728-2.1504 14.2336a451.59936 451.59936 0 0 0 171.3664-111.6672H315.5456c-6.144 0-10.5472-5.9392-8.8064-11.8272l37.9392-125.6448a9.216 9.216 0 0 1 8.8064-6.5536h305.7152c6.144-15.3088 11.4688-30.976 15.9744-47.0528H336.128c-9.9328 0-18.8416 6.0928-22.4768 15.3088l-49.7664 126.2592c-5.888-8.448-13.6192-13.6192-22.1184-13.6192-18.432 0-33.3824 24.064-33.3824 53.7088 0 29.2864 14.592 53.0944 32.7168 53.6576v94.3616z" fill="#56B0F4" p-id="3559"></path><path d="M506.4704 166.8608c-17.2032 0-44.8 40.0896-44.8 70.4 0 23.1424 17.5104 42.1376 39.9872 44.544 16.384-24.32 30.4128-50.2784 41.8816-77.6704-9.5744-20.992-25.8048-37.2736-37.0688-37.2736zM322.9696 436.6848l21.76-72.0896a9.216 9.216 0 0 1 8.8064-6.5536h83.5072c15.5136-14.6432 29.952-30.3616 43.2128-47.0528H336.128c-9.9328 0-18.8416 6.0928-22.4768 15.3088l-49.7664 126.2592c-5.888-8.448-13.6192-13.6192-22.1184-13.6192-14.2336 0-26.3168 14.336-31.1296 34.5088a446.03904 446.03904 0 0 0 112.3328-36.7616z" fill="#6BC2FC" p-id="3560"></path></svg>