<svg class="icon" style="width: 1em;height: 1em;vertical-align: middle;fill: currentColor;overflow: hidden;" viewBox="0 0 1024 1024" version="1.1" xmlns="http://www.w3.org/2000/svg" p-id="1617"><path d="M513.8944 516.608m-450.816 0a450.816 450.816 0 1 0 901.632 0 450.816 450.816 0 1 0-901.632 0Z" fill="#FFE3DB" p-id="1618"></path><path d="M677.1712 212.736H350.6176c-50.1248 0-90.7776 40.6528-90.7776 90.7776v442.0096c0 47.4112 52.992 75.4688 92.2112 48.8448l128.6144-87.296a44.0064 44.0064 0 0 1 48.1792-0.8192l148.5312 93.6448c39.3216 24.7808 90.5728-3.4816 90.5728-49.9712v-446.464c0-50.0736-40.6528-90.7264-90.7776-90.7264z m-63.1296 240.2816l-36.5568 35.6352c-2.8672 2.816-4.1984 6.8608-3.5328 10.8544l8.6528 50.3296c1.7408 9.984-8.8064 17.6128-17.7664 12.9024l-45.2096-23.7568c-3.584-1.8944-7.8336-1.8944-11.4176 0l-45.2096 23.7568c-9.0112 4.7104-19.5072-2.9184-17.7664-12.9024l8.6528-50.3296c0.6656-3.9936-0.6144-8.0384-3.5328-10.8544l-36.5568-35.6352c-7.2704-7.0656-3.2768-19.456 6.8096-20.8896l50.5344-7.3216c3.9936-0.5632 7.424-3.072 9.216-6.7072l22.5792-45.824c4.5056-9.1136 17.4592-9.1136 21.9648 0l22.5792 45.824c1.792 3.6352 5.2224 6.144 9.216 6.7072l50.5344 7.3216c10.0864 1.4336 14.08 13.7728 6.8096 20.8896z" fill="#F23D4F" p-id="1619"></path><path d="M767.9488 303.5136c0-50.1248-40.6528-90.7776-90.7776-90.7776H350.6176c-50.1248 0-90.7776 40.6528-90.7776 90.7776v442.0096c0 47.4112 52.992 75.4688 92.2112 48.8448l128.6144-87.296a44.0064 44.0064 0 0 1 48.1792-0.8192l45.4144 28.6208c91.6992-59.5456 161.28-150.2208 193.6896-257.1264V303.5136z m-153.9072 149.504l-36.5568 35.6352c-2.8672 2.816-4.1984 6.8608-3.5328 10.8544l8.6528 50.3296c1.7408 9.984-8.8064 17.6128-17.7664 12.9024l-45.2096-23.7568c-3.584-1.8944-7.8336-1.8944-11.4176 0l-45.2096 23.7568c-8.96 4.7104-19.5072-2.9184-17.7664-12.9024l8.6528-50.3296c0.6656-3.9936-0.6144-8.0384-3.5328-10.8544l-36.5568-35.6352c-7.2704-7.0656-3.2768-19.456 6.8096-20.8896l50.5344-7.3216c3.9936-0.5632 7.424-3.072 9.216-6.7072l22.5792-45.824c4.5056-9.1136 17.4592-9.1136 21.9648 0l22.5792 45.824c1.792 3.6352 5.2224 6.144 9.216 6.7072l50.5344 7.3216c10.0864 1.4336 14.08 13.7728 6.8096 20.8896z" fill="#FC4956" p-id="1620"></path><path d="M453.632 563.5584c-5.4272-1.7408-9.5232-7.168-8.3968-13.7216l8.6528-50.3296c0.6656-3.9936-0.6144-8.0384-3.5328-10.8544l-36.5568-35.6352c-7.2704-7.0656-3.2768-19.456 6.8096-20.8896l50.5344-7.3216c3.9936-0.5632 7.424-3.072 9.216-6.7072l22.5792-45.824c4.5056-9.1136 17.4592-9.1136 21.9648 0l22.5792 45.824c1.792 3.6352 5.2224 6.144 9.216 6.7072l28.6208 4.1472a465.28512 465.28512 0 0 0 73.0624-216.1664H350.6176c-50.1248 0-90.7776 40.6528-90.7776 90.7776v335.2576a466.79552 466.79552 0 0 0 193.792-75.264z" fill="#FF5C64" p-id="1621"></path><path d="M495.7184 212.736H350.6176c-50.1248 0-90.7776 40.6528-90.7776 90.7776v135.8848c103.2192-44.8 187.136-125.6448 235.8784-226.6624z" fill="#FF716E" p-id="1622"></path></svg>