<svg class="icon" style="width: 1em;height: 1em;vertical-align: middle;fill: currentColor;overflow: hidden;" viewBox="0 0 1024 1024" version="1.1" xmlns="http://www.w3.org/2000/svg" p-id="4621"><path d="M511.744 513.1264m-450.816 0a450.816 450.816 0 1 0 901.632 0 450.816 450.816 0 1 0-901.632 0Z" fill="#FFE3DB" p-id="4622"></path><path d="M815.9232 430.2336c0-112.9984-87.5008-204.5952-195.3792-204.5952-23.8592 0-46.6944 4.5056-67.84 12.6976 53.7088 45.056 88.1152 114.2784 88.1152 191.9488s-34.4064 146.8416-88.1152 191.9488c7.3728 2.8672 14.9504 5.2224 22.7328 7.168l-26.368 31.0784c-6.656 8.704-1.9968 23.7568 7.3728 23.7568h41.0624v18.8416c0 26.3168 21.1968 55.04 29.3376 63.8976 3.1744 3.4816 5.2736 6.2464 6.6048 8.6528a30.0032 30.0032 0 0 0-25.088 28.9792 30.03904 30.03904 0 0 0 29.3888 30.72h0.8192c11.8272 0 29.8496-5.4784 42.4448-17.7664 9.472-9.2672 14.6432-21.3504 14.6432-34.0992 0-27.3408-14.08-45.7216-24.6272-57.1904-5.9904-6.5024-12.6464-18.8416-13.4144-23.552v-18.432h37.6832c9.3696 0 14.0288-15.0016 7.3728-23.7568l-28.2624-33.536c81.664-24.576 141.5168-103.3216 141.5168-196.7616z" fill="#F23D4F" p-id="4623"></path><path d="M601.344 430.2336c0-112.9984-87.5008-204.5952-195.3792-204.5952S210.5856 317.2352 210.5856 430.2336c0 96.7168 64.1536 177.7664 150.272 199.0656l-26.368 31.1296c-6.656 8.704-1.9968 23.7568 7.3728 23.7568h41.0624v18.8416c0 26.3168 21.1968 55.04 29.3376 63.8976 3.1744 3.4816 5.2736 6.2464 6.6048 8.6528a30.0032 30.0032 0 0 0-25.088 28.9792 30.03904 30.03904 0 0 0 29.3888 30.72h0.8192c11.8272 0 29.8496-5.4784 42.4448-17.7664 9.472-9.2672 14.6432-21.3504 14.6432-34.0992 0-27.3408-14.08-45.7216-24.6272-57.1904-5.9904-6.5024-12.6464-18.8416-13.4144-23.552v-18.432h37.6832c9.3696 0 14.0288-15.0016 7.3728-23.7568l-28.2624-33.536c81.7152-24.5248 141.5168-103.2704 141.5168-196.7104zM337.5104 372.9408c-1.024 1.0752-24.6272 26.88-7.5264 82.3296a30.08 30.08 0 0 1-28.7232 38.912c-12.8512 0-24.7296-8.2944-28.7232-21.1968-26.2656-85.248 13.1584-132.6592 21.2992-141.312a30.08 30.08 0 0 1 42.496-1.1776 29.97248 29.97248 0 0 1 1.1776 42.4448z" fill="#F23D4F" p-id="4624"></path><path d="M405.9648 225.5872c-107.9296 0-195.3792 91.5968-195.3792 204.5952 0 96.7168 64.1536 177.7664 150.272 199.0656l-26.368 31.1296c-6.656 8.704-1.9968 23.7568 7.3728 23.7568h41.0624v18.8416c0 19.7632 11.9296 40.8576 21.3504 53.9136a446.8736 446.8736 0 0 0 61.184-19.8144c-3.0208-4.1984-6.1952-7.8336-9.0624-10.9568-5.9904-6.5024-12.6464-18.8416-13.4144-23.552v-18.432h37.6832c9.3696 0 14.0288-15.0016 7.3728-23.7568l-28.2624-33.536c81.7152-24.4736 141.568-103.2192 141.568-196.6592 0-112.9472-87.4496-204.5952-195.3792-204.5952zM337.5104 372.9408c-1.024 1.0752-24.6272 26.88-7.5264 82.3296a30.08 30.08 0 0 1-28.7232 38.912c-12.8512 0-24.7296-8.2944-28.7232-21.1968-26.2656-85.248 13.1584-132.6592 21.2992-141.312a30.08 30.08 0 0 1 42.496-1.1776 29.97248 29.97248 0 0 1 1.1776 42.4448z" fill="#FC4956" p-id="4625"></path><path d="M552.704 238.2848c53.7088 45.056 88.1152 114.2784 88.1152 191.9488s-34.4064 146.8416-88.1152 191.9488c7.3728 2.8672 14.9504 5.2224 22.7328 7.168l-26.368 31.0784c-6.656 8.704-1.9968 23.7568 7.3728 23.7568h4.352c112.7936-81.92 186.1632-214.8864 186.1632-364.9536 0-15.9232-0.8192-31.6416-2.4576-47.1552-33.7408-29.0304-76.9024-46.4384-123.9552-46.4384-23.8592-0.0512-46.6944 4.4544-67.84 12.6464z" fill="#FC4956" p-id="4626"></path><path d="M405.9648 225.5872c-107.9296 0-195.3792 91.5968-195.3792 204.5952 0 67.3792 31.1296 127.0784 79.1552 164.352 131.1744-35.1232 238.7456-127.8976 293.888-249.5488-30.8736-70.4-98.816-119.3984-177.664-119.3984zM337.5104 372.9408c-1.024 1.0752-24.6272 26.88-7.5264 82.3296a30.08 30.08 0 0 1-28.7232 38.912c-12.8512 0-24.7296-8.2944-28.7232-21.1968-26.2656-85.248 13.1584-132.6592 21.2992-141.312a30.08 30.08 0 0 1 42.496-1.1776 29.97248 29.97248 0 0 1 1.1776 42.4448zM552.704 238.2848c19.3536 16.2304 36.1472 35.6864 49.8176 57.4976 7.2192-22.6304 12.6464-46.08 16.2304-70.0928-23.2448 0.2048-45.4656 4.608-66.048 12.5952z" fill="#FF5C64" p-id="4627"></path><path d="M210.688 424.3456c18.5344-6.6048 36.5056-14.336 53.8112-23.1936 4.352-40.3968 23.8592-63.6416 29.3376-69.4272a30.08 30.08 0 0 1 42.496-1.1776c5.12 4.864 8.0384 11.1104 8.96 17.664a452.48512 452.48512 0 0 0 101.5296-118.016c-13.2096-2.9184-26.88-4.5056-40.9088-4.5056-105.984-0.1024-192.2048 88.3712-195.2256 198.656z" fill="#FF716E" p-id="4628"></path></svg>