<svg class="icon" style="width: 1em;height: 1em;vertical-align: middle;fill: currentColor;overflow: hidden;" viewBox="0 0 1024 1024" version="1.1" xmlns="http://www.w3.org/2000/svg" p-id="5424"><path d="M514.2528 513.1264m-450.816 0a450.816 450.816 0 1 0 901.632 0 450.816 450.816 0 1 0-901.632 0Z" fill="#E9F4FF" p-id="5425"></path><path d="M771.8912 649.1136l-40.5504-67.328c15.4624-14.2336 25.1904-34.56 25.1904-57.1392 0-42.9056-34.9184-77.7728-77.7728-77.7728-42.9056 0-77.7728 34.8672-77.7728 77.7728 0 21.0432 8.448 40.1408 22.0672 54.1696l-46.7968 70.4512c-24.0128 1.6384-43.0592 22.6816-43.0592 48.384v45.9776c0 26.7776 20.6336 48.5376 46.0288 48.5376h192.5632c25.3952 0 46.0288-21.76 46.0288-48.5376v-45.9776c0.0512-26.7264-20.5824-48.4864-45.9264-48.5376z" fill="#2595E8" p-id="5426"></path><path d="M548.6592 609.792l20.2752-30.5152a121.7024 121.7024 0 0 1-12.8-54.5792c0-67.6352 54.9888-122.624 122.624-122.624 15.4112 0 30.208 2.9184 43.8272 8.1408v-105.472c0-46.1824-37.5808-83.712-83.712-83.712H318.4128c-46.1824 0-83.712 37.5808-83.712 83.712v395.8784c0 46.1824 37.5296 83.712 83.712 83.712l179.1488 0.0512a94.9248 94.9248 0 0 1-9.216-40.704v-45.9776c0-40.192 25.0368-74.9056 60.3136-87.9104zM359.0144 330.8544h233.472c16.0256 0 29.0304 13.0048 29.0304 29.0304s-13.0048 29.0304-29.0304 29.0304h-233.472c-16.0256 0-29.0304-13.0048-29.0304-29.0304s13.0048-29.0304 29.0304-29.0304z m82.5856 335.5648H359.0144c-16.0256 0-29.0304-13.0048-29.0304-29.0304s13.0048-29.0304 29.0304-29.0304h82.5856c16.0256 0 29.0304 13.0048 29.0304 29.0304s-13.0048 29.0304-29.0304 29.0304z m-82.5856-146.3296c-16.0256 0-29.0304-13.0048-29.0304-29.0304s13.0048-29.0304 29.0304-29.0304H494.592c16.0256 0 29.0304 13.0048 29.0304 29.0304s-13.0048 29.0304-29.0304 29.0304H359.0144z" fill="#39A5E9" p-id="5427"></path><path d="M742.7584 480.5632c-14.0288-20.3264-37.4784-33.6384-64-33.6384-42.9056 0-77.7728 34.8672-77.7728 77.7728 0 21.0432 8.448 40.1408 22.0672 54.1696l-46.7968 70.4512c-24.0128 1.6384-43.0592 22.6816-43.0592 48.384v45.9776c0 7.8848 1.8432 15.3088 5.0176 21.8624 102.0928-62.5664 177.3568-164.6592 204.544-284.9792z" fill="#39A5E9" p-id="5428"></path><path d="M592.4864 388.864h-233.472c-16.0256 0-29.0304-13.0048-29.0304-29.0304s13.0048-29.0304 29.0304-29.0304h233.472c8.704 0 16.5376 3.84 21.8112 9.9328a450.83648 450.83648 0 0 0 16.1792-119.808H318.4128c-46.1824 0-83.712 37.5808-83.712 83.712v363.4688c33.4336-4.0448 65.7408-11.776 96.4608-22.784-0.7168-2.56-1.1776-5.2736-1.1776-8.0384 0-16.0256 13.0048-29.0304 29.0304-29.0304h50.944c84.6336-50.3808 151.3472-127.6416 188.3648-220.0576-1.8944 0.4608-3.84 0.6656-5.8368 0.6656z m-97.8432 131.2256H359.0144c-16.0256 0-29.0304-13.0048-29.0304-29.0304s13.0048-29.0304 29.0304-29.0304H494.592c16.0256 0 29.0304 13.0048 29.0304 29.0304s-12.9536 29.0304-28.9792 29.0304z" fill="#55B5F3" p-id="5429"></path><path d="M329.984 359.8848c0-16.0256 13.0048-29.0304 29.0304-29.0304h68.608A448.95232 448.95232 0 0 0 487.936 221.0304H318.4128c-46.1824 0-83.712 37.5808-83.712 83.712v174.7968a450.7136 450.7136 0 0 0 141.2096-90.624h-16.896c-16.0256-0.0512-29.0304-13.0048-29.0304-29.0304z" fill="#6BC2FC" p-id="5430"></path></svg>