<svg class="icon" style="width: 1em;height: 1em;vertical-align: middle;fill: currentColor;overflow: hidden;" viewBox="0 0 1024 1024" version="1.1" xmlns="http://www.w3.org/2000/svg" p-id="4843"><path d="M505.088 514.7136m-450.816 0a450.816 450.816 0 1 0 901.632 0 450.816 450.816 0 1 0-901.632 0Z" fill="#E9ECFF" p-id="4844"></path><path d="M733.0816 339.4048l-87.0912-104.8064c-15.7184-18.944-39.0656-29.9008-63.6928-29.9008H345.2928c-45.7728 0-82.8416 37.0688-82.8416 82.8416v427.8784c0 45.7728 37.0688 82.8416 82.8416 82.8416h324.0448c45.7728 0 82.8416-37.0688 82.8416-82.8416v-323.072c0.0512-19.3536-6.7072-38.0928-19.0976-52.9408z m-105.3184 356.4032H386.9184a18.6368 18.6368 0 0 1-18.6368-18.6368v-109.1072a18.6368 18.6368 0 0 1 18.6368-18.6368h240.8448a18.6368 18.6368 0 0 1 18.6368 18.6368v109.1072a18.6368 18.6368 0 0 1-18.6368 18.6368z" fill="#6C6CEA" p-id="4845"></path><path d="M752.2304 453.5296V392.3456c0-19.3536-6.7584-38.0928-19.1488-52.9408l-87.0912-104.8064c-15.7184-18.944-39.0656-29.9008-63.6928-29.9008H345.2928c-45.7728 0-82.8416 37.0688-82.8416 82.8416v427.8784c0 15.6672 4.4032 30.2592 11.9808 42.752 20.5312 2.9696 41.472 4.5568 62.8224 4.5568 85.0432 0 164.4032-24.5248 231.3216-66.9184H386.9184a18.6368 18.6368 0 0 1-18.6368-18.6368v-109.1072a18.6368 18.6368 0 0 1 18.6368-18.6368h240.8448a18.6368 18.6368 0 0 1 18.6368 18.6368v64.768a432.16384 432.16384 0 0 0 105.8304-179.3024z" fill="#757BF2" p-id="4846"></path><path d="M645.9904 234.5984c-15.7696-18.944-39.1168-29.9008-63.744-29.9008H345.2928c-45.7728 0-82.8416 37.0688-82.8416 82.8416v319.232c36.8128-3.6864 72.2944-11.9808 105.7792-24.32v-14.4384a18.6368 18.6368 0 0 1 18.6368-18.6368h51.0976c111.4112-65.536 190.8736-179.5072 209.5104-312.9344l-1.4848-1.8432z" fill="#8486F8" p-id="4847"></path><path d="M502.8864 204.6976H345.2928c-45.7728 0-82.8416 37.0688-82.8416 82.8416V428.032C368.896 387.9936 455.3216 307.2 502.8864 204.6976z" fill="#8D92F8" p-id="4848"></path><path d="M400.5376 611.328h215.7056v29.696H400.5376z" fill="#757BF2" p-id="4849"></path></svg>