<svg class="icon" style="width: 1em;height: 1em;vertical-align: middle;fill: currentColor;overflow: hidden;" viewBox="0 0 1024 1024" version="1.1" xmlns="http://www.w3.org/2000/svg" p-id="3041"><path d="M508.16 512.0512m-450.816 0a450.816 450.816 0 1 0 901.632 0 450.816 450.816 0 1 0-901.632 0Z" fill="#FFE1E9" p-id="3042"></path><path d="M684.0832 241.7664H332.1856c-65.4848 0-118.528 53.0944-118.528 118.528v303.5648c0 65.4848 53.0944 118.528 118.528 118.528h351.8976c65.4848 0 118.528-53.0944 118.528-118.528V360.2944c0-65.4848-53.0432-118.528-118.528-118.528z m-171.0592 398.7968c-26.1632 0-47.4112-21.248-47.4112-47.4112 0-3.5328 0.4096-6.9632 1.1264-10.24l-72.96-72.192a25.2928 25.2928 0 0 1-0.2048-35.7376 25.2928 25.2928 0 0 1 35.7376-0.2048l73.0112 72.192c3.4304-0.8192 7.0144-1.28 10.752-1.28 26.1632 0 47.4112 21.248 47.4112 47.4112s-21.248 47.4624-47.4624 47.4624z m211.8144-75.7248c-13.9264 0-25.2416-11.3152-25.2416-25.2416 0-102.8608-83.712-186.5728-186.5728-186.5728S326.4512 436.736 326.4512 539.5968c0 13.9264-11.3152 25.2416-25.2416 25.2416-13.9264 0-25.2416-11.3152-25.2416-25.2416 0-130.7136 106.3424-237.056 237.056-237.056s237.056 106.3424 237.056 237.056c0.0512 13.9264-11.264 25.2416-25.2416 25.2416z" fill="#FF3369" p-id="3043"></path><path d="M684.0832 241.7664H332.2368c-65.4848 0-118.528 53.0944-118.528 118.528v303.5648c0 65.4848 53.0944 118.528 118.528 118.528h100.1984c125.5936-28.2112 231.3216-108.7488 293.12-217.6-0.256 0-0.4608 0.0512-0.6656 0.0512-13.9264 0-25.2416-11.3152-25.2416-25.2416 0-102.8608-83.712-186.5728-186.5728-186.5728-102.8608 0-186.5728 83.712-186.5728 186.5728 0 13.9264-11.3152 25.2416-25.2416 25.2416-13.9264 0-25.2416-11.3152-25.2416-25.2416 0-130.7136 106.3424-237.056 237.056-237.056 123.136 0 224.6144 94.3616 235.9808 214.5792 22.5792-53.7088 35.072-112.6912 35.072-174.5408 0-16.9472-0.9728-33.6384-2.7648-50.0736-21.504-30.72-57.0368-50.7392-97.28-50.7392zM393.5744 474.9824a25.2928 25.2928 0 0 1 35.7376-0.2048l73.0112 72.192c3.4304-0.8192 7.0144-1.28 10.752-1.28 26.1632 0 47.4112 21.248 47.4112 47.4112 0 26.1632-21.248 47.4112-47.4112 47.4112-26.1632 0-47.4112-21.248-47.4112-47.4112 0-3.5328 0.4096-6.9632 1.1264-10.24l-72.96-72.192c-9.984-9.7792-10.0352-25.7536-0.256-35.6864z" fill="#FF4D7C" p-id="3044"></path><path d="M448.5632 564.9408l-54.784-54.2208a25.2928 25.2928 0 0 1-0.2048-35.7376 25.2928 25.2928 0 0 1 35.7376-0.2048l61.1328 60.5184a452.07552 452.07552 0 0 0 123.392-152.576 185.15456 185.15456 0 0 0-100.8128-29.696c-102.8608 0-186.5728 83.712-186.5728 186.5728 0 13.9264-11.3152 25.2416-25.2416 25.2416-13.9264 0-25.2416-11.3152-25.2416-25.2416 0-130.7136 106.3424-237.056 237.056-237.056 44.1344 0 85.504 12.1856 120.9344 33.28a449.19808 449.19808 0 0 0 22.8864-94.0544h-324.608c-65.4848 0-118.528 53.0944-118.528 118.528v272.896c86.1696-0.7168 166.656-25.6 234.8544-68.2496z" fill="#FF5F89" p-id="3045"></path><path d="M307.7632 421.2224c29.2352-50.5344 76.5952-89.344 133.1712-107.4688 18.8416-22.272 35.5328-46.3872 49.8176-72.0384H332.2368c-65.4848 0-118.528 53.0944-118.528 118.528V458.24c32.9728-8.8064 64.512-21.2992 94.0544-37.0176z" fill="#FF7196" p-id="3046"></path></svg>