<svg class="icon" style="width: 1em;height: 1em;vertical-align: middle;fill: currentColor;overflow: hidden;" viewBox="0 0 1024 1024" version="1.1" xmlns="http://www.w3.org/2000/svg" p-id="3707"><path d="M509.4912 513.1264m-450.816 0a450.816 450.816 0 1 0 901.632 0 450.816 450.816 0 1 0-901.632 0Z" fill="#E9ECFF" p-id="3708"></path><path d="M617.984 306.5856H404.736c-12.6464 0-22.9376-10.2912-22.9376-22.9376V220.7744c0-12.6464 10.2912-22.9376 22.9376-22.9376h213.248c12.6464 0 22.9376 10.2912 22.9376 22.9376V283.648c0 12.6976-10.2912 22.9376-22.9376 22.9376z" fill="#8486F8" p-id="3709"></path><path d="M702.72 253.8496h-18.944v58.0608c0 19.1488-15.5136 34.6624-34.6624 34.6624H373.5552c-19.1488 0-34.6624-15.5136-34.6624-34.6624V253.8496h-18.944c-42.24 0-76.4928 34.2528-76.4928 76.4928v394.4448c0 42.24 34.2528 76.4928 76.4928 76.4928h382.7712c42.24 0 76.4928-34.2528 76.4928-76.4928V330.3424c0-42.24-34.2528-76.4928-76.4928-76.4928z m-59.2384 385.9968H379.2384c-16.9984 0-30.7712-13.7728-30.7712-30.7712s13.7728-30.7712 30.7712-30.7712h264.2432c16.9984 0 30.7712 13.7728 30.7712 30.7712s-13.7728 30.7712-30.7712 30.7712z m0-121.088H379.2384c-16.9984 0-30.7712-13.7728-30.7712-30.7712s13.7728-30.7712 30.7712-30.7712h264.2432c16.9984 0 30.7712 13.7728 30.7712 30.7712s-13.7728 30.7712-30.7712 30.7712z" fill="#6C6CEA" p-id="3710"></path><path d="M779.2128 330.3424c0-42.24-34.2528-76.4928-76.4928-76.4928h-18.944v58.0608c0 19.1488-15.5136 34.6624-34.6624 34.6624H373.5552c-19.1488 0-34.6624-15.5136-34.6624-34.6624V253.8496h-18.944c-42.24 0-76.4928 34.2528-76.4928 76.4928v394.4448c0 42.24 34.2528 76.4928 76.4928 76.4928h150.1184c158.2592-49.3568 279.0912-183.552 309.1968-349.3888V330.3424z m-135.7312 309.504H379.2384c-16.9984 0-30.7712-13.7728-30.7712-30.7712s13.7728-30.7712 30.7712-30.7712h264.2432a30.76608 30.76608 0 1 1 0 61.5424z m0-121.088H379.2384c-16.9984 0-30.7712-13.7728-30.7712-30.7712s13.7728-30.7712 30.7712-30.7712h264.2432c16.9984 0 30.7712 13.7728 30.7712 30.7712s-13.7728 30.7712-30.7712 30.7712z" fill="#757BF2" p-id="3711"></path><path d="M363.5712 635.5456a30.78144 30.78144 0 0 1 15.616-57.2928h94.3104c24.6272-17.5104 47.36-37.4784 67.9936-59.4944h-162.304c-16.9984 0-30.7712-13.7728-30.7712-30.7712s13.7728-30.7712 30.7712-30.7712h210.688a447.6928 447.6928 0 0 0 52.4288-110.592H373.5552c-19.1488 0-34.6624-15.5136-34.6624-34.6624V253.8496h-18.944c-42.24 0-76.4928 34.2528-76.4928 76.4928V660.48a448.8192 448.8192 0 0 0 120.1152-24.9344z" fill="#8486F8" p-id="3712"></path><path d="M439.552 346.5728H373.5552c-19.1488 0-34.6624-15.5136-34.6624-34.6624V253.8496h-18.944c-42.24 0-76.4928 34.2528-76.4928 76.4928v148.0192c76.6976-25.9072 144.128-71.936 196.096-131.7888z" fill="#8D92F8" p-id="3713"></path><path d="M525.4144 197.8368H404.736c-12.6464 0-22.9376 10.2912-22.9376 22.9376V283.648c0 12.6464 10.2912 22.9376 22.9376 22.9376H470.528c22.8864-33.28 41.472-69.7856 54.8864-108.7488z" fill="#8D92F8" p-id="3714"></path></svg>