<svg class="icon" style="width: 1em;height: 1em;vertical-align: middle;fill: currentColor;overflow: hidden;" viewBox="0 0 1024 1024" version="1.1" xmlns="http://www.w3.org/2000/svg" p-id="2433"><path d="M510.0544 513.1264m-450.816 0a450.816 450.816 0 1 0 901.632 0 450.816 450.816 0 1 0-901.632 0Z" fill="#FFF1DC" p-id="2434"></path><path d="M760.5248 274.6368H259.584c-32.3584 0-58.5728 26.2144-58.5728 58.5728v351.3856c0 32.3584 26.2144 58.5728 58.5728 58.5728h70.144l0.6656 77.4144c0.1024 11.4176 12.288 18.688 22.3744 13.312l170.6496-90.7264h237.1584c32.3584 0 58.5728-26.2144 58.5728-58.5728V333.2096c-0.0512-32.3584-26.2656-58.5728-58.624-58.5728z m-210.7392 332.7488H353.2288a31.7952 31.7952 0 1 1 0-63.5904h196.5568a31.7952 31.7952 0 1 1 0 63.5904z m123.4944-128.768H353.2288a31.7952 31.7952 0 1 1 0-63.5904h320.0512a31.7952 31.7952 0 1 1 0 63.5904z" fill="#FC7032" p-id="2435"></path><path d="M819.0976 333.2096c0-32.3584-26.2144-58.5728-58.5728-58.5728H259.584c-32.3584 0-58.5728 26.2144-58.5728 58.5728v351.3856c0 32.3584 26.2144 58.5728 58.5728 58.5728h70.144l0.2048 23.3984c18.3808 2.2528 37.0688 3.5328 56.1152 3.5328 39.1168 0 77.056-4.9152 113.152-14.08l24.1664-12.8512h17.8688c139.8272-50.2784 246.1184-166.5024 277.8624-309.2992V333.2096z m-269.312 274.176H353.2288a31.7952 31.7952 0 1 1 0-63.5904h196.5568a31.7952 31.7952 0 1 1 0 63.5904z m123.4944-128.768H353.2288a31.7952 31.7952 0 1 1 0-63.5904h320.0512a31.7952 31.7952 0 1 1 0 63.5904z" fill="#FF7E3E" p-id="2436"></path><path d="M201.0112 333.2096v281.2416c20.8896 2.9184 42.1888 4.4544 63.8976 4.4544 35.2768 0 69.5296-4.096 102.4-11.5712h-14.08a31.7952 31.7952 0 1 1 0-63.5904h162.9184a439.77728 439.77728 0 0 0 77.3632-65.1264H353.2288a31.7952 31.7952 0 1 1 0-63.5904h289.792a412.9536 412.9536 0 0 0 56.6272-140.4416H259.584c-32.3584 0.0512-58.5728 26.2656-58.5728 58.624z" fill="#FF9552" p-id="2437"></path><path d="M201.0112 333.2096v132.6592a453.3248 453.3248 0 0 0 122.4192-30.0544 31.83104 31.83104 0 0 1 29.7984-20.736h14.7968c63.4368-33.8432 117.2992-82.176 156.7744-140.4416H259.584c-32.3584 0-58.5728 26.2144-58.5728 58.5728z" fill="#FFA56A" p-id="2438"></path></svg>