<svg class="icon" style="width: 1em;height: 1em;vertical-align: middle;fill: currentColor;overflow: hidden;" viewBox="0 0 1024 1024" version="1.1" xmlns="http://www.w3.org/2000/svg" p-id="2774"><path d="M511.0784 510.0544m-450.816 0a450.816 450.816 0 1 0 901.632 0 450.816 450.816 0 1 0-901.632 0Z" fill="#E3FFF3" p-id="2775"></path><path d="M560.0768 381.2864h48.0256v48.8448h-48.0256z" fill="#1DCE75" p-id="2776"></path><path d="M701.5424 228.4544h-380.928c-37.4784 0-67.84 30.3616-67.84 67.84v427.4688c0 37.4784 30.3616 67.84 67.84 67.84h380.928c37.4784 0 67.84-30.3616 67.84-67.84V296.2944c0-37.4784-30.3616-67.84-67.84-67.84zM506.624 367.872c0-22.0672 17.92-39.9872 39.9872-39.9872h74.9056c22.0672 0 39.9872 17.92 39.9872 39.9872v75.7248c0 22.0672-17.92 39.9872-39.9872 39.9872h-74.9056c-22.0672 0-39.9872-17.92-39.9872-39.9872V367.872z m-121.1392-37.5296h61.6448c14.7456 0 26.7264 11.9808 26.7264 26.7264s-11.9808 26.7264-26.7264 26.7264H385.4848c-14.7456 0-26.7264-11.9808-26.7264-26.7264s11.9808-26.7264 26.7264-26.7264z m0 100.3008h61.6448c14.7456 0 26.7264 11.9808 26.7264 26.7264s-11.9808 26.7264-26.7264 26.7264H385.4848c-14.7456 0-26.7264-11.9808-26.7264-26.7264s11.9808-26.7264 26.7264-26.7264z m255.744 263.4752H385.4848c-14.7456 0-26.7264-11.9808-26.7264-26.7264s11.9808-26.7264 26.7264-26.7264h255.6928c14.7456 0 26.7264 11.9808 26.7264 26.7264a26.63424 26.63424 0 0 1-26.6752 26.7264z m0-104.7552H385.4848c-14.7456 0-26.7264-11.9808-26.7264-26.7264s11.9808-26.7264 26.7264-26.7264h255.6928c14.7456 0 26.7264 11.9808 26.7264 26.7264s-11.9296 26.7264-26.6752 26.7264z" fill="#05C46D" p-id="2777"></path><path d="M769.3824 296.2944c0-37.4784-30.3616-67.84-67.84-67.84h-380.928c-37.4784 0-67.84 30.3616-67.84 67.84v427.4688c0 22.016 10.5472 41.5232 26.7776 53.9136 16.5888 1.8432 33.3824 2.816 50.432 2.816 99.2256 0 190.976-32.1024 265.4208-86.4256h-209.92c-14.7456 0-26.7264-11.9808-26.7264-26.7264s11.9808-26.7264 26.7264-26.7264h255.6928c4.4032 0 8.4992 1.1776 12.1856 3.072 56.3712-58.0608 97.28-131.2256 116.0192-212.8896V296.2944zM506.624 367.872c0-22.0672 17.92-39.9872 39.9872-39.9872h74.9056c22.0672 0 39.9872 17.92 39.9872 39.9872v75.7248c0 22.0672-17.92 39.9872-39.9872 39.9872h-74.9056c-22.0672 0-39.9872-17.92-39.9872-39.9872V367.872z m-121.1392-37.5296h61.6448c14.7456 0 26.7264 11.9808 26.7264 26.7264s-11.9808 26.7264-26.7264 26.7264H385.4848c-14.7456 0-26.7264-11.9808-26.7264-26.7264s11.9808-26.7264 26.7264-26.7264z m0 100.3008h61.6448c14.7456 0 26.7264 11.9808 26.7264 26.7264s-11.9808 26.7264-26.7264 26.7264H385.4848c-14.7456 0-26.7264-11.9808-26.7264-26.7264s11.9808-26.7264 26.7264-26.7264z m255.744 158.72H385.4848c-14.7456 0-26.7264-11.9808-26.7264-26.7264s11.9808-26.7264 26.7264-26.7264h255.6928c14.7456 0 26.7264 11.9808 26.7264 26.7264s-11.9296 26.7264-26.6752 26.7264z" fill="#1DCE75" p-id="2778"></path><path d="M560.0768 381.2864v48.8448h14.5408c11.0592-15.5648 21.0944-31.8976 30.1568-48.8448h-44.6976z" fill="#3CD38E" p-id="2779"></path><path d="M252.7232 296.2944v321.792c43.1616-4.4032 84.5312-14.8992 123.2384-30.6176-10.0352-3.84-17.2032-13.5168-17.2032-24.8832 0-14.7456 11.9808-26.7264 26.7264-26.7264h83.968a451.4304 451.4304 0 0 0 63.1808-54.9376c-15.1552-5.6832-26.0096-20.2752-26.0096-37.4272V367.872c0-22.0672 17.92-39.9872 39.9872-39.9872h74.9056c2.4064 0 4.8128 0.256 7.1168 0.6656 11.9808-31.7952 20.48-65.3312 25.0368-100.096H320.6144c-37.4784 0-67.8912 30.3616-67.8912 67.84z m132.7616 34.048h61.6448c14.7456 0 26.7264 11.9808 26.7264 26.7264s-11.9808 26.7264-26.7264 26.7264H385.4848c-14.7456 0-26.7264-11.9808-26.7264-26.7264s11.9808-26.7264 26.7264-26.7264z m0 100.3008h61.6448c14.7456 0 26.7264 11.9808 26.7264 26.7264s-11.9808 26.7264-26.7264 26.7264H385.4848c-14.7456 0-26.7264-11.9808-26.7264-26.7264s11.9808-26.7264 26.7264-26.7264z" fill="#3CD38E" p-id="2780"></path><path d="M252.7232 296.2944v135.5264c39.7312-15.0528 76.8-35.4816 110.2848-60.5184a26.2656 26.2656 0 0 1-4.1984-14.2848c0-14.7456 11.9808-26.7264 26.7264-26.7264h25.0368c30.3104-30.0032 56.32-64.3072 77.1584-101.888H320.6144c-37.4784 0.0512-67.8912 30.4128-67.8912 67.8912z" fill="#48E1AA" p-id="2781"></path></svg>