<svg class="icon" style="width: 1em;height: 1em;vertical-align: middle;fill: currentColor;overflow: hidden;" viewBox="0 0 1024 1024" version="1.1" xmlns="http://www.w3.org/2000/svg" p-id="2316"><path d="M509.184 519.8336m-450.816 0a450.816 450.816 0 1 0 901.632 0 450.816 450.816 0 1 0-901.632 0Z" fill="#FBE1FF" p-id="2317"></path><path d="M851.2 663.3984c-1.0752-1.4848-2.2528-3.0208-3.4304-4.5568-6.656-8.7552-18.432-11.4176-28.0576-6.3488-24.7296 13.056-60.4672 26.0608-60.4672 26.0608s1.1264-31.3344-7.936-94.5664c-9.1136-63.232-26.4192-82.688-42.3424-102.7072-15.9232-20.0192-5.9904-33.3824 3.9936-37.12 9.9328-3.7888 14.4896-12.4928 14.4896-17.9712-3.1232-35.9936-58.5216-41.7792-78.4384-41.7792H473.9584s0-14.4896-24.9856-75.4176c-34.0992-73.1136-138.0864-61.2352-162.816-61.2352s-33.2288 2.048-33.2288 16.5376 0.4096 40.7552 1.6896 89.088c1.28 48.3328 11.0592 71.68 34.9696 71.68 23.8592 0 31.232-7.5264 38.3488-39.168 7.1168-31.6416 28.1088-15.36 30.4128-5.7856 9.3696 39.168-7.1168 62.976-14.4896 73.4208-46.0288 52.7872-64 142.3872-62.3616 165.376 4.7104 65.5872-21.76 59.7504-31.3856 56.8832-5.6832-1.6896-24.4736-10.24-39.0656-16.9472-10.4448-4.864-22.8352-0.8704-28.6208 9.2672l-2.6624 4.608c-5.9392 10.2912-3.1744 23.5008 6.4 30.3616 35.2256 25.1904 132.352 77.1584 333.8752 77.1584 201.1648 0 294.1952-57.2416 327.6288-85.1456a23.43424 23.43424 0 0 0 3.5328-31.6928z m-475.5456 32.8192c24.7296-94.0032 73.3184-153.1904 152.8832-153.1904 69.888 0 109.6704 58.3168 148.0192 153.1904-174.7456 55.7056-300.9024 0-300.9024 0z" fill="#BD50D3" p-id="2318"></path><path d="M565.5552 718.8992c-114.688 10.496-189.9008-22.6816-189.9008-22.6816 24.7296-94.0032 73.3184-153.1904 152.8832-153.1904 58.2144 0 95.488 40.448 128.512 108.7488a453.82656 453.82656 0 0 0 85.248-110.3872c-9.3696-31.1808-21.7088-45.568-33.3312-60.16-15.9232-20.0192-5.9904-33.3824 3.9936-37.12 9.9328-3.7888 14.4896-12.4928 14.4896-17.9712-3.1232-35.9936-58.5216-41.7792-78.4384-41.7792H473.9584s0-14.4896-24.9856-75.4176c-34.0992-73.1136-138.0864-61.2352-162.816-61.2352s-33.2288 2.048-33.2288 16.5376 0.4096 40.7552 1.6896 89.088c1.28 48.3328 11.0592 71.68 34.9696 71.68s31.232-7.5264 38.3488-39.168c7.1168-31.6416 28.1088-15.36 30.4128-5.7856 9.3696 39.168-7.1168 62.976-14.4896 73.4208-46.0288 52.7872-64 142.3872-62.3616 165.376 4.7104 65.5872-21.76 59.7504-31.3856 56.8832-5.6832-1.6896-24.4736-10.24-39.0656-16.9472-10.4448-4.864-22.8352-0.8704-28.6208 9.2672l-2.6624 4.608c-5.9392 10.2912-3.1744 23.5008 6.4 30.3616 27.0848 19.3536 90.7776 54.528 210.3296 69.7856a449.61792 449.61792 0 0 0 169.0624-53.9136z" fill="#C65EDB" p-id="2319"></path><path d="M281.4976 611.6352c144.4864-18.5344 267.5712-105.472 335.7696-227.2768H474.0096s0-14.4896-24.9856-75.4176c-34.0992-73.1136-138.0864-61.2352-162.816-61.2352s-33.2288 2.048-33.2288 16.5376 0.4096 40.7552 1.6896 89.088c1.28 48.3328 11.0592 71.68 34.9696 71.68s31.232-7.5264 38.3488-39.168c7.1168-31.6416 28.1088-15.36 30.4128-5.7856 9.3696 39.168-7.1168 62.976-14.4896 73.4208-42.24 48.2816-60.8768 127.5392-62.4128 158.1568z" fill="#CA6EE0" p-id="2320"></path><path d="M327.936 385.792c7.1168-31.6416 28.1088-15.36 30.4128-5.7856 0.1024 0.4096 0.1536 0.8192 0.256 1.2288a452.7616 452.7616 0 0 0 88.2688-76.4416c-36.0448-68.4544-136.448-57.088-160.7168-57.088-24.7296 0-33.2288 2.048-33.2288 16.5376s0.4096 40.7552 1.6896 89.088c1.0752 40.4992 8.192 63.3856 24.4736 69.7344a441.9584 441.9584 0 0 0 44.288-20.7872c1.5872-4.608 3.072-10.0352 4.5568-16.4864z" fill="#D786EA" p-id="2321"></path><path d="M316.9792 308.9408m-17.9712 0a17.9712 17.9712 0 1 0 35.9424 0 17.9712 17.9712 0 1 0-35.9424 0Z" fill="#FBE1FF" p-id="2322"></path></svg>