<svg class="icon" style="width: 1em;height: 1em;vertical-align: middle;fill: currentColor;overflow: hidden;" viewBox="0 0 1024 1024" version="1.1" xmlns="http://www.w3.org/2000/svg" p-id="3818"><path d="M508.416 513.1264m-450.816 0a450.816 450.816 0 1 0 901.632 0 450.816 450.816 0 1 0-901.632 0Z" fill="#FFE1E9" p-id="3819"></path><path d="M596.1728 322.2528H540.16v-44.8512h50.176c18.5856 0 33.6384-15.0528 33.6384-33.6384 0-18.5856-15.0528-33.6384-33.6384-33.6384h-64.8704c-28.9792 0-52.5312 23.552-52.5312 52.5312v59.5456H419.7376c-132.4544 0-239.872 107.3664-239.872 239.872 0 132.4544 107.3664 239.872 239.872 239.872h176.384c132.4544 0 239.872-107.3664 239.872-239.872 0.0512-132.4032-107.3664-239.8208-239.8208-239.8208zM421.376 595.2h-34.304v34.2528c0 18.5856-15.0528 33.6384-33.6384 33.6384-18.5856 0-33.6384-15.0528-33.6384-33.6384v-34.2528h-34.2528c-18.5856 0-33.6384-15.0528-33.6384-33.6384s15.0528-33.6384 33.6384-33.6384h34.2528v-34.2528c0-18.5856 15.0528-33.6384 33.6384-33.6384 18.5856 0 33.6384 15.0528 33.6384 33.6384v34.2528h34.2528c18.5856 0 33.6384 15.0528 33.6384 33.6384s-15.0528 33.6384-33.5872 33.6384z m196.7104-43.1616a44.032 44.032 0 0 1-44.032-44.032c0-24.32 19.712-44.032 44.032-44.032s44.032 19.712 44.032 44.032a44.032 44.032 0 0 1-44.032 44.032z m99.6864 99.1744a44.032 44.032 0 0 1-44.032-44.032 44.032 44.032 0 0 1 44.032-44.032 44.032 44.032 0 0 1 44.032 44.032 44.032 44.032 0 0 1-44.032 44.032z" fill="#FF3369" p-id="3820"></path><path d="M540.16 322.2528v-44.8512h50.176c18.5856 0 33.6384-15.0528 33.6384-33.6384 0-18.5856-15.0528-33.6384-33.6384-33.6384h-64.8704c-28.9792 0-52.5312 23.552-52.5312 52.5312v59.5456H419.7376c-132.4544 0-239.872 107.3664-239.872 239.872 0 132.4544 107.3664 239.872 239.872 239.872h100.4032a393.02144 393.02144 0 0 0 178.3296-155.2896c-14.6432-7.168-24.7296-22.1184-24.7296-39.5264a44.032 44.032 0 0 1 61.7984-40.2944 390.51264 390.51264 0 0 0 20.224-124.16c0-21.9136-1.8944-43.3664-5.3248-64.256-41.728-35.072-95.488-56.2176-154.2656-56.2176H540.16z m-118.784 272.9472h-34.304v34.2528c0 18.5856-15.0528 33.6384-33.6384 33.6384a33.5872 33.5872 0 0 1-33.5872-33.6384v-34.2528h-34.2528c-18.5856 0-33.6384-15.0528-33.6384-33.6384 0-18.5856 15.0528-33.6384 33.6384-33.6384h34.2528v-34.2528c0-18.5856 15.0528-33.6384 33.5872-33.6384 18.5856 0 33.6384 15.0528 33.6384 33.6384v34.2528h34.2528a33.5872 33.5872 0 0 1 33.5872 33.6384 33.54112 33.54112 0 0 1-33.536 33.6384z m240.7424-87.1936a44.032 44.032 0 0 1-44.032 44.032c-24.32 0-44.032-19.712-44.032-44.032s19.712-44.032 44.032-44.032c24.32 0.0512 44.032 19.7632 44.032 44.032z" fill="#FF4D7C" p-id="3821"></path><path d="M540.16 322.2528v-44.8512h50.176c18.5856 0 33.6384-15.0528 33.6384-33.6384 0-18.5856-15.0528-33.6384-33.6384-33.6384h-64.8704c-28.9792 0-52.5312 23.552-52.5312 52.5312v59.5456H419.7376c-132.4544 0-239.872 107.3664-239.872 239.872 0 48.4864 14.4384 93.5936 39.168 131.328 12.4928 1.1776 25.1392 1.8432 37.9392 1.8432 133.1712 0 250.7264-66.5088 321.4848-168.0896-2.816-5.7856-4.4544-12.288-4.4544-19.1488 0-22.9888 17.664-41.8304 40.1408-43.8272 18.944-42.0352 30.6688-87.9616 33.6384-136.3456-16.64-3.6352-33.8944-5.632-51.6608-5.632H540.16z m-118.784 272.9472h-34.304v34.2528c0 18.5856-15.0528 33.6384-33.6384 33.6384a33.5872 33.5872 0 0 1-33.5872-33.6384v-34.2528h-34.2528c-18.5856 0-33.6384-15.0528-33.6384-33.6384 0-18.5856 15.0528-33.6384 33.6384-33.6384h34.2528v-34.2528c0-18.5856 15.0528-33.6384 33.5872-33.6384 18.5856 0 33.6384 15.0528 33.6384 33.6384v34.2528h34.2528a33.5872 33.5872 0 0 1 33.5872 33.6384 33.54112 33.54112 0 0 1-33.536 33.6384z" fill="#FF5F89" p-id="3822"></path><path d="M256.8704 544.256a33.59232 33.59232 0 0 1 28.7744-16.2816h20.1728c4.7616-1.9456 9.472-3.9424 14.08-6.0928v-28.2112c0-18.5856 15.0528-33.6384 33.5872-33.6384 15.2064 0 28.0064 10.0864 32.1536 23.9104 87.9616-62.7712 148.8896-160.9728 161.792-273.8176h-22.016c-28.9792 0-52.5312 23.552-52.5312 52.5312v59.5456H419.7376c-130.4576 0-236.4928 104.1408-239.7184 233.8304a387.2768 387.2768 0 0 0 76.8512-11.776z" fill="#FF7196" p-id="3823"></path></svg>