<svg class="icon" style="width: 1em;height: 1em;vertical-align: middle;fill: currentColor;overflow: hidden;" viewBox="0 0 1024 1024" version="1.1" xmlns="http://www.w3.org/2000/svg" p-id="3269"><path d="M504.3712 514.7136m-450.816 0a450.816 450.816 0 1 0 901.632 0 450.816 450.816 0 1 0-901.632 0Z" fill="#E9ECFF" p-id="3270"></path><path d="M805.888 466.7392c-48.0256-165.3248-116.736-195.328-154.8288-195.328-38.144 0-64.4096 13.7216-78.7968 23.5008s-28.7744 17.3056-64.1024 17.3056c-35.328 0-54.5792-13.7728-66.6624-20.7872-12.0832-6.9632-36.9152-26.6752-77.5168-24.7808-43.0592 1.9968-146.7904 72.96-176.9984 251.0848-7.424 43.8784-28.8256 360.5504 183.6544 188.0064 35.328-28.672 86.4768-66.9696 133.4784-66.9696s72.5504 18.1248 110.6944 46.0288c38.144 27.904 104.7552 87.0912 156.2624 63.6928 45.9776-20.8896 79.9232-126.4128 34.816-281.7536z m-367.0528 33.2288h-31.6416v31.6416a29.8496 29.8496 0 1 1-59.6992 0v-31.6416h-31.6416a29.8496 29.8496 0 1 1 0-59.6992h31.6416v-31.6416a29.8496 29.8496 0 1 1 59.6992 0v31.6416h31.6416a29.8496 29.8496 0 1 1 0 59.6992z m188.3136-115.8656c17.408 0 31.5392 14.1312 31.5392 31.5392 0 17.408-14.1312 31.5392-31.5392 31.5392-17.408 0-31.5392-14.1312-31.5392-31.5392 0-17.4592 14.1312-31.5392 31.5392-31.5392z m-59.7504 122.8288c-17.408 0-31.5392-14.1312-31.5392-31.5392 0-17.408 14.1312-31.5392 31.5392-31.5392 17.408 0 31.5392 14.1312 31.5392 31.5392-0.0512 17.408-14.1312 31.5392-31.5392 31.5392z m59.7504 59.7504c-17.408 0-31.5392-14.1312-31.5392-31.5392 0-17.408 14.1312-31.5392 31.5392-31.5392 17.408 0 31.5392 14.1312 31.5392 31.5392 0 17.408-14.1312 31.5392-31.5392 31.5392z m59.7504-59.7504c-17.408 0-31.5392-14.1312-31.5392-31.5392 0-17.408 14.1312-31.5392 31.5392-31.5392 17.408 0 31.5392 14.1312 31.5392 31.5392 0 17.408-14.1312 31.5392-31.5392 31.5392z" fill="#6C6CEA" p-id="3271"></path><path d="M651.008 271.4624c-38.144 0-64.4096 13.7216-78.7968 23.5008-14.4384 9.7792-28.7744 17.3056-64.1024 17.3056-35.328 0-54.5792-13.7728-66.6624-20.7872-12.0832-6.9632-36.9152-26.6752-77.5168-24.7808-43.0592 1.9968-146.7904 72.96-176.9984 251.0848-7.424 43.8784-28.8256 360.5504 183.6544 188.0064 35.328-28.672 86.4768-66.9696 133.4784-66.9696 46.9504 0 72.5504 18.1248 110.6944 46.0288 9.1136 6.656 19.9168 15.1552 31.6928 23.8592 79.4112-71.5264 133.2736-170.8544 146.2272-282.6752-46.7456-129.6384-106.9056-154.5728-141.6704-154.5728zM438.8352 499.968h-31.6416v31.6416a29.8496 29.8496 0 1 1-59.6992 0v-31.6416h-31.6416a29.8496 29.8496 0 1 1 0-59.6992h31.6416v-31.6416a29.8496 29.8496 0 1 1 59.6992 0v31.6416h31.6416a29.8496 29.8496 0 1 1 0 59.6992z m188.3136-115.8656c17.408 0 31.5392 14.1312 31.5392 31.5392 0 17.408-14.1312 31.5392-31.5392 31.5392-17.408 0-31.5392-14.1312-31.5392-31.5392 0-17.4592 14.1312-31.5392 31.5392-31.5392z m-59.7504 122.8288c-17.408 0-31.5392-14.1312-31.5392-31.5392 0-17.408 14.1312-31.5392 31.5392-31.5392s31.5392 14.1312 31.5392 31.5392c-0.0512 17.408-14.1312 31.5392-31.5392 31.5392z m59.7504 59.7504c-17.408 0-31.5392-14.1312-31.5392-31.5392s14.1312-31.5392 31.5392-31.5392c17.408 0 31.5392 14.1312 31.5392 31.5392s-14.1312 31.5392-31.5392 31.5392z m59.7504-59.7504c-17.408 0-31.5392-14.1312-31.5392-31.5392 0-17.408 14.1312-31.5392 31.5392-31.5392s31.5392 14.1312 31.5392 31.5392c0 17.408-14.1312 31.5392-31.5392 31.5392z" fill="#757BF2" p-id="3272"></path><path d="M564.0192 506.7264a31.52384 31.52384 0 1 1 32.6656-43.008c4.7104-7.0656 9.216-14.2336 13.5168-21.5552-8.7552-5.5808-14.5408-15.36-14.5408-26.5216 0-17.408 14.1312-31.5392 31.5392-31.5392 3.8912 0 7.5776 0.7168 11.008 1.9968a446.15168 446.15168 0 0 0 30.2592-112.64c-6.2976-1.4336-12.1344-1.9968-17.408-1.9968-38.144 0-64.4096 13.7216-78.7968 23.5008-14.4384 9.7792-28.7744 17.3056-64.1024 17.3056-35.328 0-54.5792-13.7728-66.6624-20.7872-12.0832-6.9632-36.9152-26.6752-77.5168-24.7808-43.0592 1.9968-146.7904 72.96-176.9984 251.0848-3.1744 18.6368-8.8576 86.6816 1.9968 145.408 10.752 0.768 21.6576 1.1776 32.6144 1.1776 137.0112-0.0512 259.7376-61.184 342.4256-157.6448zM315.8528 440.2688h31.6416v-31.6416a29.8496 29.8496 0 1 1 59.6992 0v31.6416h31.6416a29.8496 29.8496 0 1 1 0 59.6992h-31.6416v31.6416a29.8496 29.8496 0 1 1-59.6992 0v-31.6416h-31.6416a29.8496 29.8496 0 1 1 0-59.6992z" fill="#8486F8" p-id="3273"></path><path d="M441.4464 291.4304c-12.0832-6.9632-36.9152-26.6752-77.5168-24.7808-41.3184 1.8944-138.6496 67.4816-173.0048 230.5536a448.3072 448.3072 0 0 0 95.1808-28.8768c0.9728-15.616 13.8752-28.0064 29.7472-28.0064h24.832c2.304-1.3824 4.5568-2.816 6.8608-4.2496v-27.4432a29.8496 29.8496 0 0 1 29.8496-29.8496 29.7472 29.7472 0 0 1 26.2656 15.7184 453.64736 453.64736 0 0 0 76.3904-85.6064c-18.3296-4.5056-30.208-12.5952-38.6048-17.4592z" fill="#8D92F8" p-id="3274"></path></svg>