<svg class="icon" style="width: 1em;height: 1em;vertical-align: middle;fill: currentColor;overflow: hidden;" viewBox="0 0 1024 1024" version="1.1" xmlns="http://www.w3.org/2000/svg" p-id="1347"><path d="M511.0784 517.7856m-450.816 0a450.816 450.816 0 1 0 901.632 0 450.816 450.816 0 1 0-901.632 0Z" fill="#FFE1E9" p-id="1348"></path><path d="M511.8464 517.7856l238.1824-208.9984c-58.112-66.1504-143.2576-107.9808-238.1824-107.9808-175.0528 0-316.9792 141.9264-316.9792 316.9792s141.9264 316.9792 316.9792 316.9792c107.5712 0 202.5984-53.6576 259.8912-135.5776l-259.8912-181.4016zM482.304 342.3744c0-25.088 20.3264-45.4144 45.4144-45.4144s45.4144 20.3264 45.4144 45.4144-20.3264 45.4144-45.4144 45.4144-45.4144-20.3264-45.4144-45.4144z" fill="#FF3369" p-id="1349"></path><path d="M661.248 509.6448m-45.9264 0a45.9264 45.9264 0 1 0 91.8528 0 45.9264 45.9264 0 1 0-91.8528 0Z" fill="#FF4D7C" p-id="1350"></path><path d="M781.3632 509.6448m-45.9264 0a45.9264 45.9264 0 1 0 91.8528 0 45.9264 45.9264 0 1 0-91.8528 0Z" fill="#FF3369" p-id="1351"></path><path d="M666.624 625.8176l-154.7776-108.032 204.8512-179.712a428.29824 428.29824 0 0 0-20.9408-78.2336c-51.8656-37.0688-115.3024-58.9824-183.9104-58.9824-175.0528 0-316.9792 141.9264-316.9792 316.9792 0 146.432 99.328 269.6192 234.24 306.0224 101.2736-35.0208 185.5488-106.1888 237.5168-198.0416z m-184.32-283.4432c0-25.088 20.3264-45.4144 45.4144-45.4144s45.4144 20.3264 45.4144 45.4144c0 25.088-20.3264 45.4144-45.4144 45.4144s-45.4144-20.3264-45.4144-45.4144z" fill="#FF4D7C" p-id="1352"></path><path d="M515.0208 519.9872l-3.1744-2.2016 13.2608-11.6736c49.408-70.7072 78.4384-156.7232 78.4384-249.5488 0-14.4384-0.7168-28.7232-2.0992-42.8032a315.74528 315.74528 0 0 0-89.6512-12.9536c-175.0528 0-316.9792 141.9264-316.9792 316.9792 0 61.8496 17.7664 119.552 48.4352 168.3456 110.5408-19.4048 206.6944-80.3328 271.7696-166.144z m12.6976-222.976c25.088 0 45.4144 20.3264 45.4144 45.4144 0 25.088-20.3264 45.4144-45.4144 45.4144s-45.4144-20.3264-45.4144-45.4144c0-25.088 20.3264-45.4144 45.4144-45.4144z" fill="#FF5F89" p-id="1353"></path><path d="M194.9184 516.3008c142.6944-47.2576 252.7232-166.144 287.4368-314.112-160.7168 14.848-286.6688 149.7088-287.4368 314.112z" fill="#FF7196" p-id="1354"></path></svg>