<svg class="icon" style="width: 1em;height: 1em;vertical-align: middle;fill: currentColor;overflow: hidden;" viewBox="0 0 1024 1024" version="1.1" xmlns="http://www.w3.org/2000/svg" p-id="2981"><path d="M504.32 519.8336m-450.816 0a450.816 450.816 0 1 0 901.632 0 450.816 450.816 0 1 0-901.632 0Z" fill="#FFE3DB" p-id="2982"></path><path d="M798.6176 428.3904c-5.2224-21.5552-24.9856-57.3952-45.4656-86.8864-9.0112-12.9536-28.9792-9.7792-33.6896 5.3248-7.3728 23.3472-19.0976 50.176-39.4752 74.2912-3.7376 4.4032-11.008 2.1504-11.3664-3.6352-3.8912-59.7504-32.2048-214.2208-231.8848-235.9296-13.7728-1.4848-24.5248 11.8784-20.0192 24.9856 15.0528 44.032 27.136 128.6656-41.8304 180.5312-2.816 2.0992-6.7072 1.3824-8.9088-1.3312-22.9888-29.2864-51.6608-47.2576-90.5216-54.528-13.568-2.5088-24.9856 9.8304-21.8624 23.296 6.0416 25.9584 8.5504 70.2464-16.1792 130.56-41.5232 101.12-89.3952 345.344 291.584 345.344s276.9408-371.7632 269.6192-402.0224z m-444.7744 272.896a30.27968 30.27968 0 0 1-42.8544-1.4336c-50.7392-54.272-28.672-155.4944-26.0096-166.8608 3.84-16.2816 20.1728-26.4192 36.4544-22.528a30.2592 30.2592 0 0 1 22.528 36.4032c-4.8128 20.6848-13.056 85.504 11.264 111.5648 11.4688 12.2368 10.8544 31.4368-1.3824 42.8544z" fill="#F23D4F" p-id="2983"></path><path d="M792.1664 409.7536c-8.7552-20.5312-23.7056-46.1824-39.0144-68.2496-9.0112-12.9536-28.9792-9.7792-33.6896 5.3248-7.3728 23.3472-19.0976 50.176-39.4752 74.2912-3.7376 4.4032-11.008 2.1504-11.3664-3.6352-3.8912-59.7504-32.2048-214.2208-231.8848-235.9296-13.7728-1.4848-24.5248 11.8784-20.0192 24.9856 15.0528 44.032 27.136 128.6656-41.8304 180.5312-2.816 2.0992-6.7072 1.3824-8.9088-1.3312-22.9888-29.2864-51.6608-47.2576-90.5216-54.528-13.568-2.5088-24.9856 9.8304-21.8624 23.296 6.0416 25.9584 8.5504 70.2464-16.1792 130.56-36.2496 88.2688-77.2608 285.4912 166.144 334.2848 211.8144-20.9408 378.624-194.7648 388.608-409.6z m-438.3232 291.5328a30.27968 30.27968 0 0 1-42.8544-1.4336c-50.7392-54.272-28.672-155.4944-26.0096-166.8608 3.84-16.2816 20.1728-26.4192 36.4544-22.528a30.2592 30.2592 0 0 1 22.528 36.4032c-4.8128 20.6848-13.056 85.504 11.264 111.5648 11.4688 12.2368 10.8544 31.4368-1.3824 42.8544z" fill="#FC4956" p-id="2984"></path><path d="M657.7664 354.9696c-19.8144-69.1712-73.7792-157.3888-221.0816-173.4144-13.7728-1.4848-24.5248 11.8784-20.0192 24.9856 15.0528 44.032 27.136 128.6656-41.8304 180.5312-2.816 2.0992-6.7072 1.3824-8.9088-1.3312-22.9888-29.2864-51.6608-47.2576-90.5216-54.528-13.568-2.5088-24.9856 9.8304-21.8624 23.296 6.0416 25.9584 8.5504 70.2464-16.1792 130.56-18.1248 44.1344-37.4784 115.5584-21.76 182.0672 8.9088 0.5632 17.8176 0.9216 26.88 0.9216 15.9232 0 31.5904-0.9216 47.0528-2.6112-21.76-54.528-6.7584-123.136-4.608-132.4032 3.84-16.2816 20.1728-26.4192 36.4544-22.528a30.2592 30.2592 0 0 1 22.528 36.4032c-4.5568 19.6096-12.1344 78.848 7.7824 107.1104 147.6096-38.4512 264.2944-152.9344 306.0736-299.0592z" fill="#FF5C64" p-id="2985"></path><path d="M436.6848 181.5552c-13.7728-1.4848-24.5248 11.8784-20.0192 24.9856 15.0528 44.032 27.136 128.6656-41.8304 180.5312-2.816 2.0992-6.7072 1.3824-8.9088-1.3312-22.9888-29.2864-51.6608-47.2576-90.5216-54.528-13.568-2.5088-24.9856 9.8304-21.8624 23.296 6.0416 25.9584 8.5504 70.2464-16.1792 130.56a452.3008 452.3008 0 0 0-7.2704 19.1488c149.8112-34.1504 270.0288-146.0224 315.7504-291.072-28.9792-15.4112-64.8192-26.7776-109.1584-31.5904z" fill="#FF716E" p-id="2986"></path></svg>