<svg class="icon" style="width: 1em;height: 1em;vertical-align: middle;fill: currentColor;overflow: hidden;" viewBox="0 0 1024 1024" version="1.1" xmlns="http://www.w3.org/2000/svg" p-id="6410"><path d="M514.6112 515.84m-450.816 0a450.816 450.816 0 1 0 901.632 0 450.816 450.816 0 1 0-901.632 0Z" fill="#E3FFF3" p-id="6411"></path><path d="M735.9488 252.3136H300.6464c-37.0688 0-67.1232 30.0544-67.1232 67.1232v324.9152c0 37.0688 30.0544 67.1232 67.1232 67.1232h27.4944c14.2336 0 25.8048 11.5712 25.8048 25.8048v59.0848c0 21.0944 23.9104 33.28 40.96 20.8896l139.264-100.9152c4.4032-3.1744 9.728-4.9152 15.1552-4.9152h186.624c37.0688 0 67.1232-30.0544 67.1232-67.1232V319.4368c0-37.0688-30.0544-67.1232-67.1232-67.1232z m-67.328 257.0752c-44.8512 47.0528-94.6176 70.8608-147.968 70.8608h-1.792c-88.2176-0.8704-151.2448-68.4544-153.856-71.3216-12.8512-13.9776-11.8784-35.7376 2.0992-48.5888a34.4064 34.4064 0 0 1 48.4864 1.9968c0.9216 0.9728 46.4896 48.8448 104.448 49.152 33.9968 0.1536 67.2768-16.4864 98.816-49.5616a34.38592 34.38592 0 0 1 48.64-1.1264c13.7216 13.1072 14.2848 34.8672 1.1264 48.5888z" fill="#05C46D" p-id="6412"></path><path d="M782.1312 270.848a66.87744 66.87744 0 0 0-46.1824-18.4832H300.6464c-37.0688 0-67.1232 30.0544-67.1232 67.1232v324.9152c0 37.0688 30.0544 67.1232 67.1232 67.1232h27.4944c14.2336 0 25.8048 11.5712 25.8048 25.8048v38.3488c47.4112-1.9968 92.9792-11.3152 135.5264-26.88l44.6976-32.4096c4.4032-3.1744 9.728-4.9152 15.1552-4.9152h17.92c130.7136-78.9504 218.1632-222.3616 218.1632-386.2016 0-18.432-1.1264-36.608-3.2768-54.4256z m-113.5104 238.5408c-44.8512 47.0528-94.6176 70.8608-147.968 70.8608h-1.792c-88.2176-0.8704-151.2448-68.4544-153.856-71.3216-12.8512-13.9776-11.8784-35.7376 2.0992-48.5888a34.4064 34.4064 0 0 1 48.4864 1.9968c0.9216 0.9728 46.4896 48.8448 104.448 49.152 33.9968 0.1536 67.2768-16.4864 98.816-49.5616a34.33984 34.33984 0 0 1 48.64-1.1264c13.7216 13.1072 14.2848 34.8672 1.1264 48.5888z" fill="#1DCE75" p-id="6413"></path><path d="M432.2816 558.1824c-40.3456-20.2752-65.6384-47.4624-67.2768-49.2544-12.8512-13.9776-11.8784-35.7376 2.0992-48.5888a34.4064 34.4064 0 0 1 48.4864 1.9968c0.8192 0.8704 37.2736 39.0144 86.3232 47.4624 76.8-64.8704 131.6352-154.9312 151.7056-257.4336H300.6464c-37.0688 0-67.1232 30.0544-67.1232 67.1232v295.9872a448.70656 448.70656 0 0 0 198.7584-57.2928z" fill="#3CD38E" p-id="6414"></path><path d="M475.2384 252.3136h-174.592c-37.0688 0-67.1232 30.0544-67.1232 67.1232v116.224C333.7728 404.0704 418.816 338.432 475.2384 252.3136z" fill="#48E1AA" p-id="6415"></path></svg>