<svg class="icon" style="width: 1em;height: 1em;vertical-align: middle;fill: currentColor;overflow: hidden;" viewBox="0 0 1024 1024" version="1.1" xmlns="http://www.w3.org/2000/svg" p-id="930"><path d="M515.3792 508.4672m-450.816 0a450.816 450.816 0 1 0 901.632 0 450.816 450.816 0 1 0-901.632 0Z" fill="#E9ECFF" p-id="931"></path><path d="M801.28 758.9888l-114.5856-84.9408h26.4192c39.0144 0 70.6048-31.6416 70.6048-70.6048l-15.36-318.72c0-39.0144-31.6416-70.6048-70.6048-70.6048h-52.0192c-3.7376-15.1552-17.3568-26.4192-33.6896-26.4192H416.9216c-16.3328 0-29.952 11.264-33.6896 26.4192H331.2128c-39.0144 0-70.6048 31.6416-70.6048 70.6048l-15.36 318.72c0 39.0144 31.6416 70.6048 70.6048 70.6048h25.1392l-113.6128 84.992c-8.5504 6.4-4.0448 20.0192 6.656 20.0192h560.64c10.7008 0 15.2064-13.6704 6.6048-20.0704z m-475.4432-11.6736l30.208-27.5456 315.136 2.6624 22.2208 24.9344H325.8368z m361.8304-116.3264c-22.3232 0-40.3968-18.0736-40.3968-40.3968 0-22.3232 18.0736-40.3968 40.3968-40.3968 22.3232 0 40.3968 18.0736 40.3968 40.3968 0 22.3232-18.0736 40.3968-40.3968 40.3968zM409.7536 243.1488h209.4592v26.4192H409.7536v-26.4192zM318.9248 339.456a27.9552 27.9552 0 0 1 27.9552-27.9552h335.2064a27.9552 27.9552 0 0 1 27.9552 27.9552l15.36 138.5984a27.9552 27.9552 0 0 1-27.9552 27.9552H331.52a27.9552 27.9552 0 0 1-27.9552-27.9552l15.36-138.5984z m-20.224 251.136c0-22.3232 18.0736-40.3968 40.3968-40.3968 22.3232 0 40.3968 18.0736 40.3968 40.3968 0 22.3232-18.0736 40.3968-40.3968 40.3968-22.3232 0-40.3968-18.0736-40.3968-40.3968z m339.1488 83.456l18.2272 21.9136H372.3264l20.736-21.9136h244.7872z" fill="#6D6DF2" p-id="932"></path><path d="M554.5472 747.3152H325.8368l30.208-27.5456 240.0256 1.9968a459.8784 459.8784 0 0 0 33.792-25.8048h-257.536l20.736-21.9136h244.7872l7.168 8.6016a453.0688 453.0688 0 0 0 48.4352-52.1216c-1.8944 0.256-3.7888 0.4608-5.7856 0.4608-22.3232 0-40.3968-18.0736-40.3968-40.3968s18.0736-40.3968 40.3968-40.3968c19.3024 0 35.4304 13.5168 39.424 31.6416 22.0672-36.864 39.0144-77.1584 49.8176-119.8592l-8.5504-177.2544c0-39.0144-31.6416-70.6048-70.6048-70.6048h-52.0192c-3.7376-15.1552-17.3568-26.4192-33.6896-26.4192H416.9216c-16.3328 0-29.952 11.264-33.6896 26.4192H331.2128c-39.0144 0-70.6048 31.6416-70.6048 70.6048l-15.36 318.72c0 39.0144 31.6416 70.6048 70.6048 70.6048h25.1392l-113.6128 84.992c-8.5504 6.4-4.0448 20.0192 6.656 20.0192h246.9888c25.6-8.448 50.176-19.0976 73.5232-31.744zM409.7536 243.1488h209.4592v26.4192H409.7536v-26.4192zM318.9248 339.456a27.9552 27.9552 0 0 1 27.9552-27.9552h335.2064a27.9552 27.9552 0 0 1 27.9552 27.9552l15.36 138.5984a27.9552 27.9552 0 0 1-27.9552 27.9552H331.52a27.9552 27.9552 0 0 1-27.9552-27.9552l15.36-138.5984z m20.1728 291.5328c-22.3232 0-40.3968-18.0736-40.3968-40.3968s18.0736-40.3968 40.3968-40.3968c22.3232 0 40.3968 18.0736 40.3968 40.3968s-18.0736 40.3968-40.3968 40.3968z" fill="#757BF2" p-id="933"></path><path d="M298.7008 590.592c0-22.3232 18.0736-40.3968 40.3968-40.3968 22.3232 0 40.3968 18.0736 40.3968 40.3968 0 8.7552-2.816 16.7936-7.5264 23.3984 63.5392-23.3472 120.32-60.5696 166.7584-107.9808H331.52a27.9552 27.9552 0 0 1-27.9552-27.9552l15.36-138.5984a27.9552 27.9552 0 0 1 27.9552-27.9552h304.1792c8.6528-31.232 14.08-63.8464 15.8208-97.4336h-21.0944c-3.7376-15.1552-17.3568-26.4192-33.6896-26.4192H416.9216c-16.3328 0-29.952 11.264-33.6896 26.4192H331.2128c-39.0144 0-70.6048 31.6416-70.6048 70.6048l-15.36 318.72c0 13.312 3.7376 25.7536 10.1888 36.4032 23.7568-1.9968 46.9504-5.888 69.4784-11.4176-15.3088-5.7344-26.2144-20.48-26.2144-37.7856z m111.0528-347.4432h209.4592v26.4192H409.7536v-26.4192z" fill="#8486F8" p-id="934"></path><path d="M308.5824 432.5888l10.3424-93.1328a27.9552 27.9552 0 0 1 27.9552-27.9552h109.3632a444.7744 444.7744 0 0 0 29.5936-41.9328H409.7536v-26.4192h91.392a451.072 451.072 0 0 0 24.9856-55.5008H416.9216c-16.3328 0-29.952 11.264-33.6896 26.4192H331.2128c-39.0144 0-70.6048 31.6416-70.6048 70.6048l-8.3456 172.032c19.4048-6.8096 38.2464-14.848 56.32-24.1152z" fill="#8D92F8" p-id="935"></path></svg>