<svg class="icon" style="width: 1em;height: 1em;vertical-align: middle;fill: currentColor;overflow: hidden;" viewBox="0 0 1024 1024" version="1.1" xmlns="http://www.w3.org/2000/svg" p-id="3863"><path d="M513.2288 514.7136m-450.816 0a450.816 450.816 0 1 0 901.632 0 450.816 450.816 0 1 0-901.632 0Z" fill="#FFF1DC" p-id="3864"></path><path d="M818.7904 467.2512c30.5664-29.7984 13.6704-81.664-28.5184-87.808l-77.6704-11.264c-0.8704 1.792-1.8944 3.5328-3.1232 5.1712l-147.6096 196.6592a32.7168 32.7168 0 0 1-14.336 10.8544l-93.0816 35.9424c-23.8592 9.216-48.5888-11.4176-43.7248-36.5568l17.4592-90.9312c0.9216-4.864 2.9696-9.472 5.9392-13.4144l154.112-205.312-29.2352-59.1872c-18.8928-38.2464-73.4208-38.2464-92.3136 0L407.1936 331.9808a51.40992 51.40992 0 0 1-38.7584 28.16l-133.0176 19.3536c-42.1888 6.144-59.0848 58.0096-28.5184 87.808l96.256 93.8496c12.1344 11.8272 17.664 28.8768 14.7968 45.568l-22.7328 132.5056c-7.2192 42.0352 36.9152 74.0864 74.6496 54.272l118.9888-62.5664c15.0016-7.8848 32.9216-7.8848 47.872 0l118.9888 62.5664c37.7344 19.8656 81.8688-12.1856 74.6496-54.272l-22.7328-132.5056c-2.8672-16.6912 2.6624-33.7408 14.7968-45.568l96.3584-93.9008z" fill="#FF8E12" p-id="3865"></path><path d="M534.3232 529.9712l-55.1424-41.216 186.3168-249.1392c3.1744-4.2496 9.1648-5.12 13.4144-1.9456l39.7824 29.7472c4.2496 3.1744 5.12 9.1648 1.9456 13.4144l-186.3168 249.1392z" fill="#FCA315" p-id="3866"></path><path d="M469.1968 503.808l51.6096 40.0896-54.528 29.3888c-6.2976 3.4304-13.6704-2.304-11.9808-9.2672l14.8992-60.2112z" fill="#FCB138" p-id="3867"></path><path d="M745.3696 372.9408l-32.768-4.7616c-0.8704 1.792-1.8944 3.5328-3.1232 5.1712l-147.6096 196.6592a32.7168 32.7168 0 0 1-14.336 10.8544l-93.0816 35.9424c-23.8592 9.216-48.5888-11.4176-43.7248-36.5568l17.4592-90.9312c0.9216-4.864 2.9696-9.472 5.9392-13.4144l154.112-205.312-29.184-59.1872c-18.8928-38.2464-73.4208-38.2464-92.3136 0L407.1936 331.9808a51.40992 51.40992 0 0 1-38.7584 28.16l-133.0176 19.3536c-42.1888 6.144-59.0848 58.0096-28.5184 87.808l96.256 93.8496c12.1344 11.8272 17.664 28.8768 14.7968 45.568l-22.7328 132.5056c-7.2192 42.0352 36.9152 74.0864 74.6496 54.272l118.9888-62.5664c15.0016-7.8848 32.9216-7.8848 47.872 0l23.9616 12.5952c111.7696-70.5024 186.112-195.0208 186.112-336.9472 0.0512-11.3664-0.512-22.5792-1.4336-33.6384z" fill="#FCA315" p-id="3868"></path><path d="M309.2992 657.1008a395.648 395.648 0 0 0 118.9888-41.4208c-12.3392-6.144-20.5824-19.8656-17.6128-35.3792l17.4592-90.9312c0.9216-4.864 2.9696-9.472 5.9392-13.4144l154.112-205.312-29.184-59.1872c-18.8928-38.2464-73.4208-38.2464-92.3136 0L407.1936 331.9808a51.40992 51.40992 0 0 1-38.7584 28.16l-133.0176 19.3536c-42.1888 6.144-59.0848 58.0096-28.5184 87.808l96.256 93.8496c12.1344 11.8272 17.664 28.8768 14.7968 45.568l-8.6528 50.3808z" fill="#FCB138" p-id="3869"></path><path d="M479.1808 488.7552l55.1424 41.216 53.5552-71.6288c30.0544-54.016 47.8208-115.7632 49.7664-181.4528L479.1808 488.7552z" fill="#FCB138" p-id="3870"></path><path d="M532.8896 186.7264c-23.5008-9.728-53.1968-1.536-66.1504 24.7296L407.1936 331.9808a51.40992 51.40992 0 0 1-38.7584 28.16l-133.0176 19.3536c-42.1888 6.144-59.0848 58.0096-28.5184 87.808l41.0624 40.0384c147.712-41.728 260.5568-166.4 284.928-320.6144z" fill="#FFC65E" p-id="3871"></path></svg>