<svg class="icon" style="width: 1em;height: 1em;vertical-align: middle;fill: currentColor;overflow: hidden;" viewBox="0 0 1024 1024" version="1.1" xmlns="http://www.w3.org/2000/svg" p-id="2111"><path d="M505.088 513.1264m-450.816 0a450.816 450.816 0 1 0 901.632 0 450.816 450.816 0 1 0-901.632 0Z" fill="#FFF7DC" p-id="2112"></path><path d="M356.6592 575.0784c0-54.5792 0.3584-109.1584-0.2048-163.6864-0.1536-15.872 5.5296-24.2176 20.992-29.5424 58.88-20.2752 93.7472-63.1296 110.848-121.9072 5.9392-20.4288 11.4176-41.216 19.7632-60.672 13.4656-31.5904 38.2464-42.7008 72.6528-35.328 26.5216 5.6832 43.3152 28.3648 43.5712 60.16 0.3584 40.4992 0.0512 80.9984 0.1536 121.4976 0.0512 22.2208 3.9424 26.7264 26.5728 26.9824 45.568 0.512 91.1872 1.536 136.704-0.256 40.5504-1.5872 69.9392 24.832 59.7504 69.9904-12.2368 54.0672-27.648 107.4688-42.7008 160.8704-9.2672 32.9216-20.1728 65.4336-30.8736 97.9456-14.1312 43.008-40.448 62.0544-84.8896 62.0544H390.2976c-32.1024 0-33.6384-1.536-33.6384-32.8704v-155.2384z" fill="#FF8E12" p-id="2113"></path><path d="M307.8656 573.9008c0 52.8896 0.1024 105.7792-0.0512 158.6688-0.1024 26.0096-4.9152 30.6176-30.3616 30.6688-7.3216 0-14.6432 0.0512-21.9648 0-29.8496-0.1536-44.032-14.08-44.2368-44.6976-0.3072-55.1424-0.1024-110.2848-0.1024-165.4272 0-40.4992-0.1536-81.0496 0.0512-121.5488 0.2048-32.2048 15.7696-47.616 47.5136-47.7184 49.1008-0.2048 49.152-0.2048 49.152 48.2304 0.0512 47.2576 0.0512 94.5152 0 141.824zM812.1344 379.5968c0-1.4848-0.1024-2.9184-0.1024-4.352-7.424-2.1504-15.5648-3.1744-24.2688-2.8672-45.5168 1.792-91.136 0.7168-136.704 0.256-22.6304-0.256-26.5216-4.7616-26.5728-26.9824-0.1024-40.4992 0.1536-80.9984-0.1536-121.4976-0.256-31.7952-17.0496-54.4768-43.5712-60.16-34.4064-7.3728-59.1872 3.7376-72.6528 35.328-8.2944 19.5072-13.7728 40.2432-19.7632 60.672-17.152 58.7776-51.968 101.632-110.848 121.9072-15.4624 5.3248-21.1456 13.6704-20.992 29.5424 0.5632 54.5792 0.2048 109.1584 0.2048 163.6864v155.2896c0 31.3344 1.5872 32.8704 33.6384 32.8704h168.0384c149.1456-63.488 253.7472-211.3536 253.7472-383.6928z" fill="#FCA315" p-id="2114"></path><path d="M258.7648 383.8976c-31.744 0.1024-47.36 15.5136-47.5136 47.7184-0.256 40.4992-0.1024 81.0496-0.0512 121.5488 0 29.7472-0.0512 59.4432-0.0512 89.1904 22.8352 3.8912 46.2848 5.9904 70.2464 5.9904 8.9088 0 17.7664-0.3584 26.5216-0.9216 0-24.5248-0.0512-48.9984-0.0512-73.5232V432.128c0.0512-48.4352 0-48.4352-49.1008-48.2304zM673.536 372.8896c-7.4752-0.1024-15.0016-0.2048-22.4768-0.256-22.6304-0.256-26.5216-4.7616-26.5728-26.9824-0.1024-40.4992 0.1536-80.9984-0.1536-121.4976-0.256-31.7952-17.0496-54.4768-43.5712-60.16-34.4064-7.3728-59.1872 3.7376-72.6528 35.328-8.2944 19.5072-13.7728 40.2432-19.7632 60.672-17.152 58.7776-51.968 101.632-110.848 121.9072-15.4624 5.3248-21.1456 13.6704-20.992 29.5424 0.5632 54.5792 0.2048 109.1584 0.2048 163.6864v66.3552c147.0464-26.88 267.1616-130.8672 316.8256-268.5952z" fill="#FCB138" p-id="2115"></path><path d="M585.3696 165.1712c-1.4848-0.4608-3.072-0.8704-4.608-1.2288-34.4064-7.3728-59.1872 3.7376-72.6528 35.328-8.2944 19.5072-13.7728 40.2432-19.7632 60.672-17.152 58.7776-51.968 101.632-110.848 121.9072-15.4624 5.3248-21.1456 13.6704-20.992 29.5424 0.1536 16.1792 0.256 32.4096 0.3072 48.5888 116.4288-55.9104 202.8544-164.4544 228.5568-294.8096zM258.7648 383.8976c-31.744 0.1024-47.36 15.5136-47.5136 47.7184-0.1536 22.5792-0.1536 45.1584-0.1024 67.7376 33.536-2.7648 65.9456-9.472 96.768-19.712V432.128c0-48.4352-0.0512-48.4352-49.152-48.2304z" fill="#FFC65E" p-id="2116"></path></svg>