<svg class="icon" style="width: 1em;height: 1em;vertical-align: middle;fill: currentColor;overflow: hidden;" viewBox="0 0 1024 1024" version="1.1" xmlns="http://www.w3.org/2000/svg" p-id="1599"><path d="M511.232 516.608m-450.816 0a450.816 450.816 0 1 0 901.632 0 450.816 450.816 0 1 0-901.632 0Z" fill="#FFF1DC" p-id="1600"></path><path d="M614.4512 551.5264c-58.624 66.7136-165.6832 56.6784-211.0464-0.5632-23.552 27.648-53.1968 44.3904-89.6 46.592-63.0272 3.7376-116.7872-32.7168-129.6896-98.048-3.9424-20.0192 1.8432-43.776 8.8576-63.7952 26.368-75.264 84.48-119.1936 155.4432-147.968 24.1664-9.8304 50.0736-15.4112 75.4688-22.016 4.2496-1.1264 11.52 1.1264 14.3872 4.4032 39.7824 45.568 112.7424 36.9664 141.0048-0.768 2.2016-2.9696 8.448-5.1712 12.1344-4.4544 81.7664 15.9744 153.7536 49.664 205.2608 117.8624 20.48 27.136 35.5328 57.856 39.2192 92.0064 5.4784 50.8928-33.4848 103.2192-86.016 117.6576-53.0432 14.6432-97.6384-0.5632-135.424-40.9088z" fill="#FF8E12" p-id="1601"></path><path d="M760.2176 636.4672c-13.7216 50.5856-26.3168 98.5088-39.8336 146.1248-5.376 18.8928-17.7664 27.9552-37.4272 28.0064-116.1216 0.256-232.192 0.256-348.3136 0.0512-20.0192-0.0512-31.3344-8.0384-36.6592-26.4704-14.1312-48.9984-27.4432-98.2016-41.9328-150.2208 57.9584 15.6672 108.5952 6.912 149.5552-37.1712 54.3744 62.976 150.1696 62.6688 204.8 1.4336 40.8064 43.4688 90.5216 55.1936 149.8112 38.2464z" fill="#FF8E12" p-id="1602"></path><path d="M558.4896 215.9616c-0.3584 29.3888-21.4016 49.408-51.2 48.7936-26.7776-0.512-49.7152-23.9104-49.0496-50.0224 0.6656-26.88 23.7056-49.4592 50.176-49.152 28.9792 0.3584 50.3808 21.9136 50.0736 50.3808z" fill="#FCB138" p-id="1603"></path><path d="M697.6 643.2768c-32.6656-3.1232-61.696-17.8688-87.1936-45.056-54.6304 61.2352-150.4256 61.5424-204.8-1.4336-40.96 44.0832-91.5968 52.8384-149.5552 37.1712 14.4384 52.0192 27.8016 101.2224 41.9328 150.2208 5.3248 18.432 16.5888 26.4192 36.6592 26.4704 36.5568 0.0512 73.1136 0.0512 109.6704 0.1024 103.7312-23.1424 193.2288-83.968 253.2864-167.4752z" fill="#FCA315" p-id="1604"></path><path d="M776.192 358.6048c-49.3568-52.224-113.3568-79.7184-184.7808-93.6448-3.7376-0.7168-9.9328 1.4848-12.1344 4.4544-28.2624 37.6832-101.2224 46.336-141.0048 0.768-2.8672-3.2768-10.1376-5.5296-14.3872-4.4032-25.344 6.6048-51.3024 12.2368-75.4688 22.016-70.9632 28.7744-129.1264 72.704-155.4432 147.968-7.0144 20.0192-12.8 43.776-8.8576 63.7952 12.9024 65.3312 66.6624 101.7856 129.6896 98.048 36.4032-2.1504 66.048-18.8928 89.6-46.592 45.3632 57.2928 152.4736 67.328 211.0464 0.5632 32.1536 34.304 69.2736 50.3296 112.2816 45.4144 32.5632-60.2624 51.0976-129.2288 51.0976-202.5472 0-12.0832-0.6144-24.0128-1.6384-35.84z" fill="#FCA315" p-id="1605"></path><path d="M405.6064 596.7872c-40.96 44.0832-91.5968 52.8384-149.5552 37.1712 3.2256 11.5712 6.3488 22.9888 9.5232 34.3552 59.9552-4.3008 116.4288-20.992 166.9632-47.5136-9.6768-6.656-18.7904-14.592-26.9312-24.0128zM659.1488 283.5456c-21.6064-7.8848-44.2368-14.0288-67.6864-18.5856-3.7376-0.7168-9.9328 1.4848-12.1344 4.4544-28.2624 37.6832-101.2224 46.336-141.0048 0.768-2.8672-3.2768-10.1376-5.5296-14.3872-4.4032-25.344 6.6048-51.3024 12.2368-75.4688 22.016-70.9632 28.7744-129.1264 72.704-155.4432 147.968-7.0144 20.0192-12.8 43.776-8.8576 63.7952 12.9024 65.3312 66.6624 101.7856 129.6896 98.048 36.4032-2.1504 66.048-18.8928 89.6-46.592 17.3568 21.9136 43.776 36.864 73.0112 43.3152 101.0176-69.7856 170.496-181.9136 182.6816-310.784z" fill="#FCB138" p-id="1606"></path><path d="M508.3648 165.5808c-26.4704-0.3072-49.5104 22.272-50.176 49.152-0.6144 26.112 22.3232 49.5104 49.0496 50.0224 3.584 0.0512 6.9632-0.1536 10.2912-0.6656a424.17152 424.17152 0 0 0 27.0336-83.712c-8.96-9.0624-21.6064-14.592-36.1984-14.7968zM499.2512 300.6464c-22.3232-2.048-44.4928-11.6224-60.9792-30.5152-2.8672-3.2768-10.1376-5.5296-14.3872-4.4032-25.344 6.6048-51.3024 12.2368-75.4688 22.016-70.9632 28.7744-129.1264 72.704-155.4432 147.968-7.0144 20.0192-12.8 43.776-8.8576 63.7952 1.024 5.0688 2.3552 9.9328 3.84 14.6432 133.8368-19.0464 247.6544-100.3008 311.296-213.504z" fill="#FFC65E" p-id="1607"></path></svg>