<svg class="icon" style="width: 1em;height: 1em;vertical-align: middle;fill: currentColor;overflow: hidden;" viewBox="0 0 1024 1024" version="1.1" xmlns="http://www.w3.org/2000/svg" p-id="3314"><path d="M504.32 514.7136m-450.816 0a450.816 450.816 0 1 0 901.632 0 450.816 450.816 0 1 0-901.632 0Z" fill="#E9ECFF" p-id="3315"></path><path d="M835.1232 445.952l-302.6944-233.6768a42.10688 42.10688 0 0 0-51.4048 0L178.7904 446.0032c-19.7632 13.3632-10.2912 44.2368 13.568 44.2368h62.0032v265.2672c0 26.5216 21.504 48.0768 48.0768 48.0768h408.9856c26.5216 0 48.0768-21.504 48.0768-48.0768V490.24h62.0032c23.9104 0 33.3824-30.8736 13.6192-44.288z m-221.5936 159.5392c16.0768 0 29.1328 13.056 29.1328 29.1328s-13.056 29.1328-29.1328 29.1328h-76.3392v42.0864c0 16.0768-13.056 29.1328-29.1328 29.1328-16.0768 0-29.1328-13.056-29.1328-29.1328v-42.0864H402.5856c-16.0768 0-29.1328-13.056-29.1328-29.1328s13.056-29.1328 29.1328-29.1328h76.3392v-42.496H402.5856c-16.0768 0-29.1328-13.056-29.1328-29.1328 0-16.0768 13.056-29.1328 29.1328-29.1328h40.3456l-34.7136-39.1168a29.14816 29.14816 0 0 1 2.4576-41.1136 29.10208 29.10208 0 0 1 41.1136 2.4576L508.16 490.496l60.0576-66.5088c10.752-11.9296 29.184-12.8512 41.1136-2.0992 11.9296 10.752 12.8512 29.184 2.0992 41.1136l-37.632 41.6768h39.7824c16.0768 0 29.1328 13.056 29.1328 29.1328 0 16.0768-13.056 29.1328-29.1328 29.1328h-76.3392v42.496h76.288z" fill="#6C6CEA" p-id="3316"></path><path d="M481.024 212.3264L178.7904 446.0032c-19.7632 13.3632-10.2912 44.2368 13.568 44.2368h62.0032v265.2672c0 26.5216 21.504 48.0768 48.0768 48.0768h133.5808c185.4464-44.7488 323.2256-211.6608 323.2256-410.8288 0-1.792-0.1024-3.584-0.1536-5.376l-226.7136-175.0528a41.8816 41.8816 0 0 0-51.3536 0zM609.28 421.9392c11.9296 10.752 12.8512 29.184 2.0992 41.1136l-37.632 41.6768h39.7824c16.0768 0 29.1328 13.056 29.1328 29.1328 0 16.0768-13.056 29.1328-29.1328 29.1328h-76.3392v42.496h76.3392c16.0768 0 29.1328 13.056 29.1328 29.1328 0 16.0768-13.056 29.1328-29.1328 29.1328h-76.3392v42.0864c0 16.0768-13.056 29.1328-29.1328 29.1328s-29.1328-13.056-29.1328-29.1328v-42.0864H402.5856c-16.0768 0-29.1328-13.056-29.1328-29.1328 0-16.0768 13.056-29.1328 29.1328-29.1328h76.3392v-42.496H402.5856c-16.0768 0-29.1328-13.056-29.1328-29.1328 0-16.0768 13.056-29.1328 29.1328-29.1328h40.3456l-34.7136-39.1168a29.14816 29.14816 0 0 1 2.4576-41.1136 29.10208 29.10208 0 0 1 41.1136 2.4576L508.16 490.496l60.0576-66.5088c10.752-11.8784 29.1328-12.8 41.0624-2.048z" fill="#757BF2" p-id="3317"></path><path d="M481.024 212.3264L178.7904 446.0032c-19.7632 13.3632-10.2912 44.2368 13.568 44.2368h62.0032v173.6704c41.728-3.2768 81.7664-12.5952 119.1936-27.0848-0.0512-0.7168-0.1024-1.4336-0.1024-2.2016 0-16.0768 13.056-29.1328 29.1328-29.1328h35.1744c14.336-8.5504 28.0576-18.0224 41.1648-28.16v-14.336H402.5856c-16.0768 0-29.1328-13.056-29.1328-29.1328 0-16.0768 13.056-29.1328 29.1328-29.1328h40.3456l-34.7136-39.1168a29.14816 29.14816 0 0 1 2.4576-41.1136 29.10208 29.10208 0 0 1 41.1136 2.4576L508.16 490.496l60.0576-66.5088a29.05088 29.05088 0 0 1 36.9152-5.1712 421.3248 421.3248 0 0 0 35.1232-123.3408L532.48 212.2752c-15.2064-11.6736-36.352-11.6736-51.456 0.0512z" fill="#8486F8" p-id="3318"></path><path d="M521.7792 206.4384c-13.4656-5.1712-28.928-3.2768-40.7552 5.888L178.7904 446.0032c-19.7632 13.3632-10.2912 44.2368 13.568 44.2368h62.0032v1.6896C384 446.5152 484.7104 339.7632 521.7792 206.4384z" fill="#8D92F8" p-id="3319"></path></svg>