<svg class="icon" style="width: 1em;height: 1em;vertical-align: middle;fill: currentColor;overflow: hidden;" viewBox="0 0 1024 1024" version="1.1" xmlns="http://www.w3.org/2000/svg" p-id="5245"><path d="M514.7136 513.9456m-450.816 0a450.816 450.816 0 1 0 901.632 0 450.816 450.816 0 1 0-901.632 0Z" fill="#E9ECFF" p-id="5246"></path><path d="M475.8016 480.1024h77.824v108.0832h-77.824z" fill="#757BF2" p-id="5247"></path><path d="M803.4304 437.248l-27.5456-115.3536a73.08288 73.08288 0 0 0-71.3216-56.2688H326.656c-33.5872 0-62.8224 22.7328-71.0656 55.296l-29.2864 115.712c-1.4848 5.888-2.2528 11.9296-2.2528 18.0224v234.3424c0 40.448 32.8704 73.3184 73.3184 73.3184h434.7392c40.3968 0 73.3184-32.8704 73.3184-73.3184V454.2976c0-5.7344-0.6656-11.4688-1.9968-17.0496z m-81.5616 42.8544h-112.896v113.3056c0 27.5968-22.4768 50.0736-50.0736 50.0736H470.5792c-27.5968 0-50.0736-22.4768-50.0736-50.0736V480.1024H304.5888c-15.2576 0-27.648-12.3904-27.648-27.648 0-15.2576 12.3904-27.648 27.648-27.648h122.88l28.7232-96.768a27.6736 27.6736 0 0 1 53.0432 15.7696l-24.064 81.0496h60.416l-20.992-81.3056c-3.84-14.7968 5.0688-29.9008 19.8656-33.6896 14.7968-3.84 29.9008 5.0688 33.6896 19.8656l24.576 95.1808h119.0912c15.2576 0 27.648 12.3904 27.648 27.648 0.0512 15.1552-12.3392 27.5456-27.5968 27.5456z" fill="#6C6CEA" p-id="5248"></path><path d="M704.5632 265.6256H326.656c-33.5872 0-62.8224 22.7328-71.0656 55.296l-29.2864 115.712c-1.4848 5.888-2.2528 11.9296-2.2528 17.9712v234.3424c0 40.448 32.8704 73.3184 73.3184 73.3184h199.4752c165.376-59.5456 283.648-217.856 283.648-403.7632 0-6.4512-0.1536-12.8-0.4608-19.2l-4.1472-17.408a73.12896 73.12896 0 0 0-71.3216-56.2688z m17.3056 214.4768h-112.896v113.3056c0 27.5968-22.4768 50.0736-50.0736 50.0736H470.5792c-27.5968 0-50.0736-22.4768-50.0736-50.0736V480.1024H304.5888c-15.2576 0-27.648-12.3904-27.648-27.648 0-15.2576 12.3904-27.648 27.648-27.648h122.88l28.7232-96.768a27.6736 27.6736 0 0 1 53.0432 15.7696l-24.064 81.0496h60.416l-20.992-81.3056c-3.84-14.7968 5.0688-29.9008 19.8656-33.6896 14.7968-3.84 29.9008 5.0688 33.6896 19.8656l24.576 95.1808h119.0912c15.2576 0 27.648 12.3904 27.648 27.648 0.0512 15.1552-12.3392 27.5456-27.5968 27.5456z" fill="#757BF2" p-id="5249"></path><path d="M234.0352 635.1872c66.816 0 130.0992-15.2576 186.4704-42.5472V480.1024H304.5888c-15.2576 0-27.648-12.3904-27.648-27.648 0-15.2576 12.3904-27.648 27.648-27.648h122.88l28.7232-96.768a27.6736 27.6736 0 0 1 53.0432 15.7696l-24.064 81.0496h60.416l-20.992-81.3056c-3.84-14.7968 5.0688-29.9008 19.8656-33.6896 14.7968-3.84 29.9008 5.0688 33.6896 19.8656l24.576 95.1808h0.512a425.10336 425.10336 0 0 0 55.7056-159.1296H326.656c-33.5872 0-62.8224 22.7328-71.0656 55.296L226.304 436.6336c-1.4848 5.888-2.2528 11.9296-2.2528 17.9712v180.4288c3.328 0.1024 6.656 0.1536 9.984 0.1536z" fill="#8486F8" p-id="5250"></path><path d="M475.8016 560.5888a431.6672 431.6672 0 0 0 77.824-68.2496v-12.288h-77.824v80.5376z" fill="#8486F8" p-id="5251"></path><path d="M277.1456 455.9872c-0.1536-1.1776-0.256-2.3552-0.256-3.5328 0-15.2576 12.3904-27.648 27.648-27.648h38.0416a430.11584 430.11584 0 0 0 113.408-96.2048l0.1536-0.6144a27.47904 27.47904 0 0 1 13.2608-16.4352c10.9568-14.592 20.992-29.952 30.0544-45.9264H326.656c-33.5872 0-62.8224 22.7328-71.0656 55.296l-29.2864 115.712c-1.4848 5.888-2.2528 11.9296-2.2528 17.9712v17.4592c18.176-4.1984 35.8912-9.6256 53.0944-16.0768z" fill="#8D92F8" p-id="5252"></path></svg>