<svg class="icon" style="width: 1em;height: 1em;vertical-align: middle;fill: currentColor;overflow: hidden;" viewBox="0 0 1024 1024" version="1.1" xmlns="http://www.w3.org/2000/svg" p-id="2610"><path d="M508.1088 514.7136m-450.816 0a450.816 450.816 0 1 0 901.632 0 450.816 450.816 0 1 0-901.632 0Z" fill="#E9ECFF" p-id="2611"></path><path d="M736.4096 253.696H405.7088c-40.704 0-73.6768 32.9728-73.6768 73.6768v71.1168c0 8.6016-4.4032 16.64-11.6224 21.2992L215.8592 486.912a48.40448 48.40448 0 0 0-22.2208 40.6528v146.7392c0 26.6752 21.6576 48.3328 48.3328 48.3328h15.2064c0-0.2048-0.0512-0.4096-0.0512-0.6656 0-50.688 41.0624-91.7504 91.7504-91.7504s91.7504 41.0624 91.7504 91.7504c0 0.2048-0.0512 0.4096-0.0512 0.6656h135.68c0-0.2048-0.0512-0.4096-0.0512-0.6656 0-50.688 41.0624-91.7504 91.7504-91.7504s91.7504 41.0624 91.7504 91.7504v0.3072c28.3136-3.072 50.3296-27.0336 50.3296-56.1664V327.3728c0.0512-40.704-32.9728-73.6768-73.6256-73.6768z m-300.1344 307.8144c0 20.7872-16.896 37.6832-37.6832 37.6832H314.4704a30.8736 30.8736 0 0 1 0-61.7472h60.0576v-38.6048a30.8736 30.8736 0 0 1 61.7472 0v62.6688z" fill="#6C6CEA" p-id="2612"></path><path d="M348.8768 722.0224m-63.6416 0a63.6416 63.6416 0 1 0 127.2832 0 63.6416 63.6416 0 1 0-127.2832 0Z" fill="#6C6CEA" p-id="2613"></path><path d="M667.8016 722.0224m-63.6416 0a63.6416 63.6416 0 1 0 127.2832 0 63.6416 63.6416 0 1 0-127.2832 0Z" fill="#6C6CEA" p-id="2614"></path><path d="M348.8768 658.3808c-30.7712 0-56.4224 21.8112-62.3616 50.8416a387.54816 387.54816 0 0 0 120.5248 19.1488c1.7408 0 3.4304-0.1024 5.1712-0.1536 0.2048-2.048 0.3072-4.1472 0.3072-6.2464 0.0512-35.1232-28.4672-63.5904-63.6416-63.5904z" fill="#757BF2" p-id="2615"></path><path d="M736.4096 253.696H405.7088c-40.704 0-73.6768 32.9728-73.6768 73.6768v71.1168c0 8.6016-4.4032 16.64-11.6224 21.2992L215.8592 486.912a48.40448 48.40448 0 0 0-22.2208 40.6528v136.8576c20.8384 13.7216 43.008 25.4976 66.4064 35.0208 10.0352-39.7824 45.9776-69.2224 88.832-69.2224 50.688 0 91.7504 41.0624 91.7504 91.7504 0 0.2048-0.0512 0.4096-0.0512 0.6656h32.5632c39.168-6.7072 76.288-19.2512 110.4896-36.7616a91.68384 91.68384 0 0 1 81.2032-55.4496c80.128-71.168 130.7136-174.8992 130.7136-290.56 0-21.248-1.792-42.0864-5.0688-62.3616-13.4144-14.592-32.6656-23.808-54.0672-23.808z m-300.1344 307.8144c0 20.7872-16.896 37.6832-37.6832 37.6832H314.4704a30.8736 30.8736 0 0 1 0-61.7472h60.0576v-38.6048a30.8736 30.8736 0 0 1 61.7472 0v62.6688z" fill="#757BF2" p-id="2616"></path><path d="M405.7088 253.696c-40.704 0-73.6768 32.9728-73.6768 73.6768v71.1168c0 8.6016-4.4032 16.64-11.6224 21.2992L215.8592 486.912a48.40448 48.40448 0 0 0-22.2208 40.6528v47.7696a387.34848 387.34848 0 0 0 99.0208 14.8992 30.8736 30.8736 0 0 1 21.8112-52.736h60.0576v-38.6048a30.8736 30.8736 0 0 1 61.7472 0v62.6688c0 1.5872-0.1536 3.1232-0.3072 4.7104 132.352-49.152 230.5536-168.2944 249.8048-312.5248h-280.064z" fill="#8486F8" p-id="2617"></path><path d="M332.032 327.3728v71.1168c0 8.6016-4.4032 16.64-11.6224 21.2992l-39.424 25.2928c112.384-22.8864 207.104-94.3104 261.376-191.4368H405.7088c-40.704 0.0512-73.6768 33.024-73.6768 73.728z" fill="#8D92F8" p-id="2618"></path></svg>