<svg class="icon" style="width: 1em;height: 1em;vertical-align: middle;fill: currentColor;overflow: hidden;" viewBox="0 0 1024 1024" version="1.1" xmlns="http://www.w3.org/2000/svg" p-id="6173"><path d="M515.2256 510.1568m-450.816 0a450.816 450.816 0 1 0 901.632 0 450.816 450.816 0 1 0-901.632 0Z" fill="#FFE3DB" p-id="6174"></path><path d="M788.48 270.1312H241.9712c-15.4624 0-28.0064 12.544-28.0064 28.0064s12.544 28.0064 28.0064 28.0064h20.4288v293.2736c0 38.656 31.3344 69.9904 69.9904 69.9904h74.1888l-79.8208 76.8512a27.98592 27.98592 0 0 0-0.768 39.5776 28.04736 28.04736 0 0 0 20.1728 8.6016c7.0144 0 13.9776-2.6112 19.4048-7.8336l121.7024-117.1968h62.0544l118.3232 116.9408a28.08832 28.08832 0 0 0 39.6288-0.2048 28.08832 28.08832 0 0 0-0.2048-39.6288l-78.0288-77.1072h64.9728c38.656 0 69.9904-31.3344 69.9904-69.9904V326.144H788.48c15.4624 0 28.0064-12.544 28.0064-28.0064s-12.4928-28.0064-28.0064-28.0064z m-236.544 152.6272c0 15.4624-12.544 28.0064-28.0064 28.0064H376.832c-15.4624 0-28.0064-12.544-28.0064-28.0064s12.544-28.0064 28.0064-28.0064h147.0976c15.4624 0 28.0064 12.544 28.0064 28.0064z m94.5664 152.6272H376.832c-15.4624 0-28.0064-12.544-28.0064-28.0064s12.544-28.0064 28.0064-28.0064h269.6704c15.4624 0 28.0064 12.544 28.0064 28.0064s-12.544 28.0064-28.0064 28.0064z" fill="#F23D4F" p-id="6175"></path><path d="M213.9648 298.1376c0 15.4624 12.544 28.0064 28.0064 28.0064h20.4288v293.2736c0 38.656 31.3344 69.9904 69.9904 69.9904h74.1888l-74.5984 71.8336c0.7168 0 1.4336 0.0512 2.1504 0.0512 29.9008 0 59.136-2.9184 87.3984-8.4992l65.792-63.3856h62.0544l11.1104 10.9568c95.9488-55.808 169.4208-146.0224 203.52-253.7472V326.144h20.6336c0.1536-5.2224 0.3072-10.4448 0.3072-15.7184 0-13.568-0.6144-27.0336-1.792-40.2944H241.9712c-15.4624 0-28.0064 12.544-28.0064 28.0064zM376.832 394.752h147.0976c15.4624 0 28.0064 12.544 28.0064 28.0064 0 15.4624-12.544 28.0064-28.0064 28.0064H376.832c-15.4624 0-28.0064-12.544-28.0064-28.0064 0-15.4624 12.544-28.0064 28.0064-28.0064z m0 124.6208h269.6704c15.4624 0 28.0064 12.544 28.0064 28.0064s-12.544 28.0064-28.0064 28.0064H376.832c-15.4624 0-28.0064-12.544-28.0064-28.0064s12.544-28.0064 28.0064-28.0064z" fill="#FC4956" p-id="6176"></path><path d="M213.9648 298.1376c0 15.4624 12.544 28.0064 28.0064 28.0064h20.4288v272.0256c36.1984-4.1472 71.168-12.544 104.2432-24.7296a27.96544 27.96544 0 0 1-17.8176-26.0608c0-15.4624 12.544-28.0064 28.0064-28.0064h92.928c84.48-59.392 147.6608-147.0464 175.7696-249.2416H241.9712c-15.4624 0-28.0064 12.544-28.0064 28.0064zM376.832 394.752h147.0976c15.4624 0 28.0064 12.544 28.0064 28.0064 0 15.4624-12.544 28.0064-28.0064 28.0064H376.832c-15.4624 0-28.0064-12.544-28.0064-28.0064 0-15.4624 12.544-28.0064 28.0064-28.0064z" fill="#FF5C64" p-id="6177"></path><path d="M213.9648 298.1376c0 15.4624 12.544 28.0064 28.0064 28.0064h20.4288v84.3264c74.8032-29.44 139.776-78.2848 188.8256-140.3392H241.9712c-15.4624 0-28.0064 12.544-28.0064 28.0064z" fill="#FF716E" p-id="6178"></path></svg>