<svg class="icon" style="width: 1em;height: 1em;vertical-align: middle;fill: currentColor;overflow: hidden;" viewBox="0 0 1024 1024" version="1.1" xmlns="http://www.w3.org/2000/svg" p-id="4698"><path d="M505.088 513.1264m-450.816 0a450.816 450.816 0 1 0 901.632 0 450.816 450.816 0 1 0-901.632 0Z" fill="#FBE1FF" p-id="4699"></path><path d="M444.7232 420.3008h118.7328V472.576H444.7232z" fill="#CA6EE0" p-id="4700"></path><path d="M382.3104 415.232v-6.4512c0-28.0576 22.8352-50.8928 50.8928-50.8928h141.7728c28.0576 0 50.8928 22.8352 50.8928 50.8928v6.4512h174.7456V335.2576c0-38.0416-30.8736-68.9152-68.9152-68.9152H278.1184c-38.0416 0-68.9152 30.8736-68.9152 68.9152V415.232h173.1072zM625.8688 477.6448v6.4512c0 28.0576-22.8352 50.8928-50.8928 50.8928H433.2032c-28.0576 0-50.8928-22.8352-50.8928-50.8928v-6.4512H209.2032v219.2896c0 38.0416 30.8736 68.9152 68.9152 68.9152h453.5296c38.0416 0 68.9152-30.8736 68.9152-68.9152V477.6448h-174.6944z" fill="#BD50D3" p-id="4701"></path><path d="M731.648 266.3424H278.1184c-38.0416 0-68.9152 30.8736-68.9152 68.9152V415.232h173.1072v-6.4512c0-28.0576 22.8352-50.8928 50.8928-50.8928h141.7728c28.0576 0 50.8928 22.8352 50.8928 50.8928v6.4512h163.3792a452.68992 452.68992 0 0 0 8.7552-98.6624c-8.192-28.9792-34.7648-50.2272-66.3552-50.2272zM625.8688 477.6448v6.4512c0 28.0576-22.8352 50.8928-50.8928 50.8928H433.2032c-28.0576 0-50.8928-22.8352-50.8928-50.8928v-6.4512H209.2032v219.2896c0 38.0416 30.8736 68.9152 68.9152 68.9152h168.6528c151.296-34.0992 273.7664-144.2304 325.1712-288.2048h-146.0736z" fill="#BF5CD6" p-id="4702"></path><path d="M278.1184 266.3424c-38.0416 0-68.9152 30.8736-68.9152 68.9152V415.232h173.1072v-6.4512c0-28.0576 22.8352-50.8928 50.8928-50.8928h141.7728c18.7904 0 35.1744 10.24 43.9808 25.4464 19.968-36.2496 35.1232-75.52 44.544-116.992H278.1184zM209.2032 477.6448v138.8544c4.9152 0.1536 9.8304 0.256 14.7456 0.256 96.3584 0 185.6512-30.2592 258.9696-81.7664h-49.7152c-28.0576 0-50.8928-22.8352-50.8928-50.8928v-6.4512H209.2032z" fill="#CA6EE0" p-id="4703"></path><path d="M478.9248 266.3424H278.1184c-38.0416 0-68.9152 30.8736-68.9152 68.9152V415.232h91.5456a452.5312 452.5312 0 0 0 178.176-148.8896z" fill="#D786EA" p-id="4704"></path></svg>