<svg class="icon" style="width: 1em;height: 1em;vertical-align: middle;fill: currentColor;overflow: hidden;" viewBox="0 0 1024 1024" version="1.1" xmlns="http://www.w3.org/2000/svg" p-id="2271"><path d="M504.3712 519.8336m-450.816 0a450.816 450.816 0 1 0 901.632 0 450.816 450.816 0 1 0-901.632 0Z" fill="#FFF1DC" p-id="2272"></path><path d="M598.8352 266.2912H450.5088c-1.8432 0-3.6864 0.0512-5.4784 0.0512-74.7008-41.8304-133.376-47.4112-169.984-15.9744l-1.8432 1.8432c-18.8928 20.992-13.056 55.808 2.5088 85.76-23.9616 23.552-42.9056 51.712-55.7056 82.688H195.072c-25.344 0-45.9776 20.6336-45.9776 45.9776v78.8992c0 25.344 20.6336 45.9776 45.9776 45.9776h17.8688c19.968 62.1568 64.512 115.0464 122.624 145.3568v27.648c0 20.7872 16.9472 37.7344 37.7344 37.7344h63.3344c20.6336 0 37.4784-16.6912 37.7344-37.2736h124.4672c2.1504 0 4.3008-0.0512 6.5024-0.1024 0.2048 20.6336 17.0496 37.376 37.7344 37.376h63.3344c20.7872 0 37.7344-16.9472 37.7344-37.7344v-46.2848c65.3824-46.8992 104.0896-121.8048 104.0896-202.5984-0.0512-137.472-111.9232-249.344-249.3952-249.344zM370.7392 482.2528a34.2528 34.2528 0 1 1 0-68.5056 34.2528 34.2528 0 1 1 0 68.5056z m226.7648-83.0976H485.0688c-15.0016 0-27.1872-12.1856-27.1872-27.1872 0-15.0016 12.1856-27.1872 27.1872-27.1872h112.4352c15.0016 0 27.1872 12.1856 27.1872 27.1872 0 15.0016-12.1344 27.1872-27.1872 27.1872z" fill="#FF8E12" p-id="2273"></path><path d="M770.4576 377.2928c0-15.0528-0.8704-29.952-2.4576-44.5952-44.4928-41.1648-103.936-66.3552-169.1648-66.3552H450.5088c-1.8432 0-3.6864 0.0512-5.4784 0.0512-74.7008-41.8304-133.376-47.4112-169.984-15.9744l-1.8432 1.8432c-18.8928 20.992-13.056 55.808 2.5088 85.76-23.9616 23.552-42.9056 51.712-55.7056 82.688H195.072c-25.344 0-45.9776 20.6336-45.9776 45.9776v78.8992c0 25.344 20.6336 45.9776 45.9776 45.9776h17.8688c19.968 62.1568 64.512 115.0976 122.624 145.3568v27.648c0 9.1648 3.2768 17.5616 8.7552 24.1152 4.7616 0.1536 9.5232 0.3584 14.2848 0.3584 39.8848 0 78.3872-5.7856 114.8416-16.3328 0.5632-2.4576 0.8704-5.0688 0.8704-7.68h23.04c159.1808-56.9856 273.1008-209.0496 273.1008-387.7376z m-399.7184 104.96a34.2528 34.2528 0 1 1 0-68.5056 34.2528 34.2528 0 1 1 0 68.5056z m226.7648-83.0976H485.0688c-15.0016 0-27.1872-12.1856-27.1872-27.1872 0-15.0016 12.1856-27.1872 27.1872-27.1872h112.4352c15.0016 0 27.1872 12.1856 27.1872 27.1872 0 15.0016-12.1344 27.1872-27.1872 27.1872z" fill="#FCA315" p-id="2274"></path><path d="M655.6672 272.9472c-18.2784-4.3008-37.2736-6.6048-56.832-6.6048H450.5088c-1.8432 0-3.6864 0.0512-5.4784 0.0512-74.7008-41.8304-133.376-47.4112-169.984-15.9744l-1.8432 1.8432c-18.8928 20.992-13.056 55.808 2.5088 85.76-23.9616 23.552-42.9056 51.712-55.7056 82.688H195.072c-25.344 0-45.9776 20.6336-45.9776 45.9776v78.8992c0 25.344 20.6336 45.9776 45.9776 45.9776h17.8688a246.272 246.272 0 0 0 23.1424 50.9952c3.2768 0.1024 6.5536 0.256 9.8816 0.256 213.2992 0 388.7104-162.1504 409.7024-369.8688zM370.7392 482.2528a34.2528 34.2528 0 1 1 0-68.5056 34.2528 34.2528 0 1 1 0 68.5056z m87.1424-110.2848c0-15.0016 12.1856-27.1872 27.1872-27.1872h112.4352c15.0016 0 27.1872 12.1856 27.1872 27.1872 0 15.0016-12.1856 27.1872-27.1872 27.1872H485.0688c-15.0016 0-27.1872-12.1856-27.1872-27.1872z" fill="#FCB138" p-id="2275"></path><path d="M450.5088 266.2912c-1.8432 0-3.6864 0.0512-5.4784 0.0512-74.7008-41.8304-133.376-47.4112-169.984-15.9744l-1.8432 1.8432c-18.8928 20.992-13.056 55.808 2.5088 85.76-23.9616 23.552-42.9056 51.712-55.7056 82.688H195.072c-25.344 0-45.9776 20.6336-45.9776 45.9776v30.2592c67.6864-1.0752 131.3792-18.432 187.3408-48.384 0-0.1536-0.0512-0.3584-0.0512-0.512 0-18.944 15.36-34.2528 34.2528-34.2528 5.4784 0 10.5984 1.3312 15.1552 3.584a413.15328 413.15328 0 0 0 126.4128-151.04H450.5088z" fill="#FFC65E" p-id="2276"></path></svg>