<svg class="icon" style="width: 1em;height: 1em;vertical-align: middle;fill: currentColor;overflow: hidden;" viewBox="0 0 1024 1024" version="1.1" xmlns="http://www.w3.org/2000/svg" p-id="6188"><path d="M512.0512 510.1568m-450.816 0a450.816 450.816 0 1 0 901.632 0 450.816 450.816 0 1 0-901.632 0Z" fill="#FBE1FF" p-id="6189"></path><path d="M284.16 436.224v24.3712H221.9008c-20.8384 0-39.68 10.6496-50.3808 28.5696-10.7008 17.8176-11.2128 39.3216-1.4848 57.6 47.0016 88.1664 122.2144 136.8576 209.4592 136.8576 2.4064 0 4.864-0.1536 7.3216-0.2048 35.8912 23.6032 78.7968 37.376 124.928 37.376h65.1264c125.696 0 227.5328-101.888 227.5328-227.5328V436.224H284.16z m-42.5984 94.464h45.6704c3.84 23.3472 11.264 45.4144 21.6576 65.792-29.5936-15.872-51.5072-40.7552-67.328-65.792zM275.5072 745.728h537.4976s-25.856 65.1264-268.7488 65.1264-268.7488-65.1264-268.7488-65.1264z" fill="#BD50D3" p-id="6190"></path><path d="M478.4128 155.0336s-66.1504 21.5552-66.1504 88.9344c0 45.3632 77.9264 85.6064 79.2064 111.1552 1.28 25.5488-0.6144 43.4176-22.9888 59.392 33.2288-6.4 80.1792-31.9488 75.8272-77.2608-4.3008-45.3632-75.6736-78.7456-80.384-106.8544-6.8608-41.0624 14.4896-75.3664 14.4896-75.3664z" fill="#CA6EE0" p-id="6191"></path><path d="M610.7136 155.0336s-66.1504 21.5552-66.1504 88.9344c0 45.3632 77.9264 85.6064 79.2064 111.1552 1.28 25.5488-0.6144 43.4176-22.9888 59.392 33.2288-6.4 80.1792-31.9488 75.8272-77.2608-4.3008-45.3632-75.6736-78.7456-80.384-106.8544-6.8608-41.0624 14.4896-75.3664 14.4896-75.3664zM284.16 460.5952H221.9008c-20.8384 0-39.68 10.6496-50.3808 28.5696-10.7008 17.8176-11.2128 39.3216-1.4848 57.6 47.0016 88.1664 122.2144 136.8576 209.4592 136.8576 2.4064 0 4.864-0.1536 7.3216-0.2048 35.8912 23.6032 78.7968 37.376 124.928 37.376h65.1264c27.0336 0 52.9408-4.7104 76.9536-13.3632 60.672-70.8608 97.3824-162.816 97.3824-263.3728 0-2.6112-0.1536-5.1712-0.2048-7.7824H284.16v24.32z m24.7808 135.8848c-29.5936-15.872-51.5072-40.704-67.328-65.792h45.6704c3.84 23.296 11.264 45.4144 21.6576 65.792zM616.4992 745.728h-340.992s24.064 60.5184 243.456 64.8704c35.6864-16.896 68.5056-38.8096 97.536-64.8704z" fill="#C65EDB" p-id="6192"></path><path d="M639.7952 280.3712c-19.968-18.7904-41.0624-35.1232-43.5712-49.9712-6.8608-41.0624 14.4896-75.3664 14.4896-75.3664s-66.1504 21.5552-66.1504 88.9344c0 45.3632 77.9264 85.6064 79.2064 111.1552 1.28 25.5488-0.6144 43.4176-22.9888 59.392 7.936-1.536 16.64-4.1472 25.2928-7.8848 9.216-33.9968 14.2848-69.6832 14.2848-106.5984-0.0512-6.6048-0.256-13.1584-0.5632-19.6608zM616.7552 436.224H284.16v24.3712H221.9008c-20.8384 0-39.68 10.6496-50.3808 28.5696-10.7008 17.8176-11.2128 39.3216-1.4848 57.6 44.8 84.0704 115.3024 132.096 197.3248 136.448 116.0192-40.1408 208.1792-131.4304 249.3952-246.9888z m-375.1936 94.464h45.6704c3.84 23.3472 11.264 45.4144 21.6576 65.792-29.5936-15.872-51.5072-40.704-67.328-65.792z" fill="#CA6EE0" p-id="6193"></path><path d="M463.9232 230.4c-6.8608-41.0624 14.4896-75.3664 14.4896-75.3664s-66.1504 21.5552-66.1504 88.9344c0 41.8816 66.4576 79.4112 77.6192 105.0112 10.3424-19.1488 19.1488-39.3216 26.3168-60.16-22.1184-22.3744-49.4592-41.3696-52.2752-58.4192zM426.2912 436.224H284.16v24.3712H221.9008c-20.8384 0-39.68 10.6496-50.3808 28.5696-10.7008 17.8176-11.2128 39.3216-1.4848 57.6 2.3552 4.352 4.7616 8.5504 7.2704 12.7488 25.3952-2.7648 50.0224-7.8336 73.7792-15.0528-3.328-4.5568-6.5536-9.1648-9.472-13.7728h45.6704l0.1536 0.768c52.8384-21.8112 99.9936-54.4768 138.8544-95.232z" fill="#D786EA" p-id="6194"></path></svg>