<svg class="icon" style="width: 1em;height: 1em;vertical-align: middle;fill: currentColor;overflow: hidden;" viewBox="0 0 1024 1024" version="1.1" xmlns="http://www.w3.org/2000/svg" p-id="794"><path d="M514.4064 513.0752m-450.816 0a450.816 450.816 0 1 0 901.632 0 450.816 450.816 0 1 0-901.632 0Z" fill="#E3FFF3" p-id="795"></path><path d="M579.072 610.2528a30.74048 30.74048 0 0 1-23.0912 10.4448h-0.4096a30.60736 30.60736 0 0 1-23.2448-11.1104L415.8464 469.4016a30.70976 30.70976 0 0 1 3.9936-43.264 30.70976 30.70976 0 0 1 43.264 3.9936l93.4912 112.5376 160.8192-183.3984c-53.4528-68.096-124.2112-128.6144-180.48-177.2032a36.00384 36.00384 0 0 0-46.7968-0.2048c-114.944 97.28-259.1744 220.9792-259.1744 366.9504 0 156.16 126.5664 282.7264 282.7264 282.7264s282.7264-126.5664 282.7264-282.7264c0-47.616-16.7936-93.7472-42.9056-137.472l-174.4384 198.912z" fill="#05C46D" p-id="796"></path><path d="M753.4592 411.3408l-174.4384 198.912a30.74048 30.74048 0 0 1-23.0912 10.4448h-0.4096a30.60736 30.60736 0 0 1-23.2448-11.1104L415.8464 469.4016a30.70976 30.70976 0 0 1 3.9936-43.264 30.70976 30.70976 0 0 1 43.264 3.9936l93.4912 112.5376 160.8192-183.3984c-53.4528-68.096-124.2112-128.6144-180.48-177.2032a36.00384 36.00384 0 0 0-46.7968-0.2048c-114.944 97.28-259.1744 220.9792-259.1744 366.9504 0 74.0352 28.4672 141.4144 75.0592 191.7952a451.81952 451.81952 0 0 0 122.5216 16.8448c151.4496 0 285.44-74.6496 367.1552-189.184 0.4608-6.4512 0.7168-12.9024 0.7168-19.456 0-47.616-16.7936-93.7472-42.9568-137.472z" fill="#1DCE75" p-id="797"></path><path d="M415.8464 469.4016a30.70976 30.70976 0 0 1 3.9936-43.264 30.70976 30.70976 0 0 1 43.264 3.9936l81.664 98.304c30.5664-19.2 58.6752-41.984 83.712-67.7888l30.8736-35.2256c18.8416-23.9104 35.328-49.8176 49.1008-77.312-52.224-63.5904-118.3744-120.1664-171.5712-166.0928a36.00384 36.00384 0 0 0-46.7968-0.2048c-114.944 97.28-259.1744 220.9792-259.1744 366.9504 0 14.592 1.1264 28.9792 3.2256 42.9568 23.1424 3.6352 46.848 5.5808 71.0144 5.5808 65.6896 0 128.0512-14.08 184.32-39.3216l-73.6256-88.576z" fill="#35D895" p-id="798"></path><path d="M578.7648 218.368c-14.4896-12.6976-28.5696-24.832-41.8304-36.3008a36.00384 36.00384 0 0 0-46.7968-0.2048C407.04 252.16 308.6848 336.2816 260.5056 432.64c135.2704-20.6848 250.6752-101.4784 318.2592-214.272z" fill="#48E1AA" p-id="799"></path></svg>