<svg class="icon" style="width: 1em;height: 1em;vertical-align: middle;fill: currentColor;overflow: hidden;" viewBox="0 0 1024 1024" version="1.1" xmlns="http://www.w3.org/2000/svg" p-id="1183"><path d="M515.072 511.3856m-450.816 0a450.816 450.816 0 1 0 901.632 0 450.816 450.816 0 1 0-901.632 0Z" fill="#E9F4FF" p-id="1184"></path><path d="M517.5296 338.688c58.88 51.2512 117.1456 102.0416 175.4624 152.832 18.6368 16.2304 37.0688 32.7168 55.9616 48.64 10.3936 8.7552 15.1552 19.0464 15.104 32.8704-0.4096 63.6928 0 127.3856-0.256 191.0272-0.1024 30.5664-8.2944 38.4-38.2976 38.7072-45.7728 0.4096-91.5456 0.3584-137.3184 1.4336-12.9024 0.3072-17.2032-3.1232-16.9984-16.5376 0.768-46.2848 0.3072-92.6208 0.3072-138.9568v-18.4832H462.0288v41.1648c0 38.9632-0.3584 77.8752 0.2048 116.8384 0.1536 11.3152-2.7648 16.0768-14.848 15.9744-47.36-0.4608-94.72 0.1024-142.0288-0.3072-26.2144-0.256-34.816-9.3184-34.8672-35.7376-0.2048-66.816-0.3584-133.6832 0.3072-200.4992 0.0512-7.424 3.4816-17.152 8.8576-21.9136C356.864 477.3888 434.5856 409.6 512.2048 341.76c1.1264-1.024 2.6624-1.5872 5.3248-3.072z" fill="#2595E8" p-id="1185"></path><path d="M653.6704 313.2928c0-27.1872-0.0512-50.0736 0-73.0112 0.1024-26.8288 2.2528-29.0304 28.416-29.0816 17.8688-0.0512 35.7888 0 53.6576 0 26.3168 0.0512 28.16 1.8432 28.1088 28.9792-0.1536 48.9472 0.1024 97.8944-0.9216 146.7904-0.3584 17.3056 5.12 29.9008 18.5344 40.9088 23.1936 18.944 45.4144 39.1168 67.84 59.0336 16.128 14.3872 16.5376 18.6368 3.6864 35.4816-29.44 38.6048-27.2384 38.6048-62.3616 7.2192-86.3232-77.056-172.9536-153.8048-259.4816-230.656-4.2496-3.7888-8.6528-7.4752-14.0288-12.032-11.264 9.6768-22.0672 18.6368-32.5632 27.9552-85.0432 75.3664-170.0352 150.784-255.0272 226.0992-17.8176 15.8208-21.1456 15.4624-36.5056-3.0208-28.3136-33.9968-28.416-34.0992 4.4032-63.1296C289.1264 393.5744 380.8768 312.32 472.7296 231.168c33.0752-29.2352 55.1936-29.0816 88.4736 0.1536 23.7056 20.8384 47.104 42.0352 70.656 63.0272 6.0416 5.5808 12.3392 10.8032 21.8112 18.944z" fill="#3BA4F2" p-id="1186"></path><path d="M798.6688 442.368c-5.6832-4.864-11.4176-9.6768-17.2544-14.4384-13.4656-11.008-18.8928-23.6032-18.5856-40.9088 0.9728-48.896 0.768-97.8432 0.9216-146.7904 0.1024-27.136-1.7408-28.9792-28.1088-28.9792-17.8688 0-35.7888-0.0512-53.6576 0-26.112 0.0512-28.3136 2.2528-28.416 29.0816-0.1024 22.8864 0 45.824 0 73.0112-9.472-8.1408-15.7184-13.3632-21.8624-18.7904-23.6032-20.992-47.0016-42.1888-70.656-63.0272-33.28-29.2352-55.3984-29.3888-88.4736-0.1536-91.8016 81.1008-183.5008 162.304-275.2512 243.6096-32.8192 29.0816-32.7168 29.184-4.4032 63.1296 15.36 18.4832 18.688 18.7904 36.5056 2.9696 85.0432-75.3664 169.984-150.784 255.0272-226.0992 10.496-9.3184 21.2992-18.2784 32.5632-27.9552 5.376 4.608 9.728 8.2432 14.0288 12.032 82.944 73.6256 165.9392 147.2 248.6784 221.0304 8.5504-24.9856 14.9504-50.9952 18.944-77.7216z" fill="#3A9CED" p-id="1187"></path><path d="M762.9824 562.3296c-1.9456-8.6528-6.4512-15.8208-13.9776-22.1696-18.8928-15.9232-37.3248-32.4096-55.9616-48.64-58.3168-50.7904-116.5824-101.5808-175.4624-152.832-2.6624 1.4848-4.1984 2.048-5.376 3.0208C434.5856 409.6 356.864 477.3888 279.7056 545.792c-5.3248 4.7616-8.7552 14.4384-8.8576 21.9136-0.6656 66.816-0.512 133.6832-0.3072 200.4992 0.0512 26.4192 8.704 35.4816 34.8672 35.7376 47.36 0.4096 94.72-0.1536 142.0288 0.3072 12.0832 0.1024 15.0016-4.608 14.848-15.9744-0.6144-38.912-0.2048-77.8752-0.2048-116.8384v-41.1648h109.4656v18.4832c0 40.1408 0.3072 80.2816-0.1024 120.4224 83.8656-46.592 151.3472-119.1424 191.5392-206.848z" fill="#3A9CED" p-id="1188"></path><path d="M680.3968 214.7328c0-1.1776-0.0512-2.3552-0.0512-3.4816-24.4224 0.1536-26.5728 2.8672-26.6752 29.0816-0.1024 22.8864 0 45.824 0 73.0112-9.472-8.1408-15.7184-13.3632-21.8624-18.7904-23.6032-20.992-47.0016-42.1888-70.656-63.0272-33.28-29.2352-55.3984-29.3888-88.4736-0.1536-91.904 81.1008-183.6032 162.304-275.3536 243.6096-32.8192 29.0816-32.7168 29.184-4.4032 63.1296 15.36 18.4832 18.688 18.7904 36.5056 2.9696 85.0432-75.3664 169.984-150.784 255.0272-226.0992 10.496-9.3184 21.2992-18.2784 32.5632-27.9552 5.376 4.608 9.728 8.2432 14.0288 12.032l110.7456 98.304c24.832-55.808 38.6048-117.6064 38.6048-182.6304z" fill="#59ADF8" p-id="1189"></path><path d="M517.5296 338.688c-2.6624 1.4848-4.1984 2.048-5.376 3.0208C434.5856 409.6 356.864 477.3888 279.7056 545.792c-5.3248 4.7616-8.7552 14.4384-8.8576 21.9136-0.3072 32-0.4608 64-0.4608 96 152.8832-13.7216 283.7504-103.7312 354.2528-231.68-35.584-31.0272-71.2192-62.0544-107.1104-93.3376z" fill="#59ADF8" p-id="1190"></path><path d="M472.6272 231.3216C380.7744 312.4736 289.0752 393.6768 197.3248 474.9824c-14.848 13.1584-22.8864 20.3776-24.6784 27.5456a447.54944 447.54944 0 0 0 156.7744-50.0224c51.6608-45.824 103.3728-91.648 155.0336-137.472 0.1536-0.1024 0.256-0.256 0.4096-0.3584a446.78144 446.78144 0 0 0 52.9408-99.6864c-21.76-10.9568-40.3968-5.5296-65.1776 16.3328z" fill="#6BC2FC" p-id="1191"></path></svg>