<svg class="icon" style="width: 1em;height: 1em;vertical-align: middle;fill: currentColor;overflow: hidden;" viewBox="0 0 1024 1024" version="1.1" xmlns="http://www.w3.org/2000/svg" p-id="1120"><path d="M510.976 511.3856m-450.816 0a450.816 450.816 0 1 0 901.632 0 450.816 450.816 0 1 0-901.632 0Z" fill="#E3FFF3" p-id="1121"></path><path d="M814.08 480.1536c-2.1504-63.5904-52.7872-129.28-128.512-145.152-26.8288-5.632-53.6576-5.4272-80.2304 2.1504-2.0992 0.6144-4.2496 1.024-6.4 1.4848-0.2048 0.0512-0.4608-0.2048-1.0752-0.5632 34.6624-24.8832 50.2272-58.112 44.8-101.6832-28.416-4.8128-53.8624 0.9216-76.8 17.5616-3.6864 2.6624-7.0656 5.5296-10.24 8.4992a320.7168 320.7168 0 0 1 19.5584-31.7952c16.2304-0.9728 17.3056 0.1536 17.3056 0.1536l7.5264-13.2096-37.0176-30.8736-11.008 7.68-1.3312 11.3152s-18.3296 29.7984-34.56 78.336c-24.064-69.5296-92.2624-111.8208-166.6048-102.4-5.7344 0.7168-6.5536 3.584-7.0656 7.936-5.888 53.6576 10.8544 98.816 50.5856 135.3728 1.8432 1.6896 3.7888 3.2256 5.5808 4.9152 0.3072 0.3072 0.256 0.9728 0.3072 1.3312-13.3632 0.9216-26.7776 1.1776-39.9872 2.8672-65.0752 8.3968-121.856 59.4944-134.144 123.6992-4.4544 23.296-4.4032 47.8208-3.4304 71.68 1.9456 49.5104 13.824 96.9728 33.9456 142.336 26.1632 59.0336 63.5904 109.7728 114.0224 150.0672 45.1584 36.096 105.2672 30.4128 144.7936-11.8272 1.1264-1.2288 2.2528-2.4064 4.1472-4.5568 12.9536 16.384 28.8256 26.9824 47.5136 33.1264 39.5776 13.056 75.1104 5.12 106.3936-21.8112 62.3104-53.6576 104.704-120.3712 127.3856-199.2704 12.9024-44.6976 16.128-90.5216 14.5408-137.3696zM496.0256 368.384c-1.3312-1.536-2.7136-3.0208-3.9936-4.4544 1.3312-0.1024 2.9184-0.256 4.7104-0.4096-0.256 1.6384-0.512 3.2256-0.7168 4.864z m21.5552 22.6816c0.8704-10.0864 2.304-20.5824 4.1984-31.3344 1.1776-1.3824 1.6896-3.3792 1.6384-6.0416 0-1.28 0.1024-2.5088 0.2048-3.5328 0.1024-0.6144 0.256-1.1776 0.3584-1.792 14.1312 8.4992 28.5184 3.4816 40.9088 3.0208-15.2064 12.7488-31.3856 26.3168-47.3088 39.68z m221.5424 154.1632a28.15488 28.15488 0 0 1-27.648 22.9888c-1.6896 0-3.4304-0.1536-5.2224-0.4608a28.20096 28.20096 0 0 1-22.528-32.8704c9.4208-50.4832-28.2112-68.608-29.7984-69.3248a28.19584 28.19584 0 0 1-13.6704-37.4272 28.19584 28.19584 0 0 1 37.4272-13.6704c27.3408 12.6976 75.3152 56.3712 61.44 130.7648z" fill="#05C46D" p-id="1122"></path><path d="M685.568 335.0528c-26.8288-5.632-53.6576-5.4272-80.2304 2.1504-2.0992 0.6144-4.2496 1.024-6.4 1.4848-0.2048 0.0512-0.4608-0.2048-1.0752-0.5632 34.6624-24.8832 50.2272-58.112 44.8-101.6832-28.416-4.8128-53.8624 0.9216-76.8 17.5616-3.6864 2.6624-7.0656 5.5296-10.24 8.4992a320.7168 320.7168 0 0 1 19.5584-31.7952c16.2304-0.9728 17.3056 0.1536 17.3056 0.1536l7.5264-13.2096-37.0176-30.8736-11.008 7.68-1.3312 11.3152s-18.3296 29.7984-34.56 78.336C492.032 214.528 423.8336 172.2368 349.4912 181.6576c-5.7344 0.7168-6.5536 3.584-7.0656 7.936-5.888 53.6576 10.8544 98.816 50.5856 135.3728 1.8432 1.6896 3.7888 3.2256 5.5808 4.9152 0.3072 0.3072 0.256 0.9728 0.3072 1.3312-13.3632 0.9216-26.7776 1.1776-39.9872 2.8672-65.0752 8.3968-121.856 59.4944-134.144 123.6992-4.4544 23.296-4.4032 47.8208-3.4304 71.68 1.9456 49.5104 13.824 96.9728 33.9456 142.336 25.4464 57.344 61.5424 106.9056 109.824 146.6368 224.9216-11.6224 406.1696-188.16 425.4208-410.9824-22.272-34.7648-58.9824-62.7712-104.96-72.3968z m-189.5424 33.3312c-1.3312-1.536-2.7136-3.0208-3.9936-4.4544 1.3312-0.1024 2.9184-0.256 4.7104-0.4096-0.256 1.6384-0.512 3.2256-0.7168 4.864z m21.5552 22.6816c0.8704-10.0864 2.304-20.5824 4.1984-31.3344 1.1776-1.3824 1.6896-3.3792 1.6384-6.0416 0-1.28 0.1024-2.5088 0.2048-3.5328 0.1024-0.6144 0.256-1.1776 0.3584-1.792 14.1312 8.4992 28.5184 3.4816 40.9088 3.0208-15.2064 12.7488-31.3856 26.3168-47.3088 39.68z m221.5424 154.1632a28.15488 28.15488 0 0 1-27.648 22.9888c-1.6896 0-3.4304-0.1536-5.2224-0.4608a28.20096 28.20096 0 0 1-22.528-32.8704c9.4208-50.4832-28.2112-68.608-29.7984-69.3248a28.19584 28.19584 0 0 1-13.6704-37.4272 28.19584 28.19584 0 0 1 37.4272-13.6704c27.3408 12.6976 75.3152 56.3712 61.44 130.7648z" fill="#1DCE75" p-id="1123"></path><path d="M651.9296 331.2128c-15.5648-0.3072-31.1296 1.536-46.592 5.9392-2.0992 0.6144-4.2496 1.024-6.4 1.4848-0.2048 0.0512-0.4608-0.2048-1.0752-0.5632 34.6624-24.8832 50.2272-58.112 44.8-101.6832-28.416-4.8128-53.8624 0.9216-76.8 17.5616-3.6864 2.6624-7.0656 5.5296-10.24 8.4992a320.7168 320.7168 0 0 1 19.5584-31.7952c16.2304-0.9728 17.3056 0.1536 17.3056 0.1536l7.5264-13.2096-37.0176-30.8736-11.008 7.68-1.3312 11.3152s-18.3296 29.7984-34.56 78.336c-24.064-69.5296-92.2624-111.8208-166.6048-102.4-5.7344 0.7168-6.5536 3.584-7.0656 7.936-5.888 53.6576 10.8544 98.816 50.5856 135.3728 1.8432 1.6896 3.7888 3.2256 5.5808 4.9152 0.3072 0.3072 0.256 0.9728 0.3072 1.3312-13.3632 0.9216-26.7776 1.1776-39.9872 2.8672-65.0752 8.3968-121.856 59.4944-134.144 123.6992-4.4544 23.296-4.4032 47.8208-3.4304 71.68 1.7408 44.4416 11.5712 87.2448 28.1088 128.3584 192.4096-13.1584 351.6416-147.0976 402.4832-326.6048z m-155.904 37.1712c-1.3312-1.536-2.7136-3.0208-3.9936-4.4544 1.3312-0.1024 2.9184-0.256 4.7104-0.4096-0.256 1.6384-0.512 3.2256-0.7168 4.864z m25.7536-8.704c1.1776-1.3824 1.6896-3.3792 1.6384-6.0416 0-1.28 0.1024-2.5088 0.2048-3.5328 0.1024-0.6144 0.256-1.1776 0.3584-1.792 14.1312 8.4992 28.5184 3.4816 40.9088 3.0208-15.2576 12.7488-31.4368 26.3168-47.4112 39.68 0.9728-10.0864 2.3552-20.5312 4.3008-31.3344z" fill="#3CD38E" p-id="1124"></path><path d="M349.4912 181.6576c-5.7344 0.7168-6.5536 3.584-7.0656 7.936-5.888 53.6576 10.8544 98.816 50.5856 135.3728 1.8432 1.6896 3.7888 3.2256 5.5808 4.9152 0.3072 0.3072 0.256 0.9728 0.3072 1.3312-13.3632 0.9216-26.7776 1.1776-39.9872 2.8672-65.0752 8.3968-121.856 59.4944-134.144 123.6992-1.6384 8.6016-2.6624 17.408-3.2768 26.3168 122.7264-32.8192 224.8192-116.1728 282.624-226.4064-30.464-53.5552-90.2656-84.224-154.624-76.032z" fill="#48E1AA" p-id="1125"></path></svg>