<svg class="icon" style="width: 1em;height: 1em;vertical-align: middle;fill: currentColor;overflow: hidden;" viewBox="0 0 1024 1024" version="1.1" xmlns="http://www.w3.org/2000/svg" p-id="5933"><path d="M512 516.4544m-450.816 0a450.816 450.816 0 1 0 901.632 0 450.816 450.816 0 1 0-901.632 0Z" fill="#E9ECFF" p-id="5934"></path><path d="M541.44 432.896c0-18.9952-15.4624-34.4576-34.4576-34.4576-18.9952 0-34.4576 15.4624-34.4576 34.4576s15.4624 34.4576 34.4576 34.4576c18.9952-0.0512 34.4576-15.4624 34.4576-34.4576z" fill="#8486F8" p-id="5935"></path><path d="M794.5216 774.912l-71.7312-73.6256c49.8176-52.992 80.4352-124.3136 80.4352-202.8032 0-163.584-132.608-296.192-296.192-296.192-163.584 0-296.192 132.608-296.192 296.192s132.608 296.192 296.192 296.192c62.976 0 121.344-19.712 169.3696-53.248l74.2912 76.2368a30.62784 30.62784 0 0 0 21.9648 9.2672c7.68 0 15.4112-2.8672 21.3504-8.704 12.0832-11.776 12.3392-31.1808 0.512-43.3152z m-171.8784-130.7136c-16.896 0-30.6176-13.7216-30.6176-30.6176 0-46.8992-38.144-84.992-84.992-84.992-46.8992 0-84.992 38.144-84.992 84.992 0 16.896-13.7216 30.6176-30.6176 30.6176-16.896 0-30.6176-13.7216-30.6176-30.6176 0-52.3264 27.648-98.3552 69.12-124.16-11.6224-15.872-18.5344-35.3792-18.5344-56.5248 0-52.7872 42.9056-95.6928 95.6928-95.6928s95.6928 42.9056 95.6928 95.6928c0 21.1456-6.912 40.6528-18.5344 56.5248 41.472 25.856 69.12 71.8336 69.12 124.16-0.1024 16.9472-13.824 30.6176-30.72 30.6176z" fill="#6C6CEA" p-id="5936"></path><path d="M739.072 386.1504c0-27.8528-2.8672-55.04-8.1408-81.408-54.3232-62.72-134.4512-102.4-223.8976-102.4-163.584 0-296.192 132.608-296.192 296.192 0 140.9024 98.4064 258.7648 230.2464 288.7168 173.1072-56.1152 297.984-214.4256 297.984-401.1008z m-347.6992 258.048c-16.896 0-30.6176-13.7216-30.6176-30.6176 0-52.3264 27.648-98.3552 69.12-124.16-11.6224-15.872-18.5344-35.3792-18.5344-56.5248 0-52.7872 42.9056-95.6928 95.6928-95.6928s95.6928 42.9056 95.6928 95.6928c0 21.1456-6.912 40.6528-18.5344 56.5248 41.472 25.856 69.12 71.8336 69.12 124.16 0 16.896-13.7216 30.6176-30.6176 30.6176s-30.6176-13.7216-30.6176-30.6176c0-46.8992-38.144-84.992-84.992-84.992-46.8992 0-84.992 38.144-84.992 84.992-0.1024 16.9472-13.824 30.6176-30.72 30.6176z" fill="#757BF2" p-id="5937"></path><path d="M426.1888 587.3152c25.9584-16.896 49.8688-36.4544 71.424-58.1632-33.536 3.6864-61.2352 26.9824-71.424 58.1632zM210.8416 498.5344c0 56.6784 15.9744 109.6704 43.5712 154.6752 37.6832-5.9904 73.728-16.6912 107.4688-31.3856-0.7168-2.6112-1.1264-5.376-1.1264-8.2432 0-52.3264 27.648-98.3552 69.12-124.16-11.6224-15.872-18.5344-35.3792-18.5344-56.5248 0-52.7872 42.9056-95.6928 95.6928-95.6928 36.1472 0 67.6352 20.1216 83.9168 49.7664a409.8048 409.8048 0 0 0 28.7744-150.9888c0-3.84-0.2048-7.68-0.3072-11.4688a295.168 295.168 0 0 0-112.384-22.1184c-163.584-0.0512-296.192 132.5568-296.192 296.1408z" fill="#8486F8" p-id="5938"></path><path d="M211.0976 487.6288c136.0896-43.8272 242.3296-150.6816 281.9072-284.928-153.4464 7.1168-276.3264 131.0208-281.9072 284.928z" fill="#8D92F8" p-id="5939"></path></svg>