<svg class="icon" style="width: 1em;height: 1em;vertical-align: middle;fill: currentColor;overflow: hidden;" viewBox="0 0 1024 1024" version="1.1" xmlns="http://www.w3.org/2000/svg" p-id="5166"><path d="M512.1024 510.5152m-450.816 0a450.816 450.816 0 1 0 901.632 0 450.816 450.816 0 1 0-901.632 0Z" fill="#FBE1FF" p-id="5167"></path><path d="M474.3168 507.904l0.0512 0.0512z" fill="#BD50D3" p-id="5168"></path><path d="M445.8496 560.0256a36.38272 36.38272 0 0 1-18.944-29.7472c-0.768-12.544 4.8128-24.4224 15.0016-31.7952 4.5056-3.2256 7.0656-8.2432 7.0656-13.7728v-30.1056c0-16.2816-13.2608-29.5424-29.5424-29.5424s-29.5424 13.2608-29.5424 29.5424v30.1056c0 5.376 2.4576 10.3424 6.8096 13.568a36.76672 36.76672 0 0 1 14.592 32.1024 36.28032 36.28032 0 0 1-18.8928 29.2352l-59.9552 32.7168v3.6864h172.4928v-3.6864l-59.0848-32.3072z" fill="#BF5CD6" p-id="5169"></path><path d="M715.776 259.6352H308.4288c-60.3648 0-109.4656 49.1008-109.4656 109.4656v282.7264c0 60.3648 49.1008 109.5168 109.4656 109.5168h407.296c60.3648 0 109.4656-49.1008 109.4656-109.5168V369.152c0.0512-60.3648-49.0496-109.5168-109.4144-109.5168z m-151.5008 366.0288c0 16.384-13.2608 29.696-29.696 29.696H302.7456c-16.384 0-29.696-13.2608-29.696-29.696v-50.944c0-10.8544 5.9392-20.8384 15.4624-26.0608l51.0976-27.904a76.55424 76.55424 0 0 1-9.1136-36.0448v-30.1056c0-48.9984 39.8848-88.9344 88.9344-88.9344s88.9344 39.8848 88.9344 88.9344v30.1056c0 12.9536-3.328 25.5488-9.4208 36.6592l49.92 27.2896a29.73696 29.73696 0 0 1 15.4624 26.0608v50.944z m166.7584 8.2432h-117.2992c-16.384 0-29.696-13.2608-29.696-29.696 0-16.384 13.2608-29.696 29.696-29.696h117.2992c16.384 0 29.696 13.2608 29.696 29.696 0 16.384-13.2608 29.696-29.696 29.696z m-146.944-118.272c0-16.384 13.2608-29.696 29.696-29.696h83.456c16.384 0 29.696 13.2608 29.696 29.696 0 16.384-13.2608 29.696-29.696 29.696h-83.456c-16.4352 0-29.696-13.312-29.696-29.696z m146.944-49.92h-117.2992c-16.384 0-29.696-13.2608-29.696-29.696s13.2608-29.696 29.696-29.696h117.2992c16.384 0 29.696 13.2608 29.696 29.696s-13.2608 29.696-29.696 29.696z" fill="#BD50D3" p-id="5170"></path><path d="M715.776 259.6352H308.4288c-60.3648 0-109.4656 49.1008-109.4656 109.5168v282.7264c0 60.3648 49.1008 109.5168 109.4656 109.5168H486.4c77.568-24.1664 146.176-68.7616 199.4752-127.4368h-72.0896c-16.384 0-29.696-13.2608-29.696-29.696s13.2608-29.696 29.696-29.696h117.6576c45.2096-70.2464 71.4752-153.9072 71.4752-243.6608 0-9.7792-0.3584-19.456-0.9728-29.0816-20.0704-25.6-51.2-42.1888-86.1696-42.1888z m-151.5008 366.0288c0 16.384-13.2608 29.696-29.696 29.696H302.7456c-16.384 0-29.696-13.2608-29.696-29.696v-50.944c0-10.8544 5.9392-20.8384 15.4624-26.0608l51.0976-27.904a76.55424 76.55424 0 0 1-9.1136-36.0448v-30.1056c0-48.9984 39.8848-88.9344 88.9344-88.9344 49.0496 0 88.9344 39.8848 88.9344 88.9344v30.1056c0 12.9536-3.328 25.5488-9.4208 36.6592l49.92 27.2896a29.73696 29.73696 0 0 1 15.4624 26.0608v50.944z m132.9664-80.3328h-83.456c-16.384 0-29.696-13.2608-29.696-29.696s13.2608-29.696 29.696-29.696h83.456c16.384 0 29.696 13.2608 29.696 29.696s-13.312 29.696-29.696 29.696z m33.792-79.616h-117.2992c-16.384 0-29.696-13.2608-29.696-29.696 0-16.384 13.2608-29.696 29.696-29.696h117.2992c16.384 0 29.696 13.2608 29.696 29.696 0 16.384-13.2608 29.696-29.696 29.696z" fill="#BF5CD6" p-id="5171"></path><path d="M198.9632 620.5952c9.8304 0.6656 19.7632 1.024 29.7984 1.024 14.9504 0 29.696-0.768 44.288-2.1504v-44.7488c0-10.8544 5.9392-20.8384 15.4624-26.0608l51.0976-27.904a76.55424 76.55424 0 0 1-9.1136-36.0448v-30.1056c0-48.9984 39.8848-88.9344 88.9344-88.9344 49.0496 0 88.9344 39.8848 88.9344 88.9344v30.1056c0 12.9536-3.328 25.5488-9.4208 36.6592l7.8848 4.3008a453.2992 453.2992 0 0 0 79.0528-79.7184c-1.1264-3.1232-1.7408-6.4512-1.7408-9.9328a29.6448 29.6448 0 0 1 29.0816-29.6448 447.27808 447.27808 0 0 0 57.6-146.688H308.4288c-60.3648 0-109.4656 49.1008-109.4656 109.5168v251.392z" fill="#CA6EE0" p-id="5172"></path><path d="M441.9072 498.4832c4.5056-3.2256 7.0656-8.2432 7.0656-13.7728v-30.1056c0-16.2816-13.2608-29.5424-29.5424-29.5424-16.2816 0-29.5424 13.2608-29.5424 29.5424v30.1056c0 5.376 2.4576 10.3424 6.8096 13.568a36.76672 36.76672 0 0 1 14.592 32.1024 36.28032 36.28032 0 0 1-18.8928 29.2352l-59.9552 32.7168v3.6864h46.3872c25.2416-8.9088 49.4592-19.968 72.3968-33.024l-5.376-2.9696a36.38272 36.38272 0 0 1-18.944-29.7472c-0.768-12.544 4.8128-24.4224 15.0016-31.7952z" fill="#CA6EE0" p-id="5173"></path><path d="M355.7376 392.704c8.2432-8.4992 18.1248-15.36 29.184-20.0192a453.4528 453.4528 0 0 0 106.7008-112.9984H308.4288c-60.3648 0-109.4656 49.1008-109.4656 109.5168v85.1456A450.14016 450.14016 0 0 0 355.7376 392.704z" fill="#D786EA" p-id="5174"></path></svg>