<svg class="icon" style="width: 1em;height: 1em;vertical-align: middle;fill: currentColor;overflow: hidden;" viewBox="0 0 1024 1024" version="1.1" xmlns="http://www.w3.org/2000/svg" p-id="3964"><path d="M509.9008 519.8336m-450.816 0a450.816 450.816 0 1 0 901.632 0 450.816 450.816 0 1 0-901.632 0Z" fill="#E9F4FF" p-id="3965"></path><path d="M719.872 329.3184h-45.6192l25.6512-38.8096c5.7856-8.704 3.3792-20.48-5.376-26.2144l-28.2112-18.6368c-8.704-5.7856-20.48-3.3792-26.2144 5.376l-51.7632 78.336H439.4496L378.7776 246.4768c-6.1952-8.448-18.0224-10.24-26.4704-4.096l-27.2896 19.968c-8.448 6.1952-10.24 18.0224-4.096 26.4704l29.6448 40.448H299.2128c-45.9264 0-83.0976 37.2224-83.0976 83.0976v279.296c0 45.9264 37.2224 83.0976 83.0976 83.0976h420.6592c45.9264 0 83.0976-37.2224 83.0976-83.0976V412.416c0.0512-45.9264-37.1712-83.0976-83.0976-83.0976z m-102.912 244.5312l-154.112 88.9856c-13.1072 7.5776-29.4912-1.8944-29.4912-17.0496V467.8144c0-15.1552 16.384-24.6272 29.4912-17.0496l154.112 88.9856c13.1072 7.5776 13.1072 26.5216 0 34.0992z" fill="#2595E8" p-id="3966"></path><path d="M803.0208 412.416c0-45.9264-37.2224-83.0976-83.0976-83.0976h-45.6192l25.6512-38.8096c5.7856-8.704 3.3792-20.48-5.376-26.2144l-28.2112-18.6368c-8.704-5.7856-20.48-3.3792-26.2144 5.376l-51.7632 78.336H439.4496L378.7776 246.4768c-6.1952-8.448-18.0224-10.24-26.4704-4.096l-27.2896 19.968c-8.448 6.1952-10.24 18.0224-4.096 26.4704l29.6448 40.448H299.2128c-45.9264 0-83.0976 37.2224-83.0976 83.0976v279.296c0 45.9264 37.2224 83.0976 83.0976 83.0976h263.7312c133.3248-69.888 227.2768-204.6464 240.0768-362.3424z m-186.0608 161.4336l-154.112 88.9856c-13.1072 7.5776-29.4912-1.8944-29.4912-17.0496V467.8144c0-15.1552 16.384-24.6272 29.4912-17.0496l154.112 88.9856c13.1072 7.5776 13.1072 26.5216 0 34.0992z" fill="#3A9CED" p-id="3967"></path><path d="M216.1152 665.9072c4.7616 0.1536 9.472 0.256 14.2848 0.256 73.0112 0 141.9264-17.3568 202.9056-48.1792V467.8144c0-15.1552 16.384-24.6272 29.4912-17.0496l106.6496 61.5936c61.4912-70.1952 101.5808-159.5904 110.0288-258.048l-13.1584-8.704c-8.704-5.7856-20.48-3.3792-26.2144 5.376l-51.7632 78.336H439.4496L378.7776 246.4768c-6.1952-8.448-18.0224-10.24-26.4704-4.096l-27.2896 19.968c-8.448 6.1952-10.24 18.0224-4.096 26.4704l29.6448 40.448H299.2128c-45.9264 0-83.0976 37.2224-83.0976 83.0976v253.5424z" fill="#59ADF8" p-id="3968"></path><path d="M475.392 329.3184h-35.9424L378.7776 246.4768c-6.1952-8.448-18.0224-10.24-26.4704-4.096l-27.2896 19.968c-8.448 6.1952-10.24 18.0224-4.096 26.4704l29.6448 40.448H299.2128c-45.9264 0-83.0976 37.2224-83.0976 83.0976V495.616c104.96-23.5008 196.096-83.6608 259.2768-166.2976z" fill="#6BC2FC" p-id="3969"></path></svg>