<svg class="icon" style="width: 1em;height: 1em;vertical-align: middle;fill: currentColor;overflow: hidden;" viewBox="0 0 1024 1024" version="1.1" xmlns="http://www.w3.org/2000/svg" p-id="4126"><path d="M509.9008 513.1264m-450.816 0a450.816 450.816 0 1 0 901.632 0 450.816 450.816 0 1 0-901.632 0Z" fill="#E9ECFF" p-id="4127"></path><path d="M714.7008 254.6688H304.9472c-36.5568 0-66.1504 29.5936-66.1504 66.1504v283.9552c0 36.5568 29.5936 66.1504 66.1504 66.1504h409.8048c36.5568 0 66.1504-29.5936 66.1504-66.1504V320.8192c-0.0512-36.5056-29.6448-66.1504-66.2016-66.1504zM487.8336 435.8144H449.024v103.8848c0 16.2816-13.2096 29.4912-29.4912 29.4912-16.2816 0-29.4912-13.2096-29.4912-29.4912V435.8144H351.232c-16.2816 0-29.4912-13.2096-29.4912-29.4912 0-16.2816 13.2096-29.4912 29.4912-29.4912h136.6016c16.2816 0 29.4912 13.2096 29.4912 29.4912 0 16.3328-13.1584 29.4912-29.4912 29.4912z m207.8208-18.2272l-54.8352 133.376a29.4912 29.4912 0 0 1-27.2896 18.2784h-0.256a29.5168 29.5168 0 0 1-27.2384-18.688l-52.4288-133.376c-5.9392-15.1552 1.4848-32.256 16.64-38.2464 15.1552-5.9392 32.256 1.4848 38.2464 16.64l25.6 65.1264 26.9824-65.5872c6.1952-15.0528 23.3984-22.2208 38.5024-16.0768a29.58336 29.58336 0 0 1 16.0768 38.5536zM713.1136 761.2928H306.5344c-16.2816 0-29.4912-11.8784-29.4912-26.4704s13.2096-26.4704 29.4912-26.4704h406.5792c16.2816 0 29.4912 11.8784 29.4912 26.4704s-13.2096 26.4704-29.4912 26.4704z" fill="#6C6CEA" p-id="4128"></path><path d="M304.9472 254.6688c-36.5568 0-66.1504 29.5936-66.1504 66.1504v283.9552c0 36.5568 29.5936 66.1504 66.1504 66.1504h309.0944c74.496-80.4352 120.064-188.0064 120.064-306.2784 0-37.8368-4.6592-74.5472-13.4656-109.6704-1.9456-0.1536-3.9424-0.3072-5.9392-0.3072H304.9472z m182.8864 181.1456H449.024v103.8848c0 16.2816-13.2096 29.4912-29.4912 29.4912-16.2816 0-29.4912-13.2096-29.4912-29.4912V435.8144H351.232c-16.2816 0-29.4912-13.2096-29.4912-29.4912 0-16.2816 13.2096-29.4912 29.4912-29.4912h136.6016c16.2816 0 29.4912 13.2096 29.4912 29.4912 0 16.3328-13.1584 29.4912-29.4912 29.4912z m207.8208-18.2272l-54.8352 133.376a29.4912 29.4912 0 0 1-27.2896 18.2784h-0.256a29.5168 29.5168 0 0 1-27.2384-18.688l-52.4288-133.376c-5.9392-15.1552 1.4848-32.256 16.64-38.2464 15.1552-5.9392 32.256 1.4848 38.2464 16.64l25.6 65.1264 26.9824-65.5872c6.1952-15.0528 23.3984-22.2208 38.5024-16.0768a29.58336 29.58336 0 0 1 16.0768 38.5536zM306.5344 708.3008c-16.2816 0-29.4912 11.8784-29.4912 26.4704s13.2096 26.4704 29.4912 26.4704h191.1808c27.648-15.0016 53.5552-32.768 77.312-52.992H306.5344z" fill="#757BF2" p-id="4129"></path><path d="M238.7968 320.8192v283.9552c0 15.4624 5.3248 29.6448 14.2336 40.9088a449.3312 449.3312 0 0 0 173.0048-77.2096 29.49632 29.49632 0 0 1-35.9424-28.7744V435.8144h-38.8096c-16.2816 0-29.4912-13.2096-29.4912-29.4912 0-16.2816 13.2096-29.4912 29.4912-29.4912h136.6016c16.2816 0 29.4912 13.2096 29.4912 29.4912 0 16.2816-13.2096 29.4912-29.4912 29.4912H449.024v103.8848c0 4.864-1.1776 9.4208-3.2768 13.4144a452.8128 452.8128 0 0 0 97.536-111.36l-9.6768-24.6272c-5.9392-15.1552 1.4848-32.256 16.64-38.2464 8.448-3.328 17.4592-2.4576 24.832 1.536a447.50848 447.50848 0 0 0 32.8192-125.7472H304.9472c-36.5568 0-66.1504 29.6448-66.1504 66.1504z" fill="#8486F8" p-id="4130"></path><path d="M238.7968 320.8192v132.0448c29.696-14.0288 57.6512-31.232 83.4048-51.0976a29.47584 29.47584 0 0 1 29.0816-24.8832h0.4096a452.21376 452.21376 0 0 0 94.0544-122.1632h-140.8c-36.5568-0.0512-66.1504 29.5936-66.1504 66.0992z" fill="#8D92F8" p-id="4131"></path></svg>