<svg class="icon" style="width: 1em;height: 1em;vertical-align: middle;fill: currentColor;overflow: hidden;" viewBox="0 0 1024 1024" version="1.1" xmlns="http://www.w3.org/2000/svg" p-id="4905"><path d="M509.1328 514.7136m-450.816 0a450.816 450.816 0 1 0 901.632 0 450.816 450.816 0 1 0-901.632 0Z" fill="#FFF1DC" p-id="4906"></path><path d="M327.7312 704.6656a18.1248 18.1248 0 0 0 18.1248 18.1248h340.9408v-36.2496h-340.992a18.14528 18.14528 0 0 0-18.0736 18.1248z" fill="#FF8E12" p-id="4907"></path><path d="M465.7152 490.0864c14.336 0 27.6992-4.3008 38.912-11.5712 0.2048-0.1536 0.3584-0.3072 0.5632-0.4608 0.8704-0.7168 1.8432-1.3312 2.7648-1.8432 17.8176-13.056 29.4912-34.0992 29.4912-57.856 0-39.5776-32.2048-71.7312-71.7312-71.7312s-71.7312 32.1536-71.7312 71.68 32.1536 71.7824 71.7312 71.7824z" fill="#FCB138" p-id="4908"></path><path d="M758.8352 344.1664c-11.9808 0-21.76 9.728-21.76 21.76v371.968c0 7.936-3.072 15.36-8.704 20.992a29.55264 29.55264 0 0 1-20.992 8.704H343.9104c-29.5424 0-59.1872-35.5328-59.1872-65.0752 0-45.2096 29.6448-62.5152 59.1872-62.5152h343.9104V265.2672c0-24.5248-19.968-44.4928-44.4928-44.4928H354.4064c-79.2576 0-107.52 51.6608-107.52 100.0448v394.752l0.0512 8.6528 0.4096-0.6656c4.8128 49.0496 46.2848 87.5008 96.5632 87.5008h367.2064c18.5344 0 35.9424-7.2192 49.0496-20.3264 13.1072-13.1072 20.3264-30.5152 20.3264-49.1008V365.9264a21.68832 21.68832 0 0 0-21.6576-21.76z m-293.376-47.0528c66.3552 0 120.3712 54.016 120.3712 120.3712 0 31.488-12.1344 61.2864-34.2528 83.968l-2.2528 2.304 47.36 59.2896c3.1232 3.9424 4.5568 8.8576 3.9936 13.824-0.5632 4.9664-3.0208 9.472-6.9632 12.5952-3.3792 2.7136-7.424 4.096-11.7248 4.096-5.7344 0-11.1104-2.56-14.6944-7.0656l-48.7424-61.0304-2.56 1.1776a118.6816 118.6816 0 0 1-50.5344 11.1616c-66.3552 0-120.3712-54.016-120.3712-120.3712 0.0512-66.3552 54.016-120.32 120.3712-120.32z" fill="#FF8E12" p-id="4909"></path><path d="M345.8048 686.592a18.1248 18.1248 0 0 0 0 36.2496h214.7328c18.3808-10.8544 35.8912-22.9888 52.48-36.2496H345.8048z" fill="#FCA315" p-id="4910"></path><path d="M352.9728 767.5392c-34.4576 0-64.1024-20.7872-64.1024-64.512 0-35.6352 26.0096-63.0784 61.6448-63.0784h292.5056a449.024 449.024 0 0 0 44.7488-53.1968V265.216c0-24.5248-19.968-44.4928-44.4928-44.4928H354.4064c-79.2576 0-107.52 51.6608-107.52 100.0448v394.752l0.0512 8.6528 0.4096-0.6656c2.816 28.8768 18.432 54.016 41.0624 69.888 14.2336 1.3312 28.6208 2.048 43.2128 2.048 55.04 0 107.776-9.8816 156.5184-27.904h-135.168z m112.4864-470.4256c66.3552 0 120.3712 54.016 120.3712 120.3712 0 31.488-12.1856 61.2864-34.2528 83.968l-2.2528 2.304 47.36 59.2896c3.1232 3.9424 4.5568 8.8576 3.9936 13.824-0.5632 5.0176-3.0208 9.472-6.9632 12.5952-3.3792 2.7136-7.424 4.096-11.7248 4.096-5.7344 0-11.1104-2.56-14.6944-7.0656l-48.7424-61.0304-2.56 1.1776a118.6816 118.6816 0 0 1-50.5344 11.1616c-66.3552 0-120.3712-53.9648-120.3712-120.3712 0.0512-66.3552 54.016-120.32 120.3712-120.32zM780.544 365.9264c0-11.9808-9.728-21.76-21.76-21.76s-21.76 9.728-21.76 21.76v175.9744a448.14336 448.14336 0 0 0 43.4688-156.16v-19.8144z" fill="#FCA315" p-id="4911"></path><path d="M492.032 534.8352c-8.6528 1.9456-17.5104 2.9696-26.5728 2.9696-66.3552 0-120.3712-53.9648-120.3712-120.3712 0-66.3552 53.9648-120.3712 120.3712-120.3712 66.3552 0 120.3712 54.016 120.3712 120.3712 0 5.0688-0.4096 10.1376-1.0752 15.104 40.704-61.6448 56.4224-133.8368 62.6176-211.6096-1.3312-0.1024-2.6624-0.2048-4.0448-0.2048H354.4064c-79.2576 0-107.52 51.6608-107.52 100.0448v312.8832c92.5184-7.7824 177.0496-43.5712 245.1456-98.816z" fill="#FCB138" p-id="4912"></path><path d="M346.5216 399.104c8.2944-53.9648 52.5312-96.2048 107.3664-101.4272 18.176-23.9104 34.048-49.664 47.2064-76.9536H354.4064c-79.2576 0-107.52 51.6608-107.52 100.0448V449.536a447.6416 447.6416 0 0 0 99.6352-50.432z" fill="#FFC65E" p-id="4913"></path></svg>