<svg class="icon" style="width: 1em;height: 1em;vertical-align: middle;fill: currentColor;overflow: hidden;" viewBox="0 0 1024 1024" version="1.1" xmlns="http://www.w3.org/2000/svg" p-id="4460"><path d="M507.8528 513.1264m-450.816 0a450.816 450.816 0 1 0 901.632 0 450.816 450.816 0 1 0-901.632 0Z" fill="#E9F4FF" p-id="4461"></path><path d="M646.7072 752.384H368.9984c-16.4864 0-29.9008 13.4144-29.9008 29.9008s13.4144 29.9008 29.9008 29.9008h277.76c16.4864 0 29.9008-13.4144 29.9008-29.9008s-13.4144-29.9008-29.952-29.9008zM708.864 248.6784H306.8416c-44.9536 0-81.408 36.4544-81.408 81.408v304.0768c0 44.9536 36.4544 81.408 81.408 81.408h401.9712c44.9536 0 81.408-36.4544 81.408-81.408v-304.128c0-44.9536-36.4032-81.3568-81.3568-81.3568z m-9.0112 309.5552h-98.7136c-7.2704 0-14.2336-2.816-19.456-7.8336L486.8096 459.6224l-43.8784 81.2032a28.16512 28.16512 0 0 1-24.7808 14.7968H322.7648c-15.5648 0-28.16-12.5952-28.16-28.16s12.5952-28.16 28.16-28.16H401.408l53.4528-98.9696a28.2624 28.2624 0 0 1 20.3776-14.4384c8.704-1.3312 17.5104 1.3824 23.8592 7.4752l113.408 108.544h87.3984c15.5648 0 28.16 12.5952 28.16 28.16s-12.6464 28.16-28.2112 28.16z" fill="#6C6CEA" p-id="4462"></path><path d="M790.2208 330.0352c0-44.9536-36.4544-81.408-81.408-81.408H306.8416c-44.9536 0-81.408 36.4544-81.408 81.408v304.0768c0 44.9536 36.4544 81.408 81.408 81.408h282.0608c107.1104-69.5296 182.8352-183.296 201.3184-315.4432V330.0352z m-90.368 228.1984h-98.7136c-7.2704 0-14.2336-2.816-19.456-7.8336L486.8096 459.6224l-43.8784 81.2032a28.16512 28.16512 0 0 1-24.7808 14.7968H322.7648c-15.5648 0-28.16-12.5952-28.16-28.16s12.5952-28.16 28.16-28.16H401.408l53.4528-98.9696a28.2624 28.2624 0 0 1 20.3776-14.4384c8.704-1.3312 17.5104 1.3824 23.8592 7.4752l113.408 108.544h87.3984c15.5648 0 28.16 12.5952 28.16 28.16s-12.6464 28.16-28.2112 28.16zM368.9984 752.384c-16.4864 0-29.9008 13.4144-29.9008 29.9008 0 1.8944 0.2048 3.7376 0.5632 5.5808 1.4336 0 2.816 0.0512 4.2496 0.0512 62.3616 0 121.7536-12.6464 175.7184-35.5328H368.9984z" fill="#757BF2" p-id="4463"></path><path d="M532.0192 502.8864l-45.2096-43.264-43.8784 81.2032a28.16512 28.16512 0 0 1-24.7808 14.7968H322.7648c-15.5648 0-28.16-12.5952-28.16-28.16s12.5952-28.16 28.16-28.16H401.408l53.4528-98.9696a28.2624 28.2624 0 0 1 20.3776-14.4384c8.704-1.3312 17.5104 1.3824 23.8592 7.4752l71.168 68.096c48.896-60.0576 82.6368-132.9152 95.3856-212.7872H306.8416c-44.9536 0-81.408 36.4544-81.408 81.408v297.728c118.9376-1.3312 226.7648-48.5888 306.5856-124.928z" fill="#8486F8" p-id="4464"></path><path d="M494.1824 248.6784H306.8416c-44.9536 0-81.408 36.4544-81.408 81.408V452.608c113.7664-30.9248 209.6128-105.1648 268.7488-203.9296z" fill="#8D92F8" p-id="4465"></path></svg>