<svg class="icon" style="width: 1em;height: 1em;vertical-align: middle;fill: currentColor;overflow: hidden;" viewBox="0 0 1024 1024" version="1.1" xmlns="http://www.w3.org/2000/svg" p-id="4076"><path d="M504.32 513.1264m-450.816 0a450.816 450.816 0 1 0 901.632 0 450.816 450.816 0 1 0-901.632 0Z" fill="#FBE1FF" p-id="4077"></path><path d="M780.5952 463.5648l-61.696 34.6112v-40.2944c0-37.12-30.1056-67.2768-67.2768-67.2768h-74.3424c36.864-13.568 63.1808-48.9984 63.1808-90.624 0-53.2992-43.2128-96.512-96.512-96.512-43.9808 0-81.0496 29.3888-92.672 69.5808-11.6736-40.192-48.7424-69.5808-92.672-69.5808-53.2992 0-96.512 43.2128-96.512 96.512 0 41.5744 26.3168 77.0048 63.1808 90.624H271.7184c-37.12 0-67.2768 30.1056-67.2768 67.2768v252.5696c0 37.12 30.1056 67.2768 67.2768 67.2768h379.904c37.12 0 67.2768-30.1056 67.2768-67.2768v-40.2944l61.696 34.6112c17.408 9.7792 38.912-2.816 38.912-22.784V486.3488c0-19.968-21.504-32.5632-38.912-22.784zM451.2768 326.912a96.8192 96.8192 0 0 0 59.3408 63.6928H391.936c28.5696-10.496 50.7904-34.2016 59.3408-63.6928z m94.6688 280.0128l-129.1264 72.448c-17.408 9.7792-38.912-2.816-38.912-22.784v-144.896c0-19.968 21.504-32.5632 38.912-22.784l129.1264 72.448c17.7664 9.984 17.7664 35.584 0 45.568z" fill="#BD50D3" p-id="4078"></path><path d="M718.8992 498.176v-40.2944c0-37.12-30.1056-67.2768-67.2768-67.2768h-74.3424c36.864-13.568 63.1808-48.9984 63.1808-90.624 0-53.2992-43.2128-96.512-96.512-96.512-43.9808 0-81.0496 29.3888-92.672 69.5808-11.6736-40.192-48.7424-69.5808-92.672-69.5808-53.2992 0-96.512 43.2128-96.512 96.512 0 41.5744 26.3168 77.0048 63.1808 90.624H271.7184c-37.12 0-67.2768 30.1056-67.2768 67.2768v252.5696c0 37.12 30.1056 67.2768 67.2768 67.2768h255.232c121.856-59.4944 212.9408-172.288 242.7904-308.0704l-50.8416 28.5184zM451.2768 326.912a96.8192 96.8192 0 0 0 59.3408 63.6928H391.936c28.5696-10.496 50.7904-34.2016 59.3408-63.6928z m94.6688 280.0128l-129.1264 72.448c-17.408 9.7792-38.912-2.816-38.912-22.784v-144.896c0-19.968 21.504-32.5632 38.912-22.784l129.1264 72.448c17.7664 9.984 17.7664 35.584 0 45.568z" fill="#BF5CD6" p-id="4079"></path><path d="M577.28 390.6048c36.864-13.568 63.1808-48.9984 63.1808-90.624 0-53.2992-43.2128-96.512-96.512-96.512-43.9808 0-81.0496 29.3888-92.672 69.5808-11.6736-40.192-48.7424-69.5808-92.672-69.5808-53.2992 0-96.512 43.2128-96.512 96.512 0 41.5744 26.3168 77.0048 63.1808 90.624H271.7184c-37.12 0-67.2768 30.1056-67.2768 67.2768v205.1584h1.6896c60.7744 0 118.784-12.0832 171.6736-33.8944V511.6928c0-19.968 21.504-32.5632 38.912-22.784L512.6656 542.72a451.90144 451.90144 0 0 0 107.5712-152.1664h-42.9568z m-185.344 0a96.8192 96.8192 0 0 0 59.3408-63.6928 96.8192 96.8192 0 0 0 59.3408 63.6928H391.936z" fill="#CA6EE0" p-id="4080"></path><path d="M516.3008 207.616c-31.2832 9.3696-55.9104 34.0992-65.024 65.4848-11.6736-40.192-48.7424-69.5808-92.672-69.5808-53.2992 0-96.512 43.2128-96.512 96.512 0 41.5744 26.3168 77.0048 63.1808 90.624H271.7184c-37.12 0-67.2768 30.1056-67.2768 67.2768v31.6928c144.5888-36.9152 261.2224-143.5648 311.8592-282.0096z" fill="#D786EA" p-id="4081"></path></svg>