<svg class="icon" style="width: 1em;height: 1em;vertical-align: middle;fill: currentColor;overflow: hidden;" viewBox="0 0 1024 1024" version="1.1" xmlns="http://www.w3.org/2000/svg" p-id="2628"><path d="M509.44 513.3824m-450.816 0a450.816 450.816 0 1 0 901.632 0 450.816 450.816 0 1 0-901.632 0Z" fill="#E9F4FF" p-id="2629"></path><path d="M421.2736 424.7552c15.4112 0 27.904-12.544 27.904-27.904s-12.544-27.9552-27.904-27.9552-27.9552 12.544-27.9552 27.9552 12.544 27.904 27.9552 27.904z" fill="#2595E8" p-id="2630"></path><path d="M721.5616 220.5184H312.1152c-43.52 0-78.7968 35.2768-78.7968 78.7968v428.1856c0 43.52 35.2768 78.7968 78.7968 78.7968h409.4464c43.52 0 78.7968-35.2768 78.7968-78.7968V299.3152c0-43.52-35.2768-78.7968-78.7968-78.7968z m-300.288 95.744c44.4416 0 80.5888 36.1472 80.5888 80.5888s-36.1472 80.5888-80.5888 80.5888-80.5888-36.1472-80.5888-80.5888 36.1472-80.5888 80.5888-80.5888z m289.4336 172.8512l-142.08 146.5856a30.70464 30.70464 0 0 1-39.7312 3.7376l-85.1456-59.9552-79.5648 102.7584a30.58688 30.58688 0 0 1-24.32 11.9296 30.6176 30.6176 0 0 1-18.7904-6.4512 30.6688 30.6688 0 0 1-5.4784-43.0592l97.536-125.952a30.62784 30.62784 0 0 1 41.9328-6.2976l87.7056 61.7472 123.8016-127.744a30.6688 30.6688 0 0 1 43.4176-0.6656c12.1856 11.7248 12.4928 31.1808 0.7168 43.3664z" fill="#2595E8" p-id="2631"></path><path d="M800.3584 299.3152c0-43.52-35.2768-78.7968-78.7968-78.7968H312.1152c-43.52 0-78.7968 35.2768-78.7968 78.7968v428.1856c0 18.5856 6.4512 35.584 17.2032 49.0496 33.9968 8.192 69.4784 12.5952 106.0352 12.5952 221.8496 0 406.2208-160.2048 443.8016-371.2512V299.3152z m-379.0848 16.9472c44.4416 0 80.5888 36.1472 80.5888 80.5888s-36.1472 80.5376-80.5888 80.5376-80.5888-36.1472-80.5888-80.5376c0-44.4416 36.1472-80.5888 80.5888-80.5888z m289.4336 172.8512l-142.08 146.5856a30.70464 30.70464 0 0 1-39.7312 3.7376l-85.1456-59.9552-79.5648 102.7584a30.58688 30.58688 0 0 1-24.32 11.9296 30.6176 30.6176 0 0 1-18.7904-6.4512 30.6688 30.6688 0 0 1-5.4784-43.0592l97.536-125.952a30.62784 30.62784 0 0 1 41.9328-6.2976l87.7056 61.7472 123.8016-127.744a30.6688 30.6688 0 0 1 43.4176-0.6656c12.1856 11.7248 12.4928 31.1808 0.7168 43.3664z" fill="#3A9CED" p-id="2632"></path><path d="M233.3184 299.3152v329.6768c35.6864 0 70.4-4.1984 103.68-12.032l76.1344-98.304a30.62784 30.62784 0 0 1 41.9328-6.2976l43.264 30.464c101.8368-74.1376 171.3664-189.9008 183.7056-322.304H312.1152c-43.52 0-78.7968 35.2768-78.7968 78.7968z m187.9552 16.9472c44.4416 0 80.5888 36.1472 80.5888 80.5888s-36.1472 80.5376-80.5888 80.5376-80.5888-36.1472-80.5888-80.5376c0-44.4416 36.1472-80.5888 80.5888-80.5888z" fill="#59ADF8" p-id="2633"></path><path d="M233.3184 299.3152v155.7504a448.768 448.768 0 0 0 108.6976-44.0832c-0.8192-4.608-1.3312-9.3184-1.3312-14.1312 0-44.4416 36.1472-80.5888 80.5888-80.5888 11.1616 0 21.76 2.304 31.4368 6.4a452.95616 452.95616 0 0 0 70.2976-102.144H312.1152c-43.52 0-78.7968 35.2768-78.7968 78.7968z" fill="#6BC2FC" p-id="2634"></path></svg>