<svg class="icon" style="width: 1em;height: 1em;vertical-align: middle;fill: currentColor;overflow: hidden;" viewBox="0 0 1024 1024" version="1.1" xmlns="http://www.w3.org/2000/svg" p-id="3011"><path d="M514.5088 510.8736m-450.816 0a450.816 450.816 0 1 0 901.632 0 450.816 450.816 0 1 0-901.632 0Z" fill="#E3FFF3" p-id="3012"></path><path d="M667.3408 290.4576v-26.8288c0-43.0592-40.96-73.8304-81.4592-61.2352l-274.944 85.76c-26.4704 8.2432-44.4928 33.0752-44.4928 61.2352v398.6432c0 39.1168 33.8432 68.096 70.3488 63.5904h327.3728c54.272 0 98.4576-45.4656 98.4576-101.2736V391.6288c0-54.7328-42.4448-99.4816-95.2832-101.1712z m-225.792 351.0784l107.3664-39.4752c15.9744-5.888 33.5872 2.56 39.3728 18.7904 5.7856 16.2304-2.5088 34.1504-18.4832 40.0384l-107.3664 39.4752c-3.4304 1.28-6.9632 1.8944-10.4448 1.8944-12.5952 0-24.3712-7.936-28.928-20.6336-5.7344-16.3328 2.56-34.2528 18.4832-40.0896z m268.3904 68.8128c0 26.3168-20.5312 47.7184-45.7728 47.7184h-152.1152l110.7968-34.56c26.4704-8.2432 44.4928-33.0752 44.4928-61.2352V344.1152c23.7568 1.6896 42.5472 22.3744 42.5472 47.5136v318.72z" fill="#05C46D" p-id="3013"></path><path d="M762.624 467.5072V391.6288c0-54.7328-42.4448-99.4816-95.2832-101.2224v-26.8288c0-43.0592-40.96-73.8304-81.4592-61.2352l-274.944 85.76c-26.4704 8.2432-44.4928 33.0752-44.4928 61.2352v398.6432c0 6.1952 0.9216 12.0832 2.5088 17.664a431.93856 431.93856 0 0 0 82.7904 8.0384c124.928 0 237.3632-53.248 315.648-138.1888V344.1152c23.7568 1.6896 42.5472 22.3744 42.5472 47.5136v189.3376a422.6048 422.6048 0 0 0 52.6848-113.4592z m-192.8192 193.3312l-107.3664 39.4752c-3.4304 1.28-6.9632 1.8944-10.4448 1.8944-12.5952 0-24.3712-7.936-28.928-20.6336-5.7856-16.2304 2.5088-34.1504 18.4832-40.0384l107.3664-39.4752c15.9744-5.888 33.5872 2.56 39.3728 18.7904 5.7344 16.2304-2.5088 34.1504-18.4832 39.9872z" fill="#1DCE75" p-id="3014"></path><path d="M660.9408 235.4688c-13.056-27.0336-44.1344-42.7008-75.008-33.0752l-274.944 85.76c-26.4704 8.2432-44.4928 33.0752-44.4928 61.2352v271.7184c208.4864-15.3088 375.5008-179.1488 394.4448-385.6384z" fill="#3CD38E" p-id="3015"></path><path d="M515.5328 224.3072L310.9376 288.1536c-26.4704 8.2432-44.4928 33.0752-44.4928 61.2352v98.9184c110.4384-37.888 200.3968-119.4496 249.088-224z" fill="#48E1AA" p-id="3016"></path></svg>