<svg class="icon" style="width: 1em;height: 1em;vertical-align: middle;fill: currentColor;overflow: hidden;" viewBox="0 0 1024 1024" version="1.1" xmlns="http://www.w3.org/2000/svg" p-id="1317"><path d="M506.2656 517.7856m-450.816 0a450.816 450.816 0 1 0 901.632 0 450.816 450.816 0 1 0-901.632 0Z" fill="#FFE1E9" p-id="1318"></path><path d="M769.8944 365.8752h-110.08c6.2464-5.888 11.6736-11.264 15.2576-15.104 14.7968-16.0768 32.3584-50.9952-15.7696-104.448-26.5216-29.44-51.7632-35.4304-68.096-35.2256-18.5856 0.2048-35.84 8.5504-48.64 23.4496l-2.7648 3.2256c-7.6288 8.7552-19.7632 22.8352-31.232 40.96-11.4688-18.1248-23.6544-32.1536-31.232-40.96l-2.816-3.2256c-12.7488-14.8992-30.0032-23.1936-48.64-23.4496h-0.768c-16.4352 0-41.216 6.1952-67.328 35.2256-48.128 53.4528-30.5152 88.3712-15.7696 104.448 3.584 3.8912 9.0112 9.216 15.2576 15.104h-118.272c-24.2176 0-43.9296 19.712-43.9296 43.9296v82.0736c0 24.2176 19.712 43.9296 43.9296 43.9296h4.096v233.2672c0 28.0064 22.784 50.7904 50.7904 50.7904h421.0688c28.0064 0 50.7904-22.784 50.7904-50.7904v-233.2672h4.096c24.2176 0 43.9296-19.712 43.9296-43.9296V409.8048c0.0512-24.2176-19.6608-43.9296-43.8784-43.9296z m-188.6208-92.16l2.9696-3.4304c3.584-4.1984 6.4-4.2496 7.5776-4.2496h0.1024c5.4272 0 15.2064 4.4544 26.5216 16.9984 10.9056 12.0832 20.1216 26.2144 16.1792 30.5152-9.5744 10.4448-40.448 38.0928-56.576 52.3264h-39.7824c-0.256-5.888-0.8192-11.6736-1.7408-17.3056 8.192-32.5632 31.488-59.5456 44.7488-74.8544z m-182.6816 9.3184c11.3152-12.544 21.0944-16.9984 26.5216-16.9984h0.1024c1.1776 0 3.9936 0.0512 7.5776 4.2496l2.9696 3.4304c13.2608 15.3088 36.5568 42.2912 44.7488 74.8544-0.9216 5.632-1.536 11.4176-1.7408 17.3056h-39.7824c-16.128-14.2336-46.9504-41.8816-56.576-52.3264-3.9424-4.3008 5.2736-18.432 16.1792-30.5152z m285.1328 273.1008H329.0112a29.3376 29.3376 0 1 1 0-58.6752h354.7136a29.3376 29.3376 0 0 1 29.3376 29.3376c0 16.2304-13.1072 29.3376-29.3376 29.3376z" fill="#FF3369" p-id="1319"></path><path d="M659.7632 365.8752c6.2464-5.888 11.6736-11.264 15.2576-15.104 14.7968-16.0768 32.3584-50.9952-15.7696-104.448-26.5216-29.44-51.7632-35.4304-68.096-35.2256-18.5856 0.2048-35.84 8.5504-48.64 23.4496l-2.816 3.2256c-7.6288 8.7552-19.7632 22.8352-31.232 40.96-11.4688-18.1248-23.6544-32.1536-31.232-40.96l-2.816-3.2256c-12.7488-14.8992-30.0032-23.1936-48.64-23.4496h-0.768c-16.4352 0-41.216 6.1952-67.328 35.2256-48.128 53.4528-30.5152 88.3712-15.7696 104.448 3.584 3.8912 9.0112 9.216 15.2576 15.104H239.0016c-24.2176 0-43.9296 19.712-43.9296 43.9296v82.0736c0 24.2176 19.712 43.9296 43.9296 43.9296h4.096v233.2672c0 28.0064 22.784 50.7904 50.7904 50.7904h203.6736c161.8432-70.5536 274.9952-231.8848 274.9952-419.7376 0-11.52-0.4608-22.9376-1.28-34.2528-0.4608 0-0.9216-0.0512-1.4336-0.0512h-110.08z m-78.4896-92.16l2.9696-3.4304c3.584-4.1984 6.4-4.2496 7.5776-4.2496h0.1024c5.4272 0 15.2064 4.4544 26.5216 16.9984 10.9056 12.0832 20.1216 26.2144 16.1792 30.5152-9.5744 10.4448-40.448 38.0928-56.576 52.3264h-39.7824c-0.256-5.888-0.8192-11.6736-1.7408-17.3056 8.192-32.5632 31.488-59.5456 44.7488-74.8544z m-182.6816 9.3184c11.3152-12.544 21.0944-16.9984 26.5216-16.9984h0.1024c1.1776 0 3.9936 0.0512 7.5776 4.2496l2.9696 3.4304c13.2608 15.3088 36.5568 42.2912 44.7488 74.8544-0.9216 5.632-1.536 11.4176-1.7408 17.3056h-39.7824c-16.128-14.2336-46.9504-41.8816-56.576-52.3264-3.9424-4.3008 5.2736-18.432 16.1792-30.5152z m285.1328 273.1008H329.0112a29.3376 29.3376 0 1 1 0-58.6752h354.7136a29.3376 29.3376 0 0 1 29.3376 29.3376c0 16.2304-13.1072 29.3376-29.3376 29.3376z" fill="#FF4D7C" p-id="1320"></path><path d="M518.3488 556.1344H329.0112a29.3376 29.3376 0 1 1 0-58.6752h237.4656c50.9952-73.8304 80.896-163.328 80.896-259.84 0-1.024-0.0512-2.048-0.0512-3.1232-22.016-19.3024-42.3424-23.6544-56.1664-23.4496-18.5856 0.2048-35.84 8.5504-48.64 23.4496l-2.816 3.2256c-7.6288 8.7552-19.7632 22.8352-31.232 40.96-11.4688-18.1248-23.6544-32.1536-31.232-40.96l-2.816-3.2256c-12.7488-14.8992-30.0032-23.1936-48.64-23.4496h-0.768c-16.4352 0-41.216 6.1952-67.328 35.2256-48.128 53.4528-30.5152 88.3712-15.7696 104.448 3.584 3.8912 9.0112 9.216 15.2576 15.104H239.0016c-24.2176 0-43.9296 19.712-43.9296 43.9296v82.0736c0 24.2176 19.712 43.9296 43.9296 43.9296h4.096v156.3648c107.52-12.4416 203.6736-62.208 275.2512-135.9872z m62.9248-282.4192l2.9696-3.4304c3.584-4.1984 6.4-4.2496 7.5776-4.2496h0.1024c5.4272 0 15.2064 4.4544 26.5216 16.9984 10.9056 12.0832 20.1216 26.2144 16.1792 30.5152-9.5744 10.4448-40.448 38.0928-56.576 52.3264h-39.7824c-0.256-5.888-0.8192-11.6736-1.7408-17.3056 8.192-32.5632 31.488-59.5456 44.7488-74.8544z m-182.6816 9.3184c11.3152-12.544 21.0944-16.9984 26.5216-16.9984h0.1024c1.1776 0 3.9936 0.0512 7.5776 4.2496l2.9696 3.4304c13.2608 15.3088 36.5568 42.2912 44.7488 74.8544-0.9216 5.632-1.536 11.4176-1.7408 17.3056h-39.7824c-16.128-14.2336-46.9504-41.8816-56.576-52.3264-3.9424-4.3008 5.2736-18.432 16.1792-30.5152z" fill="#FF5F89" p-id="1321"></path><path d="M432.8448 360.448c-16.8448-14.9504-41.984-37.6832-50.432-46.8992-3.9424-4.3008 5.2736-18.432 16.1792-30.5152 11.3152-12.544 21.0944-16.9984 26.5216-16.9984h0.1024c1.1776 0 3.9936 0.0512 7.5776 4.2496l2.9696 3.4304c8.1408 9.3696 20.0192 23.1424 29.9008 39.8848 10.752-17.664 20.3264-36.096 28.672-55.1936-6.5536-8.5504-12.5952-15.5136-17.0496-20.6848l-2.816-3.2256c-12.7488-14.8992-30.0032-23.1936-48.64-23.4496h-0.768c-16.4352 0-41.216 6.1952-67.328 35.2256-48.128 53.4528-30.5152 88.3712-15.7696 104.448 3.584 3.8912 9.0112 9.216 15.2576 15.104H239.0016c-24.2176 0-43.9296 19.712-43.9296 43.9296v82.0736c0 8.6528 2.56 16.6912 6.8608 23.5008 92.3136-26.624 172.6464-81.6128 230.912-154.88z" fill="#FF7196" p-id="1322"></path></svg>