<svg class="icon" style="width: 1em;height: 1em;vertical-align: middle;fill: currentColor;overflow: hidden;" viewBox="0 0 1024 1024" version="1.1" xmlns="http://www.w3.org/2000/svg" p-id="4490"><path d="M513.2288 510.72m-450.816 0a450.816 450.816 0 1 0 901.632 0 450.816 450.816 0 1 0-901.632 0Z" fill="#FFE1E9" p-id="4491"></path><path d="M777.8304 321.6896h-198.4512l62.6176-60.7744a29.2864 29.2864 0 0 0 0.6144-41.4208 29.2864 29.2864 0 0 0-41.4208-0.6144L514.4576 303.104 436.3264 219.8528a29.28128 29.28128 0 0 0-41.3696-1.3312 29.2352 29.2352 0 0 0-1.28 41.3696L451.584 321.6896H258.7648c-19.712 0-35.6352 15.9744-35.6352 35.6352v83.3024c0 19.712 15.9744 35.6352 35.6352 35.6352h27.2384v238.7456c0 45.1072 36.608 81.7152 81.7152 81.7152h301.2096c45.1072 0 81.7152-36.608 81.7152-81.7152V476.3136h27.2384c19.712 0 35.6352-15.9744 35.6352-35.6352V357.376a35.6864 35.6864 0 0 0-35.6864-35.6864z m-230.2464 342.0672c0 16.1792-13.1072 29.2864-29.2864 29.2864s-29.2864-13.1072-29.2864-29.2864v-97.7408c0-16.1792 13.1072-29.2864 29.2864-29.2864s29.2864 13.1072 29.2864 29.2864v97.7408z" fill="#FF3369" p-id="4492"></path><path d="M776.6016 321.6896h-197.2224l62.6176-60.7744a29.2864 29.2864 0 0 0 0.6144-41.4208 29.2864 29.2864 0 0 0-41.4208-0.6144L514.4576 303.104 436.3264 219.8528a29.28128 29.28128 0 0 0-41.3696-1.3312 29.2352 29.2352 0 0 0-1.28 41.3696L451.584 321.6896H258.7648c-19.6608 0-35.6352 15.9744-35.6352 35.6352v83.3024c0 19.712 15.9744 35.6352 35.6352 35.6352h27.2384v238.7456c0 45.1072 36.608 81.7152 81.7152 81.7152H432.64c146.6368-31.8976 265.9328-136.7552 318.0032-274.7392v-45.7216h14.4896a442.2656 442.2656 0 0 0 11.4688-154.5728z m-229.0176 342.0672c0 16.1792-13.1072 29.2864-29.2864 29.2864-16.1792 0-29.2864-13.1072-29.2864-29.2864v-97.7408c0-16.1792 13.1072-29.2864 29.2864-29.2864 16.1792 0 29.2864 13.1072 29.2864 29.2864v97.7408z" fill="#FF4D7C" p-id="4493"></path><path d="M579.3792 321.6896l62.6176-60.7744a29.2864 29.2864 0 0 0 0.6144-41.4208 29.2864 29.2864 0 0 0-41.4208-0.6144L514.4576 303.104 436.3264 219.8528a29.28128 29.28128 0 0 0-41.3696-1.3312 29.2352 29.2352 0 0 0-1.28 41.3696L451.584 321.6896H258.7648c-19.6608 0-35.6352 15.9744-35.6352 35.6352v83.3024c0 19.712 15.9744 35.6352 35.6352 35.6352h27.2384v169.0624c76.6464-11.8272 146.688-43.52 204.9024-89.4976a29.27616 29.27616 0 0 1 22.1696-18.5856c62.8224-56.6784 109.2096-131.1744 131.1744-215.552h-64.8704z" fill="#FF5F89" p-id="4494"></path><path d="M488.3456 275.3024L436.3264 219.8528a29.28128 29.28128 0 0 0-41.3696-1.3312 29.2352 29.2352 0 0 0-1.28 41.3696L451.584 321.6896H258.7648c-19.6608 0-35.6352 15.9744-35.6352 35.6352v83.3024c0 14.4384 8.6016 26.8288 20.8896 32.4096 103.68-33.7408 190.464-105.0112 244.3264-197.7344z" fill="#FF7196" p-id="4495"></path></svg>