<svg class="icon" style="width: 1em;height: 1em;vertical-align: middle;fill: currentColor;overflow: hidden;" viewBox="0 0 1024 1024" version="1.1" xmlns="http://www.w3.org/2000/svg" p-id="5310"><path d="M504.3712 513.1264m-450.816 0a450.816 450.816 0 1 0 901.632 0 450.816 450.816 0 1 0-901.632 0Z" fill="#FFE3DB" p-id="5311"></path><path d="M778.4448 541.5424l-64.5632-67.2768a27.17184 27.17184 0 0 0-38.4-0.8192 27.21792 27.21792 0 0 0-0.8192 38.4l27.0336 28.16h-168.96c-15.0016 0-27.1872 12.1856-27.1872 27.1872 0 15.0016 12.1856 27.1872 27.1872 27.1872h171.008l-22.8864 25.0368a27.1872 27.1872 0 0 0 1.6896 38.4c5.2224 4.7616 11.776 7.1168 18.3296 7.1168 7.3728 0 14.6944-2.9696 20.0704-8.8576l58.0608-63.488c13.312-14.5408 13.0048-36.9152-0.5632-51.0464z" fill="#F23D4F" p-id="5312"></path><path d="M785.8688 641.9968l-36.5568 39.936a65.5872 65.5872 0 0 1-48.384 21.2992c-16.4352 0-32.1536-6.0928-44.2368-17.2032-12.9024-11.8272-20.48-27.9552-21.248-45.4656-0.1024-2.6624-0.1024-5.2736 0.1024-7.8848h-102.7584c-36.1472 0-65.5872-29.3888-65.5872-65.5872S496.64 501.6064 532.7872 501.6064h96.5632c-1.0752-8.2432-0.512-16.64 1.536-24.7296-4.9152-2.2016-9.8816-4.2496-14.9504-6.144 34.5088-29.184 56.4736-72.7552 56.4736-121.3952 0-87.6544-71.3216-159.0272-159.0272-159.0272S354.4064 261.632 354.4064 349.3376c0 48.64 21.9648 92.2112 56.4736 121.3952a289.61792 289.61792 0 0 0-94.3616 58.3168c-53.4528 49.3568-86.2208 116.3264-92.3136 188.5696-0.1536 1.7408-0.2048 3.4816-0.1536 5.2224 0.1536 11.776 4.6592 23.2448 12.7488 31.9488a48.4864 48.4864 0 0 0 35.584 15.5648h0.0512c65.8944-0.1024 129.3824-0.5632 190.72-1.0752 17.0496-0.1536 33.7408-0.256 50.1248-0.3584 16.4352 0.1024 33.1776 0.256 50.3808 0.3584 61.3888 0.4608 124.8256 0.9728 190.7712 1.0752h0.0512c13.4656 0 26.4704-5.6832 35.584-15.616a48.55296 48.55296 0 0 0 12.7488-31.9488c0.0512-1.7408 0-3.5328-0.1536-5.2736a290.07872 290.07872 0 0 0-16.7936-75.52z" fill="#F23D4F" p-id="5313"></path><path d="M658.432 687.5648c-0.5632-0.512-1.1776-0.9728-1.7408-1.4848-12.9024-11.8272-20.48-27.9552-21.248-45.4656-0.1024-2.6624-0.1024-5.2736 0.1024-7.8848h-102.7584c-36.1472 0-65.5872-29.3888-65.5872-65.5872s29.44-65.536 65.5872-65.536h96.5632c-1.0752-8.2432-0.512-16.64 1.536-24.7296-4.9152-2.2016-9.8816-4.2496-14.9504-6.144 34.5088-29.184 56.4736-72.7552 56.4736-121.3952 0-87.6544-71.3216-159.0272-159.0272-159.0272S354.4064 261.632 354.4064 349.3376c0 48.64 21.9648 92.2112 56.4736 121.3952a289.61792 289.61792 0 0 0-94.3616 58.3168c-53.4528 49.3568-86.2208 116.3264-92.3136 188.5696-0.1536 1.7408-0.2048 3.4816-0.1536 5.2224 0.1536 11.776 4.6592 23.2448 12.7488 31.9488a48.4864 48.4864 0 0 0 35.584 15.5648h0.0512c65.8944-0.1024 129.3824-0.5632 190.72-1.0752 17.0496-0.1536 33.7408-0.256 50.1248-0.3584 16.4352 0.1024 33.1776 0.256 50.3808 0.3584h0.5632a448.9984 448.9984 0 0 0 94.208-81.7152z" fill="#FC4956" p-id="5314"></path><path d="M713.9328 474.2656a27.12576 27.12576 0 0 0-38.4-0.8192 27.21792 27.21792 0 0 0-0.8192 38.4l27.0336 28.16h-168.9088c-15.0016 0-27.1872 12.1856-27.1872 27.1872s12.1856 27.1872 27.1872 27.1872h171.008l-22.8864 25.0368a27.12064 27.12064 0 0 0 1.536 38.1952 448.75776 448.75776 0 0 0 70.0416-143.1552l-38.6048-40.192z" fill="#FC4956" p-id="5315"></path><path d="M470.6816 588.1344c-2.2016-6.6048-3.4816-13.6192-3.4816-20.9408 0-36.1472 29.3888-65.5872 65.5872-65.5872h23.296a448.49152 448.49152 0 0 0 89.1392-241.152c-28.6208-42.2912-77.0048-70.144-131.7888-70.144-87.7056 0-159.0272 71.3216-159.0272 159.0272 0 48.64 21.9648 92.2112 56.4736 121.3952a289.61792 289.61792 0 0 0-94.3616 58.3168 289.48992 289.48992 0 0 0-86.7328 151.6544c90.368-6.8608 173.2608-40.3456 240.896-92.5696z" fill="#FF5C64" p-id="5316"></path><path d="M513.4336 190.3104c-87.7056 0-159.0272 71.3216-159.0272 159.0272 0 24.6784 5.6832 48.0768 15.7696 68.9152 70.0416-58.3168 122.112-137.4208 146.7392-227.84-1.1776-0.0512-2.304-0.1024-3.4816-0.1024z" fill="#FF716E" p-id="5317"></path></svg>