<svg class="icon" style="width: 1em;height: 1em;vertical-align: middle;fill: currentColor;overflow: hidden;" viewBox="0 0 1024 1024" version="1.1" xmlns="http://www.w3.org/2000/svg" p-id="5006"><path d="M505.088 513.1264m-450.816 0a450.816 450.816 0 1 0 901.632 0 450.816 450.816 0 1 0-901.632 0Z" fill="#E9F4FF" p-id="5007"></path><path d="M248.6272 530.176L170.3936 451.9424a30.80704 30.80704 0 0 1 0-43.5712L347.136 231.6288a30.80704 30.80704 0 0 1 43.5712 0l78.2336 78.2336a30.80704 30.80704 0 0 1 0 43.5712l-176.7424 176.7424a30.80704 30.80704 0 0 1-43.5712 0z" fill="#55B5F3" p-id="5008"></path><path d="M561.6128 843.1616L483.328 764.8768a30.80704 30.80704 0 0 1 0-43.5712l176.7424-176.7424a30.80704 30.80704 0 0 1 43.5712 0l78.2336 78.2336a30.80704 30.80704 0 0 1 0 43.5712l-176.7424 176.7424c-11.9808 12.0832-31.488 12.0832-43.52 0.0512z" fill="#2595E8" p-id="5009"></path><path d="M795.136 442.2144c-55.6544-55.6544-180.6336-182.9376-228.096-228.096-53.248 53.248-61.4912 134.4512-24.6784 196.352l-25.4976-25.4976a30.0032 30.0032 0 0 0-42.4448 0l-150.6304 150.6304a30.0032 30.0032 0 0 0 0 42.4448l14.4896 14.4896-39.168 3.9424c-15.1552 1.536-21.76 19.968-10.9568 30.7712l93.184 93.184c10.8032 10.8032 29.2352 4.1984 30.7712-10.9568l3.9424-39.168 19.5072 19.5072a30.0032 30.0032 0 0 0 42.4448 0l150.6304-150.6304a30.0032 30.0032 0 0 0 0-42.4448l-29.7984-29.7984c61.8496 36.7616 143.0528 28.5184 196.3008-24.7296z" fill="#2595E8" p-id="5010"></path><path d="M723.8144 370.432C666.3168 312.4224 599.04 244.5824 567.04 214.1184c-53.248 53.248-61.4912 134.4512-24.6784 196.352l-25.4976-25.4976a30.0032 30.0032 0 0 0-42.4448 0l-150.6304 150.6304a30.0032 30.0032 0 0 0 0 42.4448l14.4896 14.4896-39.168 3.9424c-15.1552 1.536-21.76 19.968-10.9568 30.7712l93.184 93.184c10.8032 10.8032 29.2352 4.1984 30.7712-11.008l3.9424-39.168 19.5072 19.5072a30.0032 30.0032 0 0 0 42.4448 0l150.6304-150.6304a30.0032 30.0032 0 0 0 0-42.4448l-29.7984-29.7984c36.8128 21.8624 80.4864 27.6992 121.0368 17.7152 3.8912-23.7568 5.9392-48.1792 5.9392-73.0112-0.1024-13.8752-0.768-27.5968-1.9968-41.1648zM705.28 546.2016l-1.6384-1.6384a30.80704 30.80704 0 0 0-43.5712 0L483.328 721.3056a30.80704 30.80704 0 0 0 0 43.5712l29.5936 29.5936c90.6752-56.4736 159.8464-144.2816 192.3584-248.2688z" fill="#39A5E9" p-id="5011"></path><path d="M602.368 251.4944c0-0.9728-0.0512-1.9456-0.0512-2.9184-13.9776-13.824-26.112-25.7024-35.328-34.4576-53.248 53.248-61.4912 134.4512-24.6784 196.352l-25.4976-25.4976a30.0032 30.0032 0 0 0-42.4448 0l-150.6304 150.6304a30.0032 30.0032 0 0 0 0 42.4448l14.4896 14.4896-39.168 3.9424c-15.1552 1.536-21.76 19.968-10.9568 30.7712l39.424 39.424c161.536-68.5568 274.8416-228.608 274.8416-415.1808z" fill="#55B5F3" p-id="5012"></path><path d="M445.184 286.0544L390.7072 231.6288a30.80704 30.80704 0 0 0-43.5712 0L170.3936 408.3712a30.80704 30.80704 0 0 0 0 43.5712l51.712 51.712c97.6896-43.7248 176.9984-121.1904 223.0784-217.6z" fill="#6BC2FC" p-id="5013"></path></svg>