<svg class="icon" style="width: 1em;height: 1em;vertical-align: middle;fill: currentColor;overflow: hidden;" viewBox="0 0 1024 1024" version="1.1" xmlns="http://www.w3.org/2000/svg" p-id="1963"><path d="M508.1088 519.8336m-450.816 0a450.816 450.816 0 1 0 901.632 0 450.816 450.816 0 1 0-901.632 0Z" fill="#FFF1DC" p-id="1964"></path><path d="M514.4576 310.9888c-152.7808 0-276.6336 123.8528-276.6336 276.6336s123.8528 276.6336 276.6336 276.6336 276.6336-123.8528 276.6336-276.6336-123.8528-276.6336-276.6336-276.6336z m-13.2608 464.7424v-163.328h-102.4l127.1296-199.5264v142.1312h100.6592l-125.3888 220.7232z" fill="#FF8E12" p-id="1965"></path><path d="M232.8064 434.0224s34.4576-76.8 136.8576-128.9216c-31.7952-49.4592-103.3216-71.0656-158.9248-22.0672-51.1488 45.0048-34.4576 129.792 22.0672 150.9888z" fill="#FFC65E" p-id="1966"></path><path d="M791.1936 434.0224s-34.4576-76.8-136.8576-128.9216c31.7952-49.4592 103.3216-71.0656 158.9248-22.0672 51.1488 45.0048 34.4576 129.792-22.0672 150.9888zM790.3744 568.5248c-9.8304-143.872-129.536-257.536-275.9168-257.536-152.7808 0-276.6336 123.8528-276.6336 276.6336 0 93.696 46.592 176.4352 117.8624 226.4576 10.8032 0.768 21.6576 1.1776 32.6656 1.1776 175.4624 0.0512 327.5776-100.3008 402.0224-246.7328z m-289.1776 207.2064v-163.328h-102.4l127.1296-199.5264v142.1312h100.6592l-125.3888 220.7232z" fill="#FCA315" p-id="1967"></path><path d="M514.4576 310.9888c-152.7808 0-276.6336 123.8528-276.6336 276.6336 0 23.1424 2.8672 45.6192 8.2432 67.1232 6.2976 0.256 12.5952 0.4096 18.944 0.4096 68.6592 0 133.7344-15.36 192-42.8544H398.7968l127.1296-199.5264v142.1312h22.4256c60.0576-48.64 107.4176-112.3328 136.192-185.3952-46.8992-36.608-105.9328-58.5216-170.0864-58.5216zM654.336 305.1008c16.0768 8.192 30.464 16.9472 43.3664 25.9584 6.7072-22.8864 11.6224-46.4896 14.592-70.656-23.6544 7.68-44.3904 23.6544-57.9584 44.6976z" fill="#FCB138" p-id="1968"></path><path d="M258.3552 482.9184c104.8064-25.4464 195.2256-87.5008 257.0752-171.8784h-0.9728c-115.712-0.0512-214.784 71.0144-256.1024 171.8784z" fill="#FFC65E" p-id="1969"></path></svg>