<svg class="icon" style="width: 1em;height: 1em;vertical-align: middle;fill: currentColor;overflow: hidden;" viewBox="0 0 1024 1024" version="1.1" xmlns="http://www.w3.org/2000/svg" p-id="4010"><path d="M507.392 513.1264m-450.816 0a450.816 450.816 0 1 0 901.632 0 450.816 450.816 0 1 0-901.632 0Z" fill="#FFE1E9" p-id="4011"></path><path d="M786.944 752.128l-45.2096-375.9104c-2.4064-20.0704-20.8896-35.2256-42.9056-35.2256h-31.7952c-1.0752-79.4624-71.9872-143.8208-158.976-143.8208-87.04 0-157.9008 64.3584-158.976 143.8208h-31.7952c-22.016 0-40.4992 15.1552-42.9056 35.2256l-45.2096 375.9104c-2.816 23.3984 17.2032 43.8784 42.9056 43.8784h471.9616c25.7024 0 45.7216-20.48 42.9056-43.8784zM508.0576 247.296c56.8832 0 103.2192 41.8816 104.2944 93.7472H403.7632c1.0752-51.9168 47.4112-93.7472 104.2944-93.7472z m122.7776 342.272l-127.0784 135.3216c-4.8128 5.12-13.9776 1.2288-12.8-5.4784l16.0768-89.9584c0.5632-3.072-1.28-6.0928-4.4544-7.2704l-113.9712-42.6496c-4.5568-1.6896-6.0416-7.0144-2.8672-10.496l133.0176-147.2c4.6592-5.1712 13.824-1.536 12.9024 5.12l-15.104 109.0048c-0.4096 3.1232 1.536 6.0416 4.7616 7.1168l106.496 35.7888c4.7616 1.6384 6.3488 7.168 3.0208 10.7008z" fill="#FF3369" p-id="4012"></path><path d="M741.7856 376.2176c-2.4064-20.0704-20.8896-35.2256-42.9056-35.2256h-31.7952c-1.0752-79.4624-71.9872-143.8208-158.976-143.8208S350.1568 261.5296 349.0816 340.992h-31.7952c-22.016 0-40.4992 15.1552-42.9056 35.2256l-45.2096 375.9104c-2.816 23.3984 17.2032 43.8784 42.9056 43.8784h283.1872c97.792-56.6272 172.288-148.8896 205.824-259.072l-19.3024-160.7168zM508.0576 247.296c56.8832 0 103.2192 41.8816 104.2944 93.7472H403.7632c1.0752-51.9168 47.4112-93.7472 104.2944-93.7472z m122.7776 342.272l-127.0784 135.3216c-4.8128 5.12-13.9776 1.2288-12.8-5.4784l16.0768-89.9584c0.5632-3.072-1.28-6.0928-4.4544-7.2704l-113.9712-42.6496c-4.5568-1.6896-6.0416-7.0144-2.8672-10.496l133.0176-147.2c4.6592-5.1712 13.824-1.536 12.9024 5.12l-15.104 109.0048c-0.4096 3.1232 1.536 6.0416 4.7616 7.1168l106.496 35.7888c4.7616 1.6384 6.3488 7.168 3.0208 10.7008z" fill="#FF4D7C" p-id="4013"></path><path d="M471.0912 610.4064l-82.4832-30.8736c-4.5568-1.6896-6.0416-7.0144-2.8672-10.496l133.0176-147.2c4.6592-5.1712 13.824-1.536 12.9024 5.12l-15.104 109.0048c-0.4096 3.1232 1.536 6.0416 4.7616 7.1168l18.2272 6.144c64.2048-70.3488 106.3424-161.1264 115.712-261.4272-23.7568-53.0944-80.7424-90.624-147.2-90.624-87.04 0-157.9008 64.3584-158.976 143.8208h-31.7952c-22.016 0-40.4992 15.1552-42.9056 35.2256L236.032 695.296a447.7696 447.7696 0 0 0 235.0592-84.8896z m36.9664-363.1104c56.8832 0 103.2192 41.8816 104.2944 93.7472H403.7632c1.0752-51.9168 47.4112-93.7472 104.2944-93.7472z" fill="#FF5F89" p-id="4014"></path><path d="M464.7936 340.992H403.7632c1.0752-51.8656 47.4624-93.7472 104.2944-93.7472 1.9968 0 3.9424 0.1536 5.9392 0.256 6.0928-15.9232 11.3664-32.256 15.6672-48.9984-7.0656-0.8704-14.2848-1.3824-21.6064-1.3824-87.04 0-157.9008 64.3584-158.976 143.8208h-31.7952c-22.016 0-40.4992 15.1552-42.9056 35.2256l-15.5136 129.0752C342.784 472.064 414.3616 414.3616 464.7936 340.992z" fill="#FF7196" p-id="4015"></path></svg>