<svg class="icon" style="width: 1em;height: 1em;vertical-align: middle;fill: currentColor;overflow: hidden;" viewBox="0 0 1024 1024" version="1.1" xmlns="http://www.w3.org/2000/svg" p-id="2759"><path d="M500.7872 513.28m-450.816 0a450.816 450.816 0 1 0 901.632 0 450.816 450.816 0 1 0-901.632 0Z" fill="#FFF1DC" p-id="2760"></path><path d="M500.7872 182.1696c-182.8864 0-331.1104 148.224-331.1104 331.1104s148.224 331.1104 331.1104 331.1104 331.1104-148.224 331.1104-331.1104-148.224-331.1104-331.1104-331.1104z m100.5568 381.184c16.3328 0 29.5936 13.2608 29.5936 29.5936 0 16.3328-13.2608 29.5936-29.5936 29.5936H530.432v26.4192c0 16.3328-13.2608 29.5936-29.5936 29.5936-16.3328 0-29.5936-13.2608-29.5936-29.5936v-26.4192H400.2816c-16.3328 0-29.5936-13.2608-29.5936-29.5936 0-16.3328 13.2608-29.5936 29.5936-29.5936h70.912v-27.9552H400.2816c-16.3328 0-29.5936-13.2608-29.5936-29.5936 0-16.3328 13.2608-29.5936 29.5936-29.5936h43.7248L387.7376 394.3424a29.60896 29.60896 0 0 1 48.7936-33.536l63.5904 92.4672 58.368-89.9584a29.55264 29.55264 0 0 1 40.9088-8.704 29.55264 29.55264 0 0 1 8.704 40.9088L555.776 476.16h45.568c16.3328 0 29.5936 13.2608 29.5936 29.5936 0 16.3328-13.2608 29.5936-29.5936 29.5936H530.432v27.9552h70.912z" fill="#FF8E12" p-id="2761"></path><path d="M791.4496 354.5088C735.232 251.8016 626.176 182.1696 500.7872 182.1696c-182.8864 0-331.1104 148.224-331.1104 331.1104 0 117.9648 61.7472 221.4912 154.6752 280.1152 5.4272 0.2048 10.9056 0.3072 16.384 0.3072 245.0944 0 444.5184-195.584 450.7136-439.1936z m-190.1056 208.8448c16.3328 0 29.5936 13.2608 29.5936 29.5936s-13.2608 29.5936-29.5936 29.5936H530.432v26.4192c0 16.3328-13.2608 29.5936-29.5936 29.5936s-29.5936-13.2608-29.5936-29.5936v-26.4192H400.2816c-16.3328 0-29.5936-13.2608-29.5936-29.5936s13.2608-29.5936 29.5936-29.5936h70.912v-27.9552H400.2816c-16.3328 0-29.5936-13.2608-29.5936-29.5936s13.2608-29.5936 29.5936-29.5936h43.7248L387.7376 394.3424a29.60896 29.60896 0 0 1 48.7936-33.536l63.5904 92.4672 58.368-89.9584a29.55264 29.55264 0 0 1 40.9088-8.704 29.55264 29.55264 0 0 1 8.704 40.9088L555.776 476.16h45.568c16.3328 0 29.5936 13.2608 29.5936 29.5936s-13.2608 29.5936-29.5936 29.5936H530.432v27.9552h70.912z" fill="#FCA315" p-id="2762"></path><path d="M500.7872 182.1696c-182.8864 0-331.1104 148.224-331.1104 331.1104 0 42.1888 7.9872 82.5344 22.3744 119.6032 8.3968 0.4608 16.8448 0.7168 25.3952 0.7168 54.9376 0 107.5712-9.8304 156.2112-27.8016-1.8944-3.8912-2.9696-8.2432-2.9696-12.8512 0-16.3328 13.2608-29.5936 29.5936-29.5936h58.9312c4.0448-2.56 8.0384-5.2224 11.9808-7.8848v-20.0704H400.2816c-16.3328 0-29.5936-13.2608-29.5936-29.5936s13.2608-29.5936 29.5936-29.5936h43.7248L387.7376 394.3424a29.60896 29.60896 0 0 1 48.7936-33.536l63.5904 92.4672 58.368-89.9584a29.55264 29.55264 0 0 1 40.9088-8.704 29.55264 29.55264 0 0 1 8.704 40.9088L555.776 476.16h3.9424c58.7776-68.5056 97.3312-154.8288 106.4448-249.7536a330.14784 330.14784 0 0 0-165.376-44.2368z" fill="#FCB138" p-id="2763"></path><path d="M172.7488 468.8896c78.3872-11.9808 150.1696-44.1856 209.7664-91.0848a29.48608 29.48608 0 0 1 33.792-29.44 451.37408 451.37408 0 0 0 109.2608-165.1712c-8.192-0.6144-16.4864-1.024-24.832-1.024-167.7312 0-306.2784 124.8256-327.9872 286.72z" fill="#FFC65E" p-id="2764"></path></svg>