<svg class="icon" style="width: 1em;height: 1em;vertical-align: middle;fill: currentColor;overflow: hidden;" viewBox="0 0 1024 1024" version="1.1" xmlns="http://www.w3.org/2000/svg" p-id="945"><path d="M514.4064 509.6448m-450.816 0a450.816 450.816 0 1 0 901.632 0 450.816 450.816 0 1 0-901.632 0Z" fill="#FFF7DC" p-id="946"></path><path d="M661.0944 591.0016c-42.5984-0.1024-83.1488-7.6288-119.1936-30.5152-44.288-28.1088-44.288-69.6832-0.256-97.6384 65.6896-41.728 178.3808-40.96 243.6096 1.6896 40.1408 26.2656 39.4752 69.3248-1.4336 94.8736-37.3248 23.2448-78.7456 31.8464-122.7264 31.5904z" fill="#FF8E12" p-id="947"></path><path d="M227.6352 603.7504c67.0208 70.3488 151.04 85.1456 240.384 88.9344-2.8672 39.6288 4.864 71.9872 36.4032 96.1024l-0.768 5.6832c-19.2 0-31.9488 0.5632-51.0976-0.3584-64.3584-3.2256-126.1056-15.8208-180.1216-51.6096-34.9184-23.1424-59.648-52.9408-56.064-96.3072 1.024-13.056 6.656-25.7536 11.264-42.4448z" fill="#FCA315" p-id="948"></path><path d="M517.1712 580.2496c66.4576 71.168 229.632 64.7168 288 1.3312 15.3088 18.5344 13.7728 43.3152-5.0176 63.7952-24.7296 27.0336-58.2656 37.8368-93.9008 43.3664-59.8016 9.3184-116.992 3.7888-167.68-31.1808-30.1568-20.7872-37.376-49.2032-21.4016-77.312z" fill="#FF8E12" p-id="949"></path><path d="M516.9152 680.6016c64.4608 70.9632 226.9696 68.3008 288.4608 2.304 15.0016 19.5072 13.2096 44.0832-5.2224 64.1536-27.2384 29.5936-64.2048 39.936-103.0144 44.9024-56.576 7.2192-110.848 0.768-158.3104-32.6656-30.3104-21.2992-37.7856-48.9984-21.9136-78.6944z" fill="#FF8E12" p-id="950"></path><path d="M718.8992 343.4496l-0.0512-0.0512c5.6832-31.6928-11.0592-65.4848-45.4656-88.6272-61.7472-41.472-132.352-52.7872-215.9104-54.528-13.6704 1.3312-37.2224 3.072-60.672 5.9904-48.3328 6.0416-93.44 20.992-133.376 48.0256-60.5696 41.0624-64 100.4544-7.3216 146.0224 16.8448 13.568 37.0176 24.2688 57.2416 32.9728 43.1104 18.688 89.4464 24.4224 136.3968 27.392l3.1232 0.1536c2.1504 0.1024 4.2496 0.1536 6.3488 0.1024 13.056 0.2048 26.4704-0.0512 31.232-0.8704 2.9184-5.8368 15.104-18.2784 20.4288-23.552 42.3936-34.7648 96.2048-43.7248 150.8352-41.8304 0 0 17.7152 0.512 28.5696 1.792 17.408-11.5712 25.1904-37.7856 27.6992-48.4352 0.1536-0.512 0.256-1.024 0.3584-1.536 0.3584-1.8432 0.5632-3.0208 0.5632-3.0208zM484.608 554.496c-5.3248-8.192-11.5712-27.6992-11.5712-27.6992l-22.0672-0.512c-82.944-4.608-159.7952-23.7568-219.7504-85.2992-24.4736 35.584-19.6096 77.7728 12.5952 110.6432 42.5472 43.3664 98.56 60.7744 157.5424 70.9632 7.7312 1.3312 15.5648 2.2016 23.2448 2.816 18.2272 2.048 40.0384 3.6352 48.1792 3.1744-5.3248-29.1328 2.56-58.368 11.8272-74.0864zM516.9152 680.6016c-15.872 29.6448-8.3968 57.344 21.9136 78.6944a192.0512 192.0512 0 0 0 24.5248 14.592c18.8928-13.4656 36.7104-28.416 53.248-44.5952-39.8336-6.8096-76.2368-22.8352-99.6864-48.6912zM693.76 629.4528c-64.9728 7.6288-137.5232-7.3216-176.64-49.2032-15.9744 28.1088-8.7552 56.5248 21.4528 77.3632 34.56 23.8592 72.192 33.9968 111.6672 35.072 16.2304-19.7632 30.8224-40.9088 43.52-63.232zM541.6448 462.848c-44.032 28.0064-44.032 69.5808 0.256 97.6384 36.096 22.8864 76.6464 30.4128 119.1936 30.5152 18.5856 0.1024 36.7616-1.3824 54.3232-4.9152a447.10912 447.10912 0 0 0 35.2768-138.6496c-65.4848-24.6272-153.8048-19.712-209.0496 15.4112z" fill="#FCA315" p-id="951"></path><path d="M227.6352 603.7504c-4.608 16.6912-10.24 29.3888-11.3152 42.3936-1.536 18.5856 2.1504 34.6112 9.5744 48.7424a448.3072 448.3072 0 0 0 105.8816-24.2688c-37.632-13.1584-72.7552-33.8944-104.1408-66.8672zM450.9696 526.2848c-82.944-4.608-159.7952-23.7568-219.7504-85.2992-24.4736 35.584-19.6096 77.7728 12.5952 110.6432 42.5472 43.3664 98.56 60.7744 157.5424 70.9632 7.2704 1.2288 14.5408 2.048 21.76 2.6624 17.5104-11.3152 34.1504-23.808 49.8688-37.376 2.4064-13.4656 6.8096-25.2416 11.6224-33.3824-5.3248-8.192-11.5712-27.6992-11.5712-27.6992l-22.0672-0.512zM396.8 206.2848c-48.3328 6.0416-93.44 20.992-133.376 48.0256-60.5696 41.0624-64 100.4544-7.3216 146.0224 16.8448 13.568 37.0176 24.2688 57.2416 32.9728 43.1104 18.688 89.4464 24.4224 136.3968 27.392l3.1232 0.1536c2.1504 0.1024 4.2496 0.1536 6.3488 0.1024 13.056 0.2048 26.4704-0.0512 31.232-0.8704 2.9184-5.8368 15.104-18.2784 20.4288-23.552 27.0848-22.2208 58.88-33.8944 92.5184-38.912a450.4064 450.4064 0 0 0 26.0096-151.1424c0-5.3248-0.1024-10.5984-0.3072-15.9232-50.7904-22.016-107.3152-29.0304-171.52-30.4128-13.7728 1.4336-37.376 3.2256-60.7744 6.144z" fill="#FFBC42" p-id="952"></path><path d="M231.2192 440.9856c-15.1552 22.016-19.0464 46.5408-12.1856 69.8368 22.1696-8.0384 43.52-17.8176 63.8976-29.0816a252.4672 252.4672 0 0 1-51.712-40.7552zM457.472 200.2944c-13.6704 1.3312-37.2224 3.072-60.672 5.9904-48.3328 6.0416-93.44 20.992-133.376 48.0256-60.5696 41.0624-64 100.4544-7.3216 146.0224 16.8448 13.568 37.0176 24.2688 57.2416 32.9728 9.1136 3.9424 18.3808 7.2704 27.7504 10.1888C418.2528 383.6928 475.4432 299.3664 501.0944 202.24c-14.2336-1.024-28.7232-1.6384-43.6224-1.9456z" fill="#FFC65E" p-id="953"></path></svg>