<svg class="icon" style="width: 1em;height: 1em;vertical-align: middle;fill: currentColor;overflow: hidden;" viewBox="0 0 1024 1024" version="1.1" xmlns="http://www.w3.org/2000/svg" p-id="1783"><path d="M510.8736 510.0544m-450.816 0a450.816 450.816 0 1 0 901.632 0 450.816 450.816 0 1 0-901.632 0Z" fill="#FFF1DC" p-id="1784"></path><path d="M322.4064 799.3344c-14.7968 7.7824-32.0512-4.8128-29.2352-21.2992 11.2128-66.2016 21.8624-129.6896 33.2288-193.024 2.048-11.4688-0.5632-18.2272-8.2432-26.1632-44.6976-46.08-89.088-92.4672-132.9664-138.3424-11.3152-11.8272-4.608-31.5392 11.6224-33.9456 57.4464-8.4992 155.7504-22.9376 189.0304-28.672 6.7072-1.1264 14.336-8.9088 17.7152-15.5648 22.3232-44.4416 62.7712-126.5664 86.272-174.1312 7.3728-15.0016 28.7232-15.0016 36.1472-0.1024 23.7056 47.4624 64.3584 129.6896 86.0672 174.7456 4.8128 10.0352 10.496 14.7456 22.016 16.384 63.4368 8.8576 126.7712 18.3296 191.0272 27.904 16.384 2.4576 23.04 22.4256 11.3664 34.2016-38.5536 38.8096-103.2704 103.4752-130.816 129.7408-12.4928 11.9296-22.016 23.0912-14.7968 41.5744 1.6896 4.3008 0.8192 9.6256 1.28 16.7424-71.936-6.0416-142.5408-11.9808-217.7024-18.2784 7.3216-5.9392 11.1104-9.3696 15.2576-12.3392 60.7744-43.7248 121.6512-87.3472 182.2208-131.2768 5.3248-3.84 11.6736-8.8576 13.1584-15.1552 2.816-11.8272-3.328-20.5312-17.152-20.5824-1.2288 0-2.5088-0.0512-3.7376-0.0512H317.0816c-0.3072 4.864-0.2048 2.9184-0.512 7.7824l267.5712 35.6352c-9.5744 5.9904-14.848 9.4208-20.1728 12.6464-64.4096 39.2704-128.9216 78.5408-193.28 117.9136-4.7616 2.9184-10.496 5.2224-12.3904 9.728-3.2768 7.936-1.5872 14.7968 1.9456 21.9648 5.12 10.3424 15.0016 10.9568 21.8624 10.7008 100.4032-3.7376 191.9488-7.0656 292.352-11.3152 6.144-0.256 12.288-0.0512 20.3776-0.0512 9.2672 53.248 18.4832 106.0864 28.0576 161.024 2.8672 16.4864-14.336 29.184-29.184 21.4528-47.0528-24.5248-127.5392-66.8672-170.496-90.2144-11.3664-6.1952-19.7632-5.6832-30.7712 0.256-42.752 23.0912-123.136 65.4336-170.0352 90.112z" fill="#FF8E12" p-id="1785"></path><path d="M633.9584 359.3216c-11.52-1.5872-17.152-6.3488-22.016-16.384-21.7088-45.1072-62.3616-127.2832-86.0672-174.7456-7.4752-14.9504-28.7744-14.8992-36.1472 0.1024-23.4496 47.5648-63.9488 129.6896-86.272 174.1312-3.328 6.656-11.008 14.3872-17.7152 15.5648-33.28 5.6832-131.584 20.1728-189.0304 28.672-16.2304 2.4064-22.9376 22.0672-11.6224 33.9456 43.8784 45.8752 88.2688 92.2624 132.9664 138.3424 7.68 7.936 10.3424 14.6944 8.2432 26.1632-10.5984 58.88-20.5824 117.9648-30.9248 179.1488 25.2416 4.8128 51.2512 7.424 77.8752 7.424 0.6144 0 1.2288-0.0512 1.8432-0.0512 41.5744-21.9136 88.1152-46.592 117.1968-62.3104 11.008-5.9392 19.4048-6.4512 30.7712-0.256 9.984 5.4272 22.016 11.8784 35.1232 18.8928a414.4128 414.4128 0 0 0 136.6528-110.1824l-0.1536-0.9216c-8.0384 0-14.2336-0.2048-20.3776 0.0512-100.4032 4.1984-191.9488 7.5776-292.352 11.3152-6.8096 0.256-16.7424-0.3072-21.8112-10.7008-3.5328-7.168-5.2224-14.0288-1.9456-21.9648 1.8432-4.5056 7.6288-6.8096 12.3904-9.728 64.3584-39.3728 128.8192-78.6432 193.28-117.9136 5.3248-3.2768 10.5984-6.656 20.1728-12.6464l-267.5712-35.6352c0.3072-4.864 0.2048-2.9184 0.512-7.7824h347.0848c1.2288 0 2.5088 0.0512 3.7376 0.0512 13.824 0.0512 19.968 8.7552 17.152 20.5824-1.4848 6.2464-7.8336 11.264-13.1584 15.1552-60.6208 43.9296-121.4976 87.552-182.2208 131.2768-4.1472 2.9696-7.936 6.4-15.2576 12.3392 75.1616 6.2976 145.7664 12.2368 217.7024 18.2784-0.4608-7.1168 0.4096-12.4416-1.28-16.7424-7.2192-18.4832 2.2528-29.5936 14.7968-41.5744 13.1584-12.544 34.7648-33.8432 58.0096-56.9344a413.77792 413.77792 0 0 0 22.3232-112.8448c-50.8928-7.6288-101.376-15.104-151.9104-22.1184z" fill="#FCA315" p-id="1786"></path><path d="M611.9424 342.9376c-21.7088-45.1072-62.3616-127.2832-86.0672-174.7456-7.4752-14.9504-28.7744-14.8992-36.1472 0.1024-23.4496 47.5648-63.9488 129.6896-86.272 174.1312-3.328 6.656-11.008 14.3872-17.7152 15.5648-33.28 5.6832-131.584 20.1728-189.0304 28.672-16.2304 2.4064-22.9376 22.0672-11.6224 33.9456 43.8784 45.8752 88.2688 92.2624 132.9664 138.3424 7.68 7.936 10.3424 14.6944 8.2432 26.1632-2.1504 11.8272-4.1984 23.6544-6.2976 35.4816 12.9536-1.8944 25.7024-4.4032 38.2464-7.424-2.0992-5.632-2.6624-11.264-0.0512-17.5616 1.8432-4.5056 7.6288-6.8096 12.3904-9.728 64.3584-39.3728 128.8192-78.6432 193.28-117.9136 5.3248-3.2768 10.5984-6.656 20.1728-12.6464l-267.5712-35.6352c0.3072-4.864 0.2048-2.9184 0.512-7.7824h304.7424c9.0624-16.2816 16.9472-33.28 23.7568-50.8416-3.8912-0.5632-7.7312-1.1264-11.6224-1.6384-11.4176-1.7408-17.0496-6.4512-21.9136-16.4864z" fill="#FCB138" p-id="1787"></path><path d="M316.5184 419.5328c0.3072-4.864 0.2048-2.9184 0.512-7.7824h64.512c74.5472-48.5888 132.5056-120.4736 163.328-205.4144-6.9632-13.9776-13.4656-27.0848-18.9952-38.1952-7.4752-14.9504-28.7744-14.8992-36.1472 0.1024-23.4496 47.5648-63.9488 129.6896-86.272 174.1312-3.328 6.656-11.008 14.3872-17.7152 15.5648-33.28 5.6832-131.584 20.1728-189.0304 28.672-16.2304 2.4064-22.9376 22.0672-11.6224 33.9456l48.5888 50.7392a409.5488 409.5488 0 0 0 125.6448-46.0288l-42.8032-5.7344z" fill="#FFC65E" p-id="1788"></path></svg>