<svg class="icon" style="width: 1em;height: 1em;vertical-align: middle;fill: currentColor;overflow: hidden;" viewBox="0 0 1024 1024" version="1.1" xmlns="http://www.w3.org/2000/svg" p-id="2286"><path d="M505.088 514.7648m-450.816 0a450.816 450.816 0 1 0 901.632 0 450.816 450.816 0 1 0-901.632 0Z" fill="#FFE1E9" p-id="2287"></path><path d="M808.4992 492.032c-7.1168-37.3248-35.6352-169.6256-98.8672-265.472-34.7648-57.5488-104.8576-85.8624-143.9744-41.3696-9.4208 13.056-31.2832 31.8976-60.9792 31.8976s-44.6464-6.7584-59.0336-23.2448c-13.8752-15.872-67.9936-71.6288-138.752 32.6656-18.688 27.5968-67.072 127.9488-105.0112 267.4688-1.6384 6.0928 1.3824 12.4928 7.1168 15.104 48.7936 22.2208 91.904 42.1888 91.904 42.1888s-51.5584 287.6416 50.3296 312.832c101.888 25.1904 153.3952-194.1504 153.3952-194.1504s29.952 196.1472 153.3952 196.1472 50.3296-319.7952 50.3296-319.7952l92.5184-40.0896a12.79488 12.79488 0 0 0 7.6288-14.1824z m-303.4112 96.512c-18.5344 0-33.536-15.0016-33.536-33.536 0-18.5344 15.0016-33.536 33.536-33.536s33.536 15.0016 33.536 33.536c0 18.4832-15.0016 33.536-33.536 33.536z m0-118.0672c-18.5344 0-33.536-15.0016-33.536-33.536 0-18.5344 15.0016-33.536 33.536-33.536s33.536 15.0016 33.536 33.536c0 18.4832-15.0016 33.536-33.536 33.536z" fill="#FF3369" p-id="2288"></path><path d="M565.6576 185.1904c-9.4208 13.056-31.2832 31.8976-60.9792 31.8976s-44.6464-6.7584-59.0336-23.2448c-13.8752-15.872-67.9936-71.6288-138.752 32.6656-18.688 27.5968-67.072 127.9488-105.0112 267.4688-1.6384 6.0928 1.3824 12.4928 7.1168 15.104 48.7936 22.2208 91.904 42.1888 91.904 42.1888s-28.9792 161.6896-0.512 253.2352c2.4576 0.0512 4.9152 0.1024 7.424 0.1024 55.8592 0 109.312-10.1888 158.6688-28.7232 25.4464-51.5072 38.2464-105.9328 38.2464-105.9328s5.632 36.5568 21.8624 78.1312c78.8992-43.8784 143.3088-110.7456 184.0128-191.5904-1.3312-6.5024-2.1504-10.1376-2.1504-10.1376l8.9088-3.8912c26.4704-57.3952 41.2672-121.2928 41.2672-188.6208 0-11.8784-0.4608-23.7056-1.3824-35.3792-13.0048-31.5904-28.7744-63.3856-47.616-91.9552-34.7648-57.4976-104.8576-85.8112-143.9744-41.3184z m-60.5696 403.3536c-18.5344 0-33.536-15.0016-33.536-33.536s15.0016-33.536 33.536-33.536 33.536 15.0016 33.536 33.536-15.0016 33.536-33.536 33.536z m0-118.0672c-18.5344 0-33.536-15.0016-33.536-33.536s15.0016-33.536 33.536-33.536 33.536 15.0016 33.536 33.536-15.0016 33.536-33.536 33.536z" fill="#FF4D7C" p-id="2289"></path><path d="M565.6576 185.1904c-9.4208 13.056-31.2832 31.8976-60.9792 31.8976s-44.6464-6.7584-59.0336-23.2448c-13.8752-15.872-67.9936-71.6288-138.752 32.6656-18.688 27.5968-67.072 127.9488-105.0112 267.4688-1.6384 6.0928 1.3824 12.4928 7.1168 15.104 48.7936 22.2208 91.904 42.1888 91.904 42.1888s-6.1952 34.4576-10.0352 80.5888c69.6832-16.8448 133.0176-49.92 185.856-94.976a33.59744 33.59744 0 0 1 13.7216-12.1856c89.0368-82.3296 144.7936-200.1408 144.7936-331.008 0-9.2672-0.3072-18.432-0.8704-27.5968-25.088-6.6048-50.3296-1.792-68.7104 19.0976zM505.088 470.4768c-18.5344 0-33.536-15.0016-33.536-33.536s15.0016-33.536 33.536-33.536 33.536 15.0016 33.536 33.536-15.0016 33.536-33.536 33.536z" fill="#FF5F89" p-id="2290"></path><path d="M483.8912 215.6032c-16.7936-2.7648-27.6992-9.6256-38.2464-21.7088-13.8752-15.872-67.9936-71.6288-138.752 32.6656-17.3056 25.4976-59.904 113.152-96.2048 236.4416 122.4704-39.8336 221.8496-130.6624 273.2032-247.3984z" fill="#FF7196" p-id="2291"></path></svg>