<svg class="icon" style="width: 1em;height: 1em;vertical-align: middle;fill: currentColor;overflow: hidden;" viewBox="0 0 1024 1024" version="1.1" xmlns="http://www.w3.org/2000/svg" p-id="5625"><path d="M509.0816 509.696m-450.816 0a450.816 450.816 0 1 0 901.632 0 450.816 450.816 0 1 0-901.632 0Z" fill="#E9ECFF" p-id="5626"></path><path d="M509.952 446.1056c-34.7136 0-62.976 28.2624-62.976 62.976 0 34.7136 28.2624 62.976 62.976 62.976 34.7136 0 62.976-28.2624 62.976-62.976 0-34.7136-28.2624-62.976-62.976-62.976z" fill="#757BF2" p-id="5627"></path><path d="M837.1712 448.6144c-3.7376-20.1216-20.48-35.2768-40.704-36.8128-23.1424-1.792-43.9296-14.7456-55.552-34.7136-11.8272-20.2752-12.6976-45.056-2.4064-66.304 8.8576-18.2272 4.1984-40.2944-11.264-53.7088-31.4368-27.136-67.072-47.872-105.984-61.696a45.18912 45.18912 0 0 0-52.736 17.5104 70.33856 70.33856 0 0 1-58.5728 31.4368c-23.552 0-45.4144-11.776-58.5728-31.4368a45.11744 45.11744 0 0 0-52.736-17.5104c-38.7072 13.7216-74.1888 34.3552-105.5232 61.2864-15.5136 13.3632-20.1728 35.4304-11.3664 53.6576 10.2912 21.248 9.3184 46.0288-2.56 66.2528a70.56384 70.56384 0 0 1-55.6032 34.6112c-20.2752 1.536-37.0176 16.64-40.8064 36.7616-3.7888 20.1728-5.6832 40.7552-5.6832 61.1328 0 22.4256 2.2528 44.8512 6.7072 66.7136 3.9936 19.5072 20.48 34.2528 40.1408 35.9424 22.8864 1.9456 43.4688 14.8992 54.9888 34.7136 11.3152 19.456 12.6464 43.3664 3.584 64-7.936 18.0224-2.9184 39.5776 12.2368 52.48a330.69056 330.69056 0 0 0 107.2128 60.9792c18.8928 6.4512 39.3728 0.1024 51.0464-15.8208 13.4656-18.3808 34.2016-28.928 56.8832-28.928 22.7328 0 43.4688 10.5472 56.8832 28.928a44.59008 44.59008 0 0 0 36.096 18.3296c4.9664 0 9.984-0.8192 14.8992-2.5088a331.3664 331.3664 0 0 0 106.752-60.5696c15.2064-12.8512 20.2752-34.4064 12.3392-52.4288-9.0624-20.6336-7.68-44.5952 3.6864-64 11.5712-19.7632 32.1536-32.6656 55.04-34.6112 19.6608-1.6384 36.1984-16.384 40.192-35.8912 4.5568-22.016 6.8608-44.6976 6.8608-67.328 0.1024-20.1728-1.792-40.4992-5.4784-60.4672zM509.952 641.9968c-73.2672 0-132.9152-59.648-132.9152-132.9152S436.6336 376.1664 509.952 376.1664s132.9152 59.648 132.9152 132.9152-59.648 132.9152-132.9152 132.9152z" fill="#6C6CEA" p-id="5628"></path><path d="M738.5088 310.8352c1.1264-2.304 1.9968-4.608 2.7136-7.0144-3.1744-15.2064-7.168-30.1056-11.8784-44.6976-0.6656-0.6656-1.3824-1.3312-2.0992-1.9968-31.4368-27.136-67.072-47.872-105.984-61.696a45.18912 45.18912 0 0 0-52.736 17.5104 70.33856 70.33856 0 0 1-58.5728 31.4368c-23.552 0-45.4144-11.776-58.5728-31.4368a45.11744 45.11744 0 0 0-52.736-17.5104c-38.7072 13.7216-74.1888 34.3552-105.5232 61.2864-15.5136 13.3632-20.1728 35.4304-11.3664 53.6576 10.2912 21.248 9.3184 46.0288-2.56 66.2528a70.56384 70.56384 0 0 1-55.6032 34.6112c-20.2752 1.536-37.0176 16.64-40.8064 36.7616-3.7888 20.1728-5.6832 40.7552-5.6832 61.1328 0 22.4256 2.2528 44.8512 6.7072 66.7136 3.9936 19.5072 20.48 34.2528 40.1408 35.9424 22.8864 1.9456 43.4688 14.8992 54.9888 34.7136 11.3152 19.456 12.6464 43.3664 3.584 64-7.936 18.0224-2.9184 39.5776 12.2368 52.48a330.69056 330.69056 0 0 0 107.2128 60.9792c18.8928 6.4512 39.3728 0.1024 51.0464-15.8208 13.4656-18.3808 34.2016-28.928 56.8832-28.928 8.0896 0 15.872 1.3824 23.2448 3.9424 130.5088-79.0016 217.7536-222.2592 217.7536-385.9456 0-2.304-0.0512-4.608-0.1024-6.912-3.7376-3.9424-7.1168-8.2944-9.8816-13.1072a70.4 70.4 0 0 1-2.4064-66.3552zM509.952 641.9968c-73.2672 0-132.9152-59.648-132.9152-132.9152S436.6848 376.1664 509.952 376.1664s132.9152 59.648 132.9152 132.9152c0 73.3184-59.648 132.9152-132.9152 132.9152z" fill="#757BF2" p-id="5629"></path><path d="M568.4736 212.9408a70.33856 70.33856 0 0 1-58.5728 31.4368c-23.552 0-45.4144-11.776-58.5728-31.4368a45.11744 45.11744 0 0 0-52.736-17.5104c-38.7072 13.7216-74.1888 34.3552-105.5232 61.2864-15.5136 13.3632-20.1728 35.4304-11.3664 53.6576 10.2912 21.248 9.3184 46.0288-2.56 66.2528a70.56384 70.56384 0 0 1-55.6032 34.6112c-20.2752 1.536-37.0176 16.64-40.8064 36.7616-3.7888 20.1728-5.6832 40.7552-5.6832 61.1328 0 22.4256 2.2528 44.8512 6.7072 66.7136 3.9936 19.5072 20.48 34.2528 40.1408 35.9424 22.8864 1.9456 43.4688 14.8992 54.9888 34.7136 4.9664 8.5504 7.8848 17.9712 9.0112 27.5456a448.52736 448.52736 0 0 0 138.496-61.5936c-30.1056-24.3712-49.408-61.6448-49.408-103.3216 0-73.2672 59.648-132.9152 132.9152-132.9152 32.1024 0 61.5936 11.4688 84.5824 30.464 21.2992-52.3776 33.024-109.6192 33.024-169.6256 0-13.4144-0.6144-26.7264-1.792-39.8336-1.536-0.5632-3.0208-1.1776-4.5568-1.7408-19.456-6.9632-41.1648 0.2048-52.6848 17.4592z" fill="#8486F8" p-id="5630"></path><path d="M509.952 446.1056c-34.7136 0-62.976 28.2624-62.976 62.976 0 25.6 15.4112 47.6672 37.376 57.4976a450.2016 450.2016 0 0 0 76.8512-94.0032c-11.4688-15.9744-30.1568-26.4704-51.2512-26.4704z" fill="#8486F8" p-id="5631"></path><path d="M484.1984 239.4624a70.8608 70.8608 0 0 1-32.8192-26.5216 45.11744 45.11744 0 0 0-52.736-17.5104c-38.7072 13.7216-74.1888 34.3552-105.5232 61.2864-15.5136 13.3632-20.1728 35.4304-11.3664 53.6576 10.2912 21.248 9.3184 46.0288-2.56 66.2528a70.56384 70.56384 0 0 1-55.6032 34.6112c-20.2752 1.536-37.0176 16.64-40.8064 36.7616-3.7888 20.1728-5.6832 40.7552-5.6832 61.1328 0 1.5872 0.1024 3.1232 0.1024 4.7104C318.3104 477.0816 432.4352 373.76 484.1984 239.4624z" fill="#8D92F8" p-id="5632"></path></svg>