<svg class="icon" style="width: 1em;height: 1em;vertical-align: middle;fill: currentColor;overflow: hidden;" viewBox="0 0 1024 1024" version="1.1" xmlns="http://www.w3.org/2000/svg" p-id="2417"><path d="M511.744 513.1264m-450.816 0a450.816 450.816 0 1 0 901.632 0 450.816 450.816 0 1 0-901.632 0Z" fill="#FFF1DC" p-id="2418"></path><path d="M350.7712 296.0384s187.3408 37.7344 329.2672 0c-69.2224-92.9792-110.4384-138.3936-165.6832-138.3936-81.1008 0-163.584 138.3936-163.584 138.3936z" fill="#FCA315" p-id="2419"></path><path d="M804.9664 732.9792c-8.3456-10.4448-22.4768-27.3408-44.7488-52.0192-3.6352-4.0448-4.2496-9.984-1.5872-14.6944 32.4608-57.4976 21.4528-147.6096-2.3552-192.9728-3.4816-6.656-0.4608-14.848 6.5024-17.6128 13.312-5.2224 23.4496-10.5984 29.4912-14.08 3.8912-2.2528 6.2976-6.4 6.2976-10.9568V339.0464c0-7.936-7.2704-13.9776-15.104-12.3904-268.0832 55.3472-478.464 4.6592-535.0912-11.6224-7.7824-2.2528-15.5648 3.328-16.0768 11.3664l-5.888 99.84a12.6976 12.6976 0 0 0 8.2432 12.5952c6.7072 2.4576 17.152 6.2976 30.8736 11.1616 6.7072 2.3552 10.0864 9.8304 7.5776 16.4864-38.6048 101.12-6.0416 176.5888 7.0656 200.6528 2.7136 4.9664 1.7408 11.1616-2.3552 15.0528L224.256 733.7472c-6.8608 6.6048-4.1984 18.176 4.864 21.0944 40.7552 13.1584 142.7456 40.6528 285.184 40.6528 146.0736 0 247.3472-29.7472 284.928-42.8544 8.2432-2.7648 11.1616-12.8512 5.7344-19.6608z m-153.7536-243.6096c-38.2464 6.8608-81.5616 9.1648-122.3168 9.1648-78.1824 0-146.7392-8.3968-151.04-8.96a25.53344 25.53344 0 0 1-22.1696-28.5184 25.53344 25.53344 0 0 1 28.5184-22.1696c1.536 0.2048 154.112 18.8416 257.9456 0.2048a25.51808 25.51808 0 0 1 29.6448 20.6336c2.56 13.8752-6.7072 27.136-20.5824 29.6448z" fill="#FF8E12" p-id="2420"></path><path d="M762.9312 488.1408c-2.0992-5.3248-4.3008-10.3936-6.656-14.8992-3.4816-6.656-0.4608-14.848 6.5024-17.6128 4.3008-1.6896 8.2432-3.3792 11.8784-5.0688a441.6 441.6 0 0 0 14.8992-113.8176c0-3.328-0.1536-6.6048-0.256-9.8816-1.8432-0.512-3.7888-0.6144-5.7856-0.2048-268.0832 55.3472-478.464 4.6592-535.0912-11.6224-7.7824-2.2528-15.5648 3.328-16.0768 11.3664l-5.888 99.84a12.6976 12.6976 0 0 0 8.2432 12.5952c6.7072 2.4576 17.152 6.2976 30.8736 11.1616 6.7072 2.3552 10.0864 9.8304 7.5776 16.4864-38.6048 101.12-6.0416 176.5888 7.0656 200.6528 2.7136 4.9664 1.7408 11.1616-2.3552 15.0528l-53.5552 51.5584c-6.8608 6.6048-4.1984 18.176 4.864 21.0944 18.2272 5.888 48.7936 14.6432 89.7024 22.528 9.5744 0.6144 19.2 1.024 28.9792 1.024 190.7712 0.1024 353.28-120.832 415.0784-290.2528z m-234.0352 10.3936c-78.1824 0-146.7392-8.3968-151.04-8.96-14.0288-1.7408-23.9104-14.5408-22.1696-28.5184s14.5408-23.9104 28.5184-22.1696c1.536 0.2048 154.112 18.8416 257.9456 0.2048a25.51808 25.51808 0 0 1 29.6448 20.6336 25.51808 25.51808 0 0 1-20.6336 29.6448c-38.1952 6.8608-81.5104 9.1648-122.2656 9.1648z" fill="#FCA315" p-id="2421"></path><path d="M659.712 269.1584c-57.3952-74.8032-95.7952-111.5136-145.3568-111.5136-81.1008 0-163.584 138.3936-163.584 138.3936s163.3792 32.9216 300.5952 6.5024a474.5216 474.5216 0 0 0 8.3456-33.3824zM528.896 498.5344c-78.1824 0-146.7392-8.3968-151.04-8.96-14.0288-1.7408-23.9104-14.5408-22.1696-28.5184s14.5408-23.9104 28.5184-22.1696c1.2288 0.1536 101.888 12.4416 195.328 7.168a443.59168 443.59168 0 0 0 56.064-98.1504c-195.5328 15.872-341.4528-19.6096-387.1744-32.768-7.7824-2.2528-15.5648 3.328-16.0768 11.3664l-5.888 99.84a12.6976 12.6976 0 0 0 8.2432 12.5952c6.7072 2.4576 17.152 6.2976 30.8736 11.1616 6.7072 2.3552 10.0864 9.8304 7.5776 16.4864-24.1664 63.3856-20.4288 116.6848-11.008 153.6 104.7552-8.2432 199.2192-52.992 270.6944-121.6-1.3312-0.1024-2.6624-0.0512-3.9424-0.0512z" fill="#FCB138" p-id="2422"></path><path d="M535.9616 160.2048c-7.0144-1.6384-14.1824-2.56-21.6576-2.56-81.1008 0-163.584 138.3936-163.584 138.3936s42.24 8.4992 101.7344 13.4144a439.77728 439.77728 0 0 0 83.5072-149.248zM248.4224 315.0848c-7.7824-2.2528-15.5648 3.328-16.0768 11.3664l-5.888 99.84a12.6976 12.6976 0 0 0 8.2432 12.5952c3.8912 1.4336 9.0624 3.328 15.3088 5.5808a441.00608 441.00608 0 0 0 167.6288-98.5088c-83.2-8.2944-142.848-23.296-169.216-30.8736z" fill="#FFC65E" p-id="2423"></path></svg>