<svg class="icon" style="width: 1em;height: 1em;vertical-align: middle;fill: currentColor;overflow: hidden;" viewBox="0 0 1024 1024" version="1.1" xmlns="http://www.w3.org/2000/svg" p-id="2644"><path d="M508.416 509.5936m-450.816 0a450.816 450.816 0 1 0 901.632 0 450.816 450.816 0 1 0-901.632 0Z" fill="#FFF1DC" p-id="2645"></path><path d="M518.9632 803.1232l96.2048-298.496c2.048-6.2976-2.6624-12.8-9.2672-12.8l-190.0544-1.1264a9.79968 9.79968 0 0 0-9.4208 12.7488l93.7984 299.6224c2.8672 9.1136 15.7696 9.1648 18.7392 0.0512z" fill="#FC7032" p-id="2646"></path><path d="M649.0112 399.616l47.9744-148.7872c2.048-6.3488-2.6624-12.8-9.3184-12.8h-134.5024c-7.5776 0-12.288 8.192-8.4992 14.7456l86.528 148.7872c4.3008 7.3216 15.2064 6.144 17.8176-1.9456z" fill="#FF7E3E" p-id="2647"></path><path d="M341.4528 435.6608l-48.2816-154.1632c-2.5088-7.9872-13.2096-9.3696-17.664-2.304L179.0976 432.5376c-4.096 6.5024 0.5632 15.0016 8.2432 15.0528l144.6912 0.8192c6.656 0.0512 11.4176-6.4 9.4208-12.7488z" fill="#FF9552" p-id="2648"></path><path d="M689.92 450.5088l142.1312 0.8192c7.6288 0.0512 12.3904-8.2432 8.4992-14.7968l-92.16-155.7504c-4.3008-7.2704-15.2064-6.0416-17.7664 1.9968l-49.92 154.9312a9.728 9.728 0 0 0 9.216 12.8zM351.4368 490.2912l-156.928-0.9216c-8.2944-0.0512-12.9024 9.5744-7.68 16.0256l254.5664 312.7808c6.8096 8.3968 20.224 1.1776 16.9984-9.1136L360.704 497.2032c-1.28-4.096-5.0176-6.8608-9.2672-6.912zM660.8896 498.944l-99.7888 309.504c-3.328 10.2912 10.0352 17.6128 16.9472 9.216l253.5424-308.5824c5.2224-6.4 0.7168-15.9744-7.5264-16.0256l-153.8048-0.8704c-4.2496-0.0512-8.0896 2.7136-9.3696 6.7584z" fill="#FC7032" p-id="2649"></path><path d="M427.3664 448.9728l166.5536 0.9728c7.5776 0.0512 12.3392-8.192 8.5504-14.7456l-82.432-141.6704c-3.7376-6.4512-13.056-6.5024-16.896-0.1024L418.9696 434.1248c-3.8912 6.5024 0.768 14.7968 8.3968 14.848z" fill="#FF9552" p-id="2650"></path><path d="M391.0144 399.5136L478.72 252.8768c3.8912-6.5536-0.8192-14.848-8.448-14.848H336.6912c-6.6048 0-11.3664 6.4-9.3696 12.7488l45.9264 146.6368c2.5088 8.0896 13.4144 9.3696 17.7664 2.0992z" fill="#FFA56A" p-id="2651"></path><path d="M447.0272 772.7616L360.704 497.2032a9.728 9.728 0 0 0-9.3184-6.8608l-156.928-0.9216c-8.2944-0.0512-12.9024 9.5744-7.68 16.0256l222.9248 273.8688c12.6464-1.6384 25.088-3.84 37.3248-6.5536zM605.9008 491.776l-190.0544-1.1264a9.79968 9.79968 0 0 0-9.4208 12.7488l80.8448 258.2016c17.8176-5.9392 35.1744-12.9536 51.8656-21.0944l76.032-235.9296c2.048-6.2976-2.6624-12.7488-9.2672-12.8zM730.5728 282.7776l-49.92 154.9312c-2.048 6.2976 2.6624 12.8 9.2672 12.8l73.984 0.4096a419.3536 419.3536 0 0 0 8.5504-84.2752c0-17.1008-1.1776-33.9456-3.1744-50.5344l-20.9408-35.328c-4.3008-7.2704-15.1552-6.0928-17.7664 1.9968zM752.9984 492.6464l-82.688-0.4608c-4.3008 0-8.0896 2.7136-9.4208 6.8096l-67.584 209.7152c74.6496-51.9168 131.584-127.5392 159.6928-216.064z" fill="#FF7E3E" p-id="2652"></path><path d="M394.8032 606.1056l-34.0992-108.9024a9.728 9.728 0 0 0-9.3184-6.8608l-156.928-0.9216c-8.2944-0.0512-12.9024 9.5744-7.68 16.0256l103.2192 126.8224c36.608-4.1984 71.7312-13.1584 104.8064-26.1632zM406.4256 503.3984l26.7264 85.2992a417.27488 417.27488 0 0 0 123.5456-97.2288l-140.8512-0.8192c-6.656 0-11.4176 6.4512-9.4208 12.7488zM553.1136 238.0288c-7.5776 0-12.288 8.192-8.4992 14.7456l78.2848 134.6048c20.4288-46.0288 32.768-96.3584 35.1744-149.3504h-104.96z" fill="#FF9552" p-id="2653"></path><path d="M293.2224 281.5488c-2.5088-7.9872-13.2096-9.3696-17.664-2.304L179.0976 432.5376c-4.096 6.5024 0.5632 15.0016 8.2432 15.0528l127.2832 0.7168c9.0112-4.2496 17.8688-8.8064 26.5216-13.6704l-47.9232-153.088z" fill="#FFA56A" p-id="2654"></path></svg>