<svg class="icon" style="width: 1em;height: 1em;vertical-align: middle;fill: currentColor;overflow: hidden;" viewBox="0 0 1024 1024" version="1.1" xmlns="http://www.w3.org/2000/svg" p-id="1766"><path d="M508.1088 513.1264m-450.816 0a450.816 450.816 0 1 0 901.632 0 450.816 450.816 0 1 0-901.632 0Z" fill="#FFE3DB" p-id="1767"></path><path d="M509.44 547.584c-121.3952 0-229.7344-56.7808-300.032-145.1008v305.5616c0 31.5392 25.5488 57.1392 57.1392 57.1392h485.8368c31.5392 0 57.1392-25.5488 57.1392-57.1392V402.4832c-70.3488 88.32-178.688 145.1008-300.0832 145.1008z" fill="#F23D4F" p-id="1768"></path><path d="M752.3328 259.2768H266.5472c-30.0032 0-54.528 23.0912-56.8832 52.48 54.5792 110.4896 168.448 186.6752 299.776 186.6752s245.1968-76.1856 299.776-186.6752c-2.3552-29.3888-26.88-52.48-56.8832-52.48zM509.44 459.1616c-22.016 0-39.8336-17.8688-39.8336-39.8336 0-22.016 17.8688-39.8336 39.8336-39.8336 22.016 0 39.8336 17.8688 39.8336 39.8336 0 22.016-17.8176 39.8336-39.8336 39.8336z" fill="#FC4956" p-id="1769"></path><path d="M509.44 547.584c-121.3952 0-229.7344-56.7808-300.032-145.1008v305.5616c0 31.5392 25.5488 57.1392 57.1392 57.1392h221.3376c166.6048-47.4624 293.8368-188.416 321.4336-362.496-70.3488 88.2176-178.5856 144.896-299.8784 144.896z" fill="#FC4956" p-id="1770"></path><path d="M266.5472 259.2768c-30.0032 0-54.528 23.0912-56.8832 52.48 54.5792 110.4896 168.448 186.6752 299.776 186.6752 15.2064 0 30.1568-1.0752 44.8512-3.0208 64.6656-62.5664 110.592-144.3328 128.7168-236.0832H266.5472zM509.44 459.1616c-22.016 0-39.8336-17.8688-39.8336-39.8336s17.8688-39.8336 39.8336-39.8336 39.8336 17.8688 39.8336 39.8336-17.8176 39.8336-39.8336 39.8336z" fill="#FF5C64" p-id="1771"></path><path d="M240.7424 622.2848c92.2112 0 177.92-27.6992 249.344-75.2128-113.5104-5.6832-214.1184-60.9792-280.6784-144.5888v218.7264c10.3936 0.6656 20.8384 1.0752 31.3344 1.0752z" fill="#FF5C64" p-id="1772"></path><path d="M209.664 311.7568a336.94208 336.94208 0 0 0 93.696 115.3536c82.432-34.9696 152.2688-93.7984 200.9088-167.8336H266.5472c-30.0032 0-54.528 23.0912-56.8832 52.48zM249.856 445.9008a390.44608 390.44608 0 0 1-40.3968-43.4176v52.7872c13.6704-2.5088 27.136-5.632 40.3968-9.3696z" fill="#FF716E" p-id="1773"></path></svg>