<svg class="icon" style="width: 1em;height: 1em;vertical-align: middle;fill: currentColor;overflow: hidden;" viewBox="0 0 1024 1024" version="1.1" xmlns="http://www.w3.org/2000/svg" p-id="2592"><path d="M509.4912 513.7408m-450.816 0a450.816 450.816 0 1 0 901.632 0 450.816 450.816 0 1 0-901.632 0Z" fill="#FFE3DB" p-id="2593"></path><path d="M361.0624 400.0256c16.5888-67.4304 77.4656-117.504 150.016-117.504 72.0896 0 132.6592 49.408 149.7088 116.1728l113.2032-68.1984v-35.4304c0-46.6432-37.7856-84.4288-84.4288-84.4288H332.5952c-46.6432 0-84.4288 37.7856-84.4288 84.4288v40.3456l112.896 64.6144z" fill="#FC4956" p-id="2594"></path><path d="M663.2448 463.7184c-12.6464 72.6528-75.9296 127.8976-152.1664 127.8976-75.9808 0-139.1104-54.8352-152.064-127.1296L248.1664 401.1008v334.2336c0 46.6432 37.7856 84.4288 84.4288 84.4288h356.9664c46.6432 0 84.4288-37.7856 84.4288-84.4288V397.0048l-110.7456 66.7136z" fill="#F23D4F" p-id="2595"></path><path d="M570.0096 460.032h-32.6144v-19.3024h32.6144c13.4656 0 24.4224-10.9056 24.4224-24.4224s-10.9056-24.4224-24.4224-24.4224h-13.7728l22.8352-35.5328c7.2704-11.3152 3.9936-26.4192-7.3216-33.7408a24.45824 24.45824 0 0 0-33.7408 7.3216l-26.7776 41.6256-30.0544-39.1168a24.34048 24.34048 0 0 0-34.2016-4.4544 24.34048 24.34048 0 0 0-4.4544 34.2016l22.784 29.696h-9.3696c-13.4656 0-24.4224 10.9056-24.4224 24.4224s10.9056 24.4224 24.4224 24.4224h32.6144v19.3024h-32.6144a24.4224 24.4224 0 1 0 0 48.8448h32.6144v16.384a24.4224 24.4224 0 1 0 48.8448 0v-16.384h32.6144a24.4224 24.4224 0 1 0 0-48.8448z" fill="#FC4956" p-id="2596"></path><path d="M773.9904 397.0048l-110.7456 66.7136c-12.6464 72.6528-75.9296 127.8976-152.1664 127.8976-75.9808 0-139.1104-54.8352-152.064-127.1296L248.1664 401.1008v334.2336c0 46.6432 37.7856 84.4288 84.4288 84.4288h38.7072c198.9632-16.5376 361.216-162.2016 402.688-352.9728V397.0048z" fill="#FC4956" p-id="2597"></path><path d="M332.5952 210.688c-46.6432 0-84.4288 37.7856-84.4288 84.4288v40.3456l112.896 64.5632c16.5888-67.4304 77.4656-117.504 150.016-117.504 53.1456 0 99.9936 26.88 127.7952 67.7376 14.336-43.9808 22.1184-90.88 22.1696-139.6224H332.5952z" fill="#FF5C64" p-id="2598"></path><path d="M570.0096 460.032h-32.6656v-19.3024h32.6656a24.4224 24.4224 0 1 0 0-48.8448h-13.7728l22.8352-35.5328c7.2704-11.3152 3.9936-26.4192-7.3216-33.7408a24.45824 24.45824 0 0 0-33.7408 7.3216l-26.7776 41.6256-30.0544-39.1168a24.34048 24.34048 0 0 0-34.2016-4.4544 24.34048 24.34048 0 0 0-4.4544 34.2016l22.784 29.696h-9.3696a24.4224 24.4224 0 1 0 0 48.8448h32.6656v19.3024h-32.6656a24.4224 24.4224 0 1 0 0 48.8448h32.6656v16.384c0 11.7248 8.2432 21.4528 19.2512 23.8592 10.2912-9.0624 20.1728-18.5344 29.5424-28.4672V508.928h10.752c12.544-14.2336 24.2688-29.2352 34.9696-44.9536-3.84-2.5088-8.2944-3.9424-13.1072-3.9424zM462.7968 583.8848c-53.248-17.5104-93.696-63.1808-103.7824-119.3984L248.1664 401.1008v258.56a448.0512 448.0512 0 0 0 214.6304-75.776z" fill="#FF5C64" p-id="2599"></path><path d="M518.4512 210.688h-185.856c-46.6432 0-84.4288 37.7856-84.4288 84.4288v40.3456l112.896 64.5632c14.336-58.1632 61.5936-103.3728 120.8832-114.688 14.336-23.552 26.5728-48.5376 36.5056-74.6496zM320.4608 442.4192l-72.2944-41.3184V475.648c25.1904-8.96 49.3568-20.1216 72.2944-33.2288z" fill="#FF716E" p-id="2600"></path></svg>