<svg class="icon" style="width: 1em;height: 1em;vertical-align: middle;fill: currentColor;overflow: hidden;" viewBox="0 0 1024 1024" version="1.1" xmlns="http://www.w3.org/2000/svg" p-id="3881"><path d="M505.088 514.7136m-450.816 0a450.816 450.816 0 1 0 901.632 0 450.816 450.816 0 1 0-901.632 0Z" fill="#E9F4FF" p-id="3882"></path><path d="M314.112 253.6448v375.9616s143.9232-16.3328 172.288 31.6416c0-81.3568 1.4848-369.6128 1.4848-369.6128s-31.232-47.4624-173.7728-37.9904zM707.6352 253.6448v375.9616s-143.9232-16.3328-172.288 31.6416c0-81.3568-1.4848-369.6128-1.4848-369.6128s31.232-47.4624 173.7728-37.9904z" fill="#3A9CED" p-id="3883"></path><path d="M510.6176 788.6336c-6.6048 0-13.1584-2.1504-18.5856-6.4512l-57.1392-45.1072H256.5632c-16.5888 0-30.0032-13.4144-30.0032-30.0032V315.2896l60.0064-25.7024v387.4816h158.7712c6.7584 0 13.312 2.2528 18.5856 6.4512l48.3328 38.1952 56.2176-36.864a29.7472 29.7472 0 0 1 16.4352-4.9152h149.8112V293.376l60.0064 25.7024v390.8096c0 16.5888-13.4144 30.0032-30.0032 30.0032h-170.8544l-66.816 43.8272c-5.0176 3.2768-10.7008 4.9152-16.4352 4.9152z" fill="#2595E8" p-id="3884"></path><path d="M734.72 492.9024a450.0992 450.0992 0 0 0 27.0848-154.2144c0-11.52-0.4608-22.9376-1.28-34.2528l-25.8048-11.0592v199.5264zM584.9088 679.8848c-5.8368 0-11.5712 1.6896-16.4352 4.9152l-56.2176 36.864-48.3328-38.1952a29.80864 29.80864 0 0 0-18.5856-6.4512H286.5152V289.5872l-60.0064 25.7024v391.7824c0 16.5888 13.4144 30.0032 30.0032 30.0032h178.3808l31.5392 24.9344a450.1504 450.1504 0 0 0 139.1616-82.0736h-20.6848z" fill="#3A9CED" p-id="3885"></path><path d="M286.5152 618.496V289.5872l-60.0064 25.7024v312.4224c20.4288-1.7408 40.4992-4.864 60.0064-9.216zM314.112 253.6448v357.7344a449.5104 449.5104 0 0 0 172.7488-95.6416c0.4608-106.24 1.0752-224.1024 1.0752-224.1024s-31.2832-47.4624-173.824-37.9904zM533.8624 291.6352s0.4608 84.3264 0.8192 174.6432c49.5104-59.648 83.9168-132.3008 97.3824-212.0704-78.6432 7.7824-98.2016 37.4272-98.2016 37.4272z" fill="#59ADF8" p-id="3886"></path><path d="M286.5152 416.8192V289.5872l-60.0064 25.7024v128.1536c20.7872-7.424 40.8064-16.384 60.0064-26.624zM450.4576 267.4688c-26.0608-9.984-68.608-18.3296-136.3456-13.8752v147.1488a452.5056 452.5056 0 0 0 136.3456-133.2736z" fill="#6BC2FC" p-id="3887"></path></svg>