<svg class="icon" style="width: 1em;height: 1em;vertical-align: middle;fill: currentColor;overflow: hidden;" viewBox="0 0 1024 1024" version="1.1" xmlns="http://www.w3.org/2000/svg" p-id="2493"><path d="M509.184 513.1264m-450.816 0a450.816 450.816 0 1 0 901.632 0 450.816 450.816 0 1 0-901.632 0Z" fill="#E9F4FF" p-id="2494"></path><path d="M785.0496 606.0032h-15.0528v-77.6704c0-30.72-24.9856-55.7056-55.7056-55.7056h-176.2816V427.008h23.2448c42.3424 0 76.8-34.4576 76.8-76.8V265.5744c0-42.3424-34.4576-76.8-76.8-76.8H457.1136c-42.3424 0-76.8 34.4576-76.8 76.8V350.208c0 42.3424 34.4576 76.8 76.8 76.8h29.696v45.6704H306.9952c-30.72 0-55.7056 24.9856-55.7056 55.7056v77.6704h-15.0528c-29.952 0-54.272 24.3712-54.272 54.272v67.8912c0 29.952 24.3712 54.272 54.272 54.272h81.2544c29.952 0 54.272-24.3712 54.272-54.272v-67.8912c0-29.952-24.3712-54.272-54.272-54.272h-15.0528V528.384c0-2.4576 1.9968-4.5056 4.5056-4.5056h179.8656v82.1248H470.016c-29.952 0-54.272 24.3712-54.272 54.272v67.8912c0 29.952 24.3712 54.272 54.272 54.272h81.2544c29.952 0 54.272-24.3712 54.272-54.272v-67.8912c0-29.952-24.3712-54.272-54.272-54.272h-13.2608v-82.1248h176.2816c2.4576 0 4.5056 1.9968 4.5056 4.5056v77.6704h-15.0528c-29.952 0-54.272 24.3712-54.272 54.272v67.8912c0 29.952 24.3712 54.272 54.272 54.272h81.2544c29.952 0 54.272-24.3712 54.272-54.272v-67.8912c0.0512-29.952-24.32-54.3232-54.2208-54.3232z" fill="#2595E8" p-id="2495"></path><path d="M714.2912 523.8784c2.4576 0 4.5056 1.9968 4.5056 4.5056v43.52a420.29568 420.29568 0 0 0 31.3856-86.0672c-9.6768-8.192-22.2208-13.1584-35.8912-13.1584h-176.2816V427.008h23.2448c42.3424 0 76.8-34.4576 76.8-76.8V265.5744c0-42.3424-34.4576-76.8-76.8-76.8H457.1136c-42.3424 0-76.8 34.4576-76.8 76.8V350.208c0 42.3424 34.4576 76.8 76.8 76.8h29.696v45.6704H306.9952c-30.72 0-55.7056 24.9856-55.7056 55.7056v77.6704h-15.0528c-29.952 0-54.272 24.3712-54.272 54.272v67.8912c0 29.952 24.3712 54.272 54.272 54.272h81.2544c29.952 0 54.272-24.3712 54.272-54.272v-67.8912c0-29.952-24.3712-54.272-54.272-54.272h-15.0528V528.384c0-2.4576 1.9968-4.5056 4.5056-4.5056h179.8656v82.1248H470.016c-29.952 0-54.272 24.3712-54.272 54.272v67.8912c0 29.952 24.3712 54.272 54.272 54.272h16.5376c43.52-16.384 83.6096-39.6288 118.9888-68.4544v-53.7088c0-29.952-24.3712-54.272-54.272-54.272h-13.2608v-82.1248h176.2816z" fill="#3A9CED" p-id="2496"></path><path d="M699.8528 606.208c-28.1088 1.9968-50.3808 25.4464-50.3808 54.0672v12.3904c18.8928-20.4288 35.7888-42.6496 50.3808-66.4576z" fill="#3A9CED" p-id="2497"></path><path d="M306.9952 523.8784h179.8656v40.5504a426.91072 426.91072 0 0 0 84.992-91.7504h-33.792V427.008h23.2448c16.7936 0 32.3072-5.4784 44.9536-14.6432a424.704 424.704 0 0 0 31.8464-97.6896v-49.1008c0-42.3424-34.4576-76.8-76.8-76.8H457.1136c-42.3424 0-76.8 34.4576-76.8 76.8V350.208c0 42.3424 34.4576 76.8 76.8 76.8h29.696v45.6704H306.9952c-30.72 0-55.7056 24.9856-55.7056 55.7056v77.6704h-15.0528c-28.672 0-52.1728 22.3744-54.0672 50.5856 12.4928 1.1264 25.1392 1.792 37.9392 1.792 50.688 0 99.328-8.9088 144.4352-25.1392a54.26688 54.26688 0 0 0-47.0016-27.1872h-15.0528v-77.6704c0-2.56 1.9968-4.5568 4.5056-4.5568z" fill="#59ADF8" p-id="2498"></path><path d="M525.312 188.7744H457.1136c-42.3424 0-76.8 34.4576-76.8 76.8V350.208c0 18.3296 6.4512 35.1232 17.2032 48.3328 61.2864-55.04 106.496-127.5904 127.7952-209.7664z" fill="#6BC2FC" p-id="2499"></path></svg>