<svg class="icon" style="width: 1em;height: 1em;vertical-align: middle;fill: currentColor;overflow: hidden;" viewBox="0 0 1024 1024" version="1.1" xmlns="http://www.w3.org/2000/svg" p-id="3126"><path d="M509.184 513.1264m-450.816 0a450.816 450.816 0 1 0 901.632 0 450.816 450.816 0 1 0-901.632 0Z" fill="#FFE3DB" p-id="3127"></path><path d="M723.0464 258.9184H299.9296c-39.5264 0-71.5264 30.72-71.5264 68.6592v314.6752c0 37.9392 32.0512 68.6592 71.5264 68.6592h140.288v51.1488h-38.5536c-13.9264 0-25.2416 10.8544-25.2416 24.2176 0 13.3632 11.3152 24.2176 25.2416 24.2176h219.6992c13.9264 0 25.2416-10.8544 25.2416-24.2176 0-13.3632-11.3152-24.2176-25.2416-24.2176h-38.5536v-51.1488h140.288c39.5264 0 71.5264-30.72 71.5264-68.6592V327.5776c-0.0512-37.9392-32.0512-68.6592-71.5776-68.6592zM511.488 693.7088c-17.9712 0-32.5632-13.9776-32.5632-31.232 0-17.2544 14.592-31.232 32.5632-31.232 17.9712 0 32.5632 13.9776 32.5632 31.232-0.0512 17.2032-14.592 31.232-32.5632 31.232z m246.1696-120.9856c0 22.272-18.8928 40.3456-42.0864 40.3456H307.3536c-23.1936 0-42.0864-18.1248-42.0864-40.3456V338.176c0-22.272 18.8928-40.3968 42.0864-40.3968h408.2688c23.1936 0 42.0864 18.1248 42.0864 40.3968v234.5472z" fill="#F23D4F" p-id="3128"></path><path d="M715.6224 334.336H307.3536c-2.2016 0-3.9424 1.6896-3.9424 3.7888v234.5472c0 2.0992 1.792 3.7888 3.9424 3.7888h408.2688c2.2016 0 3.9424-1.6896 3.9424-3.7888v-234.496c0-2.0992-1.792-3.84-3.9424-3.84zM448.512 505.856c-4.4032 6.4-11.6736 9.8816-19.1488 9.8816-4.3008 0-8.6528-1.1776-12.544-3.6352l-64.8192-40.9088c-6.5536-4.1472-10.4448-11.264-10.2912-18.8416 0.1536-7.5776 4.4032-14.4896 11.1616-18.3808l62.5664-35.84c10.8544-6.1952 24.8832-2.816 31.3344 7.6288 6.4512 10.3936 2.9184 23.8592-7.936 30.1056l-31.232 17.8688 34.3552 21.7088c10.5984 6.7072 13.5168 20.2752 6.5536 30.4128z m106.5984-112.1792l-56.6784 139.4688c-3.5328 8.6528-12.1856 13.9776-21.2992 13.9776-2.7648 0-5.5808-0.4608-8.2944-1.4848-11.776-4.4032-17.5616-17.152-13.0048-28.416l56.6784-139.4688c4.608-11.3152 17.8688-16.896 29.5936-12.4928 11.776 4.4032 17.5616 17.1008 13.0048 28.416z m106.2912 77.5168l-64.8192 40.9088c-3.8912 2.4576-8.2432 3.6352-12.544 3.6352-7.424 0-14.7456-3.4816-19.1488-9.8816-6.9632-10.1376-3.9936-23.7568 6.5536-30.4128l34.3552-21.7088-31.232-17.8688c-10.8544-6.1952-14.3872-19.6608-7.936-30.1056 6.4512-10.3936 20.5312-13.824 31.3344-7.6288l62.5664 35.84c6.7584 3.8912 10.9568 10.8032 11.1616 18.3808 0.2048 7.5776-3.6864 14.6944-10.2912 18.8416z" fill="#FC4956" p-id="3129"></path><path d="M299.9296 258.9184c-39.5264 0-71.5264 30.72-71.5264 68.6592v314.6752c0 37.9392 32.0512 68.6592 71.5264 68.6592h140.288v51.1488h-38.5536c-13.9264 0-25.2416 10.8544-25.2416 24.2176 0 13.3632 11.3152 24.2176 25.2416 24.2176h37.9904c52.5824-16.3328 100.9664-41.6256 143.104-74.0864v-25.5488h41.0624c29.3888-28.9792 54.6304-61.9008 74.7008-97.8432h-391.168c-23.2448 0-42.0864-18.0736-42.0864-40.3456v-234.496c0-22.272 18.8416-40.3968 42.0864-40.3968h408.2688c8.3968 0 16.1792 2.4064 22.784 6.4512-3.1232-11.9808-6.7072-33.5872-10.8032-45.1072-1.4848-0.1024-2.9696-0.2048-4.5056-0.2048H299.9296z m211.5584 372.2752c17.9712 0 32.5632 13.9776 32.5632 31.232s-14.592 31.232-32.5632 31.232c-17.9712 0-32.5632-13.9776-32.5632-31.232s14.592-31.232 32.5632-31.232z" fill="#FC4956" p-id="3130"></path><path d="M303.4112 338.176v234.5472c0 2.0992 1.792 3.7888 3.9424 3.7888h167.2192c44.1344-38.2976 80.384-84.8384 105.984-137.1648l-6.0416-3.4304c-10.8544-6.1952-14.3872-19.6608-7.936-30.1056 6.4512-10.3936 20.5312-13.824 31.3344-7.6288l0.1024 0.0512c7.5264-20.6336 13.4656-41.984 17.664-63.8976H307.3536a3.8912 3.8912 0 0 0-3.9424 3.84z m152.4224 179.0464l56.6784-139.4688c4.608-11.3152 17.8688-16.896 29.5936-12.4928 11.776 4.4032 17.5616 17.152 13.0048 28.416l-56.6784 139.4688c-3.5328 8.6528-12.1856 13.9776-21.2992 13.9776-2.7648 0-5.5808-0.4608-8.2944-1.4848-11.776-4.4032-17.6128-17.152-13.0048-28.416zM352.8704 434.0224l62.5664-35.84c10.8544-6.1952 24.8832-2.816 31.3344 7.6288 6.4512 10.3936 2.9184 23.8592-7.936 30.1056l-31.232 17.8688 34.3552 21.7088c10.5472 6.656 13.4656 20.2752 6.5536 30.4128-4.4032 6.4-11.6736 9.8816-19.1488 9.8816-4.3008 0-8.6528-1.1776-12.544-3.6352l-64.8192-40.9088c-6.5536-4.1472-10.4448-11.264-10.2912-18.8416 0.2048-7.5776 4.4032-14.4896 11.1616-18.3808z" fill="#FF5C64" p-id="3131"></path><path d="M307.3536 613.0688c-23.1936 0-42.0864-18.1248-42.0864-40.3456V338.176c0-22.272 18.8928-40.3968 42.0864-40.3968h313.8048c0.9728-9.5744 1.6384-29.0816 1.9456-38.8608H299.9296c-39.5264 0-71.5264 30.72-71.5264 68.6592v314.6752c0 15.2064 5.2224 29.2352 13.9264 40.6016a459.12064 459.12064 0 0 0 183.808-69.7856h-118.784z" fill="#FF5C64" p-id="3132"></path><path d="M303.4112 338.176V465.92c54.6816-33.8944 101.2224-78.848 136.192-131.584H307.3536a3.8912 3.8912 0 0 0-3.9424 3.84z" fill="#FF716E" p-id="3133"></path><path d="M265.2672 487.1168V338.176c0-22.272 18.8928-40.3968 42.0864-40.3968H461.312c5.0176-9.472 9.6768-28.9792 13.9776-38.8608H299.9296c-39.5264 0-71.5264 30.72-71.5264 68.6592v175.7696c12.544-4.9152 24.8832-10.2912 36.864-16.2304z" fill="#FF716E" p-id="3134"></path></svg>