<svg class="icon" style="width: 1em;height: 1em;vertical-align: middle;fill: currentColor;overflow: hidden;" viewBox="0 0 1024 1024" version="1.1" xmlns="http://www.w3.org/2000/svg" p-id="5979"><path d="M513.792 508.5184m-450.816 0a450.816 450.816 0 1 0 901.632 0 450.816 450.816 0 1 0-901.632 0Z" fill="#FFF1DC" p-id="5980"></path><path d="M623.6672 810.9056l-83.1488 20.0192c-13.056 3.1232-24.6272-9.0624-20.7872-21.9136l23.5008-79.0016c0.8192-2.7648 2.3552-5.3248 4.4032-7.3728l218.0608-218.0608a17.4592 17.4592 0 0 1 24.6784 0l59.2896 59.2896a17.4592 17.4592 0 0 1 0 24.6784l-217.7024 217.7024c-2.3552 2.304-5.2224 3.9424-8.2944 4.6592zM699.5968 202.8032H338.3296c-39.8336 0-72.1408 32.3072-72.1408 72.1408v449.1264c0 39.8336 32.3072 72.1408 72.1408 72.1408h143.616l29.184-100.4032 260.608-251.904v-168.96c0-39.8336-32.3072-72.1408-72.1408-72.1408z m-198.2976 417.1264h-103.936c-19.8144 0-35.84-16.0256-35.84-35.84s16.0256-35.84 35.84-35.84h103.936c19.8144 0 35.84 16.0256 35.84 35.84s-16.0256 35.84-35.84 35.84z m139.2128-118.9888H397.3632c-19.8144 0-35.84-16.0256-35.84-35.84s16.0256-35.84 35.84-35.84h243.1488c19.8144 0 35.84 16.0256 35.84 35.84s-16.0256 35.84-35.84 35.84z m0-110.4384H397.3632c-19.8144 0-35.84-16.0256-35.84-35.84s16.0256-35.84 35.84-35.84h243.1488c19.8144 0 35.84 16.0256 35.84 35.84s-16.0256 35.84-35.84 35.84z" fill="#FC7032" p-id="5981"></path><path d="M771.7376 274.944c0-39.8336-32.3072-72.1408-72.1408-72.1408H338.3296c-39.8336 0-72.1408 32.3072-72.1408 72.1408v449.1264c0 39.8336 32.3072 72.1408 72.1408 72.1408H392.192c33.4848-4.2496 65.792-12.1856 96.5632-23.3472l22.3744-77.0048 260.608-251.904V274.944z m-270.4384 344.9856h-103.936c-19.8144 0-35.84-16.0256-35.84-35.84s16.0256-35.84 35.84-35.84h103.936c19.8144 0 35.84 16.0256 35.84 35.84s-16.0256 35.84-35.84 35.84z m139.2128-118.9888H397.3632c-19.8144 0-35.84-16.0256-35.84-35.84s16.0256-35.84 35.84-35.84h243.1488c19.8144 0 35.84 16.0256 35.84 35.84s-16.0256 35.84-35.84 35.84z m0-110.4384H397.3632c-19.8144 0-35.84-16.0256-35.84-35.84s16.0256-35.84 35.84-35.84h243.1488c19.8144 0 35.84 16.0256 35.84 35.84s-16.0256 35.84-35.84 35.84zM753.2032 517.0176l-205.6192 205.6192c-2.048 2.048-3.5328 4.5568-4.4032 7.3728l-6.6048 22.2208c97.9456-49.1008 175.5136-132.864 216.6272-235.2128z" fill="#FF8345" p-id="5982"></path><path d="M372.6848 609.9968a35.6608 35.6608 0 0 1-11.1616-25.9584c0-19.8144 16.0256-35.84 35.84-35.84h86.3744c18.944-14.336 36.6592-30.1568 53.0944-47.2576H397.3632c-19.8144 0-35.84-16.0256-35.84-35.84s16.0256-35.84 35.84-35.84h195.5328a456.2432 456.2432 0 0 0 21.8624-38.7584H397.3632c-19.8144 0-35.84-16.0256-35.84-35.84s16.0256-35.84 35.84-35.84h243.1488c0.9216 0 1.792 0.0512 2.6624 0.1536a450.70336 450.70336 0 0 0 18.8416-116.1728H338.3296c-39.8336 0-72.1408 32.3072-72.1408 72.1408v361.472a445.0816 445.0816 0 0 0 106.496-26.4192z" fill="#FF9552" p-id="5983"></path><path d="M376.6272 383.8464a35.82976 35.82976 0 0 1-15.104-29.184c0-19.8144 16.0256-35.84 35.84-35.84h46.2848a450.03264 450.03264 0 0 0 70.656-116.0192H338.3296c-39.8336 0-72.1408 32.3072-72.1408 72.1408v172.8512c39.936-16.0768 77.1072-37.6832 110.4384-63.9488z" fill="#FFA56A" p-id="5984"></path></svg>