<svg class="icon" style="width: 1em;height: 1em;vertical-align: middle;fill: currentColor;overflow: hidden;" viewBox="0 0 1024 1024" version="1.1" xmlns="http://www.w3.org/2000/svg" p-id="4505"><path d="M507.392 510.72m-450.816 0a450.816 450.816 0 1 0 901.632 0 450.816 450.816 0 1 0-901.632 0Z" fill="#E9ECFF" p-id="4506"></path><path d="M759.1424 430.5408c19.6608-0.9216 39.8336-2.4064 60.5184-4.4544a319.9232 319.9232 0 0 0-30.7712-77.3632c-7.9872 23.808-17.8176 51.5072-29.7472 81.8176z" fill="#6C6CEA" p-id="4507"></path><path d="M332.4416 359.5264a983.552 983.552 0 0 1-36.4032-97.2288 325.0176 325.0176 0 0 0-49.2544 53.76c21.9648 13.056 50.5344 28.3648 85.6576 43.4688z" fill="#8D92F8" p-id="4508"></path><path d="M399.8208 359.3728c20.2752 3.6864 36.5056 18.7392 42.0864 38.2464 61.0816 16.6912 136.2944 30.2592 224.3072 33.4336 7.68-12.288 20.4288-21.0432 35.328-23.3984 19.6096-49.664 33.5872-92.0576 42.3936-120.832-58.88-63.6416-143.0016-103.6288-236.544-103.6288-57.6 0-111.616 15.1552-158.3616 41.6256 8.7552 30.5664 24.7296 78.7968 50.7904 134.5536zM457.7792 465.0496c39.6288 62.2592 84.992 116.4288 135.8336 162.304 27.5968-45.2608 51.4048-91.2384 71.6288-134.8608-78.9504-2.816-148.4288-13.4656-207.4624-27.4432z" fill="#757BF2" p-id="4509"></path><path d="M560.128 679.0144c-66.8672-58.88-125.3376-130.3552-173.6192-212.8384-22.6304-1.4848-41.3184-16.896-47.8208-37.7344-51.8656-19.968-93.0304-41.3696-123.2384-59.392a320.70144 320.70144 0 0 0-30.2592 136.3968c0 154.2144 108.3392 283.0848 253.0816 314.7264 46.0288-41.3696 86.528-90.0096 121.856-141.1584zM608.2048 718.08c-26.7776 38.2464-56.4224 75.264-89.1392 109.312a321.00864 321.00864 0 0 0 170.496-56.1664c-28.16-15.9232-55.296-33.6384-81.3568-53.1456zM747.6224 492.4416a50.688 50.688 0 0 1-20.5312 13.824c-23.296 51.5072-51.5584 106.5984-85.2992 160.8704a685.9776 685.9776 0 0 0 97.7408 61.4912c55.7056-57.9072 90.0096-136.5504 90.0096-223.232 0-6.2464-0.256-12.3904-0.6144-18.5344-27.9552 2.8672-55.0912 4.6592-81.3056 5.5808z" fill="#6C6CEA" p-id="4510"></path><path d="M386.5088 466.1248c-22.6304-1.4848-41.3184-16.896-47.8208-37.7344-51.8656-19.968-93.0304-41.3696-123.2384-59.392a320.70144 320.70144 0 0 0-30.2592 136.3968c0 142.0288 91.9552 262.4512 219.4944 305.3568a443.3408 443.3408 0 0 0 61.5424-17.408c34.6624-34.9696 65.9456-73.8304 93.9008-114.3808-66.8672-58.8288-125.2864-130.304-173.6192-212.8384zM727.0912 506.2656c-23.296 51.5072-51.5584 106.5984-85.2992 160.8704 1.8944 1.4336 3.84 2.7648 5.7856 4.1472 45.3632-50.2272 79.5648-110.6944 98.7136-177.5616a50.46272 50.46272 0 0 1-19.2 12.544z" fill="#757BF2" p-id="4511"></path><path d="M224 658.7392c87.3984-6.6048 167.8336-38.144 234.1888-87.5008-25.856-32.6656-49.8176-67.7376-71.7312-105.1136-22.6304-1.4848-41.3184-16.896-47.8208-37.7344-51.8656-19.968-93.0304-41.3696-123.2384-59.392a320.70144 320.70144 0 0 0-30.2592 136.3968c0.0512 55.552 14.1312 107.7248 38.8608 153.344zM457.7792 465.0496c14.848 23.296 30.464 45.4656 46.8992 66.5088 15.7184-15.36 30.3104-31.8976 43.6736-49.408-32.4096-4.6592-62.6688-10.496-90.5728-17.1008zM640.3584 211.9168c-40.5504-18.432-85.504-28.7232-132.9664-28.7232-57.6 0-111.616 15.1552-158.3616 41.6256C357.8368 255.3856 373.76 303.616 399.872 359.3728c20.2752 3.6864 36.5056 18.7392 42.0864 38.2464 41.472 11.3152 89.4464 21.1968 143.5648 27.392 34.5088-63.3344 54.3744-135.936 54.8352-213.0944z" fill="#8486F8" p-id="4512"></path><path d="M327.5264 423.936c-46.592-18.688-84.1216-38.2464-112.0768-54.9376a320.128 320.128 0 0 0-29.7472 118.0672 449.16736 449.16736 0 0 0 141.824-63.1296zM349.0304 224.8192C357.8368 255.3856 373.76 303.616 399.872 359.3728c1.0752 0.2048 2.0992 0.5632 3.1744 0.8192A451.38944 451.38944 0 0 0 506.88 183.1936a320.72704 320.72704 0 0 0-157.8496 41.6256z" fill="#8D92F8" p-id="4513"></path></svg>