<svg class="icon" style="width: 1em;height: 1em;vertical-align: middle;fill: currentColor;overflow: hidden;" viewBox="0 0 1024 1024" version="1.1" xmlns="http://www.w3.org/2000/svg" p-id="1553"><path d="M513.0752 510.8224m-450.816 0a450.816 450.816 0 1 0 901.632 0 450.816 450.816 0 1 0-901.632 0Z" fill="#FFF7DC" p-id="1554"></path><path d="M863.0784 503.7056c0-52.7872-56.3712-67.0208-86.016-77.1072-29.6448-10.0864-176.0768-64.2048-176.0768-64.2048s-100.1472-163.328-190.0032-101.888c-21.8112 13.7728-18.2272 63.6416 12.032 84.5312-41.8304-7.5776-110.7968 7.9872-107.264 47.616 3.584 39.6288 58.3168 60.0576 155.2896 43.6224 16.896-3.584 40.4992 8.9088 12.032 32.9216-15.1552 10.7008-80.9984 28.928-225.1776 3.1232-102.6048-18.3808-162.816-32.2048-189.0304-38.7072a451.6864 451.6864 0 0 0-6.6048 77.2608c0 149.504 72.8064 282.0096 184.8832 364.032 22.016-6.5536 45.0048-15.104 68.608-26.112 60.5184-28.4672 42.7008-57.856 28.4672-68.096s-42.7008-50.7392 36.9152-98.3552 178.7392-90.1632 296.8064-105.0112c37.9904-5.3248 83.6608-5.9392 105.6256-7.1168 21.9648-1.2288 79.5136-13.6704 79.5136-66.5088z m-260.5056-41.8304c-15.872 0-28.7744-12.9024-28.7744-28.7744s12.9024-28.7744 28.7744-28.7744 28.7744 12.9024 28.7744 28.7744-12.8512 28.7744-28.7744 28.7744z" fill="#FF8E12" p-id="1555"></path><path d="M600.9856 362.3424s-100.1472-163.328-190.0032-101.888c-21.8112 13.7728-18.2272 63.6416 12.032 84.5312-41.8304-7.5776-110.7968 7.9872-107.264 47.616 3.584 39.6288 58.3168 60.0576 155.2896 43.6224 16.896-3.584 40.4992 8.9088 12.032 32.9216-15.1552 10.7008-80.9984 28.928-225.1776 3.1232-102.6048-18.3808-162.816-32.2048-189.0304-38.7072a451.6864 451.6864 0 0 0-6.6048 77.2608c0 104.3456 35.5328 200.3968 95.0784 276.8384a426.51136 426.51136 0 0 0 163.84 32.5632c11.1616 0 22.1696-0.5632 33.1264-1.3824 9.6768-17.1008-0.9216-31.5904-10.0864-38.1952-14.2336-10.24-42.7008-50.7392 36.9152-98.3552s178.7392-90.1632 296.8064-105.0112c9.8304-1.3824 20.1728-2.4576 30.464-3.2768a425.0112 425.0112 0 0 0 39.68-157.696c-52.48-18.944-147.0976-53.9648-147.0976-53.9648z m1.5872 99.5328c-15.872 0-28.7744-12.9024-28.7744-28.7744s12.9024-28.7744 28.7744-28.7744 28.7744 12.9024 28.7744 28.7744-12.8512 28.7744-28.7744 28.7744z" fill="#FCA315" p-id="1556"></path><path d="M410.9312 260.4544C389.12 274.2272 392.704 324.096 422.9632 344.9856c-41.8304-7.5776-110.7968 7.9872-107.264 47.616 3.584 39.6288 58.3168 60.0576 155.2896 43.6224 16.896-3.584 40.4992 8.9088 12.032 32.9216-15.1552 10.7008-80.9984 28.928-225.1776 3.1232-102.6048-18.3808-162.816-32.2048-189.0304-38.7072a451.6864 451.6864 0 0 0-6.6048 77.2608c0 49.0496 7.8848 96.256 22.3744 140.4416a428.34944 428.34944 0 0 0 119.552 17.0496c160.8704 0 300.9536-88.8832 373.9648-220.16-2.7136-4.4032-4.3008-9.5232-4.3008-15.0528 0-14.7456 11.1104-26.88 25.3952-28.5696 5.12-12.3392 9.728-24.9344 13.6704-37.7856-7.424-2.7648-11.9296-4.4032-11.9296-4.4032s-100.096-163.2768-190.0032-101.888z" fill="#FCB138" p-id="1557"></path><path d="M257.8944 472.2688c-102.6048-18.3808-162.816-32.2048-189.0304-38.7072a451.6864 451.6864 0 0 0-6.6048 77.2608c0 1.5872 0.0512 3.1232 0.0512 4.6592 11.3152 0.9216 22.7328 1.4848 34.2528 1.4848 65.4848 0 127.5392-14.7968 183.04-41.1136-7.0656-1.024-14.2336-2.2528-21.7088-3.584zM422.9632 344.9856c-41.8304-7.5776-110.7968 7.9872-107.264 47.616 1.5872 17.92 13.7216 31.8976 35.4816 40.3456 61.184-45.4144 109.824-106.752 139.7248-177.8688-25.6512-11.264-53.248-12.8512-79.9744 5.376-21.76 13.824-18.2272 63.6416 12.032 84.5312z" fill="#FFC65E" p-id="1558"></path></svg>