<svg class="icon" style="width: 1em;height: 1em;vertical-align: middle;fill: currentColor;overflow: hidden;" viewBox="0 0 1024 1024" version="1.1" xmlns="http://www.w3.org/2000/svg" p-id="1221"><path d="M516.5568 511.3856m-450.816 0a450.816 450.816 0 1 0 901.632 0 450.816 450.816 0 1 0-901.632 0Z" fill="#FFF1DC" p-id="1222"></path><path d="M639.3856 609.0752v167.3216c0 14.5408 11.8272 26.368 26.368 26.368h82.7904c14.5408 0 26.368-11.8272 26.368-26.368V248.1152c0-13.7216-10.4448-25.088-24.1152-26.2656-53.0944-4.5568-176.128 4.096-186.368 180.0192-9.1136 146.3808 21.3504 186.2656 74.9568 207.2064z" fill="#FC7032" p-id="1223"></path><path d="M499.1488 249.7024a30.464 30.464 0 0 0-30.4128-28.672h-20.2752v196.1984c0 14.1312-11.4688 25.6-25.6 25.6s-25.6-11.4688-25.6-25.6V221.0304h-31.5904v196.1984c0 14.1312-11.4688 25.6-25.6 25.6s-25.6-11.4688-25.6-25.6V221.0304h-21.2992a30.464 30.464 0 0 0-30.4128 28.672l-13.6704 230.7584c0 39.68 20.2752 74.6496 50.9952 95.1296v194.2016c0 18.176 14.7456 32.9728 32.9728 32.9728h97.8432c18.176 0 32.9728-14.7456 32.9728-32.9728v-195.584c29.6448-20.6336 48.9984-54.9376 48.9984-93.7472l-13.7216-230.7584zM774.912 549.2736V248.1152c0-13.7216-10.4448-25.088-24.1152-26.2656-53.0944-4.5568-176.128 4.096-186.368 180.0192-9.1648 146.432 21.3504 186.2656 74.9568 207.2064v112.6912a452.79744 452.79744 0 0 0 135.5264-172.4928z" fill="#FF8048" p-id="1224"></path><path d="M468.736 221.0304h-20.2752v196.1984c0 14.1312-11.4688 25.6-25.6 25.6s-25.6-11.4688-25.6-25.6V221.0304h-31.5904v196.1984c0 14.1312-11.4688 25.6-25.6 25.6s-25.6-11.4688-25.6-25.6V221.0304h-21.2992a30.464 30.464 0 0 0-30.4128 28.672l-13.6704 230.7584c0 39.68 20.2752 74.6496 50.9952 95.1296v76.5952a448.1536 448.1536 0 0 0 163.7376-55.4496v-22.4768c29.6448-20.6336 48.9984-54.9376 48.9984-93.7472l-13.6704-230.7584a30.46912 30.46912 0 0 0-30.4128-28.7232zM564.4288 401.8688c-3.0208 48.128-1.6896 84.6848 3.2768 112.896C639.6928 438.528 685.3632 337.2032 690.176 225.28c-55.2448 11.7248-118.528 52.5824-125.7472 176.5888z" fill="#FF9552" p-id="1225"></path><path d="M365.6192 221.0304v196.1984c0 4.8128-1.3824 9.2672-3.6864 13.1072a459.776 459.776 0 0 0 35.2768-24.0128V221.0304h-31.5904zM340.2752 442.7776h-0.2048c-14.1312 0-25.6-11.4688-25.6-25.6V221.0304h-21.2992a30.464 30.464 0 0 0-30.4128 28.672L249.1392 479.744c31.9488-9.0112 62.464-21.4528 91.136-36.9664zM501.8624 295.4752l-2.7136-45.7728a30.464 30.464 0 0 0-30.4128-28.672h-20.2752v140.3392c19.7632-20.224 37.6832-42.2912 53.4016-65.8944z" fill="#FFA56A" p-id="1226"></path></svg>