<svg class="icon" style="width: 1em;height: 1em;vertical-align: middle;fill: currentColor;overflow: hidden;" viewBox="0 0 1024 1024" version="1.1" xmlns="http://www.w3.org/2000/svg" p-id="4441"><path d="M508.416 513.1264m-450.816 0a450.816 450.816 0 1 0 901.632 0 450.816 450.816 0 1 0-901.632 0Z" fill="#FFF1DC" p-id="4442"></path><path d="M659.6096 343.0912c-12.288 0-22.2208-9.9328-22.2208-22.2208V242.3296c0-12.288 9.9328-22.2208 22.2208-22.2208s22.2208 9.9328 22.2208 22.2208v78.5408c0 12.2368-9.9328 22.2208-22.2208 22.2208z" fill="#FF7E3E" p-id="4443"></path><path d="M711.0144 260.608v60.2624c0 25.5488-25.9072 46.336-51.4048 46.336-25.5488 0-51.4048-20.7872-51.4048-46.336V260.3008H419.1232v60.5696c0 25.5488-25.9072 46.336-51.4048 46.336-25.5488 0-51.4048-20.7872-51.4048-46.336V260.4032c-48.4352 1.9456-87.0912 41.8304-87.0912 90.7264v71.168h565.5552v-71.168c0-47.7696-36.9152-86.9376-83.7632-90.5216z" fill="#FF7E3E" p-id="4444"></path><path d="M367.7184 343.0912c-12.288 0-22.2208-9.9328-22.2208-22.2208V242.3296c0-12.288 9.9328-22.2208 22.2208-22.2208s22.2208 9.9328 22.2208 22.2208v78.5408c0 12.2368-9.9328 22.2208-22.2208 22.2208z" fill="#FFA56A" p-id="4445"></path><path d="M681.8304 242.3296c0-12.288-9.9328-22.2208-22.2208-22.2208s-22.2208 9.9328-22.2208 22.2208v78.5408c0 9.5744 6.0928 17.664 14.592 20.7872a446.18752 446.18752 0 0 0 29.8496-94.464v-4.864zM641.4848 363.776c-18.3808-6.912-33.28-23.5008-33.28-42.9056V260.3008H419.1232v60.5696c0 25.5488-25.9072 46.336-51.4048 46.336s-51.4048-20.7872-51.4048-46.336V260.4032c-48.4352 1.9456-87.0912 41.8304-87.0912 90.7264v71.168h376.5248c13.3632-18.5344 25.2928-38.0928 35.7376-58.5216z" fill="#FF9552" p-id="4446"></path><path d="M494.1312 260.3008H419.1232v60.5696c0 25.5488-25.9072 46.336-51.4048 46.336s-51.4048-20.7872-51.4048-46.336V260.4032c-48.4352 1.9456-87.0912 41.8304-87.0912 90.7264v71.168H283.648c85.4016-31.8464 158.5664-88.832 210.4832-161.9968z" fill="#FFA56A" p-id="4447"></path><path d="M229.2224 467.6608v237.7216c0 50.176 40.6528 90.8288 90.8288 90.8288h383.9488c50.176 0 90.8288-40.6528 90.8288-90.8288V467.6608H229.2224z m259.6352 116.5312H324.096c-16.9472 0-30.72-13.7728-30.72-30.72s13.7728-30.72 30.72-30.72h164.7104c16.9472 0 30.72 13.7728 30.72 30.72s-13.7216 30.72-30.6688 30.72z" fill="#FC7032" p-id="4448"></path><path d="M229.2224 467.6608v237.7216c0 17.1008 4.8128 33.0752 13.056 46.7456a450.90304 450.90304 0 0 0 126.5664 18.0224c197.0176 0 364.4928-126.4128 425.8304-302.4896H229.2224z m259.6352 116.5312H324.096c-16.9472 0-30.72-13.7728-30.72-30.72s13.7728-30.72 30.72-30.72h164.7104c16.9472 0 30.72 13.7728 30.72 30.72s-13.7216 30.72-30.6688 30.72z" fill="#FF7E3E" p-id="4449"></path><path d="M229.2224 467.6608v142.2848c3.4816 0.1024 6.912 0.1536 10.3936 0.1536 52.8384 0 103.4752-9.1648 150.5792-25.856H324.096c-16.9472 0-30.72-13.7728-30.72-30.72s13.7728-30.72 30.72-30.72h164.7104c4.7104 0 9.1136 1.0752 13.1072 2.9696 24.0128-17.2032 46.336-36.5568 66.4576-58.0608H229.2224z" fill="#FF9552" p-id="4450"></path></svg>