<svg class="icon" style="width: 1em;height: 1em;vertical-align: middle;fill: currentColor;overflow: hidden;" viewBox="0 0 1024 1024" version="1.1" xmlns="http://www.w3.org/2000/svg" p-id="5344"><path d="M505.088 513.1264m-450.816 0a450.816 450.816 0 1 0 901.632 0 450.816 450.816 0 1 0-901.632 0Z" fill="#FFF1DC" p-id="5345"></path><path d="M370.5344 362.8032a33.28 33.28 0 0 1-33.28-33.28V239.1552a33.28 33.28 0 1 1 66.56 0v90.368a33.28 33.28 0 0 1-33.28 33.28z" fill="#FFC65E" p-id="5346"></path><path d="M630.1696 362.8032a33.28 33.28 0 0 1-33.28-33.28V239.1552a33.28 33.28 0 1 1 66.56 0v90.368a33.28 33.28 0 0 1-33.28 33.28z" fill="#FF8E12" p-id="5347"></path><path d="M723.712 264.5504h-20.0192v64.9728c0 40.96-33.28 74.24-74.24 74.24s-74.24-33.28-74.24-74.24V264.5504H444.7744v64.9728c0 40.96-33.28 74.24-74.24 74.24s-74.24-33.28-74.24-74.24V264.5504h-15.36c-37.0176 0-67.1232 30.1056-67.1232 67.1232v365.9776c0 53.7088 43.6736 97.3824 97.3824 97.3824h382.208c53.7088 0 97.3824-43.6736 97.3824-97.3824V331.6224c0.0512-36.9664-30.0544-67.072-67.072-67.072z m-56.7296 253.2864l-79.2064 79.872a50.00192 50.00192 0 0 1-35.328 14.6944h-0.4608a49.9712 49.9712 0 0 1-35.4816-15.4112l-45.4144-47.5136-70.0928 69.5296a33.14688 33.14688 0 0 1-23.4496 9.6768 33.24928 33.24928 0 0 1-23.3984-56.8832l82.2784-81.6128c9.5744-9.472 22.3232-14.5408 35.7376-14.4384 13.4656 0.2048 26.0096 5.632 35.328 15.4112l45.312 47.4112 67.072-67.6352a33.24928 33.24928 0 0 1 47.0528-0.2048c12.9024 12.9536 13.0048 34.048 0.0512 47.104z" fill="#FF8E12" p-id="5348"></path><path d="M790.8352 331.6224c0-37.0176-30.1056-67.1232-67.1232-67.1232h-20.0192v64.9728c0 40.96-33.28 74.24-74.24 74.24s-74.24-33.28-74.24-74.24V264.5504H444.7744v64.9728c0 40.96-33.28 74.24-74.24 74.24s-74.24-33.28-74.24-74.24V264.5504h-15.36c-37.0176 0-67.1232 30.1056-67.1232 67.1232v365.9776c0 53.7088 43.6736 97.3824 97.3824 97.3824h146.1248c176.128-45.7728 310.4256-195.4304 333.5168-379.648V331.6224z m-123.8528 186.2144l-79.2064 79.872a50.00192 50.00192 0 0 1-35.328 14.6944h-0.4608a49.9712 49.9712 0 0 1-35.4816-15.4112l-45.4144-47.5136-70.0928 69.5296a33.14688 33.14688 0 0 1-23.4496 9.6768 33.24928 33.24928 0 0 1-23.3984-56.8832l82.2784-81.6128c9.5744-9.472 22.3232-14.5408 35.7376-14.4384 13.4656 0.2048 26.0096 5.632 35.328 15.4112l45.312 47.4112 67.072-67.6352a33.24928 33.24928 0 0 1 47.0528-0.2048c12.9024 12.9536 13.0048 34.048 0.0512 47.104z" fill="#FCA315" p-id="5349"></path><path d="M213.8112 649.3184c2.1504 0.0512 4.3008 0.1024 6.4512 0.1024 50.3296 0 98.7648-8.2432 143.9744-23.5008-3.7376-1.6384-7.2704-3.9424-10.2912-7.0144a33.24928 33.24928 0 0 1 0.2048-47.0528l82.2784-81.6128c9.5744-9.472 22.3232-14.5408 35.7376-14.4384 13.4656 0.2048 26.0096 5.632 35.328 15.4112l28.2112 29.5424a452.1216 452.1216 0 0 0 86.3744-117.3504c-37.4272-3.7888-66.7136-35.4816-66.7136-73.8816V264.5504h-110.592v64.9728c0 40.96-33.28 74.24-74.24 74.24s-74.24-33.28-74.24-74.24V264.5504h-15.36c-37.0176 0-67.1232 30.1056-67.1232 67.1232v317.6448z" fill="#FCB138" p-id="5350"></path><path d="M414.8224 605.3376c24.6272-11.776 47.9744-25.7536 69.8368-41.6256l-13.568-14.1824-56.2688 55.808zM663.4496 239.1552a33.28 33.28 0 1 0-66.56 0v90.368a33.28 33.28 0 0 0 33.28 33.28c3.7376 0 7.3216-0.6656 10.7008-1.792 9.8816-25.5488 17.4592-52.224 22.5792-79.7696v-42.0864z" fill="#FCB138" p-id="5351"></path><path d="M497.3056 264.5504H444.7744v64.9728c0 2.8672-0.2048 5.6832-0.512 8.448 20.0192-22.5792 37.7856-47.1552 53.0432-73.4208zM371.9168 403.6608c-0.4608 0-0.9216 0.0512-1.3824 0.0512-40.96 0-74.24-33.28-74.24-74.24V264.5504h-15.36c-37.0176 0-67.1232 30.1056-67.1232 67.1232v145.408a448.77312 448.77312 0 0 0 158.1056-73.4208z" fill="#FFC65E" p-id="5352"></path></svg>