<svg class="icon" style="width: 1em;height: 1em;vertical-align: middle;fill: currentColor;overflow: hidden;" viewBox="0 0 1024 1024" version="1.1" xmlns="http://www.w3.org/2000/svg" p-id="6253"><path d="M511.1808 514.2016m-450.816 0a450.816 450.816 0 1 0 901.632 0 450.816 450.816 0 1 0-901.632 0Z" fill="#E9ECFF" p-id="6254"></path><path d="M514.6624 178.3808c-183.1424 0-331.6224 148.48-331.6224 331.6224s148.48 331.6224 331.6224 331.6224 331.6224-148.48 331.6224-331.6224-148.48-331.6224-331.6224-331.6224zM394.752 600.064c0 9.728-7.8848 17.6128-17.6128 17.6128h-4.3008v65.9968a21.5552 21.5552 0 0 1-43.1104 0v-65.9968h-4.3008a17.6128 17.6128 0 0 1-17.6128-17.6128V398.7968c0-9.728 7.8848-17.6128 17.6128-17.6128h4.3008v-39.5776a21.5552 21.5552 0 0 1 43.1104 0v39.5776h4.3008c9.728 0 17.6128 7.8848 17.6128 17.6128v201.2672z m163.328 53.9136c0 9.728-7.8848 17.6128-17.6128 17.6128h-4.3008v65.9968a21.5552 21.5552 0 0 1-43.1104 0v-65.9968h-4.3008a17.6128 17.6128 0 0 1-17.6128-17.6128V452.7104c0-9.728 7.8848-17.6128 17.6128-17.6128h4.3008v-39.5776a21.5552 21.5552 0 0 1 43.1104 0v39.5776h4.3008c9.728 0 17.6128 7.8848 17.6128 17.6128v201.2672z m160.5632-73.728c0 9.728-7.8848 17.6128-17.6128 17.6128h-4.3008v65.9968a21.5552 21.5552 0 0 1-43.1104 0v-65.9968h-4.3008a17.6128 17.6128 0 0 1-17.6128-17.6128V378.9824c0-9.728 7.8848-17.6128 17.6128-17.6128h4.3008v-39.5776a21.5552 21.5552 0 0 1 43.1104 0v39.5776h4.3008c9.728 0 17.6128 7.8848 17.6128 17.6128v201.2672z" fill="#6C6CEA" p-id="6255"></path><path d="M701.0816 597.8624h-4.3008v21.7088c63.488-74.8544 102.4-171.1616 104.3456-276.5312-57.4976-98.4576-164.2496-164.6592-286.464-164.6592-183.1424 0-331.6224 148.48-331.6224 331.6224 0 107.1104 50.8416 202.3424 129.6896 262.9632 15.6672 1.6896 31.5392 2.56 47.6672 2.56 48.6912 0 95.5392-7.936 139.3152-22.4768a21.40672 21.40672 0 0 1-6.6048-15.4624v-65.9968h-4.3008a17.6128 17.6128 0 0 1-17.6128-17.6128V452.7104c0-9.728 7.8848-17.6128 17.6128-17.6128h4.3008v-39.5776a21.5552 21.5552 0 0 1 43.1104 0v39.5776h4.3008c9.728 0 17.6128 7.8848 17.6128 17.6128v201.2672c0 9.728-7.8848 17.6128-17.6128 17.6128h-4.3008v65.9968c0 0.512-0.1024 1.024-0.1536 1.536 43.264-18.8416 82.944-44.3904 117.6576-75.3664v-65.8944h-4.3008a17.6128 17.6128 0 0 1-17.6128-17.6128V378.9824c0-9.728 7.8848-17.6128 17.6128-17.6128h4.3008v-39.5776a21.5552 21.5552 0 0 1 43.1104 0v39.5776h4.3008c9.728 0 17.6128 7.8848 17.6128 17.6128v201.2672c-0.1024 9.728-7.936 17.6128-17.664 17.6128z m-306.3296 2.2016c0 9.728-7.8848 17.6128-17.6128 17.6128h-4.3008v65.9968a21.5552 21.5552 0 0 1-43.1104 0v-65.9968h-4.3008a17.6128 17.6128 0 0 1-17.6128-17.6128V398.7968c0-9.728 7.8848-17.6128 17.6128-17.6128h4.3008v-39.5776a21.5552 21.5552 0 0 1 43.1104 0v39.5776h4.3008c9.728 0 17.6128 7.8848 17.6128 17.6128v201.2672z" fill="#757BF2" p-id="6256"></path><path d="M183.04 509.952c0 37.5296 6.3488 73.5744 17.8176 107.2128 12.8512 1.1264 25.8048 1.7408 38.912 1.7408 25.088 0 49.664-2.1504 73.5744-6.144-3.3792-3.2256-5.4784-7.68-5.4784-12.6976V398.7968c0-9.728 7.8848-17.6128 17.6128-17.6128h4.3008v-39.5776a21.5552 21.5552 0 0 1 43.1104 0v39.5776h4.3008c9.728 0 17.6128 7.8848 17.6128 17.6128v192.1024a441.10848 441.10848 0 0 0 76.4416-37.5296V452.7104c0-9.728 7.8848-17.6128 17.6128-17.6128h4.3008v-39.5776a21.5552 21.5552 0 0 1 43.1104 0v39.5776h4.3008c9.728 0 17.6128 7.8848 17.6128 17.6128v30.4128a441.4976 441.4976 0 0 0 73.6768-103.1168v-0.9728c0-5.9904 3.0208-11.264 7.5776-14.4384 5.2224-11.2128 10.0352-22.6816 14.336-34.3552v-8.3968c0-6.9632 3.328-13.056 8.448-16.9984a441.35936 441.35936 0 0 0 16.384-83.0976 329.89184 329.89184 0 0 0-163.84-43.3664c-183.2448 0-331.7248 148.4288-331.7248 331.5712z" fill="#8486F8" p-id="6257"></path><path d="M186.9312 459.1104a437.65248 437.65248 0 0 0 120.9344-34.048v-26.2656c0-9.728 7.8848-17.6128 17.6128-17.6128h4.3008v-39.5776a21.5552 21.5552 0 0 1 43.1104 0v39.5776h4.3008c2.0992 0 4.0448 0.4096 5.9392 1.0752 70.8608-50.0736 126.208-120.5248 157.696-202.8032-8.6528-0.6656-17.3568-1.1264-26.1632-1.1264-165.8368 0.0512-303.2576 121.8048-327.7312 280.7808z" fill="#8D92F8" p-id="6258"></path></svg>