<svg class="icon" style="width: 1em;height: 1em;vertical-align: middle;fill: currentColor;overflow: hidden;" viewBox="0 0 1024 1024" version="1.1" xmlns="http://www.w3.org/2000/svg" p-id="3570"><path d="M514.6112 511.0784m-450.816 0a450.816 450.816 0 1 0 901.632 0 450.816 450.816 0 1 0-901.632 0Z" fill="#FFE3DB" p-id="3571"></path><path d="M874.8544 553.7792c-16.8448-32.256-42.24-55.296-76.1856-68.8128-16.8448-6.7584-34.3552-9.9328-52.48-10.0352-4.5056 0-5.888-7.6288-8.7552-21.3504-9.9328-47.0528-13.8752-62.0544-29.2352-120.8832-2.5088-9.6256-4.2496-15.7184-5.888-24.3712h6.5024c17.2544 0 34.4576-0.1536 51.712 0.1024 6.6048 0.1024 6.656-2.8672 5.632-12.4416-1.4848-13.6192-1.1776-27.3408 0.3072-40.96 0.8192-7.7312-0.6656-9.472-6.4-9.4208-32.768 0.1024-91.648 0.2048-120.3712 0.3584a13.24032 13.24032 0 0 0-12.8 16.2816l30.5152 129.4336h-6.4c-56.576 0-113.2032-0.0512-169.7792 0.0512-4.2496 0-5.7856-1.1264-5.7344-5.5808 0.2048-17.2544 0-34.4576 0.1536-51.712 0.0512-3.9936-1.2288-5.5296-5.4272-5.4784-52.0704 0.1024-104.1408 0.1024-156.2112 0-4.7616 0-5.376 2.2016-4.5056 8.8064 1.9456 15.1552 2.2528 30.5152 0 45.6192-1.024 6.9632 0.2048 8.3968 4.608 8.3456 16.0256-0.1536 32.0512-0.0512 48.0768-0.0512h6.6048c-1.3824 3.9424-21.0432 47.6672-31.1296 70.2464-7.0144 15.7696-8.0384 18.9952-15.8208 17.0496-33.024-8.1408-64.9728-4.608-95.6416 9.8304-65.1264 30.6176-99.072 106.5984-76.6464 174.336 18.5856 56.2176 57.7536 90.4704 116.736 100.9152 59.7504 10.5984 119.1424-18.432 148.48-71.5776 9.5232-17.2544 16.0256-35.4816 17.8176-55.1936 0.4608-4.9664 2.2016-7.0144 7.424-6.6048 6.2464 0.4608 12.544-0.1536 18.7904 0.256 2.2016 0.1536 5.12 1.536 6.2976 3.328 21.0432 31.488 65.3824 37.4272 93.952 11.264 19.968-18.2784 25.4464-45.8752 15.4112-69.7856-8.7552-20.8384-24.9856-33.28-47.36-37.7344-2.0992-0.4096-4.608-2.2528-5.4784-4.1984-11.5712-24.9344-22.9376-50.0224-34.304-75.1104-0.512-1.1776-0.768-2.5088-1.28-4.096 1.7408-0.256 2.8672-0.5632 4.0448-0.5632 59.1872 0 118.4256 0 177.6128-0.1024 5.12 0 4.5568 3.1744 6.2464 10.24 1.7408 7.2192 2.9696 12.2368 4.7104 18.688 1.6896 6.3488 1.2288 7.8336-3.6352 10.3936-3.6864 1.9456-7.2704 3.9936-10.6496 6.4512-48.2304 35.2256-69.5808 81.92-62.7712 139.7248 7.4752 63.5392 58.4192 114.688 120.0128 124.3648 34.9184 5.4784 67.7376-0.1024 97.8944-18.2784 42.3424-25.5488 65.792-63.6928 70.9632-112.64 3.072-27.648-2.6624-54.3232-15.616-79.104z m-594.9952 149.504c-46.4896-5.376-80.4352-47.2576-73.5232-94.9248 7.168-49.2544 54.4256-77.8752 95.6416-69.3248-1.024 2.56-1.8944 5.12-2.9696 7.5264-5.4272 12.032-10.752 24.1152-16.4352 36.096l-11.52 26.7776c-4.3008 9.984 2.9696 21.0944 13.824 21.1968l29.184 0.3072c16.1792-0.1024 32.3584-0.0512 48.5376 0 2.4064 0 4.7616 0.2048 7.5264 0.3072-3.5328 42.8032-47.3088 77.0048-90.2656 72.0384z m176.4864-134.7072c-9.0624-0.0512-18.0736-0.1024-27.136 0.0512-3.3792 0.0512-5.4272-0.9216-6.7584-4.1984-7.936-19.456-19.8656-36.1984-35.2256-50.432-2.6624-2.4576-2.8672-4.4032-1.3824-7.6288 8.192-17.664 16.1792-35.4304 24.2176-53.1456 0.768-1.6896 1.6896-3.328 3.1744-6.3488 5.7344 12.5952 10.9056 23.7568 15.9744 34.9184 11.52 25.2928 22.9888 50.6368 34.4576 75.9808 3.7376 8.2432 1.9968 10.8032-7.3216 10.8032z m307.8656 133.0176c-40.8576 9.8816-84.1728-14.3872-97.536-55.3984-12.3904-38.0416 5.4784-76.6464 29.2864-91.0848 5.6832 24.0128 11.3152 47.4624 16.64 71.0144 0.768 3.4304 3.84 5.8368 7.3216 5.7856 17.5616-0.256 35.1232-0.1024 52.6848-0.1024 3.1744 0 5.5296-3.0208 4.8128-6.0928-6.912-29.2352-13.7216-57.856-20.5312-86.5792 28.3136 1.3312 64.5632 26.2144 70.8608 69.4784 6.6048 45.6192-23.3984 83.3024-63.5392 92.9792z" fill="#F23D4F" p-id="3572"></path><path d="M798.6688 484.9664c-16.8448-6.7584-34.3552-9.9328-52.48-10.0352-4.5056 0-5.888-7.6288-8.7552-21.3504-9.9328-47.0528-13.8752-62.0544-29.2352-120.8832-2.5088-9.6256-4.2496-15.7184-5.888-24.3712h6.5024c17.2544 0 34.4576-0.1536 51.712 0.1024 6.6048 0.1024 10.752-2.816 10.752-12.4416 0-14.0288 0.3072-27.4432 0.3072-40.96 0-7.7824-5.7856-9.472-11.52-9.4208-32.768 0.1024-91.648 0.2048-120.3712 0.3584a13.24032 13.24032 0 0 0-12.8 16.2816l30.5152 129.4848h-6.4c-56.576 0-113.2032-0.0512-169.7792 0.0512-4.2496 0-5.7856-1.1264-5.6832-5.5808 0.2048-17.2544 0-34.4576 0.1536-51.712 0.0512-3.9936-1.2288-5.5296-5.4272-5.4784-52.0704 0.1024-104.1408 0.1024-156.2112 0-4.7616 0-5.376 2.2016-4.5056 8.8064 1.9456 15.1552 2.2528 30.5152 0 45.6192-1.024 6.9632 0.2048 8.3968 4.608 8.3456 16.0256-0.1536 32.0512-0.0512 48.0768-0.0512h6.6048c-1.3824 3.9424-21.0432 47.6672-31.1296 70.2464-7.0144 15.7696-8.0384 18.9952-15.8208 17.0496-33.024-8.1408-64.9728-4.608-95.6416 9.8304-65.1264 30.6176-99.072 106.5984-76.6464 174.336 18.5856 56.2176 57.7536 90.4704 116.736 100.9152 59.7504 10.5984 119.1424-18.432 148.48-71.5776 9.5232-17.2544 16.0256-35.4816 17.8176-55.1936 0.4608-4.9664 2.2016-7.0144 7.424-6.6048 6.2464 0.4608 12.544-0.1536 18.7904 0.256 2.2016 0.1536 5.12 1.536 6.2976 3.328 21.0432 31.488 65.3824 37.4272 93.952 11.264 19.968-18.2784 25.4464-45.8752 15.4112-69.7856-8.7552-20.8384-24.9856-33.28-47.36-37.7344-2.0992-0.4096-4.608-2.2528-5.4784-4.1984-11.5712-24.9344-22.9376-50.0224-34.304-75.1104-0.512-1.1776-0.768-2.5088-1.28-4.096 1.7408-0.256 2.8672-0.5632 4.0448-0.5632 59.1872 0 118.4256 0 177.6128-0.1024 5.12 0 4.5568 3.1744 6.2464 10.24 1.7408 7.2192 2.9696 12.2368 4.7104 18.688 1.6896 6.3488 1.2288 7.8336-3.6352 10.3936-3.6864 1.9456-7.2704 3.9936-10.6496 6.4512-48.2304 35.2256-69.5808 81.92-62.7712 139.7248 5.9392 50.5856 39.4752 93.2352 83.968 113.408 18.0224-15.3088 34.816-32 50.2272-49.92-30.9248-3.84-58.9312-25.3952-69.2224-56.9344-12.3904-38.0416 5.4784-76.6464 29.2864-91.0848 5.6832 24.0128 11.3152 47.4624 16.64 71.0144 0.768 3.4304 3.84 5.8368 7.3216 5.7856 17.5616-0.256 35.1232-0.1024 52.6848-0.1024 3.1744 0 5.5296-3.0208 4.8128-6.0928-6.912-29.2352-13.7216-57.856-20.5312-86.5792 19.4048 0.9216 42.4448 12.8512 57.088 34.1504 8.5504-21.9136 15.4112-44.6464 20.48-68.096-10.5472-8.0384-22.4768-14.7968-35.7376-20.0704zM279.8592 703.2832c-46.4896-5.376-80.4352-47.2576-73.5232-94.9248 7.168-49.2544 54.4256-77.8752 95.6416-69.3248-1.024 2.56-1.8944 5.12-2.9696 7.5264-5.4272 12.032-10.752 24.1152-16.4352 36.096l-11.52 26.7776c-4.3008 9.984 2.9696 21.0944 13.824 21.1968l29.184 0.3072c16.1792-0.1024 32.3584-0.0512 48.5376 0 2.4064 0 4.7616 0.2048 7.5264 0.3072-3.5328 42.8032-47.3088 77.0048-90.2656 72.0384z m176.4864-134.7072c-9.0624-0.0512-18.0736-0.1024-27.136 0.0512-3.3792 0.0512-5.4272-0.9216-6.7584-4.1984-7.936-19.456-19.8656-36.1984-35.2256-50.432-2.6624-2.4576-2.8672-4.4032-1.3824-7.6288 8.192-17.664 16.1792-35.4304 24.2176-53.1456 0.768-1.6896 1.6896-3.328 3.1744-6.3488 5.7344 12.5952 10.9056 23.7568 15.9744 34.9184 11.52 25.2928 22.9888 50.6368 34.4576 75.9808 3.7376 8.2432 1.9968 10.8032-7.3216 10.8032z" fill="#FC4956" p-id="3573"></path><path d="M708.1984 332.7488c-2.5088-9.6256-4.2496-15.7184-5.888-24.3712H717.5168c2.5088-19.3024 3.84-39.0144 3.84-59.0336 0-1.1776-0.0512-2.3552-0.0512-3.5328-29.44 0.1024-62.3616 0.1536-81.664 0.256a13.24032 13.24032 0 0 0-12.8 16.2816l30.5152 129.4848h-6.4c-56.576 0-113.2032-0.0512-169.7792 0.0512-4.2496 0-5.7856-1.1264-5.6832-5.5808 0.2048-17.2544 0-34.4576 0.1536-51.712 0.0512-3.9936-1.2288-5.5296-5.4272-5.4784-52.0704 0.1024-104.1408 0.1024-156.2112 0-4.7616 0-5.376 2.2016-4.5056 8.8064 1.9456 15.1552 2.2528 30.5152 0 45.6192-1.024 6.9632 0.2048 8.3968 4.608 8.3456 16.0256-0.1536 32.0512-0.0512 48.0768-0.0512h6.6048c-1.3824 3.9424-21.0432 47.6672-31.1296 70.2464-7.0144 15.7696-8.0384 18.9952-15.8208 17.0496-33.024-8.1408-64.9728-4.608-95.6416 9.8304-65.1264 30.6176-99.072 106.5984-76.6464 174.336 2.6624 8.0896 5.8368 15.7184 9.3696 22.8864a449.024 449.024 0 0 0 105.6768 13.8752c-38.3488-11.776-64.3584-49.408-58.2144-91.648 7.168-49.2544 54.4256-77.8752 95.6416-69.3248-1.024 2.56-1.8944 5.12-2.9696 7.5264-5.4272 12.032-10.752 24.1152-16.4352 36.096l-11.52 26.7776c-4.3008 9.984 2.9696 21.0944 13.824 21.1968l29.184 0.3072c16.1792-0.1024 32.3584-0.0512 48.5376 0 2.4064 0 4.7616 0.2048 7.5264 0.3072-2.4064 29.5424-24.064 54.9888-51.4048 66.304a450.7136 450.7136 0 0 0 105.1136-24.1664c4.5056-11.4688 7.5776-23.3984 8.704-35.8912 0.4608-4.9664 2.2016-7.0144 7.424-6.6048 6.2464 0.4608 12.544-0.1536 18.7904 0.256 2.2016 0.1536 5.12 1.536 6.2976 3.328 3.8912 5.7856 8.5504 10.7008 13.7728 14.7456a452.608 452.608 0 0 0 97.3824-68.5568c-0.512-1.5872-1.1264-3.1744-1.7408-4.7104-8.7552-20.8384-24.9856-33.28-47.36-37.7344-2.0992-0.4096-4.608-2.2528-5.4784-4.1984-11.5712-24.9344-22.9376-50.0224-34.304-75.1104-0.512-1.1776-0.768-2.5088-1.28-4.096 1.7408-0.256 2.8672-0.5632 4.0448-0.5632 59.1872 0 118.4256 0 177.6128-0.1024 1.9456 0 3.0208 0.4608 3.7888 1.3824a445.9008 445.9008 0 0 0 39.7312-111.0016c-0.9728-3.7888-1.9968-7.68-3.072-11.8272z m-251.8528 235.8272c-9.0624-0.0512-18.0736-0.1024-27.136 0.0512-3.3792 0.0512-5.4272-0.9216-6.7584-4.1984-7.936-19.456-19.8656-36.1984-35.2256-50.432-2.6624-2.4576-2.8672-4.4032-1.3824-7.6288 8.192-17.664 16.1792-35.4304 24.2176-53.1456 0.768-1.6896 1.6896-3.328 3.1744-6.3488 5.7344 12.5952 10.9056 23.7568 15.9744 34.9184 11.52 25.2928 22.9888 50.6368 34.4576 75.9808 3.7376 8.2432 1.9968 10.8032-7.3216 10.8032z" fill="#FF5C64" p-id="3574"></path><path d="M491.8272 391.7824h-10.6496c-4.2496 0-5.7856-1.1264-5.6832-5.5808 0.2048-17.2544 0-34.4576 0.1536-51.712 0.0512-3.9936-1.2288-5.5296-5.4272-5.4784-52.0704 0.1024-104.1408 0.1024-156.2112 0-4.7616 0-9.5744 2.1504-9.6256 8.8064-0.1024 15.2576 0 28.2624 0 45.6192 0 7.0144 5.3248 8.3968 9.728 8.3456 16.0256-0.1536 32.0512-0.0512 48.0768-0.0512h6.6048c-1.3824 3.9424-21.0432 47.6672-31.1296 70.2464-7.0144 15.7696-8.0384 18.9952-15.8208 17.0496-33.024-8.1408-64.9728-4.608-95.6416 9.8304-24.7296 11.6224-44.9024 29.7984-59.2896 51.5072 87.296-1.8432 168.448-28.5184 236.8-73.216 2.0992-4.6592 4.2496-9.3696 6.3488-14.0288 0.768-1.6896 1.6896-3.328 3.1744-6.3488 1.6896 3.6352 3.2768 7.1168 4.864 10.5984a449.08544 449.08544 0 0 0 73.728-65.5872z" fill="#FF716E" p-id="3575"></path></svg>