<svg class="icon" style="width: 1em;height: 1em;vertical-align: middle;fill: currentColor;overflow: hidden;" viewBox="0 0 1024 1024" version="1.1" xmlns="http://www.w3.org/2000/svg" p-id="6347"><path d="M511.8464 514.2016m-450.816 0a450.816 450.816 0 1 0 901.632 0 450.816 450.816 0 1 0-901.632 0Z" fill="#E3FFF3" p-id="6348"></path><path d="M399.5648 803.6352l-83.8144-98.3552c-0.9728-1.1264-2.048-2.2016-3.2256-3.1232L222.0544 630.272a23.38304 23.38304 0 0 1-2.816-33.9456l45.6704-50.7392a23.45984 23.45984 0 0 1 23.1936-7.0144l51.456 13.2096c7.8336 1.9968 16.128-0.1536 21.9648-5.7344l33.28-31.744c11.4688-10.9568 8.96-29.8496-4.9664-37.4272l-153.088-83.5072c-13.6192-7.424-16.384-25.8048-5.4784-36.9152l69.4784-70.8608a23.424 23.424 0 0 1 22.6816-6.2464l228.0448 60.5696c8.448 2.2528 17.4592-0.4608 23.3472-6.912 31.2832-34.4576 133.888-137.5232 199.0144-85.0432 68.9664 55.552-41.472 173.2608-75.2128 206.4896a23.28064 23.28064 0 0 0-6.3488 21.8112l53.8112 238.0288a23.3984 23.3984 0 0 1-7.6288 22.9376l-63.6928 54.2208c-11.0592 9.4208-28.0064 6.5536-35.328-5.9904l-88.2176-150.7328c-7.8848-13.5168-26.5728-15.5648-37.2736-4.1472l-34.4576 36.864a23.2704 23.2704 0 0 0-5.3248 22.6304l14.9504 50.2272c2.6624 8.9088-0.2048 18.5856-7.3216 24.576l-49.3568 41.5744a23.5008 23.5008 0 0 1-32.8704-2.816z" fill="#05C46D" p-id="6349"></path><path d="M748.288 398.6944c0.1536-5.2224 0.3072-10.3936 0.3072-15.6672 0-52.2752-8.9088-102.5024-25.2928-149.1968-58.7264 6.2464-124.5184 72.7552-148.4288 99.1232a23.3728 23.3728 0 0 1-23.3472 6.912L323.4304 279.3472c-8.1408-2.1504-16.7936 0.2048-22.6816 6.2464L231.2192 356.4544c-10.8544 11.0592-8.1408 29.4912 5.4784 36.9152l153.088 83.5072c13.9264 7.5776 16.384 26.5216 4.9664 37.4272l-33.2288 31.744a23.38816 23.38816 0 0 1-21.9648 5.7344l-51.456-13.2096c-8.448-2.1504-17.3568 0.5632-23.1936 7.0144l-45.6704 50.7392a23.38304 23.38304 0 0 0 2.816 33.9456l90.4192 71.8336c1.1776 0.9216 2.2528 1.9968 3.2256 3.1232l83.8144 98.3552a23.3984 23.3984 0 0 0 32.8704 2.7136l49.3568-41.5744a23.39328 23.39328 0 0 0 7.3216-24.576l-14.9504-50.2272a23.36256 23.36256 0 0 1 5.3248-22.6304l34.4576-36.864c10.7008-11.4176 29.3376-9.3184 37.2736 4.1472l48.5888 83.0464c47.616-43.008 86.016-96.0512 111.872-155.8016l-19.3536-85.7088c-1.792-7.8848 0.6144-16.128 6.3488-21.8112 11.264-10.9056 30.9248-31.2832 49.664-55.6032z" fill="#1DCE75" p-id="6350"></path><path d="M574.8736 333.0048a23.3728 23.3728 0 0 1-23.3472 6.912L323.4304 279.3472c-8.1408-2.1504-16.7936 0.2048-22.6816 6.2464L231.2192 356.4544c-10.8544 11.0592-8.1408 29.4912 5.4784 36.9152l153.088 83.5072c13.9264 7.5776 16.384 26.5216 4.9664 37.4272l-33.2288 31.744a23.38816 23.38816 0 0 1-21.9648 5.7344l-51.456-13.2096c-8.448-2.1504-17.3568 0.5632-23.1936 7.0144l-45.6704 50.7392a23.38304 23.38304 0 0 0 2.816 33.9456l43.1616 34.304c184.4224-37.7344 327.8336-188.1088 355.2256-376.064a522.8544 522.8544 0 0 0-45.568 44.4928z" fill="#3CD38E" p-id="6351"></path><path d="M323.4304 279.3472c-8.1408-2.1504-16.7936 0.2048-22.6816 6.2464L231.2192 356.4544c-10.8544 11.0592-8.1408 29.4912 5.4784 36.9152l78.1824 42.6496a453.56544 453.56544 0 0 0 123.648-126.0544l-115.0976-30.6176z" fill="#48E1AA" p-id="6352"></path></svg>