<svg class="icon" style="width: 1em;height: 1em;vertical-align: middle;fill: currentColor;overflow: hidden;" viewBox="0 0 1024 1024" version="1.1" xmlns="http://www.w3.org/2000/svg" p-id="1397"><path d="M511.0784 517.7856m-450.816 0a450.816 450.816 0 1 0 901.632 0 450.816 450.816 0 1 0-901.632 0Z" fill="#FFE3DB" p-id="1398"></path><path d="M831.6416 459.2128c-13.4144-119.3984-98.3552-187.904-98.3552-187.904-81.3056-78.9504-234.8032-116.9408-370.6368-42.3424-144.7424 79.5136-202.24 244.8384-175.4112 365.4656 26.7776 120.576 132.7616 235.1104 286.2592 258.2528 46.2848 6.0928 116.9408-14.6432 81.6128-81.6128-35.328-67.0208-8.5504-112.0768 92.5696-101.12 101.12 10.9568 197.376-91.3408 183.9616-210.7392zM310.272 528.9472c-30.2592 0-54.8352-24.5248-54.8352-54.8352 0-30.2592 24.5248-54.8352 54.8352-54.8352 30.2592 0 54.8352 24.5248 54.8352 54.8352 0 30.3104-24.576 54.8352-54.8352 54.8352z m109.6192-137.1136c-30.2592 0-54.8352-24.5248-54.8352-54.8352 0-30.2592 24.5248-54.8352 54.8352-54.8352 30.2592 0 54.8352 24.5248 54.8352 54.8352 0 30.3104-24.5248 54.8352-54.8352 54.8352z m173.4144-9.9328c-30.2592 0-54.8352-24.5248-54.8352-54.8352 0-30.2592 24.5248-54.8352 54.8352-54.8352 30.2592 0 54.8352 24.5248 54.8352 54.8352-0.0512 30.2592-24.576 54.8352-54.8352 54.8352z m109.6192 140.9024c-30.2592 0-54.8352-24.5248-54.8352-54.8352 0-30.2592 24.5248-54.8352 54.8352-54.8352 30.2592 0 54.8352 24.5248 54.8352 54.8352 0 30.2592-24.576 54.8352-54.8352 54.8352z" fill="#F23D4F" p-id="1399"></path><path d="M702.9248 522.8032c-30.2592 0-54.8352-24.5248-54.8352-54.8352 0-30.2592 24.5248-54.8352 54.8352-54.8352 14.4384 0 27.5456 5.632 37.3248 14.7968 1.5872-15.2576 2.3552-30.7712 2.3552-46.4384 0-39.8848-5.2224-78.4896-14.8992-115.3024-82.5856-75.4176-232.2432-110.1824-365.056-37.1712-144.7424 79.5136-202.24 244.8384-175.4112 365.4656 20.7872 93.44 89.1392 183.2448 190.2592 229.6832a448.62464 448.62464 0 0 0 169.472-70.9632c-20.8896-55.04 7.0144-90.7776 91.9552-84.0192a450.46272 450.46272 0 0 0 82.1248-149.504c-5.6832 1.9968-11.776 3.1232-18.1248 3.1232z m-392.6528 6.144c-30.2592 0-54.8352-24.5248-54.8352-54.8352 0-30.2592 24.5248-54.8352 54.8352-54.8352 30.2592 0 54.8352 24.5248 54.8352 54.8352 0 30.3104-24.576 54.8352-54.8352 54.8352z m109.6192-137.1136c-30.2592 0-54.8352-24.5248-54.8352-54.8352 0-30.2592 24.5248-54.8352 54.8352-54.8352s54.8352 24.5248 54.8352 54.8352c0 30.3104-24.5248 54.8352-54.8352 54.8352z m173.4144-9.9328c-30.2592 0-54.8352-24.5248-54.8352-54.8352s24.5248-54.8352 54.8352-54.8352 54.8352 24.5248 54.8352 54.8352-24.576 54.8352-54.8352 54.8352z" fill="#FC4956" p-id="1400"></path><path d="M589.9264 381.696c-28.7232-1.7408-51.456-25.4976-51.456-54.6304 0-30.2592 24.5248-54.8352 54.8352-54.8352 8.0896 0 15.7184 1.792 22.5792 4.9152 2.2528-18.2784 3.4304-36.864 3.4304-55.7568 0-5.632-0.1536-11.264-0.3584-16.8448-77.3632-24.832-170.3424-22.784-256.3072 24.4736-144.7424 79.5136-202.24 244.8384-175.4112 365.4656 5.6832 25.7024 15.0528 51.0976 27.648 75.4176 172.1856-17.664 315.6992-132.1984 375.04-288.2048zM310.272 528.9472c-30.2592 0-54.8352-24.5248-54.8352-54.8352 0-30.2592 24.5248-54.8352 54.8352-54.8352 30.2592 0 54.8352 24.5248 54.8352 54.8352 0 30.3104-24.576 54.8352-54.8352 54.8352z m109.6192-137.1136c-30.2592 0-54.8352-24.5248-54.8352-54.8352 0-30.2592 24.5248-54.8352 54.8352-54.8352s54.8352 24.5248 54.8352 54.8352c0 30.3104-24.5248 54.8352-54.8352 54.8352z" fill="#FF5C64" p-id="1401"></path><path d="M362.6496 229.0176c-107.264 58.9312-166.5536 165.0176-179.2 265.1136 25.2416-7.4752 49.5616-17.1008 72.7552-28.672 4.1984-26.112 26.7776-46.08 54.0672-46.08 5.6832 0 11.1616 0.8704 16.2816 2.4576 18.9952-14.3872 36.864-30.208 53.3504-47.36-9.1648-9.7792-14.848-22.9376-14.848-37.4272 0-30.2592 24.5248-54.8352 54.8352-54.8352 9.0624 0 17.5616 2.2528 25.088 6.0928a450.93376 450.93376 0 0 0 42.3424-97.9456c-41.5232 4.0448-83.9168 16.2304-124.672 38.656z" fill="#FF716E" p-id="1402"></path></svg>