<svg class="icon" style="width: 1em;height: 1em;vertical-align: middle;fill: currentColor;overflow: hidden;" viewBox="0 0 1024 1024" version="1.1" xmlns="http://www.w3.org/2000/svg" p-id="1649"><path d="M512.5632 517.2736m-450.816 0a450.816 450.816 0 1 0 901.632 0 450.816 450.816 0 1 0-901.632 0Z" fill="#FFF1DC" p-id="1650"></path><path d="M705.8432 225.28h-386.56c-33.024 0-59.8016 25.6-59.8016 57.2416v469.5552c0 31.5904 26.7776 57.2416 59.8016 57.2416h386.6112c33.024 0 59.8016-25.6 59.8016-57.2416V282.4704C765.6448 250.88 738.8672 225.28 705.8432 225.28z m-268.6976 479.1808H348.8768v-84.48h88.2688v84.48z m0-144.9472H348.8768v-84.48h88.2688v84.48z m0-144.9472H348.8768v-84.48h88.2688v84.48z m243.5584 265.2672H500.8384v-35.2768h179.8656v35.2768z m0-144.896H500.8384v-35.2768h179.8656v35.2768z m0-144.9472H500.8384v-35.2768h179.8656v35.2768z" fill="#FC7032" p-id="1651"></path><path d="M730.1632 230.2464c-7.424-3.1744-15.616-4.9664-24.2688-4.9664H319.2832c-33.024 0-59.8016 25.6-59.8016 57.2416v469.5552c0 31.5904 26.7776 57.2416 59.8016 57.2416h21.9648c107.1104-10.0864 203.3664-57.6 275.4048-129.4336H500.8384v-35.2768h147.6608c62.976-77.5168 100.7616-176.384 100.7616-284.0576 0-45.3632-6.7072-89.088-19.0976-130.304z m-293.0176 474.2144H348.8768v-84.48h88.2688v84.48z m0-144.9472H348.8768v-84.48h88.2688v84.48z m0-144.9472H348.8768v-84.48h88.2688v84.48z m243.5584 120.3712H500.8384v-35.2768h179.8656v35.2768z m0-144.9472H500.8384v-35.2768h179.8656v35.2768z" fill="#FF7E3E" p-id="1652"></path><path d="M259.4816 282.4704v360.8064c94.0544-17.8176 177.7664-64.768 241.3568-131.2256v-12.4416h11.4688a451.3792 451.3792 0 0 0 71.936-109.6192H500.8384v-35.2768h97.9968c14.848-40.704 23.9616-84.1728 26.4192-129.4336H319.2832c-33.024 0-59.8016 25.6-59.8016 57.1904z m89.3952 47.616h88.2688v84.48H348.8768v-84.48z m0 144.9472h88.2688v84.48H348.8768v-84.48z" fill="#FF9552" p-id="1653"></path><path d="M259.4816 282.4704v163.584a454.28224 454.28224 0 0 0 89.3952-57.6512V330.0864H407.552c26.4192-31.5392 48.64-66.816 65.6896-104.8064H319.2832c-33.024 0-59.8016 25.6-59.8016 57.1904z" fill="#FFA56A" p-id="1654"></path></svg>