<svg class="icon" style="width: 1em;height: 1em;vertical-align: middle;fill: currentColor;overflow: hidden;" viewBox="0 0 1024 1024" version="1.1" xmlns="http://www.w3.org/2000/svg" p-id="2350"><path d="M509.9008 519.8336m-450.816 0a450.816 450.816 0 1 0 901.632 0 450.816 450.816 0 1 0-901.632 0Z" fill="#FFE1E9" p-id="2351"></path><path d="M508.1088 727.6544m-124.0064 0a124.0064 124.0064 0 1 0 248.0128 0 124.0064 124.0064 0 1 0-248.0128 0Z" fill="#FF3369" p-id="2352"></path><path d="M832.0512 408.1664c-39.9872-93.0304-144.1792-218.2656-321.2288-218.2656-99.84 0-230.7072 44.032-305.1008 175.5136-74.3936 131.4816-33.4848 244.3264 42.1888 274.0736 75.6736 29.7472 138.2912-18.5856 164.9664-40.9088 26.6752-22.3232 53.3504-32.256 97.9968-32.256s69.632 13.4656 94.2592 30.72c24.6272 17.2032 46.4896 54.4256 136.7552 44.6464 92.8256-10.0864 130.1504-140.4928 90.1632-233.5232z m-463.872-46.8992c-0.9216 0.6656-52.1216 38.4-67.6864 105.1648a30.07488 30.07488 0 0 1-36.1472 22.4768c-16.1792-3.7888-26.2656-19.968-22.4768-36.1472 20.9408-89.9584 88.6272-138.5984 91.4944-140.5952a30.1056 30.1056 0 0 1 34.816 49.1008z" fill="#FF3369" p-id="2353"></path><path d="M205.7216 365.4144c-74.3936 131.4816-33.4848 244.3264 42.1888 274.0736 75.6736 29.7472 138.2912-18.5856 164.9664-40.9088 26.6752-22.3232 53.3504-32.256 97.9968-32.256s69.632 13.4656 94.2592 30.72c15.872 11.0592 30.5664 30.4128 63.0784 40.192 45.2608-67.5328 71.68-148.736 71.68-236.0832 0-50.176-8.7552-98.2528-24.7296-142.9504-52.224-39.8336-119.9616-68.2496-204.288-68.2496-99.8912-0.0512-230.7584 43.9808-305.152 175.4624z m162.4576-4.1472c-0.9216 0.6656-52.1216 38.4-67.6864 105.1648a30.07488 30.07488 0 0 1-36.1472 22.4768c-16.1792-3.7888-26.2656-19.968-22.4768-36.1472 20.9408-89.9584 88.6272-138.5984 91.4944-140.5952a30.1056 30.1056 0 0 1 34.816 49.1008z" fill="#FF4D7C" p-id="2354"></path><path d="M626.2784 690.0224c-15.9232-50.1248-62.8224-86.4256-118.2208-86.4256-68.5056 0-124.0064 55.552-124.0064 124.0064 0 33.1776 13.056 63.2832 34.2528 85.504 81.1008-20.224 152.8832-63.744 207.9744-123.0848z" fill="#FF4D7C" p-id="2355"></path><path d="M205.7216 365.4144c-74.3936 131.4816-33.4848 244.3264 42.1888 274.0736 75.6736 29.7472 138.2912-18.5856 164.9664-40.9088 19.968-16.7424 39.936-26.4704 67.5328-30.3104 87.8592-77.824 143.2576-191.3856 143.2576-318.0032 0-14.2848-0.7168-28.3648-2.0992-42.2912-33.1264-11.3664-69.9392-18.0224-110.6944-18.0224-99.8912-0.0512-230.7584 43.9808-305.152 175.4624z m162.4576-4.1472c-0.9216 0.6656-52.1216 38.4-67.6864 105.1648a30.07488 30.07488 0 0 1-36.1472 22.4768c-16.1792-3.7888-26.2656-19.968-22.4768-36.1472 20.9408-89.9584 88.6272-138.5984 91.4944-140.5952a30.1056 30.1056 0 0 1 34.816 49.1008z" fill="#FF5F89" p-id="2356"></path><path d="M368.1792 361.2672c-0.9216 0.6656-52.1216 38.4-67.6864 105.1648-0.3584 1.536-0.8704 2.9696-1.4336 4.352C403.7632 412.2112 481.0752 310.6304 507.136 189.952c-99.3792 1.0752-227.8912 45.568-301.4144 175.4624-31.6416 55.8592-42.3424 108.3392-38.5024 152.5248a422.41024 422.41024 0 0 0 96.1024-29.2864 30.08 30.08 0 0 1-21.4528-35.84c20.9408-89.9584 88.6272-138.5984 91.4944-140.5952a30.1056 30.1056 0 0 1 41.9328 7.2192 30.01856 30.01856 0 0 1-7.1168 41.8304z" fill="#FF7196" p-id="2357"></path></svg>