<svg class="icon" style="width: 1em;height: 1em;vertical-align: middle;fill: currentColor;overflow: hidden;" viewBox="0 0 1024 1024" version="1.1" xmlns="http://www.w3.org/2000/svg" p-id="4202"><path d="M507.8528 509.5936m-450.816 0a450.816 450.816 0 1 0 901.632 0 450.816 450.816 0 1 0-901.632 0Z" fill="#FFF1DC" p-id="4203"></path><path d="M333.4144 774.4512h350.6688V313.344h-64.1536v-3.1744c0-61.7984-50.2784-112.0768-112.0768-112.0768S395.776 248.3712 395.776 310.1696v3.1744H333.4144v461.1072z m119.552-464.2816c0-30.2592 24.6272-54.8864 54.8864-54.8864 30.2592 0 54.8864 24.6272 54.8864 54.8864v3.1744H452.9664v-3.1744z" fill="#FF8E12" p-id="4204"></path><path d="M276.224 313.344h-8.3968c-33.6384 0-60.928 27.2896-60.928 60.928v339.2512c0 33.6384 27.2896 60.928 60.928 60.928h8.3968V313.344z" fill="#FCA315" p-id="4205"></path><path d="M747.8272 313.344h-6.6048v461.056h6.6048c33.6384 0 60.928-27.2896 60.928-60.928V374.272c0-33.6384-27.2896-60.928-60.928-60.928z" fill="#FF8E12" p-id="4206"></path><path d="M684.032 313.344h-64.1536v-3.1744c0-61.7984-50.2784-112.0768-112.0768-112.0768s-112.0768 50.2784-112.0768 112.0768v3.1744H333.4144v461.056h140.544c81.152-21.0432 153.4464-64.1536 210.0736-122.5216V313.344z m-121.344 0H452.9664v-3.1744c0-30.2592 24.6272-54.8864 54.8864-54.8864 30.2592 0 54.8864 24.6272 54.8864 54.8864v3.1744zM808.7552 386.2528V374.272c0-33.6384-27.2896-60.928-60.928-60.928h-6.6048v266.1376a447.94368 447.94368 0 0 0 67.5328-193.2288z" fill="#FCA315" p-id="4207"></path><path d="M667.2896 313.344h-47.4112v-3.1744c0-61.7984-50.2784-112.0768-112.0768-112.0768s-112.0768 50.2784-112.0768 112.0768v3.1744H333.4144v305.0496c158.4128-34.4576 285.7984-152.1664 333.8752-305.0496z m-214.3232-3.1744c0-30.2592 24.6272-54.8864 54.8864-54.8864 30.2592 0 54.8864 24.6272 54.8864 54.8864v3.1744H452.9664v-3.1744zM206.8992 374.272v253.44c10.0352 0.6656 20.1216 1.024 30.2592 1.024 13.1584 0 26.1632-0.6144 39.0144-1.6896V313.344H267.776c-33.5872 0-60.8768 27.2896-60.8768 60.928z" fill="#FCB138" p-id="4208"></path><path d="M206.8992 374.272v87.2448c23.808-4.4544 46.9504-10.752 69.3248-18.7904V313.344h-8.3968c-33.6384 0-60.928 27.2896-60.928 60.928zM464.7424 313.344h-11.776v-3.1744c0-30.1056 24.3712-54.5792 54.3744-54.8352 10.6496-17.152 20.1216-35.072 28.416-53.7088-8.9088-2.304-18.2784-3.5328-27.9552-3.5328-61.7984 0-112.0768 50.2784-112.0768 112.0768v3.1744H333.4144v104.2432A453.8368 453.8368 0 0 0 464.7424 313.344z" fill="#FFC65E" p-id="4209"></path></svg>