<svg class="icon" style="width: 1em;height: 1em;vertical-align: middle;fill: currentColor;overflow: hidden;" viewBox="0 0 1024 1024" version="1.1" xmlns="http://www.w3.org/2000/svg" p-id="3677"><path d="M510.5152 508.0064m-450.816 0a450.816 450.816 0 1 0 901.632 0 450.816 450.816 0 1 0-901.632 0Z" fill="#E9ECFF" p-id="3678"></path><path d="M723.456 244.48H297.6256c-47.616 0-86.2208 38.6048-86.2208 86.2208v354.6112c0 47.616 38.6048 86.2208 86.2208 86.2208h425.8304c47.616 0 86.2208-38.6048 86.2208-86.2208V330.7008c0-47.616-38.6048-86.2208-86.2208-86.2208z m-326.9632 417.6384c0 14.0288-11.3664 25.3952-25.3952 25.3952s-25.3952-11.3664-25.3952-25.3952v-78.1312c0-14.0288 11.3664-25.3952 25.3952-25.3952s25.3952 11.3664 25.3952 25.3952v78.1312z m94.0544 0c0 14.0288-11.3664 25.3952-25.3952 25.3952s-25.3952-11.3664-25.3952-25.3952V511.0272c0-14.0288 11.3664-25.3952 25.3952-25.3952s25.3952 11.3664 25.3952 25.3952v151.0912z m94.0032 0a25.3952 25.3952 0 0 1-25.3952 25.3952 25.3952 25.3952 0 0 1-25.3952-25.3952v-116.48a25.3952 25.3952 0 0 1 25.3952-25.3952 25.3952 25.3952 0 0 1 25.3952 25.3952v116.48z m94.0544 0a25.3952 25.3952 0 0 1-25.3952 25.3952 25.3952 25.3952 0 0 1-25.3952-25.3952V480.6144a25.3952 25.3952 0 0 1 25.3952-25.3952 25.3952 25.3952 0 0 1 25.3952 25.3952v181.504z m-3.1744-277.8112l-92.6208 80.0256a25.50784 25.50784 0 0 1-31.9488 1.0752L468.3776 403.0976l-85.9648 76.8c-4.864 4.352-10.9056 6.5024-16.9472 6.5024-6.9632 0-13.9264-2.8672-18.944-8.4992-9.3696-10.4448-8.448-26.5216 1.9968-35.8912L450.048 351.2832a25.41568 25.41568 0 0 1 32.256-1.3312l82.7904 62.464 77.1072-66.56a25.43616 25.43616 0 0 1 35.84 2.6112 25.43616 25.43616 0 0 1-2.6112 35.84z" fill="#6C6CEA" p-id="3679"></path><path d="M297.6256 244.48c-47.616 0-86.2208 38.6048-86.2208 86.2208v354.6112c0 47.616 38.6048 86.2208 86.2208 86.2208H442.88a449.664 449.664 0 0 0 186.3168-101.3248c-0.8704-2.56-1.4336-5.2224-1.4336-8.0896V480.6144c0-14.0288 11.3664-25.3952 25.3952-25.3952s25.3952 11.3664 25.3952 25.3952v137.1648c61.952-77.2096 99.0208-175.2064 99.0208-281.9072 0-26.2656-2.2528-51.968-6.6048-77.0048a85.84192 85.84192 0 0 0-47.616-14.3872H297.6256z m98.8672 417.6384c0 14.0288-11.3664 25.3952-25.3952 25.3952s-25.3952-11.3664-25.3952-25.3952v-78.1312c0-14.0288 11.3664-25.3952 25.3952-25.3952s25.3952 11.3664 25.3952 25.3952v78.1312z m94.0544 0c0 14.0288-11.3664 25.3952-25.3952 25.3952s-25.3952-11.3664-25.3952-25.3952V511.0272c0-14.0288 11.3664-25.3952 25.3952-25.3952s25.3952 11.3664 25.3952 25.3952v151.0912z m94.0032 0a25.3952 25.3952 0 0 1-25.3952 25.3952 25.3952 25.3952 0 0 1-25.3952-25.3952v-116.48a25.3952 25.3952 0 0 1 25.3952-25.3952 25.3952 25.3952 0 0 1 25.3952 25.3952v116.48z m90.88-277.8112l-92.6208 80.0256a25.50784 25.50784 0 0 1-31.9488 1.0752L468.3776 403.0976l-85.9648 76.8c-4.864 4.352-10.9056 6.5024-16.9472 6.5024-6.9632 0-13.9264-2.8672-18.944-8.4992-9.3696-10.4448-8.448-26.5216 1.9968-35.8912L450.048 351.2832a25.41568 25.41568 0 0 1 32.256-1.3312l82.7904 62.464 77.1072-66.56a25.43616 25.43616 0 0 1 35.84 2.6112 25.43616 25.43616 0 0 1-2.6112 35.84z" fill="#757BF2" p-id="3680"></path><path d="M211.3536 330.7008v295.7824c46.848-0.8192 91.9552-8.7552 134.2976-22.784v-19.6608a25.3952 25.3952 0 0 1 25.3952-25.3952c13.7728 0 24.9344 11.008 25.344 24.6784 14.8992-7.0656 29.3376-14.8992 43.264-23.5008v-48.7424c0-14.0288 11.3664-25.3952 25.3952-25.3952s25.3952 11.3664 25.3952 25.3952v12.3904c21.504-17.7664 41.3184-37.4784 59.1872-58.9312l-81.2544-61.44-85.9648 76.8c-4.864 4.352-10.9056 6.5024-16.9472 6.5024-6.9632 0-13.9264-2.8672-18.944-8.4992-9.3696-10.4448-8.448-26.5216 1.9968-35.8912L450.048 351.2832a25.41568 25.41568 0 0 1 32.256-1.3312l82.7904 62.464 42.5472-36.7616a448.6656 448.6656 0 0 0 41.472-131.1744H297.6256c-47.616 0-86.272 38.6048-86.272 86.2208z" fill="#8486F8" p-id="3681"></path><path d="M211.3536 330.7008v119.808c113.5616-31.6416 209.0496-106.6496 267.5712-206.0288H297.6256c-47.616 0-86.272 38.6048-86.272 86.2208z" fill="#8D92F8" p-id="3682"></path></svg>