<svg class="icon" style="width: 1em;height: 1em;vertical-align: middle;fill: currentColor;overflow: hidden;" viewBox="0 0 1024 1024" version="1.1" xmlns="http://www.w3.org/2000/svg" p-id="5086"><path d="M511.744 509.5936m-450.816 0a450.816 450.816 0 1 0 901.632 0 450.816 450.816 0 1 0-901.632 0Z" fill="#E9F4FF" p-id="5087"></path><path d="M630.8864 224H320.8192c-42.24 0-76.4928 34.2528-76.4928 76.4928v405.1968c0 42.24 34.2528 76.4928 76.4928 76.4928h165.12a192.75264 192.75264 0 0 1-42.1888-120.576c0-106.9056 86.6304-193.536 193.536-193.536 24.7296 0 48.384 4.7104 70.0928 13.1584v-180.736c0.0512-42.24-34.2016-76.4928-76.4928-76.4928z m-175.9232 293.888H350.9248c-17.3568 0-31.4368-14.08-31.4368-31.4368 0-17.3568 14.08-31.4368 31.4368-31.4368h104.0384c17.3568 0 31.4368 14.08 31.4368 31.4368 0 17.408-14.08 31.4368-31.4368 31.4368z m150.4256-124.928h-254.464c-17.3568 0-31.4368-14.08-31.4368-31.4368 0-17.3568 14.08-31.4368 31.4368-31.4368h254.464c17.3568 0 31.4368 14.08 31.4368 31.4368 0 17.3568-14.08 31.4368-31.4368 31.4368z" fill="#3A9CED" p-id="5088"></path><path d="M637.2864 517.888c-79.3088 0-143.8208 64.512-143.8208 143.8208s64.512 143.8208 143.8208 143.8208 143.8208-64.512 143.8208-143.8208-64.512-143.8208-143.8208-143.8208z m60.416 175.2064h-29.3376v29.3376c0 17.3568-14.08 31.4368-31.4368 31.4368-17.3568 0-31.4368-14.08-31.4368-31.4368v-29.3376h-29.3376c-17.3568 0-31.4368-14.08-31.4368-31.4368s14.08-31.4368 31.4368-31.4368h29.3376v-29.3376c0-17.3568 14.08-31.4368 31.4368-31.4368 17.3568 0 31.4368 14.08 31.4368 31.4368v29.3376h29.3376c17.3568 0 31.4368 14.08 31.4368 31.4368s-14.08 31.4368-31.4368 31.4368z" fill="#1B95E0" p-id="5089"></path><path d="M493.4656 661.6576c0 39.8336 16.2816 75.9296 42.5472 101.9904 24.9344-15.9744 48.2304-34.3552 69.4784-54.784v-15.7696h-29.3376c-17.3568 0-31.4368-14.08-31.4368-31.4368s14.08-31.4368 31.4368-31.4368h29.3376v-29.3376c0-17.3568 14.08-31.4368 31.4368-31.4368 17.3568 0 31.4368 14.08 31.4368 31.4368v29.3376h2.3552c18.1248-27.6992 33.28-57.5488 45.0048-89.0368a142.976 142.976 0 0 0-78.4384-23.3472c-79.3088 0.0512-143.8208 64.5632-143.8208 143.8208z" fill="#3A9CED" p-id="5090"></path><path d="M350.9248 392.96c-17.3568 0-31.4368-14.08-31.4368-31.4368 0-17.3568 14.08-31.4368 31.4368-31.4368h254.464c0.8704 0 1.7408 0.0512 2.6112 0.1536 8.2432-34.0992 12.6976-69.632 12.6976-106.24H320.8192c-42.24 0-76.4928 34.2528-76.4928 76.4928v367.872c88.7296-14.7456 168.7552-55.3984 231.936-113.9712a194.2528 194.2528 0 0 1 43.52-46.3872 449.408 449.408 0 0 0 68.0448-114.9952H350.9248z m104.0384 124.928H350.9248c-17.3568 0-31.4368-14.08-31.4368-31.4368 0-17.3568 14.08-31.4368 31.4368-31.4368h104.0384c17.3568 0 31.4368 14.08 31.4368 31.4368 0 17.408-14.08 31.4368-31.4368 31.4368z" fill="#59ADF8" p-id="5091"></path><path d="M319.488 361.5232c0-17.3568 14.08-31.4368 31.4368-31.4368h69.5808a447.80544 447.80544 0 0 0 57.6-106.1376H320.8192c-42.24 0-76.4928 34.2528-76.4928 76.4928v173.568c44.5952-20.48 85.248-47.9744 120.5248-81.1008h-13.9264a31.36512 31.36512 0 0 1-31.4368-31.3856z" fill="#6BC2FC" p-id="5092"></path></svg>