<svg class="icon" style="width: 1em;height: 1em;vertical-align: middle;fill: currentColor;overflow: hidden;" viewBox="0 0 1024 1024" version="1.1" xmlns="http://www.w3.org/2000/svg" p-id="4730"><path d="M509.184 513.1264m-450.816 0a450.816 450.816 0 1 0 901.632 0 450.816 450.816 0 1 0-901.632 0Z" fill="#FFE1E9" p-id="4731"></path><path d="M778.8544 311.808h-67.3792v-40.9088a36.2496 36.2496 0 0 0-36.2496-36.2496H280.2176a36.2496 36.2496 0 0 0-36.2496 36.2496v153.3952a36.2496 36.2496 0 0 0 36.2496 36.2496h395.008a36.2496 36.2496 0 0 0 36.2496-36.2496V369.2544h38.656v133.2736h-285.696c-15.872 0-28.7232 12.8512-28.7232 28.7232v111.7696h-22.1696c-12.032 0-21.76 9.728-21.76 21.76v153.1392c0 12.032 9.728 21.76 21.76 21.76h101.632c12.032 0 21.76-9.728 21.76-21.76v-153.1392c0-12.032-9.728-21.76-21.76-21.76h-22.0672v-83.0976h285.696c15.872 0 28.7232-12.8512 28.7232-28.7232V340.5312c0.0512-15.872-12.8-28.7232-28.672-28.7232z m-158.208 112.64H334.7968c-13.568 0-24.6272-11.008-24.6272-24.6272s11.008-24.6272 24.6272-24.6272h285.8496c13.568 0 24.6272 11.008 24.6272 24.6272s-11.008 24.6272-24.6272 24.6272z" fill="#FF3369" p-id="4732"></path><path d="M778.8544 311.808h-67.3792v-40.9088a36.2496 36.2496 0 0 0-36.2496-36.2496H280.2176a36.2496 36.2496 0 0 0-36.2496 36.2496v153.3952a36.2496 36.2496 0 0 0 36.2496 36.2496h395.008a36.2496 36.2496 0 0 0 36.2496-36.2496V369.2544h38.656v133.2736h-285.696c-15.872 0-28.7232 12.8512-28.7232 28.7232v111.7696h-22.1696c-12.032 0-21.76 9.728-21.76 21.76v153.1392c0 12.032 9.728 21.76 21.76 21.76h101.632c12.032 0 21.76-9.728 21.76-21.76v-153.1392c0-12.032-9.728-21.76-21.76-21.76h-22.0672v-83.0976h285.696c15.872 0 28.7232-12.8512 28.7232-28.7232V340.5312c0.0512-15.872-12.8-28.7232-28.672-28.7232z m-158.208 112.64H334.7968c-13.568 0-24.6272-11.008-24.6272-24.6272s11.008-24.6272 24.6272-24.6272h285.8496c13.568 0 24.6272 11.008 24.6272 24.6272s-11.008 24.6272-24.6272 24.6272z" fill="#FF3369" p-id="4733"></path><path d="M676.4544 559.9744c10.5472-18.3296 19.8144-37.5296 27.648-57.4464H464.4352c-15.872 0-28.7232 12.8512-28.7232 28.7232v111.7696h-22.1696c-12.032 0-21.76 9.728-21.76 21.76v103.0656a430.92992 430.92992 0 0 0 145.1008-60.5184v-42.5472c0-12.032-9.728-21.76-21.76-21.76H493.056v-83.0976h183.3984zM711.4752 270.8992a36.2496 36.2496 0 0 0-36.2496-36.2496H280.2176a36.2496 36.2496 0 0 0-36.2496 36.2496v153.4464a36.2496 36.2496 0 0 0 36.2496 36.2496h395.008a36.2496 36.2496 0 0 0 36.2496-36.2496V369.2544h21.8624c0.512-8.448 0.768-16.896 0.768-25.4976 0-10.752-0.4096-21.4016-1.1776-31.9488h-21.4528v-40.9088zM620.6464 424.448H334.7968c-13.568 0-24.6272-11.008-24.6272-24.6272 0-13.568 11.008-24.6272 24.6272-24.6272h285.8496c13.568 0 24.6272 11.008 24.6272 24.6272 0 13.6192-11.008 24.6272-24.6272 24.6272z" fill="#FF4D7C" p-id="4734"></path><path d="M280.2176 460.544h240.2304a429.9264 429.9264 0 0 0 26.0096-36.096H334.7968c-13.568 0-24.6272-11.008-24.6272-24.6272 0-13.568 11.008-24.6272 24.6272-24.6272h239.0528a429.95712 429.95712 0 0 0 39.2704-140.544H280.2176a36.2496 36.2496 0 0 0-36.2496 36.2496v153.4464c0 20.0192 16.2304 36.1984 36.2496 36.1984zM464.4352 502.528c-15.872 0-28.7232 12.8512-28.7232 28.7232v10.0352c16.384-11.8272 31.8976-24.7808 46.3872-38.7584h-17.664z" fill="#FF5F89" p-id="4735"></path><path d="M334.7968 375.2448h8.2944c47.616-38.0416 87.04-85.9136 115.2-140.544H280.2176a36.2496 36.2496 0 0 0-36.2496 36.2496v153.4464c0 3.4304 0.512 6.7072 1.3824 9.8304 22.7328-9.8816 44.3904-21.6576 64.9216-35.072 0.4096-13.312 11.2128-23.9104 24.5248-23.9104z" fill="#FF7196" p-id="4736"></path></svg>