<svg class="icon" style="width: 1em;height: 1em;vertical-align: middle;fill: currentColor;overflow: hidden;" viewBox="0 0 1024 1024" version="1.1" xmlns="http://www.w3.org/2000/svg" p-id="3771"><path d="M506.2656 513.1264m-450.816 0a450.816 450.816 0 1 0 901.632 0 450.816 450.816 0 1 0-901.632 0Z" fill="#FBE1FF" p-id="3772"></path><path d="M506.2656 530.7904c42.0352 0 76.2368-34.2016 76.2368-76.2368s-34.2016-76.2368-76.2368-76.2368-76.2368 34.2016-76.2368 76.2368 34.2016 76.2368 76.2368 76.2368z" fill="#BD50D3" p-id="3773"></path><path d="M708.608 761.088l-91.0336-66.7648c90.368-42.0352 153.0368-133.5808 153.0368-239.7696 0-146.0224-118.3744-264.3456-264.3456-264.3456-146.0224 0-264.3456 118.3744-264.3456 264.3456 0 107.6224 64.3072 200.1408 156.5696 241.3568l-87.3984 65.28c-14.08 10.5472-6.656 32.9728 10.9568 32.9728h375.7568c17.664 0 25.088-22.5792 10.8032-33.0752zM506.2656 313.856c77.568 0 140.6976 63.1296 140.6976 140.6976s-63.1296 140.6976-140.6976 140.6976S365.568 532.1216 365.568 454.5536 428.6976 313.856 506.2656 313.856z" fill="#BD50D3" p-id="3774"></path><path d="M705.2288 398.7456c0-51.3024-9.8304-100.3008-27.5456-145.3056-46.1824-39.3728-105.984-63.232-171.4176-63.232-146.0224 0-264.3456 118.3744-264.3456 264.3456 0 107.6224 64.3072 200.1408 156.5696 241.3568l-87.3984 65.28c-14.08 10.5472-6.656 32.9728 10.9568 32.9728h24.1664c201.472-19.2512 359.0144-188.928 359.0144-395.4176zM365.568 454.5536c0-77.568 63.1296-140.6976 140.6976-140.6976s140.6976 63.1296 140.6976 140.6976-63.1296 140.6976-140.6976 140.6976S365.568 532.1216 365.568 454.5536z" fill="#C65EDB" p-id="3775"></path><path d="M566.8352 408.4736c-13.9264-18.2784-35.8912-30.1568-60.5696-30.1568-42.0352 0-76.2368 34.2016-76.2368 76.2368 0 36.2496 25.4464 66.6112 59.4432 74.2912a397.42976 397.42976 0 0 0 77.3632-120.3712z" fill="#CA6EE0" p-id="3776"></path><path d="M365.568 454.5536c0-77.568 63.1296-140.6976 140.6976-140.6976 30.464 0 58.624 9.728 81.664 26.2656 5.632-26.624 8.6528-54.2208 8.6528-82.4832 0-17.92-1.28-35.5328-3.584-52.8384-27.1872-9.4208-56.32-14.6432-86.6816-14.6432-146.0224 0-264.3456 118.3744-264.3456 264.3456 0 71.0656 28.0576 135.5264 73.728 183.04a395.58144 395.58144 0 0 0 120.6784-61.0816c-42.3424-24.2688-70.8096-69.8368-70.8096-121.9072z" fill="#CA6EE0" p-id="3777"></path><path d="M430.8992 335.872a394.496 394.496 0 0 0 58.7776-145.1008c-138.2912 8.5504-247.808 123.3408-247.808 263.7824 0 11.008 0.7168 21.8624 1.9968 32.512 49.5104-19.3536 94.208-48.384 131.7376-84.736 11.0592-27.4944 30.5664-50.7392 55.296-66.4576z" fill="#D786EA" p-id="3778"></path></svg>