<svg class="icon" style="width: 1em;height: 1em;vertical-align: middle;fill: currentColor;overflow: hidden;" viewBox="0 0 1024 1024" version="1.1" xmlns="http://www.w3.org/2000/svg" p-id="3190"><path d="M508.416 513.1264m-450.816 0a450.816 450.816 0 1 0 901.632 0 450.816 450.816 0 1 0-901.632 0Z" fill="#FBE1FF" p-id="3191"></path><path d="M508.416 188.7744c-178.944 0-324.0448 145.1008-324.0448 324.0448s145.1008 324.0448 324.0448 324.0448 324.0448-145.1008 324.0448-324.0448-145.0496-324.0448-324.0448-324.0448z m141.5168 345.2928l-198.7072 114.7392c-16.3328 9.4208-36.8128-2.3552-36.8128-21.248V398.08c0-18.8928 20.4288-30.72 36.8128-21.248l198.7072 114.7392c16.384 9.4208 16.384 33.0752 0 42.496z" fill="#BD50D3" p-id="3192"></path><path d="M812.2368 399.9232c-45.824-123.2896-164.5568-211.1488-303.8208-211.1488-178.944 0-324.0448 145.1008-324.0448 324.0448 0 105.8304 50.7392 199.8336 129.2288 258.9696 19.0464 2.4576 38.4512 3.7888 58.2144 3.7888 222.3616-0.0512 406.6816-162.7648 440.4224-375.6544z m-162.2528 134.144l-198.7072 114.7392c-16.384 9.4208-36.8128-2.3552-36.8128-21.248V398.08c0-18.8928 20.4288-30.6688 36.8128-21.248l198.7072 114.7392c16.3328 9.4208 16.3328 33.0752 0 42.496z" fill="#C65EDB" p-id="3193"></path><path d="M508.416 188.7744c-178.944 0-324.0448 145.1008-324.0448 324.0448 0 35.5328 5.7856 69.6832 16.384 101.632 16.128 1.792 32.512 2.7136 49.1008 2.7136 58.112 0 113.664-11.1104 164.5568-31.3856V398.08c0-18.8928 20.4288-30.6688 36.8128-21.248l140.2368 80.9984c50.2272-59.8528 85.0432-133.0688 98.304-213.5552-51.712-35.0208-114.1248-55.5008-181.3504-55.5008z" fill="#CA6EE0" p-id="3194"></path><path d="M189.3888 456.3456c160.6656-18.5344 295.2704-122.4704 357.376-265.2672a326.7584 326.7584 0 0 0-38.3488-2.3552c-159.6928 0.0512-292.3008 115.6096-319.0272 267.6224z" fill="#D786EA" p-id="3195"></path></svg>