<svg class="icon" style="width: 1em;height: 1em;vertical-align: middle;fill: currentColor;overflow: hidden;" viewBox="0 0 1024 1024" version="1.1" xmlns="http://www.w3.org/2000/svg" p-id="3647"><path d="M508.416 509.5936m-450.816 0a450.816 450.816 0 1 0 901.632 0 450.816 450.816 0 1 0-901.632 0Z" fill="#E9ECFF" p-id="3648"></path><path d="M703.9488 235.4176c-65.4848-0.0512-130.9696 0-196.4544 0-65.792 0-131.6352-0.0512-197.4272 0-48.6912 0.0512-79.2576 30.5152-79.3088 79.104-0.0512 131.6352-0.0512 263.2192 0 394.8544 0 49.2032 30.464 79.5136 79.8208 79.5136 131.2768 0.0512 262.6048 0.0512 393.8816 0 49.3056 0 79.7696-30.3616 79.7696-79.5648 0.0512-131.2768 0.0512-262.6048 0-393.8816 0-49.8688-30.3104-80.0256-80.2816-80.0256zM453.2224 682.496c-10.5984 10.7008-27.2384 10.0352-39.5264-1.5872-4.864-4.608-9.5232-9.5744-13.9776-14.3872-1.024-1.0752-2.048-2.2016-3.1232-3.328l-4.1984 4.1984c-5.12 5.12-9.9328 9.984-15.0016 14.5408-6.0928 5.4784-12.7488 8.2432-19.4048 8.2432-4.608 0-9.2672-1.3312-13.7728-3.9424-10.6496-6.1952-15.4624-17.408-12.4928-29.2864 1.4848-5.888 5.5808-11.1616 8.5504-14.592 4.096-4.8128 8.6016-9.3184 12.9536-13.7216 1.28-1.28 2.56-2.6112 3.84-3.9424-1.4336-1.4848-2.9184-2.9696-4.4032-4.5056-5.2736-5.376-10.7008-10.9568-15.6672-16.9984-5.5808-6.7584-7.5776-15.36-5.4784-23.5008 2.2016-8.448 8.3456-15.2576 16.896-18.5856 15.5136-6.144 26.88 4.352 30.6176 7.7824 4.6592 4.3008 9.216 8.7552 14.08 13.5168 1.3312 1.28 2.6624 2.6112 4.0448 3.9424 0.9216-1.024 1.8944-2.0992 2.816-3.1744 4.608-5.1712 9.3696-10.5472 14.6432-15.4624 10.0352-9.472 22.1696-11.1104 33.2288-4.5568 11.4688 6.7584 15.9744 17.7664 12.4416 30.1568-1.28 4.5056-4.1472 9.0624-9.0112 14.336-4.4032 4.7616-9.1648 9.2672-14.2336 14.08-1.1776 1.0752-2.3552 2.2016-3.5328 3.328l3.8912 3.584c5.1712 4.6592 10.0352 9.1136 14.6432 13.824 12.1344 12.4416 12.5952 28.5184 1.1776 40.0384z m21.6064-267.264c-4.7616 10.3936-13.568 15.7696-26.2656 16.0256-6.2976 0.1024-12.5952 0.1024-19.456 0.0512h-5.4784c0 1.4848 0 3.0208 0.0512 4.4544 0.0512 6.5536 0.1024 12.7488-0.1024 18.9952-0.4608 14.7456-8.448 26.5216-19.8656 29.3888-2.56 0.6144-5.12 0.9728-7.6288 0.9728-5.8368 0-11.3152-1.7408-15.872-5.12-6.6048-4.864-10.496-12.4928-11.0592-21.504-0.4096-7.0144-0.3072-13.9776-0.2048-21.3504 0.0512-1.8944 0.0512-3.84 0.0512-5.8368-1.8944 0-3.7376 0-5.5296 0.0512-6.7584 0.0512-13.1584 0.1024-19.456-0.1024-17.4592-0.5632-28.5184-10.752-28.8768-26.624-0.3584-15.5648 10.496-26.5216 27.648-27.8528 3.7888-0.3072 7.5264-0.256 11.1616-0.2048 1.4848 0 2.9184 0 4.4032 0.0512h10.5472v-4.864c-0.0512-6.4512-0.0512-12.4928 0.0512-18.5344 0.4096-18.0224 10.7008-30.0032 26.2144-30.6176 15.5136-0.6144 27.4432 11.9296 28.3648 29.8496 0.3072 6.1952 0.256 12.288 0.1536 18.7904 0 1.5872-0.0512 3.2256-0.0512 4.9152 2.2528 0.0512 4.4544 0.1536 6.656 0.2048 8.192 0.2048 15.9744 0.4096 23.8592 1.3824 8.6016 1.0752 15.9232 5.8368 19.968 13.1584 4.1472 7.3216 4.4032 16.2304 0.7168 24.32z m64.1024-18.8928c2.3552-9.1648 8.8064-15.5136 18.5856-18.2784 4.352-1.2288 8.96-1.4336 12.4928-1.4336 31.3856-0.1024 65.024-0.1536 98.0992 0 16.6912 0.0512 27.9552 7.424 30.8736 20.1728 2.048 8.8576 0.5632 17.2032-4.1472 23.4496-5.0176 6.656-13.4144 10.5472-23.6032 11.0592-0.6144 0.0512-1.1776 0.0512-1.792 0.0512h-55.2448c-3.84 0-7.68 0.0512-11.4688 0.0512-5.2736 0.0512-10.5984 0.0512-15.9744 0.0512-6.8608 0-13.7728-0.0512-20.5824-0.256-9.984-0.3072-18.2784-4.1472-23.296-10.8544-4.864-6.5536-6.2464-15.0528-3.9424-24.0128z m154.0608 278.6816c-5.3248 5.5808-13.056 8.6016-22.4768 8.7552-15.8208 0.256-32.3072 0.3584-49.8176 0.3584-16.7424 0-34.3552-0.1024-53.0944-0.3072-19.8144-0.2048-26.6752-11.776-28.928-21.4016-3.0208-12.7488 2.048-23.8592 13.4656-29.696 4.1984-2.1504 9.5744-3.2256 16.4864-3.3792 12.1856-0.256 24.576-0.2048 36.5568-0.1536 4.6592 0 9.3184 0.0512 13.9776 0.0512l15.3088-0.0512c11.7248 0 23.5008-0.0512 35.2256 0.0512 18.0736 0.1536 29.6448 10.1376 30.2592 26.0096 0.256 7.8848-2.1504 14.6944-6.9632 19.7632z m-21.4016-75.9296c-12.4416 0.3072-25.088 0.2048-37.3248 0.1536-5.376-0.0512-10.752-0.0512-16.0768-0.0512h-4.4544c-3.84 0-7.68 0.0512-11.52 0.0512-5.2736 0.0512-10.5984 0.1024-15.9744 0.1024-6.8608 0-13.7216-0.0512-20.5824-0.3072-9.8304-0.3072-17.9712-4.1472-22.9376-10.8544-4.864-6.5536-6.2464-15.2064-3.7888-24.32 2.3552-8.96 8.6016-14.7968 18.9952-17.7664 3.584-1.024 7.68-1.536 12.4928-1.536 30.9248-0.1024 63.8464-0.2048 97.0752 0 19.7632 0.1024 32.2048 10.5984 32.4096 27.3408 0.3072 15.872-11.1104 26.7776-28.3136 27.1872z" fill="#6C6CEA" p-id="3649"></path><path d="M784.2304 315.4432c0-49.8176-30.3104-79.9744-80.2816-80.0256-65.4848-0.0512-130.9696 0-196.4544 0-65.792 0-131.6352-0.0512-197.4272 0-48.6912 0.0512-79.2576 30.5152-79.3088 79.104-0.0512 131.6352-0.0512 263.2192 0 394.8544 0 49.2032 30.464 79.5136 79.8208 79.5136h120.1152c79.5648-15.9744 151.5008-52.9408 209.92-104.8064-6.5024 0.0512-13.1072 0.0512-19.9168 0.0512-16.7424 0-34.3552-0.1024-53.0944-0.3072-19.8144-0.2048-26.6752-11.776-28.928-21.4016-3.0208-12.7488 2.048-23.8592 13.4656-29.696 4.1984-2.1504 9.5744-3.2256 16.4864-3.3792 12.1856-0.256 24.576-0.2048 36.5568-0.1536 4.6592 0 9.3184 0.0512 13.9776 0.0512l15.3088-0.0512c11.7248 0 23.5008-0.0512 35.2256 0.0512 7.5776 0.0512 13.9264 1.9456 18.8416 5.1712 47.616-57.4464 81.2544-126.9248 95.6928-203.2128V315.4432zM453.2224 682.496c-10.5984 10.7008-27.2384 10.0352-39.5264-1.5872-4.864-4.608-9.5232-9.5744-13.9776-14.3872-1.024-1.0752-2.048-2.2016-3.1232-3.328l-4.1984 4.1984c-5.12 5.12-9.9328 9.984-15.0016 14.5408-6.0928 5.4784-12.7488 8.2432-19.4048 8.2432-4.608 0-9.2672-1.3312-13.7728-3.9424-10.6496-6.1952-15.4624-17.408-12.4928-29.2864 1.4848-5.888 5.5808-11.1616 8.5504-14.592 4.096-4.8128 8.6016-9.3184 12.9536-13.7216 1.28-1.28 2.56-2.6112 3.84-3.9424-1.4336-1.4848-2.9184-2.9696-4.4032-4.5056-5.2736-5.376-10.7008-10.9568-15.6672-16.9984-5.5808-6.7584-7.5776-15.36-5.4784-23.5008 2.2016-8.448 8.3456-15.2576 16.896-18.5856 15.5136-6.144 26.88 4.352 30.6176 7.7824 4.6592 4.3008 9.216 8.7552 14.08 13.5168 1.3312 1.28 2.6624 2.6112 4.0448 3.9424 0.9216-1.024 1.8944-2.0992 2.816-3.1744 4.608-5.1712 9.3696-10.5472 14.6432-15.4624 10.0352-9.472 22.1696-11.1104 33.2288-4.5568 11.4688 6.7584 15.9744 17.7664 12.4416 30.1568-1.28 4.5056-4.1472 9.0624-9.0112 14.336-4.4032 4.7616-9.1648 9.2672-14.2336 14.08-1.1776 1.0752-2.3552 2.2016-3.5328 3.328l3.8912 3.584c5.1712 4.6592 10.0352 9.1136 14.6432 13.824 12.1344 12.4416 12.5952 28.5184 1.1776 40.0384z m21.6064-267.264c-4.7616 10.3936-13.568 15.7696-26.2656 16.0256-6.2976 0.1024-12.5952 0.1024-19.456 0.0512h-5.4784c0 1.4848 0 3.0208 0.0512 4.4544 0.0512 6.5536 0.1024 12.7488-0.1024 18.9952-0.4608 14.7456-8.448 26.5216-19.8656 29.3888-2.56 0.6144-5.12 0.9728-7.6288 0.9728-5.8368 0-11.3152-1.7408-15.872-5.12-6.6048-4.864-10.496-12.4928-11.0592-21.504-0.4096-7.0144-0.3072-13.9776-0.2048-21.3504 0.0512-1.8944 0.0512-3.84 0.0512-5.8368-1.8944 0-3.7376 0-5.5296 0.0512-6.7584 0.0512-13.1584 0.1024-19.456-0.1024-17.4592-0.5632-28.5184-10.752-28.8768-26.624-0.3584-15.5648 10.496-26.5216 27.648-27.8528 3.7888-0.3072 7.5264-0.256 11.1616-0.2048 1.4848 0 2.9184 0 4.4032 0.0512h10.5472v-4.864c-0.0512-6.4512-0.0512-12.4928 0.0512-18.5344 0.4096-18.0224 10.7008-30.0032 26.2144-30.6176 15.5136-0.6144 27.4432 11.9296 28.3648 29.8496 0.3072 6.1952 0.256 12.288 0.1536 18.7904 0 1.5872-0.0512 3.2256-0.0512 4.9152 2.2528 0.0512 4.4544 0.1536 6.656 0.2048 8.192 0.2048 15.9744 0.4096 23.8592 1.3824 8.6016 1.0752 15.9232 5.8368 19.968 13.1584 4.1472 7.3216 4.4032 16.2304 0.7168 24.32z m64.1024-18.8928c2.3552-9.1648 8.8064-15.5136 18.5856-18.2784 4.352-1.2288 8.96-1.4336 12.4928-1.4336 31.3856-0.1024 65.024-0.1536 98.0992 0 16.6912 0.0512 27.9552 7.424 30.8736 20.1728 2.048 8.8576 0.5632 17.2032-4.1472 23.4496-5.0176 6.656-13.4144 10.5472-23.6032 11.0592-0.6144 0.0512-1.1776 0.0512-1.792 0.0512h-55.2448c-3.84 0-7.68 0.0512-11.4688 0.0512-5.2736 0.0512-10.5984 0.0512-15.9744 0.0512-6.8608 0-13.7728-0.0512-20.5824-0.256-9.984-0.3072-18.2784-4.1472-23.296-10.8544-4.864-6.5536-6.2464-15.0528-3.9424-24.0128z m132.6592 202.752c-12.4416 0.3072-25.088 0.2048-37.3248 0.1536-5.376-0.0512-10.752-0.0512-16.0768-0.0512h-4.4544c-3.84 0-7.68 0.0512-11.52 0.0512-5.2736 0.0512-10.5984 0.1024-15.9744 0.1024-6.8608 0-13.7216-0.0512-20.5824-0.3072-9.8304-0.3072-17.9712-4.1472-22.9376-10.8544-4.864-6.5536-6.2464-15.2064-3.7888-24.32 2.3552-8.96 8.6016-14.7968 18.9952-17.7664 3.584-1.024 7.68-1.536 12.4928-1.536 30.9248-0.1024 63.8464-0.2048 97.0752 0 19.7632 0.1024 32.2048 10.5984 32.4096 27.3408 0.3072 15.872-11.1104 26.7776-28.3136 27.1872z" fill="#757BF2" p-id="3650"></path><path d="M350.3616 617.8816c-4.5568-4.6592-9.1648-9.472-13.4144-14.6432-5.5808-6.7584-7.5776-15.36-5.4784-23.5008 2.2016-8.448 8.3456-15.2576 16.896-18.5856 15.5136-6.144 26.88 4.352 30.6176 7.7824 4.6592 4.3008 9.216 8.7552 14.08 13.5168 1.3312 1.28 2.6624 2.6112 4.0448 3.9424 0.9216-1.024 1.8944-2.0992 2.816-3.1744 4.608-5.1712 9.3696-10.5472 14.6432-15.4624 10.0352-9.472 22.1696-11.1104 33.2288-4.5568 3.2256 1.8944 5.8368 4.1984 7.936 6.7072a452.4032 452.4032 0 0 0 141.0048-138.5472c-3.328 0-6.656 0.0512-10.0352 0.0512-6.8608 0-13.7728-0.0512-20.5824-0.256-9.984-0.3072-18.2784-4.1472-23.296-10.8544-4.864-6.5024-6.2464-15.0016-3.9424-23.9616 2.3552-9.1648 8.8064-15.5136 18.5856-18.2784 4.352-1.2288 8.96-1.4336 12.4928-1.4336 18.432-0.0512 37.632-0.1024 57.0368-0.1024 20.3264-43.7248 33.792-91.1872 39.168-141.1584h-158.72c-65.792 0-131.6352-0.0512-197.4272 0-48.6912 0.0512-79.2576 30.5152-79.3088 79.104-0.0512 107.6736-0.0512 215.296 0 322.9696 41.5744-1.1264 81.664-7.8848 119.6544-19.5584z m-7.6288-241.152c3.7888-0.3072 7.5264-0.256 11.1616-0.2048 1.4848 0 2.9184 0 4.4032 0.0512h10.5472v-4.864c-0.0512-6.4512-0.0512-12.4928 0.0512-18.5344 0.4096-18.0224 10.7008-30.0032 26.2144-30.6176 15.5136-0.6144 27.4432 11.9296 28.3648 29.8496 0.3072 6.1952 0.256 12.288 0.1536 18.7904 0 1.5872-0.0512 3.2256-0.0512 4.9152 2.2528 0.0512 4.4544 0.1536 6.656 0.2048 8.192 0.2048 15.9744 0.4096 23.8592 1.3824 8.6016 1.0752 15.9232 5.8368 19.968 13.1584 4.1984 7.4752 4.4544 16.384 0.768 24.4736-4.7616 10.3936-13.568 15.7696-26.2656 16.0256-6.2976 0.1024-12.5952 0.1024-19.456 0.0512h-5.4784c0 1.4848 0 3.0208 0.0512 4.4544 0.0512 6.5536 0.1024 12.7488-0.1024 18.9952-0.4608 14.7456-8.448 26.5216-19.8656 29.3888-2.56 0.6144-5.12 0.9728-7.6288 0.9728-5.8368 0-11.3152-1.7408-15.872-5.12-6.6048-4.864-10.496-12.4928-11.0592-21.504-0.4096-7.0144-0.3072-13.9776-0.2048-21.3504 0.0512-1.8944 0.0512-3.84 0.0512-5.8368-1.8944 0-3.7376 0-5.5296 0.0512-6.7584 0.0512-13.1584 0.1024-19.456-0.1024-17.4592-0.5632-28.5184-10.752-28.8768-26.624-0.4096-15.7184 10.4448-26.6752 27.5968-28.0064z" fill="#8486F8" p-id="3651"></path><path d="M321.9456 422.3488c-4.1984-4.5056-6.7072-10.496-6.912-17.7664-0.3584-15.5648 10.496-26.5216 27.648-27.8528 3.7888-0.3072 7.5264-0.256 11.1616-0.2048 1.4848 0 2.9184 0 4.4032 0.0512h10.5472v-4.864c-0.0512-6.4512-0.0512-12.4928 0.0512-18.5344 0.4096-18.0224 10.7008-30.0032 26.2144-30.6176 13.824-0.5632 24.7296 9.3696 27.648 24.1664a451.3024 451.3024 0 0 0 81.8176-111.3088c-64.8704 0-129.6896-0.0512-194.56 0-48.6912 0.0512-79.2576 30.5152-79.3088 79.104v145.7152a447.86688 447.86688 0 0 0 91.2896-37.888z" fill="#8D92F8" p-id="3652"></path></svg>