<svg class="icon" style="width: 1em;height: 1em;vertical-align: middle;fill: currentColor;overflow: hidden;" viewBox="0 0 1024 1024" version="1.1" xmlns="http://www.w3.org/2000/svg" p-id="5788"><path d="M509.696 507.2384m-450.816 0a450.816 450.816 0 1 0 901.632 0 450.816 450.816 0 1 0-901.632 0Z" fill="#E9ECFF" p-id="5789"></path><path d="M699.4944 233.5744H319.9488c-46.336 0-83.9168 37.5808-83.9168 83.9168v379.4944c0 46.336 37.5808 83.9168 83.9168 83.9168h379.4944c46.336 0 83.9168-37.5808 83.9168-83.9168V317.4912c0-46.336-37.5296-83.9168-83.8656-83.9168z m-244.224 393.472a27.87328 27.87328 0 0 1 0 39.3728 27.7504 27.7504 0 0 1-19.712 8.1408c-7.1168 0-14.2336-2.7136-19.712-8.1408l-25.6512-25.6512-25.6512 25.6512c-5.4272 5.4272-12.544 8.1408-19.712 8.1408s-14.2336-2.7136-19.712-8.1408a27.87328 27.87328 0 0 1 0-39.3728l25.6512-25.6512-25.6512-25.6512a27.87328 27.87328 0 0 1 0-39.3728 27.87328 27.87328 0 0 1 39.3728 0l25.6512 25.6512 25.6512-25.6512a27.87328 27.87328 0 0 1 39.3728 0 27.87328 27.87328 0 0 1 0 39.3728l-25.6512 25.6512 25.7536 25.6512z m3.4816-210.1248H330.496c-15.36 0-27.8528-12.4416-27.8528-27.8528 0-15.36 12.4416-27.8528 27.8528-27.8528H458.752c15.36 0 27.8528 12.4416 27.8528 27.8528 0 15.4112-12.4416 27.8528-27.8528 27.8528z m225.1776 252.7232h-128.256c-15.36 0-27.8528-12.4416-27.8528-27.8528 0-15.36 12.4416-27.8528 27.8528-27.8528h128.256c15.36 0 27.8528 12.4416 27.8528 27.8528 0 15.4112-12.4416 27.8528-27.8528 27.8528z m0-95.1296h-128.256c-15.36 0-27.8528-12.4416-27.8528-27.8528 0-15.36 12.4416-27.8528 27.8528-27.8528h128.256c15.36 0 27.8528 12.4416 27.8528 27.8528 0 15.36-12.4416 27.8528-27.8528 27.8528z m0-157.5936h-36.3008v36.3008c0 15.36-12.4416 27.8528-27.8528 27.8528s-27.8528-12.4416-27.8528-27.8528v-36.3008h-36.3008c-15.36 0-27.8528-12.4416-27.8528-27.8528 0-15.36 12.4416-27.8528 27.8528-27.8528h36.3008v-36.3008c0-15.36 12.4416-27.8528 27.8528-27.8528s27.8528 12.4416 27.8528 27.8528v36.3008h36.3008c15.36 0 27.8528 12.4416 27.8528 27.8528 0 15.4112-12.4416 27.8528-27.8528 27.8528z" fill="#6C6CEA" p-id="5790"></path><path d="M783.36 317.4912c0-46.336-37.5808-83.9168-83.9168-83.9168H319.9488c-46.336 0-83.9168 37.5808-83.9168 83.9168v379.4944c0 46.336 37.5808 83.9168 83.9168 83.9168h124.3648c77.6704-18.8928 147.5072-57.9072 203.6224-111.2064h-92.2624c-15.36 0-27.8528-12.4416-27.8528-27.8528 0-15.36 12.4416-27.8528 27.8528-27.8528h128.256c4.1984 0 8.1408 0.9216 11.6736 2.6112C740.9664 557.312 771.9936 486.4 783.36 409.1392v-91.648z m-328.0896 309.5552a27.87328 27.87328 0 0 1 0 39.3728c-5.4272 5.4272-12.544 8.1408-19.712 8.1408s-14.2336-2.7136-19.712-8.1408l-25.6512-25.6512-25.6512 25.6512a27.7504 27.7504 0 0 1-19.712 8.1408c-7.1168 0-14.2336-2.7136-19.712-8.1408a27.87328 27.87328 0 0 1 0-39.3728l25.6512-25.6512-25.6512-25.6512a27.87328 27.87328 0 0 1 0-39.3728 27.87328 27.87328 0 0 1 39.3728 0l25.6512 25.6512 25.6512-25.6512a27.87328 27.87328 0 0 1 39.3728 0 27.87328 27.87328 0 0 1 0 39.3728l-25.6512 25.6512 25.7536 25.6512z m3.4816-210.1248H330.496c-15.36 0-27.8528-12.4416-27.8528-27.8528 0-15.36 12.4416-27.8528 27.8528-27.8528H458.752c15.36 0 27.8528 12.4416 27.8528 27.8528 0 15.4112-12.4416 27.8528-27.8528 27.8528z m225.1776 157.5936h-128.256c-15.36 0-27.8528-12.4416-27.8528-27.8528s12.4416-27.8528 27.8528-27.8528h128.256c15.36 0 27.8528 12.4416 27.8528 27.8528s-12.4416 27.8528-27.8528 27.8528z m0-157.5936h-36.3008v36.3008c0 15.36-12.4416 27.8528-27.8528 27.8528-15.36 0-27.8528-12.4416-27.8528-27.8528v-36.3008h-36.3008c-15.36 0-27.8528-12.4416-27.8528-27.8528 0-15.36 12.4416-27.8528 27.8528-27.8528h36.3008v-36.3008c0-15.36 12.4416-27.8528 27.8528-27.8528 15.36 0 27.8528 12.4416 27.8528 27.8528v36.3008h36.3008c15.36 0 27.8528 12.4416 27.8528 27.8528 0 15.4112-12.4416 27.8528-27.8528 27.8528z" fill="#757BF2" p-id="5791"></path><path d="M335.1552 617.1136l15.7184-15.7184-25.6512-25.6512a27.87328 27.87328 0 0 1 0-39.3728 27.87328 27.87328 0 0 1 39.3728 0l25.6512 25.6512 25.6512-25.6512a27.87328 27.87328 0 0 1 39.3728 0c6.0928 6.0928 8.6016 14.2336 7.936 22.1696a453.00224 453.00224 0 0 0 128.768-129.8944v-11.7248h-36.3008c-15.36 0-27.8528-12.4416-27.8528-27.8528 0-15.36 12.4416-27.8528 27.8528-27.8528h36.3008v-36.3008c0-15.36 12.4416-27.8528 27.8528-27.8528 11.52 0 21.4016 7.0144 25.6512 16.9472a449.792 449.792 0 0 0 16.5888-80.4864H319.9488c-46.336 0-83.9168 37.5808-83.9168 83.9168v315.5456c34.2016-1.5872 67.3792-7.0144 99.1232-15.872z m-4.6592-255.8464H458.752c15.36 0 27.8528 12.4416 27.8528 27.8528 0 15.36-12.4416 27.8528-27.8528 27.8528H330.496c-15.36 0-27.8528-12.4416-27.8528-27.8528a27.8528 27.8528 0 0 1 27.8528-27.8528z" fill="#8486F8" p-id="5792"></path><path d="M322.5088 415.744a27.8528 27.8528 0 0 1 7.9872-54.528h68.4544a452.13696 452.13696 0 0 0 100.5568-127.6928H319.9488c-46.336 0-83.9168 37.5808-83.9168 83.9168v135.8848a445.85984 445.85984 0 0 0 86.4768-37.5808z" fill="#8D92F8" p-id="5793"></path></svg>