<svg class="icon" style="width: 1em;height: 1em;vertical-align: middle;fill: currentColor;overflow: hidden;" viewBox="0 0 1024 1024" version="1.1" xmlns="http://www.w3.org/2000/svg" p-id="5690"><path d="M511.8464 509.696m-450.816 0a450.816 450.816 0 1 0 901.632 0 450.816 450.816 0 1 0-901.632 0Z" fill="#E3FFF3" p-id="5691"></path><path d="M647.5264 208.2816h-313.344c-48.9472 0-88.6272 39.68-88.6272 88.6272v408.9856c0 48.9472 39.68 88.6272 88.6272 88.6272h220.9792c-44.4928-32.256-73.5232-84.5824-73.5232-143.616 0-97.792 79.5648-177.3568 177.3056-177.3568 27.648 0 53.8112 6.3488 77.1072 17.664V296.8576c0.0512-48.896-39.6288-88.576-88.5248-88.576z m-216.1152 395.52H376.32c-17.7152 0-32.0512-14.336-32.0512-32.0512s14.336-32.0512 32.0512-32.0512h55.0912c17.7152 0 32.0512 14.336 32.0512 32.0512-0.0512 17.7152-14.3872 32.0512-32.0512 32.0512z m82.8416-113.8688H376.32c-17.7152 0-32.0512-14.336-32.0512-32.0512s14.336-32.0512 32.0512-32.0512h137.9328c17.7152 0 32.0512 14.336 32.0512 32.0512s-14.336 32.0512-32.0512 32.0512z m90.8288-108.8H376.32c-17.7152 0-32.0512-14.336-32.0512-32.0512s14.336-32.0512 32.0512-32.0512h228.7616c17.7152 0 32.0512 14.336 32.0512 32.0512-0.0512 17.7152-14.3872 32.0512-32.0512 32.0512z" fill="#05C46D" p-id="5692"></path><path d="M798.1056 738.4064l-32.8192-31.6928c8.8064-16.6912 13.824-35.7376 13.824-55.8592 0-66.2528-53.9136-120.1152-120.1152-120.1152s-120.1152 53.9136-120.1152 120.1152c0 66.2528 53.9136 120.1152 120.1152 120.1152 22.8352 0 44.2368-6.4 62.4128-17.5616l32.2048 31.0784a31.9488 31.9488 0 0 0 45.2608-0.768 31.98976 31.98976 0 0 0-0.768-45.312z m-139.1104-31.488c-30.9248 0-56.064-25.1392-56.064-56.064 0-30.9248 25.1392-56.064 56.064-56.064 30.9248 0 56.064 25.1392 56.064 56.064 0 30.8736-25.1392 56.064-56.064 56.064z" fill="#05C46D" p-id="5693"></path><path d="M736.1024 296.8576c0-48.9472-39.68-88.6272-88.6272-88.6272H334.1824c-48.9472 0-88.6272 39.68-88.6272 88.6272v408.9856c0 30.6176 15.5136 57.6 39.1168 73.5232 21.9136 3.2256 44.288 4.9152 67.072 4.9152 57.5488 0 112.5888-10.6496 163.328-30.0032a175.98976 175.98976 0 0 1-33.4848-103.424c0-97.792 79.5648-177.3568 177.3056-177.3568 27.648 0 53.8112 6.3488 77.1072 17.664V296.8576z m-304.6912 306.944H376.32c-17.7152 0-32.0512-14.336-32.0512-32.0512s14.336-32.0512 32.0512-32.0512h55.0912c17.7152 0 32.0512 14.336 32.0512 32.0512-0.0512 17.7152-14.3872 32.0512-32.0512 32.0512z m82.8416-113.8688H376.32c-17.7152 0-32.0512-14.336-32.0512-32.0512s14.336-32.0512 32.0512-32.0512h137.9328c17.7152 0 32.0512 14.336 32.0512 32.0512s-14.336 32.0512-32.0512 32.0512z m90.8288-108.8H376.32c-17.7152 0-32.0512-14.336-32.0512-32.0512s14.336-32.0512 32.0512-32.0512h228.7616c17.7152 0 32.0512 14.336 32.0512 32.0512-0.0512 17.7152-14.3872 32.0512-32.0512 32.0512z" fill="#1DCE75" p-id="5694"></path><path d="M658.9952 530.688c-66.2528 0-120.1152 53.9136-120.1152 120.1152 0 30.208 11.2128 57.856 29.696 78.9504 19.3536-10.4448 37.888-22.2208 55.4496-35.2256-12.8512-10.2912-21.0944-26.0608-21.0944-43.776 0-30.9248 25.1392-56.064 56.064-56.064 18.7904 0 35.4304 9.3184 45.568 23.552a458.3936 458.3936 0 0 0 38.1952-53.4528c-21.6576-21.0432-51.2-34.0992-83.7632-34.0992z" fill="#1DCE75" p-id="5695"></path><path d="M647.5264 208.2816h-313.344c-48.9472 0-88.6272 39.68-88.6272 88.6272v324.352c40.7552-1.6896 80.1792-8.6528 117.5552-20.2752a31.98976 31.98976 0 0 1-18.8416-29.184c0-17.7152 14.336-32.0512 32.0512-32.0512h55.0912c12.6464 0 23.5008 7.3216 28.7232 17.92 120.4224-71.5264 205.2096-196.7104 221.44-342.5792a87.8592 87.8592 0 0 0-34.048-6.8096z m-133.2736 281.6512H376.32c-17.7152 0-32.0512-14.336-32.0512-32.0512s14.336-32.0512 32.0512-32.0512h137.9328c17.7152 0 32.0512 14.336 32.0512 32.0512s-14.336 32.0512-32.0512 32.0512z m90.8288-108.8H376.32c-17.7152 0-32.0512-14.336-32.0512-32.0512s14.336-32.0512 32.0512-32.0512h228.7616c17.7152 0 32.0512 14.336 32.0512 32.0512-0.0512 17.7152-14.3872 32.0512-32.0512 32.0512z" fill="#3CD38E" p-id="5696"></path><path d="M369.0496 380.2624a32.01536 32.01536 0 0 1-24.7808-31.1808c0-17.7152 14.336-32.0512 32.0512-32.0512h67.072a458.15296 458.15296 0 0 0 76.7488-108.8H334.1824c-48.9472 0-88.6272 39.68-88.6272 88.6272v142.7456a454.75328 454.75328 0 0 0 123.4944-59.3408z" fill="#48E1AA" p-id="5697"></path></svg>