<svg class="icon" style="width: 1em;height: 1em;vertical-align: middle;fill: currentColor;overflow: hidden;" viewBox="0 0 1024 1024" version="1.1" xmlns="http://www.w3.org/2000/svg" p-id="3662"><path d="M514.2528 509.5936m-450.816 0a450.816 450.816 0 1 0 901.632 0 450.816 450.816 0 1 0-901.632 0Z" fill="#FFF1DC" p-id="3663"></path><path d="M690.8416 233.1136H343.9616c-42.1376 0-76.2368 34.1504-76.2368 76.2368v434.2784c0 38.656 42.24 62.464 75.3152 42.496l166.4512-100.4544c3.1232-1.8944 7.0144-1.8944 10.1376-0.0512l172.5952 101.8368c33.1264 19.5072 74.9056-4.352 74.9056-42.752V309.3504c-0.0512-42.0864-34.2016-76.2368-76.288-76.2368z m-87.1424 266.8544h-55.9104v55.9104a30.4128 30.4128 0 0 1-60.8256 0V499.968H431.0528a30.4128 30.4128 0 0 1 0-60.8256h55.9104V383.232a30.4128 30.4128 0 0 1 60.8256 0v55.9104h55.9104a30.4128 30.4128 0 0 1 0 60.8256z" fill="#FF8E12" p-id="3664"></path><path d="M767.0784 309.3504c0-42.1376-34.1504-76.2368-76.2368-76.2368H343.9616c-42.0864 0-76.2368 34.1504-76.2368 76.2368v427.3152a438.272 438.272 0 0 0 113.1008 14.7456c6.8608 0 13.7216-0.2048 20.5312-0.512l108.1344-65.28c3.1232-1.8944 7.0144-1.8944 10.1376-0.0512l44.032 25.9584c86.8352-39.8848 158.4128-107.3664 203.4688-191.1808V309.3504z m-163.3792 190.6176h-55.9104v55.9104a30.4128 30.4128 0 0 1-60.8256 0V499.968H431.0528a30.4128 30.4128 0 0 1 0-60.8256h55.9104V383.232a30.4128 30.4128 0 0 1 60.8256 0v55.9104h55.9104a30.4128 30.4128 0 0 1 0 60.8256z" fill="#FCA315" p-id="3665"></path><path d="M690.8416 233.1136H343.9616c-42.0864 0-76.2368 34.1504-76.2368 76.2368v286.3616c80.1792-1.2288 155.0848-23.9104 219.2896-62.6688v-33.1264H431.0528a30.4128 30.4128 0 0 1 0-60.8256h55.9104V383.232a30.4128 30.4128 0 0 1 60.8256 0v55.9104h48.9472c48.5376-57.856 82.432-128.3584 95.9488-205.9264-0.6144 0-1.2288-0.1024-1.8432-0.1024z" fill="#FCB138" p-id="3666"></path><path d="M523.3664 233.1136H343.9616c-42.0864 0-76.2368 34.1504-76.2368 76.2368v115.5072c107.3664-29.696 198.2464-99.2256 255.6416-191.744z" fill="#FFC65E" p-id="3667"></path></svg>