<svg class="icon" style="width: 1em;height: 1em;vertical-align: middle;fill: currentColor;overflow: hidden;" viewBox="0 0 1024 1024" version="1.1" xmlns="http://www.w3.org/2000/svg" p-id="4957"><path d="M506.624 513.1264m-450.816 0a450.816 450.816 0 1 0 901.632 0 450.816 450.816 0 1 0-901.632 0Z" fill="#FFF1DC" p-id="4958"></path><path d="M728.064 310.784h-16.8448c-11.264-33.024-42.4448-56.7808-79.2576-56.7808H267.8272c-46.2848 0-83.8144 37.5296-83.8144 83.8144v242.0736c0 42.5472 34.5088 77.056 77.056 77.056 22.0672 0 39.936 17.8688 39.936 39.936v19.8144c0 27.1872 32.3584 41.4208 52.3776 22.9888l78.4896-72.192a40.00256 40.00256 0 0 1 27.0336-10.5472h172.9536c46.2848 0 83.8144-37.5296 83.8144-83.8144V376.4736h12.3392c24.9344 0 45.2096 20.2752 45.2096 45.2096v225.4336c0 21.4528-17.4592 38.912-38.912 38.912-38.6048 0-70.0416 31.4368-70.0416 70.0416v9.8816l-66.816-61.44a69.79584 69.79584 0 0 0-47.4112-18.4832H464.384c-18.1248 0-32.8704 14.7456-32.8704 32.8704s14.7456 32.8704 32.8704 32.8704h85.7088c1.0752 0 2.1504 0.4096 2.9184 1.1264l73.1136 67.2256c11.52 10.5984 26.368 16.4864 41.728 16.4864 8.6016 0 17.0496-1.792 25.1392-5.3248 22.8352-10.0352 37.0688-31.744 37.0688-56.7296v-18.4832c0-2.4064 1.9456-4.352 4.352-4.352 57.7024 0 104.6016-46.9504 104.6016-104.6016V421.6832c-0.0512-61.184-49.7664-110.8992-110.9504-110.8992z m-215.3472 240.3328H327.2704c-16.9472 0-30.72-13.7728-30.72-30.72s13.7728-30.72 30.72-30.72h185.4464c16.9472 0 30.72 13.7728 30.72 30.72s-13.7728 30.72-30.72 30.72z m62.208-119.8592H327.2704c-16.9472 0-30.72-13.7728-30.72-30.72s13.7728-30.72 30.72-30.72h247.6544c16.9472 0 30.72 13.7728 30.72 30.72s-13.7728 30.72-30.72 30.72z" fill="#FC7032" p-id="4959"></path><path d="M597.504 704.5632a69.79584 69.79584 0 0 0-47.4112-18.4832H464.384c-18.1248 0-32.8704 14.7456-32.8704 32.8704 0 16.3328 11.9808 29.9008 27.648 32.4096a448.72192 448.72192 0 0 0 138.5984-46.5408l-0.256-0.256z" fill="#FF7E3E" p-id="4960"></path><path d="M831.2832 381.1328c-16.2304-41.1648-56.3712-70.4-103.2192-70.4h-16.8448c-11.264-33.024-42.4448-56.7808-79.2576-56.7808H267.8272c-46.2848 0-83.8144 37.5296-83.8144 83.8144v242.0736c0 42.5472 34.5088 77.056 77.056 77.056 22.0672 0 39.936 17.8688 39.936 39.936v19.8144c0 27.1872 32.3584 41.4208 52.3776 22.9888l78.4896-72.192a40.00256 40.00256 0 0 1 27.0336-10.5472h172.9536c46.2848 0 83.8144-37.5296 83.8144-83.8144v-196.608h12.3392c24.9344 0 45.2096 20.2752 45.2096 45.2096v116.6336a446.95552 446.95552 0 0 0 58.0608-157.184z m-318.5664 169.984H327.2704c-16.9472 0-30.72-13.7728-30.72-30.72s13.7728-30.72 30.72-30.72h185.4464c16.9472 0 30.72 13.7728 30.72 30.72s-13.7728 30.72-30.72 30.72z m62.208-119.8592H327.2704c-16.9472 0-30.72-13.7728-30.72-30.72s13.7728-30.72 30.72-30.72h247.6544c16.9472 0 30.72 13.7728 30.72 30.72s-13.7728 30.72-30.72 30.72z" fill="#FF7E3E" p-id="4961"></path><path d="M461.6704 551.1168H327.2704c-16.9472 0-30.72-13.7728-30.72-30.72s13.7728-30.72 30.72-30.72h185.4464c10.7008 0 20.1216 5.4784 25.6 13.7728 72.3456-55.7568 127.3344-133.0176 155.2896-222.2592-15.3088-16.6912-37.2224-27.2384-61.696-27.2384H267.8272c-46.2848 0-83.8144 37.5296-83.8144 83.8144v242.0736c0 3.4816 0.3072 6.912 0.768 10.2912 25.4976 4.5056 51.7632 6.8608 78.592 6.8608 71.168 0.0512 138.4448-16.4864 198.2976-45.8752zM327.2704 369.8176h247.6544c16.9472 0 30.72 13.7728 30.72 30.72s-13.7728 30.72-30.72 30.72H327.2704c-16.9472 0-30.72-13.7728-30.72-30.72s13.7216-30.72 30.72-30.72z" fill="#FF9552" p-id="4962"></path><path d="M298.8544 412.2624c-1.4848-3.6352-2.3552-7.5776-2.3552-11.7248 0-16.9472 13.7728-30.72 30.72-30.72h60.3136a453.5552 453.5552 0 0 0 125.44-115.8656H267.8272c-46.2848 0-83.8144 37.5296-83.8144 83.8144V436.224c39.9872-3.0208 78.4896-11.2128 114.8416-23.9616z" fill="#FFA56A" p-id="4963"></path></svg>