<svg class="icon" style="width: 1em;height: 1em;vertical-align: middle;fill: currentColor;overflow: hidden;" viewBox="0 0 1024 1024" version="1.1" xmlns="http://www.w3.org/2000/svg" p-id="6042"><path d="M515.1744 513.6384m-450.816 0a450.816 450.816 0 1 0 901.632 0 450.816 450.816 0 1 0-901.632 0Z" fill="#FFF7DC" p-id="6043"></path><path d="M748.9024 267.4688H287.7952c-42.24 0-76.544 34.2528-76.544 76.544v346.2656c0 42.24 34.2528 76.544 76.544 76.544h461.056c42.24 0 76.544-34.2528 76.544-76.544V343.9616c0-42.24-34.2528-76.4928-76.4928-76.4928z m-197.3248 383.5904c0 16.5376-13.4144 29.952-29.952 29.952H323.584c-16.5376 0-29.952-13.4144-29.952-29.952v-47.9744c0-43.5712 21.76-82.1248 54.9376-105.5232-12.288-15.872-19.712-35.6864-19.712-57.2928 0-51.712 42.0352-93.7472 93.7472-93.7472s93.7472 42.0352 93.7472 93.7472c0 21.5552-7.424 41.4208-19.712 57.2928 33.1776 23.3472 54.9376 61.952 54.9376 105.5232v47.9744z m154.6752-0.6656h-64.1024a29.95712 29.95712 0 0 1 0-59.904h64.1024c16.5376 0 29.952 13.4144 29.952 29.952 0.0512 16.5376-13.4144 29.952-29.952 29.952z m0-103.2704h-95.6416a29.95712 29.95712 0 0 1 0-59.904h95.6416c16.5376 0 29.952 13.4144 29.952 29.952 0.0512 16.4864-13.4144 29.952-29.952 29.952z m0-107.1616h-95.6416a29.95712 29.95712 0 0 1 0-59.904h95.6416a29.95712 29.95712 0 0 1 0 59.904z" fill="#FF8E12" p-id="6044"></path><path d="M422.6048 534.016c-38.0416 0-69.0176 30.976-69.0176 69.0176v18.0224h138.0864v-18.0224c-0.0512-38.0416-30.976-69.0176-69.0688-69.0176z" fill="#FCA315" p-id="6045"></path><path d="M422.6048 474.0608c18.6368 0 33.792-15.1552 33.792-33.792 0-18.6368-15.1552-33.792-33.792-33.792-18.6368 0-33.792 15.1552-33.792 33.792 0 18.6368 15.1552 33.792 33.792 33.792z" fill="#FF8E12" p-id="6046"></path><path d="M748.9024 267.4688H287.7952c-42.24 0-76.544 34.2528-76.544 76.544v346.2656c0 42.24 34.2528 76.544 76.544 76.544h207.0528c74.8032-21.76 141.5168-62.4128 194.7648-116.3776h-47.5136a29.95712 29.95712 0 0 1 0-59.904h64.1024c9.984 0 18.7904 4.9152 24.2176 12.3904 55.9104-75.0592 88.9856-168.1408 88.9856-268.9536 0-6.912-0.2048-13.7728-0.512-20.5824-11.7248-27.0336-38.656-45.9264-69.9904-45.9264z m-197.3248 383.5904c0 16.5376-13.4144 29.952-29.952 29.952H323.584c-16.5376 0-29.952-13.4144-29.952-29.952v-47.9744c0-43.5712 21.76-82.1248 54.9376-105.5232-12.288-15.872-19.712-35.6864-19.712-57.2928 0-51.712 42.0352-93.7472 93.7472-93.7472s93.7472 42.0352 93.7472 93.7472c0 21.5552-7.424 41.4208-19.712 57.2928 33.1776 23.3472 54.9376 61.952 54.9376 105.5232v47.9744z m154.6752-103.936h-95.6416a29.95712 29.95712 0 0 1 0-59.904h95.6416c16.5376 0 29.952 13.4144 29.952 29.952 0.0512 16.4864-13.4144 29.952-29.952 29.952z m0-107.1616h-95.6416a29.95712 29.95712 0 0 1 0-59.904h95.6416a29.95712 29.95712 0 0 1 0 59.904z" fill="#FCA315" p-id="6047"></path><path d="M211.3024 343.9616v279.3472a455.55712 455.55712 0 0 0 82.3296-1.28v-18.9952c0-43.5712 21.76-82.1248 54.9376-105.5232-12.288-15.872-19.712-35.6864-19.712-57.2928 0-51.712 42.0352-93.7472 93.7472-93.7472s93.7472 42.0352 93.7472 93.7472c0 21.5552-7.424 41.4208-19.712 57.2928 11.3152 7.9872 21.2992 17.7664 29.5424 28.8768a452.352 452.352 0 0 0 83.0464-86.528c-15.9232-0.7168-28.6208-13.824-28.6208-29.9008 0-16.5376 13.4144-29.952 29.952-29.952h35.7376a446.05952 446.05952 0 0 0 40.0384-112.5376H287.7952c-42.24 0-76.4928 34.2528-76.4928 76.4928z" fill="#FCB138" p-id="6048"></path><path d="M353.5872 603.0336v8.448c44.032-10.8544 85.504-28.16 123.392-50.8928-12.6464-16.1792-32.256-26.624-54.3232-26.624-38.0928 0.0512-69.0688 31.0272-69.0688 69.0688z" fill="#FCB138" p-id="6049"></path><path d="M211.3024 343.9616v114.1248a447.96416 447.96416 0 0 0 120.2176-39.5264c9.8304-41.2672 46.8992-72.0384 91.0848-72.0384 4.4032 0 8.704 0.4096 12.9536 1.024 26.1632-23.8592 49.4592-50.7392 69.4272-80.0768H287.7952c-42.24 0-76.4928 34.2528-76.4928 76.4928z" fill="#FFC65E" p-id="6050"></path></svg>