<svg class="icon" style="width: 1em;height: 1em;vertical-align: middle;fill: currentColor;overflow: hidden;" viewBox="0 0 1024 1024" version="1.1" xmlns="http://www.w3.org/2000/svg" p-id="1730"><path d="M507.392 513.1264m-450.816 0a450.816 450.816 0 1 0 901.632 0 450.816 450.816 0 1 0-901.632 0Z" fill="#FFF1DC" p-id="1731"></path><path d="M784.8448 307.5584c-5.2224-44.288-33.8944-64.3072-76.4928-52.0704-26.9824 7.7312-53.1456 18.5344-79.0528 29.4912-11.4688 4.8128-17.6128 2.2528-24.4224-7.0144-15.7696-21.4016-32.1536-42.2912-48.6912-63.0784-27.4432-34.4576-67.1232-34.9184-95.488-1.3312-18.5344 21.9648-37.2224 43.776-55.2448 66.1504-6.0416 7.5264-11.52 9.3184-20.736 5.6832-23.1424-9.1648-46.7968-17.152-70.144-25.856-49.0496-18.2784-86.528 5.0688-89.2928 57.5488-1.7408 32.3584-1.8944 65.0752 0.5632 97.3824 5.2224 67.7888 23.7568 130.816 71.5264 182.4768 47.4112 51.3536 102.2464 88.4736 173.6192 96.0512 9.0624 0.9728 11.52 5.0688 11.4176 13.7216-0.2048 17.6128-0.3584 35.2256-0.3072 52.8896v49.0496c0 13.9776 11.2128 25.344 25.1904 25.6 14.2336 0.2048 25.9072-11.2128 26.0096-25.3952l0.0512-7.5264c0.256-28.2112 0.9216-56.4736-0.256-84.6848-0.7168-16.896 2.9184-24.32 21.6576-26.624 94.5664-11.5712 161.5872-62.9248 205.2096-146.5856 25.9072-49.664 30.208-103.424 30.3104-167.1168-1.3312-16.896-2.3552-42.9568-5.4272-68.7616z m-411.7504 224.1024a25.6 25.6 0 0 1-16.128 5.7344c-7.424 0-14.848-3.2256-19.8656-9.472-37.3248-45.9776-37.7856-129.8944-37.6832-139.3152 0.1024-14.1312 11.6736-25.3952 25.8048-25.3952 14.1312 0.1024 25.4976 11.6736 25.3952 25.8048-0.1024 20.5312 4.4032 79.7184 26.2656 106.6496a25.61024 25.61024 0 0 1-3.7888 35.9936z" fill="#FF8E12" p-id="1732"></path><path d="M767.3344 680.8576c19.968 0.7168 32.256 9.0624 33.6896 24.32 1.4336 15.2576-10.9056 26.1632-30.208 29.3888-29.184 4.864-58.6752 9.1648-86.9888 17.408-27.5968 8.0384-52.0704 23.1424-71.8848 45.1584-12.6976 14.1312-27.4944 15.2576-38.4512 5.12-11.8272-10.9056-11.7248-25.2928 1.3312-39.9872 29.696-33.4336 68.1472-53.1968 110.0288-65.4848 26.6752-7.8848 54.8864-10.8032 82.4832-15.9232zM250.7264 682.752c58.8288 3.7888 114.2272 18.3296 162.4064 53.76 12.0832 8.8576 22.9888 19.6608 32.9216 30.9248 9.6768 11.008 7.424 25.5488-3.1744 34.6624-10.496 9.0112-23.5008 9.3184-33.3824-1.28-41.3184-44.4416-94.976-59.8528-152.6784-66.2016-6.4512-0.7168-12.8512-1.6384-19.2512-2.7136-14.7968-2.5088-21.3504-12.3392-21.1456-26.3168 0.2048-13.568 11.6736-23.0912 26.1632-23.296 2.7648-0.0512 5.4784 0.3072 8.1408 0.4608z" fill="#FF8E12" p-id="1733"></path><path d="M699.5968 258.2528c-23.8592 7.4752-47.2064 16.9472-70.2464 26.6752-11.4688 4.8128-17.6128 2.2528-24.4224-7.0144-15.7696-21.4016-32.1536-42.2912-48.6912-63.0784-27.4432-34.4576-67.1232-34.9184-95.488-1.3312-18.5344 21.9648-37.2224 43.776-55.2448 66.1504-6.0416 7.5264-11.52 9.3184-20.736 5.6832-23.1424-9.1648-46.7968-17.152-70.144-25.856-49.0496-18.2784-86.528 5.0688-89.2928 57.5488-1.7408 32.3584-1.8944 65.0752 0.5632 97.3824 5.2224 67.7888 23.7568 130.816 71.5264 182.4768 47.4112 51.3536 102.2464 88.4736 173.6192 96.0512 9.0624 0.9728 11.52 5.0688 11.4176 13.7216v0.4608c134.7072-62.208 228.1984-198.4 228.1984-356.5056-0.0512-31.7952-3.8912-62.72-11.0592-92.3648z m-326.5024 273.408a25.6 25.6 0 0 1-16.128 5.7344c-7.424 0-14.848-3.2256-19.8656-9.472-37.3248-45.9776-37.7856-129.8944-37.6832-139.3152 0.1024-14.1312 11.6736-25.3952 25.8048-25.3952 14.1312 0.1024 25.4976 11.6736 25.3952 25.8048-0.1024 20.5312 4.4032 79.7184 26.2656 106.6496a25.61024 25.61024 0 0 1-3.7888 35.9936z" fill="#FCA315" p-id="1734"></path><path d="M556.1856 214.8352c-27.4432-34.4576-67.1232-34.9184-95.488-1.3312-18.5344 21.9648-37.2224 43.776-55.2448 66.1504-6.0416 7.5264-11.52 9.3184-20.736 5.6832-23.1424-9.1648-46.7968-17.152-70.144-25.856-49.0496-18.2784-86.528 5.0688-89.2928 57.5488-1.7408 32.3584-1.8944 65.0752 0.5632 97.3824 5.12 66.7648 23.296 128.8704 69.4272 180.1216 157.3888-34.6112 279.3984-163.5328 303.5648-324.608-13.8752-18.5856-28.16-36.9152-42.6496-55.0912z m-183.0912 316.8256a25.6 25.6 0 0 1-16.128 5.7344c-7.424 0-14.848-3.2256-19.8656-9.472-37.3248-45.9776-37.7856-129.8944-37.6832-139.3152 0.1024-14.1312 11.6736-25.3952 25.8048-25.3952 14.1312 0.1024 25.4976 11.6736 25.3952 25.8048-0.1024 20.5312 4.4032 79.7184 26.2656 106.6496a25.61024 25.61024 0 0 1-3.7888 35.9936z" fill="#FCB138" p-id="1735"></path><path d="M460.6976 213.504c-18.5344 21.9648-37.2224 43.776-55.2448 66.1504-6.0416 7.5264-11.52 9.3184-20.736 5.6832-23.1424-9.1648-46.7968-17.152-70.144-25.856-49.0496-18.2784-86.528 5.0688-89.2928 57.5488-1.7408 32.3584-1.8944 65.0752 0.5632 97.3824 0.8192 10.9568 2.0992 21.8112 3.6864 32.512 24.8832-7.7824 48.64-18.0224 71.1168-30.3616a335.36 335.36 0 0 1-1.28-27.9552c0.1024-14.1312 11.6736-25.3952 25.8048-25.3952 12.4928 0.1024 22.8352 9.1648 24.9856 21.0432 62.4128-47.7696 110.08-113.8176 134.9632-190.1568-8.6528 4.1472-16.9472 10.5472-24.4224 19.4048z" fill="#FFC65E" p-id="1736"></path></svg>