<svg class="icon" style="width: 1em;height: 1em;vertical-align: middle;fill: currentColor;overflow: hidden;" viewBox="0 0 1024 1024" version="1.1" xmlns="http://www.w3.org/2000/svg" p-id="5902"><path d="M512.768 516.4544m-450.816 0a450.816 450.816 0 1 0 901.632 0 450.816 450.816 0 1 0-901.632 0Z" fill="#E9F4FF" p-id="5903"></path><path d="M492.4416 754.7904c-11.9808-41.5232-33.536-77.5168-66.8672-105.4208-45.9776-38.4512-100.5568-53.0432-159.3856-53.9136-6.8608 0-13.824-0.5632-20.6336 0.1024-15.5136 1.5872-27.2896 15.1552-26.2144 30.3616 2.048 27.904 7.0144 55.2448 18.432 80.9472 30.72 69.3248 86.6304 107.6224 158.0544 124.672 24.5248 5.888 50.4832 7.0144 75.8784 7.8848 21.3504 0.7168 34.56-15.2064 31.232-34.816-2.816-16.6912-5.8368-33.536-10.496-49.8176z" fill="#3A9CED" p-id="5904"></path><path d="M776.0896 595.0464c-31.6928-0.8704-62.7712 3.1232-92.928 12.6464-47.7184 15.0528-86.784 42.1376-114.944 84.1216-22.3232 33.3312-33.536 70.6048-39.3216 109.9264-3.1232 21.2992 7.4752 36.1472 28.8768 37.9904 4.5568 0.4096 9.1648 0.0512 13.7216 0.0512 30.8736-0.9728 61.2352-4.9152 90.5728-15.4112 41.216-14.7968 77.1584-37.376 104.5504-71.9872 27.2384-34.3552 40.8064-74.1376 44.4928-117.6064 2.304-27.1872-7.8336-39.0144-35.0208-39.7312zM513.5872 382.6688h-0.1024c-11.4176 0-22.3232 4.608-30.7712 12.9536-8.3456 8.2944-12.9536 18.944-12.9536 30.0544 0.0512 13.056 4.864 25.0368 13.6704 33.6896a41.94816 41.94816 0 0 0 30.208 12.1856c11.8272-0.1024 22.9376-4.864 31.1296-13.2608a42.73152 42.73152 0 0 0 12.288-30.6176c-0.3584-26.0608-18.6368-45.0048-43.4688-45.0048z" fill="#2595E8" p-id="5905"></path><path d="M696.6784 423.2704c43.264-39.2192 39.5776-88.8832 24.0128-118.4256-8.8064-16.64-22.0672-29.2352-38.656-37.9392-25.0368-13.056-51.2-13.7216-77.6704-5.12-21.0944-55.552-51.456-80.9472-94.8224-79.5136-20.8384 0.7168-39.7312 7.2192-56.32 20.0704-19.5072 15.104-30.464 35.328-35.6352 59.4432-47.9232-13.4656-88.32-2.6112-114.432 40.4992-27.1872 44.9024-14.5408 85.6576 20.8896 120.9856-42.752 38.7072-39.2704 88.0128-23.6544 117.0944 9.1648 17.0496 22.6304 30.2592 40.0896 39.2192 24.9856 12.8 50.6368 13.568 76.7488 4.1984 14.1312 58.5728 56.5248 78.592 90.4192 79.6672 46.2336 1.4336 74.7008-21.8624 96.512-79.2064 49.3568 11.776 87.7056-0.256 110.6432-33.7408 11.7248-17.152 16.9472-35.9424 16.5376-56.4224-0.5632-28.8768-13.4656-52.0192-34.6624-70.8096zM512 541.5424h-0.3584c-28.7232-0.1024-57.1904-12.3392-78.1824-33.536-21.76-22.0672-33.5872-51.6096-33.3312-83.2 0.5632-61.7472 51.5584-112.0256 113.664-112.0256h0.0512c31.0784 0 59.9552 12.1856 81.3056 34.2528 21.6064 22.3232 32.8704 52.224 31.744 84.1728-2.2016 62.976-51.5584 110.336-114.8928 110.336zM730.8288 597.2992c-16.128 2.048-32 5.4784-47.6672 10.3936-47.7184 15.0528-86.784 42.1376-114.944 84.1216-22.3232 33.3312-33.536 70.6048-39.3216 109.9264-1.024 6.9632-0.5632 13.2096 1.2288 18.5344 89.856-49.0496 161.1264-127.744 200.704-222.976z" fill="#3A9CED" p-id="5906"></path><path d="M641.792 256.2048c-12.3904-0.4608-24.8832 1.536-37.4784 5.632-21.0944-55.552-51.456-80.9472-94.8224-79.5136-20.8384 0.7168-39.7312 7.2192-56.32 20.0704-19.5072 15.104-30.464 35.328-35.6352 59.4432-47.9232-13.4656-88.32-2.6112-114.432 40.4992-27.1872 44.9024-14.5408 85.6576 20.8896 120.9856-42.752 38.7072-39.2704 88.0128-23.6544 117.0944 9.1648 17.0496 22.6304 30.2592 40.0896 39.2192 24.9856 12.8 50.6368 13.568 76.7488 4.1984 5.632 23.3472 15.7696 40.4992 28.0576 52.8384 40.8064-27.904 76.8-62.3616 106.496-101.8368a118.9888 118.9888 0 0 1-39.7312 6.8096h-0.3584c-28.7232-0.1024-57.1904-12.3392-78.1824-33.536-21.76-22.0672-33.5872-51.6096-33.3312-83.2 0.5632-61.7472 51.5584-112.0256 113.664-112.0256h0.0512c31.0784 0 59.9552 12.1856 81.3056 34.2528 13.1584 13.6192 22.4256 30.1056 27.4944 48.128a450.88768 450.88768 0 0 0 19.3024-130.9184l-0.1536-8.1408zM266.1888 595.456c-6.8608 0-13.824-0.5632-20.6336 0.1024-15.5136 1.5872-27.2896 15.1552-26.2144 30.3616 2.048 27.904 7.0144 55.2448 18.432 80.9472 0.8192 1.8944 1.7408 3.6352 2.6112 5.4784a448.1024 448.1024 0 0 0 185.1392-62.976c-45.9776-38.4512-100.5056-52.992-159.3344-53.9136z" fill="#59ADF8" p-id="5907"></path><path d="M400.3328 419.5328c2.56-45.5168 32.4608-84.0192 73.5232-99.4816a448.42496 448.42496 0 0 0 47.9232-137.3184c-3.9936-0.3584-8.0384-0.5632-12.288-0.4096-20.8384 0.7168-39.7312 7.2192-56.32 20.0704-19.5072 15.104-30.464 35.328-35.6352 59.4432-47.9232-13.4656-88.32-2.6112-114.432 40.4992-27.1872 44.9024-14.5408 85.6576 20.8896 120.9856-27.392 24.7808-35.7376 53.9136-34.1504 79.2576a452.9664 452.9664 0 0 0 110.4896-83.0464z" fill="#6BC2FC" p-id="5908"></path></svg>