<svg class="icon" style="width: 1em;height: 1em;vertical-align: middle;fill: currentColor;overflow: hidden;" viewBox="0 0 1024 1024" version="1.1" xmlns="http://www.w3.org/2000/svg" p-id="3601"><path d="M515.3792 507.0336m-450.816 0a450.816 450.816 0 1 0 901.632 0 450.816 450.816 0 1 0-901.632 0Z" fill="#FFF1DC" p-id="3602"></path><path d="M515.3792 180.9408c-180.0704 0-326.0928 145.9712-326.0928 326.0928s145.9712 326.0928 326.0928 326.0928 326.0928-145.9712 326.0928-326.0928-146.0224-326.0928-326.0928-326.0928z m98.5088 477.696l-98.5088-51.8144-98.5088 51.8144 18.8416-109.7216-79.7696-77.6704 110.1312-16.0256 49.2544-99.7888 49.2544 99.7888 110.1312 16.0256-79.7184 77.6704 18.8928 109.7216z" fill="#FC7032" p-id="3603"></path><path d="M797.7472 344.064c-56.3712-97.4848-161.6896-163.1232-282.368-163.1232-180.0704 0-326.0928 145.9712-326.0928 326.0928 0 113.92 58.4704 214.1184 146.9952 272.4352 8.1408 0.4608 16.384 0.7168 24.6272 0.7168 240.9984 0 436.4288-195.1744 436.8384-436.1216z m-282.368 262.7584l-98.5088 51.8144 18.8416-109.7216-79.7696-77.6704 110.1312-16.0256 49.2544-99.7888 49.2544 99.7888 110.1312 16.0256-79.7184 77.6704 18.8416 109.7216-98.4576-51.8144z" fill="#FF7E3E" p-id="3604"></path><path d="M515.3792 180.9408c-180.0704 0-326.0928 145.9712-326.0928 326.0928 0 41.216 7.7312 80.64 21.7088 116.9408 10.0352 0.7168 20.1728 1.0752 30.4128 1.0752 67.5328 0 131.4816-15.3088 188.5696-42.7008l5.7344-33.4336-79.7696-77.6704 110.1312-16.0256 49.2544-99.7888 49.2544 99.7888 20.224 2.9184c51.6096-65.5872 84.8384-146.2784 91.9552-234.3936a324.2496 324.2496 0 0 0-161.3824-42.8032z" fill="#FF9552" p-id="3605"></path><path d="M191.8976 466.2272c162.4064-22.4768 296.2944-134.1952 350.5152-284.1088-8.9088-0.7168-17.92-1.2288-27.0848-1.2288-166.2464 0.0512-303.36 124.5184-323.4304 285.3376z" fill="#FFA56A" p-id="3606"></path></svg>