<svg class="icon" style="width: 1em;height: 1em;vertical-align: middle;fill: currentColor;overflow: hidden;" viewBox="0 0 1024 1024" version="1.1" xmlns="http://www.w3.org/2000/svg" p-id="6027"><path d="M517.6832 518.7584m-450.816 0a450.816 450.816 0 1 0 901.632 0 450.816 450.816 0 1 0-901.632 0Z" fill="#FFE3DB" p-id="6028"></path><path d="M526.2336 208.4864c-177.6128 0-321.5872 124.2112-321.5872 277.4528 0 86.3232 45.7216 163.3792 117.3504 214.272 5.632 3.9936 8.9088 10.5472 8.9088 17.4592v89.6512c0 16.64 18.0224 27.0336 32.4608 18.688l107.6224-62.208c4.0448-2.3552 8.704-3.2768 13.3632-2.7136 13.7216 1.536 27.6992 2.3552 41.9328 2.3552 177.6128 0 321.5872-124.2112 321.5872-277.4528-0.0512-153.2416-144.0256-277.504-321.6384-277.504zM599.7568 599.04H398.7968c-19.8144 0-35.84-16.0256-35.84-35.84s16.0256-35.84 35.84-35.84h200.96c19.8144 0 35.84 16.0256 35.84 35.84s-16.0256 35.84-35.84 35.84z m64.7168-134.7584H398.7968c-19.8144 0-35.84-16.0256-35.84-35.84s16.0256-35.84 35.84-35.84h265.6768c19.8144 0 35.84 16.0256 35.84 35.84s-16.0256 35.84-35.84 35.84z" fill="#F23D4F" p-id="6029"></path><path d="M790.3232 339.0464c0-3.84-0.0512-7.68-0.1536-11.52-58.112-71.936-154.624-119.04-263.936-119.04-177.6128 0-321.5872 124.2112-321.5872 277.4528 0 86.3232 45.7216 163.3792 117.3504 214.272 5.632 3.9936 8.9088 10.5472 8.9088 17.4592v72.0384c2.8672 0.0512 5.7344 0.1024 8.6016 0.1024 37.8368 0 74.5984-4.7104 109.7216-13.4656l21.7088-12.544c4.0448-2.3552 8.704-3.2768 13.3632-2.7136 3.6864 0.4096 7.3728 0.768 11.1104 1.0752 172.1344-63.4368 294.912-228.9664 294.912-423.1168zM398.7968 392.6016h265.6768c19.8144 0 35.84 16.0256 35.84 35.84s-16.0256 35.84-35.84 35.84H398.7968c-19.8144 0-35.84-16.0256-35.84-35.84s16.0256-35.84 35.84-35.84zM599.7568 599.04H398.7968c-19.8144 0-35.84-16.0256-35.84-35.84s16.0256-35.84 35.84-35.84h200.96c19.8144 0 35.84 16.0256 35.84 35.84s-16.0256 35.84-35.84 35.84z" fill="#FC4956" p-id="6030"></path><path d="M204.6464 485.9904c0 52.1216 16.7424 100.864 45.7728 142.4896 47.616-3.584 93.184-14.592 135.5776-31.7952-13.4656-5.1712-23.04-18.176-23.04-33.4336 0-19.8144 16.0256-35.84 35.84-35.84H502.272c22.9888-18.8928 44.0832-40.0384 62.9248-63.0784h-166.4c-19.8144 0-35.84-16.0256-35.84-35.84s16.0256-35.84 35.84-35.84h214.4256a447.30368 447.30368 0 0 0 50.2784-157.5936c-41.6256-16.9984-88.1664-26.5216-137.3184-26.5216-177.5616-0.0512-321.536 124.2112-321.536 277.4528z" fill="#FF5C64" p-id="6031"></path><path d="M206.2848 458.24C342.272 426.2912 454.5024 332.8 512 208.7936 351.744 214.8864 221.9008 322.048 206.2848 458.24z" fill="#FF716E" p-id="6032"></path></svg>