<svg class="icon" style="width: 1em;height: 1em;vertical-align: middle;fill: currentColor;overflow: hidden;" viewBox="0 0 1024 1024" version="1.1" xmlns="http://www.w3.org/2000/svg" p-id="4141"><path d="M509.1328 513.1264m-450.816 0a450.816 450.816 0 1 0 901.632 0 450.816 450.816 0 1 0-901.632 0Z" fill="#FFF1DC" p-id="4142"></path><path d="M498.6368 197.2224c-150.6304 7.7824-273.2032 129.7408-281.6 280.3712-4.7104 84.1216 25.5488 161.1264 77.5168 217.9584 4.3008 4.7104 6.8096 10.7008 6.8096 17.0496v81.664c0 17.7664 18.0224 29.7984 34.4064 22.9888l83.0464-34.4576c5.2224-2.1504 10.9568-2.4064 16.4352-0.9216 26.88 7.424 55.296 11.1616 84.6336 10.5984 155.6992-2.816 284.7232-127.7952 292.096-283.392 8.2944-176.3328-136.8064-320.9728-313.344-311.8592z m146.688 277.1968h-29.7984l-12.4928 45.7216h12.9536c19.8144 0 35.8912 16.0768 35.8912 35.8912 0 19.8144-16.0768 35.8912-35.8912 35.8912h-32.6144l-6.5536 23.9616c-4.352 15.9744-18.8416 26.4192-34.6112 26.4192a35.90656 35.90656 0 0 1-34.6624-45.3632l1.3824-4.9664h-41.472l-6.5536 23.9616c-4.352 15.9744-18.8416 26.4192-34.6112 26.4192a35.90656 35.90656 0 0 1-34.6624-45.3632l1.3824-4.9664h-9.472c-19.8144 0-35.8912-16.0768-35.8912-35.8912 0-19.8144 16.0768-35.8912 35.8912-35.8912h29.1328l12.4928-45.7216h-12.3392c-19.8144 0-35.8912-16.0768-35.8912-35.8912 0-19.8144 16.0768-35.8912 35.8912-35.8912h32l7.2192-26.4704c5.2224-19.1488 24.9856-30.4128 44.0832-25.1392a35.90656 35.90656 0 0 1 25.1392 44.0832l-2.048 7.5264h41.5232l7.2192-26.4704c5.2224-19.1488 24.9856-30.4128 44.0832-25.1392a35.90656 35.90656 0 0 1 25.1392 44.0832l-2.048 7.5264h10.1376c19.8144 0 35.8912 16.0768 35.8912 35.8912 0.0512 19.712-16.0256 35.7888-35.84 35.7888z" fill="#FF8E12" p-id="4143"></path><path d="M487.1168 520.1408h41.472l12.544-45.7216h-41.5232z" fill="#FCB138" p-id="4144"></path><path d="M498.6368 197.2224c-150.6304 7.7824-273.2032 129.7408-281.6 280.3712-4.7104 84.1216 25.5488 161.1264 77.5168 217.9584 4.3008 4.7104 6.8096 10.7008 6.8096 17.0496v20.6336c24.4224 5.0176 49.7152 7.68 75.5712 7.68 206.3872 0 373.6576-167.3216 373.6576-373.6576 0-20.5312-1.7408-40.6528-4.9152-60.2624-57.6512-71.0144-147.3024-114.8928-247.04-109.7728z m146.688 277.1968h-29.7984l-12.4928 45.7216h12.9536c19.8144 0 35.8912 16.0768 35.8912 35.8912s-16.0768 35.8912-35.8912 35.8912h-32.6144l-6.5536 23.9616c-4.352 15.9744-18.8416 26.4192-34.6112 26.4192a35.90656 35.90656 0 0 1-34.6624-45.3632l1.3824-4.9664h-41.472l-6.5536 23.9616c-4.352 15.9744-18.8416 26.4192-34.6112 26.4192a35.90656 35.90656 0 0 1-34.6624-45.3632l1.3824-4.9664h-9.472c-19.8144 0-35.8912-16.0768-35.8912-35.8912s16.0768-35.8912 35.8912-35.8912h29.1328l12.4928-45.7216h-12.3392c-19.8144 0-35.8912-16.0768-35.8912-35.8912 0-19.8144 16.0768-35.8912 35.8912-35.8912h32l7.2192-26.4704c5.2224-19.0976 24.9856-30.4128 44.0832-25.1392a35.90656 35.90656 0 0 1 25.1392 44.0832l-2.048 7.5264h41.5232l7.2192-26.4704c5.2224-19.0976 24.9856-30.4128 44.0832-25.1392a35.90656 35.90656 0 0 1 25.1392 44.0832l-2.048 7.5264h10.1376c19.8144 0 35.8912 16.0768 35.8912 35.8912 0.0512 19.712-16.0256 35.7888-35.84 35.7888z" fill="#FCA315" p-id="4145"></path><path d="M498.6368 197.2224c-150.6304 7.7824-273.2032 129.7408-281.6 280.3712-2.56 45.7728 5.2736 89.3952 21.2992 128.8704A373.98016 373.98016 0 0 0 384 591.9744h-0.512c-19.8144 0-35.8912-16.0768-35.8912-35.8912s16.0768-35.8912 35.8912-35.8912h29.1328l12.4928-45.7216h-12.3392c-19.8144 0-35.8912-16.0768-35.8912-35.8912 0-19.8144 16.0768-35.8912 35.8912-35.8912h32l7.2192-26.4704c5.2224-19.0976 24.9856-30.4128 44.0832-25.1392a35.90656 35.90656 0 0 1 25.1392 44.0832l-2.048 7.5264h41.5232l7.2192-26.4704c5.2224-19.0976 24.9856-30.4128 44.0832-25.1392a35.84 35.84 0 0 1 14.848 8.2432c13.824-39.0144 21.4016-80.9984 21.4016-124.7232 0-1.9968-0.1024-3.9936-0.1536-5.9904-44.4928-22.528-95.488-34.1504-149.4528-31.3856z" fill="#FCB138" p-id="4146"></path><path d="M498.6368 197.2224c-149.504 7.7312-271.2576 127.9488-281.344 276.9408A371.37408 371.37408 0 0 0 386.56 414.1056a36.096 36.096 0 0 1 12.6976-8.8064c68.9664-49.8176 120.2688-122.5728 142.6432-207.1552-14.1312-1.28-28.5696-1.6896-43.264-0.9216z" fill="#FFC65E" p-id="4147"></path></svg>