<svg class="icon" style="width: 1em;height: 1em;vertical-align: middle;fill: currentColor;overflow: hidden;" viewBox="0 0 1024 1024" version="1.1" xmlns="http://www.w3.org/2000/svg" p-id="3205"><path d="M507.392 514.7136m-450.816 0a450.816 450.816 0 1 0 901.632 0 450.816 450.816 0 1 0-901.632 0Z" fill="#E3FFF3" p-id="3206"></path><path d="M489.6256 818.2784v-481.28c0-22.4256-10.2912-76.1856-86.9376-76.1856H250.3168c-17.92 0-53.76 1.3312-53.76 50.176v382.72c0 30.0544 4.5056 63.6416 52.4288 63.6416h86.0672c14.7456 0 122.0096-10.9056 154.5728 60.928z" fill="#1DCE75" p-id="3207"></path><path d="M525.9776 818.2784v-481.28c0-22.4256 10.2912-76.1856 86.9376-76.1856h152.3712c17.92 0 53.76 1.3312 53.76 50.176v382.72c0 30.0544-4.5056 63.6416-52.4288 63.6416h-86.0672c-14.7456 0-122.0096-10.9056-154.5728 60.928z" fill="#05C46D" p-id="3208"></path><path d="M402.688 260.8128H250.3168c-17.92 0-53.76 1.3312-53.76 50.176v382.72c0 30.0032 4.5056 63.6416 52.4288 63.6416h86.016c10.1888 0 64.3584-5.1712 107.7248 15.1552 16.0256-4.1472 31.6416-9.216 46.8992-15.0528V336.9472c0-22.3744-10.2912-76.1344-86.9376-76.1344zM612.9152 260.8128c-76.6464 0-86.9376 53.76-86.9376 76.1856v404.736c150.1184-73.1648 253.5936-227.2256 253.5936-405.4528 0-25.6512-2.1504-50.7904-6.2976-75.264-2.9184-0.1536-5.632-0.2048-7.9872-0.2048h-152.3712z" fill="#1DCE75" p-id="3209"></path><path d="M402.688 260.8128H250.3168c-17.92 0-53.76 1.3312-53.76 50.176v315.8528c2.9696 0.0512 5.9392 0.1024 8.9088 0.1024 107.7248 0 206.6432-37.7856 284.16-100.864V336.9472c0-22.3744-10.2912-76.1344-86.9376-76.1344zM648.2944 260.8128h-35.3792c-76.6464 0-86.9376 53.76-86.9376 76.1856v156.1088c61.696-62.3616 105.2672-142.6432 122.3168-232.2944z" fill="#3CD38E" p-id="3210"></path><path d="M460.4928 276.4288c-12.9536-9.2672-31.4368-15.616-57.8048-15.616H250.3168c-17.92 0-53.76 1.3312-53.76 50.176v144.2304c108.3904-25.7536 201.6256-90.5728 263.936-178.7904z" fill="#48E1AA" p-id="3211"></path></svg>