<svg class="icon" style="width: 1em;height: 1em;vertical-align: middle;fill: currentColor;overflow: hidden;" viewBox="0 0 1024 1024" version="1.1" xmlns="http://www.w3.org/2000/svg" p-id="1816"><path d="M504.32 509.9008m-450.816 0a450.816 450.816 0 1 0 901.632 0 450.816 450.816 0 1 0-901.632 0Z" fill="#E3FFF3" p-id="1817"></path><path d="M268.0832 251.136h472.4736v75.6224H268.0832z" fill="#1DCE75" p-id="1818"></path><path d="M640.8704 693.0432l30.72-102.1952h38.2976V359.2704H298.8032v231.5776h35.584l30.72 102.1952H241.6128v75.6224h525.4144v-75.6224h-126.1568zM374.4256 434.8928h259.7888v80.3328H374.4256V434.8928z m44.4416 155.9552h168.1408l-35.2768 102.1952H454.144l-35.2768-102.1952z" fill="#05C46D" p-id="1819"></path><path d="M640.8704 693.0432l30.72-102.1952h38.2976V359.2704H298.8032v231.5776h35.584l30.72 102.1952H241.6128v75.6224h525.4144v-75.6224h-126.1568zM374.4256 434.8928h259.7888v80.3328H374.4256V434.8928z m44.4416 155.9552h168.1408l-35.2768 102.1952H454.144l-35.2768-102.1952z" fill="#05C46D" p-id="1820"></path><path d="M664.8832 612.9664l6.656-22.1696h9.6256c10.496-15.1552 20.0704-30.976 28.6208-47.4112V359.2704H298.8032v231.5776h35.584l30.72 102.1952H241.6128v75.6224h191.3856c92.9792-26.3168 173.7728-81.664 231.8848-155.6992z m-113.152 80.0768H454.144l-35.2768-102.1952h168.1408l-35.2768 102.1952zM374.4256 434.8928h259.7888v80.3328H374.4256V434.8928z" fill="#1DCE75" p-id="1821"></path><path d="M631.1424 251.136H268.0832v75.6224h343.2448c8.704-24.32 15.36-49.5616 19.8144-75.6224zM374.4256 515.2256V434.8928h180.5824a447.9488 447.9488 0 0 0 43.2128-75.6224H298.8032v231.5776h35.584l2.7136 9.0112a449.51552 449.51552 0 0 0 145.2032-84.6336H374.4256z" fill="#3CD38E" p-id="1822"></path><path d="M457.5744 251.136H268.0832v75.6224h131.1232c21.9648-22.9888 41.5744-48.3328 58.368-75.6224zM364.5952 359.2704H298.8032v46.3872c23.3472-13.5168 45.3632-29.0304 65.792-46.3872z" fill="#48E1AA" p-id="1823"></path></svg>