<svg class="icon" style="width: 1em;height: 1em;vertical-align: middle;fill: currentColor;overflow: hidden;" viewBox="0 0 1024 1024" version="1.1" xmlns="http://www.w3.org/2000/svg" p-id="2448"><path d="M504.32 513.1264m-450.816 0a450.816 450.816 0 1 0 901.632 0 450.816 450.816 0 1 0-901.632 0Z" fill="#E9F4FF" p-id="2449"></path><path d="M656.384 365.7728h167.3728c16.4352 0 29.7984-13.3632 29.7984-29.7984 0-16.4352-13.3632-29.7984-29.7984-29.7984H656.384a29.7984 29.7984 0 1 0 0 59.5968zM823.7056 458.2912h-144.5376c-16.4352 0-29.7984 13.3632-29.7984 29.7984 0 16.4352 13.3632 29.7984 29.7984 29.7984h144.5376a29.7984 29.7984 0 1 0 0-59.5968zM823.7056 620.2368h-72.2432c-16.4352 0-29.7984 13.3632-29.7984 29.7984 0 16.4352 13.3632 29.7984 29.7984 29.7984h72.2432a29.7984 29.7984 0 1 0 0-59.5968zM524.4928 471.2448C558.08 444.3136 579.584 402.944 579.584 356.608c0-81.1008-65.9456-147.0464-147.0464-147.0464-81.1008 0-147.0464 65.9456-147.0464 147.0464 0 46.2848 21.5552 87.6544 55.0912 114.6368-105.1648 33.3824-181.6064 131.8912-181.6064 247.9104 0 32.6656 26.5728 59.1872 59.1872 59.1872h428.6464c32.6656 0 59.1872-26.5728 59.1872-59.1872 0.1024-116.0192-76.3392-214.528-181.504-247.9104z m8.2432 230.5024H332.3904c-16.4352 0-29.7984-13.3632-29.7984-29.7984s13.3632-29.7984 29.7984-29.7984h200.3456c16.4352 0 29.7984 13.3632 29.7984 29.7984s-13.3632 29.7984-29.7984 29.7984z" fill="#2595E8" p-id="2450"></path><path d="M714.3936 306.176H656.384c-16.4352 0-29.7984 13.3632-29.7984 29.7984 0 16.4352 13.3632 29.7984 29.7984 29.7984h64.5632c-0.768-20.2752-2.9696-40.192-6.5536-59.5968zM679.168 458.2912c-16.4352 0-29.7984 13.3632-29.7984 29.7984 0 16.4352 13.3632 29.7984 29.7984 29.7984h19.0464c6.7072-19.2512 12.032-39.168 15.872-59.5968h-34.9184zM524.4928 471.2448C558.08 444.3136 579.584 402.944 579.584 356.608c0-81.0496-65.9456-147.0464-147.0464-147.0464-81.0496 0-147.0464 65.9456-147.0464 147.0464 0 46.2848 21.5552 87.6544 55.0912 114.6368-105.1648 33.3824-181.6064 131.8912-181.6064 247.9104 0 32.6656 26.5728 59.1872 59.1872 59.1872h208.1792c103.4752-31.1296 189.8496-101.5808 241.8688-194.048-32.3584-53.1456-83.2512-93.8496-143.7184-113.0496z m8.2432 230.5024H332.3904c-16.4352 0-29.7984-13.3632-29.7984-29.7984 0-16.4352 13.3632-29.7984 29.7984-29.7984h200.3456a29.7984 29.7984 0 1 1 0 59.5968z" fill="#3A9CED" p-id="2451"></path><path d="M169.0112 647.9872c8.0896 0.4608 16.2304 0.768 24.4224 0.768 139.6736 0 263.168-69.1712 338.2784-175.0528-2.4064-0.8192-4.7616-1.6896-7.168-2.4576 10.2912-8.2944 19.456-17.92 27.1872-28.6208 7.4752-12.8512 14.2848-26.112 20.4288-39.8336 4.8128-14.5408 7.5264-30.0544 7.5264-46.2336 0-81.0496-65.9456-147.0464-147.0464-147.0464-81.0496 0-147.0464 65.9456-147.0464 147.0464 0 46.2848 21.5552 87.6544 55.0912 114.6368-82.8416 26.3168-147.8144 92.9792-171.6736 176.7936z" fill="#59ADF8" p-id="2452"></path><path d="M482.5088 218.3168c-15.616-5.632-32.4096-8.7552-49.92-8.7552-81.0496 0-147.0464 65.9456-147.0464 147.0464 0 30.1056 9.1648 58.112 24.7808 81.4592 80.1792-50.688 141.7216-128.0512 172.1856-219.7504z" fill="#6BC2FC" p-id="2453"></path></svg>