<svg class="icon" style="width: 1em;height: 1em;vertical-align: middle;fill: currentColor;overflow: hidden;" viewBox="0 0 1024 1024" version="1.1" xmlns="http://www.w3.org/2000/svg" p-id="1105"><path d="M509.6448 511.3856m-450.816 0a450.816 450.816 0 1 0 901.632 0 450.816 450.816 0 1 0-901.632 0Z" fill="#FFF1DC" p-id="1106"></path><path d="M277.6576 319.3344c-15.104 0-29.5424-0.7168-43.8272 0.1536-24.9344 1.5872-46.6944-28.5696-34.56-56.6272 4.7616-10.9568 14.4896-16.1792 26.112-16.384 23.808-0.4096 47.6672-0.5632 71.4752 0.1024 19.9168 0.5632 31.0272 9.3696 36.0448 28.8256 2.7648 10.8032 3.1232 22.272 4.5568 33.4336 1.2288 9.984 2.4576 19.968 3.6864 30.3616h442.7776c11.3152 0 22.1184 1.8432 31.488 8.7552 10.9056 8.0384 13.824 20.992 8.2944 37.1712-7.5776 22.0672-15.5136 44.032-23.04 66.1504-8.6528 25.4464-16.384 51.2-25.5488 76.4416-8.8064 24.2176-25.1904 37.5296-52.0192 37.376-107.8272-0.512-215.7056-0.2048-323.5328-0.2048h-9.6256c2.9696 18.0736 6.0416 35.4304 8.6528 52.8896 0.768 5.2224 4.096 4.7616 7.68 4.7616h118.2208c63.488 0 126.976-0.0512 190.4128 0.0512 6.3488 0 12.7488 0.4096 18.944 1.6384 9.3184 1.792 14.8992 8.0384 16.384 17.3056 2.9696 18.5344-5.12 37.3248-29.7984 37.2224-109.7216-0.4096-219.4432-0.5632-329.1648 0.1024-28.5184 0.2048-43.8272-16.7424-50.2272-41.9328-10.1888-40.1408-17.2032-81.0496-25.2416-121.7536-12.288-62.464-24.2688-124.9792-36.4032-187.4432-0.4608-2.56-1.024-5.0688-1.7408-8.3968zM674.816 815.3088c-26.9824 1.2288-61.3888-28.5184-60.0576-58.2656 1.536-33.5872 23.7056-59.2384 58.4704-59.8016 34.5088-0.512 61.2352 24.8832 61.9008 57.9584 0.5632 32-28.0064 60.0576-60.3136 60.1088zM407.6544 812.6976c-32.4608 0.0512-58.9312-25.7536-59.1872-57.7024-0.256-30.9248 26.4704-58.3168 57.1392-58.5728 33.6896-0.256 61.5936 25.9584 61.5424 57.9072-0.0512 32.256-26.624 58.3168-59.4944 58.368z" fill="#FC7032" p-id="1107"></path><path d="M352.1536 339.2h-10.9568c-1.28-10.3936-2.4576-20.3776-3.6864-30.3616-1.3824-11.1616-1.792-22.6304-4.5568-33.4336-5.0176-19.4048-16.128-28.2112-36.0448-28.8256-23.808-0.6656-47.6672-0.512-71.4752-0.1024-11.6224 0.2048-21.4016 5.4272-26.112 16.384-12.1344 28.0064 9.5744 58.2144 34.56 56.6272 14.336-0.9216 28.7232-0.1536 43.8272-0.1536 0.7168 3.328 1.28 5.8368 1.792 8.3456 12.1344 62.464 24.1152 124.9792 36.4032 187.4432 7.9872 40.6528 15.0528 81.6128 25.2416 121.7536 6.4 25.1392 21.6576 42.0864 50.2272 41.9328 70.0928-0.4608 140.2368-0.512 210.3296-0.4096 21.8112-16.7424 42.0352-35.4816 60.4672-55.8592-45.8752-0.0512-91.7504-0.0512-137.5744-0.0512H406.3744c-3.584 0-6.912 0.4608-7.68-4.7616-2.6112-17.4592-5.6832-34.816-8.6528-52.8896h9.6256c102.1952 0 204.3904-0.256 306.5856 0.1536 42.3424-65.536 68.096-142.7968 71.4752-225.792H352.1536zM405.6576 696.4224c-30.6688 0.256-57.3952 27.648-57.1392 58.5728 0.0512 5.5296 0.9216 10.9056 2.4576 15.9744a449.8432 449.8432 0 0 0 115.968-21.4528c-2.6624-29.696-29.3376-53.3504-61.2864-53.0944z" fill="#FF7C33" p-id="1108"></path><path d="M341.1968 339.2c-1.28-10.3936-2.4576-20.3776-3.6864-30.3616-1.3824-11.1616-1.792-22.6304-4.5568-33.4336-5.0176-19.4048-16.128-28.2112-36.0448-28.8256-23.808-0.6656-47.6672-0.512-71.4752-0.1024-11.6224 0.2048-21.4016 5.4272-26.112 16.384-12.1344 28.0064 9.5744 58.2144 34.56 56.6272 14.336-0.9216 28.7232-0.1536 43.8272-0.1536 0.7168 3.328 1.28 5.8368 1.792 8.3456 12.1344 62.464 24.1152 124.9792 36.4032 187.4432 5.12 26.0096 9.8816 52.1216 15.2576 78.08 20.5824-6.0416 40.6016-13.5168 59.8528-22.3232-0.3584-2.048-0.6656-4.0448-1.024-6.0928H403.712c95.488-47.3088 171.8272-127.4368 214.272-225.6384H352.1536c-3.2768 0.0512-6.5536 0.0512-10.9568 0.0512z" fill="#FF8D4D" p-id="1109"></path><path d="M352.1536 339.2h-10.9568c-1.28-10.3936-2.4576-20.3776-3.6864-30.3616-1.3824-11.1616-1.792-22.6304-4.5568-33.4336-5.0176-19.4048-16.128-28.2112-36.0448-28.8256-23.808-0.6656-47.6672-0.512-71.4752-0.1024-11.6224 0.2048-21.4016 5.4272-26.112 16.384-12.1344 28.0064 9.5744 58.2144 34.56 56.6272 14.336-0.9216 28.7232-0.1536 43.8272-0.1536 0.7168 3.328 1.28 5.8368 1.792 8.3456 4.9152 25.2416 9.7792 50.4832 14.6432 75.7248 34.304-17.408 66.048-39.0144 94.6176-64.256-12.2368 0.0512-24.4224 0.0512-36.608 0.0512z" fill="#FFA56A" p-id="1110"></path></svg>