<svg class="icon" style="width: 1em;height: 1em;vertical-align: middle;fill: currentColor;overflow: hidden;" viewBox="0 0 1024 1024" version="1.1" xmlns="http://www.w3.org/2000/svg" p-id="6220"><path d="M512 510.1568m-450.816 0a450.816 450.816 0 1 0 901.632 0 450.816 450.816 0 1 0-901.632 0Z" fill="#FFF1DC" p-id="6221"></path><path d="M677.1712 197.1712h-319.488c-18.9952 0-36.1472 11.264-43.7248 28.672L217.088 449.2288a47.40608 47.40608 0 0 0-3.9424 18.944v243.9168c0 26.3168 21.3504 47.6672 47.6672 47.6672h505.9072c26.3168 0 47.6672-21.3504 47.6672-47.6672V469.1456c0-6.0416-1.1776-12.032-3.3792-17.664l-89.5488-224.256a47.73888 47.73888 0 0 0-44.288-30.0544z m51.1488 467.1488a28.8768 28.8768 0 0 1-28.8768 28.8768H323.072a28.8768 28.8768 0 1 1 0-57.7536h376.3712c15.9232 0 28.8768 12.9536 28.8768 28.8768z m-117.0432-186.5216l-27.2384 49.8688c-2.816 5.12-8.192 8.2944-14.0288 8.2944H466.2272c-5.4784 0-10.5984-2.816-13.5168-7.4752L420.3008 476.672a22.44096 22.44096 0 0 0-19.0976-10.5984H319.488c-12.2368 0-20.736-12.2368-16.4864-23.7056l64-171.776a47.6672 47.6672 0 0 1 44.6464-31.0272h211.8144c19.6608 0 37.3248 12.0832 44.4416 30.464l66.6624 172.1344c4.4544 11.52-4.0448 23.9104-16.384 23.9104h-87.1424c-8.2432 0-15.8208 4.5056-19.7632 11.7248z" fill="#FC7032" p-id="6222"></path><path d="M597.0944 397.7216h-52.6848v-16.2304h52.6848c14.1312 0 25.6-11.4688 25.6-25.6s-11.4688-25.6-25.6-25.6h-27.1872l19.8656-28.4672a25.56928 25.56928 0 0 0-6.3488-35.6352 25.56928 25.56928 0 0 0-35.6352 6.3488l-29.4912 42.24-31.2832-42.752a25.60512 25.60512 0 1 0-41.3184 30.2592l20.48 27.9552h-25.6512c-14.1312 0-25.6 11.4688-25.6 25.6s11.4688 25.6 25.6 25.6h52.6848v16.2304H440.576c-14.1312 0-25.6 11.4688-25.6 25.6s11.4688 25.6 25.6 25.6h52.6848v23.552c0 14.1312 11.4688 25.6 25.6 25.6s25.6-11.4688 25.6-25.6v-23.552h52.6848c14.1312 0 25.6-11.4688 25.6-25.6s-11.4688-25.5488-25.6512-25.5488z" fill="#FF7C33" p-id="6223"></path><path d="M721.408 227.1744a47.64672 47.64672 0 0 0-44.2368-30.0032h-319.488c-18.9952 0-36.1472 11.264-43.7248 28.672L217.088 449.2288a47.40608 47.40608 0 0 0-3.9424 18.944v243.9168c0 26.3168 21.3504 47.6672 47.6672 47.6672h242.3808a448.06144 448.06144 0 0 0 133.376-66.56H323.072a28.8768 28.8768 0 1 1 0-57.7536h376.3712c0.7168 0 1.4336 0.0512 2.1504 0.1024 49.92-53.6064 86.9376-119.3984 106.0864-192.4096L721.408 227.1744z m-3.2256 238.8992h-87.1424c-8.2432 0-15.8208 4.5056-19.7632 11.7248l-27.2384 49.8688c-2.816 5.12-8.192 8.2944-14.0288 8.2944H466.2272c-5.4784 0-10.5984-2.816-13.5168-7.4752L420.3008 476.672a22.44096 22.44096 0 0 0-19.0976-10.5984H319.488c-12.2368 0-20.736-12.2368-16.4864-23.7056l64-171.776a47.6672 47.6672 0 0 1 44.6464-31.0272h211.8144c19.6608 0 37.3248 12.0832 44.4416 30.464l66.6624 172.1344c4.5056 11.52-3.9936 23.9104-16.384 23.9104z" fill="#FF7C33" p-id="6224"></path><path d="M248.2688 619.1616c97.2288 0 187.2896-30.7712 260.9152-83.1488h-42.9568c-5.4784 0-10.5984-2.816-13.5168-7.4752L420.3008 476.672a22.44096 22.44096 0 0 0-19.0976-10.5984H319.488c-12.2368 0-20.736-12.2368-16.4864-23.7056l64-171.776a47.6672 47.6672 0 0 1 44.6464-31.0272h211.8144c19.6608 0 37.3248 12.0832 44.4416 30.464l11.6224 29.952a446.6432 446.6432 0 0 0 18.2784-98.048c-6.2976-3.072-13.3632-4.7104-20.6848-4.7104h-319.488c-18.9952 0-36.1472 11.264-43.7248 28.672L217.088 449.2288a47.40608 47.40608 0 0 0-3.9424 18.944v149.6064c11.5712 0.9216 23.296 1.3824 35.1232 1.3824z" fill="#FF9552" p-id="6225"></path><path d="M597.0944 397.7216h-52.6848v-16.2304h52.6848c14.1312 0 25.6-11.4688 25.6-25.6s-11.4688-25.6-25.6-25.6h-27.1872l19.8656-28.4672a25.56928 25.56928 0 0 0-6.3488-35.6352 25.56928 25.56928 0 0 0-35.6352 6.3488l-29.4912 42.24-31.2832-42.752a25.60512 25.60512 0 1 0-41.3184 30.2592l20.48 27.9552h-25.6512c-14.1312 0-25.6 11.4688-25.6 25.6s11.4688 25.6 25.6 25.6h52.6848v16.2304H440.576c-14.1312 0-25.6 11.4688-25.6 25.6s11.4688 25.6 25.6 25.6h52.6848v23.552c0 14.1312 11.4688 25.6 25.6 25.6s25.6-11.4688 25.6-25.6v-23.552h52.6848c1.4848 0 2.9184-0.2048 4.352-0.4608 7.3216-9.216 14.336-18.7392 20.8896-28.5184-1.6896-12.4416-12.288-22.1696-25.2928-22.1696z" fill="#FF9552" p-id="6226"></path><path d="M309.6576 424.4992l57.344-153.9072a47.6672 47.6672 0 0 1 44.6464-31.0272h110.5408c8.1408-13.6704 15.616-27.8016 22.3232-42.3936h-186.88c-18.9952 0-36.1472 11.264-43.7248 28.672L217.088 449.2288c-0.4608 1.024-0.8192 2.0992-1.1776 3.1232 32.6144-5.9392 64-15.36 93.7472-27.8528zM440.576 330.2912c-14.1312 0-25.6 11.4688-25.6 25.6 0 1.9456 0.256 3.84 0.6656 5.632 12.288-9.7792 24.064-20.224 35.2768-31.232h-10.3424z" fill="#FFA56A" p-id="6227"></path><path d="M487.0144 272.0256a25.60512 25.60512 0 1 0-41.3184 30.2592l13.9776 19.0976c12.1344-12.6464 23.552-25.9584 34.2016-39.936l-6.8608-9.4208z" fill="#FFA56A" p-id="6228"></path></svg>