<svg class="icon" style="width: 1em;height: 1em;vertical-align: middle;fill: currentColor;overflow: hidden;" viewBox="0 0 1024 1024" version="1.1" xmlns="http://www.w3.org/2000/svg" p-id="5803"><path d="M514.6112 511.3344m-450.816 0a450.816 450.816 0 1 0 901.632 0 450.816 450.816 0 1 0-901.632 0Z" fill="#FFF1DC" p-id="5804"></path><path d="M245.3504 444.5696l255.0272 118.272c6.7584 3.1232 13.9264 4.7104 21.1456 4.7104 7.5776 0 15.1552-1.7408 22.1696-5.1712l248.7296-122.2144c17.2032-8.448 27.9552-25.6 28.1088-44.8a50.05824 50.05824 0 0 0-27.5456-45.1584l-246.3744-124.9792a50.4832 50.4832 0 0 0-45.2608-0.1024L244.0192 353.9968a49.8432 49.8432 0 0 0-27.7504 45.7216c0.3072 19.456 11.4176 36.6592 29.0816 44.8512zM790.528 607.3344l-268.7488 139.008-275.5072-134.5536a32.13312 32.13312 0 0 0-42.9568 14.7456 32.13312 32.13312 0 0 0 14.7456 42.9568l277.0944 135.3216c8.3968 4.096 17.5104 6.144 26.624 6.144 9.6256 0 19.2-2.2528 27.904-6.7584l270.2848-139.8272c15.7696-8.1408 21.9136-27.5456 13.7728-43.3152-8.0896-15.7184-27.4432-21.8624-43.2128-13.7216z" fill="#FC7032" p-id="5805"></path><path d="M218.0608 558.6944l277.0944 135.3216c8.3968 4.096 17.5104 6.144 26.624 6.144 9.6256 0 19.2-2.2528 27.904-6.7584l270.2848-139.8272c15.7696-8.1408 21.9136-27.5456 13.7728-43.3152-8.1408-15.7696-27.5456-21.9136-43.3152-13.7728l-268.7488 139.008L246.272 500.992a32.11776 32.11776 0 0 0-28.2112 57.7024z" fill="#FC7032" p-id="5806"></path><path d="M501.4016 225.1264L244.0192 353.9968a49.8432 49.8432 0 0 0-27.7504 45.7216c0.3072 19.456 11.4688 36.6592 29.1328 44.8512l255.0272 118.272c6.7584 3.1232 13.9264 4.7104 21.1456 4.7104 7.5776 0 15.1552-1.7408 22.1696-5.1712l187.3408-92.0064a386.2016 386.2016 0 0 0 8.0896-78.6432c0-24.7296-2.4064-48.896-6.912-72.3456l-185.6-94.1568a50.4832 50.4832 0 0 0-45.2608-0.1024z" fill="#FF7C33" p-id="5807"></path><path d="M710.2464 538.0608l-188.416 97.4848L246.272 500.992a32.13312 32.13312 0 0 0-42.9568 14.7456 32.13312 32.13312 0 0 0 14.7456 42.9568l277.0944 135.3216c8.3968 4.096 17.5104 6.144 26.624 6.144 9.6256 0 19.2-2.2528 27.904-6.7584l94.5152-48.896a382.6944 382.6944 0 0 0 66.048-106.4448zM513.1264 742.144L246.272 611.7888a32.13312 32.13312 0 0 0-42.9568 14.7456 32.13312 32.13312 0 0 0 14.7456 42.9568l205.824 100.5056a377.856 377.856 0 0 0 89.2416-27.8528z" fill="#FF7C33" p-id="5808"></path><path d="M633.4976 269.312l-86.8864-44.0832a50.4832 50.4832 0 0 0-45.2608-0.1024L244.0192 353.9968a49.8432 49.8432 0 0 0-27.7504 45.7216c0.3072 19.456 11.4688 36.6592 29.1328 44.8512l242.2272 112.3328c85.5552-67.7376 141.6192-171.008 145.8688-287.5904zM433.8688 592.5888L246.272 500.992a32.13312 32.13312 0 0 0-42.9568 14.7456 32.13312 32.13312 0 0 0 14.7456 42.9568l136.0896 66.4576a378.83904 378.83904 0 0 0 79.7184-32.5632zM249.1392 639.7952c16.3328 0 32.3584-1.1264 48.128-3.1232l-50.9952-24.8832a32.13312 32.13312 0 0 0-42.9568 14.7456c-1.5872 3.2768-2.56 6.656-2.9696 10.0352 15.9744 2.048 32.256 3.2256 48.7936 3.2256z" fill="#FF9552" p-id="5809"></path><path d="M501.4016 225.1264L244.0192 353.9968a49.8432 49.8432 0 0 0-27.7504 45.7216c0.3072 19.456 11.4688 36.6592 29.1328 44.8512l59.5456 27.5968c106.4448-46.0288 187.904-138.7008 218.7264-252.3136-7.68 0.0512-15.3088 1.792-22.272 5.2736z" fill="#FFA56A" p-id="5810"></path></svg>