<svg class="icon" style="width: 1em;height: 1em;vertical-align: middle;fill: currentColor;overflow: hidden;" viewBox="0 0 1024 1024" version="1.1" xmlns="http://www.w3.org/2000/svg" p-id="3056"><path d="M512.0512 513.536m-450.816 0a450.816 450.816 0 1 0 901.632 0 450.816 450.816 0 1 0-901.632 0Z" fill="#E9F4FF" p-id="3057"></path><path d="M645.632 229.6832V347.136h115.2512z" fill="#3A9CED" p-id="3058"></path><path d="M617.216 403.968a28.416 28.416 0 0 1-28.416-28.416V219.0336H322.4064C288.5632 219.0336 261.12 246.4256 261.12 280.2688v466.5856c0 33.8432 27.392 61.2352 61.2352 61.2352h379.392c33.8432 0 61.2352-27.392 61.2352-61.2352V403.968h-145.7664z m36.4544 286.1568H373.4528c-15.6672 0-28.416-12.6976-28.416-28.416s12.6976-28.416 28.416-28.416h280.2176a28.416 28.416 0 0 1 0 56.832z m0-118.8864H373.4528a28.416 28.416 0 0 1 0-56.832h280.2176a28.416 28.416 0 0 1 28.416 28.416c-0.0512 15.7184-12.7488 28.416-28.416 28.416z" fill="#2595E8" p-id="3059"></path><path d="M762.9824 403.968h-145.7664a28.416 28.416 0 0 1-28.416-28.416V219.0336H322.4064C288.5632 219.0336 261.12 246.4256 261.12 280.2688v466.5856c0 21.4528 11.0592 40.2944 27.7504 51.2512 9.2672 0.5632 18.5856 0.8704 27.9552 0.8704 112.2304 0 214.8352-41.0112 293.7856-108.8512H373.4528a28.416 28.416 0 0 1 0-56.832h280.2176c3.7888 0 7.3728 0.768 10.7008 2.0992 51.456-62.208 86.528-138.4448 98.6624-222.1056V403.968z m-109.312 167.2704H373.4528a28.416 28.416 0 0 1 0-56.832h280.2176a28.416 28.416 0 0 1 0 56.832z" fill="#3A9CED" p-id="3060"></path><path d="M431.1552 571.2384H373.4528a28.416 28.416 0 0 1 0-56.832h131.072c36.5568-34.816 67.2768-75.776 90.4704-121.1392a28.29312 28.29312 0 0 1-6.2464-17.7664V219.0336H322.4064C288.5632 219.0336 261.12 246.4256 261.12 280.2688v353.5872a448.01024 448.01024 0 0 0 170.0352-62.6176z" fill="#56B0F4" p-id="3061"></path><path d="M488.8576 219.0336H322.4064C288.5632 219.0336 261.12 246.4256 261.12 280.2688v161.2288c100.3008-43.9808 181.4528-123.4432 227.7376-222.464z" fill="#6BC2FC" p-id="3062"></path></svg>