<svg class="icon" style="width: 1em;height: 1em;vertical-align: middle;fill: currentColor;overflow: hidden;" viewBox="0 0 1024 1024" version="1.1" xmlns="http://www.w3.org/2000/svg" p-id="6238"><path d="M512.768 510.1568m-450.816 0a450.816 450.816 0 1 0 901.632 0 450.816 450.816 0 1 0-901.632 0Z" fill="#E9F4FF" p-id="6239"></path><path d="M603.4432 225.536h-304.64c-37.4272 0-67.7888 30.3616-67.7888 67.7888v437.3504c0 37.4272 30.3616 67.7888 67.7888 67.7888h304.64c37.4272 0 67.7888-30.3616 67.7888-67.7888V293.3248c0-37.4272-30.3616-67.7888-67.7888-67.7888zM307.8656 363.4688h103.2192v96.9216H307.8656V363.4688z m275.1488 322.8672H333.9264c-14.3872 0-26.0608-11.6736-26.0608-26.0608s11.6736-26.0608 26.0608-26.0608h249.088c14.3872 0 26.0608 11.6736 26.0608 26.0608s-11.6736 26.0608-26.0608 26.0608z m-0.512-117.4528H334.4384c-14.6944 0-26.5728-11.8784-26.5728-26.5728 0-14.6944 11.8784-26.5728 26.5728-26.5728h248.064c14.6944 0 26.5728 11.8784 26.5728 26.5728 0 14.6432-11.8784 26.5728-26.5728 26.5728zM770.7648 395.6224h-53.7088v337.5616c0 58.9824-31.0784 58.9824-31.0784 58.9824H770.7648c24.4224 0 44.2368-19.8144 44.2368-44.2368V439.8592c0-24.4224-19.8144-44.2368-44.2368-44.2368z" fill="#2595E8" p-id="6240"></path><path d="M671.232 663.2448V293.3248c0-37.4272-30.3616-67.7888-67.7888-67.7888h-304.64c-37.4272 0-67.7888 30.3616-67.7888 67.7888v437.3504c0 26.5216 15.2576 49.408 37.376 60.5184 26.2656 4.7616 53.2992 7.2704 80.9472 7.2704 126.1056 0 240.0768-51.7632 321.8944-135.2192zM307.8656 363.4688h103.2192v96.9216H307.8656V363.4688z m275.1488 322.8672H333.9264c-14.3872 0-26.0608-11.6736-26.0608-26.0608s11.6736-26.0608 26.0608-26.0608h249.088c14.3872 0 26.0608 11.6736 26.0608 26.0608s-11.6736 26.0608-26.0608 26.0608z m26.0608-144.0256c0 14.6944-11.8784 26.5728-26.5728 26.5728H334.4384c-14.6944 0-26.5728-11.8784-26.5728-26.5728 0-14.6944 11.8784-26.5728 26.5728-26.5728h248.064c14.6944 0 26.5728 11.8784 26.5728 26.5728zM796.672 404.0192a43.84256 43.84256 0 0 0-25.856-8.3968h-53.7088v212.8896a448.7936 448.7936 0 0 0 79.5648-204.4928z" fill="#3A9CED" p-id="6241"></path><path d="M603.4432 225.536h-304.64c-37.4272 0-67.7888 30.3616-67.7888 67.7888v344.9856c86.5792-0.9216 167.2704-26.2656 235.5712-69.4272H334.4384c-14.6944 0-26.5728-11.8784-26.5728-26.5728 0-14.6944 11.8784-26.5728 26.5728-26.5728h200.6528c67.2256-63.3856 114.9952-147.1488 133.376-241.4592-8.2432-28.16-34.2016-48.7424-65.024-48.7424zM411.0848 460.3904H307.8656V363.4688h103.2192v96.9216z" fill="#59ADF8" p-id="6242"></path><path d="M307.8656 434.4832V363.4688h103.2192v2.3552a453.12 453.12 0 0 0 106.9056-140.3392H298.8032c-37.4272 0-67.7888 30.3616-67.7888 67.7888v169.7792c26.6752-7.168 52.3776-16.7936 76.8512-28.5696z" fill="#6BC2FC" p-id="6243"></path></svg>