<svg class="icon" style="width: 1em;height: 1em;vertical-align: middle;fill: currentColor;overflow: hidden;" viewBox="0 0 1024 1024" version="1.1" xmlns="http://www.w3.org/2000/svg" p-id="3221"><path d="M511.744 519.8336m-450.816 0a450.816 450.816 0 1 0 901.632 0 450.816 450.816 0 1 0-901.632 0Z" fill="#FFE3DB" p-id="3222"></path><path d="M481.9456 424.3968H241.3568c-10.3936 0-18.7904 8.3968-18.7904 18.7904v98.6624c0 10.3936 8.3968 18.7904 18.7904 18.7904h13.5168v219.4432c0 23.8592 19.3536 43.2128 43.2128 43.2128h183.808V424.3968z" fill="#FC4956" p-id="3223"></path><path d="M785.4592 424.3968h-240.5888v398.8992h182.9376c23.8592 0 43.2128-19.3536 43.2128-43.2128V560.64h14.3872c10.3936 0 18.7904-8.3968 18.7904-18.7904V443.1872c0-10.3936-8.3968-18.7904-18.7392-18.7904z" fill="#F23D4F" p-id="3224"></path><path d="M343.552 384.9728h328.3456c30.1056 0 85.1456-25.344 81.2032-51.0976-3.9424-25.7536-86.016-124.0064-133.632-124.0064-23.6032 0-66.816 71.6288-79.4624 124.8768H487.6288S453.12 209.4592 394.6496 209.4592s-141.9264 107.4176-141.9264 136.192c0 28.8256 58.0608 39.3216 90.8288 39.3216zM544.8192 798.8736c138.1376-70.7072 234.9568-210.6368 244.8384-373.9648-1.3824-0.3072-2.7648-0.512-4.2496-0.512h-240.5888v374.4768z" fill="#FC4956" p-id="3225"></path><path d="M540.0576 334.7456H487.68S453.12 209.4592 394.6496 209.4592c-58.5216 0-141.9264 107.4176-141.9264 136.2432S310.784 385.024 343.552 385.024h298.8544a450.74432 450.74432 0 0 0 24.7808-147.712c0-2.2016-0.0512-4.352-0.1024-6.5536-16.9472-12.4416-33.7408-20.8384-47.616-20.8384-23.552-0.0512-66.7648 71.5776-79.4112 124.8256zM222.5664 443.1872v98.6624c0 10.3936 8.3968 18.7904 18.7904 18.7904h13.5168v125.7472c84.48-7.168 162.304-37.5808 227.072-84.8896v-177.152H241.3568a18.87744 18.87744 0 0 0-18.7904 18.8416zM626.6368 424.3968h-81.7664v121.6a452.5312 452.5312 0 0 0 81.7664-121.6z" fill="#FF5C64" p-id="3226"></path><path d="M483.072 320.2048C471.9104 287.232 440.7296 209.408 394.6496 209.408c-58.5216 0-141.9264 107.4176-141.9264 136.2432s58.0608 39.3216 90.8288 39.3216h89.2928a446.976 446.976 0 0 0 50.2272-64.768zM391.168 424.3968H241.3568c-10.3936 0-18.7904 8.3968-18.7904 18.7904v69.2736c62.72-17.2032 119.9616-47.616 168.6016-88.064z" fill="#FF716E" p-id="3227"></path></svg>