<svg class="icon" style="width: 1em;height: 1em;vertical-align: middle;fill: currentColor;overflow: hidden;" viewBox="0 0 1024 1024" version="1.1" xmlns="http://www.w3.org/2000/svg" p-id="4683"><path d="M512.9728 508.0064m-450.816 0a450.816 450.816 0 1 0 901.632 0 450.816 450.816 0 1 0-901.632 0Z" fill="#E9F4FF" p-id="4684"></path><path d="M726.3232 260.352H299.6224c-45.1072 0-81.664 36.5568-81.664 81.664v322.8672c0 45.1072 36.5568 81.664 81.664 81.664h426.7008c45.1072 0 81.664-36.5568 81.664-81.664V342.016c0-45.1072-36.5568-81.664-81.664-81.664zM346.0608 505.0368L452.096 405.9136a29.88032 29.88032 0 0 1 40.0384-0.7168l39.168 34.048 58.5728-58.0096h-32.4096c-16.5376 0-29.9008-13.4144-29.9008-29.9008s13.4144-29.9008 29.9008-29.9008h102.912a29.9008 29.9008 0 0 1 29.9008 29.9008v94.72a29.9008 29.9008 0 0 1-59.8016 0v-20.736l-76.8 75.9808a29.9264 29.9264 0 0 1-40.6528 1.3312l-39.7312-34.56-86.3232 80.6912a29.9008 29.9008 0 0 1-20.4288 8.0384 29.8496 29.8496 0 0 1-21.8624-9.472 29.83424 29.83424 0 0 1 1.3824-42.2912z m380.7232 167.0656H307.6096a29.9008 29.9008 0 0 1 0-59.8016h419.1744a29.9008 29.9008 0 0 1 29.9008 29.9008c0 16.5376-13.3632 29.9008-29.9008 29.9008z" fill="#2595E8" p-id="4685"></path><path d="M781.7728 282.2144c-14.592-13.5168-34.048-21.8624-55.5008-21.8624H299.6224c-45.1072 0-81.664 36.5568-81.664 81.664v322.8672c0 45.1072 36.5568 81.664 81.664 81.664h239.0528a449.98144 449.98144 0 0 0 105.8304-74.4448h-336.896a29.9008 29.9008 0 0 1 0-59.8016h390.0416c55.552-74.9568 88.3712-167.68 88.3712-268.1344 0.0512-21.0432-1.4336-41.6768-4.2496-61.952z m-91.4432 163.7888a29.9008 29.9008 0 0 1-59.8016 0v-20.736l-76.8 75.9808a29.9264 29.9264 0 0 1-40.6528 1.3312l-39.7312-34.56-86.3232 80.6912a29.9008 29.9008 0 0 1-20.4288 8.0384 29.8496 29.8496 0 0 1-21.8624-9.472c-11.264-12.0832-10.6496-31.0272 1.4336-42.2912L452.096 405.9136a29.88032 29.88032 0 0 1 40.0384-0.7168l39.168 34.048 58.5728-58.0096h-32.4096a29.9008 29.9008 0 0 1 0-59.8016h102.912a29.9008 29.9008 0 0 1 29.9008 29.9008v94.6688z" fill="#3A9CED" p-id="4686"></path><path d="M280.4736 629.6576c4.7616-10.24 15.104-17.408 27.136-17.408h45.4656c64.9728-21.4016 123.392-57.1904 171.52-103.5264-4.1472-1.1776-8.192-3.1232-11.6224-6.144l-39.7312-34.56-86.3232 80.6912a29.9008 29.9008 0 0 1-20.4288 8.0384 29.8496 29.8496 0 0 1-21.8624-9.472c-11.264-12.0832-10.6496-31.0272 1.4336-42.2912L452.096 405.9136a29.88032 29.88032 0 0 1 40.0384-0.7168l39.168 34.048 58.5728-58.0096h-32.4096a29.9008 29.9008 0 0 1 0-59.8016h83.9168c6.2976-19.7632 11.3152-40.1408 14.848-61.0304H299.6224c-45.1072 0-81.664 36.5568-81.664 81.664v292.7616c21.1968-0.3072 42.0864-2.048 62.5152-5.1712z" fill="#59ADF8" p-id="4687"></path><path d="M482.7648 260.352H299.6224c-45.1072 0-81.664 36.5568-81.664 81.664v117.2992c111.4624-30.5664 205.6704-102.8096 264.8064-198.9632z" fill="#6BC2FC" p-id="4688"></path></svg>