<svg class="icon" style="width: 1em;height: 1em;vertical-align: middle;fill: currentColor;overflow: hidden;" viewBox="0 0 1024 1024" version="1.1" xmlns="http://www.w3.org/2000/svg" p-id="6060"><path d="M517.888 518.7584m-450.816 0a450.816 450.816 0 1 0 901.632 0 450.816 450.816 0 1 0-901.632 0Z" fill="#E9ECFF" p-id="6061"></path><path d="M745.9328 260.8128H290.6624c-38.2464 0-69.2736 31.0272-69.2736 69.2736v319.1808c0 38.2464 31.0272 69.2736 69.2736 69.2736h455.2704c38.2464 0 69.2736-31.0272 69.2736-69.2736V330.0864c0-38.2464-31.0272-69.2736-69.2736-69.2736z m-75.4176 198.144l-84.736 77.9264a33.9456 33.9456 0 0 1-45.9264 0l-55.3472-50.944-72.2432 68.0448a33.8944 33.8944 0 0 1-23.2448 9.216 33.8944 33.8944 0 0 1-23.2448-58.5728l95.2832-89.7024a33.96096 33.96096 0 0 1 46.2336-0.256l55.6032 51.2L624.64 409.088c13.7728-12.6976 35.2256-11.776 47.9232 1.9968 12.6464 13.7728 11.776 35.2256-2.048 47.872zM675.072 752.6912H361.472c-18.7392 0-33.8944 15.2064-33.8944 33.8944 0 18.7392 15.2064 33.8944 33.8944 33.8944h313.6c18.7392 0 33.8944-15.2064 33.8944-33.8944 0.0512-18.7392-15.1552-33.8944-33.8944-33.8944z" fill="#6C6CEA" p-id="6062"></path><path d="M745.9328 260.8128H290.6624c-38.2464 0-69.2736 31.0272-69.2736 69.2736v319.1808c0 38.2464 31.0272 69.2736 69.2736 69.2736h314.9824c124.8256-80.1792 207.5136-220.2112 207.5136-379.5968 0-9.728-0.3584-19.3536-0.9728-28.928-8.5504-28.4672-34.9696-49.2032-66.2528-49.2032z m-75.4176 198.144l-84.736 77.9264a33.9456 33.9456 0 0 1-45.9264 0l-55.3472-50.944-72.2432 68.0448a33.8944 33.8944 0 0 1-23.2448 9.216 33.8944 33.8944 0 0 1-23.2448-58.5728l95.2832-89.7024a33.96096 33.96096 0 0 1 46.2336-0.256l55.6032 51.2L624.64 409.088c13.7728-12.6976 35.2256-11.776 47.9232 1.9968 12.6464 13.7728 11.776 35.2256-2.048 47.872zM541.696 752.6912H361.472c-18.7392 0-33.8944 15.2064-33.8944 33.8944 0 0.6144 0.0512 1.2288 0.1024 1.8944 11.4688 0.8704 23.04 1.3312 34.7136 1.3312 63.6928-0.0512 124.3136-13.312 179.3024-37.12z" fill="#757BF2" p-id="6063"></path><path d="M290.6624 260.8128c-38.2464 0-69.2736 31.0272-69.2736 69.2736v299.2128c5.8368 0.2048 11.7248 0.3584 17.664 0.3584 109.6704 0 210.176-39.168 288.3072-104.2944l-42.8544-39.4752-72.2432 68.096a33.8944 33.8944 0 0 1-23.2448 9.216 33.8944 33.8944 0 0 1-23.2448-58.5728l95.2832-89.7024a33.96096 33.96096 0 0 1 46.2336-0.256l55.6032 51.2L624.64 409.088c1.2288-1.1264 2.56-2.0992 3.8912-3.0208a448.59904 448.59904 0 0 0 53.9136-145.2032H290.6624z" fill="#8486F8" p-id="6064"></path><path d="M221.3888 330.0864v129.8432c119.552-25.856 221.44-99.072 284.9792-199.1168H290.6624c-38.2464 0-69.2736 31.0272-69.2736 69.2736z" fill="#8D92F8" p-id="6065"></path></svg>