<svg class="icon" style="width: 1em;height: 1em;vertical-align: middle;fill: currentColor;overflow: hidden;" viewBox="0 0 1024 1024" version="1.1" xmlns="http://www.w3.org/2000/svg" p-id="1090"><path d="M513.9968 511.3856m-450.816 0a450.816 450.816 0 1 0 901.632 0 450.816 450.816 0 1 0-901.632 0Z" fill="#FFE3DB" p-id="1091"></path><path d="M278.272 777.984c-9.3184-84.5312-18.5856-168.704-27.904-253.5424h-24.6272c-21.5552 0-39.0144-17.4592-39.0144-39.0144v-50.176c0-21.5552 17.4592-39.0144 39.0144-39.0144h24.3712c11.1616-74.1888 46.336-133.632 106.9056-177.152 44.6976-32.1024 95.232-46.7456 150.016-47.0528 108.1856-0.6144 233.8304 78.9504 253.696 224h27.8528c21.5552 0 39.0144 17.4592 39.0144 39.0144v49.8688c0 21.5552-17.4592 39.0144-39.0144 39.0144h-24.3712c-9.8816 85.0432-19.6608 169.472-29.4912 254.2592a39.03488 39.03488 0 0 1-38.7584 34.56h-378.88c-19.9168 0.0512-36.608-14.9504-38.8096-34.7648z m416.4608-382.4128C683.776 313.5488 607.232 234.0864 503.1936 235.52c-108.288 1.4848-177.92 84.9408-187.5968 160.0512h379.136z m-284.0576 321.0752v-159.9488H346.7776v159.9488h63.8976z m128.6656 0v-159.9488H475.392v159.9488h63.9488z m128-159.7952h-63.3856v159.6416h63.3856v-159.6416z" fill="#F23D4F" p-id="1092"></path><path d="M789.6064 396.0832c-0.3584 0-0.6656-0.0512-0.9728-0.0512h-27.8528c-19.8656-145.0496-145.5104-224.6144-253.696-224-54.784 0.3072-105.3696 14.8992-150.016 47.0528-60.5696 43.52-95.744 102.9632-106.9056 177.152H225.792a39.0144 39.0144 0 0 0-39.0144 39.0656v50.176c0 21.5552 17.4592 39.0656 39.0144 39.0656h24.6272c9.3184 84.7872 18.6368 169.0112 27.904 253.5424a39.07072 39.07072 0 0 0 38.8096 34.7648h115.3536c74.0864-15.5136 141.4656-49.2544 197.2736-96.3072h-25.7536v-159.6416h63.3856v124.1088c70.912-75.264 116.3264-174.848 122.2144-284.928z m-378.9312 320.5632H346.7776v-159.9488h63.8976v159.9488z m128.6656 0H475.392v-159.9488h63.9488v159.9488zM315.648 395.5712C325.3248 320.4608 394.9056 237.0048 503.1936 235.52c104.0384-1.4336 180.5824 78.0288 191.488 160.0512H315.648z" fill="#FC4956" p-id="1093"></path><path d="M346.7776 556.6976h63.8976v61.5936a450.7648 450.7648 0 0 0 64.7168-37.9392v-23.6032h30.6688a452.82304 452.82304 0 0 0 121.7536-161.1264H315.6992C325.3248 320.4608 394.9056 237.0048 503.1936 235.52c64.8704-0.8704 119.04 29.696 153.2928 72.704a457.216 457.216 0 0 0 10.0864-79.1552c-47.36-37.7344-105.5744-57.344-159.5392-57.0368-54.784 0.3072-105.3696 14.8992-150.016 47.0528-60.5696 43.52-95.744 102.9632-106.9056 177.152h-24.3712a39.0144 39.0144 0 0 0-39.0144 39.0656v50.176c0 21.5552 17.4592 39.0656 39.0144 39.0656h24.6272c4.9664 45.1584 9.9328 90.1632 14.8992 135.168 28.0064-3.0208 55.296-8.6528 81.5104-16.5888v-86.4256z" fill="#FF5C64" p-id="1094"></path><path d="M315.648 395.5712C325.3248 320.4608 394.9056 237.0048 503.1936 235.52c3.7888-0.0512 7.5776 0.0512 11.3152 0.2048 8.9088-19.9168 16.384-40.5504 22.3744-61.8496-10.0352-1.28-19.968-1.8944-29.7984-1.8432-54.784 0.3072-105.3696 14.8992-150.016 47.0528-60.5696 43.52-95.744 102.9632-106.9056 177.152H225.792a39.0144 39.0144 0 0 0-39.0144 39.0656v50.176c0 3.2256 0.4096 6.2976 1.1776 9.2672a449.29536 449.29536 0 0 0 206.6944-99.1232c-26.4192-0.0512-52.736-0.0512-79.0016-0.0512z" fill="#FF716E" p-id="1095"></path></svg>