<svg class="icon" style="width: 1em;height: 1em;vertical-align: middle;fill: currentColor;overflow: hidden;" viewBox="0 0 1024 1024" version="1.1" xmlns="http://www.w3.org/2000/svg" p-id="5918"><path d="M514.6112 518.7584m-450.816 0a450.816 450.816 0 1 0 901.632 0 450.816 450.816 0 1 0-901.632 0Z" fill="#E9ECFF" p-id="5919"></path><path d="M794.1632 722.7904h-38.2976V417.3824c0-11.6736-9.472-21.1456-21.1456-21.1456h-81.5616c-11.6736 0-21.1456 9.472-21.1456 21.1456v305.408h-58.2656v-198.8608c0-11.6736-9.472-21.1456-21.1456-21.1456H471.0912c-11.6736 0-21.1456 9.472-21.1456 21.1456v198.8608H394.0352v-89.7024c0-11.6736-9.472-21.1456-21.1456-21.1456H291.328c-11.6736 0-21.1456 9.472-21.1456 21.1456v89.7024h-36.608c-17.4592 0-31.6416 14.1824-31.6416 31.6416 0 17.4592 14.1824 31.6416 31.6416 31.6416h560.5888c17.4592 0 31.6416-14.1824 31.6416-31.6416 0.0512-17.4592-14.1312-31.6416-31.6416-31.6416z" fill="#6C6CEA" p-id="5920"></path><path d="M283.6992 543.232c7.5264 0 15.104-2.6624 21.1456-8.1408l155.5456-140.032 45.0048 35.1232a31.65696 31.65696 0 0 0 40.96-1.7408l112.7936-104.448v7.168c0 17.4592 14.1824 31.6416 31.6416 31.6416 17.4592 0 31.6416-14.1824 31.6416-31.6416V246.3744c0-17.4592-14.1824-31.6416-31.6416-31.6416h-88.064c-17.4592 0-31.6416 14.1824-31.6416 31.6416s14.1824 31.6416 31.6416 31.6416h12.8512l-92.5184 85.6576-44.6976-34.8672a31.60064 31.60064 0 0 0-40.6528 1.4336L262.5024 488.0896c-13.0048 11.6736-14.0288 31.6928-2.3552 44.6976a31.6928 31.6928 0 0 0 23.552 10.4448zM755.9168 567.8592V417.3824c0-11.6736-9.472-21.1456-21.1456-21.1456h-81.5616c-11.6736 0-21.1456 9.472-21.1456 21.1456v305.408h-58.2656v-198.8608c0-11.6736-9.472-21.1456-21.1456-21.1456H471.0912c-11.6736 0-21.1456 9.472-21.1456 21.1456v198.8608H394.0352v-89.7024c0-11.6736-9.472-21.1456-21.1456-21.1456H291.328c-11.6736 0-21.1456 9.472-21.1456 21.1456v89.7024h-36.608c-17.4592 0-31.6416 14.1824-31.6416 31.6416s14.1824 31.6416 31.6416 31.6416h352.9216c78.7968-50.7904 139.264-127.5392 169.4208-218.2144z" fill="#757BF2" p-id="5921"></path><path d="M571.136 246.3744c0 17.4592 14.1824 31.6416 31.6416 31.6416h12.8512l-92.5184 85.6576-44.6976-34.8672a31.60064 31.60064 0 0 0-40.6528 1.4336L262.5024 488.0896c-13.0048 11.6736-14.0288 31.6928-2.3552 44.6976a31.55968 31.55968 0 0 0 23.552 10.496c7.5264 0 15.104-2.6624 21.1456-8.1408l155.5456-140.032 45.0048 35.1232a31.65696 31.65696 0 0 0 40.96-1.7408l112.7936-104.448v7.168c0 2.8672 0.4096 5.6832 1.1264 8.3456 1.9968-16.5376 3.1232-33.28 3.1232-50.3296 0-25.3952-2.4064-50.2272-6.7584-74.3936h-53.9136c-17.4592-0.1024-31.5904 14.08-31.5904 31.5392zM649.3184 396.6464a21.10464 21.10464 0 0 0-17.2544 20.736v30.3104a409.6512 409.6512 0 0 0 17.2544-51.0464zM449.9456 523.9296v128.3584a417.45408 417.45408 0 0 0 123.8528-105.472v-22.8864c0-11.6736-9.472-21.1456-21.1456-21.1456H471.0912c-11.6736 0-21.1456 9.472-21.1456 21.1456zM394.0352 678.2464v-45.1072c0-11.6736-9.472-21.1456-21.1456-21.1456H291.328c-11.6736 0-21.1456 9.472-21.1456 21.1456v71.0144a415.744 415.744 0 0 0 123.8528-25.9072z" fill="#8486F8" p-id="5922"></path><path d="M478.4128 328.8576a31.60064 31.60064 0 0 0-40.6528 1.4336L262.5024 488.0896c-13.0048 11.6736-14.0288 31.6928-2.3552 44.6976a31.55968 31.55968 0 0 0 23.552 10.496c7.5264 0 15.104-2.6624 21.1456-8.1408l155.5456-140.032 15.2576 11.8784c12.6976-16.896 24.1664-34.816 34.2016-53.6064l-31.4368-24.5248z" fill="#8D92F8" p-id="5923"></path></svg>