<svg class="icon" style="width: 1em;height: 1em;vertical-align: middle;fill: currentColor;overflow: hidden;" viewBox="0 0 1024 1024" version="1.1" xmlns="http://www.w3.org/2000/svg" p-id="1025"><path d="M512.6656 510.464m-450.816 0a450.816 450.816 0 1 0 901.632 0 450.816 450.816 0 1 0-901.632 0Z" fill="#E3FFF3" p-id="1026"></path><path d="M294.2464 266.3936a76.288 70.8608 90 1 0 141.7216 0 76.288 70.8608 90 1 0-141.7216 0Z" fill="#48E1AA" p-id="1027"></path><path d="M456.6016 260.4544a61.1328 56.7808 90 1 0 113.5616 0 61.1328 56.7808 90 1 0-113.5616 0Z" fill="#3CD38E" p-id="1028"></path><path d="M590.2848 295.0656a50.8416 47.2576 90 1 0 94.5152 0 50.8416 47.2576 90 1 0-94.5152 0Z" fill="#1DCE75" p-id="1029"></path><path d="M701.9008 357.2736a39.4752 36.7104 90 1 0 73.4208 0 39.4752 36.7104 90 1 0-73.4208 0Z" fill="#1DCE75" p-id="1030"></path><path d="M719.0016 453.8368c-29.7984-69.376-73.1648-79.616-96.512-85.6064-30.8736-7.8848-141.568-16.2304-243.5584 5.888-38.4512 8.0896-101.7856 63.0784-35.4304 141.3632 20.3776 21.9136 73.5232 71.424 28.672 170.8032s11.3152 172.032 119.9104 169.5744c108.5952-2.4576 165.5296-81.152 188.1088-141.9776 22.5792-60.8768 68.608-190.6688 38.8096-260.0448z m-67.7376 177.3568c-4.352 9.6768-13.3632 15.36-22.7328 15.36-3.6864 0-7.424-0.8704-10.9568-2.7136-12.544-6.5536-17.8176-22.784-11.7248-36.3008 32-71.168 7.1168-121.344 6.0416-123.4432-6.9632-13.0048-2.7648-29.4912 9.2672-37.0176 12.0832-7.5264 27.5968-2.9696 34.56 10.0352 1.5872 3.1232 39.6288 75.9296-4.4544 174.08z" fill="#05C46D" p-id="1031"></path><path d="M716.544 598.6816c12.4928-52.3264 18.5344-107.3664 2.4064-144.8448-29.7984-69.376-73.1648-79.616-96.512-85.6064-30.8736-7.8848-141.568-16.2304-243.5584 5.888-38.4512 8.0896-101.7856 63.0784-35.4304 141.3632 20.3776 21.9136 73.5232 71.424 28.672 170.8032-24.4736 54.2208-18.8416 100.4032 8.9088 130.8672 143.0016-16.64 265.5232-100.1984 335.5136-218.4704z m-88.064 47.872c-3.6864 0-7.424-0.8704-10.9568-2.7136-12.544-6.5536-17.8176-22.784-11.7248-36.3008 32-71.168 7.1168-121.344 6.0416-123.4432-6.9632-13.0048-2.7648-29.4912 9.2672-37.0176 12.0832-7.5264 27.5968-2.9696 34.56 10.0352 1.6384 3.072 39.6288 75.8784-4.4544 174.0288-4.3008 9.7792-13.312 15.4112-22.7328 15.4112z" fill="#1DCE75" p-id="1032"></path><path d="M637.5424 244.224c-26.112 0-47.2576 22.784-47.2576 50.8416 0 27.0848 19.6608 49.152 44.4928 50.688a444.91264 444.91264 0 0 0 19.4048-98.2528c-5.1712-2.0992-10.752-3.2768-16.64-3.2768zM378.9312 374.1184c-38.4512 8.0896-101.7856 63.0784-35.4304 141.3632 15.2576 16.4352 48.9984 48.384 45.9776 105.3184 108.7488-48.7936 194.6112-139.4688 237.1584-251.4944-1.4336-0.3584-2.816-0.7168-4.096-1.0752-30.9248-7.8848-141.6192-16.2304-243.6096 5.888z" fill="#3CD38E" p-id="1033"></path><path d="M378.9312 374.1184c-24.6784 5.2224-59.5456 29.7472-63.8464 67.2768a452.40832 452.40832 0 0 0 95.6928-73.216c-10.6496 1.6896-21.2992 3.6352-31.8464 5.9392zM513.3824 199.3216c-31.3856 0-56.7808 27.3408-56.7808 61.1328 0 13.9776 4.4032 26.7776 11.7248 37.0688 19.968-30.3104 36.4032-63.1808 48.64-97.9968-1.1776-0.1024-2.3552-0.2048-3.584-0.2048z" fill="#48E1AA" p-id="1034"></path></svg>