<svg class="icon" style="width: 1em;height: 1em;vertical-align: middle;fill: currentColor;overflow: hidden;" viewBox="0 0 1024 1024" version="1.1" xmlns="http://www.w3.org/2000/svg" p-id="2478"><path d="M511.232 512.768m-450.816 0a450.816 450.816 0 1 0 901.632 0 450.816 450.816 0 1 0-901.632 0Z" fill="#FFE3DB" p-id="2479"></path><path d="M511.232 172.6464c-187.8528 0-340.1216 152.2688-340.1216 340.1216 0 187.8528 152.2688 340.1216 340.1216 340.1216s340.1216-152.2688 340.1216-340.1216c0.0512-187.8528-152.2688-340.1216-340.1216-340.1216z m210.176 441.2928c-39.68 80.6912-120.1152 130.816-210.0224 130.816-68.0448 0-131.2256-29.6448-174.7968-78.4896v4.1472a23.552 23.552 0 0 1-47.104 0v-89.344c0-11.4688 8.2432-21.248 19.5584-23.1936a23.5008 23.5008 0 0 1 26.1632 15.36c26.3168 74.4448 97.1264 124.416 176.128 124.416 71.7824 0 136.0384-40.0384 167.7312-104.4992a23.57248 23.57248 0 0 1 31.5392-10.752 23.54688 23.54688 0 0 1 10.8032 31.5392z m-142.2848-146.1248a23.552 23.552 0 0 1 0 47.104h-41.216v18.2272h41.216a23.552 23.552 0 0 1 0 47.104h-41.216v37.8368a23.552 23.552 0 0 1-47.104 0v-37.8368h-41.216a23.552 23.552 0 0 1 0-47.104h41.216v-18.2272h-41.216a23.552 23.552 0 0 1 0-47.104h10.9056l-29.8496-32.3072c-8.8064-9.5744-8.2432-24.4736 1.3312-33.28 9.5744-8.8064 24.4736-8.2432 33.28 1.3312l49.2544 53.3504 50.6368-53.5552a23.49568 23.49568 0 0 1 33.28-0.9216c9.4208 8.96 9.8816 23.8592 0.9216 33.28l-30.3616 32.1024h10.1376z m150.6816-36.2496c0 11.264-7.9872 20.9408-18.9952 23.0912-1.536 0.3072-3.0208 0.4608-4.5568 0.4608-9.4208 0-18.1248-5.6832-21.8112-14.6432-28.8256-70.656-96.7168-116.3264-173.0048-116.3264-71.1168 0-135.1168 39.5264-167.0144 103.1168a23.53152 23.53152 0 0 1-31.5904 10.496 23.53152 23.53152 0 0 1-10.496-31.5904c39.9872-79.616 120.1152-129.0752 209.1008-129.0752 66.5088 0 127.9488 27.6992 171.264 74.3936v-4.864a23.552 23.552 0 0 1 47.104 0v84.9408z" fill="#F23D4F" p-id="2480"></path><path d="M717.9776 620.6976c57.2928-68.5568 94.6176-154.4704 102.9632-248.6272-53.5552-117.6064-171.9808-199.424-309.6576-199.424-187.8528 0-340.1216 152.2688-340.1216 340.1216 0 106.24 48.7424 201.1136 125.0816 263.4752 24.6272 4.1472 49.92 6.3488 75.7248 6.3488 70.0928 0 136.4992-16.0256 195.6864-44.544-18.0736 4.4032-36.9152 6.7072-56.1664 6.7072-68.0448 0-131.2256-29.6448-174.7968-78.4896v4.1472a23.552 23.552 0 0 1-47.104 0v-89.344c0-11.4688 8.2432-21.248 19.5584-23.1936a23.5008 23.5008 0 0 1 26.1632 15.36c26.3168 74.4448 97.1264 124.416 176.128 124.416 71.7824 0 136.0384-40.0384 167.7312-104.4992a23.57248 23.57248 0 0 1 31.5392-10.752 23.57248 23.57248 0 0 1 10.752 31.5392c-1.1776 2.304-2.304 4.5568-3.4816 6.7584z m-138.8544-152.8832a23.552 23.552 0 0 1 0 47.104h-41.216v18.2272h41.216a23.552 23.552 0 0 1 0 47.104h-41.216v37.8368a23.552 23.552 0 0 1-47.104 0v-37.8368h-41.216a23.552 23.552 0 0 1 0-47.104h41.216v-18.2272h-41.216a23.552 23.552 0 0 1 0-47.104h10.9056l-29.8496-32.3072c-8.8064-9.5744-8.2432-24.4736 1.3312-33.28 9.5744-8.8064 24.4736-8.2432 33.28 1.3312l49.2544 53.3504 50.6368-53.5552a23.49568 23.49568 0 0 1 33.28-0.9216 23.49568 23.49568 0 0 1 0.9216 33.28l-30.3616 32.1024h10.1376z m131.6864-13.1584c-1.536 0.3072-3.0208 0.4608-4.5568 0.4608-9.4208 0-18.1248-5.6832-21.8112-14.6432-28.8256-70.656-96.7168-116.3264-173.0048-116.3264-71.1168 0-135.1168 39.5264-167.0144 103.1168a23.53152 23.53152 0 0 1-31.5904 10.496 23.53152 23.53152 0 0 1-10.496-31.5904c39.9872-79.616 120.1152-129.0752 209.1008-129.0752 66.5088 0 127.9488 27.6992 171.264 74.3936v-4.864a23.552 23.552 0 0 1 47.104 0v84.9408c0 11.264-7.9872 20.9408-18.9952 23.0912z" fill="#FC4956" p-id="2481"></path><path d="M537.9072 517.376l2.9184-2.4576h-2.9184v2.4576zM171.1104 512.768c0 36.9152 5.9392 72.3968 16.8448 105.6768 19.8144 2.6624 40.0896 4.096 60.6208 4.096 13.824 0 27.4944-0.6656 40.96-1.8944v-39.5264c0-11.4688 8.2432-21.248 19.5584-23.1936a23.5008 23.5008 0 0 1 26.1632 15.36c4.6592 13.1584 10.752 25.5488 17.9712 37.0176 30.976-7.3728 60.7232-17.92 88.8832-31.3344-9.3184-3.1232-16.0768-11.8272-16.0768-22.2208a23.552 23.552 0 0 1 23.552-23.552h41.216v-18.2272h-41.216a23.552 23.552 0 0 1 0-47.104h10.9056l-29.8496-32.3072c-8.8064-9.5744-8.2432-24.4736 1.3312-33.28 9.5744-8.8064 24.4736-8.2432 33.28 1.3312l49.2544 53.3504 50.6368-53.5552a23.49568 23.49568 0 0 1 33.28-0.9216 23.49568 23.49568 0 0 1 0.9216 33.28l-30.3616 32.1024h10.0352c2.816 0 5.5296 0.5632 8.0384 1.4848a450.9696 450.9696 0 0 0 60.0064-86.8864c-34.56-36.608-83.1488-58.3168-135.7312-58.3168-71.1168 0-135.1168 39.5264-167.0144 103.1168a23.53152 23.53152 0 0 1-31.5904 10.496 23.53152 23.53152 0 0 1-10.496-31.5904c39.9872-79.616 120.1152-129.0752 209.1008-129.0752 59.3408 0 114.6368 22.1184 156.672 60.0576a446.66368 446.66368 0 0 0 27.904-109.8752c-53.1968-34.5088-116.5824-54.5792-184.7296-54.5792-187.8016-0.0512-340.0704 152.2176-340.0704 340.0704z" fill="#FF5C64" p-id="2482"></path><path d="M358.2464 404.0192A451.81952 451.81952 0 0 0 450.5088 334.336a185.05728 185.05728 0 0 0-92.2624 69.6832zM175.0016 461.2096c45.312-3.9424 88.7296-14.6432 129.1776-31.0272-4.8128-6.8608-5.9392-16.0768-1.8944-24.064C340.48 330.0352 415.3856 281.6 499.6608 277.4528a448.9984 448.9984 0 0 0 55.7568-101.888c-14.4896-1.8944-29.184-2.9696-44.1856-2.9696-170.2912 0.0512-311.3984 125.2352-336.2304 288.6144z" fill="#FF716E" p-id="2483"></path></svg>