<svg class="icon" style="width: 1em;height: 1em;vertical-align: middle;fill: currentColor;overflow: hidden;" viewBox="0 0 1024 1024" version="1.1" xmlns="http://www.w3.org/2000/svg" p-id="2859"><path d="M508.416 513.1264m-450.816 0a450.816 450.816 0 1 0 901.632 0 450.816 450.816 0 1 0-901.632 0Z" fill="#E9ECFF" p-id="2860"></path><path d="M781.7728 451.1232c-44.4416-35.072-89.2416-49.92-133.5808-44.5952-4.1472 0.512-6.1952 5.2736-3.6352 8.6016 59.8016 78.3872 108.2368 182.5792 119.3984 318.5664 0.4096 4.864 6.4512 6.7584 9.5232 3.0208a340.8896 340.8896 0 0 0 78.336-209.2032c0.0512-1.1776-0.3072-2.3552-0.9728-3.2768-12.0832-16.6912-36.1984-47.2064-69.0688-73.1136zM582.5024 345.6c4.608 4.4544 9.216 9.0112 13.7728 13.7216 1.4336 1.4336 3.5328 1.9456 5.4784 1.3312 72.0384-23.4496 146.0736-7.0144 215.4496 48.2816 2.9696 2.3552 5.8368 4.7104 8.6528 7.1168 4.1472 3.5328 10.3424-0.5632 8.6528-5.6832a341.48352 341.48352 0 0 0-69.4272-119.7568c-0.9728-1.0752-2.304-1.7408-3.7888-1.792-38.3488-1.8432-99.328 5.376-177.7152 48.2304-3.1744 1.6896-3.6864 6.0416-1.0752 8.5504z" fill="#6C6CEA" p-id="2861"></path><path d="M514.8672 288.768c5.1712 3.7888 10.2912 7.68 15.4112 11.6736 1.7408 1.3312 4.1472 1.4848 6.0416 0.3584 59.392-35.4816 111.7184-53.2992 155.136-61.2864 4.8128-0.8704 6.0416-7.2192 1.8944-9.8304a338.9696 338.9696 0 0 0-108.2368-45.1072c-2.4576-0.5632-4.9664 0.6656-6.0416 2.9696-13.4656 28.2112-34.048 62.208-64.768 93.2352-2.304 2.2528-2.048 6.0416 0.5632 7.9872z" fill="#757BF2" p-id="2862"></path><path d="M531.712 860.3648c65.9968-4.1984 126.8736-27.136 177.4592-63.5392 1.4336-1.024 2.2528-2.7136 2.2528-4.4544 0.1024-141.0048-41.0624-261.4784-123.0848-360.0896-1.792-2.1504-4.9664-2.6112-7.2704-1.024-37.888 27.0336-47.36 72.8064-51.2 150.3232-2.816 56.6784-3.6864 196.7616-3.8912 273.3568 0 3.1232 2.6624 5.632 5.7344 5.4272zM474.9312 578.8672c3.6864-73.6768 12.2368-143.2576 67.1744-187.1872 2.56-2.048 2.8672-5.888 0.4608-8.192-3.4304-3.2256-6.8608-6.4-10.3936-9.5232-1.8944-1.6896-4.6592-1.8944-6.7072-0.4096-16.8448 11.9296-34.304 25.4464-52.3776 40.7552-72.3968 62.1056-153.6 144.7424-209.3568 338.7904-0.5632 1.8944-0.0512 3.9424 1.3312 5.3248C317.44 811.7248 387.0208 847.9744 464.896 858.112c3.2256 0.4096 6.0416-2.0992 6.0416-5.3248 0.256-77.312 1.1264-215.9104 3.9936-273.92z" fill="#6C6CEA" p-id="2863"></path><path d="M437.4016 372.3776c14.1312-11.9808 27.9552-22.9376 41.5232-33.024 2.9184-2.1504 2.9184-6.5536-0.0512-8.6528-3.6864-2.6624-7.3216-5.2736-11.008-7.8336-1.792-1.2288-4.096-1.28-5.888-0.1024a295.32672 295.32672 0 0 1-71.9872 32.7168C290.2016 385.536 222.6176 420.1984 175.6672 450.0992c-1.28 0.8192-2.1504 2.0992-2.4064 3.584-4.0448 21.0432-6.1952 42.752-6.1952 64.9216 0 63.9488 17.6128 123.8016 48.128 175.0016 2.3552 3.9936 8.2944 3.3792 9.7792-1.024 56.5248-168.0896 134.912-253.696 212.4288-320.2048z" fill="#757BF2" p-id="2864"></path><path d="M374.0672 302.7456c9.8816-2.9696 19.2-6.4512 28.0064-10.3936 4.096-1.792 4.352-7.5264 0.4096-9.6768-32.768-17.7664-63.5904-31.3344-89.7024-41.3696-1.7408-0.6656-3.6352-0.4096-5.12 0.7168a344.04352 344.04352 0 0 0-100.4544 115.6608c-2.4576 4.608 2.4576 9.6768 7.168 7.3728 43.3664-21.8112 95.232-42.8544 159.6928-62.3104zM465.664 251.0848c23.5008-21.248 40.7552-45.056 53.1968-66.816 2.048-3.584-0.4608-7.9872-4.608-8.0896-1.5872-0.0512-3.1232-0.0512-4.7104-0.0512-45.056 0-88.0128 8.7552-127.4368 24.576-4.4032 1.7408-4.608 7.8848-0.3072 9.8816 24.2688 11.2128 50.4832 24.7808 77.4144 41.0624 2.048 1.2288 4.6592 1.024 6.4512-0.5632z" fill="#8D92F8" p-id="2865"></path><path d="M805.3248 345.9584a340.48 340.48 0 0 0-40.2432-55.3472c-0.9728-1.0752-2.304-1.7408-3.7888-1.792-38.3488-1.8432-99.328 5.376-177.7152 48.2304-3.1744 1.7408-3.7376 6.0928-1.1264 8.6016 4.608 4.4544 9.216 9.0112 13.7728 13.7216 1.4336 1.4336 3.5328 1.9456 5.4784 1.3312 66.5088-21.6576 134.7072-9.216 199.424 36.352 2.3552-16.7936 3.7888-33.8432 4.1984-51.0976zM788.736 456.8064c-2.2528-1.8944-4.608-3.7888-6.9632-5.6832-44.4416-35.072-89.2416-49.92-133.5808-44.5952-4.1472 0.512-6.1952 5.2736-3.6352 8.6016 35.0208 45.8752 66.048 100.7104 88.064 165.4272a447.1808 447.1808 0 0 0 56.1152-123.7504zM532.224 373.9136c-1.8944-1.6896-4.6592-1.8944-6.7072-0.4096-16.8448 11.9296-34.304 25.4464-52.3776 40.7552-72.3968 62.1056-153.6 144.7424-209.3568 338.7904-0.5632 1.8944-0.0512 3.9424 1.3312 5.3248 7.7824 7.936 16.0256 15.4624 24.576 22.6304 21.1968 3.072 42.9056 4.6592 64.9216 4.6592 40.3968 0 79.5136-5.3248 116.736-15.3088 0.512-70.912 1.536-150.9376 3.584-191.5392 3.6864-73.6768 12.288-143.2576 67.1744-187.1872 2.56-2.048 2.8672-5.888 0.4608-8.192-3.3792-3.1744-6.8608-6.3488-10.3424-9.5232zM691.9168 633.9584c-19.6608-74.9568-54.1184-142.2848-103.5264-201.6768-1.792-2.1504-4.9664-2.6112-7.2704-1.024-37.888 27.0336-47.36 72.8064-51.2 150.3232-1.792 35.7888-2.7648 104.8064-3.328 170.0864a451.2768 451.2768 0 0 0 165.3248-117.7088z" fill="#757BF2" p-id="2866"></path><path d="M679.7312 221.44a339.18464 339.18464 0 0 0-94.6176-36.9152c-2.4576-0.5632-4.9664 0.6656-6.0416 2.9696-13.4656 28.2112-34.048 62.208-64.768 93.2352-2.304 2.3552-2.0992 6.0928 0.5632 8.0384 5.12 3.7888 10.2912 7.68 15.4112 11.6736 1.7408 1.3312 4.1472 1.4848 6.0416 0.3584 52.9408-31.6416 100.3008-49.2032 140.7488-58.3168 1.024-6.9632 1.9456-13.9776 2.6624-21.0432zM467.8656 322.8672c-1.792-1.2288-4.096-1.28-5.888-0.1024a295.32672 295.32672 0 0 1-71.9872 32.7168C290.2016 385.536 222.6176 420.1984 175.6672 450.0992c-1.28 0.8192-2.1504 2.0992-2.4064 3.584-4.0448 21.0432-6.1952 42.752-6.1952 64.9216 0 36.4544 5.7344 71.5264 16.2816 104.448 15.7696 1.6896 31.744 2.56 47.9744 2.56 6.4512 0 12.9024-0.1536 19.3024-0.4608 53.3504-124.7744 120.3712-195.7888 186.7776-252.7744 14.1312-11.9808 27.9552-22.9376 41.5232-33.024 2.9184-2.1504 2.9184-6.5536-0.0512-8.6528-3.6864-2.6624-7.3728-5.2736-11.008-7.8336zM583.6288 336.9984c-3.1744 1.7408-3.7376 6.0928-1.1264 8.6016 4.608 4.4544 9.216 9.0112 13.7728 13.7216 1.4336 1.4336 3.5328 1.9456 5.4784 1.3312 14.7456-4.8128 29.5936-7.8336 44.4928-9.3184a441.9072 441.9072 0 0 0 17.5104-48.7936c-24.1664 7.4752-50.944 18.4832-80.128 34.4576zM532.224 373.9136c-1.8944-1.6896-4.6592-1.8944-6.7072-0.4096-16.8448 11.9296-34.304 25.4464-52.3776 40.7552-52.7872 45.2608-110.1824 101.4784-159.0272 203.7248a448.29184 448.29184 0 0 0 162.4064-64.8704c4.7616-63.8976 17.152-122.6752 65.6384-161.4336 2.56-2.048 2.8672-5.888 0.4608-8.192-3.4304-3.2256-6.912-6.4-10.3936-9.5744zM595.2512 440.832c-2.304-2.8672-4.5056-5.7856-6.8096-8.6016-1.792-2.1504-4.9664-2.6112-7.2704-1.024-23.1424 16.4864-35.6352 40.0896-42.8032 73.5744 20.8896-19.4048 39.936-40.8576 56.8832-63.9488z" fill="#8486F8" p-id="2867"></path><path d="M430.7456 339.8144c-12.6976 5.9904-26.2144 11.264-40.8064 15.6672-99.7376 30.0544-167.3216 64.7168-214.272 94.6176-1.28 0.8192-2.1504 2.0992-2.4064 3.584-0.5632 3.0208-1.024 6.0928-1.536 9.1648 100.096-11.9296 190.1056-56.6272 259.0208-123.0336z" fill="#8D92F8" p-id="2868"></path></svg>