<svg class="icon" style="width: 1em;height: 1em;vertical-align: middle;fill: currentColor;overflow: hidden;" viewBox="0 0 1024 1024" version="1.1" xmlns="http://www.w3.org/2000/svg" p-id="3616"><path d="M509.184 509.5936m-450.816 0a450.816 450.816 0 1 0 901.632 0 450.816 450.816 0 1 0-901.632 0Z" fill="#E9F4FF" p-id="3617"></path><path d="M744.704 284.0576c-58.4192-1.6384-171.4688-10.752-227.584-55.5008-12.7488-10.1888-30.464-11.264-44.2368-2.5088-36.0448 22.8864-108.9024 60.5184-203.264 64.6656-20.4288 0.9216-36.608 17.5104-36.608 37.9392 0 143.36 0.1536 154.5216 0.1536 192.256 0 40.1408-6.7584 214.2208 260.6592 314.8288 9.6256 3.6352 20.1728 4.1984 29.696 0.256 221.0816-91.0336 257.9456-186.9824 257.9456-298.0864V321.9968c0.0512-20.5312-16.2304-37.376-36.7616-37.9392z m-149.8624 260.5568c16.9472 0 30.72 13.7728 30.72 30.72s-13.7728 30.72-30.72 30.72h-61.952v28.4672c0 16.9472-13.7728 30.72-30.72 30.72s-30.72-13.7728-30.72-30.72v-28.4672h-61.952c-16.9472 0-30.72-13.7728-30.72-30.72s13.7728-30.72 30.72-30.72h61.952v-28.0064h-61.952c-16.9472 0-30.72-13.7728-30.72-30.72s13.7728-30.72 30.72-30.72h42.5472l-34.816-35.584c-11.8784-12.1344-11.6736-31.5904 0.4608-43.4176 12.1344-11.8784 31.5904-11.6736 43.4176 0.4608l43.4176 44.3392 37.12-44.4416a30.7456 30.7456 0 0 1 43.264-3.8912 30.7456 30.7456 0 0 1 3.8912 43.264l-32.8192 39.2704h38.8608c16.9472 0 30.72 13.7728 30.72 30.72s-13.7728 30.72-30.72 30.72h-61.952v28.0064h61.952z" fill="#2595E8" p-id="3618"></path><path d="M772.6592 349.3888c0-18.688-1.1776-37.12-3.3792-55.2448a37.91872 37.91872 0 0 0-24.576-10.0864c-58.4192-1.6384-171.4688-10.752-227.584-55.5008-12.7488-10.1888-30.464-11.264-44.2368-2.5088-36.0448 22.8864-108.9024 60.5184-203.264 64.6656-20.4288 0.9216-36.608 17.5104-36.608 37.9392 0 143.36 0.1536 154.5216 0.1536 192.256 0 34.9184-5.0688 171.008 169.2672 272.0768 210.5856-37.9904 370.2272-222.1568 370.2272-443.5968z m-363.1616 167.168c-16.9472 0-30.72-13.7728-30.72-30.72s13.7728-30.72 30.72-30.72h42.5472l-34.816-35.584c-11.8784-12.1344-11.6736-31.5904 0.4608-43.4176 12.1344-11.8784 31.5904-11.6736 43.4176 0.4608l43.4176 44.3392 37.12-44.4416a30.7456 30.7456 0 0 1 43.264-3.8912 30.7456 30.7456 0 0 1 3.8912 43.264l-32.8192 39.2704h38.8608c16.9472 0 30.72 13.7728 30.72 30.72s-13.7728 30.72-30.72 30.72h-61.952v28.0064h61.952c16.9472 0 30.72 13.7728 30.72 30.72s-13.7728 30.72-30.72 30.72h-61.952v28.4672c0 16.9472-13.7728 30.72-30.72 30.72s-30.72-13.7728-30.72-30.72v-28.4672h-61.952c-16.9472 0-30.72-13.7728-30.72-30.72s13.7728-30.72 30.72-30.72h61.952v-28.0064h-61.952z" fill="#3A9CED" p-id="3619"></path><path d="M555.9808 455.1168h6.656a459.3152 459.3152 0 0 0 24.6784-37.4784l-31.3344 37.4784zM517.12 228.608c-12.7488-10.1888-30.464-11.264-44.2368-2.5088-36.0448 22.8864-108.9024 60.5184-203.264 64.6656-20.4288 0.9216-36.608 17.5104-36.608 37.9392 0 143.36 0.1536 154.5216 0.1536 192.256 0 17.9712-1.3312 62.72 21.0944 115.712a447.9488 447.9488 0 0 0 134.5536-38.656 30.62272 30.62272 0 0 1-10.0864-22.7328c0-16.9472 13.7728-30.72 30.72-30.72h61.952v-28.0064h-61.952c-16.9472 0-30.72-13.7728-30.72-30.72s13.7728-30.72 30.72-30.72h42.5472l-34.816-35.584c-11.8784-12.1344-11.6736-31.5904 0.4608-43.4176 12.1344-11.8784 31.5904-11.6736 43.4176 0.4608l43.4176 44.3392 37.12-44.4416a30.7456 30.7456 0 0 1 43.264-3.8912 30.68928 30.68928 0 0 1 9.8304 31.9488 448.41984 448.41984 0 0 0 46.5408-130.048c-46.1824-7.7824-93.5424-21.5552-124.1088-45.8752z" fill="#59ADF8" p-id="3620"></path><path d="M493.824 220.2624a37.9392 37.9392 0 0 0-20.8896 5.7856c-36.0448 22.8864-108.9024 60.5184-203.264 64.6656-20.4288 0.9216-36.608 17.5104-36.608 37.9392 0 63.9488 0.0512 101.5808 0.1024 126.976 115.3536-40.0384 209.408-125.696 260.6592-235.3664z" fill="#6BC2FC" p-id="3621"></path></svg>