<svg class="icon" style="width: 1em;height: 1em;vertical-align: middle;fill: currentColor;overflow: hidden;" viewBox="0 0 1024 1024" version="1.1" xmlns="http://www.w3.org/2000/svg" p-id="6627"><path d="M513.4848 508.0576m-450.816 0a450.816 450.816 0 1 0 901.632 0 450.816 450.816 0 1 0-901.632 0Z" fill="#E3FFF3" p-id="6628"></path><path d="M514.4064 174.3872c184.4224 1.2288 333.5168 151.2448 332.6464 334.6432-0.8704 184.2176-151.2448 333.824-334.4896 332.8-185.088-1.024-334.2848-152.0128-332.4928-336.4864 1.6896-183.296 152.1664-332.2368 334.336-330.9568zM305.7664 607.232c2.9184 39.936 22.1184 74.1888 62.6688 93.0304 39.68 18.4832 79.6672 15.104 112.5888-13.6192 34.6112-30.208 66.8672-63.5392 97.3824-97.9968 25.2416-28.4672 28.1088-63.5392 16.6912-99.4304-7.424-23.3984-21.5552-32.3584-39.9872-26.4192-17.4592 5.5808-23.3472 19.8656-16.8448 43.008 5.4784 19.5072 4.096 37.5808-10.4448 52.5312-26.2144 26.9824-52.3776 54.0672-79.7696 79.7696-21.0944 19.7632-50.3808 18.5856-68.8128-0.4096-18.944-19.456-19.0464-49.408 0.3072-70.656 9.3696-10.2912 19.8656-19.6096 29.3888-29.7984 12.0832-13.0048 12.0832-31.1296 0.512-42.3936-10.9568-10.7008-28.5696-11.008-41.1136 0.5632-12.9024 11.9296-25.3952 24.4224-36.9664 37.632-17.4592 19.9168-25.3952 43.776-25.6 74.1888z m124.8768-119.1936c0.4096 4.096 0.8192 12.032 2.1504 19.7632 0.9216 5.3248 2.816 10.5472 4.8128 15.5648 7.68 19.5072 23.1424 28.0576 39.5264 22.1696 15.104-5.4272 21.9648-21.8112 15.9232-40.704-7.424-23.2448-2.304-42.8032 14.7968-59.8528 24.1152-23.9616 47.7696-48.3328 71.9872-72.192 20.8384-20.48 50.944-21.6576 70.3488-3.2768 20.1216 19.0464 20.6848 49.6128 0.7168 71.8848-8.9088 9.9328-18.944 18.7904-28.0576 28.5696-12.9536 13.8752-13.2608 30.3104-1.4336 42.1888 12.3392 12.3392 28.7744 13.1584 42.0864 0.4096 13.9776-13.3632 27.904-27.136 39.8336-42.3424 33.1776-42.2912 27.6992-105.1136-11.264-142.4384-39.5776-37.9392-101.6832-41.3696-142.4384-5.4784-31.3856 27.648-60.8256 57.5488-90.0096 87.552-19.6608 20.2752-28.7744 45.8752-28.9792 78.1824z" fill="#05C46D" p-id="6629"></path><path d="M791.7568 334.1824c0-3.328-0.0512-6.656-0.1024-9.9328-59.5456-89.6-161.4336-149.0944-277.248-149.8624-182.1696-1.28-332.6464 147.6608-334.3872 330.9056-1.1264 116.1216 57.6 218.9312 147.456 279.5008 4.5056 0.1536 9.0112 0.2048 13.5168 0.2048 248.9344 0 450.7648-201.8304 450.7648-450.816z m-213.4016 254.5152c-30.5152 34.4064-62.72 67.7888-97.3824 97.9968-32.9216 28.7232-72.9088 32.1024-112.5888 13.6192-40.5504-18.8928-59.8016-53.0944-62.6688-93.0304 0.2048-30.4128 8.1408-54.272 25.6-74.1376 11.5712-13.2096 24.064-25.7024 36.9664-37.632 12.4928-11.5712 30.1568-11.264 41.1136-0.5632 11.5712 11.264 11.5712 29.3888-0.512 42.3936-9.5232 10.1888-20.0192 19.5072-29.3888 29.7984-19.3536 21.248-19.2512 51.2-0.3072 70.656 18.432 18.944 47.7184 20.1216 68.8128 0.4096 27.4432-25.7024 53.5552-52.7872 79.7696-79.7696 14.5408-14.9504 15.9232-33.024 10.4448-52.5312-6.5024-23.1424-0.5632-37.376 16.8448-43.008 18.432-5.888 32.512 3.072 39.9872 26.4192 11.4176 35.84 8.5504 70.912-16.6912 99.3792z m43.1616-76.5952c-11.8784-11.8784-11.52-28.2624 1.4336-42.1888 9.1136-9.7792 19.1488-18.6368 28.0576-28.5696 19.9168-22.3232 19.4048-52.8384-0.7168-71.8848-19.3536-18.3296-49.5104-17.2032-70.3488 3.2768-24.2176 23.8592-47.9232 48.2304-71.9872 72.192-17.1008 17.0496-22.2208 36.608-14.7968 59.8528 6.0416 18.8928-0.8704 35.328-15.9232 40.704-16.384 5.888-31.8464-2.6624-39.5264-22.1696-1.9968-5.0688-3.8912-10.24-4.8128-15.5648-1.3312-7.7312-1.7408-15.6672-2.1504-19.7632C430.9504 455.68 440.064 430.08 459.776 409.7536c29.184-30.0032 58.624-59.904 90.0096-87.552 40.7552-35.8912 102.8608-32.4608 142.4384 5.4784 39.0144 37.3248 44.4416 100.1472 11.264 142.4384-11.9296 15.2064-25.8048 28.9792-39.8336 42.3424-13.3632 12.8-29.7984 11.9808-42.1376-0.3584z" fill="#1DCE75" p-id="6630"></path><path d="M535.8592 493.4144c-1.3824-15.9232 5.1712-26.0608 19.2512-30.5664 3.584-1.1264 7.0144-1.7408 10.24-1.7408a449.15712 449.15712 0 0 0 64.0512-103.168c-16.5376-4.1472-35.1744 0.768-49.4592 14.848-24.2176 23.8592-47.9232 48.2304-71.9872 72.192-17.1008 17.0496-22.2208 36.608-14.7968 59.8528 3.1744 9.984 2.7136 19.2512-0.5632 26.5728 15.2064-11.776 29.6448-24.4736 43.264-37.9904z" fill="#3CD38E" p-id="6631"></path><path d="M180.0192 505.2928a330.60352 330.60352 0 0 0 20.9408 119.2448c5.5296 0.2048 11.1104 0.3584 16.6912 0.3584 30.464 0 60.2624-3.0208 89.0368-8.8064-0.4096-2.9184-0.7168-5.8368-0.9728-8.8064 0.2048-30.4128 8.1408-54.272 25.6-74.1376 11.5712-13.2096 24.064-25.7024 36.9664-37.632 12.4928-11.5712 30.1568-11.264 41.1136-0.5632 11.5712 11.264 11.5712 29.3888-0.512 42.3936-9.5232 10.1888-20.0192 19.5072-29.3888 29.7984-8.9088 9.8304-13.6704 21.4528-14.336 33.1264a448.76288 448.76288 0 0 0 105.728-53.0944c-13.9264 1.8944-26.5216-6.7584-33.2288-23.7056-1.9968-5.0688-3.8912-10.24-4.8128-15.5648-1.3312-7.7312-1.7408-15.6672-2.1504-19.7632 0.2048-32.3072 9.3184-57.9072 29.0304-78.2336 29.184-30.0032 58.624-59.904 90.0096-87.552 28.0576-24.7296 66.2016-30.7712 100.1984-19.8144 8.6016-28.9792 14.336-59.1872 16.9472-90.2656a334.91456 334.91456 0 0 0-152.4736-37.8368C332.2368 173.1072 181.76 322.048 180.0192 505.2928z" fill="#3CD38E" p-id="6632"></path><path d="M183.808 458.3424c157.3376-28.0064 286.4128-137.6768 341.9136-283.5968-3.7888-0.1536-7.5264-0.3584-11.3664-0.3584-166.2464-1.1264-306.0736 122.9312-330.5472 283.9552z" fill="#48E1AA" p-id="6633"></path></svg>