<svg class="icon" style="width: 1em;height: 1em;vertical-align: middle;fill: currentColor;overflow: hidden;" viewBox="0 0 1024 1024" version="1.1" xmlns="http://www.w3.org/2000/svg" p-id="1833"><path d="M509.184 513.1264m-450.816 0a450.816 450.816 0 1 0 901.632 0 450.816 450.816 0 1 0-901.632 0Z" fill="#E9F4FF" p-id="1834"></path><path d="M274.9952 453.3248H215.04c-14.3872 0-26.112-11.6736-26.112-26.112 0-14.3872 11.6736-26.112 26.112-26.112h59.9552c14.3872 0 26.112 11.6736 26.112 26.112-0.0512 14.3872-11.7248 26.112-26.112 26.112z" fill="#6BC2FC" p-id="1835"></path><path d="M274.9952 633.7024H215.04c-14.3872 0-26.112-11.6736-26.112-26.112 0-14.3872 11.6736-26.112 26.112-26.112h59.9552c14.3872 0 26.112 11.6736 26.112 26.112-0.0512 14.4384-11.7248 26.112-26.112 26.112z" fill="#59ADF8" p-id="1836"></path><path d="M743.7312 245.1968H305.7664c-34.5088 0-62.464 27.9552-62.464 62.464v60.8768h31.6416c32.4096 0 58.6752 26.2656 58.6752 58.6752S307.3536 485.888 274.944 485.888h-31.6416v63.0272h31.6416c32.4096 0 58.6752 26.2656 58.6752 58.6752 0 32.4096-26.2656 58.6752-58.6752 58.6752h-31.6416v61.952c0 34.5088 27.9552 62.464 62.464 62.464h437.9648c34.5088 0 62.464-27.9552 62.464-62.464V307.6608c0-34.5088-27.9552-62.464-62.464-62.464z m-55.6544 439.2448a26.10688 26.10688 0 0 1-35.072-11.4688c-24.2176-47.7184-72.4992-77.312-125.952-77.312-53.2992 0-101.5296 29.4912-125.7984 77.0048a26.09152 26.09152 0 0 1-35.1232 11.3664 26.09152 26.09152 0 0 1-11.3664-35.1232c23.1424-45.2096 62.1056-78.4896 108.2368-94.5664-31.2832-20.7872-51.9168-56.32-51.9168-96.6144 0-63.9488 52.0192-115.968 115.968-115.968s115.968 52.0192 115.968 115.968c0 40.2944-20.6336 75.8272-51.9168 96.6144 46.2848 16.128 85.3504 49.5616 108.4416 95.0272 6.5024 12.8512 1.3824 28.5696-11.4688 35.072z" fill="#00A0E9" p-id="1837"></path><path d="M527.0528 393.984c-35.1744 0-63.7952 28.6208-63.7952 63.7952 0 35.1744 28.6208 63.7952 63.7952 63.7952 35.1744 0 63.7952-28.6208 63.7952-63.7952 0-35.2256-28.6208-63.7952-63.7952-63.7952z" fill="#00A0E9" p-id="1838"></path><path d="M743.7312 245.1968H305.7664c-34.5088 0-62.464 27.9552-62.464 62.464v60.8768h31.6416c32.4096 0 58.6752 26.2656 58.6752 58.6752S307.3536 485.888 274.944 485.888h-31.6416v63.0272h31.6416c32.4096 0 58.6752 26.2656 58.6752 58.6752 0 32.4096-26.2656 58.6752-58.6752 58.6752h-31.6416v61.952c0 34.5088 27.9552 62.464 62.464 62.464h437.9648c34.5088 0 62.464-27.9552 62.464-62.464V307.6608c0-34.5088-27.9552-62.464-62.464-62.464z m-55.6544 439.2448a26.10688 26.10688 0 0 1-35.072-11.4688c-24.2176-47.7184-72.4992-77.312-125.952-77.312-53.2992 0-101.5296 29.4912-125.7984 77.0048a26.09152 26.09152 0 0 1-35.1232 11.3664 26.09152 26.09152 0 0 1-11.3664-35.1232c23.1424-45.2096 62.1056-78.4896 108.2368-94.5664-31.2832-20.7872-51.9168-56.32-51.9168-96.6144 0-63.9488 52.0192-115.968 115.968-115.968s115.968 52.0192 115.968 115.968c0 40.2944-20.6336 75.8272-51.9168 96.6144 46.2848 16.128 85.3504 49.5616 108.4416 95.0272 6.5024 12.8512 1.3824 28.5696-11.4688 35.072z" fill="#2595E8" p-id="1839"></path><path d="M527.0528 393.984c-35.1744 0-63.7952 28.6208-63.7952 63.7952 0 35.1744 28.6208 63.7952 63.7952 63.7952 35.1744 0 63.7952-28.6208 63.7952-63.7952 0-35.2256-28.6208-63.7952-63.7952-63.7952z" fill="#3A9CED" p-id="1840"></path><path d="M806.1952 307.6608c0-34.5088-27.9552-62.464-62.464-62.464H305.7664c-34.5088 0-62.464 27.9552-62.464 62.464v60.8768h31.6416c32.4096 0 58.6752 26.2656 58.6752 58.6752S307.3536 485.888 274.944 485.888h-31.6416v63.0272h31.6416c32.4096 0 58.6752 26.2656 58.6752 58.6752s-26.2656 58.6752-58.6752 58.6752h-31.6416v61.952c0 34.5088 27.9552 62.464 62.464 62.464h172.9024c71.68-19.3536 136.4992-55.7056 189.9008-104.6528a25.90208 25.90208 0 0 1-15.5648-13.056c-24.2176-47.7184-72.4992-77.312-125.952-77.312-53.2992 0-101.5296 29.4912-125.7984 77.0048a26.09152 26.09152 0 0 1-35.1232 11.3664 26.09152 26.09152 0 0 1-11.3664-35.1232c23.1424-45.2096 62.1056-78.4896 108.2368-94.5664-31.2832-20.7872-51.9168-56.32-51.9168-96.6144 0-63.9488 52.0192-115.968 115.968-115.968s115.968 52.0192 115.968 115.968c0 40.2944-20.6336 75.8272-51.9168 96.6144 46.2848 16.128 85.3504 49.5616 108.4416 95.0272 0.6144 1.28 1.0752 2.56 1.4848 3.84a466.8672 466.8672 0 0 0 105.1648-198.7584V307.6608z" fill="#3A9CED" p-id="1841"></path><path d="M243.3536 307.6608v60.8768h31.6416c32.4096 0 58.6752 26.2656 58.6752 58.6752S307.4048 485.888 274.9952 485.888h-31.6416v63.0272h31.6416c32.4096 0 58.6752 26.2656 58.6752 58.6752 0 8.3968-1.792 16.3328-4.9152 23.5008 15.2576-3.2256 30.2592-7.2192 44.9024-11.9808a192.49664 192.49664 0 0 1 89.3952-64.8192c-31.2832-20.7872-51.9168-56.32-51.9168-96.6144 0-63.9488 52.0192-115.968 115.968-115.968 46.4896 0 86.6304 27.4944 105.1136 67.072a464.97792 464.97792 0 0 0 56.7808-163.6352H305.7664c-34.4576 0.0512-62.4128 28.0064-62.4128 62.5152z" fill="#59ADF8" p-id="1842"></path><path d="M590.848 457.728c0-35.1744-28.6208-63.7952-63.7952-63.7952-35.1744 0-63.7952 28.6208-63.7952 63.7952 0 35.1744 28.6208 63.7952 63.7952 63.7952 6.0416 0 11.8272-0.9216 17.3568-2.4576 16.0768-14.8992 31.1296-30.8736 44.9536-47.9232 0.9728-4.3008 1.4848-8.8064 1.4848-13.4144z" fill="#59ADF8" p-id="1843"></path><path d="M243.3536 307.6608v60.8768h31.6416c32.4096 0 58.6752 26.2656 58.6752 58.6752 0 0.6656-0.0512 1.28-0.1024 1.8944 73.1136-43.8784 133.2224-107.6224 173.0048-183.9104H305.7664c-34.4576 0-62.4128 27.9552-62.4128 62.464z" fill="#6BC2FC" p-id="1844"></path></svg>