<svg class="icon" style="width: 1em;height: 1em;vertical-align: middle;fill: currentColor;overflow: hidden;" viewBox="0 0 1024 1024" version="1.1" xmlns="http://www.w3.org/2000/svg" p-id="2143"><path d="M508.1088 513.1264m-450.816 0a450.816 450.816 0 1 0 901.632 0 450.816 450.816 0 1 0-901.632 0Z" fill="#FFF1DC" p-id="2144"></path><path d="M750.2336 453.5296l-207.8208 139.8784c-18.944 12.7488-43.776 12.8512-62.8224 0.2048L267.52 453.0176c-18.944-12.544-44.1856 1.024-44.1856 23.7056v253.7472c0 33.2288 26.9312 60.1088 60.1088 60.1088h451.0208c33.2288 0 60.1088-26.9312 60.1088-60.1088V477.1328c0-22.784-25.4464-36.3008-44.3392-23.6032z" fill="#FC7032" p-id="2145"></path><path d="M663.8592 208.8448H355.3792c-35.3792 0-64.0512 28.672-64.0512 64.0512v147.712l205.3632 136.4992a23.296 23.296 0 0 0 25.856 0l205.3632-136.4992V272.896c0-35.3792-28.672-64.0512-64.0512-64.0512z m-28.1088 194.9184H384.1024c-14.1312 0-25.6-11.4688-25.6-25.6s11.4688-25.6 25.6-25.6h251.648c14.1312 0 25.6 11.4688 25.6 25.6s-11.4688 25.6-25.6 25.6z m0-89.5488H496.5376c-14.1312 0-25.6-11.4688-25.6-25.6s11.4688-25.6 25.6-25.6h139.2128c14.1312 0 25.6 11.4688 25.6 25.6s-11.4688 25.6-25.6 25.6z" fill="#FF7E3E" p-id="2146"></path><path d="M750.2336 453.5296l-207.8208 139.8784c-18.944 12.7488-43.776 12.8512-62.8224 0.2048L267.52 453.0176c-18.8928-12.544-44.1856 1.024-44.1856 23.7056v253.7472c0 33.2288 26.9312 60.1088 60.1088 60.1088H450.56c164.1472-41.1648 292.5568-172.3392 329.7792-338.0224-8.8576-5.12-20.3264-5.5808-30.1056 0.9728z" fill="#FF7E3E" p-id="2147"></path><path d="M615.8848 403.7632H384.1024c-14.1312 0-25.6-11.4688-25.6-25.6s11.4688-25.6 25.6-25.6h251.648c1.0752 0 2.0992 0.2048 3.1232 0.3072 5.632-14.9504 10.5472-30.208 14.6432-45.8752-4.608 4.4544-10.8544 7.2192-17.7664 7.2192H496.5376c-14.1312 0-25.6-11.4688-25.6-25.6s11.4688-25.6 25.6-25.6h139.2128c11.008 0 20.2752 6.9632 23.9104 16.6912 4.4544-22.9888 7.168-46.592 8.0384-70.656-1.28-0.0512-2.56-0.2048-3.84-0.2048H355.3792c-35.3792 0-64.0512 28.672-64.0512 64.0512v147.712l198.2976 131.7888a452.87936 452.87936 0 0 0 126.2592-148.6336zM454.144 576.768L267.52 453.0176c-18.8928-12.544-44.1856 1.024-44.1856 23.7056v167.2192c84.5824-1.1264 163.584-25.5488 230.8096-67.1744z" fill="#FF9552" p-id="2148"></path><path d="M358.5024 378.1632c0-14.1312 11.4688-25.6 25.6-25.6h24.4224c23.8592-21.9136 45.4144-46.3872 64.1024-72.96 1.4336-3.84 3.7888-7.168 6.7584-9.8816 12.8-19.3024 24.2176-39.6288 33.9968-60.8256H355.3792c-35.3792 0-64.0512 28.672-64.0512 64.0512v147.712l8.6528 5.7344c21.6064-10.4448 42.1888-22.5792 61.696-36.1984-1.9456-3.6352-3.1744-7.68-3.1744-12.032z" fill="#FFA56A" p-id="2149"></path></svg>