<svg class="icon" style="width: 1em;height: 1em;vertical-align: middle;fill: currentColor;overflow: hidden;" viewBox="0 0 1024 1024" version="1.1" xmlns="http://www.w3.org/2000/svg" p-id="1568"><path d="M514.9184 516.608m-450.816 0a450.816 450.816 0 1 0 901.632 0 450.816 450.816 0 1 0-901.632 0Z" fill="#FFE1E9" p-id="1569"></path><path d="M488.0896 232.96H271.6672c-10.9568 0-19.8144 8.0896-19.8144 18.0736v155.4432c0 9.984 8.8576 18.0736 19.8144 18.0736h216.4224c10.9568 0 19.8144-8.0896 19.8144-18.0736V250.9824c0-9.984-8.9088-18.0224-19.8144-18.0224zM324.4544 333.1072c-7.3728 0-13.3632-5.9904-13.3632-13.3632v-43.52c0-7.3728 5.9904-13.3632 13.3632-13.3632s13.3632 5.9904 13.3632 13.3632v43.52a13.40416 13.40416 0 0 1-13.3632 13.3632z m53.76 0c-7.3728 0-13.3632-5.9904-13.3632-13.3632v-43.52c0-7.3728 5.9904-13.3632 13.3632-13.3632s13.3632 5.9904 13.3632 13.3632v43.52c0 7.3728-5.9904 13.3632-13.3632 13.3632z m53.8112 0c-7.3728 0-13.3632-5.9904-13.3632-13.3632v-43.52c0-7.3728 5.9904-13.3632 13.3632-13.3632s13.3632 5.9904 13.3632 13.3632v43.52c0 7.3728-5.9904 13.3632-13.3632 13.3632z" fill="#FF5F89" p-id="1570"></path><path d="M866.6624 647.424c0-32.4608-25.344-99.6352-118.3232-110.6432-24.2176-60.5696-48.9984-124.928-48.9984-124.928s33.024-10.1888 33.024-37.9904-4.9664-37.1712-18.176-48.4352h-93.5424a33.3568 33.3568 0 0 0-26.1632-12.544c-18.5344 0-33.5872 15.0528-33.5872 33.5872s15.0528 33.5872 33.5872 33.5872c6.5536 0 12.6976-1.9456 17.8688-5.1712 1.28 3.9936 2.6112 8.192 3.84 12.8 13.2096 48.6912 26.4192 108.1856 30.5664 135.424 4.1472 27.2384 10.3424 68.9664-6.6048 88.32-16.9472 19.4048-28.4672 36.352-54.8864 36.352h-68.352c-11.776 0-40.2432-13.2096-40.2432-42.496v-44.5952c0-10.752 5.4272-44.1856 31.1808-45.824 25.8048-1.6384 33.2288-13.4656 33.2288-34.6624s-6.0416-33.5872-43.776-33.5872H267.52c-15.9232 0-41.2672 9.728-41.2672 35.6864s13.7728 27.0848 19.8144 30.9248c6.0416 3.84 12.3904 10.4448-2.7648 20.0704s-71.8336 53.4016-71.8336 145.8688v14.848c0 9.8816 7.9872 17.8688 17.8688 17.8688h46.8992c4.7104 44.544 42.3936 79.2576 88.1664 79.2576s83.456-34.7136 88.1664-79.2576h249.856c4.7104 44.544 42.3936 79.2576 88.1664 79.2576 48.9984 0 88.6784-39.7312 88.6784-88.6784 0-3.6864-0.3072-7.3216-0.7168-10.9056h0.0512c15.4112-0.1024 28.0576-11.6736 28.0576-44.1344zM324.5056 729.9584c-12.7488 0-23.1424-10.3424-23.1424-23.1424 0-12.7488 10.3424-23.1424 23.1424-23.1424s23.1424 10.3424 23.1424 23.1424c-0.0512 12.8-10.3936 23.1424-23.1424 23.1424z m429.312 0c-12.7488 0-23.1424-10.3424-23.1424-23.1424 0-12.7488 10.3424-23.1424 23.1424-23.1424s23.1424 10.3424 23.1424 23.1424c0 12.8-10.3424 23.1424-23.1424 23.1424z" fill="#FF3369" p-id="1571"></path><path d="M748.3392 536.7808c-24.2176-60.5696-48.9984-124.928-48.9984-124.928s33.024-10.1888 33.024-37.9904-4.9664-37.1712-18.176-48.4352h-93.5424a33.3568 33.3568 0 0 0-26.1632-12.544c-18.5344 0-33.5872 15.0528-33.5872 33.5872 0 18.5344 15.0528 33.5872 33.5872 33.5872 6.6048 0 12.6976-1.9456 17.8688-5.1712 1.28 3.9936 2.6112 8.192 3.84 12.8 13.2096 48.6912 26.4192 108.1856 30.5664 135.424 4.1472 27.2384 10.3424 68.9664-6.6048 88.32s-28.4672 36.352-54.8864 36.352h-68.352c-11.776 0-40.2432-13.2096-40.2432-42.496v-44.5952c0-10.752 5.4272-44.1856 31.1808-45.824 25.8048-1.6384 33.2288-13.4656 33.2288-34.6624s-6.0416-33.5872-43.776-33.5872H267.52c-15.9232 0-41.2672 9.728-41.2672 35.6864s13.7728 27.0848 19.8144 30.9248c6.0416 3.84 12.3904 10.4448-2.7648 20.0704s-71.8336 53.4016-71.8336 145.8688v14.848c0 9.8816 7.9872 17.8688 17.8688 17.8688h46.8992c4.7104 44.544 42.3936 79.2576 88.1664 79.2576s83.456-34.7136 88.1664-79.2576h249.856c0.5632 5.0688 1.536 10.0352 2.9184 14.848 51.712-50.5856 91.6992-113.0496 115.5584-183.04-9.7792-3.1232-20.6336-5.4784-32.5632-6.912z m-423.8336 193.1776c-12.7488 0-23.1424-10.3424-23.1424-23.1424 0-12.7488 10.3424-23.1424 23.1424-23.1424 12.7488 0 23.1424 10.3424 23.1424 23.1424-0.0512 12.8-10.3936 23.1424-23.1424 23.1424z" fill="#FF4D7C" p-id="1572"></path><path d="M620.6976 325.4272a33.3568 33.3568 0 0 0-26.1632-12.544c-18.5344 0-33.5872 15.0528-33.5872 33.5872 0 18.5344 15.0528 33.5872 33.5872 33.5872 6.6048 0 12.6976-1.9456 17.8688-5.1712 1.28 3.9936 2.6112 8.192 3.84 12.8 4.2496 15.6672 8.4992 32.4608 12.4416 48.896 17.4592-34.7648 30.72-72.0384 39.0656-111.104h-47.0528zM476.672 605.184v-44.5952c0-10.752 5.4272-44.1856 31.1808-45.824 25.8048-1.6384 33.2288-13.4656 33.2288-34.6624s-6.0416-33.5872-43.776-33.5872H267.52c-15.9232 0-41.2672 9.728-41.2672 35.6864s13.7728 27.0848 19.8144 30.9248c6.0416 3.84 12.3904 10.4448-2.7648 20.0704s-71.8336 53.4016-71.8336 145.8688v13.2096c13.1584 1.1264 26.5216 1.7408 39.9872 1.7408 98.7136 0 190.2592-30.6688 265.6768-82.9952-0.256-1.8944-0.4608-3.84-0.4608-5.8368z" fill="#FF5F89" p-id="1573"></path><path d="M267.52 446.5152c-15.9744 0-41.2672 9.728-41.2672 35.6864 0 14.336 4.1984 21.0944 8.96 24.8832 44.4416-14.08 86.016-34.6624 123.5456-60.5696H267.52zM507.904 250.9824c0-9.984-8.8576-18.0736-19.8144-18.0736H271.6672c-10.9568 0-19.8144 8.0896-19.8144 18.0736v155.4432c0 9.984 8.8576 18.0736 19.8144 18.0736h116.5312A468.15232 468.15232 0 0 0 507.904 278.016v-27.0336zM337.7664 319.744c0 7.3728-5.9904 13.3632-13.3632 13.3632s-13.3632-5.9904-13.3632-13.3632v-43.52c0-7.3728 5.9904-13.3632 13.3632-13.3632s13.3632 5.9904 13.3632 13.3632v43.52z m53.8112 0c0 7.3728-5.9904 13.3632-13.3632 13.3632s-13.3632-5.9904-13.3632-13.3632v-43.52c0-7.3728 5.9904-13.3632 13.3632-13.3632s13.3632 5.9904 13.3632 13.3632v43.52z m53.8112 0c0 7.3728-5.9904 13.3632-13.3632 13.3632s-13.3632-5.9904-13.3632-13.3632v-43.52c0-7.3728 5.9904-13.3632 13.3632-13.3632s13.3632 5.9904 13.3632 13.3632v43.52z" fill="#FF7196" p-id="1574"></path></svg>