<svg class="icon" style="width: 1em;height: 1em;vertical-align: middle;fill: currentColor;overflow: hidden;" viewBox="0 0 1024 1024" version="1.1" xmlns="http://www.w3.org/2000/svg" p-id="994"><path d="M511.7952 511.6416m-450.816 0a450.816 450.816 0 1 0 901.632 0 450.816 450.816 0 1 0-901.632 0Z" fill="#E9ECFF" p-id="995"></path><path d="M793.4464 693.76h-38.4512V385.6896a33.792 33.792 0 0 0-33.792-33.792H593.408v-86.528a33.792 33.792 0 0 0-33.792-33.792H306.7904a33.792 33.792 0 0 0-33.792 33.792v428.3904h-42.8544c-10.5984 0-19.2512 8.6016-19.2512 19.2512v22.528c0 10.5984 8.6016 19.2512 19.2512 19.2512h563.3024c10.5984 0 19.2512-8.6016 19.2512-19.2512v-22.528a19.29216 19.29216 0 0 0-19.2512-19.2512z m-380.8768-59.648H351.5904v-60.9792h60.9792v60.9792z m0-100.352H351.5904V472.7296h60.9792v61.0304z m0-99.9424H351.5904V372.7872h60.9792v61.0304z m101.2224 200.2944H452.7616v-60.9792h60.9792v60.9792z m0-100.352H452.7616V472.7296h60.9792v61.0304z m0-99.9424H452.7616V372.7872h60.9792v61.0304z m160.3072 200.2944h-60.9792v-60.9792h60.9792v60.9792z m0-100.352h-60.9792V472.7296h60.9792v61.0304z" fill="#6C6CEA" p-id="996"></path><path d="M754.944 547.0208v-161.28a33.792 33.792 0 0 0-33.792-33.792H593.408V265.3696a33.792 33.792 0 0 0-33.792-33.792H306.7904a33.792 33.792 0 0 0-33.792 33.792v428.3904h-42.8544c-10.5984 0-19.2512 8.6016-19.2512 19.2512v22.528c0 10.5984 8.6016 19.2512 19.2512 19.2512h324.1472c87.552-45.3632 158.3616-118.528 200.6528-207.7696z m-141.824-74.2912h60.9792v60.9792h-60.9792V472.7296z m0 100.352h60.9792v60.9792h-60.9792v-60.9792z m-200.5504 61.0304H351.5904v-60.9792h60.9792v60.9792z m0-100.352H351.5904V472.7296h60.9792v61.0304z m0-99.9424H351.5904V372.7872h60.9792v61.0304z m101.2224 200.2944H452.7616v-60.9792h60.9792v60.9792z m0-100.352H452.7616V472.7296h60.9792v61.0304zM452.7616 433.8176V372.7872h60.9792v60.9792H452.7616z" fill="#757BF2" p-id="997"></path><path d="M351.5904 626.5344v-53.4016h60.9792v30.5152a447.0784 447.0784 0 0 0 40.192-21.0432v-9.472h15.36c80.9472-52.224 144.0768-129.6384 178.3296-221.184H593.408V265.3696a33.792 33.792 0 0 0-33.792-33.792H306.7904a33.792 33.792 0 0 0-33.792 33.792v376.832c26.9824-2.9184 53.248-8.2432 78.592-15.6672z m101.1712-253.7472h60.9792v60.9792H452.7616V372.7872z m0 99.9424h60.9792v60.9792H452.7616V472.7296zM351.5904 372.7872h60.9792v60.9792H351.5904V372.7872z m0 99.9424h60.9792v60.9792H351.5904V472.7296z" fill="#8486F8" p-id="998"></path><path d="M351.5904 415.5904v-42.8032h57.0368a451.4304 451.4304 0 0 0 107.6224-141.2608H306.7904a33.792 33.792 0 0 0-33.792 33.792V455.168a450.07872 450.07872 0 0 0 78.592-39.5776z" fill="#8D92F8" p-id="999"></path></svg>