<svg class="icon" style="width: 1em;height: 1em;vertical-align: middle;fill: currentColor;overflow: hidden;" viewBox="0 0 1024 1024" version="1.1" xmlns="http://www.w3.org/2000/svg" p-id="2400"><path d="M507.392 513.1264m-450.816 0a450.816 450.816 0 1 0 901.632 0 450.816 450.816 0 1 0-901.632 0Z" fill="#FBE1FF" p-id="2401"></path><path d="M777.9328 488.8064V358.8608h-224.8192v129.8944c0 58.1632 40.192 106.3936 93.0816 116.0192v120.2176h-48.9984c-10.7008 0-19.3536 9.5232-19.3536 21.2992s8.6528 21.2992 19.3536 21.2992h136.704c10.7008 0 19.3536-9.5232 19.3536-21.2992s-8.6528-21.2992-19.3536-21.2992h-48.9984v-120.2176c52.8384-9.5744 93.0304-57.856 93.0304-115.968zM455.68 364.3904V217.2928c0-13.1072-9.9328-23.7056-22.1696-23.7056h-89.6c-12.2368 0-22.1696 10.5984-22.1696 23.7056v147.0976c-42.7008 25.2928-71.68 73.984-71.68 129.7408v249.1392c0 37.8368 28.7744 68.608 64.1024 68.608h148.992c35.3792 0 64.1024-30.7712 64.1024-68.608V494.1312c0.1024-55.808-28.8768-104.448-71.5776-129.7408z m-118.4256 225.28c0 14.1312-10.7008 25.6-23.9616 25.6s-23.9616-11.4688-23.9616-25.6v-114.688c0-14.1312 10.7008-25.6 23.9616-25.6s23.9616 11.4688 23.9616 25.6v114.688z" fill="#BD50D3" p-id="2402"></path><path d="M553.1136 488.8064c0 58.1632 40.192 106.3936 93.0816 116.0192v16.4352c39.68-63.6416 62.8224-139.6736 62.8224-221.3888 0-13.824-0.6656-27.4944-1.9456-41.0112h-153.9072v129.9456z" fill="#C65EDB" p-id="2403"></path><path d="M553.1136 455.2192a412.75904 412.75904 0 0 0 37.376-96.3584h-37.376v96.3584z" fill="#CA6EE0" p-id="2404"></path><path d="M455.68 364.3904V217.2928c0-13.1072-9.9328-23.7056-22.1696-23.7056h-89.6c-12.2368 0-22.1696 10.5984-22.1696 23.7056v147.0976c-42.7008 25.2928-71.68 73.984-71.68 129.7408v249.1392c0 30.208 18.3808 55.9104 43.8272 65.024 0.8192 0 1.6384 0.0512 2.4576 0.0512 85.7088 0 165.2224-28.2624 230.9632-76.4928V494.1312c0.0512-55.808-28.928-104.448-71.6288-129.7408z m-118.4256 225.28c0 14.1312-10.7008 25.6-23.9616 25.6s-23.9616-11.4688-23.9616-25.6v-114.688c0-14.1312 10.7008-25.6 23.9616-25.6s23.9616 11.4688 23.9616 25.6v114.688z" fill="#C65EDB" p-id="2405"></path><path d="M455.68 364.3904V217.2928c0-13.1072-9.9328-23.7056-22.1696-23.7056h-89.6c-12.2368 0-22.1696 10.5984-22.1696 23.7056v147.0976c-42.7008 25.2928-71.68 73.984-71.68 129.7408v142.8992c152.832-22.272 239.4112-126.3104 273.3568-177.5104-9.1648-40.9088-34.2016-75.264-67.7376-95.1296z m-118.4256 225.28c0 14.1312-10.7008 25.6-23.9616 25.6s-23.9616-11.4688-23.9616-25.6v-114.688c0-14.1312 10.7008-25.6 23.9616-25.6s23.9616 11.4688 23.9616 25.6v114.688z" fill="#CA6EE0" p-id="2406"></path><path d="M455.68 237.8752v-20.5824c0-13.1072-9.9328-23.7056-22.1696-23.7056h-89.6c-12.2368 0-22.1696 10.5984-22.1696 23.7056v147.0976C288.768 383.9488 263.9872 417.4848 254.464 457.472 343.9104 412.8256 415.6928 334.5408 455.68 237.8752z" fill="#D786EA" p-id="2407"></path></svg>