<svg class="icon" style="width: 1em;height: 1em;vertical-align: middle;fill: currentColor;overflow: hidden;" viewBox="0 0 1024 1024" version="1.1" xmlns="http://www.w3.org/2000/svg" p-id="1283"><path d="M510.0032 517.7856m-450.816 0a450.816 450.816 0 1 0 901.632 0 450.816 450.816 0 1 0-901.632 0Z" fill="#FFF7DC" p-id="1284"></path><path d="M725.248 425.3184h-33.6384v-29.4912H445.6448c-2.2016 35.1744-39.5776 56.1152-75.3152 56.1152s-65.024-20.9408-67.2256-56.1152h-36.9152v358.4c0 37.0176 30.0032 67.0208 67.0208 67.0208h291.3792c37.0176 0 67.0208-30.0032 67.0208-67.0208v-21.0944h33.6384c63.7952 0 115.712-51.9168 115.712-115.712v-76.3904c0-63.7952-51.9168-115.712-115.712-115.712z m-325.0688 257.8432c0 10.7008-8.6528 19.3536-19.3536 19.3536s-19.3536-8.6528-19.3536-19.3536v-160.6144c0-10.7008 8.6528-19.3536 19.3536-19.3536s19.3536 8.6528 19.3536 19.3536v160.6144z m92.8256 0c0 10.7008-8.6528 19.3536-19.3536 19.3536s-19.3536-8.6528-19.3536-19.3536v-160.6144c0-10.7008 8.6528-19.3536 19.3536-19.3536s19.3536 8.6528 19.3536 19.3536v160.6144z m92.8256 0c0 10.7008-8.6528 19.3536-19.3536 19.3536s-19.3536-8.6528-19.3536-19.3536v-160.6144c0-10.7008 8.6528-19.3536 19.3536-19.3536s19.3536 8.6528 19.3536 19.3536v160.6144z m204.544-65.7408c0 35.8912-29.184 65.1264-65.1264 65.1264h-27.4432V475.904h27.4432c35.8912 0 65.1264 29.2352 65.1264 65.1264v76.3904z" fill="#FF8E12" p-id="1285"></path><path d="M373.2992 415.488c26.4704 0 47.872-21.4528 47.872-47.872h235.2128c1.536 0 3.072-0.1024 4.5568-0.256 1.6896 0.1536 3.3792 0.256 5.0688 0.256 36.9664 0 66.7648-30.8736 64.9728-68.1984-1.536-32.8192-28.3136-59.904-61.1328-61.7984-25.344-1.4848-47.7184 11.6224-59.6992 31.6928l-4.6592-0.6144c-4.864-35.4304-35.1744-62.72-71.8848-62.72-30.0544 0-55.808 18.2272-66.8672 44.2368 0-0.4096 0.0512-0.8192 0.0512-1.2288 0-37.7856-30.0544-68.608-67.5328-69.7856-32.8192-1.024-62.0032 21.9136-70.0928 53.7088-2.816 11.0592-2.4576 21.6064-0.256 31.3856-39.5264-18.7904-89.856-7.168-103.8336 38.2464-7.424 24.064-3.7888 40.7552 1.3312 51.1488a24.97536 24.97536 0 0 0 22.3744 13.8752h76.5952a47.9232 47.9232 0 0 0 47.9232 47.9232z" fill="#FCA315" p-id="1286"></path><path d="M691.6096 425.3184v-29.4912H445.6448c-2.2016 35.1744-39.5776 56.1152-75.3152 56.1152s-65.024-20.9408-67.2256-56.1152h-36.9152v358.4c0 37.0176 30.0032 67.0208 67.0208 67.0208h32.1024c137.8304-11.6224 257.9968-85.2992 332.4928-192.9728V475.904h27.4432c13.9264 0 26.7776 4.4032 37.376 11.8784 4.5056-16.9984 8.0384-34.3552 10.5472-52.0192-14.592-6.656-30.8224-10.4448-47.9232-10.4448h-33.6384z m-291.4304 257.8432c0 10.7008-8.6528 19.3536-19.3536 19.3536s-19.3536-8.6528-19.3536-19.3536v-160.6144c0-10.7008 8.6528-19.3536 19.3536-19.3536s19.3536 8.6528 19.3536 19.3536v160.6144z m92.8256 0c0 10.7008-8.6528 19.3536-19.3536 19.3536s-19.3536-8.6528-19.3536-19.3536v-160.6144c0-10.7008 8.6528-19.3536 19.3536-19.3536s19.3536 8.6528 19.3536 19.3536v160.6144z m92.8768 0c0 10.7008-8.6528 19.3536-19.3536 19.3536s-19.3536-8.6528-19.3536-19.3536v-160.6144c0-10.7008 8.6528-19.3536 19.3536-19.3536s19.3536 8.6528 19.3536 19.3536v160.6144z" fill="#FCA315" p-id="1287"></path><path d="M653.5168 238.6944c-18.3808 3.584-33.9968 14.9504-43.3152 30.5152l-4.6592-0.6144c-4.864-35.4304-35.1744-62.72-71.8848-62.72-30.0544 0-55.808 18.2272-66.8672 44.2368 0-0.4096 0.0512-0.8192 0.0512-1.2288 0-37.7856-30.0544-68.608-67.5328-69.7856-32.8192-1.024-62.0032 21.9136-70.0928 53.7088-2.816 11.0592-2.4576 21.6064-0.256 31.3856-39.5264-18.7904-89.856-7.168-103.8336 38.2464-7.424 24.064-3.7888 40.7552 1.3312 51.1488a24.97536 24.97536 0 0 0 22.3744 13.8752h76.5952c0 26.4704 21.4528 47.872 47.872 47.872 26.4704 0 47.872-21.4528 47.872-47.872h205.568c14.8992-40.448 24.1664-83.712 26.7776-128.768z" fill="#FCB138" p-id="1288"></path><path d="M445.6448 395.8272c-2.2016 35.1744-39.5776 56.1152-75.3152 56.1152s-65.024-20.9408-67.2256-56.1152h-36.9152v262.6048c33.024-4.608 64.9216-12.7488 95.232-24.1152v-111.7184c0-10.7008 8.6528-19.3536 19.3536-19.3536s19.3536 8.6528 19.3536 19.3536v95.1296a444.2624 444.2624 0 0 0 54.0672-31.0784v-64.0512c0-10.7008 8.6528-19.3536 19.3536-19.3536s19.3536 8.6528 19.3536 19.3536v34.9696a452.33664 452.33664 0 0 0 122.2144-161.6896h-169.472z" fill="#FCB138" p-id="1289"></path><path d="M513.024 208.8448c-20.8896 6.144-37.888 21.4528-46.2848 41.2672 0-0.4096 0.0512-0.8192 0.0512-1.2288 0-37.7856-30.0544-68.608-67.5328-69.7856-32.8192-1.024-62.0032 21.9136-70.0928 53.7088-2.816 11.0592-2.4576 21.6064-0.256 31.3856-39.5264-18.7904-89.856-7.168-103.8336 38.2464-7.424 24.064-3.7888 40.7552 1.3312 51.1488a24.97536 24.97536 0 0 0 22.3744 13.8752h76.5952c0 21.8112 14.6432 40.2432 34.6112 45.9776 68.9664-51.5072 122.624-122.4192 153.0368-204.5952zM324.7104 437.4528c-12.3904-9.6256-20.48-23.808-21.6064-41.6256h-36.9152v71.7312c20.3264-8.6528 39.8336-18.688 58.5216-30.1056z" fill="#FFC65E" p-id="1290"></path></svg>