<svg class="icon" style="width: 1em;height: 1em;vertical-align: middle;fill: currentColor;overflow: hidden;" viewBox="0 0 1024 1024" version="1.1" xmlns="http://www.w3.org/2000/svg" p-id="2898"><path d="M511.744 519.8336m-450.816 0a450.816 450.816 0 1 0 901.632 0 450.816 450.816 0 1 0-901.632 0Z" fill="#E9ECFF" p-id="2899"></path><path d="M505.9072 240.64c64.4608 0 123.648 22.272 170.496 59.392V226.6624c0-24.9344-20.224-45.1584-45.1584-45.1584H380.9792c-24.9344 0-45.1584 20.224-45.1584 45.1584v73.0624C382.6176 262.7584 441.6512 240.64 505.9072 240.64z" fill="#757BF2" p-id="2900"></path><path d="M505.9072 790.1184c-64.256 0-123.2896-22.1184-170.0864-59.0848v69.2736c0 24.9344 20.224 45.1584 45.1584 45.1584h250.2656c24.9344 0 45.1584-20.224 45.1584-45.1584v-69.632c-46.7968 37.2224-106.0352 59.4432-170.496 59.4432z" fill="#6C6CEA" p-id="2901"></path><path d="M505.9072 272.7936c-133.9904 0-242.5856 108.5952-242.5856 242.5856s108.5952 242.5856 242.5856 242.5856 242.5856-108.5952 242.5856-242.5856-108.5952-242.5856-242.5856-242.5856z m145.5616 175.36l-128.6144 100.8128a31.45728 31.45728 0 0 1-40.7552-1.6384l-98.304-90.88a31.47776 31.47776 0 0 1-1.7408-44.4928 31.47776 31.47776 0 0 1 44.4928-1.7408l78.6432 72.6528 107.52-84.2752a31.4112 31.4112 0 0 1 44.1856 5.376c10.6496 13.6704 8.2432 33.4848-5.4272 44.1856z" fill="#6C6CEA" p-id="2902"></path><path d="M725.0944 411.2896c-38.9632-81.8688-122.4192-138.496-219.136-138.496-133.9904 0-242.5856 108.5952-242.5856 242.5856 0 133.2736 107.4688 241.3568 240.4352 242.5344 124.416-68.608 211.0464-197.0688 221.2864-346.624z m-221.6448 144.384c-7.68 0-15.36-2.816-21.3504-8.3456l-98.304-90.88a31.47776 31.47776 0 0 1-1.7408-44.4928 31.47776 31.47776 0 0 1 44.4928-1.7408l78.6432 72.6528 107.52-84.2752a31.4112 31.4112 0 0 1 44.1856 5.376c10.7008 13.6704 8.3456 33.4848-5.376 44.1856l-128.6144 100.8128a31.37536 31.37536 0 0 1-19.456 6.7072zM335.8208 731.0336v69.2736c0 3.0208 0.3072 5.9904 0.8704 8.8064 38.6048-3.584 75.7248-12.1856 110.6944-25.2928-41.472-8.96-79.4112-27.392-111.5648-52.7872z" fill="#757BF2" p-id="2903"></path><path d="M606.0544 181.504H380.9792c-24.9344 0-45.1584 20.224-45.1584 45.1584v73.0624C382.6176 262.7584 441.6512 240.64 505.9072 240.64a273.408 273.408 0 0 1 101.5808 19.456c0.7168-10.24 1.2288-20.5312 1.2288-30.976 0.0512-16.0768-0.9216-31.9488-2.6624-47.616z" fill="#8486F8" p-id="2904"></path><path d="M263.3216 515.3792c0 46.2336 12.9536 89.4464 35.3792 126.208 66.8672-19.3024 126.9248-54.4256 176.0768-101.0176L383.744 456.448a31.47776 31.47776 0 0 1-1.7408-44.4928 31.47776 31.47776 0 0 1 44.4928-1.7408l78.6432 72.6528 42.9056-33.6384a426.43456 426.43456 0 0 0 55.8592-155.7504 241.75616 241.75616 0 0 0-97.9968-20.6848c-133.9392 0-242.5856 108.5952-242.5856 242.5856z" fill="#8486F8" p-id="2905"></path><path d="M487.8848 181.504H380.9792c-24.9344 0-45.1584 20.224-45.1584 45.1584v73.0624c37.2736-29.44 82.2784-49.408 131.5328-56.32 8.3456-19.9168 15.2576-40.6016 20.5312-61.9008zM270.2848 457.6768a431.34976 431.34976 0 0 0 179.9168-178.3808C361.6768 300.1344 291.84 369.408 270.2848 457.6768z" fill="#8D92F8" p-id="2906"></path></svg>