<svg class="icon" style="width: 1em;height: 1em;vertical-align: middle;fill: currentColor;overflow: hidden;" viewBox="0 0 1024 1024" version="1.1" xmlns="http://www.w3.org/2000/svg" p-id="1798"><path d="M509.5424 509.5424m-450.816 0a450.816 450.816 0 1 0 901.632 0 450.816 450.816 0 1 0-901.632 0Z" fill="#FFF1DC" p-id="1799"></path><path d="M608.1024 617.6768c-60.8256 0-110.2848-49.4592-110.2848-110.2848s49.4592-110.2848 110.2848-110.2848h201.1136V329.6256c0-46.4384-37.632-84.1216-84.1216-84.1216h-431.104c-46.4384 0-84.1216 37.632-84.1216 84.1216v359.8336c0 46.4384 37.632 84.1216 84.1216 84.1216h431.1552c46.4384 0 84.1216-37.632 84.1216-84.1216v-71.7824h-201.1648z" fill="#FC7032" p-id="1800"></path><path d="M608.1024 438.8352c-37.8368 0-68.5568 30.7712-68.5568 68.5568 0 37.7856 30.7712 68.5568 68.5568 68.5568h201.1136V438.8352h-201.1136z m2.7648 93.8496c-13.9776 0-25.2928-11.3152-25.2928-25.2928 0-13.9776 11.3152-25.2928 25.2928-25.2928s25.2928 11.3152 25.2928 25.2928c0 13.9776-11.3152 25.2928-25.2928 25.2928z" fill="#FC7032" p-id="1801"></path><path d="M805.4784 438.8352h-197.376c-37.8368 0-68.5568 30.7712-68.5568 68.5568 0 37.7856 30.7712 68.5568 68.5568 68.5568h136.5504a460.49792 460.49792 0 0 0 60.8256-137.1136z m-194.6112 93.8496c-13.9776 0-25.2928-11.3152-25.2928-25.2928 0-13.9776 11.3152-25.2928 25.2928-25.2928s25.2928 11.3152 25.2928 25.2928c0 13.9776-11.3152 25.2928-25.2928 25.2928z" fill="#FF7E3E" p-id="1802"></path><path d="M608.1024 617.6768c-60.8256 0-110.2848-49.4592-110.2848-110.2848 0-60.8256 49.4592-110.2848 110.2848-110.2848h201.1136V329.6256c0-46.4384-37.632-84.1216-84.1216-84.1216h-431.104c-46.4384 0-84.1216 37.632-84.1216 84.1216v359.8336c0 46.4384 37.632 84.1216 84.1216 84.1216h167.2192c100.7104-23.04 188.8768-78.9504 252.672-155.8528h-105.7792z" fill="#FF7E3E" p-id="1803"></path><path d="M293.9904 245.5552c-46.4384 0-84.1216 37.632-84.1216 84.1216v290.7136c6.9632 0.3072 13.9776 0.512 20.992 0.512 100.864 0 194.1504-32.256 270.1824-87.04-2.0992-8.448-3.2256-17.3056-3.2256-26.4192 0-60.8256 49.4592-110.2848 110.2848-110.2848h19.0976a460.416 460.416 0 0 0 58.1632-151.6032H293.9904z" fill="#FF9552" p-id="1804"></path><path d="M539.7504 502.6816c21.3504-19.1488 40.9088-40.2432 58.368-63.0272-31.5392 4.608-56.1152 30.7712-58.368 63.0272z" fill="#FF9552" p-id="1805"></path><path d="M503.1936 245.5552H293.9904c-46.4384 0-84.1216 37.632-84.1216 84.1216v117.6064c122.624-25.7536 227.3792-99.9936 293.3248-201.728z" fill="#FFA56A" p-id="1806"></path></svg>