<svg class="icon" style="width: 1em;height: 1em;vertical-align: middle;fill: currentColor;overflow: hidden;" viewBox="0 0 1024 1024" version="1.1" xmlns="http://www.w3.org/2000/svg" p-id="3424"><path d="M510.6176 511.3344m-450.816 0a450.816 450.816 0 1 0 901.632 0 450.816 450.816 0 1 0-901.632 0Z" fill="#FFF1DC" p-id="3425"></path><path d="M283.4432 375.9616V311.808h530.7904c-4.608-32.9216-32.8192-58.2656-66.9696-58.2656H273.9712c-37.376 0-67.7376 30.3104-67.7376 67.7376v380.0576c0 37.376 30.3104 67.7376 67.7376 67.7376h473.2416c37.376 0 67.7376-30.3104 67.7376-67.7376V375.9616H283.4432z m412.1088 219.8016c-28.928 0-52.4288-23.4496-52.4288-52.4288 0-28.928 23.4496-52.4288 52.4288-52.4288 28.928 0 52.4288 23.4496 52.4288 52.4288s-23.5008 52.4288-52.4288 52.4288z" fill="#FC7032" p-id="3426"></path><path d="M814.9504 375.9616H283.4432V311.808h530.7904c-4.608-32.9216-32.8192-58.2656-66.9696-58.2656H273.9712c-37.376 0-67.7376 30.3104-67.7376 67.7376v380.0576c0 37.376 30.3104 67.7376 67.7376 67.7376h190.5664c183.0912-42.9568 323.9936-184.0128 350.4128-371.8144v-21.2992z m-119.3984 219.8016c-28.928 0-52.4288-23.4496-52.4288-52.4288s23.4496-52.4288 52.4288-52.4288 52.4288 23.4496 52.4288 52.4288-23.5008 52.4288-52.4288 52.4288z" fill="#FF7E3E" p-id="3427"></path><path d="M283.4432 311.808h383.8976c6.656-18.8928 12.1344-38.3488 16.2816-58.2656H273.9712c-37.376 0-67.7376 30.3104-67.7376 67.7376v296.5504c8.4992 0.4608 16.9984 0.7168 25.6 0.7168 180.4288 0 336.64-92.672 412.4672-242.6368H283.4432V311.808z" fill="#FF9552" p-id="3428"></path><path d="M391.2704 375.9616H283.4432V311.808h168.6016c17.1008-18.1248 32.8192-37.5808 46.7968-58.2656H273.9712c-37.376 0-67.7376 30.3104-67.7376 67.7376V447.488c68.352-13.4656 131.2256-31.6928 185.0368-71.5264z" fill="#FFA56A" p-id="3429"></path></svg>