<svg class="icon" style="width: 1em;height: 1em;vertical-align: middle;fill: currentColor;overflow: hidden;" viewBox="0 0 1024 1024" version="1.1" xmlns="http://www.w3.org/2000/svg" p-id="5964"><path d="M511.1808 513.6384m-450.816 0a450.816 450.816 0 1 0 901.632 0 450.816 450.816 0 1 0-901.632 0Z" fill="#FFF7DC" p-id="5965"></path><path d="M265.5232 390.6048h487.9872c11.264 0 20.4288-9.1136 20.4288-20.4288v-0.7168h39.0656v-41.5232L508.3136 202.8544 201.8816 324.5568v45.312l43.2128 0.3584c0 11.264 9.1648 20.3776 20.4288 20.3776zM288 411.7504v242.7904h-13.0048c-16.128 0-29.2352 13.056-29.2352 29.2352v14.6944h531.2v-14.6944c0-16.128-13.056-29.2352-29.2352-29.2352h-12.288V411.7504h-80.9472v242.7904h-41.2672V411.7504h-80.9472v242.7904H491.008V411.7504H410.2144v242.7904h-41.2672V411.7504H288zM784.4864 716.0832H238.336c-16.128 0-29.2352 13.056-29.2352 29.2352v31.3344h604.5184v-31.3344a29.1072 29.1072 0 0 0-29.1328-29.2352z" fill="#FF8E12" p-id="5966"></path><path d="M201.8816 324.5568v45.312l43.2128 0.3584c0 11.264 9.1136 20.4288 20.4288 20.4288h487.9872c7.2192 0 13.5168-3.7888 17.152-9.4208 0-1.3312 0.0512-2.6624 0.0512-3.9936 0-23.3472-1.792-46.2848-5.1712-68.6592L508.3136 202.8544 201.8816 324.5568zM735.488 552.0896V411.7504h-80.9472v242.7904h-41.2672V411.7504h-80.9472v242.7904h-41.2672V411.7504H410.2144v242.7904h-41.2672V411.7504H288v242.7904h-13.0048c-16.128 0-29.2352 13.056-29.2352 29.2352v14.6944h390.3488c42.1376-41.472 76.1344-91.136 99.3792-146.3808zM617.1648 716.0832H238.336c-16.128 0-29.2352 13.056-29.2352 29.2352v31.3344h319.9488a453.78048 453.78048 0 0 0 88.1152-60.5696z" fill="#FCA315" p-id="5967"></path><path d="M645.4272 259.1744l-137.1136-56.32-306.432 121.7024v45.312l43.2128 0.3584c0 11.264 9.1136 20.4288 20.4288 20.4288h347.2384a449.29024 449.29024 0 0 0 32.6656-131.4816zM410.2144 614.144a453.0688 453.0688 0 0 0 80.9472-55.808V411.7504H410.2144v202.3936zM532.3776 517.8368a451.3792 451.3792 0 0 0 70.912-106.0864h-70.912v106.0864zM368.896 633.7536V411.7504h-80.896v242.7904h-13.0048a29.184 29.184 0 0 0-21.8624 9.8816c40.5504-5.12 79.36-15.5648 115.7632-30.6688z" fill="#FCB138" p-id="5968"></path><path d="M508.3136 202.8544L201.8816 324.5568v45.312l43.2128 0.3584c0 11.264 9.1136 20.4288 20.4288 20.4288h121.4464c55.3984-50.5344 98.0992-114.688 122.88-187.136l-1.536-0.6656zM362.0864 411.7504H288v47.5136c26.3168-13.4656 51.0976-29.3888 74.0864-47.5136z" fill="#FFC65E" p-id="5969"></path></svg>