<svg class="icon" style="width: 1em;height: 1em;vertical-align: middle;fill: currentColor;overflow: hidden;" viewBox="0 0 1024 1024" version="1.1" xmlns="http://www.w3.org/2000/svg" p-id="1151"><path d="M514.816 513.0752m-450.816 0a450.816 450.816 0 1 0 901.632 0 450.816 450.816 0 1 0-901.632 0Z" fill="#FFF7DC" p-id="1152"></path><path d="M751.5136 266.1888H278.1184c-45.4144 0-82.2272 36.8128-82.2272 82.2272v38.7072h637.7984v-38.7072c0.0512-45.4144-36.7616-82.2272-82.176-82.2272z" fill="#FCA315" p-id="1153"></path><path d="M195.9424 677.7344c0 45.4144 36.8128 82.2272 82.2272 82.2272h473.3952c45.4144 0 82.2272-36.8128 82.2272-82.2272v-245.76H195.9424v245.76z m472.6272-71.3216h107.1616l-39.0144 77.1072h-107.1616l39.0144-77.1072z m-77.2096 0h36.3008l-39.0144 77.1072h-36.3008l39.0144-77.1072z m-81.5616 0h36.3008l-39.0144 77.1072h-36.3008l39.0144-77.1072z" fill="#FF8E12" p-id="1154"></path><path d="M195.9424 431.9744v245.7088c0 45.4144 36.8128 82.2272 82.2272 82.2272h267.4176a450.85696 450.85696 0 0 0 130.4576-76.3904h-46.4384l39.0144-77.1072h80.0768a448.32768 448.32768 0 0 0 78.7456-174.4384H195.9424z m311.1936 251.5456h-36.3008l39.0144-77.1072h36.3008l-39.0144 77.1072z m81.5616 0h-36.3008l39.0144-77.1072h36.3008l-39.0144 77.1072z" fill="#FCA315" p-id="1155"></path><path d="M195.9424 623.7184c21.9136 3.2768 44.3904 5.0176 67.2256 5.0176 154.7264 0 291.2256-77.9776 372.4288-196.7616H195.9424v191.744zM705.28 266.1888H278.1184c-45.4144 0-82.2272 36.8128-82.2272 82.2272v38.7072h466.5856c19.7632-37.4784 34.304-78.1312 42.8032-120.9344z" fill="#FCB138" p-id="1156"></path><path d="M329.3184 431.9744H195.9424v34.8672c46.9504-4.7616 91.8016-16.7936 133.376-34.8672zM526.336 266.1888H278.1184c-45.4144 0-82.2272 36.8128-82.2272 82.2272v38.7072H409.088a452.77696 452.77696 0 0 0 117.248-120.9344z" fill="#FFC65E" p-id="1157"></path></svg>