<svg class="icon" style="width: 1em;height: 1em;vertical-align: middle;fill: currentColor;overflow: hidden;" viewBox="0 0 1024 1024" version="1.1" xmlns="http://www.w3.org/2000/svg" p-id="1475"><path d="M508.2112 510.8224m-450.816 0a450.816 450.816 0 1 0 901.632 0 450.816 450.816 0 1 0-901.632 0Z" fill="#FFF1DC" p-id="1476"></path><path d="M789.9136 273.4592c-1.024-40.0896-34.2528-71.7824-74.3424-70.9632l-235.52 4.864c-23.8592 0.512-46.592 10.24-63.3344 27.1872L176.896 476.928c-35.2256 35.584-35.3792 92.8768-0.3584 128.7168l201.9328 206.4384c35.3792 36.1472 93.3376 36.864 129.5872 1.5872l259.84-252.928a91.8016 91.8016 0 0 0 27.6992-68.1472l-5.6832-219.136z m-340.0704 377.344l31.0784-124.3136-89.6-18.2784 164.5568-152.6784-17.664 105.728 87.1424 18.5856-175.5136 170.9568z" fill="#FC7032" p-id="1477"></path><path d="M736.3584 362.3936c0-56.7296-11.776-110.6432-32.9216-159.5904l-223.3856 4.5568c-23.8592 0.512-46.592 10.24-63.3344 27.1872L176.896 476.928c-35.2256 35.584-35.3792 92.8768-0.3584 128.7168L332.8 765.3888h0.512c222.6176 0 403.0464-180.4288 403.0464-402.9952zM391.3216 508.2112l164.5568-152.6784-17.664 105.728 87.1424 18.5856-175.5136 170.9568 31.0784-124.3136-89.6-18.2784z" fill="#FF7E3E" p-id="1478"></path><path d="M480.9216 526.4896l-89.6-18.2784 164.5568-152.6784-17.664 105.728 6.144 1.3312c51.3024-67.6352 81.8176-151.9104 81.8176-243.3024 0-5.0176-0.2048-9.9328-0.3584-14.8992l-145.7664 2.9696c-23.8592 0.512-46.592 10.24-63.3344 27.1872L176.896 476.928c-35.2256 35.584-35.3792 92.8768-0.3584 128.7168l14.9504 15.2576c10.4448 0.8192 20.9408 1.3312 31.6416 1.3312 97.6896 0 187.2384-34.7648 256.9728-92.5696l0.8192-3.1744z" fill="#FF9552" p-id="1479"></path><path d="M503.0912 206.8992l-23.0912 0.4608c-23.8592 0.512-46.592 10.24-63.3344 27.1872L178.2272 475.648c151.9104-21.3504 276.5824-127.3344 324.864-268.7488z" fill="#FFA56A" p-id="1480"></path></svg>