<svg class="icon" style="width: 1em;height: 1em;vertical-align: middle;fill: currentColor;overflow: hidden;" viewBox="0 0 1024 1024" version="1.1" xmlns="http://www.w3.org/2000/svg" p-id="3072"><path d="M508.1088 513.1264m-450.816 0a450.816 450.816 0 1 0 901.632 0 450.816 450.816 0 1 0-901.632 0Z" fill="#FFE3DB" p-id="3073"></path><path d="M760.4224 501.6576c0-135.5776-109.8752-245.4528-245.4528-245.4528-135.5776 0-245.4528 109.8752-245.4528 245.4528 0 71.7312 30.8224 136.2944 79.872 181.1968L295.936 748.032c-10.24 12.4416-8.3968 30.8224 4.0448 41.0624a29.0304 29.0304 0 0 0 18.4832 6.6048c8.448 0 16.7936-3.6352 22.5792-10.6496l55.8592-68.096c35.0208 19.2512 75.264 30.208 118.016 30.208 43.7248 0 84.6848-11.4688 120.2688-31.488l56.8832 69.376a29.16864 29.16864 0 0 0 22.5792 10.6496c6.5024 0 13.056-2.1504 18.4832-6.6048 12.4416-10.24 14.2848-28.6208 4.0448-41.0624l-54.8864-66.9184c48.0768-44.8 78.1312-108.5952 78.1312-179.456zM583.68 610.2016c-7.2704 0-14.592-2.7136-20.224-8.1408l-66.2528-63.7952a29.09184 29.09184 0 0 1-8.96-20.992V388.352c0-16.128 13.056-29.184 29.184-29.184s29.184 13.056 29.184 29.184V504.832l57.344 55.1936c11.6224 11.1616 11.9296 29.6448 0.768 41.2672a29.1072 29.1072 0 0 1-21.0432 8.9088z" fill="#F23D4F" p-id="3074"></path><path d="M379.0848 259.7376l-4.3008-3.328c-37.0176-28.6208-89.6-25.0368-122.4192 8.2944-37.3248 37.9392-34.8672 99.328 4.8128 134.2464a278.18496 278.18496 0 0 1 121.9072-139.2128z" fill="#FF716E" p-id="3075"></path><path d="M775.5264 264.704c-32.8192-33.3312-85.4016-36.9152-122.4192-8.2944l-3.4304 2.6624a278.5024 278.5024 0 0 1 122.5728 138.5472c38.2464-35.1744 40.1408-95.4368 3.2768-132.9152z" fill="#F23D4F" p-id="3076"></path><path d="M780.8512 270.7456c-1.6896-2.048-3.4304-4.096-5.3248-6.0416-32.8192-33.3312-85.4016-36.9152-122.4192-8.2944l-3.4304 2.6624a278.5024 278.5024 0 0 1 122.5728 138.5472c0.5632-0.512 1.024-1.0752 1.536-1.5872a429.6704 429.6704 0 0 0 8.8576-86.8864c0-12.9536-0.6656-25.7536-1.792-38.4zM514.9696 256.2048c-135.5776 0-245.4528 109.8752-245.4528 245.4528 0 71.7312 30.8224 136.2944 79.872 181.1968l-41.0112 50.0224c15.7184 1.7408 31.6416 2.7136 47.8208 2.7136 8.7552 0 17.4592-0.3584 26.112-0.8704l14.592-17.8176a244.224 244.224 0 0 0 27.9552 13.1072c153.1392-24.7808 278.9376-131.072 331.4176-272.9984-20.992-114.2272-120.9856-200.8064-241.3056-200.8064z m89.7536 345.088a29.16352 29.16352 0 0 1-21.0432 8.96c-7.2704 0-14.592-2.7136-20.224-8.1408l-66.2528-63.7952a29.09184 29.09184 0 0 1-8.96-20.992V388.352c0-16.128 13.056-29.184 29.184-29.184s29.184 13.056 29.184 29.184V504.832l57.344 55.1936a29.2352 29.2352 0 0 1 0.768 41.2672z" fill="#FC4956" p-id="3077"></path><path d="M514.9696 256.2048c-135.5776 0-245.4528 109.8752-245.4528 245.4528 0 28.1088 4.8128 55.0912 13.5168 80.2816 76.1344-7.7312 146.2784-35.5328 205.2096-77.9264V388.352c0-16.128 13.056-29.184 29.184-29.184s29.184 13.056 29.184 29.184v65.0752c43.4688-45.1072 77.1072-99.7888 97.3824-160.5632a244.39296 244.39296 0 0 0-129.024-36.6592z" fill="#FF5C64" p-id="3078"></path><path d="M475.8528 259.3792c-83.3024 13.3632-152.576 68.608-185.5488 143.5136a428.3392 428.3392 0 0 0 185.5488-143.5136z" fill="#FF716E" p-id="3079"></path></svg>