<svg class="icon" style="width: 1em;height: 1em;vertical-align: middle;fill: currentColor;overflow: hidden;" viewBox="0 0 1024 1024" version="1.1" xmlns="http://www.w3.org/2000/svg" p-id="3631"><path d="M509.9008 509.5936m-450.816 0a450.816 450.816 0 1 0 901.632 0 450.816 450.816 0 1 0-901.632 0Z" fill="#FFF1DC" p-id="3632"></path><path d="M513.28 182.6304c-97.0752 0-175.7696 78.6944-175.7696 175.7696s92.5184 216.6784 175.7696 270.592c95.7952-86.016 175.7696-173.568 175.7696-270.592s-78.6944-175.7696-175.7696-175.7696z m0 259.4304c-47.7696 0-86.4768-38.7072-86.4768-86.4768 0-47.7696 38.7072-86.4768 86.4768-86.4768s86.4768 38.7072 86.4768 86.4768c0 47.7696-38.7072 86.4768-86.4768 86.4768z" fill="#FCA315" p-id="3633"></path><path d="M830.1568 714.5984l-45.568-187.1872a36.90496 36.90496 0 0 0-35.84-28.16h-72.448c-18.5344 25.6-34.816 45.312-47.104 59.3408 23.9616 12.1856 38.5024 28.1088 38.5024 45.5168 0 38.3488-70.2976 69.4272-156.9792 69.4272s-156.9792-31.0784-156.9792-69.4272c0-16.6912 13.312-32 35.5328-43.9808-13.6192-19.5584-29.184-43.3152-40.5504-60.8768H275.9168a36.9152 36.9152 0 0 0-35.84 28.0576l-46.2336 187.1872c-5.7344 23.296 11.8784 45.7728 35.84 45.7728h564.5824c23.9104 0 41.5232-22.4256 35.8912-45.6704z" fill="#FF8E12" p-id="3634"></path><path d="M775.4752 510.8224a36.85888 36.85888 0 0 0-26.7776-11.5712h-72.4992c-18.5344 25.6-34.816 45.312-47.104 59.3408 23.9616 12.1856 38.5024 28.1088 38.5024 45.5168 0 38.3488-70.2976 69.4272-156.9792 69.4272s-156.9792-31.0784-156.9792-69.4272c0-16.6912 13.312-32 35.5328-43.9808-13.6192-19.5584-29.184-43.3152-40.5504-60.8768h-72.704a36.9152 36.9152 0 0 0-35.84 28.0576l-46.2336 187.1872c-5.7344 23.296 11.8784 45.7728 35.84 45.7728h338.7904c98.048-52.2752 173.312-141.6704 207.0016-249.4464z" fill="#FCA315" p-id="3635"></path><path d="M674.304 287.8464c-27.1872-61.952-89.0368-105.216-160.9728-105.216-97.0752 0-175.7696 78.6944-175.7696 175.7696 0 81.0496 64.512 177.8176 134.2976 238.9504 108.4416-65.6384 185.1904-178.176 202.4448-309.504zM426.8032 355.584c0-47.7696 38.7072-86.4768 86.4768-86.4768s86.4768 38.7072 86.4768 86.4768c0 47.7696-38.7072 86.4768-86.4768 86.4768s-86.4768-38.7072-86.4768-86.4768zM251.2896 658.688c43.52 0 85.504-6.5536 125.0304-18.6368-14.336-10.496-22.5792-22.784-22.5792-35.8912 0-16.6912 13.312-32 35.5328-43.9808-13.6192-19.5584-29.184-43.3152-40.5504-60.8768H275.9168a36.9152 36.9152 0 0 0-35.84 28.0576l-31.8976 129.1776c14.1824 1.3824 28.5696 2.1504 43.1104 2.1504z" fill="#FCB138" p-id="3636"></path><path d="M426.8032 355.584c0-47.7696 38.7072-86.4768 86.4768-86.4768 4.4544 0 8.8576 0.4608 13.1072 1.0752a421.88288 421.88288 0 0 0 30.6688-82.0736c-14.0288-3.584-28.672-5.5296-43.8272-5.5296-97.0752 0-175.7696 78.6944-175.7696 175.7696 0 28.9792 8.2944 60.0064 22.1184 90.6752a427.74528 427.74528 0 0 0 75.5712-56.4224 86.81472 86.81472 0 0 1-8.3456-37.0176z" fill="#FFC65E" p-id="3637"></path></svg>