<svg class="icon" style="width: 1em;height: 1em;vertical-align: middle;fill: currentColor;overflow: hidden;" viewBox="0 0 1024 1024" version="1.1" xmlns="http://www.w3.org/2000/svg" p-id="1931"><path d="M510.208 509.5936m-450.816 0a450.816 450.816 0 1 0 901.632 0 450.816 450.816 0 1 0-901.632 0Z" fill="#FFF1DC" p-id="1932"></path><path d="M704.2048 384.6144l77.056-145.3056c4.096-7.7312-1.4848-17.0496-10.24-17.0496h-179.3024c-4.2496 0-8.1408 2.304-10.1888 6.0416l-45.9776 83.7632c64.512 5.5296 122.9824 31.9488 168.6528 72.5504z" fill="#FC7032" p-id="1933"></path><path d="M316.16 384.6144c45.6704-40.6016 104.192-67.072 168.6528-72.6016l-45.9776-83.7632c-2.048-3.7376-5.9392-6.0416-10.1888-6.0416H249.3952c-8.7552 0-14.3872 9.3184-10.24 17.0496l77.0048 145.3568z" fill="#FFA56A" p-id="1934"></path><path d="M510.208 349.7984c-139.9296 0-253.3376 113.408-253.3376 253.3376s113.408 253.3376 253.3376 253.3376 253.3376-113.408 253.3376-253.3376c0-139.8784-113.4592-253.3376-253.3376-253.3376z m137.472 218.624l-49.5104 48.2816c-4.096 3.9936-5.9904 9.7792-5.0176 15.4624l11.6736 68.1472c2.4576 14.2336-12.544 25.1392-25.344 18.3808l-61.184-32.1536c-5.0688-2.6624-11.1616-2.6624-16.2304 0l-61.184 32.1536c-12.8 6.7072-27.7504-4.1472-25.344-18.3808l11.6736-68.1472c0.9728-5.6832-0.9216-11.4176-5.0176-15.4624l-49.5104-48.2816c-10.3424-10.0864-4.6592-27.6992 9.6768-29.7472l68.4032-9.9328c5.6832-0.8192 10.5984-4.4032 13.1584-9.5232l30.6176-62.0032c6.4-12.9536 24.8832-12.9536 31.2832 0l30.6176 62.0032c2.56 5.1712 7.4752 8.704 13.1584 9.5232l68.4032 9.9328c14.336 2.0992 20.0192 19.6608 9.6768 29.7472z" fill="#FC7032" p-id="1935"></path><path d="M753.5104 291.6352c-7.168-24.1664-16.5376-47.36-27.904-69.376h-133.888c-4.2496 0-8.1408 2.304-10.1888 6.0416l-45.9776 83.7632c64.512 5.5296 122.9824 32 168.6528 72.6016l49.3056-93.0304zM751.872 527.0016c-32.3072-102.7072-128.3072-177.152-241.664-177.152-139.9296 0-253.3376 113.408-253.3376 253.3376 0 85.0432 41.984 160.256 106.2912 206.2336 1.3824 0 2.7136 0.1024 4.0448 0.1024 180.5824-0.0512 333.4144-118.8352 384.6656-282.5216z m-158.72 105.1648l11.6736 68.1472c2.4576 14.2336-12.544 25.1392-25.344 18.3808l-61.184-32.1536c-5.0688-2.6624-11.1616-2.6624-16.2304 0l-61.184 32.1536c-12.8 6.7072-27.7504-4.1472-25.344-18.3808l11.6736-68.1472c0.9728-5.6832-0.9216-11.4176-5.0176-15.4624l-49.5104-48.2816c-10.3424-10.0864-4.6592-27.6992 9.6768-29.7472l68.4032-9.9328c5.6832-0.8192 10.5984-4.4032 13.1584-9.5232l30.6176-62.0032c6.4-12.9536 24.8832-12.9536 31.2832 0l30.6176 62.0032c2.56 5.1712 7.4752 8.704 13.1584 9.5232l68.4032 9.9328c14.336 2.0992 20.0192 19.6608 9.6768 29.7472l-49.5104 48.2816c-4.096 3.9936-5.9904 9.7792-5.0176 15.4624z" fill="#FF7E3E" p-id="1936"></path><path d="M256.8704 603.136c0 21.76 2.7648 42.8544 7.8848 62.976 58.0608-1.1264 113.1008-14.4384 162.6624-37.632-0.1536-4.4032-1.9456-8.704-5.1712-11.8272l-49.5104-48.2816c-10.3424-10.0864-4.6592-27.6992 9.6768-29.7472l68.4032-9.9328c5.6832-0.8192 10.5984-4.4032 13.1584-9.5232l30.6176-62.0032c6.4-12.9536 24.8832-12.9536 31.2832 0l30.6176 62.0032c1.3824 2.816 3.5328 5.0688 6.0928 6.7584 34.816-40.448 61.7472-87.8592 78.336-139.8784-38.144-23.04-82.8416-36.3008-130.6624-36.3008-139.9808 0.0512-253.3888 113.5104-253.3888 253.3888zM581.5296 228.3008l-45.9776 83.7632c41.6768 3.584 80.7936 15.9232 115.6096 35.1744a403.72736 403.72736 0 0 0 8.8064-83.8144c0-13.8752-0.7168-27.5968-2.048-41.1136h-66.2016c-4.2496-0.0512-8.1408 2.2528-10.1888 5.9904z" fill="#FF9552" p-id="1937"></path><path d="M276.48 505.2416c85.9136-26.9824 159.3344-82.0224 209.7664-154.2656C391.4752 359.8848 311.8592 420.9664 276.48 505.2416z" fill="#FFA56A" p-id="1938"></path></svg>