<svg class="icon" style="width: 1em;height: 1em;vertical-align: middle;fill: currentColor;overflow: hidden;" viewBox="0 0 1024 1024" version="1.1" xmlns="http://www.w3.org/2000/svg" p-id="6501"><path d="M512.0512 520.96m-450.816 0a450.816 450.816 0 1 0 901.632 0 450.816 450.816 0 1 0-901.632 0Z" fill="#FFE3DB" p-id="6502"></path><path d="M666.4704 560.6912a31.488 31.488 0 0 1-29.3888-20.2752L604.16 453.6832 504.7808 670.72a31.40096 31.40096 0 0 1-28.2624 18.3296h-0.3072c-12.0832 0-23.0912-6.912-28.3136-17.8176l-64.256-133.9392-32.9728 24.7296c-5.4272 4.096-12.032 6.2976-18.8416 6.2976H233.8304v153.7536c0 42.24 34.2528 76.4928 76.4928 76.4928h402.2272c42.24 0 76.4928-34.2528 76.4928-76.4928v-161.3824h-122.5728z" fill="#F23D4F" p-id="6503"></path><path d="M321.3312 505.4976l55.1936-41.4208a31.40096 31.40096 0 0 1 47.1552 11.5712L475.4944 583.68l102.7072-224.4096a31.48288 31.48288 0 0 1 29.5936-18.3296c12.6464 0.4096 23.808 8.3968 28.3136 20.2752l51.9168 136.704h100.9152V319.8464c0-42.24-34.2528-76.4928-76.4928-76.4928H310.3232c-42.24 0-76.4928 34.2528-76.4928 76.4928v185.6h87.5008z" fill="#F23D4F" p-id="6504"></path><path d="M789.0432 319.8464c0-42.24-34.2528-76.4928-76.4928-76.4928H310.3232c-42.24 0-76.4928 34.2528-76.4928 76.4928v185.6h87.5008l55.1936-41.4208a31.40096 31.40096 0 0 1 47.1552 11.5712l51.8144 108.032 102.7072-224.4096a31.48288 31.48288 0 0 1 29.5936-18.3296c12.6464 0.4096 23.808 8.3968 28.3136 20.2752l51.9168 136.704h77.3632a449.62816 449.62816 0 0 0 23.552-107.008V319.8464z" fill="#FC4956" p-id="6505"></path><path d="M737.7408 560.6912h-71.2704a31.488 31.488 0 0 1-29.3888-20.2752L604.16 453.6832 504.7808 670.72a31.40096 31.40096 0 0 1-28.2624 18.3296h-0.3072c-12.0832 0-23.0912-6.912-28.3136-17.8176l-64.256-133.9392-32.9728 24.7296c-5.4272 4.096-12.032 6.2976-18.8416 6.2976H233.8304v153.7536c0 35.2256 23.808 64.8192 56.2176 73.6768 16.4864 1.8432 33.2288 2.816 50.2272 2.816 171.9808 0 321.4336-96.256 397.4656-237.8752z" fill="#FC4956" p-id="6506"></path><path d="M310.3232 243.3536c-42.24 0-76.4928 34.2528-76.4928 76.4928v185.6h87.5008l55.1936-41.4208a31.40096 31.40096 0 0 1 47.1552 11.5712L465.92 563.5072c9.6256-6.4 18.9952-13.1072 28.0576-20.1728l84.3264-184.1152a31.48288 31.48288 0 0 1 29.5936-18.3296c11.3664 0.3584 21.504 6.912 26.7264 16.7936a446.2592 446.2592 0 0 0 29.7472-114.3296H310.3232z" fill="#FF5C64" p-id="6507"></path><path d="M411.136 594.6368l-27.4944-57.344-32.9728 24.7296c-5.4272 4.096-12.032 6.2976-18.8416 6.2976H233.8304v69.8368c63.3344-2.3552 123.2896-17.7152 177.3056-43.52z" fill="#FF5C64" p-id="6508"></path><path d="M499.8144 243.3536h-189.44c-42.24 0-76.4928 34.2528-76.4928 76.4928V459.776c114.432-34.4576 209.7664-113.2544 265.9328-216.4224z" fill="#FF716E" p-id="6509"></path></svg>