<svg class="icon" style="width: 1em;height: 1em;vertical-align: middle;fill: currentColor;overflow: hidden;" viewBox="0 0 1024 1024" version="1.1" xmlns="http://www.w3.org/2000/svg" p-id="915"><path d="M512.768 509.44m-450.816 0a450.816 450.816 0 1 0 901.632 0 450.816 450.816 0 1 0-901.632 0Z" fill="#E9F4FF" p-id="916"></path><path d="M720.384 237.824H307.6608c-38.7072 0-70.0928 31.3856-70.0928 70.0928v403.712c0 38.7072 31.3856 70.0928 70.0928 70.0928h412.7232c38.7072 0 70.0928-31.3856 70.0928-70.0928V307.9168c0.0512-38.7072-31.3344-70.0928-70.0928-70.0928z m-30.208 166.6048l-72.6528 66.9696 28.928 200.4992c0.4096 2.7136-0.5632 5.4784-2.6112 7.3728l-19.456 18.1248c-3.9424 3.6352-10.24 2.7648-12.9536-1.8944l-83.5584-141.4656-56.1664 51.7632-12.6464 86.0672c-1.0752 7.3728-10.8032 9.2672-14.592 2.816l-42.8544-73.216-75.6224-45.056c-6.4-3.7888-4.4032-13.5168 2.9184-14.5408l87.6544-12.2368 52.2752-54.6304-138.2912-79.872a8.3968 8.3968 0 0 1-1.8944-13.056l18.944-20.0704c1.8944-1.9968 4.7104-2.9696 7.424-2.5088l194.6112 31.1296 72.3456-75.6224c19.2-20.0192 51.2-20.0192 70.3488 0.0512 18.8928 19.6608 17.8688 50.944-2.1504 69.376z" fill="#2595E8" p-id="917"></path><path d="M720.384 237.824H307.6608c-38.7072 0-70.0928 31.3856-70.0928 70.0928v403.712c0 22.9376 11.0592 43.2128 28.0576 56.0128 22.1184 3.328 44.6976 5.0688 67.7376 5.0688 101.4784 0 195.1232-33.536 270.4896-90.1632l-75.9296-128.5632-56.1664 51.7632-12.6464 86.0672c-1.0752 7.3728-10.8032 9.2672-14.592 2.816l-42.8544-73.216-75.6224-45.056c-6.4-3.7888-4.4032-13.5168 2.9184-14.5408l87.6544-12.2368 52.2752-54.6304-138.2912-79.872a8.3968 8.3968 0 0 1-1.8944-13.056l18.944-20.0704c1.8944-1.9968 4.7104-2.9696 7.424-2.5088l194.6112 31.1296 72.3456-75.6224c19.2-20.0192 51.2-20.0192 70.3488 0.0512 18.7904 19.712 17.8176 50.944-2.2016 69.4272l-72.6528 66.9696 25.7024 177.92c86.784-82.176 140.9024-198.4512 140.9024-327.3728 0-16.2304-0.8704-32.3072-2.56-48.0768-11.9296-21.504-34.8672-36.0448-61.184-36.0448z" fill="#3A9CED" p-id="918"></path><path d="M237.568 307.9168v303.8208c38.912-2.3552 76.4928-9.6256 112.128-21.1968l-23.6544-14.08c-6.4-3.7888-4.4032-13.5168 2.9184-14.5408l87.6544-12.2368 52.2752-54.6304-138.2912-79.872a8.3968 8.3968 0 0 1-1.8944-13.056l18.944-20.0704c1.8944-1.9968 4.7104-2.9696 7.424-2.5088l194.6112 31.1296 72.3456-75.6224c2.048-2.1504 4.3008-4.0448 6.656-5.7344a448.31744 448.31744 0 0 0 25.7024-91.392H307.6608c-38.7072-0.1024-70.0928 31.2832-70.0928 69.9904z" fill="#59ADF8" p-id="919"></path><path d="M237.568 307.9168V430.592c102.1952-33.5872 188.2112-102.7072 243.5072-192.768H307.6608c-38.7072 0-70.0928 31.3856-70.0928 70.0928z" fill="#6BC2FC" p-id="920"></path></svg>