<svg class="icon" style="width: 1em;height: 1em;vertical-align: middle;fill: currentColor;overflow: hidden;" viewBox="0 0 1024 1024" version="1.1" xmlns="http://www.w3.org/2000/svg" p-id="1536"><path d="M512.3072 510.8224m-450.816 0a450.816 450.816 0 1 0 901.632 0 450.816 450.816 0 1 0-901.632 0Z" fill="#E9F4FF" p-id="1537"></path><path d="M614.2464 703.3344c-30.9248 14.2848-63.1808 21.8624-97.4336 20.9408-13.824-0.9728-27.9552-0.3584-41.4208-3.1744-95.4368-19.9168-151.9616-79.7184-173.824-173.2608-18.3808-78.6944 18.944-169.8816 88.3712-218.9824C471.7568 271.0528 582.8608 276.48 658.432 341.9648c15.3088 13.312 15.0016 19.2-2.7648 29.8496-25.0368 15.0016-50.432 29.3888-75.6224 44.1344-36.3008 21.2992-72.7552 42.3424-108.7488 64.2048-32.4096 19.712-34.6624 55.9616-4.864 79.36 19.9168 15.616 40.6016 10.1888 60.3648-1.1776 87.5008-50.3808 174.8992-100.864 262.2464-151.5008 18.2272-10.5472 20.3264-18.8928 11.1104-37.8368C772.5568 312.32 731.0848 268.8 676.352 237.2608c-60.2624-34.7648-124.2112-51.5584-193.8944-43.008-48.7936 5.9904-93.184 23.8592-135.3216 48.6912C204.8 326.7584 170.7008 505.7536 224.0512 625.664c51.4048 115.5072 140.6976 185.344 270.1312 195.84 75.4176 6.144 143.9744-13.7728 205.1584-58.5216 7.936-5.7856 11.8272-12.5952 6.9632-22.0672-27.648-53.5552-44.4928-59.5968-92.0576-37.5808z" fill="#2595E8" p-id="1538"></path><path d="M796.1088 520.3456c-1.5872-2.56-9.984-3.7376-13.312-1.9968-21.1968 11.1104-42.1376 22.6816-62.3616 35.4304-3.7376 2.3552-6.7072 12.3392-4.8128 16.128 10.752 21.2992 22.7328 42.0864 35.328 62.3616 2.2528 3.584 11.1104 7.3216 13.7728 5.7344 17.152-10.2912 34.048-21.248 49.664-33.7408 5.12-4.096 6.0928-13.3632 7.5264-16.8448-1.2288-28.0576-13.824-47.5648-25.8048-67.072z" fill="#2595E8" p-id="1539"></path><path d="M676.352 237.2608c-60.2624-34.7648-124.2112-51.5584-193.8944-43.008-48.7936 5.9904-93.184 23.8592-135.3216 48.6912C204.8 326.7584 170.7008 505.7536 224.0512 625.664c35.2256 79.2064 88.2688 136.9088 159.8464 168.7552 72.448-9.4208 139.1616-37.0176 195.4816-78.08-20.1728 5.7344-40.96 8.4992-62.5152 7.936-13.824-0.9728-27.9552-0.3584-41.4208-3.1744-95.488-19.9168-152.0128-79.7184-173.8752-173.2608-18.3808-78.6944 18.944-169.8816 88.3712-218.9824C471.7568 271.0528 582.8608 276.48 658.432 341.9648c15.3088 13.312 15.0528 19.2-2.7648 29.8496-25.0368 15.0016-50.432 29.3888-75.6224 44.1344-36.3008 21.2992-72.7552 42.3424-108.7488 64.2048-32.4096 19.712-34.6624 55.9616-4.864 79.36 19.9168 15.616 40.6016 10.1888 60.3648-1.1776 74.9056-43.1104 149.7088-86.3744 224.512-129.6896 2.56-18.8416 3.8912-38.0928 3.8912-57.6512 0-26.5216-2.4576-52.5312-7.0656-77.7216-20.6336-21.6576-44.544-40.3456-71.7824-56.0128z" fill="#3A9CED" p-id="1540"></path><path d="M301.568 547.84c-18.3808-78.6944 18.944-169.8816 88.3712-218.9824 70.9632-50.176 163.9936-52.6848 236.6976-9.728a429.13792 429.13792 0 0 0 11.7248-99.6864v-1.4336c-49.0496-21.4016-100.6592-30.5664-155.904-23.808-48.7936 5.9904-93.184 23.8592-135.3216 48.6912C204.8 326.7072 170.7008 505.7024 224.0512 625.6128c3.072 6.912 6.2976 13.6192 9.6256 20.1728 34.816-1.792 68.5568-7.7824 100.7104-17.408-14.7456-23.0912-25.6512-49.9712-32.8192-80.5376z" fill="#59ADF8" p-id="1541"></path><path d="M580.0448 416c-36.3008 21.2992-72.7552 42.3424-108.7488 64.2048-32.4096 19.712-34.6624 55.9616-4.864 79.36 0.512 0.4096 1.0752 0.768 1.5872 1.1264a428.7488 428.7488 0 0 0 126.8736-153.344c-4.9664 2.9184-9.9328 5.7344-14.848 8.6528z" fill="#59ADF8" p-id="1542"></path><path d="M306.7392 444.2112c14.2848-45.4144 43.4688-87.296 83.2-115.3536 23.5008-16.5888 49.408-27.9552 76.2368-34.2016a423.7312 423.7312 0 0 0 46.592-102.4512c-9.984 0.2048-20.0704 0.8192-30.3104 2.0992-48.7936 5.9904-93.184 23.8592-135.3216 48.6912-92.416 54.3232-139.1616 148.8384-146.0224 241.2544a424.96 424.96 0 0 0 105.6256-40.0384z" fill="#6BC2FC" p-id="1543"></path></svg>