<svg class="icon" style="width: 1em;height: 1em;vertical-align: middle;fill: currentColor;overflow: hidden;" viewBox="0 0 1024 1024" version="1.1" xmlns="http://www.w3.org/2000/svg" p-id="6582"><path d="M510.208 510.72m-450.816 0a450.816 450.816 0 1 0 901.632 0 450.816 450.816 0 1 0-901.632 0Z" fill="#E9ECFF" p-id="6583"></path><path d="M511.488 793.5488c-72.2944 0-144.5888 0.0512-216.832 0-59.0336-0.0512-90.9312-32.1536-90.9824-91.392-0.0512-100.4032-0.1024-200.8064 0.0512-301.2096 0.0512-43.8272 21.1968-73.7792 59.1872-83.6096 9.0624-2.3552 18.944-3.1744 28.3136-2.6112 21.5552 1.2288 41.472-3.7888 61.4912-11.4176 86.784-32.9216 173.7728-65.1776 260.7616-97.4848 43.3152-16.0768 75.8784-1.1264 92.4672 42.0352 7.2192 18.7392 13.6192 37.7856 21.6576 56.1152 2.048 4.7104 8.8576 10.1888 13.6704 10.3936 38.8608 1.7408 74.8544 31.9488 75.0592 80.6912 0.4608 105.9328 0.9216 211.8656-0.2048 317.7472-0.512 48.64-35.1232 80.2816-84.736 80.5376-73.3184 0.512-146.5856 0.2048-219.904 0.2048z m114.0736-105.9328c0-0.4608 0.0512-0.9216 0.0512-1.4336 13.056 0 26.112 0.7168 39.1168-0.1536 19.9168-1.3824 39.8848-2.9184 59.5456-6.1952 12.8512-2.0992 18.6368-11.2128 18.3296-25.1392-0.8704-37.4784-24.7808-73.9328-61.3888-81.8176-27.4432-5.888-56.6784-5.1712-85.0432-4.7104-43.776 0.7168-76.2368 29.952-84.6336 73.2672-5.2736 27.136 1.3824 38.4512 28.6208 41.4208 28.2624 3.1744 56.8832 3.328 85.4016 4.7616z m69.0176-197.12c-0.256-37.7856-32.6144-69.4272-70.8608-69.376-38.7584 0.0512-71.8848 32.9728-71.2192 70.8096 0.7168 38.144 32.512 69.12 71.1168 69.2736 38.7072 0.1536 71.2704-32.256 70.9632-70.7072z m-303.9744 36.1472c25.088 0 50.176 0.3072 75.2128-0.1024 23.9616-0.4096 38.656-13.9264 38.912-34.816 0.256-20.7872-14.4896-35.2256-38.1952-35.4304-49.664-0.4608-99.2768-0.4096-148.9408-0.0512-23.1424 0.1536-39.4752 15.104-39.6288 34.7136-0.1536 20.1216 16.7936 35.328 40.3968 35.584 24.1152 0.3072 48.1792 0.1024 72.2432 0.1024z m-36.8128 144.9472c14.5408 0 29.0816 0.6144 43.5712-0.1536 19.6096-0.9728 32.1024-13.2096 33.792-31.6928 1.4848-16.4864-9.5744-32.4096-27.5968-35.5328-14.6432-2.56-29.7984-2.3552-44.7488-2.3552-17.4592 0-35.1232-0.3584-52.3264 2.2016-17.7664 2.6112-29.6448 19.4048-28.3136 35.2768 1.536 17.92 14.848 31.1296 33.5872 32.1024 13.9776 0.7168 28.0064 0.1536 42.0352 0.1536z" fill="#6C6CEA" p-id="6584"></path><path d="M816.3328 395.2128c-0.2048-48.7424-36.1984-79.0016-75.0592-80.6912-4.8128-0.2048-11.6224-5.6832-13.6704-10.3936-8.0384-18.3296-14.4384-37.4272-21.6576-56.1152-16.5888-43.2128-49.2032-58.112-92.4672-42.0352-86.9888 32.3072-173.9776 64.5632-260.7616 97.4848-20.0192 7.5776-39.936 12.5952-61.4912 11.4176-9.3696-0.512-19.2 0.3072-28.3136 2.6112-37.9904 9.7792-59.136 39.7824-59.1872 83.6096-0.1536 100.4032-0.1024 200.8064-0.0512 301.2096 0 59.2384 31.9488 91.2896 90.9824 91.392 65.9456 0.0512 131.84 0 197.7856 0 72.448-20.2752 137.5232-58.2144 190.2592-108.8512-5.9904 0.512-11.9808 0.9216-17.9712 1.3312-12.9536 0.8704-26.0608 0.1536-39.1168 0.1536 0 0.4608-0.0512 0.9216-0.0512 1.4336-28.5184-1.4336-57.1392-1.5872-85.4528-4.7104-27.1872-2.9696-33.8432-14.2848-28.6208-41.4208 8.3968-43.3152 40.8576-72.5504 84.6336-73.2672 28.3648-0.4608 57.6-1.1776 85.0432 4.7104 26.0096 5.5808 45.568 25.6 55.04 50.176a448.81408 448.81408 0 0 0 80.2304-196.8128c-0.0512-10.5472-0.0512-20.8896-0.1024-31.232z m-385.1776 244.5824c-1.6896 18.4832-14.1312 30.6688-33.792 31.6928-14.4896 0.7168-29.0304 0.1536-43.5712 0.1536-14.0288-0.0512-28.0576 0.5632-42.0352-0.1536-18.7904-0.9728-32.1024-14.1824-33.5872-32.1024-1.3312-15.872 10.5472-32.6656 28.3136-35.2768 17.152-2.56 34.8672-2.2016 52.3264-2.2016 14.9504 0 30.1568-0.2048 44.7488 2.3552 17.9712 3.1232 29.0816 18.9952 27.5968 35.5328z m34.6624-113.2544c-25.088 0.4096-50.1248 0.1024-75.2128 0.1024-24.064 0-48.128 0.2048-72.192-0.0512-23.6032-0.3072-40.5504-15.4624-40.3968-35.584 0.1536-19.6096 16.4352-34.56 39.5776-34.7136 49.664-0.3584 99.2768-0.4096 148.9408 0.0512 23.7056 0.2048 38.4 14.6432 38.1952 35.4304-0.2048 20.8384-14.8992 34.3552-38.912 34.7648z m157.7984 34.6624c-38.6048-0.1536-70.4-31.1296-71.1168-69.2736-0.7168-37.8368 32.4096-70.7584 71.2192-70.8096 38.2464-0.0512 70.6048 31.5904 70.8608 69.376 0.3072 38.4512-32.256 70.8608-70.9632 70.7072z" fill="#757BF2" p-id="6585"></path><path d="M280.3712 648.9088c-1.0752-3.0208-1.9456-6.1952-2.2528-9.5744-1.3312-15.872 10.5472-32.6656 28.3136-35.2768 17.152-2.56 34.8672-2.2016 52.3264-2.2016 14.9504 0 30.1568-0.2048 44.7488 2.3552 7.8848 1.3824 14.4896 5.2224 19.2512 10.4448a452.096 452.096 0 0 0 137.984-91.4432c-5.0176-9.4208-8.0384-20.0704-8.2432-31.3344-0.7168-37.8368 32.4096-70.7584 71.2192-70.8096 5.1712 0 10.24 0.6144 15.104 1.6896 32.9216-57.5488 53.4528-123.0336 58.1632-192.8704-18.1248-29.0304-47.0016-37.632-83.5584-24.064-86.9888 32.3072-173.9776 64.5632-260.7616 97.4848-20.0192 7.5776-39.936 12.5952-61.4912 11.4176-9.3696-0.512-19.2 0.3072-28.3136 2.6112-37.9904 9.7792-59.136 39.7824-59.1872 83.6096-0.1536 82.3296-0.1024 164.7104-0.0512 247.04 14.336 1.3824 28.8768 2.0992 43.6224 2.0992 11.1616 0.0512 22.2208-0.3584 33.1264-1.1776z m37.2224-192.6656c49.664-0.3584 99.2768-0.4096 148.9408 0.0512 23.7056 0.2048 38.4 14.6432 38.1952 35.4304-0.256 20.9408-14.9504 34.4576-38.912 34.816-25.088 0.4096-50.1248 0.1024-75.2128 0.1024-24.064 0-48.128 0.2048-72.192-0.0512-23.6032-0.3072-40.5504-15.4624-40.3968-35.584 0.1024-19.6608 16.4352-34.6112 39.5776-34.7648z" fill="#8486F8" p-id="6586"></path><path d="M541.3888 232.704c-62.976 23.3984-125.9008 46.848-188.7232 70.656-20.0192 7.5776-39.936 12.5952-61.4912 11.4176-9.3696-0.512-19.2 0.3072-28.3136 2.6112-37.9904 9.7792-59.136 39.7824-59.1872 83.6096-0.0512 28.0576-0.0512 56.1664-0.0512 84.224 149.7088-23.2448 275.0464-120.1664 337.7664-252.5184z" fill="#8D92F8" p-id="6587"></path></svg>