<svg class="icon" style="width: 1em;height: 1em;vertical-align: middle;fill: currentColor;overflow: hidden;" viewBox="0 0 1024 1024" version="1.1" xmlns="http://www.w3.org/2000/svg" p-id="6093"><path d="M510.2592 513.6384m-450.816 0a450.816 450.816 0 1 0 901.632 0 450.816 450.816 0 1 0-901.632 0Z" fill="#FFE1E9" p-id="6094"></path><path d="M729.088 261.6832l-207.36-47.8208c-9.1136-2.0992-18.6368-2.0992-27.7504 0l-207.36 47.8208a61.77792 61.77792 0 0 0-47.9232 60.2112v311.9104c0 21.2992 10.9568 41.0624 28.9792 52.3776l207.36 129.8944a61.6448 61.6448 0 0 0 65.5872 0l207.36-129.8944c18.0224-11.3152 28.9792-31.0784 28.9792-52.3776V321.8944c0-28.7744-19.8656-53.76-47.872-60.2112z m-120.7296 188.3136h-63.5392v178.8416c0 20.4288-16.5376 36.9664-36.9664 36.9664-20.4288 0-36.9664-16.5376-36.9664-36.9664V449.9968H407.3472c-20.4288 0-36.9664-16.5376-36.9664-36.9664 0-20.4288 16.5376-36.9664 36.9664-36.9664h201.0112c20.4288 0 36.9664 16.5376 36.9664 36.9664 0 20.4288-16.5376 36.9664-36.9664 36.9664z" fill="#FF3369" p-id="6095"></path><path d="M776.96 367.9744v-46.08c0-28.7744-19.8656-53.76-47.9232-60.2112l-207.36-47.8208c-9.1136-2.0992-18.6368-2.0992-27.7504 0l-207.36 47.8208a61.77792 61.77792 0 0 0-47.9232 60.2112v311.9104c0 21.2992 10.9568 41.0624 28.9792 52.3776l144.5376 90.5728c197.632-37.632 349.5424-204.1856 364.8-408.7808z m-406.6304 45.056c0-20.4288 16.5376-36.9664 36.9664-36.9664h201.0112c20.4288 0 36.9664 16.5376 36.9664 36.9664s-16.5376 36.9664-36.9664 36.9664H544.768v178.8416c0 20.4288-16.5376 36.9664-36.9664 36.9664-20.4288 0-36.9664-16.5376-36.9664-36.9664V449.9968h-63.488c-20.4288 0-37.0176-16.5376-37.0176-36.9664z" fill="#FF4D7C" p-id="6096"></path><path d="M470.8352 537.2416V449.9968h-63.488c-20.4288 0-36.9664-16.5376-36.9664-36.9664s16.5376-36.9664 36.9664-36.9664h199.7824a447.44192 447.44192 0 0 0 42.496-132.7104l-127.8464-29.4912c-9.1136-2.0992-18.6368-2.0992-27.7504 0l-207.36 47.8208a61.77792 61.77792 0 0 0-47.9232 60.2112v301.4144c86.4768-6.5536 166.0928-37.5296 232.0896-86.0672zM560.384 449.9968h-15.5648v18.9952c5.376-6.144 10.5472-12.4928 15.5648-18.9952z" fill="#FF5F89" p-id="6097"></path><path d="M495.104 213.6576c-0.4096 0.1024-0.768 0.1024-1.1776 0.2048l-207.36 47.8208a61.77792 61.77792 0 0 0-47.9232 60.2112v118.3232c112.3328-39.0144 204.3904-121.1392 256.4608-226.56z" fill="#FF7196" p-id="6098"></path></svg>