<svg class="icon" style="width: 1em;height: 1em;vertical-align: middle;fill: currentColor;overflow: hidden;" viewBox="0 0 1024 1024" version="1.1" xmlns="http://www.w3.org/2000/svg" p-id="4746"><path d="M508.416 513.1264m-450.816 0a450.816 450.816 0 1 0 901.632 0 450.816 450.816 0 1 0-901.632 0Z" fill="#FFF1DC" p-id="4747"></path><path d="M508.7744 454.144c-42.0864 0-84.1728 0.1024-126.2592-0.1536-5.5296-0.0512-11.6224-0.9728-16.4352-3.4816-11.264-5.7856-14.2336-16.2304-9.9328-30.7712 13.3632-45.568 26.7264-91.136 40.0384-136.704 4.5568-15.5136 9.0112-31.0272 13.6704-46.4896 4.2496-14.1824 12.288-20.1216 27.2384-20.1216 47.8208-0.0512 95.5904-0.0512 143.4112 0 15.36 0 23.0912 5.8368 27.4944 20.736 17.92 61.0816 35.84 122.1632 53.6576 183.2448 5.8368 20.0192-4.7104 33.6896-25.856 33.7408H508.7744zM332.0832 725.9136c-42.8032 0-85.6064 0.0512-128.4608 0-13.9264 0-23.2448-6.5536-25.7536-18.8928-0.9216-4.4032-0.3072-9.5232 0.9728-13.9264 17.8688-61.5936 35.8912-123.136 54.016-184.6272 4.096-13.9264 12.6464-20.2752 27.2896-20.2752 47.5648-0.0512 95.1296-0.0512 142.6944 0 14.8992 0 23.0912 5.9392 27.2896 20.1728a47799.296 47799.296 0 0 1 54.8352 185.1392c5.376 18.3296-5.3248 32.3584-24.5248 32.4096-42.752 0.1024-85.5552 0-128.3584 0z" fill="#FCA315" p-id="4748"></path><path d="M685.1584 725.9136H559.616c-22.6816 0-32.7168-13.312-26.4192-34.9184 17.664-60.416 35.3792-120.7808 53.0432-181.1456 4.6592-15.872 12.4416-21.6576 29.0304-21.6576h139.8272c16.896 0 24.6272 5.7856 29.44 22.1184 17.8176 60.6208 35.584 121.2416 53.2992 181.8624 5.888 20.1728-4.5568 33.7408-25.7024 33.7408h-126.976z" fill="#FF8E12" p-id="4749"></path><path d="M784.5376 510.3104c-4.8128-16.3328-12.544-22.1184-29.44-22.1184h-139.8272c-16.5888 0-24.3712 5.7856-29.0304 21.6576-17.7152 60.3648-35.3792 120.7808-53.0432 181.1456-6.3488 21.6064 3.7376 34.9184 26.4192 34.9184h150.4256a448.59392 448.59392 0 0 0 77.7216-204.6464l-3.2256-10.9568z" fill="#FCA315" p-id="4750"></path><path d="M608 237.1072c-4.4032-14.9504-12.0832-20.736-27.4944-20.736-47.8208-0.0512-95.5904-0.0512-143.4112 0-14.9504 0-22.9888 5.9392-27.2384 20.1216-4.6592 15.4624-9.1136 30.976-13.6704 46.4896-13.3632 45.568-26.7264 91.136-40.0384 136.704-4.2496 14.5408-1.28 25.0368 9.9328 30.7712 4.8128 2.4576 10.9056 3.4304 16.4352 3.4816 42.0864 0.256 84.1728 0.1536 126.2592 0.1536 42.3424 0 84.6848 0.0512 126.976 0 2.816 0 5.4784-0.256 7.8848-0.768a449.9456 449.9456 0 0 0 13.4144-48.384c-16.2816-55.9104-32.6656-111.872-49.0496-167.8336zM430.1312 508.3136c-4.2496-14.1824-12.3904-20.1216-27.2896-20.1728-47.5648-0.0512-95.1296-0.0512-142.6944 0-14.6432 0-23.1936 6.3488-27.2896 20.2752-18.0736 61.4912-36.1472 123.0336-54.016 184.6272-1.28 4.4032-1.8944 9.5232-0.9728 13.9264 2.5088 12.288 11.8272 18.8416 25.7536 18.8928 42.8032 0.0512 85.6064 0 128.4608 0h54.5792c33.0752-13.4656 64.1536-30.72 92.7744-51.2512-16.3328-55.4496-32.768-110.848-49.3056-166.2976z" fill="#FCB138" p-id="4751"></path><path d="M630.1696 488.192h-14.8992c-16.5888 0-24.3712 5.7856-29.0304 21.6576-8.9088 30.3616-17.8176 60.7232-26.6752 91.136 28.7744-33.6896 52.6848-71.68 70.6048-112.7936z" fill="#FCA315" p-id="4752"></path><path d="M549.12 216.3712c-37.3248 0-74.7008-0.0512-112.0256 0-14.9504 0-22.9888 5.9392-27.2384 20.1216-4.6592 15.4624-9.1136 30.976-13.6704 46.4896-13.3632 45.568-26.7264 91.136-40.0384 136.704-4.2496 14.5408-1.28 25.0368 9.9328 30.7712 4.8128 2.4576 10.9056 3.4304 16.4352 3.4816 17.4592 0.1024 34.9184 0.1536 52.4288 0.1536 59.5456-64.6144 100.4544-146.688 114.176-237.7216zM399.9744 488.192c-46.592-0.0512-93.2352-0.0512-139.8272 0-14.6432 0-23.1936 6.3488-27.2896 20.2752-7.68 26.112-15.36 52.224-22.9888 78.3872a450.27328 450.27328 0 0 0 190.1056-98.6624z" fill="#FFC65E" p-id="4753"></path></svg>